<svg id="그룹_1548" data-name="그룹 1548" xmlns="http://www.w3.org/2000/svg" xmlns:xlink="http://www.w3.org/1999/xlink" width="326.798" height="220.463" viewBox="0 0 326.798 220.463">
  <defs>
    <clipPath id="clip-path">
      <rect id="사각형_1889" data-name="사각형 1889" width="326.798" height="220.463" fill="none"/>
    </clipPath>
  </defs>
  <g id="그룹_1547" data-name="그룹 1547" clip-path="url(#clip-path)">
    <path id="패스_5115" data-name="패스 5115" d="M267.7,26.337,246.115,4.752a16.632,16.632,0,0,0-22.97,0L210.076,17.757a4.7,4.7,0,0,0,0,6.533l12.012,12.015L211.66,46.735a84.861,84.861,0,0,0-105.744,0L95.487,36.305,107.5,24.29a4.541,4.541,0,0,0,0-6.533L94.5,4.752a16.254,16.254,0,0,0-22.97,0L49.943,26.337a16.254,16.254,0,0,0,0,22.97l13,13.005a4.545,4.545,0,0,0,6.534,0L81.495,50.3,91.923,60.726A84.991,84.991,0,0,0,97.93,173.334L79.382,205.68a9.836,9.836,0,0,0,8.581,14.784,9.83,9.83,0,0,0,8.58-4.951l17.03-29.634a84.513,84.513,0,0,0,90.5,0l16.964,29.634a9.91,9.91,0,0,0,8.581,4.951,10.223,10.223,0,0,0,4.95-1.253A9.869,9.869,0,0,0,238.2,205.68l-18.482-32.346a85,85,0,0,0,6.006-112.607L236.082,50.3,248.1,62.312a4.547,4.547,0,0,0,6.535,0L267.7,49.307a16.375,16.375,0,0,0,0-22.97M192.847,123.5H158.788a9.887,9.887,0,0,1-9.9-9.9V67.327a9.9,9.9,0,1,1,19.8,0V103.7h24.158a9.9,9.9,0,1,1,0,19.8" transform="translate(4.603 0)" fill="#203a72"/>
    <path id="패스_5116" data-name="패스 5116" d="M290.465,55.719a9.9,9.9,0,1,0-18.732,6.42,142.753,142.753,0,0,1,7.648,46.43,141.227,141.227,0,0,1-7.7,46.456,9.9,9.9,0,0,0,18.706,6.5,161.045,161.045,0,0,0,8.8-52.954,162.5,162.5,0,0,0-8.718-52.85" transform="translate(27.615 4.993)" fill="#14a0de"/>
    <path id="패스_5117" data-name="패스 5117" d="M19.8,108.571A142.6,142.6,0,0,1,27.45,62.148,9.9,9.9,0,0,0,8.719,55.714,164.155,164.155,0,0,0,8.8,161.525a9.9,9.9,0,0,0,18.706-6.5,141.145,141.145,0,0,1-7.7-46.456" transform="translate(0 4.993)" fill="#14a0de"/>
    <path id="패스_5118" data-name="패스 5118" d="M54.728,106.459a105.837,105.837,0,0,1,2.83-24.507A9.9,9.9,0,1,0,38.3,77.362a125.58,125.58,0,0,0-3.372,29.1,123.149,123.149,0,0,0,3.452,29.22,9.9,9.9,0,0,0,19.235-4.706,103.3,103.3,0,0,1-2.885-24.514" transform="translate(3.557 7.105)" fill="#14a0de"/>
    <path id="패스_5119" data-name="패스 5119" d="M248.492,70.026a9.9,9.9,0,0,0-7.336,11.925,105.778,105.778,0,0,1,2.831,24.507,103.361,103.361,0,0,1-2.885,24.514,9.9,9.9,0,1,0,19.235,4.7,123.192,123.192,0,0,0,3.451-29.219,125.579,125.579,0,0,0-3.371-29.1,9.9,9.9,0,0,0-11.925-7.336" transform="translate(24.528 7.104)" fill="#14a0de"/>
  </g>
</svg>
