<svg xmlns="http://www.w3.org/2000/svg" width="38.781" height="36.259" viewBox="0 0 38.781 36.259">
  <g id="그룹_1678" data-name="그룹 1678" transform="translate(-47 -1448)">
    <path id="패스_5103" data-name="패스 5103" d="M15.674,16.326a.583.583,0,0,1,.573.675,4.308,4.308,0,0,1-8.509,0,.582.582,0,0,1,.573-.675Z" transform="translate(54.398 1463.625)" fill="#fdb500"/>
    <path id="패스_5104" data-name="패스 5104" d="M2.865,13.358a.694.694,0,0,1-.125-.012.748.748,0,0,1-.615-.863A14.976,14.976,0,0,1,9.555,1.969a.75.75,0,0,1,.73,1.311A13.47,13.47,0,0,0,3.6,12.731a.749.749,0,0,1-.738.626" transform="translate(49.023 1449.792)" fill="#fdb500"/>
    <path id="패스_5105" data-name="패스 5105" d="M.751,14.453a.694.694,0,0,1-.125-.012.748.748,0,0,1-.615-.863A19.2,19.2,0,0,1,9.54.1a.75.75,0,0,1,.728,1.311,17.709,17.709,0,0,0-8.78,12.42.749.749,0,0,1-.738.626" transform="translate(47 1448)" fill="#fdb500"/>
    <path id="패스_5106" data-name="패스 5106" d="M21.135,13.358a.749.749,0,0,1-.738-.626A13.47,13.47,0,0,0,13.715,3.28a.75.75,0,0,1,.73-1.311,14.976,14.976,0,0,1,7.429,10.514.748.748,0,0,1-.615.863.694.694,0,0,1-.125.012" transform="translate(59.759 1449.792)" fill="#fdb500"/>
    <path id="패스_5107" data-name="패스 5107" d="M24.275,14.453a.749.749,0,0,1-.738-.626,17.7,17.7,0,0,0-8.78-12.42A.75.75,0,0,1,15.486.1a19.2,19.2,0,0,1,9.529,13.482.747.747,0,0,1-.615.863.694.694,0,0,1-.125.012" transform="translate(60.755 1448)" fill="#fdb500"/>
    <path id="패스_5108" data-name="패스 5108" d="M30.323,26.593c-.975-2.1-3.581-4.278-3.581-9.562v-1.8a10.083,10.083,0,0,0-6.188-9.3.83.83,0,0,1-.5-.773V5.153a3.385,3.385,0,0,0-6.77,0v.006a.832.832,0,0,1-.507.773,10.082,10.082,0,0,0-6.186,9.3v1.8c0,5.284-2.607,7.462-3.583,9.562A1.637,1.637,0,0,0,4.494,28.91h24.34a1.635,1.635,0,0,0,1.489-2.317" transform="translate(49.729 1449.693)" fill="#fdb500"/>
  </g>
</svg>
