<svg xmlns="http://www.w3.org/2000/svg" width="149.723" height="147.792" viewBox="0 0 149.723 147.792">
  <g id="그룹_1682" data-name="그룹 1682" transform="translate(-315.203 -598.55)">
    <path id="패스_5332" data-name="패스 5332" d="M175.452,30.313H276.878a24.148,24.148,0,0,1,24.148,24.148v99.494a24.149,24.149,0,0,1-24.148,24.15H175.452a24.149,24.149,0,0,1-24.148-24.15V54.461a24.148,24.148,0,0,1,24.148-24.148" transform="translate(163.899 568.237)" fill="#0b4a81"/>
    <path id="패스_5367" data-name="패스 5367" d="M183.539,116.758a3.2,3.2,0,0,1-3.183-3.187V72.787h62.108v24.2a24.368,24.368,0,0,1,7.165,2.853v-37.8A9.76,9.76,0,0,0,239.9,52.3h-2.1v4.116a8.015,8.015,0,0,1-7.985,8.007H224.9a8.015,8.015,0,0,1-7.985-8.007V52.3H205.9v4.116a8.02,8.02,0,0,1-8.008,8.007h-4.888a8.014,8.014,0,0,1-7.985-8.007V52.3h-1.482a10.362,10.362,0,0,0-10.351,10.333v50.936a10.365,10.365,0,0,0,10.351,10.353h28.113a18.513,18.513,0,0,1-.111-2.235,24.33,24.33,0,0,1,.487-4.931Z" transform="translate(178.873 583.283)" fill="#fff"/>
    <rect id="사각형_1956" data-name="사각형 1956" width="12.355" height="7.904" rx="0.73" transform="translate(365.659 661.927)" fill="#fff"/>
    <path id="패스_5368" data-name="패스 5368" d="M192.388,82.4h-9.9a1.23,1.23,0,0,0-1.229,1.231v5.445a1.23,1.23,0,0,0,1.229,1.229h9.9a1.23,1.23,0,0,0,1.229-1.229V83.631a1.23,1.23,0,0,0-1.229-1.231" transform="translate(184.397 603.877)" fill="#fff"/>
    <path id="패스_5369" data-name="패스 5369" d="M204.4,75.846h9.895a1.229,1.229,0,0,0,1.231-1.229V69.171a1.23,1.23,0,0,0-1.231-1.229H204.4a1.23,1.23,0,0,0-1.229,1.229v5.445a1.229,1.229,0,0,0,1.229,1.229" transform="translate(199.387 593.984)" fill="#fff"/>
    <path id="사각형_1957" data-name="사각형 1957" d="M.73,0h10.9a.73.73,0,0,1,.73.73V7.174a.73.73,0,0,1-.73.73H.731A.731.731,0,0,1,0,7.173V.73A.73.73,0,0,1,.73,0Z" transform="translate(384.108 661.927)" fill="#fff"/>
    <path id="패스_5370" data-name="패스 5370" d="M204.56,83.621a1.213,1.213,0,0,0-1.218-1.216h-9.908a1.226,1.226,0,0,0-1.216,1.216v5.462a1.226,1.226,0,0,0,1.216,1.216h7.5a24.149,24.149,0,0,1,3.63-5.6Z" transform="translate(191.895 603.88)" fill="#fff"/>
    <rect id="사각형_1958" data-name="사각형 1958" width="12.355" height="7.904" rx="0.73" transform="translate(365.659 674.103)" fill="#fff"/>
    <path id="패스_5371" data-name="패스 5371" d="M204.387,83.087h1.283a24.951,24.951,0,0,1,9.865-2.343V76.409a1.237,1.237,0,0,0-1.238-1.241h-9.91a1.233,1.233,0,0,0-1.216,1.241v5.44a1.231,1.231,0,0,0,1.216,1.238" transform="translate(199.389 598.928)" fill="#fff"/>
    <path id="패스_5372" data-name="패스 5372" d="M203.339,75.172h-9.895a1.229,1.229,0,0,0-1.229,1.229v5.445a1.23,1.23,0,0,0,1.229,1.229h9.895a1.229,1.229,0,0,0,1.231-1.229V76.4a1.228,1.228,0,0,0-1.231-1.229" transform="translate(191.893 598.931)" fill="#fff"/>
    <path id="패스_5373" data-name="패스 5373" d="M186.009,62.441h4.9a2.582,2.582,0,0,0,2.582-2.582v-10a2.582,2.582,0,0,0-2.582-2.582h-4.9a2.584,2.584,0,0,0-2.584,2.582v10a2.584,2.584,0,0,0,2.584,2.582" transform="translate(185.878 579.844)" fill="#fff"/>
    <path id="패스_5374" data-name="패스 5374" d="M204.947,62.441h4.9a2.582,2.582,0,0,0,2.582-2.582v-10a2.582,2.582,0,0,0-2.582-2.582h-4.9a2.582,2.582,0,0,0-2.582,2.582v10a2.582,2.582,0,0,0,2.582,2.582" transform="translate(198.837 579.844)" fill="#fff"/>
    <path id="패스_5375" data-name="패스 5375" d="M218.95,81.877a19.569,19.569,0,1,0,19.571,19.569A19.568,19.568,0,0,0,218.95,81.877m8,22.444h-8a2.876,2.876,0,0,1-2.875-2.875V90.583a2.875,2.875,0,0,1,5.75,0v7.988h5.122a2.875,2.875,0,1,1,0,5.75" transform="translate(196.795 603.519)" fill="#f2e500"/>
  </g>
</svg>
