<svg xmlns="http://www.w3.org/2000/svg" width="150.689" height="147.792" viewBox="0 0 150.689 147.792">
  <g id="그룹_1680" data-name="그룹 1680" transform="translate(-31.385 -630.502)">
    <path id="패스_5319" data-name="패스 5319" d="M55.01,30.313H157.4a24.149,24.149,0,0,1,24.15,24.148v99.494a24.151,24.151,0,0,1-24.15,24.15H55.01a24.149,24.149,0,0,1-24.148-24.15V54.461A24.148,24.148,0,0,1,55.01,30.313" transform="translate(0.523 600.189)" fill="#0b4a81"/>
    <path id="패스_5425" data-name="패스 5425" d="M91.619,92.02H69.491a1.14,1.14,0,0,0-1.14,1.14v7.72a1.14,1.14,0,0,0,1.14,1.14H72.11a8.562,8.562,0,0,0,16.888,0h2.621a1.14,1.14,0,0,0,1.14-1.14V93.16a1.14,1.14,0,0,0-1.14-1.14" transform="translate(27.142 640.756)" fill="#fff"/>
    <path id="패스_5426" data-name="패스 5426" d="M76.759,58.946a2.857,2.857,0,0,0,2.856-2.858V49.034a2.857,2.857,0,0,0-5.715,0v7.054a2.859,2.859,0,0,0,2.858,2.858" transform="translate(30.938 609.39)" fill="#f2e500"/>
    <path id="패스_5427" data-name="패스 5427" d="M66.04,59.728a2.858,2.858,0,1,0,4.95-2.858l-3.527-6.109a2.857,2.857,0,0,0-4.95,2.856Z" transform="translate(22.885 611.547)" fill="#f2e500"/>
    <path id="패스_5428" data-name="패스 5428" d="M63.91,61.858,57.8,58.331a2.857,2.857,0,0,0-2.856,4.948l6.109,3.527a2.853,2.853,0,0,0,3.9-1.046,2.856,2.856,0,0,0-1.046-3.9" transform="translate(16.99 617.442)" fill="#f2e500"/>
    <path id="패스_5429" data-name="패스 5429" d="M63.131,72.575a2.857,2.857,0,0,0-2.856-2.858H53.219a2.858,2.858,0,1,0,0,5.716h7.055a2.857,2.857,0,0,0,2.856-2.858" transform="translate(14.832 625.495)" fill="#f2e500"/>
    <path id="패스_5430" data-name="패스 5430" d="M61.054,79.776,54.945,83.3A2.857,2.857,0,1,0,57.8,88.251l6.109-3.527a2.857,2.857,0,1,0-2.856-4.948" transform="translate(16.99 632.115)" fill="#f2e500"/>
    <path id="패스_5431" data-name="패스 5431" d="M101.054,83.3l-6.11-3.527a2.857,2.857,0,0,0-2.856,4.948l6.11,3.527a2.853,2.853,0,0,0,3.9-1.046,2.856,2.856,0,0,0-1.046-3.9" transform="translate(42.405 632.115)" fill="#f2e500"/>
    <path id="패스_5432" data-name="패스 5432" d="M103.164,69.717H96.11a2.857,2.857,0,1,0,0,5.715h7.054a2.857,2.857,0,1,0,0-5.715" transform="translate(44.179 625.495)" fill="#f2e500"/>
    <path id="패스_5433" data-name="패스 5433" d="M93.519,67.19a2.818,2.818,0,0,0,1.425-.384l6.11-3.527A2.857,2.857,0,0,0,98.2,58.331l-6.11,3.527a2.858,2.858,0,0,0,1.432,5.332" transform="translate(42.404 617.442)" fill="#f2e500"/>
    <path id="패스_5434" data-name="패스 5434" d="M85.005,60.774a2.855,2.855,0,0,0,3.9-1.046l3.525-6.109a2.857,2.857,0,1,0-4.948-2.858l-3.527,6.11a2.858,2.858,0,0,0,1.046,3.9" transform="translate(37.56 611.547)" fill="#f2e500"/>
    <path id="패스_5435" data-name="패스 5435" d="M86.6,57.019A24.231,24.231,0,0,0,66.154,66.53a23.684,23.684,0,0,0-4.814,11.855,24.181,24.181,0,0,0,5.046,17.924,36.075,36.075,0,0,1,6.144,10.927l.487,1.457a1.7,1.7,0,0,0,1.613,1.162H96.3a1.7,1.7,0,0,0,1.615-1.164l.485-1.457a35.564,35.564,0,0,1,5.893-10.609,25.414,25.414,0,0,0,4.729-9.435A24.366,24.366,0,0,0,86.6,57.019" transform="translate(22.232 616.789)" fill="#fff"/>
    <path id="패스_5436" data-name="패스 5436" d="M84.987,94.079c-1.6,1.779-4.3,4.943-9.231,4.943a3.935,3.935,0,0,1-3.788-5L75.974,79.7a1.014,1.014,0,0,0-1.191-1.265,8.279,8.279,0,0,0-3.055,1.418,1.02,1.02,0,0,1-1.415-.18,1,1,0,0,1,.044-1.3c1.6-1.775,4.307-4.94,9.23-4.94a3.935,3.935,0,0,1,3.791,4.994L79.372,92.754a1.009,1.009,0,0,0,1.187,1.263A8.255,8.255,0,0,0,83.617,92.6a1.025,1.025,0,0,1,1.415.18,1.009,1.009,0,0,1-.045,1.3M82.033,70.436a4.36,4.36,0,1,1,4.36-4.359,4.36,4.36,0,0,1-4.36,4.359" transform="translate(28.336 620.021)" fill="#0b4a81"/>
  </g>
</svg>
