<svg xmlns="http://www.w3.org/2000/svg" xmlns:xlink="http://www.w3.org/1999/xlink" width="149.723" height="150.689" viewBox="0 0 149.723 150.689">
  <defs>
    <clipPath id="clip-path">
      <rect id="사각형_1959" data-name="사각형 1959" width="63.832" height="30.961" fill="none"/>
    </clipPath>
  </defs>
  <g id="그룹_1684" data-name="그룹 1684" transform="translate(-315.203 -827.482)">
    <path id="패스_5321" data-name="패스 5321" d="M175.452,166.24H276.878a24.148,24.148,0,0,1,24.148,24.148V292.781a24.148,24.148,0,0,1-24.148,24.148H175.452A24.148,24.148,0,0,1,151.3,292.781V190.388a24.148,24.148,0,0,1,24.148-24.148" transform="translate(163.899 661.242)" fill="#ba2d91"/>
    <path id="패스_5395" data-name="패스 5395" d="M244.085,179.32H180.633a9.16,9.16,0,0,0-9.147,9.145v37.568a9.151,9.151,0,0,0,9.147,9.135h12.608v11.289a14.014,14.014,0,0,1,3.419,4.985h2.774a13.929,13.929,0,0,1,25.861,0h2.774a13.852,13.852,0,0,1,3.406-4.985V235.169h12.61a9.141,9.141,0,0,0,9.135-9.135V188.465a9.149,9.149,0,0,0-9.135-9.145m3.778,46.714a3.792,3.792,0,0,1-3.778,3.778h-4.67v-2.5a1.638,1.638,0,0,0-1.645-1.635h-50.82a1.64,1.64,0,0,0-1.647,1.635v2.5h-4.669a3.785,3.785,0,0,1-3.778-3.778V188.465a3.778,3.778,0,0,1,3.778-3.778h63.452a3.786,3.786,0,0,1,3.778,3.778Z" transform="translate(177.709 670.191)" fill="#f2e500"/>
    <path id="패스_5396" data-name="패스 5396" d="M184.71,234.432A13.858,13.858,0,0,1,176.89,232a10.174,10.174,0,0,0-6.85,9.609V248a1.9,1.9,0,0,0,1.9,1.9h21.785v-8.3a14.946,14.946,0,0,1,2.131-7.705,10.018,10.018,0,0,0-3.309-1.9,13.923,13.923,0,0,1-7.84,2.435" transform="translate(176.72 706.234)" fill="#fff"/>
    <path id="패스_5397" data-name="패스 5397" d="M182.351,237.677a8.857,8.857,0,1,0-8.859-8.857,8.856,8.856,0,0,0,8.859,8.857" transform="translate(179.081 698)" fill="#fff"/>
    <path id="패스_5398" data-name="패스 5398" d="M225.114,232a13.8,13.8,0,0,1-15.658,0,10.154,10.154,0,0,0-3.311,1.922,14.868,14.868,0,0,1,2.112,7.687V249.9h21.785a1.9,1.9,0,0,0,1.9-1.9v-6.393A10.156,10.156,0,0,0,225.114,232" transform="translate(201.424 706.234)" fill="#fff"/>
    <path id="패스_5399" data-name="패스 5399" d="M216.357,237.677a8.857,8.857,0,1,0-8.859-8.857,8.856,8.856,0,0,0,8.859,8.857" transform="translate(202.35 698)" fill="#fff"/>
    <path id="패스_5400" data-name="패스 5400" d="M199.354,237.677a8.857,8.857,0,1,0-8.859-8.857,8.856,8.856,0,0,0,8.859,8.857" transform="translate(190.715 698)" fill="#fff"/>
    <path id="패스_5401" data-name="패스 5401" d="M209.542,231.994a13.786,13.786,0,0,1-15.653,0,10.191,10.191,0,0,0-6.845,9.6l0,8.313h29.338V241.6a10.19,10.19,0,0,0-6.841-9.6" transform="translate(188.354 706.232)" fill="#fff"/>
    <g id="그룹_1650" data-name="그룹 1650" transform="translate(358.066 862.543)" clip-path="url(#clip-path)">
      <text id="NOW" transform="translate(-0.002 22.514)" fill="#fff" font-size="26" font-family="SegoeUI, Segoe UI"><tspan x="0" y="0">NOW</tspan></text>
    </g>
  </g>
</svg>
