<svg xmlns="http://www.w3.org/2000/svg" width="148.758" height="150.689" viewBox="0 0 148.758 150.689">
  <g id="그룹_1683" data-name="그룹 1683" transform="translate(-111.386 -827.482)">
    <path id="패스_5325" data-name="패스 5325" d="M54.436,166.24H154.9a24.149,24.149,0,0,1,24.15,24.148V292.781a24.149,24.149,0,0,1-24.15,24.148H54.436a24.148,24.148,0,0,1-24.148-24.148V190.388A24.148,24.148,0,0,1,54.436,166.24" transform="translate(81.098 661.242)" fill="#0b4a81"/>
    <path id="패스_5384" data-name="패스 5384" d="M138.336,206.926H48.607a1.957,1.957,0,0,0-1.957,1.957v3.251a1.956,1.956,0,0,0,1.955,1.955h89.73a1.958,1.958,0,0,0,1.957-1.957v-3.249a1.957,1.957,0,0,0-1.957-1.957" transform="translate(92.293 689.08)" fill="#f2e500"/>
    <path id="패스_5385" data-name="패스 5385" d="M74.5,230.191a10.493,10.493,0,0,0-5.011-3.761,13.989,13.989,0,0,1-15.882,0,10.376,10.376,0,0,0-6.958,9.747v5.745a.946.946,0,0,0,.95.952H73.38a4.91,4.91,0,0,1-.083-.952v-5.745a15.443,15.443,0,0,1,1.2-5.986" transform="translate(92.294 702.426)" fill="#fff"/>
    <path id="패스_5386" data-name="패스 5386" d="M50.155,223.211a8.994,8.994,0,1,0,8.994-8.994,8.992,8.992,0,0,0-8.994,8.994" transform="translate(94.691 694.069)" fill="#fff"/>
    <path id="패스_5387" data-name="패스 5387" d="M106.619,226.429a14.014,14.014,0,0,1-15.9,0,10.525,10.525,0,0,0-4.99,3.742,15.561,15.561,0,0,1,1.2,6.006v5.745a4.81,4.81,0,0,1-.084.953h25.78a.944.944,0,0,0,.93-.953v-5.745a10.362,10.362,0,0,0-6.937-9.748" transform="translate(119.029 702.425)" fill="#fff"/>
    <path id="패스_5388" data-name="패스 5388" d="M88.071,223.211a8.994,8.994,0,1,0,8.992-8.994,8.99,8.99,0,0,0-8.992,8.994" transform="translate(120.634 694.069)" fill="#fff"/>
    <path id="패스_5389" data-name="패스 5389" d="M88.45,226.434a14,14,0,0,1-15.892,0,10.345,10.345,0,0,0-6.947,9.75v5.74a.941.941,0,0,0,.941.941h27.9a.942.942,0,0,0,.943-.941v-5.74a10.344,10.344,0,0,0-6.949-9.75" transform="translate(105.266 702.428)" fill="#fff"/>
    <path id="패스_5390" data-name="패스 5390" d="M69.114,223.211a8.994,8.994,0,1,0,8.99-8.994,8.99,8.99,0,0,0-8.99,8.994" transform="translate(107.663 694.069)" fill="#fff"/>
    <path id="패스_5391" data-name="패스 5391" d="M77.941,200.874a8.558,8.558,0,1,0-8.558-8.558,8.558,8.558,0,0,0,8.558,8.558" transform="translate(107.848 673.228)" fill="#fff"/>
    <path id="패스_5392" data-name="패스 5392" d="M72.4,196.493l-1.972-3.485a2.085,2.085,0,0,0-2.838-.788l-3.341,1.891a2.081,2.081,0,0,0-.785,2.838l.13.232-11.4,6.451a1.735,1.735,0,0,0,.857,3.246,1.709,1.709,0,0,0,.852-.226l2.488-1.411v14.668h3.475V203.277L65.3,200.2l.135.232a2.079,2.079,0,0,0,2.835.788l3.342-1.888a2.086,2.086,0,0,0,.787-2.841" transform="translate(95.484 678.834)" fill="#f2e500"/>
    <path id="패스_5393" data-name="패스 5393" d="M96.006,204.05a11.235,11.235,0,0,0-7.838-9.374.808.808,0,0,0-.985.515l-4.217,12.066L82,199.37h.645a.705.705,0,0,0,.7-.706v-2.169a.7.7,0,0,0-.7-.7H79.108a.7.7,0,0,0-.7.7v2.169a.7.7,0,0,0,.7.706h.645l-.968,7.887-4.216-12.066a.807.807,0,0,0-.985-.515,11.233,11.233,0,0,0-7.837,9.371l-.689,8.106H96.693Z" transform="translate(104.888 680.675)" fill="#fff"/>
    <path id="패스_5394" data-name="패스 5394" d="M105.381,203.633l-11.4-6.451.131-.232a2.081,2.081,0,0,0-.788-2.838l-3.338-1.89a2.082,2.082,0,0,0-2.838.787l-1.972,3.485a2.083,2.083,0,0,0,.788,2.84l3.338,1.89a2.082,2.082,0,0,0,2.838-.788l.131-.232,5.432,3.077v16.632h3.473V205.243l2.494,1.41a1.716,1.716,0,0,0,.851.226,1.735,1.735,0,0,0,.859-3.246" transform="translate(118.469 678.834)" fill="#f2e500"/>
  </g>
</svg>
