<svg xmlns="http://www.w3.org/2000/svg" width="148.758" height="149.724" viewBox="0 0 148.758 149.724">
  <g id="그룹_1681" data-name="그룹 1681" transform="translate(-518.056 -598.55)">
    <path id="패스_5320" data-name="패스 5320" d="M295.894,30.313H396.353A24.149,24.149,0,0,1,420.5,54.461V155.887a24.151,24.151,0,0,1-24.15,24.15H295.894a24.149,24.149,0,0,1-24.148-24.15V54.461a24.148,24.148,0,0,1,24.148-24.148" transform="translate(246.31 568.237)" fill="#0b4a81"/>
    <path id="패스_5407" data-name="패스 5407" d="M377.294,61.848v50.1a2.453,2.453,0,0,1-2.472,2.439c-2.858,0-5.679.1-8.5.35a8.244,8.244,0,0,0-3.134-4.182l-6.168-4.286a85.327,85.327,0,0,1,9.406-.8V57.876a86.518,86.518,0,0,0-30.274,6.376V91.81l-.384-.28a8.2,8.2,0,0,0-4.633-1.464V64.253a86.327,86.327,0,0,0-30.239-6.376v47.589a93.129,93.129,0,0,1,23.062,3.656l1.255,10.766a99.368,99.368,0,0,0-32.714-5.5,2.483,2.483,0,0,1-2.506-2.439v-50.1a2.544,2.544,0,0,1,2.506-2.509c1.117,0,2.2.069,3.276.141h.175V55.367a2.439,2.439,0,0,1,2.437-2.508,91.781,91.781,0,0,1,35.256,6.968A92.051,92.051,0,0,1,368.9,52.859a2.419,2.419,0,0,1,2.439,2.508V59.48h.207c1.046-.072,2.127-.141,3.278-.141a2.514,2.514,0,0,1,2.472,2.509" transform="translate(258.792 583.664)" fill="#fff"/>
    <path id="패스_5408" data-name="패스 5408" d="M318.5,63.639a92.454,92.454,0,0,0-16.59-3.347A2.532,2.532,0,0,0,299.2,62.5a2.486,2.486,0,0,0,.534,1.829,2.45,2.45,0,0,0,1.669.908,88.087,88.087,0,0,1,15.685,3.171,2.547,2.547,0,0,0,.709.1,2.486,2.486,0,0,0,.707-4.869" transform="translate(265.083 588.746)" fill="#fff"/>
    <path id="패스_5409" data-name="패스 5409" d="M318.5,69.276a92.624,92.624,0,0,0-16.573-3.347,2.487,2.487,0,0,0-.529,4.947,87.517,87.517,0,0,1,15.69,3.17,2.517,2.517,0,0,0,.7.1,2.488,2.488,0,0,0,.707-4.872" transform="translate(265.083 592.598)" fill="#fff"/>
    <path id="패스_5410" data-name="패스 5410" d="M320.177,78.007a2.5,2.5,0,0,0-1.674-3.1,93.689,93.689,0,0,0-16.588-3.35,2.544,2.544,0,0,0-2.718,2.208,2.486,2.486,0,0,0,2.2,2.742,87.9,87.9,0,0,1,15.685,3.17,2.688,2.688,0,0,0,.709.1,2.475,2.475,0,0,0,2.381-1.77" transform="translate(265.082 596.454)" fill="#fff"/>
    <path id="패스_5411" data-name="패스 5411" d="M316.827,85.237a86.454,86.454,0,0,0-15.434-3.1,2.539,2.539,0,0,1-1.671-.871,2.606,2.606,0,0,1-.522-1.848,2.471,2.471,0,0,1,2.717-2.228,90.434,90.434,0,0,1,14.7,2.855,8.407,8.407,0,0,0-.1,2.649Z" transform="translate(265.084 600.306)" fill="#fff"/>
    <path id="패스_5412" data-name="패스 5412" d="M322.6,68.508a2.4,2.4,0,0,0,.707-.1,88.554,88.554,0,0,1,15.682-3.168A2.485,2.485,0,0,0,341.2,62.5a2.5,2.5,0,0,0-2.531-2.216c-.067,0-.138,0-.211.008a92.583,92.583,0,0,0-16.563,3.347,2.482,2.482,0,0,0-1.674,3.092,2.5,2.5,0,0,0,2.381,1.777" transform="translate(279.403 588.744)" fill="#fff"/>
    <path id="패스_5413" data-name="패스 5413" d="M320.218,72.371a2.494,2.494,0,0,0,2.381,1.777,2.568,2.568,0,0,0,.709-.1,87.431,87.431,0,0,1,15.682-3.171,2.49,2.49,0,0,0,2.208-2.74,2.5,2.5,0,0,0-2.737-2.2h-.008a92.856,92.856,0,0,0-16.561,3.347,2.476,2.476,0,0,0-1.674,3.094" transform="translate(279.402 592.598)" fill="#fff"/>
    <path id="패스_5414" data-name="패스 5414" d="M320.218,78A2.492,2.492,0,0,0,322.6,79.78a2.542,2.542,0,0,0,.709-.1,87.865,87.865,0,0,1,15.682-3.168,2.489,2.489,0,0,0,2.208-2.737,2.549,2.549,0,0,0-2.728-2.213l-.017.007a93.053,93.053,0,0,0-16.561,3.342,2.483,2.483,0,0,0-1.674,3.1" transform="translate(279.402 596.454)" fill="#fff"/>
    <path id="패스_5415" data-name="패스 5415" d="M340.086,79.417a2.6,2.6,0,0,1-.524,1.848,2.629,2.629,0,0,1-1.671.871,86.512,86.512,0,0,0-10.766,1.846l-5.364-3.727a94.023,94.023,0,0,1,15.572-3.067,2.529,2.529,0,0,1,2.752,2.23" transform="translate(280.531 600.305)" fill="#fff"/>
    <path id="패스_5416" data-name="패스 5416" d="M343.749,98.028l-27.4-18.991a2.035,2.035,0,0,0-3.18,1.908l3.887,33.107a2.032,2.032,0,0,0,3.437,1.221l6.9-6.712,5.775,9.62a2.033,2.033,0,0,0,2.791.7l3.158-1.9a2.032,2.032,0,0,0,.7-2.789l-5.777-9.622,9.172-2.934a2.035,2.035,0,0,0,.537-3.609" transform="translate(274.646 601.324)" fill="#f2e500"/>
  </g>
</svg>
