<svg xmlns="http://www.w3.org/2000/svg" xmlns:xlink="http://www.w3.org/1999/xlink" width="23.365" height="20.034" viewBox="0 0 23.365 20.034">
  <defs>
    <clipPath id="clip-path">
      <rect id="사각형_1707" data-name="사각형 1707" width="23.365" height="20.034" fill="none"/>
    </clipPath>
  </defs>
  <g id="그룹_1418" data-name="그룹 1418" transform="translate(0 0)">
    <g id="그룹_1417" data-name="그룹 1417" transform="translate(0 0)" clip-path="url(#clip-path)">
      <path id="패스_4771" data-name="패스 4771" d="M8,8.514a4.257,4.257,0,1,1,4.257-4.258A4.262,4.262,0,0,1,8,8.514M8,1.051a3.206,3.206,0,1,0,3.206,3.206A3.209,3.209,0,0,0,8,1.051" transform="translate(0.19 0)"/>
      <path id="패스_4772" data-name="패스 4772" d="M15.861,15.821H.525A.526.526,0,0,1,0,15.3a8.193,8.193,0,0,1,16.386,0,.526.526,0,0,1-.525.525M1.07,14.77H15.317a7.143,7.143,0,0,0-14.247,0" transform="translate(0 0.36)"/>
      <path id="패스_4773" data-name="패스 4773" d="M7.822,13.213a.526.526,0,0,1-.525-.525V7.627a.525.525,0,1,1,1.051,0v5.06a.526.526,0,0,1-.525.525" transform="translate(0.37 0.36)"/>
      <path id="패스_4774" data-name="패스 4774" d="M22.228,13.977A5.08,5.08,0,1,1,17.148,8.9a5.08,5.08,0,0,1,5.079,5.08" transform="translate(0.612 0.451)" fill="#f2b90f"/>
      <path id="패스_4775" data-name="패스 4775" d="M17.174,19.607a5.605,5.605,0,1,1,5.6-5.6,5.611,5.611,0,0,1-5.6,5.6m0-10.16A4.554,4.554,0,1,0,21.728,14a4.561,4.561,0,0,0-4.554-4.555" transform="translate(0.587 0.426)"/>
      <path id="패스_4776" data-name="패스 4776" d="M17.047,17.063a.526.526,0,0,1-.525-.525V13.62h-.586a.525.525,0,1,1,0-1.051h1.112a.525.525,0,0,1,.525.525v3.443a.526.526,0,0,1-.525.525" transform="translate(0.782 0.638)"/>
      <path id="패스_4777" data-name="패스 4777" d="M18.116,16.9H15.85a.525.525,0,0,1,0-1.051h2.265a.525.525,0,0,1,0,1.051" transform="translate(0.777 0.804)"/>
      <path id="패스_4778" data-name="패스 4778" d="M17.532,11.376a.6.6,0,1,0-.6.6.6.6,0,0,0,.6-.6" transform="translate(0.828 0.547)"/>
    </g>
  </g>
</svg>
