<svg xmlns="http://www.w3.org/2000/svg" width="148.758" height="148.758" viewBox="0 0 148.758 148.758">
  <g id="그룹_1688" data-name="그룹 1688" transform="translate(-518.056 -1060.277)">
    <path id="패스_5324" data-name="패스 5324" d="M295.894,304.461H396.353a24.149,24.149,0,0,1,24.15,24.148V429.07a24.149,24.149,0,0,1-24.15,24.148H295.894a24.148,24.148,0,0,1-24.148-24.148V328.609a24.148,24.148,0,0,1,24.148-24.148" transform="translate(246.31 755.816)" fill="#0b4a81"/>
    <path id="패스_5417" data-name="패스 5417" d="M382.485,359.075l-12.4-14.388a2.607,2.607,0,0,0-1.275-.785l-21.275-5.588a6.419,6.419,0,0,1-1.447,4.142,7.123,7.123,0,0,1-.588.613l12.549,3.31-22.722,5.955-22.747-5.955,12.574-3.31a6.882,6.882,0,0,1-.588-.613,6.41,6.41,0,0,1-1.447-4.142L301.841,343.9a2.622,2.622,0,0,0-1.275.785l-12.4,14.388a2.493,2.493,0,0,0-.514,2.427,2.618,2.618,0,0,0,1.789,1.715l10.491,2.745v23.508a2.569,2.569,0,0,0,1.912,2.476l32.822,8.627a2.865,2.865,0,0,0,1.3,0l32.822-8.627a2.569,2.569,0,0,0,1.912-2.476V365.962l10.516-2.745A2.618,2.618,0,0,0,383,361.5a2.494,2.494,0,0,0-.515-2.427m-87.777.221,8.677-10.05,27.332,7.182-8.677,10.05Zm38.067,35.493-27.722-7.281v-20.2l17.208,4.51a2.642,2.642,0,0,0,2.6-.785l7.918-9.167Zm32.822-7.281-27.724,7.281V361.87l7.918,9.167a2.6,2.6,0,0,0,2.573.785l17.233-4.51ZM348.61,366.478l-8.677-10.05,27.33-7.182,8.679,10.05Z" transform="translate(257.109 778.979)" fill="#fff"/>
    <path id="패스_5418" data-name="패스 5418" d="M309.98,336.423l3.788,3.464a.979.979,0,0,1,.3.923l-1.027,5.026a1.581,1.581,0,0,0,2.331,1.691l4.456-2.53a.991.991,0,0,1,.977,0l4.458,2.53a1.58,1.58,0,0,0,2.331-1.691l-1.031-5.022a.98.98,0,0,1,.3-.926l3.788-3.464a1.582,1.582,0,0,0-.891-2.74l-5.1-.569a.977.977,0,0,1-.787-.573l-2.122-4.674a1.581,1.581,0,0,0-2.88,0l-2.119,4.672a.991.991,0,0,1-.79.573l-5.1.569a1.581,1.581,0,0,0-.891,2.74" transform="translate(272.115 771.197)" fill="#f2e500"/>
    <path id="패스_5419" data-name="패스 5419" d="M316.969,328.44a2.573,2.573,0,0,0,2.573-2.573v-5.875a2.574,2.574,0,1,0-5.147,0v5.875a2.573,2.573,0,0,0,2.574,2.573" transform="translate(275.491 764.682)" fill="#f2e500"/>
    <path id="패스_5420" data-name="패스 5420" d="M309.295,330.1a2.575,2.575,0,1,0,3.641-3.641l-4.155-4.153a2.574,2.574,0,0,0-3.641,3.64Z" transform="translate(268.644 767.509)" fill="#f2e500"/>
    <path id="패스_5421" data-name="패스 5421" d="M302.806,336.694h5.876a2.573,2.573,0,0,0,0-5.147h-5.876a2.573,2.573,0,1,0,0,5.147" transform="translate(265.8 774.35)" fill="#f2e500"/>
    <path id="패스_5422" data-name="패스 5422" d="M325.037,334.154a2.573,2.573,0,0,0,2.573,2.573h5.875a2.574,2.574,0,0,0,0-5.147h-5.875a2.573,2.573,0,0,0-2.573,2.574" transform="translate(282.772 774.372)" fill="#f2e500"/>
    <path id="패스_5423" data-name="패스 5423" d="M324.5,330.874a2.571,2.571,0,0,0,1.821-.753l4.155-4.155a2.574,2.574,0,1,0-3.641-3.64l-4.155,4.153a2.574,2.574,0,0,0,1.821,4.394" transform="translate(280.644 767.525)" fill="#f2e500"/>
  </g>
</svg>
