<svg xmlns="http://www.w3.org/2000/svg" width="149.723" height="148.758" viewBox="0 0 149.723 148.758">
  <g id="그룹_1687" data-name="그룹 1687" transform="translate(-315.203 -1060.277)">
    <path id="패스_5322" data-name="패스 5322" d="M175.452,304.461H276.878a24.148,24.148,0,0,1,24.148,24.148V429.07a24.148,24.148,0,0,1-24.148,24.148H175.452A24.148,24.148,0,0,1,151.3,429.07V328.609a24.148,24.148,0,0,1,24.148-24.148" transform="translate(163.899 755.816)" fill="#0b4a81"/>
    <path id="패스_5376" data-name="패스 5376" d="M197.932,340.673A3.077,3.077,0,0,0,201,343.745h11.283a3.085,3.085,0,0,0,0-6.169H201a3.083,3.083,0,0,0-3.072,3.1" transform="translate(195.804 778.475)" fill="#fff"/>
    <path id="패스_5377" data-name="패스 5377" d="M212.287,345.667H201a3.085,3.085,0,0,0,0,6.169h11.283a3.085,3.085,0,0,0,0-6.169" transform="translate(195.804 784.011)" fill="#fff"/>
    <path id="패스_5378" data-name="패스 5378" d="M212.287,353.757H201a3.085,3.085,0,0,0,0,6.169h11.283a3.085,3.085,0,0,0,0-6.169" transform="translate(195.804 789.546)" fill="#fff"/>
    <path id="패스_5379" data-name="패스 5379" d="M212.287,361.848H201a3.085,3.085,0,0,0,0,6.169h11.283a3.085,3.085,0,0,0,0-6.169" transform="translate(195.804 795.082)" fill="#fff"/>
    <path id="패스_5380" data-name="패스 5380" d="M186.374,357.371H200.4a2.886,2.886,0,0,0,2.887-2.885V340.463a2.886,2.886,0,0,0-2.887-2.887H186.374a2.886,2.886,0,0,0-2.885,2.887v14.023a2.885,2.885,0,0,0,2.885,2.885m1.484-11.227a1.91,1.91,0,0,1,2.695,0l1.428,1.427,4.236-4.236a1.907,1.907,0,0,1,2.7,2.695h0l-5.583,5.585a1.905,1.905,0,0,1-2.7,0l-2.776-2.774a1.91,1.91,0,0,1,0-2.7" transform="translate(185.922 778.475)" fill="#f2e500"/>
    <path id="패스_5381" data-name="패스 5381" d="M186.374,373.552H200.4a2.886,2.886,0,0,0,2.887-2.885V356.642a2.886,2.886,0,0,0-2.887-2.885H186.374a2.885,2.885,0,0,0-2.885,2.885v14.025a2.885,2.885,0,0,0,2.885,2.885m1.484-11.227a1.91,1.91,0,0,1,2.695,0l1.428,1.427,4.236-4.236a1.907,1.907,0,0,1,2.7,2.695h0L193.33,367.8a1.905,1.905,0,0,1-2.7,0l-2.776-2.774a1.91,1.91,0,0,1,0-2.7" transform="translate(185.922 789.546)" fill="#f2e500"/>
    <path id="패스_5382" data-name="패스 5382" d="M244.559,327.524H232.788v7.133h4.637a1.931,1.931,0,0,1,1.9,1.964v61.269a1.878,1.878,0,0,1-1.9,1.9h-53.8a1.929,1.929,0,0,1-1.962-1.9V336.621a1.982,1.982,0,0,1,1.962-1.964H188.2v-7.133H176.491a1.979,1.979,0,0,0-1.962,1.962v75.536a1.928,1.928,0,0,0,1.962,1.9h68.068a1.878,1.878,0,0,0,1.9-1.9V329.486a1.929,1.929,0,0,0-1.9-1.962" transform="translate(179.791 771.597)" fill="#fff"/>
    <path id="패스_5383" data-name="패스 5383" d="M187.559,341.437h29.922a1.374,1.374,0,0,0,1.373-1.374v-7.857a1.372,1.372,0,0,0-1.373-1.373h-7.636v-3.424a7.49,7.49,0,0,0-5.77-7.4,7.345,7.345,0,0,0-8.879,7.163v3.663h-7.638a1.372,1.372,0,0,0-1.373,1.373v7.857a1.376,1.376,0,0,0,1.374,1.374M202.52,324.5a2.672,2.672,0,1,1-2.673,2.673,2.679,2.679,0,0,1,2.673-2.673" transform="translate(187.767 766.342)" fill="#fff"/>
  </g>
</svg>
