<svg xmlns="http://www.w3.org/2000/svg" width="149.798" height="148.835" viewBox="0 0 149.798 148.835">
  <g id="그룹_1686" data-name="그룹 1686" transform="translate(-112.314 -1060.239)">
    <path id="패스_5424" data-name="패스 5424" d="M54.969,304.516l101.426-.078a24.148,24.148,0,0,1,24.167,24.13l.076,100.461a24.148,24.148,0,0,1-24.13,24.167l-101.426.078a24.148,24.148,0,0,1-24.167-24.13l-.076-100.461a24.148,24.148,0,0,1,24.13-24.167" transform="translate(81.475 755.801)" fill="#0b4a81"/>
    <path id="패스_5437" data-name="패스 5437" d="M64.715,341.262a2.154,2.154,0,0,0,1.688-.812c3.539-4.435,10.233-7.19,17.474-7.19a25.047,25.047,0,0,1,14.173,4.13l-2.538.069a2.158,2.158,0,0,0,.057,4.315h.061l7.785-.212a2.158,2.158,0,0,0,2.1-2.216l-.212-7.785a2.187,2.187,0,0,0-2.215-2.1,2.159,2.159,0,0,0-2.1,2.216l.071,2.558a28.79,28.79,0,0,0-17.181-5.292c-8.65,0-16.445,3.294-20.847,8.814a2.157,2.157,0,0,0,1.686,3.5" transform="translate(103.178 772.568)" fill="#fff"/>
    <path id="패스_5438" data-name="패스 5438" d="M101.668,362.01c-3.537,4.435-10.233,7.188-17.474,7.188a25.041,25.041,0,0,1-14.171-4.128L72.56,365a2.159,2.159,0,0,0,2.1-2.216,2.212,2.212,0,0,0-2.215-2.1l-7.785.211a2.157,2.157,0,0,0-2.1,2.216l.211,7.784a2.159,2.159,0,0,0,2.156,2.1h.059a2.158,2.158,0,0,0,2.1-2.216l-.069-2.558a28.789,28.789,0,0,0,17.181,5.29c8.652,0,16.445-3.294,20.847-8.814a2.157,2.157,0,0,0-3.374-2.69" transform="translate(103.179 794.287)" fill="#fff"/>
    <path id="패스_5439" data-name="패스 5439" d="M81.568,339.476a15.406,15.406,0,1,0,15.406,15.406,15.422,15.422,0,0,0-15.406-15.406m8.088,12.989-8.83,8.83a2.334,2.334,0,0,1-3.3,0l-4.389-4.386a2.336,2.336,0,1,1,3.3-3.3l2.737,2.734,7.178-7.18a2.337,2.337,0,1,1,3.3,3.3" transform="translate(105.645 779.774)" fill="#f2e500"/>
    <path id="패스_5440" data-name="패스 5440" d="M69.441,347.615a14.188,14.188,0,0,1-16.591,0A14.5,14.5,0,0,0,45.926,360v3.36a2.376,2.376,0,0,0,2.392,2.375H73.989a2.388,2.388,0,0,0,2.393-2.375V360a14.521,14.521,0,0,0-6.941-12.381" transform="translate(91.798 785.344)" fill="#fff"/>
    <path id="패스_5441" data-name="패스 5441" d="M49.541,344.491a9.136,9.136,0,1,0,9.135-9.135,9.134,9.134,0,0,0-9.135,9.135" transform="translate(94.271 776.955)" fill="#fff"/>
    <path id="패스_5442" data-name="패스 5442" d="M110.127,347.615a14.188,14.188,0,0,1-16.591,0A14.5,14.5,0,0,0,86.612,360v3.36A2.376,2.376,0,0,0,89,365.731h25.671a2.388,2.388,0,0,0,2.393-2.375V360a14.521,14.521,0,0,0-6.941-12.381" transform="translate(119.636 785.344)" fill="#fff"/>
    <path id="패스_5443" data-name="패스 5443" d="M90.227,344.491a9.136,9.136,0,1,0,9.135-9.135,9.134,9.134,0,0,0-9.135,9.135" transform="translate(122.109 776.955)" fill="#fff"/>
  </g>
</svg>
