<svg xmlns="http://www.w3.org/2000/svg" width="148.758" height="150.689" viewBox="0 0 148.758 150.689">
  <g id="그룹_1685" data-name="그룹 1685" transform="translate(-518.056 -827.482)">
    <path id="패스_5323" data-name="패스 5323" d="M295.894,166.24H396.353a24.149,24.149,0,0,1,24.15,24.148V292.781a24.149,24.149,0,0,1-24.15,24.148H295.894a24.148,24.148,0,0,1-24.148-24.148V190.388a24.148,24.148,0,0,1,24.148-24.148" transform="translate(246.31 661.242)" fill="#0b4a81"/>
    <path id="패스_5402" data-name="패스 5402" d="M309.485,226.4c.682,1.843,1.314,3.631,1.88,5.292a3.213,3.213,0,0,0,6.083,0c.568-1.659,1.2-3.448,1.88-5.29a50.311,50.311,0,0,1,8.136-14.663,16.9,16.9,0,0,0-13.876-27.618A17.041,17.041,0,0,0,297.5,200.533a16.811,16.811,0,0,0,3.707,11.033,53,53,0,0,1,8.275,14.831m4.921-34.208a8.819,8.819,0,1,1-8.819,8.82,8.82,8.82,0,0,1,8.819-8.82" transform="translate(263.929 673.462)" fill="#f2e500"/>
    <path id="패스_5403" data-name="패스 5403" d="M345.167,212.362a4.81,4.81,0,0,0-4.43-2.934H327.2l-4.145,10.215,28.255,7.212Z" transform="translate(281.414 690.792)" fill="#fff"/>
    <path id="패스_5404" data-name="패스 5404" d="M342.741,209.431H330.2c-.241.563-.461,1.144-.682,1.726-.6,1.644-1.224,3.37-1.826,5.135a9.228,9.228,0,0,1-17.477,0c-.6-1.765-1.224-3.491-1.826-5.135-.221-.583-.443-1.164-.682-1.726h-4.376a4.815,4.815,0,0,0-4.433,2.929l-8.047,18.983h42.98Z" transform="translate(259.382 690.794)" fill="#fff"/>
    <path id="패스_5405" data-name="패스 5405" d="M290.4,226.021l-2.218,5.236a4.81,4.81,0,0,0,4.43,6.686h51.921l-8.165-11.923Z" transform="translate(257.291 702.146)" fill="#fff"/>
    <path id="패스_5406" data-name="패스 5406" d="M360.346,236.173l-3.722-8.788-33.491-8.547-3.54,8.723,10.479,15.3h25.844a4.81,4.81,0,0,0,4.43-6.686" transform="translate(279.048 697.23)" fill="#fff"/>
  </g>
</svg>
