<svg xmlns="http://www.w3.org/2000/svg" width="749.8" height="139.7" viewBox="0 0 749.8 139.7">
  <g id="그룹_1527" transform="translate(0 -0.8)">
    <g id="그룹_1732" data-name="그룹 1732">
      <g id="그룹_1733" data-name="그룹 1733">
        <path id="패스_5030" d="M374.9.8c27.1,0,49,21.7,49,48.5s-21.9,48.5-49,48.5-49-21.7-49-48.5S347.9.8,374.9.8" fill="#0b4a81"/>
        <path id="패스_5031" d="M321.8,63a55.079,55.079,0,0,0,106.3,0,39.329,39.329,0,0,1,36.8-25.7H749.8V140.5H0V37.4H284.9A39.271,39.271,0,0,1,321.8,63Z" fill="#0b4a81"/>
        <path id="패스_5032" d="M506.2,95.6a.789.789,0,0,1-.8-.8v-36c0-2.6,2.3-4.6,5.2-4.6h28.6c2.9,0,5.2,2.1,5.2,4.6V91a.789.789,0,0,1-.8.8h-33a.789.789,0,0,1-.8-.8.86.86,0,0,1,.8-.8h32.1V58.8c0-1.6-1.6-2.9-3.6-2.9H510.5c-2,0-3.6,1.3-3.6,2.9v36c.2.4-.2.8-.7.8" fill="#fff"/>
        <path id="패스_5033" d="M543.6,99.4h-33c-2.9,0-5.2-2.1-5.2-4.6s2.3-4.6,5.2-4.6h33a.789.789,0,0,1,.8.8,1.02,1.02,0,0,1-.5.8c-1.7.8-2.8,1.9-2.8,3s1,2.3,2.8,3a.841.841,0,0,1,.4,1.1.752.752,0,0,1-.7.5m-33-7.6c-2,0-3.6,1.3-3.6,2.9s1.6,2.9,3.6,2.9h30.2a3.952,3.952,0,0,1-.3-5.6l.3-.3H510.6Z" fill="#fff"/>
        <path id="패스_5034" d="M524.9,76.6a.367.367,0,0,1-.3-.1.792.792,0,0,1-.5-.8V55a.789.789,0,0,1,.8-.8H537a.789.789,0,0,1,.8.8h0V75.8a.789.789,0,0,1-.8.8,1.421,1.421,0,0,1-.6-.2l-5.5-5.1-5.5,5.1c-.1.2-.3.2-.5.2m.9-20.8v18l4.6-4.3a.91.91,0,0,1,1.2,0l4.6,4.3v-18Z" fill="#fff"/>
        <path id="패스_5035" d="M245.4,99.4H204.5a1.752,1.752,0,0,1-1.7-1.7V62.4a1.752,1.752,0,0,1,1.7-1.7h40.9a1.752,1.752,0,0,1,1.7,1.7V97.7a1.752,1.752,0,0,1-1.7,1.7m-40.9-37V97.7h40.9V62.4Zm0-.9Z" fill="#fff"/>
        <path id="패스_5036" d="M246.2,71.6H203.7a.789.789,0,0,1-.8-.8.86.86,0,0,1,.8-.8h42.5a.8.8,0,0,1,0,1.6" fill="#fff"/>
        <path id="패스_5037" d="M238.8,66.1a.789.789,0,0,1-.8-.8V56a.789.789,0,0,1,.8-.8.86.86,0,0,1,.8.8v9.3c.1.4-.3.8-.8.8" fill="#fff"/>
        <path id="패스_5038" d="M211.1,66.1a.789.789,0,0,1-.8-.8V56a.789.789,0,0,1,.8-.8.86.86,0,0,1,.8.8v9.3a.789.789,0,0,1-.8.8" fill="#fff"/>
        <path id="패스_5039" d="M54.1,75.9a.789.789,0,0,1-.8-.8.713.713,0,0,1,.3-.6l21.7-20a.785.785,0,0,1,1.1,0l7.9,7.3a.851.851,0,0,1-1.1,1.3h0l-7.3-6.8L54.6,75.7a.764.764,0,0,1-.5.2" fill="#fff"/>
        <path id="패스_5040" d="M97.5,76.4a1.421,1.421,0,0,1-.6-.2L89,68.9a.851.851,0,0,1,1.1-1.3h0L98,75a.815.815,0,0,1,0,1.2.764.764,0,0,1-.5.2" fill="#fff"/>
        <path id="패스_5041" d="M93.5,99.2H81.7a.789.789,0,0,1-.8-.8v-11a4.8,4.8,0,0,0-5-4.6h0a4.913,4.913,0,0,0-5.1,4.7V98.4a.789.789,0,0,1-.8.8H58a.789.789,0,0,1-.8-.8V72.8A.789.789,0,0,1,58,72a.86.86,0,0,1,.8.8V97.5H69V87.4a6.579,6.579,0,0,1,6.8-6.3,6.491,6.491,0,0,1,6.7,6.3V97.5H92.7V72.8a.789.789,0,0,1,.8-.8.86.86,0,0,1,.8.8V98.3a.765.765,0,0,1-.8.9" fill="#fff"/>
        <path id="패스_5042" d="M89.6,68.6a.789.789,0,0,1-.8-.8V57.7H84.6v4.6a.789.789,0,0,1-.8.8.86.86,0,0,1-.8-.8V56.8a.789.789,0,0,1,.8-.8h5.9a.789.789,0,0,1,.8.8V67.7a.958.958,0,0,1-.9.9" fill="#fff"/>
        <path id="패스_5043" d="M194.4,124.2h14.2V126H194.4Zm1.1-10.6h11.9v1.8h-2.1v4.7h2.1v1.8H195.6v-1.8h2v-4.7h-2.1Zm4.4,6.5h3.2v-4.7h-3.2Z" fill="#fff"/>
        <path id="패스_5044" d="M210.1,126.2v-1.8h6V122h-4.3v-5.3h8.7V115h-8.8v-1.8h11v5.2H214v1.8h9.1V122h-4.7v2.3h6v1.8Z" fill="#fff"/>
        <path id="패스_5045" d="M225.7,124h14.2v1.8H225.7Zm1.5-10.3h11v1.9a32.5,32.5,0,0,1-.6,7.6l-2.2-.2a44.934,44.934,0,0,0,.6-7.3v-.1h-8.7Z" fill="#fff"/>
        <path id="패스_5046" d="M243,121h-1v-4.8h3.8v-1.3H242v-1.8h5.9v4.6h-3.8v1.4a21.834,21.834,0,0,0,4.4-.4l.2,1.8a27.461,27.461,0,0,1-5.7.5m11.7,6.7H244.1v-5.6h10.6Zm-2.2-3.8h-6.2V126h6.2Zm.1-2.4v-3.8h-1.3v3.6h-2.1v-8.8h2.1v3.4h1.3v-3.7h2.1v9.2Z" fill="#fff"/>
        <path id="패스_5047" d="M492.4,126.1v-1.8h6v-3h2.2v3h6v1.8Zm6-10h-4.7v-1.8h4.7v-1.9h2.2v1.9h4.7v1.8h-4.7c.2,1.7,1.9,3.5,5.5,3.9l-.8,1.8c-2.9-.4-4.8-1.5-5.8-3.1-1,1.6-2.9,2.7-5.8,3.1l-.8-1.8c3.6-.4,5.3-2.2,5.5-3.9" fill="#fff"/>
        <path id="패스_5048" d="M508.1,122.4v-1.8h6v-1.1h-4.2v-4.3h8.5v-1h-8.5v-1.7h10.7v4.2h-8.5v1h8.8v1.7h-4.6v1.1h6v1.8Zm12.5,5.4h-2.2V125h-8.7v-1.8h11Z" fill="#fff"/>
        <path id="패스_5049" d="M527.6,126.1v-1.8h6v-2.9h-4.5v-8.2h2.2v2.4H538v-2.4h2.2v8.2h-4.4v2.9h6v1.8Zm10.4-8.7h-6.7v2.2H538Z" fill="#fff"/>
        <path id="패스_5050" d="M544.4,125.2l-1.2-1.8c4-1.9,5.7-4.4,6.1-7.8h-5.2v-1.8h7.5c0,4.8-1.6,8.8-7.2,11.4m9.6-13h2.3v15.7H554Z" fill="#fff"/>
        <path id="패스_5051" d="M635.6,118.6h14.1v1.8H635.6Zm5.6-4.2h-4.3v-1.8h11.6v1.8h-4.3c.5,1,2,1.8,4.9,2l-.7,1.7c-2.9-.2-4.8-1.1-5.7-2.4-1,1.3-2.8,2.2-5.8,2.4l-.7-1.7c3-.1,4.5-1,5-2m7.3,13.4H637.3v-4.1h8.6v-.9h-8.6v-1.6h10.8v4h-8.6v.9h9Z" fill="#fff"/>
        <path id="패스_5052" d="M662.1,127.9v-5.6h-3.7v-1.8h3.7V118h-3.5c-.9,2.9-2.8,5.3-6.4,7.2l-1.2-1.7c3.7-1.9,5.5-4.4,5.8-7.8h-5.1v-1.8h7.4a19.412,19.412,0,0,1-.2,2.4H662v-4h2.2v15.6h-2.1Z" fill="#fff"/>
        <path id="패스_5053" d="M671.6,118.3a5.674,5.674,0,0,1-3.7,2.9l-1-1.8c2.5-.7,3.6-2.3,3.6-4h-3.1v-1.8h3.1v-1.5h2.2v1.5h3.1v1.8h-3.1c.1,1.5,1.1,3.1,3.6,3.7l-1,1.7a5.144,5.144,0,0,1-3.7-2.5m8.5,7.8-.8,1.7a6.956,6.956,0,0,1-5.1-2.6c-.9,1.4-2.6,2.3-5.1,2.6l-.8-1.7c2.8-.3,4.2-1.4,4.6-2.5H669v-1.8h10.5v1.8h-3.9c.3,1.1,1.8,2.2,4.5,2.5m-.9-8.5v3.6H677v-8.9h2.2v3.5h2.1v1.9Z" fill="#fff"/>
        <path id="패스_5054" d="M683.7,125.2l-1.2-1.8c4-1.9,5.7-4.4,6.1-7.8h-5.2v-1.8h7.5c0,4.8-1.6,8.8-7.2,11.4m9.6-13h2.3v15.7h-2.3Z" fill="#fff"/>
        <path id="패스_5055" d="M351.6,126.7c-3.3,0-5.6-2.5-5.6-6.6s2.3-6.5,5.6-6.5,5.6,2.4,5.6,6.5a6.5,6.5,0,0,1-2.3,5.5l2.5,3h-3.1l-1.6-2a4.1,4.1,0,0,0-1.1.1m3-6.6c0-2.7-1.1-4.3-3.1-4.3s-3.1,1.6-3.1,4.3,1.2,4.4,3.1,4.4,3.1-1.8,3.1-4.4" fill="#fff"/>
        <path id="패스_5056" d="M362.2,121.7v4.8h-2.5V113.9h4.4c2.7,0,4.7.9,4.7,3.8a3.578,3.578,0,0,1-2.4,3.6l2.9,5.2h-2.8l-2.6-4.8Zm4.1-4.1c0-1.4-.9-1.8-2.5-1.8h-1.6v3.8h1.6c1.6.1,2.5-.6,2.5-2" fill="#fff"/>
        <path id="패스_5057" d="M374.3,126.1v-1.8h5v-3.7h2.2v3.7h6.9v1.8Zm10.6-10.8h-9v-1.8h11.2v1.4a31.77,31.77,0,0,1-.7,7.5l-2.2-.3c.2-1,.4-2.1.5-3.1l-9,.5-.3-1.9,9.4-.3a14.083,14.083,0,0,0,.1-2" fill="#fff"/>
        <path id="패스_5058" d="M389.9,124.2h14.2V126H389.9Zm1.7-10.7h10.9v1.8h-8.7v4.1h8.8v1.8h-11v-7.7Z" fill="#fff"/>
        <path id="패스_5059" d="M67.9,122.3v-1.7h6v-.8c-2.7-.2-4.1-.9-4.1-2.2,0-1.5,1.8-2.2,5.2-2.2s5.3.7,5.3,2.2c0,1.3-1.5,2-4.1,2.2v.8h6v1.7Zm.7-9h5.3v-1.2h2.2v1.2h5.2V115H68.6Zm11.8,14.4H69.6v-4.5H80.4Zm-2.2-2.9H71.8V126h6.4ZM75,118.4c2,0,2.8-.2,2.8-.7S77,117,75,117s-2.8.2-2.8.7.8.7,2.8.7" fill="#fff"/>
        <rect id="사각형_1869" width="6.7" height="6.7" transform="translate(357.1 31.4)" fill="#fff"/>
        <path id="패스_5060" d="M350.5,53.7h20v20h-20Zm2.9,17.1h14.1V56.7H353.4Z" fill="#fff" fill-rule="evenodd"/>
        <rect id="사각형_1870" width="6.7" height="6.7" transform="translate(357.1 60.4)" fill="#fff"/>
        <path id="패스_5061" d="M350.5,24.8h20v20h-20Zm2.9,17h14.1v-14H353.4Z" fill="#fff" fill-rule="evenodd"/>
        <path id="패스_5062" d="M379.4,24.8h20v20h-20Zm3,17h14.1v-14H382.4Z" fill="#fff" fill-rule="evenodd"/>
        <rect id="사각형_1871" width="6.7" height="6.7" transform="translate(386 31.4)" fill="#fff"/>
        <path id="패스_5063" d="M393.5,73.7h5.9v-3h-3V67h-3Z" fill="#fff" fill-rule="evenodd"/>
        <rect id="사각형_1872" width="6.7" height="3" transform="translate(357.1 47.8)" fill="#fff"/>
        <rect id="사각형_1873" width="3" height="3" transform="translate(373.5 24.8)" fill="#fff"/>
        <rect id="사각형_1874" width="3" height="6.7" transform="translate(373.5 38.1)" fill="#fff"/>
        <rect id="사각형_1875" width="3" height="3" transform="translate(350.5 47.8)" fill="#fff"/>
        <rect id="사각형_1876" width="6.7" height="3" transform="translate(392.7 47.8)" fill="#fff"/>
        <path id="패스_5064" d="M382.6,54.3h3.8v3.8h3.4v3H379.7V57.3h3Z" fill="#fff" fill-rule="evenodd"/>
        <rect id="사각형_1877" width="6.7" height="3" transform="translate(389.7 61.1)" fill="#fff"/>
        <rect id="사각형_1878" width="3" height="3" transform="translate(386.7 64)" fill="#fff"/>
        <path id="패스_5065" d="M382.8,73.7h6.7v-3h-3.8V67h-3Z" fill="#fff" fill-rule="evenodd"/>
        <path id="패스_5066" d="M373.4,64h6.7v6.7h-3.8v3h-3Z" fill="#fff" fill-rule="evenodd"/>
        <rect id="사각형_1879" width="3" height="7.3" transform="translate(373.5 53.7)" fill="#fff"/>
        <path id="패스_5067" d="M399.4,61.1V54.4h-6.7v3h3.8v3.8Z" fill="#fff" fill-rule="evenodd"/>
        <rect id="사각형_1880" width="3" height="3" transform="translate(396.4 64)" fill="#fff"/>
        <path id="패스_5068" d="M373.4,50.8h12.9v3.6h3V47.9H373.5v2.9Z" fill="#fff" fill-rule="evenodd"/>
        <path id="패스_5069" d="M650.5,98.5a3.329,3.329,0,0,1-3.3-3.3V57.3a3.329,3.329,0,0,1,3.3-3.3h31.2a3.329,3.329,0,0,1,3.3,3.3V95.2a3.329,3.329,0,0,1-3.3,3.3,3.077,3.077,0,0,1-1.9-.6l-12.7-9.2a1.817,1.817,0,0,0-2,0l-12.7,9.2a3.077,3.077,0,0,1-1.9.6m15.7-11.7a3.077,3.077,0,0,1,1.9.6l12.7,9.2a1.613,1.613,0,0,0,2.3-.4,1.689,1.689,0,0,0,.3-1V57.3a1.752,1.752,0,0,0-1.7-1.7H650.5a1.752,1.752,0,0,0-1.7,1.7V95.2a1.752,1.752,0,0,0,1.7,1.7,1.689,1.689,0,0,0,1-.3l12.7-9.2a3.606,3.606,0,0,1,2-.6" fill="#fff"/>
        <path id="패스_5070" d="M672.2,83a2.92,2.92,0,0,1-.9-.2l-5-2.6a.187.187,0,0,0-.3,0l-5,2.6a1.967,1.967,0,0,1-2.6-.8,1.721,1.721,0,0,1-.2-1.2l1-5.5a.367.367,0,0,0-.1-.3l-4-3.9a1.819,1.819,0,0,1,0-2.7,2.384,2.384,0,0,1,1.1-.6l5.6-.8a.215.215,0,0,0,.2-.2l2.5-5a1.946,1.946,0,0,1,3.5,0l2.5,5a.215.215,0,0,0,.2.2l5.6.8a1.857,1.857,0,0,1,1.6,2.2,2.384,2.384,0,0,1-.6,1.1l-4,3.9a.367.367,0,0,0-.1.3l1,5.5a1.9,1.9,0,0,1-1.6,2.2h-.4m-6-20.8c-.1,0-.2.1-.3.2l-2.5,5a1.933,1.933,0,0,1-1.4,1.1l-5.6.8c-.2,0-.3.2-.3.4,0,.1,0,.1.1.2l4,3.9a1.832,1.832,0,0,1,.6,1.7l-1,5.5a.367.367,0,0,0,.1.3.187.187,0,0,0,.3,0l5-2.6a1.912,1.912,0,0,1,1.8,0l5,2.6a.187.187,0,0,0,.3,0c.1-.1.2-.2.1-.3l-1-5.5a1.832,1.832,0,0,1,.6-1.7l4-3.9a.446.446,0,0,0,0-.5.349.349,0,0,0-.2-.1l-5.6-.8a1.77,1.77,0,0,1-1.4-1.1l-2.5-5c.1-.1,0-.2-.1-.2" fill="#fff"/>
      </g>
    </g>
  </g>
</svg>
