<svg xmlns="http://www.w3.org/2000/svg" xmlns:xlink="http://www.w3.org/1999/xlink" width="153" height="152" viewBox="0 0 153 152">
  <defs>
    <clipPath id="clip-path">
      <rect id="사각형_1371" data-name="사각형 1371" width="103" height="104" transform="translate(0.286 0.041)" fill="none" stroke="#fff" stroke-width="3"/>
    </clipPath>
  </defs>
  <g id="그룹_1258" data-name="그룹 1258" transform="translate(-104 -361)">
    <rect id="사각형_1381" data-name="사각형 1381" width="153" height="152" rx="25" transform="translate(104 361)" fill="#006"/>
    <g id="그룹_1226" data-name="그룹 1226" transform="translate(126.714 380.959)">
      <g id="그룹_1204" data-name="그룹 1204" clip-path="url(#clip-path)">
        <path id="패스_3858" data-name="패스 3858" d="M1,52.216C6.327,52.216,8.105,46,13.433,46s7.105,6.216,12.433,6.216S32.971,46,38.3,46s7.105,6.216,12.433,6.216S57.837,46,63.164,46,70.27,52.216,75.6,52.216,82.7,46,88.03,46s7.105,6.216,12.433,6.216" transform="translate(1.072 49.319)" fill="none" stroke="#fff" stroke-linecap="round" stroke-linejoin="round" stroke-width="3"/>
        <path id="패스_3859" data-name="패스 3859" d="M1,47.216C6.327,47.216,8.105,41,13.433,41s7.105,6.216,12.433,6.216S32.971,41,38.3,41s7.105,6.216,12.433,6.216S57.837,41,63.164,41,70.27,47.216,75.6,47.216,82.7,41,88.03,41s7.105,6.216,12.433,6.216" transform="translate(1.072 43.958)" fill="none" stroke="#fff" stroke-linecap="round" stroke-linejoin="round" stroke-width="3"/>
        <path id="패스_3860" data-name="패스 3860" d="M6.477,52.254,1,34h99.463L88.03,48.505" transform="translate(1.072 36.453)" fill="none" stroke="#fff" stroke-linecap="round" stroke-linejoin="round" stroke-width="3"/>
        <path id="패스_3861" data-name="패스 3861" d="M32.866,61.092V1L8,61.092Z" transform="translate(8.577 1.072)" fill="none" stroke="#fff" stroke-linecap="round" stroke-linejoin="round" stroke-width="3"/>
        <path id="패스_3862" data-name="패스 3862" d="M23,1S62.371,20.685,62.371,61.092H23C37.246,32.859,23,1,23,1Z" transform="translate(24.659 1.072)" fill="none" stroke="#fff" stroke-linecap="round" stroke-linejoin="round" stroke-width="3"/>
      </g>
    </g>
  </g>
</svg>
