<svg xmlns="http://www.w3.org/2000/svg" width="30" height="30" viewBox="0 0 30 30">
  <g id="그룹_1455" data-name="그룹 1455" transform="translate(15910 10784)">
    <rect id="사각형_1719" data-name="사각형 1719" width="30" height="30" rx="5" transform="translate(-15910 -10784)" fill="#006"/>
    <g id="그룹_1438" data-name="그룹 1438" transform="translate(-15906.4 -10777)">
      <g id="그룹_1200" data-name="그룹 1200" transform="translate(0 0)">
        <line id="선_365" data-name="선 365" y2="2.836" transform="translate(8.532)" fill="none" stroke="#fff" stroke-linecap="round" stroke-linejoin="round" stroke-width="0.6"/>
        <path id="패스_3837" data-name="패스 3837" d="M72.871,23.236h2.617a.709.709,0,0,1,.71.709V36.429a.709.709,0,0,1-.71.71H59.382a.709.709,0,0,1-.71-.71v-.8" transform="translate(-54.866 -21.897)" fill="none" stroke="#fff" stroke-linecap="round" stroke-linejoin="round" stroke-width="0.6"/>
        <path id="패스_3838" data-name="패스 3838" d="M148.685,23.236h-5.8" transform="translate(-133.216 -21.897)" fill="none" stroke="#fff" stroke-linecap="round" stroke-linejoin="round" stroke-width="0.6"/>
        <line id="선_366" data-name="선 366" y2="2.836" transform="translate(16.606)" fill="none" stroke="#fff" stroke-linecap="round" stroke-linejoin="round" stroke-width="0.6"/>
        <path id="패스_3839" data-name="패스 3839" d="M25.3,23.812,21.557,33.951a1.025,1.025,0,0,1-.922.576H4.528c-.392,0-.614-.258-.5-.576L7.774,23.812a1.025,1.025,0,0,1,.922-.576h2.617" transform="translate(-4 -21.897)" fill="none" stroke="#fff" stroke-linecap="round" stroke-linejoin="round" stroke-width="0.6"/>
        <path id="패스_3840" data-name="패스 3840" d="M89.269,71.582a.476.476,0,1,1-.476-.476.476.476,0,0,1,.476.476" transform="translate(-82.447 -66.435)" fill="none" stroke="#fff" stroke-width="0.6"/>
        <path id="패스_3841" data-name="패스 3841" d="M133.441,71.582a.476.476,0,1,1-.476-.476.476.476,0,0,1,.476.476" transform="translate(-123.544 -66.435)" fill="none" stroke="#fff" stroke-width="0.6"/>
        <path id="패스_3842" data-name="패스 3842" d="M177.612,71.582a.476.476,0,1,1-.476-.476.476.476,0,0,1,.476.476" transform="translate(-164.641 -66.435)" fill="none" stroke="#fff" stroke-width="0.6"/>
        <path id="패스_3843" data-name="패스 3843" d="M221.783,71.582a.476.476,0,1,1-.476-.476.476.476,0,0,1,.476.476" transform="translate(-205.737 -66.435)" fill="none" stroke="#fff" stroke-width="0.6"/>
        <path id="패스_3844" data-name="패스 3844" d="M74.019,106.561a.476.476,0,1,1-.476-.476.476.476,0,0,1,.476.476" transform="translate(-68.259 -98.979)" fill="none" stroke="#fff" stroke-width="0.6"/>
        <path id="패스_3845" data-name="패스 3845" d="M118.19,106.561a.476.476,0,1,1-.476-.476.476.476,0,0,1,.476.476" transform="translate(-109.355 -98.979)" fill="none" stroke="#fff" stroke-width="0.6"/>
        <path id="패스_3846" data-name="패스 3846" d="M162.362,106.561a.476.476,0,1,1-.476-.476.476.476,0,0,1,.476.476" transform="translate(-150.452 -98.979)" fill="none" stroke="#fff" stroke-width="0.6"/>
        <path id="패스_3847" data-name="패스 3847" d="M206.533,106.561a.476.476,0,1,1-.476-.476.476.476,0,0,1,.476.476" transform="translate(-191.548 -98.979)" fill="none" stroke="#fff" stroke-width="0.6"/>
        <path id="패스_3848" data-name="패스 3848" d="M58.769,141.539a.476.476,0,1,1-.476-.476.476.476,0,0,1,.476.476" transform="translate(-54.071 -131.522)" fill="none" stroke="#fff" stroke-width="0.6"/>
        <path id="패스_3849" data-name="패스 3849" d="M102.94,141.539a.476.476,0,1,1-.476-.476.476.476,0,0,1,.476.476" transform="translate(-95.167 -131.522)" fill="none" stroke="#fff" stroke-width="0.6"/>
        <path id="패스_3850" data-name="패스 3850" d="M147.111,141.539a.476.476,0,1,1-.476-.476.476.476,0,0,1,.476.476" transform="translate(-136.263 -131.522)" fill="none" stroke="#fff" stroke-width="0.6"/>
      </g>
    </g>
  </g>
</svg>
