<svg xmlns="http://www.w3.org/2000/svg" xmlns:xlink="http://www.w3.org/1999/xlink" width="152" height="153" viewBox="0 0 152 153">
  <defs>
    <clipPath id="clip-path">
      <rect id="사각형_1237" data-name="사각형 1237" width="94.102" height="88.11" fill="none" stroke="#fff" stroke-width="3"/>
    </clipPath>
    <clipPath id="clip-path-2">
      <rect id="사각형_1200" data-name="사각형 1200" width="75.076" height="74.998" fill="none" stroke="#fff" stroke-width="3"/>
    </clipPath>
  </defs>
  <g id="그룹_1262" data-name="그룹 1262" transform="translate(-309 -566)">
    <rect id="사각형_1378" data-name="사각형 1378" width="152" height="153" rx="25" transform="translate(309 566)" fill="#006"/>
    <g id="그룹_1223" data-name="그룹 1223" transform="translate(338.205 611.45)">
      <g id="그룹_1085" data-name="그룹 1085" transform="translate(0 0)" clip-path="url(#clip-path)">
        <path id="패스_3645" data-name="패스 3645" d="M88.643,14.6a3.4,3.4,0,0,1,0,5.92L47.938,46.5a4.75,4.75,0,0,1-5.009,0L2.224,20.521a3.4,3.4,0,0,1,0-5.92" transform="translate(1.618 39.055)" fill="none" stroke="#fff" stroke-linecap="round" stroke-linejoin="round" stroke-width="3"/>
        <path id="패스_3646" data-name="패스 3646" d="M2.226,11.183a3.4,3.4,0,0,0,0,5.92L6.22,19.657,42.931,43.085a4.75,4.75,0,0,0,5.009,0L84.652,19.657l4-2.554a3.4,3.4,0,0,0,0-5.92" transform="translate(1.615 29.912)" fill="none" stroke="#fff" stroke-linecap="round" stroke-linejoin="round" stroke-width="3"/>
        <path id="패스_3647" data-name="패스 3647" d="M88.643,27.192,47.937,1.214a4.75,4.75,0,0,0-5.009,0L2.227,27.192a3.406,3.406,0,0,0,0,5.924l3.994,2.55,8.63,5.512L42.933,59.094a4.743,4.743,0,0,0,5,0L76.019,41.178l8.63-5.512,3.994-2.55A3.4,3.4,0,0,0,88.643,27.192Z" transform="translate(1.618 1.335)" fill="none" stroke="#fff" stroke-linecap="round" stroke-linejoin="round" stroke-width="3"/>
      </g>
    </g>
    <path id="패스_3881" data-name="패스 3881" d="M-14447.338-12542.139l-7.17-10.82,25.447-14.243,21.916,14.243-13.605,18.022Z" transform="translate(14814.567 13175.145)" fill="#000166"/>
    <g id="그룹_1224" data-name="그룹 1224" transform="translate(347.718 583.359)">
      <g id="마스크_그룹_1010" data-name="마스크 그룹 1010" transform="translate(0 0)" clip-path="url(#clip-path-2)">
        <path id="패스_3589" data-name="패스 3589" d="M47.893,21.862c0,15.412-21.362,36.9-21.362,36.9s-21.39-21.39-21.359-36.9a21.361,21.361,0,1,1,42.721,0Z" transform="translate(9.361 4.356)" fill="none" stroke="#fff" stroke-miterlimit="10" stroke-width="3"/>
        <circle id="타원_163" data-name="타원 163" cx="9.71" cy="9.71" r="9.71" transform="translate(26.182 15.786)" fill="none" stroke="#fff" stroke-miterlimit="10" stroke-width="3"/>
      </g>
    </g>
  </g>
</svg>
