<svg xmlns="http://www.w3.org/2000/svg" xmlns:xlink="http://www.w3.org/1999/xlink" width="432.062" height="62.406" viewBox="0 0 432.062 62.406">
  <defs>
    <clipPath id="clip-path">
      <rect id="사각형_1882" data-name="사각형 1882" width="432.062" height="31.252" fill="none"/>
    </clipPath>
    <clipPath id="clip-path-2">
      <rect id="사각형_1884" data-name="사각형 1884" width="77.309" height="22.504" fill="none"/>
    </clipPath>
  </defs>
  <g id="그룹_1677" data-name="그룹 1677" transform="translate(-159.379 -31.594)">
    <g id="그룹_1531" data-name="그룹 1531" transform="translate(159.379 62.747)">
      <g id="그룹_1530" data-name="그룹 1530" transform="translate(0 0)" clip-path="url(#clip-path)">
        <path id="패스_5071" data-name="패스 5071" d="M4.613,5.956v17.17a1.885,1.885,0,0,0,.312,1.248,1.15,1.15,0,0,0,.9.348h9.261v4.128H3.538A3.344,3.344,0,0,1,.815,27.86,4.4,4.4,0,0,1,0,25V1.828H14.742V5.956ZM26.431,16.847h-3.5V31.9H18.28V1.828h4.648V12.546h3.5V1.828H31.08V31.9H26.431Z" transform="translate(0 -0.649)" fill="#fff"/>
        <path id="패스_5072" data-name="패스 5072" d="M53.768,2.324h8.879V0H67.5V2.324h8.879V6.486H53.768Zm6.451,6.07a5.6,5.6,0,0,0-4.3,1.6,5.9,5.9,0,0,0-1.492,4.2,6.011,6.011,0,0,0,1.492,4.249,5.569,5.569,0,0,0,4.3,1.613H69.9A5.711,5.711,0,0,0,74.3,18.436a6.011,6.011,0,0,0,1.491-4.249,5.9,5.9,0,0,0-1.491-4.2,5.746,5.746,0,0,0-4.406-1.6ZM78.741,1.179h4.822v6.7H86.65V12.14H83.563V31.252H58.554a3.414,3.414,0,0,1-1.508-.312,2.952,2.952,0,0,1-1.059-.85,3.81,3.81,0,0,1-.624-1.214,4.752,4.752,0,0,1-.208-1.405V22.338h4.787v3.815a.7.7,0,0,0,.8.8h18Zm-17.62,14.95a1.744,1.744,0,0,1-1.439-.537,2.166,2.166,0,0,1-.434-1.405,1.987,1.987,0,0,1,.434-1.318,1.775,1.775,0,0,1,1.439-.52H69.03a1.784,1.784,0,0,1,1.422.52,1.941,1.941,0,0,1,.451,1.318,2.113,2.113,0,0,1-.451,1.405,1.753,1.753,0,0,1-1.422.537Z" transform="translate(-19.081 0)" fill="#fff"/>
        <path id="패스_5073" data-name="패스 5073" d="M128.8,29.056H113.083a3.326,3.326,0,0,1-1.474-.312,3.11,3.11,0,0,1-1.075-.85,3.61,3.61,0,0,1-.641-1.214,4.752,4.752,0,0,1-.208-1.405V1.827h4.821v8.429h9.47V1.827H128.8Zm-4.822-4.232V14.488h-9.47v9.538q0,.8.764.8Zm11.274-23h4.822V31.9h-4.822Z" transform="translate(-38.924 -0.649)" fill="#fff"/>
        <path id="패스_5074" data-name="패스 5074" d="M184.524,18.3h-16.06a3.324,3.324,0,0,1-1.474-.312,3.089,3.089,0,0,1-1.075-.85,3.6,3.6,0,0,1-.642-1.214,4.751,4.751,0,0,1-.208-1.4V1.827h19.459Zm4.128-16.477h4.822v6.7h3.087v4.266h-3.087V31.9H169.158a3.41,3.41,0,0,1-1.509-.312,2.937,2.937,0,0,1-1.057-.85,3.785,3.785,0,0,1-.625-1.214,4.751,4.751,0,0,1-.208-1.405V21.044h4.787V26.8a.7.7,0,0,0,.8.8h17.309ZM179.7,14V6.129h-9.816V13.2q0,.8.763.8Z" transform="translate(-58.577 -0.649)" fill="#fff"/>
        <path id="패스_5075" data-name="패스 5075" d="M217.757,2.324h8.88V0h4.857V2.324h8.88V6.487H217.757Zm6.451,5.724a5.994,5.994,0,0,0-4.3,1.423,5.3,5.3,0,0,0-1.491,4.023,5.4,5.4,0,0,0,1.491,4.076,5.949,5.949,0,0,0,4.3,1.44h9.678a6.106,6.106,0,0,0,4.406-1.44,5.4,5.4,0,0,0,1.492-4.076,5.3,5.3,0,0,0-1.492-4.023,6.154,6.154,0,0,0-4.406-1.423Zm18.523,23.206h4.822V24.835a4.183,4.183,0,0,0-.85-2.757,3.124,3.124,0,0,0-2.549-1.023H219.838v4.232h22.13q.763,0,.763.8Zm-17.62-16.164a1.81,1.81,0,0,1-1.44-.5,1.639,1.639,0,0,1-.434-1.093,1.48,1.48,0,0,1,.434-1.023,1.891,1.891,0,0,1,1.44-.468h7.908a1.9,1.9,0,0,1,1.422.468,1.452,1.452,0,0,1,.452,1.023,1.605,1.605,0,0,1-.452,1.093,1.818,1.818,0,0,1-1.422.5Zm17.62,4.717h4.822V11.759h3.087V7.527h-3.087V1.179h-4.822Z" transform="translate(-77.276 0)" fill="#fff"/>
        <path id="패스_5076" data-name="패스 5076" d="M272.6,2.324h8.879V0h4.857V2.324h8.879V6.486H272.6Zm6.451,6.07a5.6,5.6,0,0,0-4.3,1.6,5.9,5.9,0,0,0-1.492,4.2,6.011,6.011,0,0,0,1.492,4.249,5.569,5.569,0,0,0,4.3,1.613h2.567v2.393h-8.325V26.6H299.2v4.648h4.821V1.179H299.2V22.442h-12.7V20.049h2.22a5.711,5.711,0,0,0,4.405-1.613,6.011,6.011,0,0,0,1.491-4.249,5.9,5.9,0,0,0-1.491-4.2,5.746,5.746,0,0,0-4.405-1.6Zm.9,7.735a1.744,1.744,0,0,1-1.439-.537,2.166,2.166,0,0,1-.434-1.405,1.987,1.987,0,0,1,.434-1.318,1.775,1.775,0,0,1,1.439-.52h7.909a1.784,1.784,0,0,1,1.422.52,1.941,1.941,0,0,1,.451,1.318,2.113,2.113,0,0,1-.451,1.405,1.753,1.753,0,0,1-1.422.537Z" transform="translate(-96.739 0)" fill="#fff"/>
        <path id="패스_5077" data-name="패스 5077" d="M366.579,6.382a6.536,6.536,0,0,0,1.769,1.63,12.918,12.918,0,0,0,5.029,1.856,26.108,26.108,0,0,0,5.238.26v3.815a43.229,43.229,0,0,1-4.908-.139,22.948,22.948,0,0,1-4.735-.9,13.758,13.758,0,0,1-3.435-1.613,8.507,8.507,0,0,1-2.6-2.723,9.256,9.256,0,0,1-2.462,2.584,12.95,12.95,0,0,1-3.088,1.579,17.291,17.291,0,0,1-4.735.988q-2.411.156-4.769.225V10.128q1.248-.034,2.515-.1a19.4,19.4,0,0,0,2.48-.295,16.656,16.656,0,0,0,2.377-.624,10.252,10.252,0,0,0,2.237-1.093,6.555,6.555,0,0,0,1.769-1.63H347.883V2.22h12.73V0h4.648V2.22h13.355V6.382Zm-5.793,17.656V19.91h-12.9v-4.2h30.732v4.2H365.643v4.128Zm17.829,2.913v4.3h-27.3a3.335,3.335,0,0,1-1.474-.312,3.112,3.112,0,0,1-1.075-.85,3.866,3.866,0,0,1-.659-1.214,4.409,4.409,0,0,1-.225-1.4V22.338h4.857v3.816a.97.97,0,0,0,.155.59.677.677,0,0,0,.573.208Z" transform="translate(-123.455 0)" fill="#fcc401"/>
        <path id="패스_5078" data-name="패스 5078" d="M422.046,21.009h-5.689a14.654,14.654,0,0,1-1.959,3.382,11.777,11.777,0,0,1-2.9,2.653,13.828,13.828,0,0,1-3.885,1.717,18.274,18.274,0,0,1-4.891.607V25.137q5.063-.313,7.666-3.052t2.6-8.013V6.024H402.726v-4.2h14.915v5h4.4v-5h4.648V31.9h-4.648Zm-4.4-7.076a19.808,19.808,0,0,1-.208,2.949h4.613v-6h-4.4ZM429.157,1.827h4.648V31.9h-4.648Z" transform="translate(-142.917 -0.649)" fill="#fcc401"/>
        <path id="패스_5079" data-name="패스 5079" d="M456.494,2.324h8.879V0h4.857V2.324h8.879V6.487H456.494Zm6.451,5.724a5.994,5.994,0,0,0-4.3,1.423,5.3,5.3,0,0,0-1.491,4.023,5.4,5.4,0,0,0,1.491,4.076,5.949,5.949,0,0,0,4.3,1.44h9.678a6.106,6.106,0,0,0,4.406-1.44,5.4,5.4,0,0,0,1.491-4.076,5.3,5.3,0,0,0-1.491-4.023,6.154,6.154,0,0,0-4.406-1.423Zm18.523,23.206h4.822V24.835a4.183,4.183,0,0,0-.85-2.757,3.124,3.124,0,0,0-2.549-1.023H458.575v4.232H480.7q.762,0,.763.8Zm-17.62-16.164a1.81,1.81,0,0,1-1.44-.5,1.639,1.639,0,0,1-.433-1.093,1.48,1.48,0,0,1,.433-1.023,1.891,1.891,0,0,1,1.44-.468h7.908a1.9,1.9,0,0,1,1.422.468,1.452,1.452,0,0,1,.452,1.023,1.605,1.605,0,0,1-.452,1.093,1.818,1.818,0,0,1-1.422.5Zm17.62,4.717h4.822V11.759h3.087V7.527H486.29V1.179h-4.822Z" transform="translate(-161.998 0)" fill="#fcc401"/>
        <path id="패스_5080" data-name="패스 5080" d="M527.465,6.962a6.051,6.051,0,0,1-2.775,2.115A20.775,20.775,0,0,1,519.8,10.43a30.935,30.935,0,0,1-3.469.381q-1.839.1-3.919.1v-3.5q.9,0,1.942-.034t2.081-.139a26.656,26.656,0,0,0,3.087-.5,13.117,13.117,0,0,0,2.393-.746,6.131,6.131,0,0,0,2.393-1.752,3.787,3.787,0,0,0,.832-2.41h4.648a3.772,3.772,0,0,0,.815,2.393,6.068,6.068,0,0,0,2.376,1.734,14.271,14.271,0,0,0,2.446.781,22.275,22.275,0,0,0,2.636.434q1.335.138,2.636.174t2.446.035v3.433q-1.319,0-2.966-.034t-3.417-.208q-1.456-.138-2.861-.4a19.716,19.716,0,0,1-2.654-.677,10.225,10.225,0,0,1-2.237-1.04,4.9,4.9,0,0,1-1.544-1.492M512.411,23.4v4.648a4.333,4.333,0,0,0,.832,2.862,3.353,3.353,0,0,0,2.706.988h27.195V28.225H518.169a1.024,1.024,0,0,1-.711-.208,1.2,1.2,0,0,1-.225-.867v-.382h25.911V22.016a4.336,4.336,0,0,0-.832-2.862,3.353,3.353,0,0,0-2.706-.989H530.17V16.431h12.973V12.72H512.411v3.711h12.9v1.734h-12.9v3.677h24.974a1.024,1.024,0,0,1,.711.208,1.2,1.2,0,0,1,.226.868V23.4Z" transform="translate(-181.842 -0.649)" fill="#fcc401"/>
        <path id="패스_5081" data-name="패스 5081" d="M571.866,5.956v17.17a1.888,1.888,0,0,0,.312,1.248,1.149,1.149,0,0,0,.9.348h9.261v4.128h-11.55a3.342,3.342,0,0,1-2.723-.989A4.392,4.392,0,0,1,567.253,25V1.828h14.742V5.956Zm21.818,10.892h-3.5V31.9h-4.648V1.828h4.648V12.546h3.5V1.828h4.648V31.9h-4.648Z" transform="translate(-201.304 -0.649)" fill="#fcc401"/>
        <path id="패스_5082" data-name="패스 5082" d="M621.021,2.324H629.9V0h4.857V2.324h8.879V6.486H621.021Zm6.451,6.07a5.6,5.6,0,0,0-4.3,1.6,5.9,5.9,0,0,0-1.492,4.2,6.011,6.011,0,0,0,1.492,4.249,5.569,5.569,0,0,0,4.3,1.613h2.567v2.393h-8.325V26.6h25.911v4.648h4.821V1.179h-4.821V22.442h-12.7V20.049h2.22a5.711,5.711,0,0,0,4.406-1.613,6.011,6.011,0,0,0,1.491-4.249,5.9,5.9,0,0,0-1.491-4.2,5.746,5.746,0,0,0-4.406-1.6Zm.9,7.735a1.744,1.744,0,0,1-1.439-.537,2.166,2.166,0,0,1-.434-1.405,1.987,1.987,0,0,1,.434-1.318,1.775,1.775,0,0,1,1.439-.52h7.909a1.784,1.784,0,0,1,1.422.52,1.941,1.941,0,0,1,.451,1.318,2.113,2.113,0,0,1-.451,1.405,1.753,1.753,0,0,1-1.422.537Z" transform="translate(-220.385 0)" fill="#fcc401"/>
      </g>
    </g>
    <g id="그룹_1535" data-name="그룹 1535" transform="translate(336.974 31.594)">
      <g id="그룹_1534" data-name="그룹 1534" transform="translate(0 0)" clip-path="url(#clip-path-2)">
        <path id="패스_5099" data-name="패스 5099" d="M11.653,15.938l-1.253,1.5a10.445,10.445,0,0,1-4.511-6.566,11.5,11.5,0,0,1-4.636,7.118L0,16.464c3.158-1.879,4.887-5.964,4.887-10.1V4.335H.627V2.656h10.25V4.335H6.867v2.03c0,3.91,1.679,7.818,4.786,9.573m3.183,5.388H12.881V9.773H9.172V8.094h3.709V.526h1.955ZM17.392,0h1.98V22.479h-1.98Z" transform="translate(0 0)" fill="#fff"/>
        <path id="패스_5100" data-name="패스 5100" d="M66.557,11.387c3.884,0,5.964,2.406,5.964,5.614a6.331,6.331,0,0,1-6.666,6.466,7.6,7.6,0,0,1-5.187-1.98L61.9,19.808a6.479,6.479,0,0,0,4.06,1.6,4.057,4.057,0,0,0,4.36-4.285c0-2.406-1.554-3.809-4.185-3.809a9.025,9.025,0,0,0-3.007.6l-1.479-.426,1.5-8.7h8.8V6.9H64.753l-.827,4.811a10.237,10.237,0,0,1,2.631-.326" transform="translate(-32.776 -2.592)" fill="#fff"/>
        <path id="패스_5101" data-name="패스 5101" d="M100.176,14.1a5.513,5.513,0,0,1-3.534,1.178,5.062,5.062,0,0,1-5.288-5.388,5.944,5.944,0,0,1,6.24-5.914,5.735,5.735,0,0,1,5.99,6.089,9.386,9.386,0,0,1-2.2,5.79L96.341,22.8H93.46l5.714-7.293c.526-.7.827-1.177,1-1.4m-2.781-.627a3.7,3.7,0,0,0,3.959-3.683,3.835,3.835,0,0,0-7.669-.075,3.4,3.4,0,0,0,3.709,3.759" transform="translate(-49.354 -2.15)" fill="#fff"/>
        <path id="패스_5102" data-name="패스 5102" d="M135.223,16.192l-1.153,1.6a10.811,10.811,0,0,1-5.312-6.54A11.3,11.3,0,0,1,123.2,18.2l-1.153-1.554a10.64,10.64,0,0,0,5.689-9.3V5.592h-5.088V3.938h5.063V.455h2.055V3.938h4.987V5.592h-4.987V7.347a10.156,10.156,0,0,0,5.463,8.846m4.311,6.34H137.48V.054h2.055V9.3h3.708v1.7h-3.708Z" transform="translate(-65.934 -0.029)" fill="#fff"/>
      </g>
    </g>
  </g>
</svg>
