<svg xmlns="http://www.w3.org/2000/svg" width="30" height="30" viewBox="0 0 30 30">
  <g id="그룹_1462" data-name="그룹 1462" transform="translate(15910 10448)">
    <rect id="사각형_1726" data-name="사각형 1726" width="30" height="30" rx="5" transform="translate(-15910 -10448)" fill="#006"/>
    <g id="그룹_1453" data-name="그룹 1453" transform="translate(-15904.2 -10439)">
      <rect id="사각형_1260" data-name="사각형 1260" width="1.696" height="7.879" transform="translate(0 0.092)" fill="#fff"/>
      <path id="패스_3733" data-name="패스 3733" d="M97.3,6.451l2.591-3.835h-1.93l-2.59,3.838.037.052,2.318,4.042h1.931L97.326,6.505Z" transform="translate(-93.732 -2.524)" fill="#fff"/>
      <path id="패스_3734" data-name="패스 3734" d="M101.755,6.544l-.028-.055,2.591-3.873h-1.93L99.8,6.492l.037.052,2.316,4.078L98.9,15.517l2,.005,3.126-4.831.047-.077Z" transform="translate(-95.357 -2.524)" fill="#fff"/>
      <path id="패스_3735" data-name="패스 3735" d="M107.014,6.544l-.028-.055,2.592-3.873h-1.93l-2.59,3.876.037.052,2.316,4.079-3.251,4.9,2.008,0,3.126-4.826.047-.077Z" transform="translate(-97.82 -2.524)" fill="#fff"/>
      <path id="패스_3736" data-name="패스 3736" d="M116.224,2.44a4.037,4.037,0,1,0,4.037,4.037,4.037,4.037,0,0,0-4.037-4.037m.109,6.461a2.424,2.424,0,1,1,2.424-2.424A2.424,2.424,0,0,1,116.333,8.9" transform="translate(-101.508 -2.44)" fill="#fff"/>
      <path id="패스_3737" data-name="패스 3737" d="M116.1,19.191h-.332l-.366-.221-.042.026v.195h-.282v-.6h.282v.254l.391-.254h.283l-.476.28Z" transform="translate(-102.994 -10.085)" fill="#fff"/>
      <path id="패스_3738" data-name="패스 3738" d="M117.778,19.057a.258.258,0,0,1-.176.049.176.176,0,0,1-.229-.214v-.015a.245.245,0,0,1,.045-.17.256.256,0,0,1,.184-.048c.1,0,.164.018.19.054a.278.278,0,0,1,.04.164v.016a.214.214,0,0,1-.054.165m.338-.189a.246.246,0,0,0-.128-.211.7.7,0,0,0-.378-.084.746.746,0,0,0-.388.082.244.244,0,0,0-.132.213V18.9a.233.233,0,0,0,.142.215.964.964,0,0,0,.743,0,.234.234,0,0,0,.141-.216Z" transform="translate(-103.939 -10.076)" fill="#fff"/>
      <path id="패스_3739" data-name="패스 3739" d="M119.887,18.819a.419.419,0,0,1-.143.018h-.077v-.16h.093a.376.376,0,0,1,.127.017.058.058,0,0,1,.043.056v.017c0,.023-.015.041-.043.053m.28.147a.384.384,0,0,0-.222-.093.56.56,0,0,0,.2-.036c.044-.021.065-.048.065-.082v-.032q0-.055-.075-.092a.628.628,0,0,0-.255-.037h-.493v.6h.281v-.27h.066a.216.216,0,0,1,.172.063.332.332,0,0,1,.058.207h.278a.3.3,0,0,0-.074-.226" transform="translate(-105.023 -10.085)" fill="#fff"/>
      <path id="패스_3740" data-name="패스 3740" d="M122.173,19.191h-.8v-.6h.761v.09h-.48v.161h.373v.092h-.373V19.1h.514Z" transform="translate(-105.962 -10.085)" fill="#fff"/>
      <path id="패스_3741" data-name="패스 3741" d="M123.383,18.961l.147-.222.156.222Zm.308-.369h-.263l-.423.6h.229l.095-.145h.417l.093.145h.288Z" transform="translate(-106.687 -10.085)" fill="#fff"/>
      <path id="패스_3742" data-name="패스 3742" d="M126.314,19.191h-.121l-.626-.376v.376h-.2v-.6h.151l.6.355v-.355h.2Z" transform="translate(-107.817 -10.085)" fill="#fff"/>
      <path id="패스_3743" data-name="패스 3743" d="M115.775,20.849c0,.063-.044.11-.132.141a1.17,1.17,0,0,1-.369.046q-.135,0-.228-.008a1.481,1.481,0,0,1-.153-.02v-.1a1.038,1.038,0,0,0,.148.025,1.736,1.736,0,0,0,.2.012.663.663,0,0,0,.189-.018q.052-.018.052-.058t-.038-.047a1.028,1.028,0,0,0-.212-.054.752.752,0,0,1-.216-.07.127.127,0,0,1-.077-.114c0-.046.041-.085.124-.117a.975.975,0,0,1,.341-.048,1.88,1.88,0,0,1,.19.009c.056.006.1.01.118.015v.092c-.047-.006-.095-.012-.142-.016s-.1-.007-.151-.007a.549.549,0,0,0-.163.017q-.05.017-.05.042a.053.053,0,0,0,.038.049,1.481,1.481,0,0,0,.219.047.739.739,0,0,1,.241.075.129.129,0,0,1,.071.108" transform="translate(-102.906 -10.949)" fill="#fff"/>
      <path id="패스_3744" data-name="패스 3744" d="M117.485,20.9a.258.258,0,0,1-.176.049.176.176,0,0,1-.229-.214V20.72a.248.248,0,0,1,.045-.17.258.258,0,0,1,.184-.048c.1,0,.164.018.19.054a.274.274,0,0,1,.04.164v.016a.214.214,0,0,1-.054.165m.338-.189a.245.245,0,0,0-.128-.211.7.7,0,0,0-.378-.084.744.744,0,0,0-.388.082.244.244,0,0,0-.132.213v.034a.232.232,0,0,0,.142.215.964.964,0,0,0,.743,0,.234.234,0,0,0,.141-.216Z" transform="translate(-103.802 -10.949)" fill="#fff"/>
      <path id="패스_3745" data-name="패스 3745" d="M119.839,21.01a.6.6,0,0,1-.105.017,1.752,1.752,0,0,1-.177.008.974.974,0,0,1-.413-.075.236.236,0,0,1-.16-.22v-.024a.246.246,0,0,1,.163-.217.9.9,0,0,1,.407-.082c.07,0,.129,0,.176.007a.713.713,0,0,1,.109.016v.092a.861.861,0,0,0-.1-.016,1.26,1.26,0,0,0-.143-.007.429.429,0,0,0-.239.057.18.18,0,0,0-.086.158v.008a.174.174,0,0,0,.08.158.4.4,0,0,0,.219.052,1.264,1.264,0,0,0,.16-.009c.044-.006.08-.011.106-.017Z" transform="translate(-104.833 -10.949)" fill="#fff"/>
      <rect id="사각형_1261" data-name="사각형 1261" width="0.281" height="0.6" transform="translate(15.253 9.478)" fill="#fff"/>
      <path id="패스_3746" data-name="패스 3746" d="M122.977,21.035h-.8v-.6h.761v.09h-.48v.161h.373v.092h-.373v.166h.514Z" transform="translate(-106.34 -10.958)" fill="#fff"/>
      <path id="패스_3747" data-name="패스 3747" d="M124.655,20.525h-.272v.509H124.1v-.509h-.279v-.09h.833Z" transform="translate(-107.078 -10.958)" fill="#fff"/>
      <path id="패스_3748" data-name="패스 3748" d="M126.538,20.435l-.415.346v.253h-.282v-.241l-.424-.359h.329l.277.24.292-.24Z" transform="translate(-107.841 -10.958)" fill="#fff"/>
      <path id="패스_3749" data-name="패스 3749" d="M115.843,22.369h-.48v.162h.373v.092h-.373v.256h-.282v-.6h.761Z" transform="translate(-102.996 -11.811)" fill="#fff"/>
      <path id="패스_3750" data-name="패스 3750" d="M117.414,22.745a.256.256,0,0,1-.175.049.176.176,0,0,1-.229-.214v-.015a.25.25,0,0,1,.045-.17.261.261,0,0,1,.184-.047c.1,0,.163.018.19.054a.274.274,0,0,1,.04.164v.016a.212.212,0,0,1-.055.165m.338-.189a.245.245,0,0,0-.128-.211.7.7,0,0,0-.378-.084.744.744,0,0,0-.388.082.244.244,0,0,0-.132.213v.034a.232.232,0,0,0,.142.215.964.964,0,0,0,.743,0,.234.234,0,0,0,.141-.216Z" transform="translate(-103.768 -11.802)" fill="#fff"/>
      <path id="패스_3751" data-name="패스 3751" d="M119.523,22.506a.421.421,0,0,1-.143.018H119.3v-.16h.092a.377.377,0,0,1,.128.017.058.058,0,0,1,.043.056v.017a.057.057,0,0,1-.043.053m.28.147a.382.382,0,0,0-.222-.093.554.554,0,0,0,.2-.036c.044-.021.066-.048.066-.082v-.032q0-.055-.075-.092a.63.63,0,0,0-.255-.037h-.493v.6h.282v-.27h.066a.216.216,0,0,1,.172.063.328.328,0,0,1,.057.207h.279a.3.3,0,0,0-.074-.226" transform="translate(-104.851 -11.811)" fill="#fff"/>
      <path id="패스_3752" data-name="패스 3752" d="M123.158,22.369h-.272v.51H122.6v-.51h-.279v-.09h.833Z" transform="translate(-106.408 -11.811)" fill="#fff"/>
      <path id="패스_3753" data-name="패스 3753" d="M125.055,22.879h-.281v-.258h-.321v.258h-.282v-.6h.282v.249h.321v-.249h.281Z" transform="translate(-107.245 -11.811)" fill="#fff"/>
      <path id="패스_3754" data-name="패스 3754" d="M127.133,22.879h-.8v-.6h.761v.09h-.48v.162h.373v.092h-.373v.166h.514Z" transform="translate(-108.282 -11.811)" fill="#fff"/>
      <path id="패스_3755" data-name="패스 3755" d="M115.775,24.537c0,.064-.044.111-.132.141a1.17,1.17,0,0,1-.369.046q-.135,0-.228-.008a1.481,1.481,0,0,1-.153-.02v-.1a1.038,1.038,0,0,0,.148.025,1.735,1.735,0,0,0,.2.012.689.689,0,0,0,.189-.018c.034-.012.052-.031.052-.058s-.013-.033-.038-.047a1.028,1.028,0,0,0-.212-.054.752.752,0,0,1-.216-.07.127.127,0,0,1-.077-.114c0-.046.041-.085.124-.117a.975.975,0,0,1,.341-.048,1.88,1.88,0,0,1,.19.009c.056.006.1.01.118.015v.092l-.142-.016c-.047,0-.1-.007-.151-.007a.549.549,0,0,0-.163.017q-.05.017-.05.042a.053.053,0,0,0,.038.049,1.452,1.452,0,0,0,.219.048.714.714,0,0,1,.241.075.128.128,0,0,1,.071.108" transform="translate(-102.906 -12.685)" fill="#fff"/>
      <path id="패스_3756" data-name="패스 3756" d="M117.536,24.213h-.272v.51h-.282v-.51H116.7v-.09h.833Z" transform="translate(-103.759 -12.693)" fill="#fff"/>
      <path id="패스_3757" data-name="패스 3757" d="M119.439,24.551c0,.057-.036.1-.109.133a1.227,1.227,0,0,1-.69,0,.164.164,0,0,1-.107-.153v-.4h.281v.421a.079.079,0,0,0,.046.074.377.377,0,0,0,.161.024.435.435,0,0,0,.157-.021.079.079,0,0,0,.052-.079v-.419h.21Z" transform="translate(-104.62 -12.693)" fill="#fff"/>
      <path id="패스_3758" data-name="패스 3758" d="M121.28,24.591a.324.324,0,0,1-.181.042h-.129v-.42h.105a.327.327,0,0,1,.194.052.174.174,0,0,1,.071.15v.017a.183.183,0,0,1-.06.16m.344-.18a.239.239,0,0,0-.121-.211.791.791,0,0,0-.4-.077h-.411v.6h.459a.724.724,0,0,0,.357-.07.234.234,0,0,0,.12-.217Z" transform="translate(-105.635 -12.693)" fill="#fff"/>
      <path id="패스_3759" data-name="패스 3759" d="M123.722,24.123l-.415.346v.253h-.282v-.241l-.424-.359h.329l.277.24.292-.24Z" transform="translate(-106.493 -12.693)" fill="#fff"/>
      <path id="패스_3760" data-name="패스 3760" d="M127,24.589a.258.258,0,0,1-.176.049.176.176,0,0,1-.229-.214v-.015a.25.25,0,0,1,.045-.17.261.261,0,0,1,.184-.047c.1,0,.164.018.19.054a.278.278,0,0,1,.04.164v.016a.214.214,0,0,1-.054.165m.338-.189a.245.245,0,0,0-.128-.211.7.7,0,0,0-.377-.084.746.746,0,0,0-.388.082.244.244,0,0,0-.132.213v.034a.233.233,0,0,0,.142.215.964.964,0,0,0,.743,0,.234.234,0,0,0,.141-.216Z" transform="translate(-108.269 -12.685)" fill="#fff"/>
      <path id="패스_3761" data-name="패스 3761" d="M129.369,24.213h-.48v.162h.374v.092h-.374v.256h-.282v-.6h.761Z" transform="translate(-109.369 -12.693)" fill="#fff"/>
      <path id="패스_3762" data-name="패스 3762" d="M115.646,26.433a.259.259,0,0,1-.175.049.176.176,0,0,1-.229-.214v-.015a.25.25,0,0,1,.045-.17.259.259,0,0,1,.184-.047c.1,0,.163.018.19.053a.277.277,0,0,1,.04.165v.016a.213.213,0,0,1-.055.165m.338-.189a.247.247,0,0,0-.128-.212.7.7,0,0,0-.378-.083.744.744,0,0,0-.388.082.244.244,0,0,0-.132.213v.034a.233.233,0,0,0,.142.215.963.963,0,0,0,.743,0,.234.234,0,0,0,.141-.216Z" transform="translate(-102.935 -13.567)" fill="#fff"/>
      <path id="패스_3763" data-name="패스 3763" d="M117.75,26.168a.3.3,0,0,1-.123.018h-.1v-.134h.1a.339.339,0,0,1,.12.016.052.052,0,0,1,0,.1m.308.091a.5.5,0,0,0-.207-.053.373.373,0,0,0,.152-.038.089.089,0,0,0,.049-.08c0-.038-.027-.068-.08-.089a.8.8,0,0,0-.271-.032h-.445v.6h.436a.882.882,0,0,0,.328-.049c.079-.033.119-.08.119-.141a.132.132,0,0,0-.081-.118m-.249.194a.367.367,0,0,1-.17.029h-.111v-.214h.1a.428.428,0,0,1,.181.028.084.084,0,0,1,.055.076.089.089,0,0,1-.051.082" transform="translate(-104.019 -13.576)" fill="#fff"/>
      <path id="패스_3764" data-name="패스 3764" d="M120.117,26.566h-.8v-.6h.761v.09h-.48v.161h.373v.092H119.6v.166h.514Z" transform="translate(-104.993 -13.576)" fill="#fff"/>
      <path id="패스_3765" data-name="패스 3765" d="M121.872,26.381c0,.063-.044.11-.132.141a1.174,1.174,0,0,1-.369.046q-.135,0-.228-.008a1.462,1.462,0,0,1-.153-.02v-.1a1.042,1.042,0,0,0,.148.025,1.752,1.752,0,0,0,.2.012.692.692,0,0,0,.189-.018c.034-.013.052-.032.052-.058s-.013-.033-.038-.047a1.028,1.028,0,0,0-.212-.054.77.77,0,0,1-.216-.069.129.129,0,0,1-.077-.115c0-.046.042-.085.124-.117a.98.98,0,0,1,.341-.048,1.879,1.879,0,0,1,.19.009c.056.006.1.01.118.015v.092c-.047-.006-.095-.012-.142-.016a1.5,1.5,0,0,0-.15-.007.549.549,0,0,0-.163.017q-.05.017-.05.042a.053.053,0,0,0,.037.049,1.56,1.56,0,0,0,.22.048.72.72,0,0,1,.241.075.129.129,0,0,1,.072.108" transform="translate(-105.778 -13.567)" fill="#fff"/>
      <rect id="사각형_1262" data-name="사각형 1262" width="0.281" height="0.6" transform="translate(16.374 12.391)" fill="#fff"/>
      <path id="패스_3766" data-name="패스 3766" d="M124.827,26.057h-.272v.509h-.282v-.509h-.279v-.09h.833Z" transform="translate(-107.16 -13.576)" fill="#fff"/>
      <path id="패스_3767" data-name="패스 3767" d="M126.709,25.967l-.415.346v.253h-.282v-.241l-.424-.359h.329l.277.24.292-.24Z" transform="translate(-107.923 -13.576)" fill="#fff"/>
    </g>
  </g>
</svg>
