<svg xmlns="http://www.w3.org/2000/svg" xmlns:xlink="http://www.w3.org/1999/xlink" width="30" height="30" viewBox="0 0 30 30">
  <defs>
    <clipPath id="clip-path">
      <rect id="사각형_1237" data-name="사각형 1237" width="18.498" height="17.32" fill="none" stroke="#fff" stroke-width="0.6"/>
    </clipPath>
    <clipPath id="clip-path-2">
      <rect id="사각형_1200" data-name="사각형 1200" width="14.758" height="14.742" fill="none" stroke="#fff" stroke-width="0.6"/>
    </clipPath>
  </defs>
  <g id="그룹_1459" data-name="그룹 1459" transform="translate(15910 10583)">
    <rect id="사각형_1723" data-name="사각형 1723" width="30" height="30" rx="5" transform="translate(-15910 -10583)" fill="#006"/>
    <g id="그룹_1450" data-name="그룹 1450" transform="translate(-15904.228 -10579.792)">
      <g id="그룹_1109" data-name="그룹 1109" transform="translate(0 5.522)">
        <g id="그룹_1085" data-name="그룹 1085" transform="translate(0 0)" clip-path="url(#clip-path)">
          <path id="패스_3645" data-name="패스 3645" d="M17.827,14.6a.669.669,0,0,1,0,1.164l-8,5.107a.934.934,0,0,1-.985,0l-8-5.107a.669.669,0,0,1,0-1.164" transform="translate(-0.084 -4.054)" fill="none" stroke="#fff" stroke-linecap="round" stroke-linejoin="round" stroke-width="0.6"/>
          <path id="패스_3646" data-name="패스 3646" d="M.839,11.183a.669.669,0,0,0,0,1.164l.785.5,7.216,4.605a.934.934,0,0,0,.985,0l7.216-4.605.786-.5a.669.669,0,0,0,0-1.164" transform="translate(-0.084 -3.105)" fill="none" stroke="#fff" stroke-linecap="round" stroke-linejoin="round" stroke-width="0.6"/>
          <path id="패스_3647" data-name="패스 3647" d="M17.827,5.747,9.825.64a.934.934,0,0,0-.985,0l-8,5.107a.67.67,0,0,0,0,1.164l.785.5L3.321,8.5l5.521,3.522a.932.932,0,0,0,.984,0L15.346,8.5l1.7-1.084.785-.5A.669.669,0,0,0,17.827,5.747Z" transform="translate(-0.084 -0.139)" fill="none" stroke="#fff" stroke-linecap="round" stroke-linejoin="round" stroke-width="0.6"/>
        </g>
      </g>
      <path id="패스_3878" data-name="패스 3878" d="M-14453.1-12562.277l-1.409-2.127,5-2.8,4.309,2.8-2.675,3.543Z" transform="translate(14458.805 12572.036)" fill="#000166"/>
      <g id="그룹_1011" data-name="그룹 1011" transform="translate(1.87 0)">
        <g id="마스크_그룹_1010" data-name="마스크 그룹 1010" transform="translate(0 0)" clip-path="url(#clip-path-2)">
          <path id="패스_3589" data-name="패스 3589" d="M13.57,4.7c0,3.03-4.2,7.253-4.2,7.253s-4.2-4.2-4.2-7.253a4.2,4.2,0,1,1,8.4,0Z" transform="translate(-2.315 0.455)" fill="none" stroke="#fff" stroke-miterlimit="10" stroke-width="0.6"/>
          <circle id="타원_163" data-name="타원 163" cx="1.909" cy="1.909" r="1.909" transform="translate(5.147 3.103)" fill="none" stroke="#fff" stroke-miterlimit="10" stroke-width="0.6"/>
        </g>
      </g>
    </g>
  </g>
</svg>
