<svg xmlns="http://www.w3.org/2000/svg" width="152" height="153" viewBox="0 0 152 153">
  <g id="그룹_1263" data-name="그룹 1263" transform="translate(-514 -566)">
    <rect id="사각형_1379" data-name="사각형 1379" width="152" height="153" rx="25" transform="translate(514 566)" fill="#006"/>
    <g id="그룹_1222" data-name="그룹 1222" transform="translate(544.944 595.777)">
      <g id="그룹_1203" data-name="그룹 1203" transform="translate(0 0)">
        <path id="패스_3851" data-name="패스 3851" d="M24.328,30.295a10.025,10.025,0,1,1-10.2-9.849A10.025,10.025,0,0,1,24.328,30.295Z" transform="translate(-4.173 -14.198)" fill="none" stroke="#fff" stroke-linecap="round" stroke-linejoin="round" stroke-width="3"/>
        <path id="패스_3852" data-name="패스 3852" d="M219.29,89.258a10.025,10.025,0,1,1,13.659-3.8A10.025,10.025,0,0,1,219.29,89.258Z" transform="translate(-134.356 -45.242)" fill="none" stroke="#fff" stroke-linecap="round" stroke-linejoin="round" stroke-width="3"/>
        <path id="패스_3853" data-name="패스 3853" d="M80.553,212.546a10.025,10.025,0,1,1-3.646,13.7A10.026,10.026,0,0,1,80.553,212.546Z" transform="translate(-48.376 -132.495)" fill="none" stroke="#fff" stroke-linecap="round" stroke-linejoin="round" stroke-width="3"/>
        <path id="패스_3854" data-name="패스 3854" d="M25.1,128.494A45.44,45.44,0,0,1,8.976,69.446" transform="translate(-4 -44.588)" fill="none" stroke="#fff" stroke-linecap="round" stroke-linejoin="round" stroke-width="3"/>
        <path id="패스_3855" data-name="패스 3855" d="M66.306,9.508a45.445,45.445,0,0,1,59.308,14.479" transform="translate(-42.641 -4)" fill="none" stroke="#fff" stroke-linecap="round" stroke-linejoin="round" stroke-width="3"/>
        <path id="패스_3856" data-name="패스 3856" d="M171.639,123.132a45.44,45.44,0,0,1-43.9,45.565" transform="translate(-80.738 -77.882)" fill="none" stroke="#fff" stroke-linecap="round" stroke-linejoin="round" stroke-width="3"/>
        <circle id="타원_169" data-name="타원 169" cx="11.443" cy="11.443" r="11.443" transform="translate(33.699 23.779)" fill="none" stroke="#fff" stroke-linecap="round" stroke-linejoin="round" stroke-width="3"/>
        <path id="패스_3857" data-name="패스 3857" d="M75.271,135.548c2.367,3.044,6.985,5.109,12.293,5.109,5.453,0,10.177-2.18,12.482-5.36h0c5.567,3.374,9.211,8.982,9.211,15.33H66.306c0-6.237,3.517-11.759,8.92-15.151Z" transform="translate(-42.641 -85.427)" fill="none" stroke="#fff" stroke-linecap="round" stroke-linejoin="round" stroke-width="3"/>
      </g>
    </g>
  </g>
</svg>
