<svg xmlns="http://www.w3.org/2000/svg" xmlns:xlink="http://www.w3.org/1999/xlink" width="152" height="153" viewBox="0 0 152 153">
  <defs>
    <clipPath id="clip-path">
      <rect id="사각형_1373" data-name="사각형 1373" width="109" height="98" transform="translate(0.237 0.025)" fill="none" stroke="#fff" stroke-width="3"/>
    </clipPath>
  </defs>
  <g id="그룹_1261" data-name="그룹 1261" transform="translate(-102 -566)">
    <rect id="사각형_1380" data-name="사각형 1380" width="152" height="153" rx="25" transform="translate(102 566)" fill="#006"/>
    <g id="그룹_1221" data-name="그룹 1221" transform="translate(125.763 591.975)">
      <g id="그룹_1208" data-name="그룹 1208" transform="translate(0 0)" clip-path="url(#clip-path)">
        <path id="패스_3867" data-name="패스 3867" d="M24,296v11.394H74.134V296" transform="translate(-17.163 -211.819)" fill="none" stroke="#fff" stroke-linecap="round" stroke-linejoin="round" stroke-width="3"/>
        <path id="패스_3868" data-name="패스 3868" d="M53.577,90.038H67.25V78.644c0-6.293-4.552-7.568-13.293-11.014-9.875-3.893-9.992-14.09-9.5-23.168.636-11.6,4.558-18.231,4.558-25.067a11.394,11.394,0,1,0-22.788,0c0,6.837,3.922,13.465,4.558,25.067.5,9.078.38,19.275-9.5,23.168C12.552,71.076,8,72.351,8,78.644V90.038H42.183" transform="translate(-5.721 -5.857)" fill="none" stroke="#fff" stroke-linecap="round" stroke-linejoin="round" stroke-width="3"/>
        <path id="패스_3869" data-name="패스 3869" d="M221.625,96l-15.952,15.952-6.837-6.837L192,111.952l13.673,13.673,22.788-22.788Z" transform="translate(-137.308 -68.79)" fill="none" stroke="#fff" stroke-linejoin="round" stroke-width="3"/>
        <path id="패스_3870" data-name="패스 3870" d="M180,31.729a34.183,34.183,0,1,1,21.65,60.636q-1.626,0-3.215-.149" transform="translate(-128.725 -17.299)" fill="none" stroke="#fff" stroke-linecap="round" stroke-linejoin="round" stroke-width="3"/>
      </g>
    </g>
  </g>
</svg>
