<svg xmlns="http://www.w3.org/2000/svg" xmlns:xlink="http://www.w3.org/1999/xlink" width="750" height="204.003" viewBox="0 0 750 204.003">
  <defs>
    <clipPath id="clip-path">
      <rect id="사각형_1881" data-name="사각형 1881" width="749.998" height="204.002" fill="none"/>
    </clipPath>
  </defs>
  <g id="그룹_1528" data-name="그룹 1528" transform="translate(0 0.001)">
    <rect id="사각형_1868" data-name="사각형 1868" width="750" height="204.003" transform="translate(0 -0.001)" fill="#fff"/>
    <g id="그룹_1527" data-name="그룹 1527" transform="translate(0 0.001)">
      <g id="그룹_1526" data-name="그룹 1526" clip-path="url(#clip-path)">
        <path id="패스_5030" data-name="패스 5030" d="M235.936,36.83c27.062,0,49,21.714,49,48.5s-21.938,48.5-49,48.5-49-21.714-49-48.5,21.938-48.5,49-48.5" transform="translate(139.001 27.386)" fill="#0b4a81"/>
        <path id="패스_5031" data-name="패스 5031" d="M321.8,83.466a55.067,55.067,0,0,0,106.267,0,39.293,39.293,0,0,1,36.849-25.65H749.862v103.2H0V57.816H284.944a39.293,39.293,0,0,1,36.849,25.65Z" transform="translate(0 42.99)" fill="#0b4a81"/>
        <path id="패스_5032" data-name="패스 5032" d="M290.7,108.876a.841.841,0,0,1-.84-.84V72.065c0-2.551,2.349-4.629,5.236-4.629h28.574c2.887,0,5.236,2.078,5.236,4.629v32.183a.841.841,0,0,1-.84.84H295.094a.841.841,0,0,1,0-1.683h32.129V72.065c0-1.625-1.594-2.947-3.555-2.947H295.094c-1.961,0-3.555,1.322-3.555,2.947v35.97a.841.841,0,0,1-.84.84" transform="translate(215.531 50.144)" fill="#fff"/>
        <path id="패스_5033" data-name="패스 5033" d="M328.063,97.321H295.094c-2.887,0-5.236-2.077-5.236-4.627s2.349-4.627,5.236-4.627h32.969a.841.841,0,0,1,.333,1.613c-1.747.753-2.79,1.88-2.79,3.013s1.043,2.263,2.79,3.016a.841.841,0,0,1-.333,1.613m-32.969-7.572c-1.961,0-3.555,1.322-3.555,2.945s1.594,2.945,3.555,2.945h30.159a3.935,3.935,0,0,1,0-5.89Z" transform="translate(215.531 65.484)" fill="#fff"/>
        <path id="패스_5034" data-name="패스 5034" d="M301.413,89.943a.821.821,0,0,1-.333-.07.838.838,0,0,1-.507-.771V68.279a.841.841,0,0,1,.84-.842H313.5a.841.841,0,0,1,.84.842V89.1a.842.842,0,0,1-1.416.614l-5.464-5.14-5.473,5.14a.853.853,0,0,1-.575.227m.84-20.824V87.162l4.633-4.35a.841.841,0,0,1,1.151,0l4.624,4.347V69.12Z" transform="translate(223.498 50.144)" fill="#fff"/>
        <path id="패스_5035" data-name="패스 5035" d="M158.888,109.865H118.021a1.682,1.682,0,0,1-1.681-1.683V72.867a1.682,1.682,0,0,1,1.681-1.681h40.868a1.681,1.681,0,0,1,1.679,1.681v35.316a1.682,1.682,0,0,1-1.679,1.683m-40.866-37,0,35.318h40.868l0-35.316Zm0-.839v0Z" transform="translate(86.507 52.932)" fill="#fff"/>
        <path id="패스_5036" data-name="패스 5036" d="M159.727,78.174H117.18a.841.841,0,0,1,0-1.683h42.547a.841.841,0,0,1,0,1.683" transform="translate(86.507 56.877)" fill="#fff"/>
        <path id="패스_5037" data-name="패스 5037" d="M137.339,78.935a.841.841,0,0,1-.84-.84v-9.25a.84.84,0,1,1,1.681,0v9.25a.841.841,0,0,1-.84.84" transform="translate(101.497 50.565)" fill="#fff"/>
        <path id="패스_5038" data-name="패스 5038" d="M121.425,78.935a.841.841,0,0,1-.84-.84v-9.25a.84.84,0,1,1,1.681,0v9.25a.841.841,0,0,1-.84.84" transform="translate(89.664 50.565)" fill="#fff"/>
        <path id="패스_5039" data-name="패스 5039" d="M31.374,89.2a.84.84,0,0,1-.57-1.458L52.492,67.7a.835.835,0,0,1,1.14,0l7.888,7.29a.84.84,0,1,1-1.14,1.233l-7.318-6.762L31.944,88.971a.838.838,0,0,1-.57.225" transform="translate(22.704 50.17)" fill="#fff"/>
        <path id="패스_5040" data-name="패스 5040" d="M59.616,84.053a.837.837,0,0,1-.57-.225L51.159,76.54a.84.84,0,1,1,1.14-1.233L60.186,82.6a.84.84,0,0,1-.57,1.458" transform="translate(37.84 55.831)" fill="#fff"/>
        <path id="패스_5041" data-name="패스 5041" d="M69.127,104.875H57.3a.841.841,0,0,1-.84-.84V93.1a4.832,4.832,0,0,0-5.042-4.626,4.9,4.9,0,0,0-5.107,4.661v10.9a.841.841,0,0,1-.84.84H33.636a.841.841,0,0,1-.84-.84V78.526a.84.84,0,1,1,1.681,0v24.666H44.626V93.1a6.575,6.575,0,0,1,6.788-6.3,6.507,6.507,0,0,1,6.721,6.272l0,10.123H68.286V78.526a.84.84,0,1,1,1.681,0v25.508a.841.841,0,0,1-.84.84" transform="translate(24.386 57.764)" fill="#fff"/>
        <path id="패스_5042" data-name="패스 5042" d="M54.253,81.131a.841.841,0,0,1-.84-.84V70.2H49.178v4.626a.84.84,0,0,1-1.681,0V69.356a.84.84,0,0,1,.84-.84h5.916a.84.84,0,0,1,.84.84V80.29a.841.841,0,0,1-.84.84" transform="translate(35.318 50.947)" fill="#fff"/>
        <path id="패스_5043" data-name="패스 5043" d="M111.5,112.187h14.179v1.819H111.5Zm1.1-10.658h11.9v1.784h-2.125V108h2.073v1.785H112.691V108h2.04v-4.692h-2.125ZM116.959,108h3.2v-4.692h-3.2Z" transform="translate(82.91 75.494)" fill="#fff"/>
        <path id="패스_5044" data-name="패스 5044" d="M120.471,114.261v-1.836h5.951V110.1h-4.317v-5.3h8.737v-1.683h-8.754v-1.785h10.965v5.219h-8.721v1.752h9.077v1.8h-4.743v2.329h5.984v1.836Z" transform="translate(89.579 75.341)" fill="#fff"/>
        <path id="패스_5045" data-name="패스 5045" d="M129.442,111.913H143.6v1.838H129.442Zm1.463-10.336H141.87v1.852a36.685,36.685,0,0,1-.579,7.55l-2.227-.206a37.72,37.72,0,0,0,.561-7.344v-.068H130.9Z" transform="translate(96.25 75.53)" fill="#fff"/>
        <path id="패스_5046" data-name="패스 5046" d="M139.868,109.479H138.78V104.7h3.756v-1.275h-3.773v-1.752h5.932v4.643h-3.756v1.393a23.124,23.124,0,0,0,4.352-.357l.188,1.768a29.448,29.448,0,0,1-5.611.357m11.628,6.749H140.888v-5.593H151.5Zm-2.193-3.843H143.1v2.073H149.3Zm.068-2.4v-3.757h-1.259v3.621h-2.091V101.03h2.091v3.4h1.259v-3.674H151.5v9.232Z" transform="translate(103.181 74.921)" fill="#fff"/>
        <path id="패스_5047" data-name="패스 5047" d="M282.428,114.533v-1.819H288.4v-3.025h2.244v3.025h5.966v1.819Zm5.933-9.963h-4.709v-1.784H288.4v-1.921h2.244v1.921h4.741v1.784h-4.708c.188,1.7,1.9,3.485,5.475,3.893l-.8,1.768c-2.941-.391-4.793-1.494-5.831-3.128-1.037,1.634-2.891,2.737-5.832,3.128l-.8-1.768c3.571-.408,5.288-2.192,5.475-3.893" transform="translate(210.006 75.001)" fill="#fff"/>
        <path id="패스_5048" data-name="패스 5048" d="M291.4,110.784V109h5.968v-1.121h-4.2v-4.3h8.469v-.952h-8.5v-1.7h10.709v4.232h-8.465v1.02h8.789v1.7h-4.556V109h5.966v1.787Zm12.548,5.44H301.7v-2.79h-8.741v-1.766h10.984Z" transform="translate(216.675 75.044)" fill="#fff"/>
        <path id="패스_5049" data-name="패스 5049" d="M302.581,114.173v-1.819h5.951v-2.873h-4.455V101.3h2.228v2.432H313V101.3h2.211v8.177h-4.437v2.873h5.984v1.819ZM313,105.5h-6.7V107.7H313Z" transform="translate(224.991 75.327)" fill="#fff"/>
        <path id="패스_5050" data-name="패스 5050" d="M312.743,113.76l-1.173-1.766c4-1.906,5.729-4.369,6.054-7.837h-5.218v-1.785h7.513c0,4.776-1.616,8.721-7.175,11.389m9.57-13.021h2.261V116.4h-2.261Z" transform="translate(231.675 74.907)" fill="#fff"/>
        <path id="패스_5051" data-name="패스 5051" d="M364.549,106.9h14.144v1.752H364.549Zm5.593-4.131h-4.3v-1.751H377.42v1.751h-4.3c.459.952,2.007,1.8,4.948,2.007l-.68,1.7c-2.941-.2-4.795-1.121-5.747-2.415-.952,1.294-2.772,2.211-5.764,2.415l-.7-1.7c2.924-.188,4.488-1.072,4.964-2.007m7.243,13.312h-11.2v-4.1h8.585v-.851h-8.6v-1.63h10.814v4.01h-8.568v.9h8.976Z" transform="translate(271.069 75.117)" fill="#fff"/>
        <path id="패스_5052" data-name="패스 5052" d="M384.437,116.39v-5.559h-3.688v-1.8h3.688v-2.481h-3.451c-.868,2.907-2.805,5.339-6.409,7.157l-1.156-1.733c3.672-1.921,5.473-4.369,5.831-7.822h-5.083v-1.784h7.361a18.266,18.266,0,0,1-.153,2.378h3.06v-3.995h2.244V116.39Z" transform="translate(277.666 74.914)" fill="#fff"/>
        <path id="패스_5053" data-name="패스 5053" d="M387.2,106.822a5.668,5.668,0,0,1-3.742,2.926l-1.037-1.752c2.465-.678,3.571-2.275,3.621-3.96h-3.058v-1.768h3.058v-1.548h2.246v1.548h3.093v1.768h-3.093c.051,1.513,1.139,3.128,3.621,3.707l-1,1.733a5.863,5.863,0,0,1-3.707-2.654m8.533,7.872-.8,1.7c-2.533-.324-4.216-1.276-5.1-2.636-.9,1.36-2.6,2.295-5.135,2.619l-.8-1.7c2.772-.321,4.2-1.376,4.608-2.549H384.58v-1.768H395.07v1.768h-3.946c.41,1.123,1.941,2.244,4.608,2.567m-.867-8.568v3.553h-2.244v-8.908h2.244v3.5h2.073v1.852Z" transform="translate(284.357 74.892)" fill="#fff"/>
        <path id="패스_5054" data-name="패스 5054" d="M392.651,113.76l-1.173-1.766c4-1.906,5.729-4.369,6.054-7.837h-5.219v-1.785h7.513c0,4.776-1.615,8.721-7.175,11.389m9.57-13.021h2.261V116.4h-2.261Z" transform="translate(291.093 74.907)" fill="#fff"/>
        <path id="패스_5055" data-name="패스 5055" d="M204.036,114.594c-3.332,0-5.626-2.5-5.626-6.579,0-4.1,2.295-6.477,5.626-6.477s5.628,2.4,5.628,6.477a6.647,6.647,0,0,1-2.279,5.508l2.516,2.992H206.79l-1.6-2.04a6.65,6.65,0,0,1-1.156.119m3.06-6.579c0-2.737-1.139-4.319-3.06-4.319s-3.06,1.581-3.06,4.319c0,2.668,1.191,4.4,3.06,4.4s3.06-1.735,3.06-4.4" transform="translate(147.532 75.501)" fill="#fff"/>
        <path id="패스_5056" data-name="패스 5056" d="M208.795,109.495v4.76h-2.516v-12.58h4.387c2.652,0,4.725.9,4.725,3.808a3.573,3.573,0,0,1-2.4,3.621l2.943,5.151H213.13l-2.582-4.76Zm4.131-4.012c0-1.36-.867-1.819-2.5-1.819h-1.632v3.841h1.632c1.632,0,2.5-.663,2.5-2.023" transform="translate(153.384 75.603)" fill="#fff"/>
        <path id="패스_5057" data-name="패스 5057" d="M214.673,114.045v-1.819h5.016v-3.742h2.244v3.742h6.9v1.819Zm10.575-10.761h-8.976V101.5h11.187v1.377a31.969,31.969,0,0,1-.717,7.513l-2.209-.272a25.218,25.218,0,0,0,.528-3.128l-8.978.474-.289-1.887,9.4-.305c.051-.731.051-1.376.051-1.989" transform="translate(159.625 75.473)" fill="#fff"/>
        <path id="패스_5058" data-name="패스 5058" d="M223.643,112.147h14.179v1.836H223.643Zm1.649-10.658h10.9v1.819h-8.653v4.113h8.772v1.787H225.292Z" transform="translate(166.295 75.465)" fill="#fff"/>
        <path id="패스_5059" data-name="패스 5059" d="M38.933,110.915V109.18H44.9V108.4c-2.668-.153-4.113-.884-4.113-2.193,0-1.48,1.751-2.227,5.236-2.227s5.253.731,5.253,2.227c0,1.309-1.463,2.04-4.131,2.193v.781h5.966v1.735Zm.68-9.011H44.9V100.68h2.246V101.9h5.219v1.683H39.613Zm11.8,14.367H40.6v-4.54H51.412ZM49.2,113.378H42.792v1.241H49.2Zm-3.179-6.443c1.989,0,2.839-.2,2.839-.731s-.849-.713-2.839-.713-2.839.187-2.839.713.849.731,2.839.731" transform="translate(28.95 74.863)" fill="#fff"/>
        <rect id="사각형_1869" data-name="사각형 1869" width="6.737" height="6.737" transform="translate(357.103 94.882)" fill="#fff"/>
        <path id="패스_5060" data-name="패스 5060" d="M201.008,67.205h20v20h-20Zm2.973,17.029h14.053V70.181H203.981Z" transform="translate(149.464 49.972)" fill="#fff" fill-rule="evenodd"/>
        <rect id="사각형_1870" data-name="사각형 1870" width="6.737" height="6.737" transform="translate(357.103 123.811)" fill="#fff"/>
        <path id="패스_5061" data-name="패스 5061" d="M201.008,50.614h20v20h-20Zm2.973,17.028h14.053V53.589H203.981Z" transform="translate(149.464 37.635)" fill="#fff" fill-rule="evenodd"/>
        <path id="패스_5062" data-name="패스 5062" d="M217.6,50.614h20v20h-20Zm2.976,17.028h14.053V53.589H220.574Z" transform="translate(161.8 37.635)" fill="#fff" fill-rule="evenodd"/>
        <rect id="사각형_1871" data-name="사각형 1871" width="6.739" height="6.737" transform="translate(386.032 94.882)" fill="#fff"/>
        <path id="패스_5063" data-name="패스 5063" d="M225.659,81.552h5.949V78.577h-2.975V74.814h-2.975Z" transform="translate(167.794 55.63)" fill="#fff" fill-rule="evenodd"/>
        <rect id="사각형_1872" data-name="사각형 1872" width="6.737" height="2.975" transform="translate(357.103 111.228)" fill="#fff"/>
        <rect id="사각형_1873" data-name="사각형 1873" width="2.975" height="2.975" transform="translate(373.451 88.249)" fill="#fff"/>
        <rect id="사각형_1874" data-name="사각형 1874" width="2.975" height="6.737" transform="translate(373.451 101.514)" fill="#fff"/>
        <rect id="사각형_1875" data-name="사각형 1875" width="2.975" height="2.975" transform="translate(350.471 111.228)" fill="#fff"/>
        <rect id="사각형_1876" data-name="사각형 1876" width="6.737" height="2.975" transform="translate(392.663 111.228)" fill="#fff"/>
        <path id="패스_5064" data-name="패스 5064" d="M220.679,67.538h3.763V71.3h3.369v2.975H217.7V70.512h2.975Z" transform="translate(161.879 50.219)" fill="#fff" fill-rule="evenodd"/>
        <rect id="사각형_1877" data-name="사각형 1877" width="6.737" height="2.975" transform="translate(389.69 124.495)" fill="#fff"/>
        <rect id="사각형_1878" data-name="사각형 1878" width="2.975" height="2.975" transform="translate(386.716 127.467)" fill="#fff"/>
        <path id="패스_5065" data-name="패스 5065" d="M219.531,81.552h6.737V78.577h-3.763V74.814h-2.975Z" transform="translate(163.237 55.63)" fill="#fff" fill-rule="evenodd"/>
        <path id="패스_5066" data-name="패스 5066" d="M214.186,73.108h6.737v6.737h-3.763V82.82h-2.975Z" transform="translate(159.263 54.361)" fill="#fff" fill-rule="evenodd"/>
        <rect id="사각형_1879" data-name="사각형 1879" width="2.975" height="7.316" transform="translate(373.451 117.177)" fill="#fff"/>
        <path id="패스_5067" data-name="패스 5067" d="M231.944,74.275V67.538h-6.737v2.975h3.763v3.763Z" transform="translate(167.458 50.219)" fill="#fff" fill-rule="evenodd"/>
        <rect id="사각형_1880" data-name="사각형 1880" width="2.975" height="2.975" transform="translate(396.428 127.467)" fill="#fff"/>
        <path id="패스_5068" data-name="패스 5068" d="M214.186,66.768h12.871v3.553h2.976V63.794H214.186Z" transform="translate(159.263 47.435)" fill="#fff" fill-rule="evenodd"/>
        <path id="패스_5069" data-name="패스 5069" d="M374.51,111.87a3.284,3.284,0,0,1-3.28-3.28V70.647a3.281,3.281,0,0,1,3.278-3.278h31.245a3.281,3.281,0,0,1,3.278,3.278v37.944a3.278,3.278,0,0,1-5.192,2.661l-12.728-9.164a1.675,1.675,0,0,0-1.96,0l-12.728,9.164a3.275,3.275,0,0,1-1.913.619m15.621-11.7a3.273,3.273,0,0,1,1.916.619l12.728,9.164a1.676,1.676,0,0,0,2.654-1.36V70.647a1.677,1.677,0,0,0-1.676-1.676H374.508a1.677,1.677,0,0,0-1.676,1.676v37.944a1.676,1.676,0,0,0,2.654,1.36l12.728-9.164a3.272,3.272,0,0,1,1.916-.619" transform="translate(276.037 50.094)" fill="#fff"/>
        <path id="패스_5070" data-name="패스 5070" d="M393.066,93.537a1.916,1.916,0,0,1-.9-.223L387.192,90.7a.318.318,0,0,0-.3,0l-4.978,2.617a1.921,1.921,0,0,1-2.788-2.024l.952-5.543a.318.318,0,0,0-.092-.281l-4.028-3.925a1.921,1.921,0,0,1,1.065-3.278l5.565-.809a.323.323,0,0,0,.241-.173l2.488-5.046a1.923,1.923,0,0,1,3.445,0l2.488,5.046a.326.326,0,0,0,.241.173l5.566.809a1.921,1.921,0,0,1,1.065,3.278L394.1,85.466a.318.318,0,0,0-.092.281l.952,5.543a1.924,1.924,0,0,1-1.892,2.247m-6.022-20.769a.306.306,0,0,0-.286.18l-2.488,5.041a1.916,1.916,0,0,1-1.447,1.051l-5.565.809a.32.32,0,0,0-.176.544l4.028,3.925a1.92,1.92,0,0,1,.551,1.7l-.95,5.543a.306.306,0,0,0,.127.312.3.3,0,0,0,.335.024l4.978-2.615a1.911,1.911,0,0,1,1.789,0l4.978,2.615a.3.3,0,0,0,.335-.024.306.306,0,0,0,.127-.312l-.95-5.543a1.92,1.92,0,0,1,.551-1.7l4.028-3.925a.32.32,0,0,0-.176-.544l-5.565-.809a1.916,1.916,0,0,1-1.447-1.051l-2.488-5.041a.306.306,0,0,0-.286-.18" transform="translate(279.123 52.918)" fill="#fff"/>
      </g>
    </g>
  </g>
</svg>
