<svg xmlns="http://www.w3.org/2000/svg" xmlns:xlink="http://www.w3.org/1999/xlink" width="154" height="154" viewBox="0 0 154 154">
  <defs>
    <clipPath id="clip-path">
      <rect id="사각형_1714" data-name="사각형 1714" width="127.43" height="56.153" fill="none"/>
    </clipPath>
  </defs>
  <g id="그룹_1437" data-name="그룹 1437" transform="translate(-509 -958)">
    <rect id="사각형_1553" data-name="사각형 1553" width="154" height="154" rx="25" transform="translate(509 958)" fill="#006"/>
    <g id="그룹_1433" data-name="그룹 1433" transform="translate(522 1010)">
      <g id="그룹_1432" data-name="그룹 1432" transform="translate(0 0)" clip-path="url(#clip-path)">
        <path id="패스_4818" data-name="패스 4818" d="M124.693,16.454a10.152,10.152,0,0,0-7.389,2.591,7.564,7.564,0,0,0-2.023,2.98,22.476,22.476,0,0,0-.69,5.208,4.814,4.814,0,0,1-1.078,3.186,4.374,4.374,0,0,1-3.113.908h-.412v9.593h1.26a14.316,14.316,0,0,0,7.22-1.5q4.8-2.882,5.426-9.884a4.7,4.7,0,0,1,.909-2.822A3.709,3.709,0,0,1,127.43,26V16.454ZM109.871,27.961a12.2,12.2,0,0,0-12.4-12.38A12.4,12.4,0,0,0,88.4,19.239,12.129,12.129,0,0,0,84.7,28.2a12.057,12.057,0,0,0,3.658,8.94A12.361,12.361,0,0,0,97.4,40.751a12.674,12.674,0,0,0,8.019-2.834l-5.161-6.2a3.607,3.607,0,0,1-2.615,1.356,3.166,3.166,0,0,1-2.7-1.453,6.439,6.439,0,0,1-1.03-3.8,6.047,6.047,0,0,1,1.066-3.694,3.286,3.286,0,0,1,2.762-1.442,2.848,2.848,0,0,1,3.028,2.689h-4.6a6.72,6.72,0,0,0-.435,2.374,6.64,6.64,0,0,0,.315,1.913h13.735q.1-1.163.1-1.7m-27.9-1.551q0-4.918-2.157-7.485a8.974,8.974,0,0,0-7.267-3.295q-3.562,0-7.122,3.392A9.716,9.716,0,0,0,58.2,15.63a8.869,8.869,0,0,0-6.638,2.846,9.611,9.611,0,0,0-2.737,6.916V40.267h9.06V27.258q0-2.689,1.5-2.689a1.206,1.206,0,0,1,1.151.581,4.631,4.631,0,0,1,.328,2.083V40.267H69.93V27.258q0-2.689,1.526-2.689a1.179,1.179,0,0,1,1.138.581,4.79,4.79,0,0,1,.315,2.083V40.267h9.061ZM37.315,24.3A5.625,5.625,0,0,1,37.3,32.02a5.1,5.1,0,0,1-7.413,0,5.624,5.624,0,0,1-.018-7.723,5.18,5.18,0,0,1,7.449,0M24.608,19.228a11.95,11.95,0,0,0-3.731,8.927,12.074,12.074,0,0,0,3.731,8.9A12.31,12.31,0,0,0,33.6,40.751a12.292,12.292,0,0,0,8.976-3.682,12.081,12.081,0,0,0,3.719-8.915A12.12,12.12,0,0,0,42.62,19.3a11.973,11.973,0,0,0-8.806-3.694,12.706,12.706,0,0,0-9.206,3.622m-14.3-12.6A4.117,4.117,0,0,0,8.963,9.694a4.094,4.094,0,0,0,1.272,3.1,4.532,4.532,0,0,0,3.258,1.211A4.535,4.535,0,0,0,16.752,12.8a4.1,4.1,0,0,0,1.271-3.1A4.117,4.117,0,0,0,16.679,6.63a4.562,4.562,0,0,0-6.371,0M9.23,41.3q0,7.922-5.378,7.921A9.485,9.485,0,0,1,0,48.154v8.551a14.762,14.762,0,0,0,4.651.873,12.861,12.861,0,0,0,10.611-4.8Q18.29,49,18.291,42.606V16.115H9.23Z" transform="translate(0 -1.425)" fill="#fff"/>
      </g>
    </g>
  </g>
</svg>
