<svg xmlns="http://www.w3.org/2000/svg" xmlns:xlink="http://www.w3.org/1999/xlink" width="146" height="147" viewBox="0 0 146 147">
  <defs>
    <clipPath id="clip-path">
      <rect id="사각형_1323" data-name="사각형 1323" width="107.773" height="67.79" fill="none" stroke="#fff" stroke-width="3"/>
    </clipPath>
  </defs>
  <g id="그룹_1185" data-name="그룹 1185" transform="translate(-525 -730)">
    <rect id="사각형_942" data-name="사각형 942" width="146" height="147" rx="25" transform="translate(525 730)" fill="#06c"/>
    <g id="그룹_1156" data-name="그룹 1156" transform="translate(544.613 776.105)">
      <g id="그룹_1155" data-name="그룹 1155" clip-path="url(#clip-path)">
        <path id="패스_3786" data-name="패스 3786" d="M351.3,9.694l-7.64,2.314a3.124,3.124,0,0,0-2.049,3.778l8.522,31.856a3.125,3.125,0,0,0,3.957,2.173l7.719-2.272a3.125,3.125,0,0,0,2.078-3.794l-8.6-31.9A3.125,3.125,0,0,0,351.3,9.694Z" transform="translate(-257.858 -7.202)" fill="none" stroke="#fff" stroke-linecap="round" stroke-linejoin="round" stroke-width="3"/>
        <path id="패스_3787" data-name="패스 3787" d="M178.751,45.055a18.952,18.952,0,0,1-2.755.927,3.235,3.235,0,0,1-3.308-1.144c-1.151-1.452-3.111-3.906-5.385-6.684-13.046-15.936-21.172-19.7-31.28-18.224-4.418.646-6.228,2.138-10.283,3.732-3.954,1.555-10.883,1.512-11.065-3-.117-2.9,5.489-5.536,11.82-9.614,9.51-6.126,15.014-4.793,23.455-2.2,9.485,2.913,16.02,5.063,20.667,5.8" transform="translate(-86.586 -5.034)" fill="none" stroke="#fff" stroke-linecap="round" stroke-linejoin="round" stroke-width="3"/>
        <path id="패스_3788" data-name="패스 3788" d="M207.253,182.3c9.323,4.34,11.937-1.441,11.937-1.441s6.452-.377,7.6-6.5c3.945.348,8.748-2.5,8.568-6.885,5.535.1,10.653-5.871,6.056-11.01" transform="translate(-156.489 -118.142)" fill="none" stroke="#fff" stroke-linecap="round" stroke-linejoin="round" stroke-width="3"/>
        <path id="패스_3789" data-name="패스 3789" d="M63.757,164.53s2.507,1.928,5.072,3.587" transform="translate(-48.14 -124.23)" fill="none" stroke="#fff" stroke-linecap="round" stroke-linejoin="round" stroke-width="3"/>
        <path id="패스_3790" data-name="패스 3790" d="M105.833,39.125c-4.59-.785-8.45-1.57-8.45-1.57" transform="translate(-73.53 -28.356)" fill="none" stroke="#fff" stroke-linecap="round" stroke-linejoin="round" stroke-width="3"/>
        <path id="패스_3791" data-name="패스 3791" d="M96.607,198.279a1.5,1.5,0,0,0-1.177-.635,6.615,6.615,0,0,1-4.416-1.543,6.5,6.5,0,0,1-1.469-2.238,1.654,1.654,0,0,0-2.028-.952c-2.8.759-5.756-1.815-5.95-4.783a1.385,1.385,0,0,0-1.257-1.315c-4.107-.282-6.4-5.039-3.791-7.581,1.559-1.519,5.746-.946,7,2.006a1.115,1.115,0,0,0,1.566.549c2.5-1.353,5.34.183,6.234,2.829a1.294,1.294,0,0,0,1.393.847c4.125-.473,5.937,2.022,6.3,5.421a1.637,1.637,0,0,0,1.6,1.445c2.718-.068,4.471,1.284,4.754,2.816a5.214,5.214,0,0,0,2.344,3.731C108.228,200.507,99.728,202.672,96.607,198.279Z" transform="translate(-56.939 -134.716)" fill="none" stroke="#fff" stroke-linecap="round" stroke-linejoin="round" stroke-width="3"/>
        <path id="패스_3792" data-name="패스 3792" d="M19.362,9.694,27,12.008a3.124,3.124,0,0,1,2.049,3.778L20.529,47.642a3.125,3.125,0,0,1-3.957,2.173L8.853,47.542a3.125,3.125,0,0,1-2.078-3.794l8.6-31.9A3.125,3.125,0,0,1,19.362,9.694Z" transform="translate(-5.034 -7.202)" fill="none" stroke="#fff" stroke-linecap="round" stroke-linejoin="round" stroke-width="3"/>
        <line id="선_311" data-name="선 311" x1="7.993" y1="9.035" transform="translate(70.876 40.3)" fill="none" stroke="#fff" stroke-linecap="round" stroke-linejoin="round" stroke-width="3"/>
        <line id="선_312" data-name="선 312" x1="6.402" y1="7.266" transform="translate(63.898 48.955)" fill="none" stroke="#fff" stroke-linecap="round" stroke-linejoin="round" stroke-width="3"/>
        <line id="선_313" data-name="선 313" x1="4.806" y1="5.685" transform="translate(57.895 57.033)" fill="none" stroke="#fff" stroke-linecap="round" stroke-linejoin="round" stroke-width="3"/>
      </g>
    </g>
  </g>
</svg>
