<svg xmlns="http://www.w3.org/2000/svg" xmlns:xlink="http://www.w3.org/1999/xlink" width="30" height="30" viewBox="0 0 30 30">
  <defs>
    <clipPath id="clip-path">
      <rect id="사각형_1370" data-name="사각형 1370" width="19.245" height="22.121" fill="none" stroke="#fff" stroke-width="0.6"/>
    </clipPath>
  </defs>
  <g id="그룹_1463" data-name="그룹 1463" transform="translate(-509 -480)">
    <rect id="사각형_937" data-name="사각형 937" width="30" height="30" rx="5" transform="translate(509 480)" fill="#006"/>
    <g id="그룹_1196" data-name="그룹 1196" transform="translate(515.264 483.3)" clip-path="url(#clip-path)">
      <path id="패스_3831" data-name="패스 3831" d="M17.591,18.9v5.069a.921.921,0,0,1-.922.922H1.922A.921.921,0,0,1,1,23.973V6.922A.921.921,0,0,1,1.922,6H3.765" transform="translate(-0.539 -3.235)" fill="none" stroke="#fff" stroke-miterlimit="10" stroke-width="0.6"/>
      <path id="패스_3832" data-name="패스 3832" d="M31,6h1.843a.921.921,0,0,1,.922.922v6.913" transform="translate(-16.714 -3.235)" fill="none" stroke="#fff" stroke-miterlimit="10" stroke-width="0.6"/>
      <path id="패스_3833" data-name="패스 3833" d="M17.9,22.9v2.3H5V10h.922" transform="translate(-2.696 -5.392)" fill="none" stroke="#fff" stroke-miterlimit="10" stroke-width="0.6"/>
      <path id="패스_3834" data-name="패스 3834" d="M31,10h.922v7.834" transform="translate(-16.714 -5.392)" fill="none" stroke="#fff" stroke-miterlimit="10" stroke-width="0.6"/>
      <path id="패스_3835" data-name="패스 3835" d="M16.834,2.843H15.452a1.843,1.843,0,0,0-3.687,0H10.383A1.382,1.382,0,0,0,9,4.226V5.608h9.217V4.226A1.382,1.382,0,0,0,16.834,2.843Z" transform="translate(-4.852 -0.539)" fill="none" stroke="#fff" stroke-miterlimit="10" stroke-width="0.6"/>
      <line id="선_358" data-name="선 358" y2="1" transform="translate(8.736 2.218)" fill="none" stroke="#fff" stroke-miterlimit="10" stroke-width="0.6"/>
      <path id="패스_3836" data-name="패스 3836" d="M32.374,24,27.3,29.933l-2.3-2.3" transform="translate(-13.479 -12.94)" fill="none" stroke="#fff" stroke-linejoin="round" stroke-width="0.6"/>
      <line id="선_359" data-name="선 359" x2="1" transform="translate(4.736 8.217)" fill="none" stroke="#fff" stroke-linejoin="round" stroke-width="0.6"/>
      <line id="선_360" data-name="선 360" x2="6" transform="translate(6.736 8.217)" fill="none" stroke="#fff" stroke-linejoin="round" stroke-width="0.6"/>
      <line id="선_361" data-name="선 361" x2="1" transform="translate(4.736 10.217)" fill="none" stroke="#fff" stroke-linejoin="round" stroke-width="0.6"/>
      <line id="선_362" data-name="선 362" x2="6" transform="translate(6.736 10.217)" fill="none" stroke="#fff" stroke-linejoin="round" stroke-width="0.6"/>
      <line id="선_363" data-name="선 363" x2="1" transform="translate(4.736 12.217)" fill="none" stroke="#fff" stroke-linejoin="round" stroke-width="0.6"/>
      <line id="선_364" data-name="선 364" x2="6" transform="translate(6.736 12.217)" fill="none" stroke="#fff" stroke-linejoin="round" stroke-width="0.6"/>
    </g>
  </g>
</svg>
