<svg xmlns="http://www.w3.org/2000/svg" xmlns:xlink="http://www.w3.org/1999/xlink" width="146" height="147" viewBox="0 0 146 147">
  <defs>
    <clipPath id="clip-path">
      <rect id="사각형_1201" data-name="사각형 1201" width="79" height="98" transform="translate(0 0.414)" fill="none" stroke="#fff" stroke-width="3"/>
    </clipPath>
  </defs>
  <g id="그룹_1182" data-name="그룹 1182" transform="translate(-525 -473)">
    <rect id="사각형_937" data-name="사각형 937" width="146" height="147" rx="25" transform="translate(525 473)" fill="#06c"/>
    <g id="그룹_1013" data-name="그룹 1013" transform="translate(559.063 497.845)">
      <g id="그룹_1012" data-name="그룹 1012" transform="translate(-0.063 -0.259)" clip-path="url(#clip-path)">
        <path id="패스_3590" data-name="패스 3590" d="M.5,86.221V8.664A8.4,8.4,0,0,1,9.121.5H65.16a8.4,8.4,0,0,1,8.621,8.164V78.057H9.121" transform="translate(1.715 1.772)" fill="none" stroke="#fff" stroke-linecap="round" stroke-linejoin="round" stroke-width="3"/>
        <path id="패스_3591" data-name="패스 3591" d="M9.121,19.5h64.66c-8.621,4.082-8.621,12.246,0,16.328H9.121A8.4,8.4,0,0,1,.5,27.664,8.4,8.4,0,0,1,9.121,19.5Z" transform="translate(1.715 60.329)" fill="none" stroke="#fff" stroke-linecap="round" stroke-linejoin="round" stroke-width="3"/>
        <path id="패스_3592" data-name="패스 3592" d="M34.364,45.4,21.432,33.155,8.5,45.4V.5H34.364Z" transform="translate(28.2 1.772)" fill="none" stroke="#fff" stroke-linecap="round" stroke-linejoin="round" stroke-width="3"/>
      </g>
    </g>
  </g>
</svg>
