<svg xmlns="http://www.w3.org/2000/svg" xmlns:xlink="http://www.w3.org/1999/xlink" width="30" height="30" viewBox="0 0 30 30">
  <defs>
    <clipPath id="clip-path">
      <rect id="사각형_1371" data-name="사각형 1371" width="21" height="21" transform="translate(-0.098 0.078)" fill="none" stroke="#fff" stroke-width="0.6"/>
    </clipPath>
  </defs>
  <g id="그룹_1454" data-name="그룹 1454" transform="translate(15910 10838)">
    <rect id="사각형_1718" data-name="사각형 1718" width="30" height="30" rx="5" transform="translate(-15910 -10838)" fill="#006"/>
    <g id="그룹_1437" data-name="그룹 1437" transform="translate(-15905.152 -10834.078)">
      <g id="그룹_1204" data-name="그룹 1204" transform="translate(0 0)" clip-path="url(#clip-path)">
        <path id="패스_3858" data-name="패스 3858" d="M1,47.23C2.054,47.23,2.406,46,3.46,46s1.406,1.23,2.46,1.23S7.326,46,8.38,46s1.406,1.23,2.46,1.23S12.245,46,13.3,46s1.406,1.23,2.46,1.23S17.165,46,18.219,46s1.406,1.23,2.46,1.23" transform="translate(-0.586 -27.001)" fill="none" stroke="#fff" stroke-linecap="round" stroke-linejoin="round" stroke-width="0.6"/>
        <path id="패스_3859" data-name="패스 3859" d="M1,42.23C2.054,42.23,2.406,41,3.46,41s1.406,1.23,2.46,1.23S7.326,41,8.38,41s1.406,1.23,2.46,1.23S12.245,41,13.3,41s1.406,1.23,2.46,1.23S17.165,41,18.219,41s1.406,1.23,2.46,1.23" transform="translate(-0.586 -24.051)" fill="none" stroke="#fff" stroke-linecap="round" stroke-linejoin="round" stroke-width="0.6"/>
        <path id="패스_3860" data-name="패스 3860" d="M2.083,37.612,1,34H20.679l-2.46,2.87" transform="translate(-0.586 -19.921)" fill="none" stroke="#fff" stroke-linecap="round" stroke-linejoin="round" stroke-width="0.6"/>
        <path id="패스_3861" data-name="패스 3861" d="M12.92,12.89V1L8,12.89Z" transform="translate(-4.716 -0.45)" fill="none" stroke="#fff" stroke-linecap="round" stroke-linejoin="round" stroke-width="0.6"/>
        <path id="패스_3862" data-name="패스 3862" d="M23,1s7.79,3.895,7.79,11.89H23C25.819,7.3,23,1,23,1Z" transform="translate(-13.566 -0.45)" fill="none" stroke="#fff" stroke-linecap="round" stroke-linejoin="round" stroke-width="0.6"/>
      </g>
    </g>
  </g>
</svg>
