<svg xmlns="http://www.w3.org/2000/svg" width="18.635" height="17.83" viewBox="0 0 18.635 17.83">
  <g id="그룹_322" data-name="그룹 322" transform="translate(-568.5 -1534)">
    <g id="그룹_317" data-name="그룹 317" transform="translate(8533.66 862.437)">
      <path id="패스_2204" data-name="패스 2204" d="M289,90.116l-5.812,2.78,1.088-6.352-4.44-4.668,6.376-.928,3.069-5.665,2.853,5.777,6.337,1.167-4.613,4.5.849,6.387Z" transform="translate(-8245 596.281)" fill="#fee044"/>
      <path id="패스_2205" data-name="패스 2205" d="M279.841,87.137l9.317,3.139-4.877,1.529Z" transform="translate(-8245 591.019)" fill="#ffb71a"/>
      <path id="패스_2206" data-name="패스 2206" d="M294.246,85.015l-2.94-4.068,3.068-5.665Z" transform="translate(-8250.089 596.281)" fill="#ffb71a"/>
      <path id="패스_2207" data-name="패스 2207" d="M296.593,85.015l2.98-3.956-2.853-5.777Z" transform="translate(-8252.436 596.281)" fill="#ff9a00"/>
      <path id="패스_2208" data-name="패스 2208" d="M296.593,90.556l9.318-2.789-4.613,4.5Z" transform="translate(-8252.436 590.739)" fill="#ffb71a"/>
      <path id="패스_2209" data-name="패스 2209" d="M291.832,92.782l-5.966,7.881,5.813-2.78Z" transform="translate(-8247.675 588.514)" fill="#ff9a00"/>
      <path id="패스_2210" data-name="패스 2210" d="M296.471,92.782l5.553,8.1-5.706-3Z" transform="translate(-8252.313 588.514)" fill="#ffb71a"/>
    </g>
  </g>
</svg>
