<svg xmlns="http://www.w3.org/2000/svg" xmlns:xlink="http://www.w3.org/1999/xlink" width="29.442" height="29.547" viewBox="0 0 29.442 29.547">
  <defs>
    <clipPath id="clip-path">
      <rect id="사각형_769" data-name="사각형 769" width="29.442" height="29.547" fill="#fff"/>
    </clipPath>
  </defs>
  <g id="그룹_647" data-name="그룹 647" transform="translate(0 0)">
    <g id="그룹_646" data-name="그룹 646" transform="translate(0 0)" clip-path="url(#clip-path)">
      <path id="패스_2737" data-name="패스 2737" d="M31.837,14.361a.935.935,0,0,0-.859-.382H26.83V.464A.47.47,0,0,0,26.354,0H19.684a.47.47,0,0,0-.476.464V13.979H15.042a.935.935,0,0,0-.858.382,1.02,1.02,0,0,0,.088,1.024.453.453,0,0,0,.057.073l7.5,7.684a1.752,1.752,0,0,0,1.174.529h.011a1.753,1.753,0,0,0,1.174-.529l7.5-7.684a.432.432,0,0,0,.057-.073,1.022,1.022,0,0,0,.088-1.024" transform="translate(-7.905 0)" fill="#fff"/>
      <path id="패스_2738" data-name="패스 2738" d="M27.874,63.115H5.02c-1.5,0-5.451.653-4.983-1.913.213-1.168,1.248-1.126,2.219-1.155,4.834-.144,9.671-.124,14.506-.08,2.419.022,4.837.05,7.256.066,1.461.01,4.975-.783,5.392,1.251a1.554,1.554,0,0,1-1.538,1.831" transform="translate(0 -33.643)" fill="#fff"/>
    </g>
  </g>
</svg>
