<svg xmlns="http://www.w3.org/2000/svg" xmlns:xlink="http://www.w3.org/1999/xlink" width="254.723" height="259.446" viewBox="0 0 254.723 259.446">
  <defs>
    <clipPath id="clip-path">
      <rect id="사각형_1710" data-name="사각형 1710" width="254.723" height="259.446" fill="#39f"/>
    </clipPath>
  </defs>
  <g id="그룹_1427" data-name="그룹 1427" transform="translate(0 0)">
    <g id="그룹_1426" data-name="그룹 1426" transform="translate(0 0)" clip-path="url(#clip-path)">
      <path id="패스_4780" data-name="패스 4780" d="M225.519,115.435a110.778,110.778,0,1,0-221.556,0c0,62.239,49.622,110.732,110.732,110.732,60.544,0,110.824-49.244,110.824-110.732" transform="translate(12.66 14.728)" fill="#06c" fill-rule="evenodd"/>
      <path id="패스_4781" data-name="패스 4781" d="M80.182,18.492c2.726-1.133,5.365-2.164,8.1-3.108C65.4-5.236,34.038-4.766,14.65,14.629-4.376,33.656-5.219,64.07,14.172,86.851c.478-1.317,1.036-2.634,1.51-3.859a121.824,121.824,0,0,1,64.5-64.5" transform="translate(0.001 -0.001)" fill="#39f" fill-rule="evenodd"/>
      <path id="패스_4782" data-name="패스 4782" d="M113.3,14.629c-19.391-19.4-50.75-19.865-73.627.755,2.731.944,5.457,1.976,8.1,3.108a118.894,118.894,0,0,1,38.51,25.985,119,119,0,0,1,25.994,38.514c.562,1.225,1.028,2.542,1.6,3.859,19.3-22.781,18.456-53.2-.57-72.222" transform="translate(126.754 -0.001)" fill="#39f" fill-rule="evenodd"/>
      <path id="패스_4783" data-name="패스 4783" d="M158.051,179.243a92.245,92.245,0,0,1-11.2,7.064,94.31,94.31,0,0,1-89.168,0,86.693,86.693,0,0,1-11.3-7.064,94.447,94.447,0,1,1,111.672,0" transform="translate(25.138 27.848)" fill="#39f" fill-rule="evenodd"/>
      <path id="패스_4784" data-name="패스 4784" d="M8.925,87.669H34.91L45.736,68.458l-17.8-14.685Z" transform="translate(28.51 171.777)" fill="#39f" fill-rule="evenodd"/>
      <path id="패스_4785" data-name="패스 4785" d="M79.1,87.669H53.108L42.282,68.458l17.8-14.685Z" transform="translate(135.071 171.777)" fill="#39f" fill-rule="evenodd"/>
      <path id="패스_4786" data-name="패스 4786" d="M153.741,35.786a83.99,83.99,0,0,0-118.731,0,83.768,83.768,0,0,0,0,118.739,84,84,0,0,0,118.731,0,83.99,83.99,0,0,0,0-118.739" transform="translate(33.025 35.809)" fill="#fff" fill-rule="evenodd"/>
      <path id="패스_4787" data-name="패스 4787" d="M62.785,49.252h0l-.193-.092v-.1L33.872,21.475h-.092a4.194,4.194,0,0,0-2.915-1.128,5.06,5.06,0,0,0-2.924,1.225l-2.915,3.1A4.379,4.379,0,0,0,23.9,27.6a4.009,4.009,0,0,0,1.317,2.919L51.673,55.841,52.9,99.821a4.06,4.06,0,0,0,4.232,4.048l4.144-.1h.193a4.212,4.212,0,0,0,3.855-4.237L64,52.171a3.976,3.976,0,0,0-1.216-2.919" transform="translate(76.34 64.997)" fill="#39f" fill-rule="evenodd"/>
      <path id="패스_4788" data-name="패스 4788" d="M62.785,49.252h0l-.193-.092v-.1L33.872,21.475h-.092a4.194,4.194,0,0,0-2.915-1.128,5.06,5.06,0,0,0-2.924,1.225l-2.915,3.1A4.379,4.379,0,0,0,23.9,27.6a4.009,4.009,0,0,0,1.317,2.919L51.673,55.841,52.9,99.821a4.06,4.06,0,0,0,4.232,4.048l4.144-.1h.193a4.212,4.212,0,0,0,3.855-4.237L64,52.171A3.976,3.976,0,0,0,62.785,49.252Z" transform="translate(76.34 64.997)" fill="#06c"/>
    </g>
  </g>
</svg>
