<svg xmlns="http://www.w3.org/2000/svg" width="31.196" height="31.198" viewBox="0 0 31.196 31.198">
  <g id="그룹_1116" data-name="그룹 1116" transform="translate(0.365 0.365)">
    <g id="그룹_1117" data-name="그룹 1117">
      <path id="패스_3679" data-name="패스 3679" d="M5.673,9.857,3.429,6.122,6.122,3.43,9.856,5.674V5.68a9.979,9.979,0,0,1,2.285-.952L13.194.5H17l1.054,4.228a9.979,9.979,0,0,1,2.285.952V5.674L24.074,3.43l2.692,2.692L24.522,9.857h-.005a10.118,10.118,0,0,1,.952,2.285L29.7,13.2V17l-4.227,1.054a10.142,10.142,0,0,1-.952,2.285h.005l2.244,3.735-2.692,2.692L20.34,24.524v-.006a9.979,9.979,0,0,1-2.285.952L17,29.7H13.194L12.14,25.469a9.979,9.979,0,0,1-2.285-.952v.006L6.122,26.768,3.429,24.075l2.244-3.735h.006a10.142,10.142,0,0,1-.952-2.285L.5,17V13.2L4.727,12.14a10.118,10.118,0,0,1,.952-2.285Z" transform="translate(0.135 0.135)" fill="none" stroke="#000161" stroke-linecap="round" stroke-linejoin="round" stroke-width="2"/>
      <circle id="타원_166" data-name="타원 166" cx="6.5" cy="6.5" r="6.5" transform="translate(8.466 8.466)" fill="none" stroke="#000161" stroke-linecap="round" stroke-linejoin="round" stroke-width="2"/>
    </g>
  </g>
</svg>
