<svg xmlns="http://www.w3.org/2000/svg" xmlns:xlink="http://www.w3.org/1999/xlink" width="31.668" height="28.023" viewBox="0 0 31.668 28.023">
  <defs>
    <clipPath id="clip-path">
      <rect id="사각형_457" data-name="사각형 457" width="31.668" height="28.023" fill="#ffeb00"/>
    </clipPath>
  </defs>
  <g id="그룹_284" data-name="그룹 284" clip-path="url(#clip-path)">
    <path id="패스_1896" data-name="패스 1896" d="M.645,26.942a2.565,2.565,0,0,0,3.565.6l9.114-7.3a1.944,1.944,0,0,0,.235-.225,11.191,11.191,0,1,0-3.3-4.187,2.179,2.179,0,0,0-.309.2L.838,23.327a2.571,2.571,0,0,0-.193,3.615M15.4,4.886a8.094,8.094,0,1,1-1.256,11.375A8.093,8.093,0,0,1,15.4,4.886m10.39,7.193L27.64,11s-.7-4.554-3.869-5.765L22.487,6.585s3.307,3.068,3.307,5.493" transform="translate(0 0)" fill="#ffeb00"/>
  </g>
</svg>
