<svg xmlns="http://www.w3.org/2000/svg" width="14.913" height="14.804" viewBox="0 0 14.913 14.804">
  <g id="그룹_319" data-name="그룹 319" transform="translate(-1372 -371.445)">
    <path id="패스_1866" data-name="패스 1866" d="M4.087,7.527V5.73q0-2.377,0-4.755A.952.952,0,0,1,4.965.006.968.968,0,0,1,6.015.774a1.437,1.437,0,0,1,.017.272q0,3.183,0,6.366v.1c.044-.035.075-.055.1-.081.473-.45.943-.9,1.419-1.351a1.01,1.01,0,0,1,1.168-.17.9.9,0,0,1,.2,1.484c-.589.571-1.186,1.134-1.779,1.7L5.759,10.414a.971.971,0,0,1-1.379.007Q2.8,8.921,1.222,7.415a.9.9,0,0,1-.1-1.288.982.982,0,0,1,1.356-.119c.376.322.724.678,1.084,1.02l.524.5" transform="translate(1374.643 371.445)" fill="#ffeb00" fill-rule="evenodd"/>
    <path id="패스_1867" data-name="패스 1867" d="M1371.519,12475.834v3.6h13.913v-3.6" transform="translate(0.98 -12093.688)" fill="none" stroke="#fbeb4e" stroke-linecap="round" stroke-width="1"/>
  </g>
</svg>
