<svg xmlns="http://www.w3.org/2000/svg" width="25.161" height="29.496" viewBox="0 0 25.161 29.496">
  <g id="그룹_1225" data-name="그룹 1225" transform="translate(0 0)">
    <g id="그룹_1082" data-name="그룹 1082" transform="translate(0 0)">
      <path id="패스_3635" data-name="패스 3635" d="M26.184,47.426A4.725,4.725,0,1,1,21.459,42.7a4.725,4.725,0,0,1,4.725,4.725" transform="translate(-8.878 -22.655)" fill="#f66"/>
      <path id="패스_3637" data-name="패스 3637" d="M26.561,6.7H22.927V3.067a1.817,1.817,0,0,1,3.634,0Z" transform="translate(-12.164 -0.663)" fill="#06c"/>
      <path id="패스_3638" data-name="패스 3638" d="M25.9,6.625H22.264a.587.587,0,0,1-.587-.587V2.4a2.4,2.4,0,0,1,4.808,0V6.038a.587.587,0,0,1-.587.587M22.851,5.451h2.461V2.4a1.23,1.23,0,0,0-2.461,0Z" transform="translate(-11.501 0)" fill="#06c"/>
      <path id="패스_3639" data-name="패스 3639" d="M25.416,29.368l-.137-.243c-2.118-3.753-3.065-5.508-2.323-9.774a8.737,8.737,0,0,0,.107-2.105,8.441,8.441,0,0,0-7.87-7.857A8.379,8.379,0,0,0,6.5,17.862a8.7,8.7,0,0,0,.073,1.124c.575,4.417-.083,6.267-2.26,10.125l-.145.256Z" transform="translate(-2.211 -4.976)" fill="#06c"/>
      <path id="패스_3640" data-name="패스 3640" d="M24.752,29.292H3.5a.587.587,0,0,1-.511-.875l.145-.256c2.178-3.86,2.729-5.609,2.19-9.761a9.4,9.4,0,0,1-.077-1.2,9.2,9.2,0,0,1,2.824-6.634,8.712,8.712,0,0,1,6.483-2.426,9.071,9.071,0,0,1,8.427,8.4,9.374,9.374,0,0,1-.114,2.246c-.716,4.118.215,5.769,2.256,9.385l.137.243a.587.587,0,0,1-.511.876M4.505,28.118H23.748c-1.876-3.344-2.776-5.261-2.034-9.531a8.189,8.189,0,0,0,.1-1.964A7.882,7.882,0,0,0,14.5,9.311a7.53,7.53,0,0,0-5.617,2.1A8.018,8.018,0,0,0,6.424,17.2a8.262,8.262,0,0,0,.068,1.05c.549,4.221.021,6.217-1.986,9.869" transform="translate(-1.548 -4.313)" fill="#06c"/>
      <path id="패스_3641" data-name="패스 3641" d="M23.795,50.585H2.692A1.442,1.442,0,0,1,1.25,49.143v-.386a1.442,1.442,0,0,1,1.442-1.443h21.1a1.442,1.442,0,0,1,1.442,1.443v.386a1.442,1.442,0,0,1-1.442,1.442" transform="translate(-0.663 -25.102)" fill="#06c"/>
      <path id="패스_3642" data-name="패스 3642" d="M23.132,50.51H2.029A2.032,2.032,0,0,1,0,48.48v-.386a2.031,2.031,0,0,1,2.029-2.029h21.1a2.031,2.031,0,0,1,2.029,2.029v.386a2.032,2.032,0,0,1-2.029,2.029m-21.1-3.271a.856.856,0,0,0-.855.855v.386a.857.857,0,0,0,.855.856h21.1a.857.857,0,0,0,.855-.856v-.386a.856.856,0,0,0-.855-.855Z" transform="translate(0 -24.44)" fill="#06c"/>
    </g>
  </g>
</svg>
