<svg id="그룹_1188" data-name="그룹 1188" xmlns="http://www.w3.org/2000/svg" width="25.161" height="29.496" viewBox="0 0 25.161 29.496">
  <path id="패스_3635" data-name="패스 3635" d="M26.184,47.426A4.725,4.725,0,1,1,21.459,42.7a4.725,4.725,0,0,1,4.725,4.725" transform="translate(-8.878 -22.655)" fill="#ed6f6b"/>
  <path id="패스_3638" data-name="패스 3638" d="M25.9,6.625H22.264a.587.587,0,0,1-.587-.587V2.4a2.4,2.4,0,0,1,4.808,0V6.038a.587.587,0,0,1-.587.587M22.851,5.451h2.461V2.4a1.23,1.23,0,0,0-2.461,0Z" transform="translate(-11.501)" fill="#ffe780"/>
  <path id="패스_3639" data-name="패스 3639" d="M25.416,29.368l-.137-.243c-2.118-3.753-3.065-5.508-2.323-9.774a8.737,8.737,0,0,0,.107-2.105,8.441,8.441,0,0,0-7.87-7.857A8.379,8.379,0,0,0,6.5,17.862a8.7,8.7,0,0,0,.073,1.124c.575,4.417-.083,6.267-2.26,10.125l-.145.256Z" transform="translate(-2.211 -4.976)" fill="#ffe780"/>
  <path id="패스_3642" data-name="패스 3642" d="M23.132,50.51H2.029A2.032,2.032,0,0,1,0,48.48v-.386a2.031,2.031,0,0,1,2.029-2.029h21.1a2.031,2.031,0,0,1,2.029,2.029v.386a2.032,2.032,0,0,1-2.029,2.029m-21.1-3.271a.856.856,0,0,0-.855.855v.386a.857.857,0,0,0,.855.856h21.1a.857.857,0,0,0,.855-.856v-.386a.856.856,0,0,0-.855-.855Z" transform="translate(0 -24.439)" fill="#ffe780"/>
</svg>
