<svg xmlns="http://www.w3.org/2000/svg" xmlns:xlink="http://www.w3.org/1999/xlink" width="19.628" height="20.27" viewBox="0 0 19.628 20.27">
  <defs>
    <clipPath id="clip-path">
      <rect id="사각형_424" data-name="사각형 424" width="20.27" height="19.628" fill="#ccc"/>
    </clipPath>
  </defs>
  <g id="그룹_273" data-name="그룹 273" transform="translate(19.628) rotate(90)">
    <g id="그룹_272" data-name="그룹 272" transform="translate(0 0)" clip-path="url(#clip-path)">
      <path id="패스_1868" data-name="패스 1868" d="M20.109,10.621a2.087,2.087,0,0,0,.073-.234c.015-.053.035-.1.047-.158a2.083,2.083,0,0,0,0-.828c-.011-.055-.031-.105-.047-.158a2.171,2.171,0,0,0-.073-.235c-.027-.065-.065-.125-.1-.186a1.937,1.937,0,0,0-.1-.174,2.053,2.053,0,0,0-.262-.321L11.945.617A2.105,2.105,0,1,0,8.969,3.595l4.115,4.114H2.105a2.105,2.105,0,0,0,0,4.21H13.082L8.969,16.034a2.105,2.105,0,0,0,2.977,2.978L19.652,11.3a2.115,2.115,0,0,0,.264-.322c.038-.056.063-.115.094-.172a2.1,2.1,0,0,0,.1-.19" transform="translate(0 0)" fill="#ccc"/>
    </g>
  </g>
</svg>
