<svg id="레이어_1" data-name="레이어 1" xmlns="http://www.w3.org/2000/svg" xmlns:xlink="http://www.w3.org/1999/xlink" width="106.92" height="98" viewBox="0 0 106.92 98">
  <defs>
    <clipPath id="clip-path">
      <rect id="사각형_2" data-name="사각형 2" width="106.92" height="98" fill="none"/>
    </clipPath>
    <clipPath id="clip-path-2">
      <rect id="사각형_1" data-name="사각형 1" width="107.25" height="98" transform="translate(-0.19)" fill="none"/>
    </clipPath>
  </defs>
  <g id="그룹_3" data-name="그룹 3" clip-path="url(#clip-path)">
    <g id="그룹_2" data-name="그룹 2">
      <g id="그룹_1" data-name="그룹 1" clip-path="url(#clip-path-2)">
        <path id="패스_1" data-name="패스 1" d="M97.92,58.98a2.589,2.589,0,0,1-4.42.74l-5.12-6.23A35.031,35.031,0,0,1,68.87,80.76a31.051,31.051,0,0,1-14.03,3.19,35.637,35.637,0,0,1-24.12-9.06A34.385,34.385,0,0,1,19.64,52.65l4.92-.82-6.02-7.31-5.12-6.23A2.585,2.585,0,0,0,9,39.03L7.4,43.31,2.85,55.45l5.72-.95A45.859,45.859,0,0,0,29.71,88.21a44.96,44.96,0,0,0,24.36,6.96h.26A45.762,45.762,0,0,0,99.54,54.7l-1.61,4.28Z" fill="#b1d8a5"/>
        <path id="패스_2" data-name="패스 2" d="M98.36,43.51A45.888,45.888,0,0,0,77.22,9.8,44.96,44.96,0,0,0,52.86,2.84H52.6A45.761,45.761,0,0,0,7.39,43.31l1.6-4.28a2.584,2.584,0,0,1,4.42-.73l5.12,6.23A35.031,35.031,0,0,1,38.04,17.26a31.051,31.051,0,0,1,14.03-3.19,35.637,35.637,0,0,1,24.12,9.06A34.385,34.385,0,0,1,87.27,45.37l-4.92.82,6.02,7.31,5.12,6.23a2.585,2.585,0,0,0,4.42-.74l1.61-4.28,4.55-12.14-5.72.95Z" fill="#b1d8a5"/>
        <path id="패스_3" data-name="패스 3" d="M13.69,38.94l-.27-.33A2.587,2.587,0,0,0,9,39.34L7.4,43.62,2.85,55.76l5.72-.95c.04.36.1.71.15,1.06l2.98-7.95a46.25,46.25,0,0,1,2-8.99" fill="#fff"/>
        <path id="패스_4" data-name="패스 4" d="M13.42,38.61l.27.33A45.691,45.691,0,0,1,56.9,7.46h.26a44.96,44.96,0,0,1,24.36,6.96,49.685,49.685,0,0,1,5.84,4.42,48.365,48.365,0,0,0-10.13-8.72A44.96,44.96,0,0,0,52.87,3.16h-.26A45.761,45.761,0,0,0,7.4,43.63l1.61-4.28a2.589,2.589,0,0,1,4.42-.74" fill="#fff"/>
        <path id="패스_5" data-name="패스 5" d="M61.17,64.72a4.231,4.231,0,0,1-4.23-4.23V45.51H41.96a4.23,4.23,0,0,1,0-8.46H61.17a4.231,4.231,0,0,1,4.23,4.23V60.49a4.231,4.231,0,0,1-4.23,4.23" fill="#fff"/>
        <path id="패스_6" data-name="패스 6" d="M97.92,58.98a2.589,2.589,0,0,1-4.42.74l-5.12-6.23A35.031,35.031,0,0,1,68.87,80.76a31.051,31.051,0,0,1-14.03,3.19,35.637,35.637,0,0,1-24.12-9.06A34.385,34.385,0,0,1,19.64,52.65l4.92-.82-6.02-7.31-5.12-6.23A2.585,2.585,0,0,0,9,39.03L7.4,43.31,2.85,55.45l5.72-.95A45.859,45.859,0,0,0,29.71,88.21a44.96,44.96,0,0,0,24.36,6.96h.26A45.762,45.762,0,0,0,99.54,54.7l-1.61,4.28Z" fill="none" stroke="#204e29" stroke-linecap="round" stroke-linejoin="round" stroke-width="3"/>
        <path id="패스_7" data-name="패스 7" d="M98.36,43.51A45.888,45.888,0,0,0,77.22,9.8,44.96,44.96,0,0,0,52.86,2.84H52.6A45.761,45.761,0,0,0,7.39,43.31l1.6-4.28a2.584,2.584,0,0,1,4.42-.73l5.12,6.23A35.031,35.031,0,0,1,38.04,17.26a31.051,31.051,0,0,1,14.03-3.19,35.637,35.637,0,0,1,24.12,9.06A34.385,34.385,0,0,1,87.27,45.37l-4.92.82,6.02,7.31,5.12,6.23a2.585,2.585,0,0,0,4.42-.74l1.61-4.28,4.55-12.14-5.72.95Z" fill="none" stroke="#204e29" stroke-linecap="round" stroke-linejoin="round" stroke-width="3"/>
      </g>
    </g>
  </g>
</svg>
