<svg id="그룹_782" data-name="그룹 782" xmlns="http://www.w3.org/2000/svg" width="50.015" height="50.015" viewBox="0 0 50.015 50.015">
  <rect id="사각형_991" data-name="사각형 991" width="2.383" height="2.381" transform="translate(0 19.054)" fill="#fff"/>
  <rect id="사각형_992" data-name="사각형 992" width="2.383" height="4.764" transform="translate(0 23.816)" fill="#fff"/>
  <rect id="사각형_993" data-name="사각형 993" width="2.383" height="2.383" transform="translate(2.383 21.435)" fill="#fff"/>
  <rect id="사각형_994" data-name="사각형 994" width="2.383" height="2.383" transform="translate(2.383 26.197)" fill="#fff"/>
  <rect id="사각형_995" data-name="사각형 995" width="2.379" height="2.383" transform="translate(4.766 21.435)" fill="#fff"/>
  <rect id="사각형_996" data-name="사각형 996" width="2.379" height="2.381" transform="translate(4.766 28.58)" fill="#fff"/>
  <rect id="사각형_997" data-name="사각형 997" width="2.381" height="4.764" transform="translate(7.145 19.054)" fill="#fff"/>
  <rect id="사각형_998" data-name="사각형 998" width="2.381" height="2.383" transform="translate(7.145 26.197)" fill="#fff"/>
  <rect id="사각형_999" data-name="사각형 999" width="2.381" height="7.143" transform="translate(9.526 19.054)" fill="#fff"/>
  <rect id="사각형_1000" data-name="사각형 1000" width="2.385" height="7.143" transform="translate(11.907 19.054)" fill="#fff"/>
  <rect id="사각형_1001" data-name="사각형 1001" width="2.385" height="2.381" transform="translate(11.907 28.58)" fill="#fff"/>
  <rect id="사각형_1002" data-name="사각형 1002" width="2.379" height="2.381" transform="translate(14.292 19.054)" fill="#fff"/>
  <rect id="사각형_1003" data-name="사각형 1003" width="2.379" height="2.379" transform="translate(14.292 23.818)" fill="#fff"/>
  <rect id="사각형_1004" data-name="사각형 1004" width="2.379" height="2.381" transform="translate(14.292 28.58)" fill="#fff"/>
  <rect id="사각형_1005" data-name="사각형 1005" width="2.383" height="9.526" transform="translate(16.671 19.054)" fill="#fff"/>
  <rect id="사각형_1006" data-name="사각형 1006" width="2.381" height="7.145" transform="translate(19.054)" fill="#fff"/>
  <rect id="사각형_1007" data-name="사각형 1007" width="2.381" height="2.379" transform="translate(19.054 9.528)" fill="#fff"/>
  <rect id="사각형_1008" data-name="사각형 1008" width="2.381" height="2.381" transform="translate(19.054 14.29)" fill="#fff"/>
  <rect id="사각형_1009" data-name="사각형 1009" width="2.381" height="2.381" transform="translate(19.054 19.054)" fill="#fff"/>
  <rect id="사각형_1010" data-name="사각형 1010" width="2.381" height="2.383" transform="translate(19.054 26.197)" fill="#fff"/>
  <rect id="사각형_1011" data-name="사각형 1011" width="2.381" height="11.909" transform="translate(19.054 30.961)" fill="#fff"/>
  <rect id="사각형_1012" data-name="사각형 1012" width="2.381" height="2.381" transform="translate(19.054 47.634)" fill="#fff"/>
  <rect id="사각형_1013" data-name="사각형 1013" width="2.383" height="4.764" transform="translate(21.435 2.381)" fill="#fff"/>
  <rect id="사각형_1014" data-name="사각형 1014" width="2.383" height="2.379" transform="translate(21.435 9.528)" fill="#fff"/>
  <rect id="사각형_1015" data-name="사각형 1015" width="2.383" height="2.383" transform="translate(21.435 16.671)" fill="#fff"/>
  <rect id="사각형_1016" data-name="사각형 1016" width="2.383" height="4.762" transform="translate(21.435 21.435)" fill="#fff"/>
  <rect id="사각형_1017" data-name="사각형 1017" width="2.383" height="4.764" transform="translate(21.435 30.961)" fill="#fff"/>
  <rect id="사각형_1018" data-name="사각형 1018" width="2.376" height="2.381" transform="translate(23.818)" fill="#fff"/>
  <rect id="사각형_1019" data-name="사각형 1019" width="2.377" height="2.379" transform="translate(23.818 9.528)" fill="#fff"/>
  <rect id="사각형_1020" data-name="사각형 1020" width="2.377" height="7.145" transform="translate(23.818 14.29)" fill="#fff"/>
  <rect id="사각형_1021" data-name="사각형 1021" width="2.377" height="2.381" transform="translate(23.818 33.344)" fill="#fff"/>
  <rect id="사각형_1022" data-name="사각형 1022" width="2.377" height="4.762" transform="translate(23.818 38.108)" fill="#fff"/>
  <rect id="사각형_1023" data-name="사각형 1023" width="2.376" height="4.762" transform="translate(23.818 45.253)" fill="#fff"/>
  <rect id="사각형_1024" data-name="사각형 1024" width="2.385" height="7.147" transform="translate(26.195 2.381)" fill="#fff"/>
  <rect id="사각형_1025" data-name="사각형 1025" width="2.385" height="2.383" transform="translate(26.195 11.907)" fill="#fff"/>
  <rect id="사각형_1026" data-name="사각형 1026" width="2.385" height="2.383" transform="translate(26.195 16.671)" fill="#fff"/>
  <rect id="사각형_1027" data-name="사각형 1027" width="2.385" height="2.383" transform="translate(26.195 26.197)" fill="#fff"/>
  <rect id="사각형_1028" data-name="사각형 1028" width="2.385" height="2.383" transform="translate(26.195 30.961)" fill="#fff"/>
  <rect id="사각형_1029" data-name="사각형 1029" width="2.385" height="7.145" transform="translate(26.195 35.725)" fill="#fff"/>
  <rect id="사각형_1030" data-name="사각형 1030" width="2.386" height="2.381" transform="translate(26.195 47.634)" fill="#fff"/>
  <rect id="사각형_1031" data-name="사각형 1031" width="2.381" height="4.762" transform="translate(28.58)" fill="#fff"/>
  <rect id="사각형_1032" data-name="사각형 1032" width="2.381" height="14.29" transform="translate(28.58 9.528)" fill="#fff"/>
  <rect id="사각형_1033" data-name="사각형 1033" width="2.381" height="11.909" transform="translate(28.58 30.961)" fill="#fff"/>
  <rect id="사각형_1034" data-name="사각형 1034" width="2.383" height="2.381" transform="translate(30.961 19.054)" fill="#fff"/>
  <rect id="사각형_1035" data-name="사각형 1035" width="2.383" height="2.379" transform="translate(30.961 23.818)" fill="#fff"/>
  <rect id="사각형_1036" data-name="사각형 1036" width="2.383" height="4.764" transform="translate(30.961 33.344)" fill="#fff"/>
  <rect id="사각형_1037" data-name="사각형 1037" width="2.383" height="2.381" transform="translate(30.961 45.253)" fill="#fff"/>
  <rect id="사각형_1038" data-name="사각형 1038" width="2.381" height="4.762" transform="translate(33.344 21.435)" fill="#fff"/>
  <rect id="사각형_1039" data-name="사각형 1039" width="2.381" height="2.381" transform="translate(33.344 28.58)" fill="#fff"/>
  <rect id="사각형_1040" data-name="사각형 1040" width="2.381" height="2.381" transform="translate(33.344 33.344)" fill="#fff"/>
  <rect id="사각형_1041" data-name="사각형 1041" width="2.381" height="2.379" transform="translate(33.344 38.108)" fill="#fff"/>
  <rect id="사각형_1042" data-name="사각형 1042" width="2.381" height="4.764" transform="translate(33.344 42.87)" fill="#fff"/>
  <rect id="사각형_1043" data-name="사각형 1043" width="2.383" height="9.526" transform="translate(35.725 30.961)" fill="#fff"/>
  <rect id="사각형_1044" data-name="사각형 1044" width="2.383" height="7.143" transform="translate(38.108 19.054)" fill="#fff"/>
  <rect id="사각형_1045" data-name="사각형 1045" width="2.383" height="4.764" transform="translate(38.108 33.344)" fill="#fff"/>
  <rect id="사각형_1046" data-name="사각형 1046" width="2.383" height="2.383" transform="translate(38.108 40.487)" fill="#fff"/>
  <rect id="사각형_1047" data-name="사각형 1047" width="2.383" height="2.381" transform="translate(38.108 45.253)" fill="#fff"/>
  <rect id="사각형_1048" data-name="사각형 1048" width="2.377" height="2.379" transform="translate(40.49 23.818)" fill="#fff"/>
  <rect id="사각형_1049" data-name="사각형 1049" width="2.377" height="11.907" transform="translate(40.49 28.58)" fill="#fff"/>
  <rect id="사각형_1050" data-name="사각형 1050" width="2.383" height="4.764" transform="translate(42.868 19.054)" fill="#fff"/>
  <rect id="사각형_1051" data-name="사각형 1051" width="2.383" height="2.383" transform="translate(42.868 26.197)" fill="#fff"/>
  <rect id="사각형_1052" data-name="사각형 1052" width="2.383" height="7.147" transform="translate(42.868 30.961)" fill="#fff"/>
  <rect id="사각형_1053" data-name="사각형 1053" width="2.383" height="9.528" transform="translate(42.868 40.487)" fill="#fff"/>
  <rect id="사각형_1054" data-name="사각형 1054" width="2.383" height="7.143" transform="translate(45.251 19.054)" fill="#fff"/>
  <rect id="사각형_1055" data-name="사각형 1055" width="2.383" height="2.383" transform="translate(45.251 30.961)" fill="#fff"/>
  <rect id="사각형_1056" data-name="사각형 1056" width="2.383" height="2.379" transform="translate(45.251 38.108)" fill="#fff"/>
  <rect id="사각형_1057" data-name="사각형 1057" width="2.383" height="4.764" transform="translate(45.251 42.87)" fill="#fff"/>
  <rect id="사각형_1058" data-name="사각형 1058" width="7.143" height="7.145" transform="translate(38.108 4.762)" fill="#fff"/>
  <path id="패스_3145" data-name="패스 3145" d="M21.048,2.381H32.957V14.29H21.048Zm-2.381,14.29H35.338V0H18.667Z" transform="translate(14.677)" fill="#fff"/>
  <rect id="사각형_1059" data-name="사각형 1059" width="2.381" height="2.381" transform="translate(47.634 19.054)" fill="#fff"/>
  <rect id="사각형_1060" data-name="사각형 1060" width="2.381" height="7.145" transform="translate(47.634 23.816)" fill="#fff"/>
  <rect id="사각형_1061" data-name="사각형 1061" width="2.381" height="4.762" transform="translate(47.634 35.725)" fill="#fff"/>
  <rect id="사각형_1062" data-name="사각형 1062" width="2.381" height="4.764" transform="translate(47.634 42.87)" fill="#fff"/>
  <rect id="사각형_1063" data-name="사각형 1063" width="7.141" height="7.145" transform="translate(4.766 4.762)" fill="#fff"/>
  <path id="패스_3146" data-name="패스 3146" d="M2.383,2.381H14.292V14.29H2.383ZM0,16.671H16.671V0H0Z" fill="#fff"/>
  <rect id="사각형_1064" data-name="사각형 1064" width="7.141" height="7.145" transform="translate(4.766 38.108)" fill="#fff"/>
  <path id="패스_3147" data-name="패스 3147" d="M2.383,21.048H14.292V32.957H2.383ZM0,35.338H16.671V18.667H0Z" transform="translate(0 14.677)" fill="#fff"/>
</svg>
