<svg id="레이어_1" data-name="레이어 1" xmlns="http://www.w3.org/2000/svg" xmlns:xlink="http://www.w3.org/1999/xlink" width="106.92" height="98" viewBox="0 0 106.92 98">
  <defs>
    <clipPath id="clip-path">
      <rect id="사각형_2" data-name="사각형 2" width="106.92" height="98" fill="none"/>
    </clipPath>
    <clipPath id="clip-path-2">
      <rect id="사각형_1" data-name="사각형 1" width="107" height="98" fill="none"/>
    </clipPath>
  </defs>
  <g id="그룹_3" data-name="그룹 3" clip-path="url(#clip-path)">
    <g id="그룹_2" data-name="그룹 2">
      <g id="그룹_1" data-name="그룹 1" clip-path="url(#clip-path-2)">
        <path id="패스_1" data-name="패스 1" d="M97.92,58.98a2.589,2.589,0,0,1-4.42.74l-5.12-6.23A35.031,35.031,0,0,1,68.87,80.76a31.051,31.051,0,0,1-14.03,3.19,35.637,35.637,0,0,1-24.12-9.06A34.385,34.385,0,0,1,19.64,52.65l4.92-.82-6.02-7.31-5.12-6.23A2.587,2.587,0,0,0,9,39.02L7.4,43.3,2.85,55.44l5.72-.95A45.859,45.859,0,0,0,29.71,88.2a44.96,44.96,0,0,0,24.36,6.96h.26A45.761,45.761,0,0,0,99.54,54.69l-1.61,4.28Z" fill="#9dacd8"/>
        <path id="패스_2" data-name="패스 2" d="M98.36,43.51A45.859,45.859,0,0,0,77.22,9.8,44.96,44.96,0,0,0,52.86,2.84H52.6A45.761,45.761,0,0,0,7.39,43.31L9,39.03a2.584,2.584,0,0,1,4.42-.73l5.12,6.23A35.031,35.031,0,0,1,38.05,17.26a31.051,31.051,0,0,1,14.03-3.19A35.637,35.637,0,0,1,76.2,23.13,34.385,34.385,0,0,1,87.28,45.37l-4.92.82,6.02,7.32,5.12,6.23A2.585,2.585,0,0,0,97.92,59l1.61-4.28,4.55-12.14-5.72.95Z" fill="#9dacd8"/>
        <path id="패스_3" data-name="패스 3" d="M13.69,38.61l-.27-.33A2.587,2.587,0,0,0,9,39.01L7.39,43.29,2.84,55.43l5.72-.95c.04.36.1.71.15,1.06l2.98-7.95a46.25,46.25,0,0,1,2-8.99" fill="#fff"/>
        <path id="패스_4" data-name="패스 4" d="M13.42,38.29l.27.33A45.691,45.691,0,0,1,56.9,7.14h.26A44.96,44.96,0,0,1,81.52,14.1a49.685,49.685,0,0,1,5.84,4.42A48.074,48.074,0,0,0,77.23,9.8,44.96,44.96,0,0,0,52.87,2.84h-.26A45.761,45.761,0,0,0,7.4,43.31l1.61-4.28a2.589,2.589,0,0,1,4.42-.74" fill="#fff"/>
        <path id="패스_5" data-name="패스 5" d="M97.92,58.98a2.589,2.589,0,0,1-4.42.74l-5.12-6.23A35.031,35.031,0,0,1,68.87,80.76a31.051,31.051,0,0,1-14.03,3.19,35.637,35.637,0,0,1-24.12-9.06A34.385,34.385,0,0,1,19.64,52.65l4.92-.82-6.02-7.31-5.12-6.23A2.587,2.587,0,0,0,9,39.02L7.4,43.3,2.85,55.44l5.72-.95A45.859,45.859,0,0,0,29.71,88.2a44.96,44.96,0,0,0,24.36,6.96h.26A45.761,45.761,0,0,0,99.54,54.69l-1.61,4.28Z" fill="none" stroke="#1d2a5a" stroke-linecap="round" stroke-linejoin="round" stroke-width="3"/>
        <path id="패스_6" data-name="패스 6" d="M98.36,43.51A45.859,45.859,0,0,0,77.22,9.8,44.96,44.96,0,0,0,52.86,2.84H52.6A45.761,45.761,0,0,0,7.39,43.31L9,39.03a2.584,2.584,0,0,1,4.42-.73l5.12,6.23A35.031,35.031,0,0,1,38.05,17.26a31.051,31.051,0,0,1,14.03-3.19A35.637,35.637,0,0,1,76.2,23.13,34.385,34.385,0,0,1,87.28,45.37l-4.92.82,6.02,7.32,5.12,6.23A2.585,2.585,0,0,0,97.92,59l1.61-4.28,4.55-12.14-5.72.95Z" fill="none" stroke="#1d2a5a" stroke-linecap="round" stroke-linejoin="round" stroke-width="3"/>
        <path id="패스_7" data-name="패스 7" d="M56.92,51.01h-7.1l3.56-8.36,3.55,8.36ZM53.51,32.98a5.1,5.1,0,0,0-4.65,3.03L38.55,59.37a3.561,3.561,0,1,0,6.54,2.82l1.84-4.35h12.9l1.84,4.35a3.567,3.567,0,0,0,3.28,2.18h.14a3.566,3.566,0,0,0,3.27-4.99L58.17,36.03a5.088,5.088,0,0,0-4.65-3.05" fill="#fff"/>
      </g>
    </g>
  </g>
</svg>
