<svg xmlns="http://www.w3.org/2000/svg" width="3.06" height="12.12" viewBox="0 0 3.06 12.12">
  <path id="패스_1" data-name="패스 1" d="M3.16-10.56a1.485,1.485,0,0,1-1.09-.45,1.439,1.439,0,0,1-.45-1.05,1.461,1.461,0,0,1,.45-1.07,1.485,1.485,0,0,1,1.09-.45,1.452,1.452,0,0,1,1.08.45,1.478,1.478,0,0,1,.44,1.07,1.455,1.455,0,0,1-.44,1.05A1.452,1.452,0,0,1,3.16-10.56Zm0,9.1a1.485,1.485,0,0,1-1.09-.45,1.461,1.461,0,0,1-.45-1.07,1.439,1.439,0,0,1,.45-1.05,1.485,1.485,0,0,1,1.09-.45,1.452,1.452,0,0,1,1.08.45,1.455,1.455,0,0,1,.44,1.05,1.478,1.478,0,0,1-.44,1.07A1.452,1.452,0,0,1,3.16-1.46Z" transform="translate(-1.62 13.58)"/>
</svg>
