<svg xmlns="http://www.w3.org/2000/svg" width="27.704" height="27.164" viewBox="0 0 27.704 27.164">
  <g id="그룹_319" data-name="그룹 319" transform="translate(-1371.25 -371.446)">
    <path id="패스_1866" data-name="패스 1866" d="M6.678,13.635V10.38q0-4.307,0-8.614A1.725,1.725,0,0,1,8.27.01a1.753,1.753,0,0,1,1.9,1.392,2.6,2.6,0,0,1,.031.492q0,5.766,0,11.532V13.6c.079-.063.135-.1.182-.146.857-.815,1.708-1.638,2.571-2.447a1.83,1.83,0,0,1,2.115-.308,1.634,1.634,0,0,1,.365,2.688c-1.067,1.034-2.148,2.054-3.222,3.08l-2.507,2.4a1.76,1.76,0,0,1-2.5.013q-2.867-2.717-5.72-5.445A1.621,1.621,0,0,1,1.308,11.1a1.779,1.779,0,0,1,2.457-.215c.682.584,1.311,1.229,1.963,1.847l.95.9" transform="translate(1393.984 390.838) rotate(180)" fill="#ffeb00" fill-rule="evenodd"/>
    <path id="패스_1867" data-name="패스 1867" d="M1371.519,12475.833v6.527h25.2v-6.527" transform="translate(0.98 -12085)" fill="none" stroke="#fbeb4e" stroke-linecap="round" stroke-width="2.5"/>
  </g>
</svg>
