<svg xmlns="http://www.w3.org/2000/svg" xmlns:xlink="http://www.w3.org/1999/xlink" width="30.333" height="32.347" viewBox="0 0 30.333 32.347">
  <defs>
    <clipPath id="clip-path">
      <rect id="사각형_874" data-name="사각형 874" width="30.333" height="32.347" fill="none"/>
    </clipPath>
  </defs>
  <g id="그룹_733" data-name="그룹 733" transform="translate(0 0)">
    <g id="그룹_732" data-name="그룹 732" transform="translate(0 0)" clip-path="url(#clip-path)">
      <path id="패스_2950" data-name="패스 2950" d="M23.152,31.577H2A1.233,1.233,0,0,1,.77,30.345V7.156H6.606a.384.384,0,0,0,.385-.385v-6H23.739A1.233,1.233,0,0,1,24.971,2V7.734a.385.385,0,1,0,.77,0V2a2,2,0,0,0-2-2H6.606a.385.385,0,0,0-.274.115v0L.114,6.5l0,0,0,0a.353.353,0,0,0-.025.04.388.388,0,0,0-.055.082A.4.4,0,0,0,0,6.772V30.345a2,2,0,0,0,2,2h21.15a.385.385,0,1,0,0-.77M1.3,6.387,6.221,1.331V6.387Z" transform="translate(0 0)" fill="#fff"/>
      <path id="패스_2951" data-name="패스 2951" d="M36.375,25.912a.586.586,0,0,0-.532-.335h-2.1V14.236a.591.591,0,0,0-.59-.59H29.715a.59.59,0,0,0-.59.59V25.577H27.072a.59.59,0,0,0-.463.957l4.365,5.506a.59.59,0,0,0,.922,0l4.407-5.5a.585.585,0,0,0,.072-.624m-4.938,5.472-3.994-5.037H29.3a.591.591,0,0,0,.59-.59V14.416h3.081V25.756a.591.591,0,0,0,.59.59h1.9Z" transform="translate(-6.102 -3.144)" fill="#fff"/>
      <path id="패스_2952" data-name="패스 2952" d="M21.073,13.646H8.328a.385.385,0,0,0,0,.77H21.073a.385.385,0,0,0,0-.77" transform="translate(-1.83 -3.144)" fill="#fff"/>
      <path id="패스_2953" data-name="패스 2953" d="M21.073,20.178H8.328a.385.385,0,0,0,0,.77H21.073a.385.385,0,0,0,0-.77" transform="translate(-1.83 -4.65)" fill="#fff"/>
      <path id="패스_2954" data-name="패스 2954" d="M21.458,27.094a.385.385,0,0,0-.385-.385H8.328a.385.385,0,1,0,0,.77H21.073a.385.385,0,0,0,.385-.385" transform="translate(-1.83 -6.154)" fill="#fff"/>
      <path id="패스_2955" data-name="패스 2955" d="M8.329,32.787a.385.385,0,0,0,0,.77h9.516a.385.385,0,1,0,0-.77Z" transform="translate(-1.83 -7.555)" fill="#fff"/>
    </g>
  </g>
</svg>
