<svg xmlns="http://www.w3.org/2000/svg" xmlns:xlink="http://www.w3.org/1999/xlink" width="34.207" height="29.437" viewBox="0 0 34.207 29.437">
  <defs>
    <clipPath id="clip-path">
      <rect id="사각형_872" data-name="사각형 872" width="34.207" height="29.437" fill="none"/>
    </clipPath>
  </defs>
  <g id="그룹_731" data-name="그룹 731" transform="translate(-1639 -843)">
    <g id="그룹_730" data-name="그룹 730" transform="translate(1639 843)">
      <g id="그룹_729" data-name="그룹 729" transform="translate(0 0)" clip-path="url(#clip-path)">
        <path id="패스_2946" data-name="패스 2946" d="M24.754,24.066a.614.614,0,0,0-.567.182c-.8.815-1.615,1.621-2.424,2.431h0l-.43.456v-.063h0V18.992c0-.062,0-.125,0-.187a.447.447,0,0,0-.32-.383c-.275-.045-.458.033-.539.249a.792.792,0,0,0-.033.271c0,3.531,0,4.408,0,7.937v.255c-.089-.084-.139-.128-.186-.175L17.492,24.2a.543.543,0,0,0-.589-.1.453.453,0,0,0-.068.706q1.862,1.862,3.727,3.721a.572.572,0,0,0,.286.124.522.522,0,0,0,.46-.219q1.77-1.769,3.538-3.54A1.072,1.072,0,0,0,25,24.71a.43.43,0,0,0-.242-.644" transform="translate(-3.774 -4.162)" fill="#fff"/>
        <path id="패스_2947" data-name="패스 2947" d="M24.754,24.066a.614.614,0,0,0-.567.182c-.8.815-1.615,1.621-2.424,2.431h0l-.43.456v-.063h0V18.992c0-.062,0-.125,0-.187a.447.447,0,0,0-.32-.383c-.275-.045-.458.033-.539.249a.792.792,0,0,0-.033.271c0,3.531,0,4.408,0,7.937v.255c-.089-.084-.139-.128-.186-.175L17.492,24.2a.543.543,0,0,0-.589-.1.453.453,0,0,0-.068.706q1.862,1.862,3.727,3.721a.572.572,0,0,0,.286.124.522.522,0,0,0,.46-.219q1.77-1.769,3.538-3.54A1.072,1.072,0,0,0,25,24.71.43.43,0,0,0,24.754,24.066Z" transform="translate(-3.774 -4.162)" fill="none" stroke="#fff" stroke-miterlimit="10" stroke-width="0.25"/>
        <path id="패스_2948" data-name="패스 2948" d="M33.805,10.671a1.324,1.324,0,0,0-.991-.446H31.76V7.169A2.586,2.586,0,0,0,29.1,4.509H18.812c-2.382,0-3.271-2.462-3.318-2.593C14.635-.01,12.147.123,12.06.129H5.75a3.2,3.2,0,0,0-2.439.917A3.426,3.426,0,0,0,2.488,3.39v6.835H1.45A1.325,1.325,0,0,0,.139,11.74l2.21,15.174a2.884,2.884,0,0,0,2.838,2.455H29.471a2.871,2.871,0,0,0,2.848-2.528l1.81-15.134a1.326,1.326,0,0,0-.324-1.036M3.143,3.37a2.811,2.811,0,0,1,.65-1.88A2.577,2.577,0,0,1,5.75.784h6.33c.019,0,2.142-.109,2.806,1.375.01.029,1.073,3.007,3.927,3.007H29.1a1.975,1.975,0,0,1,2.008,2v3.056H3.143ZM31.668,26.763a2.214,2.214,0,0,1-2.2,1.95H5.187A2.224,2.224,0,0,1,3,26.82L.787,11.646a.67.67,0,0,1,.662-.765H32.815a.668.668,0,0,1,.664.748Z" transform="translate(-0.028 -0.028)" fill="#fff"/>
        <path id="패스_2949" data-name="패스 2949" d="M33.805,10.671a1.324,1.324,0,0,0-.991-.446H31.76V7.169A2.586,2.586,0,0,0,29.1,4.509H18.812c-2.382,0-3.271-2.462-3.318-2.593C14.635-.01,12.147.123,12.06.129H5.75a3.2,3.2,0,0,0-2.439.917A3.426,3.426,0,0,0,2.488,3.39v6.835H1.45A1.325,1.325,0,0,0,.139,11.74l2.21,15.174a2.884,2.884,0,0,0,2.838,2.455H29.471a2.871,2.871,0,0,0,2.848-2.528l1.81-15.134A1.326,1.326,0,0,0,33.805,10.671ZM3.143,3.37a2.811,2.811,0,0,1,.65-1.88A2.577,2.577,0,0,1,5.75.784h6.33c.019,0,2.142-.109,2.806,1.375.01.029,1.073,3.007,3.927,3.007H29.1a1.975,1.975,0,0,1,2.008,2v3.056H3.143ZM31.668,26.763a2.214,2.214,0,0,1-2.2,1.95H5.187A2.224,2.224,0,0,1,3,26.82L.787,11.646a.67.67,0,0,1,.662-.765H32.815a.668.668,0,0,1,.664.748Z" transform="translate(-0.028 -0.028)" fill="none" stroke="#fff" stroke-miterlimit="10" stroke-width="0.25"/>
      </g>
    </g>
  </g>
</svg>
