<?xml version="1.0" encoding="utf-8"?>
<!-- Generator: Adobe Illustrator 28.0.0, SVG Export Plug-In . SVG Version: 6.00 Build 0)  -->
<svg version="1.1" id="Layer_1" xmlns="http://www.w3.org/2000/svg" xmlns:xlink="http://www.w3.org/1999/xlink" x="0px" y="0px"
	 viewBox="0 0 89.3 68.8" style="enable-background:new 0 0 89.3 68.8;" xml:space="preserve">
<style type="text/css">
	.st0{fill:#00855B;}
	.st1{fill:#1E1E1C;}
</style>
<g>
	<rect x="4.9" y="8.6" class="st0" width="7" height="32.3"/>
	<polygon class="st0" points="19.5,24.3 30.1,8.6 22.2,8.6 11.6,24.4 11.7,24.6 21.3,41.2 29.2,41.2 19.6,24.6 	"/>
	<polygon class="st0" points="30.9,24.6 30.7,24.3 41.4,8.6 33.4,8.6 22.8,24.4 23,24.6 32.5,41.1 19.2,61 27.4,61.1 40.2,41.4 
		40.4,41.1 	"/>
	<polygon class="st0" points="42.1,24.6 42,24.3 52.6,8.6 44.7,8.6 34.1,24.4 34.2,24.6 43.7,41.1 30.4,61 38.6,61 51.5,41.4 
		51.7,41.1 	"/>
	<path class="st0" d="M64.1,8.2c-9.1,0-16.6,7.4-16.6,16.6c0,9.1,7.4,16.6,16.6,16.6c9.1,0,16.6-7.4,16.6-16.6
		C80.7,15.6,73.3,8.2,64.1,8.2z M64.6,34.7c-5.5,0-9.9-4.5-9.9-9.9c0-5.5,4.5-9.9,9.9-9.9c5.5,0,9.9,4.5,9.9,9.9
		C74.5,30.3,70.1,34.7,64.6,34.7z"/>
	<path class="st1" d="M58,45.2h-1.4l-1.5-0.9l-0.2,0.1v0.8h-1.2v-2.5h1.2v1l1.6-1h1.2l-2,1.2L58,45.2z"/>
	<path class="st1" d="M60.9,44.7c-0.1,0.1-0.4,0.2-0.7,0.2c-0.4,0-0.7-0.1-0.8-0.2c-0.1-0.1-0.2-0.4-0.2-0.7V44
		c0-0.3,0.1-0.6,0.2-0.7c0.1-0.1,0.4-0.2,0.8-0.2c0.4,0,0.7,0.1,0.8,0.2c0.1,0.1,0.2,0.4,0.2,0.7v0.1C61.1,44.4,61,44.6,60.9,44.7z
		 M62.3,44c0-0.3-0.2-0.6-0.5-0.9c-0.4-0.2-0.9-0.3-1.6-0.3c-0.7,0-1.2,0.1-1.6,0.3c-0.4,0.2-0.5,0.5-0.5,0.9v0.1
		c0,0.4,0.2,0.7,0.6,0.9c0.4,0.2,0.9,0.3,1.5,0.3c0.6,0,1.1-0.1,1.5-0.3c0.4-0.2,0.6-0.5,0.6-0.9V44z"/>
	<path class="st1" d="M65,43.7c-0.1,0-0.3,0.1-0.6,0.1h-0.3v-0.7h0.4c0.2,0,0.4,0,0.5,0.1c0.1,0,0.2,0.1,0.2,0.2v0.1
		C65.2,43.6,65.1,43.7,65,43.7z M66.2,44.3c-0.2-0.2-0.5-0.3-0.9-0.4c0.4,0,0.6-0.1,0.8-0.1c0.2-0.1,0.3-0.2,0.3-0.3v-0.1
		c0-0.1-0.1-0.3-0.3-0.4c-0.2-0.1-0.6-0.2-1-0.2h-2v2.5h1.2v-1.1h0.3c0.3,0,0.6,0.1,0.7,0.3c0.1,0.2,0.2,0.5,0.2,0.9h1.1
		C66.5,44.8,66.4,44.5,66.2,44.3z"/>
	<path class="st1" d="M70.5,45.2h-3.3v-2.5h3.1v0.4h-2v0.7h1.5v0.4h-1.5v0.7h2.1V45.2z"/>
	<path class="st1" d="M72.3,44.3l0.6-0.9l0.6,0.9H72.3z M73.5,42.8h-1.1l-1.7,2.5h0.9l0.4-0.6h1.7l0.4,0.6h1.2L73.5,42.8z"/>
	<path class="st1" d="M79.7,45.2h-0.5l-2.6-1.5v1.5h-0.8v-2.5h0.6l2.4,1.5v-1.5h0.8V45.2z"/>
	<path class="st1" d="M57,48.5c0,0.3-0.2,0.5-0.5,0.6c-0.4,0.1-0.9,0.2-1.5,0.2c-0.4,0-0.7,0-0.9,0c-0.3,0-0.5,0-0.6-0.1v-0.4
		c0.1,0,0.3,0.1,0.6,0.1c0.3,0,0.5,0,0.8,0c0.4,0,0.6,0,0.8-0.1c0.1,0,0.2-0.1,0.2-0.2c0-0.1-0.1-0.1-0.2-0.2
		c-0.1-0.1-0.4-0.1-0.9-0.2c-0.4-0.1-0.7-0.2-0.9-0.3c-0.2-0.1-0.3-0.3-0.3-0.5c0-0.2,0.2-0.3,0.5-0.5c0.3-0.1,0.8-0.2,1.4-0.2
		c0.3,0,0.5,0,0.8,0c0.2,0,0.4,0,0.5,0.1v0.4c-0.2,0-0.4,0-0.6-0.1c-0.2,0-0.4,0-0.6,0c-0.3,0-0.5,0-0.7,0.1c-0.1,0-0.2,0.1-0.2,0.2
		c0,0.1,0.1,0.2,0.2,0.2c0.1,0,0.4,0.1,0.9,0.2c0.5,0.1,0.8,0.2,1,0.3C56.9,48.1,57,48.3,57,48.5z"/>
	<path class="st1" d="M60.3,48.7c-0.1,0.1-0.4,0.2-0.7,0.2c-0.4,0-0.7-0.1-0.8-0.2c-0.1-0.1-0.2-0.4-0.2-0.7v-0.1
		c0-0.3,0.1-0.6,0.2-0.7c0.1-0.1,0.4-0.2,0.8-0.2c0.4,0,0.7,0.1,0.8,0.2c0.1,0.1,0.2,0.4,0.2,0.7V48C60.5,48.3,60.4,48.5,60.3,48.7z
		 M61.6,47.9c0-0.3-0.2-0.6-0.5-0.9c-0.4-0.2-0.9-0.3-1.6-0.3c-0.7,0-1.2,0.1-1.6,0.3c-0.4,0.2-0.5,0.5-0.5,0.9V48
		c0,0.4,0.2,0.7,0.6,0.9c0.4,0.2,0.9,0.3,1.5,0.3c0.6,0,1.1-0.1,1.5-0.3c0.4-0.2,0.6-0.5,0.6-0.9V47.9z"/>
	<path class="st1" d="M65.6,49.1c-0.1,0-0.2,0-0.4,0.1c-0.2,0-0.5,0-0.7,0c-0.7,0-1.3-0.1-1.7-0.3c-0.4-0.2-0.7-0.5-0.7-0.9v-0.1
		c0-0.4,0.2-0.7,0.7-0.9c0.4-0.2,1-0.3,1.7-0.3c0.3,0,0.5,0,0.7,0c0.2,0,0.3,0,0.5,0.1v0.4c-0.1,0-0.2,0-0.4-0.1c-0.2,0-0.4,0-0.6,0
		c-0.4,0-0.7,0.1-1,0.2c-0.2,0.2-0.4,0.4-0.4,0.6v0c0,0.3,0.1,0.5,0.3,0.7c0.2,0.1,0.5,0.2,0.9,0.2c0.3,0,0.5,0,0.7,0
		c0.2,0,0.3,0,0.4-0.1V49.1z"/>
	<path class="st1" d="M67.7,49.2h-1.2v-2.5h1.2V49.2z"/>
	<path class="st1" d="M72.2,49.2H69v-2.5h3.1v0.4h-2v0.7h1.5v0.4h-1.5v0.7h2.1V49.2z"/>
	<path class="st1" d="M75.9,47.1h-1.1v2.1h-1.2v-2.1h-1.1v-0.4h3.4V47.1z"/>
	<path class="st1" d="M80.5,46.7l-1.7,1.4v1h-1.2v-1l-1.7-1.5h1.3l1.1,1l1.2-1H80.5z"/>
	<path class="st1" d="M56.9,51h-2v0.7h1.5v0.4h-1.5v1.1h-1.2v-2.5h3.1V51z"/>
	<path class="st1" d="M60.1,52.6c-0.1,0.1-0.4,0.2-0.7,0.2c-0.4,0-0.7-0.1-0.8-0.2c-0.1-0.1-0.2-0.4-0.2-0.7v-0.1
		c0-0.3,0.1-0.6,0.2-0.7C58.8,51,59,51,59.4,51c0.4,0,0.7,0.1,0.8,0.2c0.1,0.1,0.2,0.4,0.2,0.7v0.1C60.3,52.3,60.3,52.5,60.1,52.6z
		 M61.5,51.8c0-0.3-0.2-0.6-0.5-0.9c-0.4-0.2-0.9-0.3-1.6-0.3c-0.7,0-1.2,0.1-1.6,0.3c-0.4,0.2-0.5,0.5-0.5,0.9V52
		c0,0.4,0.2,0.7,0.6,0.9c0.4,0.2,0.9,0.3,1.5,0.3c0.6,0,1.1-0.1,1.5-0.3c0.4-0.2,0.6-0.5,0.6-0.9V51.8z"/>
	<path class="st1" d="M64.2,51.6c-0.1,0-0.3,0.1-0.6,0.1h-0.3V51h0.4c0.2,0,0.4,0,0.5,0.1c0.1,0,0.2,0.1,0.2,0.2v0.1
		C64.4,51.5,64.4,51.6,64.2,51.6z M65.4,52.2c-0.2-0.2-0.5-0.3-0.9-0.4c0.4,0,0.6-0.1,0.8-0.1c0.2-0.1,0.3-0.2,0.3-0.3v-0.1
		c0-0.1-0.1-0.3-0.3-0.4c-0.2-0.1-0.6-0.2-1-0.2h-2v2.5h1.2V52h0.3c0.3,0,0.6,0.1,0.7,0.3c0.1,0.2,0.2,0.5,0.2,0.9h1.1
		C65.7,52.7,65.6,52.4,65.4,52.2z"/>
	<path class="st1" d="M72.7,51h-1.1v2.1h-1.2V51h-1.1v-0.4h3.4V51z"/>
	<path class="st1" d="M76.8,53.1h-1.2v-1.1h-1.3v1.1h-1.2v-2.5h1.2v1h1.3v-1h1.2V53.1z"/>
	<path class="st1" d="M81.1,53.1h-3.3v-2.5H81V51h-2v0.7h1.5v0.4H79v0.7h2.1V53.1z"/>
	<path class="st1" d="M57,56.3c0,0.3-0.2,0.5-0.5,0.6c-0.4,0.1-0.9,0.2-1.5,0.2c-0.4,0-0.7,0-0.9,0c-0.3,0-0.5,0-0.6-0.1v-0.4
		c0.1,0,0.3,0.1,0.6,0.1c0.3,0,0.5,0,0.8,0c0.4,0,0.6,0,0.8-0.1c0.1,0,0.2-0.1,0.2-0.2c0-0.1-0.1-0.1-0.2-0.2
		c-0.1-0.1-0.4-0.1-0.9-0.2c-0.4-0.1-0.7-0.2-0.9-0.3c-0.2-0.1-0.3-0.3-0.3-0.5c0-0.2,0.2-0.3,0.5-0.5c0.3-0.1,0.8-0.2,1.4-0.2
		c0.3,0,0.5,0,0.8,0c0.2,0,0.4,0,0.5,0.1v0.4c-0.2,0-0.4,0-0.6-0.1c-0.2,0-0.4,0-0.6,0c-0.3,0-0.5,0-0.7,0.1c-0.1,0-0.2,0.1-0.2,0.2
		c0,0.1,0.1,0.2,0.2,0.2c0.1,0,0.4,0.1,0.9,0.2c0.5,0.1,0.8,0.2,1,0.3C56.9,56,57,56.2,57,56.3z"/>
	<path class="st1" d="M60.6,55h-1.1v2.1h-1.2V55h-1.1v-0.4h3.4V55z"/>
	<path class="st1" d="M64.9,56.4c0,0.2-0.1,0.4-0.4,0.5c-0.3,0.1-0.8,0.2-1.4,0.2c-0.7,0-1.2-0.1-1.4-0.2c-0.3-0.1-0.4-0.3-0.4-0.6
		v-1.7h1.2v1.7c0,0.1,0.1,0.2,0.2,0.3c0.1,0.1,0.3,0.1,0.7,0.1c0.3,0,0.5,0,0.6-0.1c0.1-0.1,0.2-0.2,0.2-0.3v-1.7h0.9V56.4z"/>
	<path class="st1" d="M68.2,56.5c-0.2,0.1-0.4,0.2-0.7,0.2h-0.5V55h0.4c0.3,0,0.6,0.1,0.8,0.2c0.2,0.1,0.3,0.3,0.3,0.6v0.1
		C68.4,56.2,68.4,56.4,68.2,56.5z M69.6,55.8c0-0.4-0.2-0.7-0.5-0.9c-0.3-0.2-0.9-0.3-1.7-0.3h-1.7v2.5h1.9c0.6,0,1.1-0.1,1.5-0.3
		C69.4,56.6,69.6,56.3,69.6,55.8L69.6,55.8z"/>
	<path class="st1" d="M74.4,54.6L72.7,56v1h-1.2v-1l-1.7-1.5h1.3l1.1,1l1.2-1H74.4z"/>
	<path class="st1" d="M80.6,56.6c-0.1,0.1-0.4,0.2-0.7,0.2c-0.4,0-0.7-0.1-0.8-0.2c-0.1-0.1-0.2-0.4-0.2-0.7v-0.1
		c0-0.3,0.1-0.6,0.2-0.7c0.1-0.1,0.4-0.2,0.8-0.2c0.4,0,0.7,0.1,0.8,0.2c0.1,0.1,0.2,0.4,0.2,0.7v0.1C80.8,56.2,80.8,56.4,80.6,56.6
		z M82,55.8c0-0.3-0.2-0.6-0.5-0.9c-0.4-0.2-0.9-0.3-1.6-0.3c-0.7,0-1.2,0.1-1.6,0.3c-0.4,0.2-0.5,0.5-0.5,0.9v0.1
		c0,0.4,0.2,0.7,0.6,0.9c0.4,0.2,0.9,0.3,1.5,0.3c0.6,0,1.1-0.1,1.5-0.3c0.4-0.2,0.6-0.5,0.6-0.9V55.8z"/>
	<path class="st1" d="M85.8,55h-2v0.7h1.5V56h-1.5v1.1h-1.2v-2.5h3.1V55z"/>
	<path class="st1" d="M56.3,60.5c-0.1,0.1-0.4,0.2-0.7,0.2c-0.4,0-0.7-0.1-0.8-0.2c-0.1-0.1-0.2-0.4-0.2-0.7v-0.1
		c0-0.3,0.1-0.6,0.2-0.7c0.1-0.1,0.4-0.2,0.8-0.2c0.4,0,0.7,0.1,0.8,0.2c0.1,0.1,0.2,0.4,0.2,0.7v0.1C56.5,60.1,56.5,60.4,56.3,60.5
		z M57.7,59.7c0-0.3-0.2-0.6-0.5-0.9c-0.4-0.2-0.9-0.3-1.6-0.3c-0.7,0-1.2,0.1-1.6,0.3c-0.4,0.2-0.5,0.5-0.5,0.9v0.1
		c0,0.4,0.2,0.7,0.6,0.9c0.4,0.2,0.9,0.3,1.5,0.3c0.6,0,1.1-0.1,1.5-0.3c0.4-0.2,0.6-0.5,0.6-0.9V59.7z"/>
	<path class="st1" d="M60.4,59.4c-0.1,0-0.3,0.1-0.5,0.1h-0.4v-0.5h0.4c0.2,0,0.4,0,0.5,0.1c0.1,0,0.2,0.1,0.2,0.2
		C60.6,59.3,60.5,59.3,60.4,59.4z M61.7,59.8c-0.2-0.1-0.5-0.2-0.9-0.2c0.3,0,0.5-0.1,0.6-0.2c0.1-0.1,0.2-0.2,0.2-0.3
		c0-0.2-0.1-0.3-0.3-0.4c-0.2-0.1-0.6-0.1-1.1-0.1h-1.8V61h1.8c0.6,0,1-0.1,1.3-0.2c0.3-0.1,0.5-0.3,0.5-0.6
		C62,60,61.9,59.9,61.7,59.8z M60.7,60.6c-0.1,0.1-0.4,0.1-0.7,0.1h-0.5v-0.9h0.4c0.3,0,0.6,0,0.7,0.1c0.2,0.1,0.2,0.2,0.2,0.3
		C60.9,60.4,60.8,60.5,60.7,60.6z"/>
	<path class="st1" d="M66.1,61h-3.3v-2.5H66v0.4h-2v0.7h1.5V60H64v0.7h2.1V61z"/>
	<path class="st1" d="M70,60.3c0,0.3-0.2,0.5-0.5,0.6c-0.4,0.1-0.9,0.2-1.5,0.2c-0.4,0-0.7,0-0.9,0c-0.3,0-0.5,0-0.6-0.1v-0.4
		c0.1,0,0.3,0.1,0.6,0.1c0.3,0,0.5,0,0.8,0c0.4,0,0.6,0,0.8-0.1c0.1,0,0.2-0.1,0.2-0.2c0-0.1-0.1-0.1-0.2-0.2
		c-0.1-0.1-0.4-0.1-0.9-0.2c-0.4-0.1-0.7-0.2-0.9-0.3c-0.2-0.1-0.3-0.3-0.3-0.5c0-0.2,0.2-0.3,0.5-0.5c0.3-0.1,0.8-0.2,1.4-0.2
		c0.3,0,0.5,0,0.8,0c0.2,0,0.4,0,0.5,0.1V59c-0.2,0-0.4,0-0.6-0.1c-0.2,0-0.4,0-0.6,0c-0.3,0-0.5,0-0.7,0.1c-0.1,0-0.2,0.1-0.2,0.2
		c0,0.1,0.1,0.2,0.2,0.2c0.1,0,0.4,0.1,0.9,0.2c0.5,0.1,0.8,0.2,1,0.3C69.9,60,70,60.1,70,60.3z"/>
	<path class="st1" d="M72.1,61h-1.2v-2.5h1.2V61z"/>
	<path class="st1" d="M76.2,58.9h-1.1V61H74v-2.1h-1.1v-0.4h3.4V58.9z"/>
	<path class="st1" d="M80.8,58.6L79.1,60v1H78v-1l-1.7-1.5h1.3l1.1,1l1.2-1H80.8z"/>
</g>
</svg>
