<svg id="그룹_72" data-name="그룹 72" xmlns="http://www.w3.org/2000/svg" xmlns:xlink="http://www.w3.org/1999/xlink" width="55.529" height="53.69" viewBox="0 0 55.529 53.69">
  <defs>
    <clipPath id="clip-path">
      <path id="패스_531" data-name="패스 531" d="M20.065,38.326c-.682,0-1.359-.046-2.035-.113A17.656,17.656,0,0,0,44.005,50.935L55.529,53.69,51.166,43.566a17.671,17.671,0,0,0-10.491-24.99,20.664,20.664,0,0,1-20.611,19.75M18.323,27.289a2.3,2.3,0,0,1-.637-1.679,2.184,2.184,0,0,1,2.3-2.3,2.278,2.278,0,0,1,1.677.642,2.234,2.234,0,0,1,.649,1.656,2.219,2.219,0,0,1-2.326,2.325,2.213,2.213,0,0,1-1.662-.646M13.8,14.534a6.3,6.3,0,0,1,1.7-4.625,6.256,6.256,0,0,1,4.613-1.666A6.812,6.812,0,0,1,24.5,9.509a4.3,4.3,0,0,1,1.575,3.563,4.91,4.91,0,0,1-.316,1.826A5.642,5.642,0,0,1,25,16.263a13.71,13.71,0,0,1-1.224,1.34,12.178,12.178,0,0,0-1.455,1.74,3.158,3.158,0,0,0-.48,1.763H18.266a5.371,5.371,0,0,1,.517-2.543,9.358,9.358,0,0,1,1.474-1.972,8.709,8.709,0,0,0,1.068-1.361,2.65,2.65,0,0,0,.351-1.384q0-1.8-2-1.8-2.166,0-2.181,2.512ZM20.065,0a17.666,17.666,0,0,0-15.7,25.774L0,35.894l11.524-2.752A17.671,17.671,0,1,0,20.065,0Z" fill="#25c9a3"/>
    </clipPath>
  </defs>
  <g id="그룹_71" data-name="그룹 71" clip-path="url(#clip-path)">
    <rect id="사각형_179" data-name="사각형 179" width="77.23" height="77.23" transform="translate(-26.845 26.845) rotate(-45)" fill="#25c9a3"/>
  </g>
</svg>
