<?xml version="1.0" encoding="utf-8"?>
<!-- Generator: Adobe Illustrator 27.7.0, SVG Export Plug-In . SVG Version: 6.00 Build 0)  -->
<svg version="1.1" id="레이어_1" xmlns="http://www.w3.org/2000/svg" xmlns:xlink="http://www.w3.org/1999/xlink" x="0px"
	 y="0px" viewBox="0 0 380 356" style="enable-background:new 0 0 380 356;fill:#777" xml:space="preserve" >
<path d="M355.93,6c-7.93,0-139.3,0-139.3,0S209,7,209,14v139.26c0,0,0.43,8.74,8.22,8.74c7.78,0,138.33,0,138.33,0
	s8.46-0.65,8.46-9.33c0-8.67,0-137.35,0-137.35S363.87,6,355.93,6z M341,133c0,5-4,6-4,6s-97,0-101,0s-4-4.91-4-4.91V34
	c0-5,4.78-5,4.78-5S331,29,336,29s5,5,5,5S341,128,341,133z"/>
<path d="M192.5,69.72V41h-137c0,0-21.75,0.5-21.75,23.25v216.97L61.5,254.5v-176c0,0,1-9,9-9S192.5,69.72,192.5,69.72z"/>
<path d="M295.02,176.23h28.72v133c0,0-0.5,21.75-23.25,21.75H83.52l26.72-27.75h176c0,0,9-1,9-9S295.02,176.23,295.02,176.23z"/>
<path d="M161.26,202.5c-2.62-2.62-10.76,0-10.76,0S93,217,87,219s-2,9-2,9l15,16l-72.12,69.24c-3.85,2.71-6.38,7.19-6.38,12.26
	c0,8.28,6.72,15,15,15c4.81,0,9.07-2.27,11.82-5.79l72.18-69.21l3,3c0,0,0,0,9,9s13-4,13-4s16-56,17-60S163.88,205.12,161.26,202.5z
	"/>
</svg>
