<svg xmlns="http://www.w3.org/2000/svg" xmlns:xlink="http://www.w3.org/1999/xlink" width="32.53" height="30.055" viewBox="0 0 32.53 30.055">
  <defs>
    <clipPath id="clip-path">
      <rect id="사각형_388" data-name="사각형 388" width="32.53" height="30.055" fill="#fff"/>
    </clipPath>
  </defs>
  <g id="그룹_254" data-name="그룹 254" transform="translate(0 0)">
    <g id="그룹_253" data-name="그룹 253" transform="translate(0 0)" clip-path="url(#clip-path)">
      <path id="패스_1783" data-name="패스 1783" d="M.7,29.411a.714.714,0,0,1-.268-.053A.7.7,0,0,1,0,28.709V2.292a.7.7,0,0,1,.7-.7H25.873a.7.7,0,1,1,0,1.4H1.4V27.014L6.468,21.95a.7.7,0,0,1,.5-.206H26.773V8.929a.7.7,0,1,1,1.4,0V22.446a.7.7,0,0,1-.7.7H7.255L1.2,29.206a.708.708,0,0,1-.5.205" transform="translate(0 0.643)" fill="#fff"/>
      <path id="패스_1784" data-name="패스 1784" d="M10.233,19.145a.7.7,0,0,1-.687-.846L10.6,13.225a.694.694,0,0,1,.19-.354L23.455.205a.7.7,0,0,1,.993,0l4.02,4.021a.7.7,0,0,1,0,.993L15.8,17.884a.688.688,0,0,1-.354.19L10.375,19.13a.7.7,0,0,1-.142.015m1.7-5.429-.8,3.821,3.823-.8L26.978,4.722,23.951,1.7Zm3.377,3.67h0Z" transform="translate(3.856 -0.001)" fill="#fff"/>
      <line id="선_145" data-name="선 145" x2="4.02" y2="4.02" transform="translate(25.245 3.265)" fill="#fff"/>
      <path id="패스_1785" data-name="패스 1785" d="M22.2,7.251a.705.705,0,0,1-.5-.205l-4.02-4.021a.7.7,0,1,1,.993-.993l4.021,4.02a.7.7,0,0,1-.5,1.2" transform="translate(7.07 0.738)" fill="#fff"/>
    </g>
  </g>
</svg>
