<svg xmlns="http://www.w3.org/2000/svg" width="30" height="30" viewBox="0 0 30 30">
  <g id="그룹_1474" data-name="그룹 1474" transform="translate(16200 10087)">
    <rect id="사각형_1730" data-name="사각형 1730" width="30" height="30" rx="5" transform="translate(-16200 -10087)" fill="#006"/>
    <text id="Program" transform="translate(-16185 -10062)" fill="#fff" font-size="4" font-family="NanumGothicBold, NanumGothic"><tspan x="-7.936" y="0">Program</tspan></text>
    <g id="그룹_1472" data-name="그룹 1472" transform="translate(-16192.9 -10079.5)">
      <line id="선_365" data-name="선 365" y2="1.871" transform="translate(5.6)" fill="none" stroke="#fff" stroke-linecap="round" stroke-linejoin="round" stroke-width="0.4"/>
      <path id="패스_3837" data-name="패스 3837" d="M68.036,23.236h1.726a.467.467,0,0,1,.468.465v8.186a.467.467,0,0,1-.468.465H59.14a.467.467,0,0,1-.468-.465v-.523" transform="translate(-56.23 -22.353)" fill="none" stroke="#fff" stroke-linecap="round" stroke-linejoin="round" stroke-width="0.4"/>
      <path id="패스_3838" data-name="패스 3838" d="M146.71,23.236h-3.826" transform="translate(-136.55 -22.353)" fill="none" stroke="#fff" stroke-linecap="round" stroke-linejoin="round" stroke-width="0.4"/>
      <line id="선_366" data-name="선 366" y2="1.871" transform="translate(10.898)" fill="none" stroke="#fff" stroke-linecap="round" stroke-linejoin="round" stroke-width="0.4"/>
      <path id="패스_3839" data-name="패스 3839" d="M17.979,23.613l-2.457,6.64a.673.673,0,0,1-.605.377H4.346c-.257,0-.4-.169-.326-.377l2.457-6.64a.673.673,0,0,1,.605-.377H8.8" transform="translate(-4 -22.353)" fill="none" stroke="#fff" stroke-linecap="round" stroke-linejoin="round" stroke-width="0.4"/>
      <path id="패스_3840" data-name="패스 3840" d="M88.945,71.42a.314.314,0,1,1-.314-.314.314.314,0,0,1,.314.314" transform="translate(-84.466 -68.042)" fill="none" stroke="#fff" stroke-width="0.4"/>
      <path id="패스_3841" data-name="패스 3841" d="M133.117,71.42a.314.314,0,1,1-.314-.314.314.314,0,0,1,.314.314" transform="translate(-126.62 -68.042)" fill="none" stroke="#fff" stroke-width="0.4"/>
      <path id="패스_3842" data-name="패스 3842" d="M177.288,71.42a.314.314,0,1,1-.314-.314.314.314,0,0,1,.314.314" transform="translate(-168.773 -68.042)" fill="none" stroke="#fff" stroke-width="0.4"/>
      <path id="패스_3843" data-name="패스 3843" d="M221.459,71.42a.314.314,0,1,1-.314-.314.314.314,0,0,1,.314.314" transform="translate(-210.927 -68.042)" fill="none" stroke="#fff" stroke-width="0.4"/>
      <path id="패스_3844" data-name="패스 3844" d="M73.695,106.4a.314.314,0,1,1-.314-.314.314.314,0,0,1,.314.314" transform="translate(-69.912 -101.424)" fill="none" stroke="#fff" stroke-width="0.4"/>
      <path id="패스_3845" data-name="패스 3845" d="M117.866,106.4a.314.314,0,1,1-.314-.314.314.314,0,0,1,.314.314" transform="translate(-112.066 -101.424)" fill="none" stroke="#fff" stroke-width="0.4"/>
      <path id="패스_3846" data-name="패스 3846" d="M162.038,106.4a.314.314,0,1,1-.314-.314.314.314,0,0,1,.314.314" transform="translate(-154.22 -101.424)" fill="none" stroke="#fff" stroke-width="0.4"/>
      <path id="패스_3847" data-name="패스 3847" d="M206.209,106.4a.314.314,0,1,1-.314-.314.314.314,0,0,1,.314.314" transform="translate(-196.373 -101.424)" fill="none" stroke="#fff" stroke-width="0.4"/>
      <path id="패스_3848" data-name="패스 3848" d="M58.445,141.377a.314.314,0,1,1-.314-.314.314.314,0,0,1,.314.314" transform="translate(-55.359 -134.805)" fill="none" stroke="#fff" stroke-width="0.4"/>
      <path id="패스_3849" data-name="패스 3849" d="M102.616,141.377a.314.314,0,1,1-.314-.314.314.314,0,0,1,.314.314" transform="translate(-97.512 -134.805)" fill="none" stroke="#fff" stroke-width="0.4"/>
      <path id="패스_3850" data-name="패스 3850" d="M146.787,141.377a.314.314,0,1,1-.314-.314.314.314,0,0,1,.314.314" transform="translate(-139.666 -134.805)" fill="none" stroke="#fff" stroke-width="0.4"/>
    </g>
  </g>
</svg>
