<svg xmlns="http://www.w3.org/2000/svg" xmlns:xlink="http://www.w3.org/1999/xlink" width="24.344" height="35.596" viewBox="0 0 24.344 35.596">
  <defs>
    <clipPath id="clip-path">
      <rect id="사각형_393" data-name="사각형 393" width="24.344" height="35.596" fill="none"/>
    </clipPath>
  </defs>
  <g id="그룹_260" data-name="그룹 260" transform="translate(0 0)">
    <g id="그룹_259" data-name="그룹 259" transform="translate(0 0)" clip-path="url(#clip-path)">
      <path id="패스_1795" data-name="패스 1795" d="M11.578,16.625A8.313,8.313,0,1,1,19.89,8.314a8.322,8.322,0,0,1-8.313,8.311m0-15.443a7.13,7.13,0,1,0,7.13,7.132,7.139,7.139,0,0,0-7.13-7.132" transform="translate(0.594 0)" fill="#fff"/>
      <path id="패스_1796" data-name="패스 1796" d="M22.181,32.745a2.24,2.24,0,0,1-.4-.037H2.163A2.166,2.166,0,0,1,0,30.547V26.606A10.966,10.966,0,0,1,10.952,15.651h2.44A10.966,10.966,0,0,1,24.344,26.606v3.977a2.166,2.166,0,0,1-2.163,2.163M10.952,16.833a9.782,9.782,0,0,0-9.77,9.772v3.941a.982.982,0,0,0,.981.98l19.809.013a1,1,0,0,0,1.19-.958V26.606a9.781,9.781,0,0,0-9.77-9.772Z" transform="translate(0 2.85)" fill="#fff"/>
    </g>
  </g>
</svg>
