<svg xmlns="http://www.w3.org/2000/svg" xmlns:xlink="http://www.w3.org/1999/xlink" width="35.656" height="24.056" viewBox="0 0 35.656 24.056">
  <defs>
    <clipPath id="clip-path">
      <rect id="사각형_384" data-name="사각형 384" width="35.656" height="24.056" fill="#fff"/>
    </clipPath>
  </defs>
  <g id="그룹_252" data-name="그룹 252" transform="translate(0 0)">
    <g id="그룹_251" data-name="그룹 251" transform="translate(0 0)" clip-path="url(#clip-path)">
      <path id="패스_1779" data-name="패스 1779" d="M29.386,19.77a.708.708,0,0,1-.5-.205L25.415,16.09H22.3a.7.7,0,0,1,0-1.406h3.406a.7.7,0,0,1,.5.205l2.48,2.48V15.387a.7.7,0,0,1,.7-.7h.38a1.652,1.652,0,0,0,1.649-1.649V3.055a1.652,1.652,0,0,0-1.649-1.649H10.036A1.653,1.653,0,0,0,8.387,3.055V4.99a.7.7,0,1,1-1.406,0V3.055A3.059,3.059,0,0,1,10.036,0H29.766a3.059,3.059,0,0,1,3.055,3.055v9.979a3.061,3.061,0,0,1-2.732,3.039v2.994a.7.7,0,0,1-.434.65.72.72,0,0,1-.269.053" transform="translate(2.835 -0.001)" fill="#fff"/>
      <path id="패스_1780" data-name="패스 1780" d="M3.434,22.819a.708.708,0,0,1-.7-.7V19.122A3.061,3.061,0,0,1,0,16.084V6.1A3.058,3.058,0,0,1,3.054,3.049H22.783A3.059,3.059,0,0,1,25.839,6.1v9.979a3.058,3.058,0,0,1-3.055,3.054H7.4L3.931,22.612a.7.7,0,0,1-.5.207M3.054,4.455A1.651,1.651,0,0,0,1.406,6.1v9.979a1.65,1.65,0,0,0,1.648,1.648h.38a.7.7,0,0,1,.7.7v1.984l2.48-2.48a.7.7,0,0,1,.5-.207h15.67a1.651,1.651,0,0,0,1.649-1.648V6.1a1.651,1.651,0,0,0-1.649-1.649Z" transform="translate(0 1.238)" fill="#fff"/>
      <path id="패스_1781" data-name="패스 1781" d="M16.842,8.247H5.915a.7.7,0,0,1,0-1.406H16.842a.7.7,0,0,1,0,1.406" transform="translate(2.117 2.778)" fill="#fff"/>
      <path id="패스_1782" data-name="패스 1782" d="M14.729,11.277H7.081a.7.7,0,1,1,0-1.406h7.648a.7.7,0,0,1,0,1.406" transform="translate(2.59 4.008)" fill="#fff"/>
    </g>
  </g>
</svg>
