<svg xmlns="http://www.w3.org/2000/svg" xmlns:xlink="http://www.w3.org/1999/xlink" width="76" height="76" viewBox="0 0 76 76">
  <defs>
    <clipPath id="clip-path">
      <rect id="사각형_392" data-name="사각형 392" width="25.257" height="33.447" fill="#ff9"/>
    </clipPath>
  </defs>
  <g id="그룹_1205" data-name="그룹 1205" transform="translate(-1821 -310)">
    <rect id="사각형_386" data-name="사각형 386" width="76" height="76" rx="13" transform="translate(1821 310)" fill="#013366"/>
    <text id="초록접수" transform="translate(1841 373)" fill="#ff9" font-size="10" font-family="NanumGothicBold, NanumGothic"><tspan x="0" y="0">초록접수</tspan></text>
    <g id="그룹_257" data-name="그룹 257" transform="translate(1846 323.246)" clip-path="url(#clip-path)">
      <path id="패스_1790" data-name="패스 1790" d="M24.555,33.447H2.574A2.577,2.577,0,0,1,0,30.873V2.574A2.577,2.577,0,0,1,2.574,0h21.98a.7.7,0,0,1,.7.7V32.745a.7.7,0,0,1-.7.7M2.574,1.4A1.172,1.172,0,0,0,1.4,2.574v28.3a1.172,1.172,0,0,0,1.17,1.17H23.852V1.4Z" transform="translate(0 -0.001)" fill="#ff9"/>
      <path id="패스_1791" data-name="패스 1791" d="M24.556,6.146H3a3.005,3.005,0,0,1-3-3V3A3.005,3.005,0,0,1,3,0H24.556a.7.7,0,0,1,.7.7V5.443a.7.7,0,0,1-.7.7M3,1.4A1.6,1.6,0,0,0,1.4,3v.143A1.6,1.6,0,0,0,3,4.741H23.854V1.4Z" transform="translate(0 -0.001)" fill="#ff9"/>
      <path id="패스_1792" data-name="패스 1792" d="M16.375,16.062a.708.708,0,0,1-.477-.187l-2.4-2.218-2.4,2.218a.7.7,0,0,1-1.18-.515V4.079a.7.7,0,0,1,.7-.7h5.748a.7.7,0,0,1,.7.7v11.28a.7.7,0,0,1-.7.7M13.5,12a.7.7,0,0,1,.477.187l1.7,1.567V4.781H11.329v8.971l1.694-1.567A.7.7,0,0,1,13.5,12" transform="translate(4.014 1.365)" fill="#ff9"/>
      <path id="패스_1793" data-name="패스 1793" d="M12.872,16.726H7.161a.7.7,0,0,1,0-1.4h5.71a.7.7,0,0,1,0,1.4" transform="translate(2.612 6.196)" fill="#ff9"/>
      <path id="패스_1794" data-name="패스 1794" d="M14.711,18.8H6.143a.7.7,0,1,1,0-1.4h8.568a.7.7,0,1,1,0,1.4" transform="translate(2.2 7.034)" fill="#ff9"/>
    </g>
  </g>
</svg>
