<svg xmlns="http://www.w3.org/2000/svg" width="241.205" height="31.999" viewBox="0 0 241.205 31.999">
  <g id="그룹_749" data-name="그룹 749" transform="translate(-113.34 -180.301)">
    <path id="패스_2974" data-name="패스 2974" d="M179.556,34.532h-6.047a10.741,10.741,0,0,1,21.482,0,10.675,10.675,0,0,1-1.455,5.282,25.4,25.4,0,0,1-3.64,4.928,35.167,35.167,0,0,1-3.4,3.3h8.361v6.029H173.4l1.026-3.434a65.723,65.723,0,0,0,9.836-8.6,32.872,32.872,0,0,0,3.369-4.236,6.5,6.5,0,0,0,1.3-3.276,4.685,4.685,0,0,0-9.37,0" transform="translate(89.075 156.972)" fill="#fff"/>
    <path id="패스_2975" data-name="패스 2975" d="M212.058,23.819a10.048,10.048,0,0,1,8.605,4.554,17.729,17.729,0,0,1,3.117,10.639,17.8,17.8,0,0,1-3.117,10.676,10.1,10.1,0,0,1-8.605,4.536c-7.43,0-11.72-7.126-11.72-15.212,0-8.064,4.317-15.193,11.72-15.193M212.04,29.9a4.394,4.394,0,0,0-3.695,1.96,12.146,12.146,0,0,0-1.979,7.149,11.989,11.989,0,0,0,1.979,7.149,4.482,4.482,0,0,0,7.41,0,12.025,12.025,0,0,0,1.96-7.149,12.127,12.127,0,0,0-1.96-7.149,4.414,4.414,0,0,0-3.715-1.96" transform="translate(85.589 156.972)" fill="#fff"/>
    <path id="패스_2976" data-name="패스 2976" d="M235.56,34.532h-6.047a10.741,10.741,0,0,1,21.482,0,10.675,10.675,0,0,1-1.455,5.282,25.4,25.4,0,0,1-3.64,4.928,35.172,35.172,0,0,1-3.4,3.3h8.361v6.029H229.4l1.026-3.434a65.726,65.726,0,0,0,9.836-8.6,32.876,32.876,0,0,0,3.369-4.236,6.5,6.5,0,0,0,1.3-3.276,4.685,4.685,0,0,0-9.37,0" transform="translate(81.829 156.972)" fill="#fff"/>
    <path id="패스_2977" data-name="패스 2977" d="M270.1,44.139a5.141,5.141,0,0,0-1.885-3.892,8.447,8.447,0,0,0-5.432-1.876l1.269-2.5a6.388,6.388,0,0,0,3.454-1.559,3.449,3.449,0,0,0,1.082-2.453l-.057.037a2.453,2.453,0,0,0-2.426-2.426,2.4,2.4,0,0,0-2.371,1.922l-6.01-1.288a8.7,8.7,0,0,1,8.38-6.757,8.54,8.54,0,0,1,8.548,8.568,8.37,8.37,0,0,1-1.661,5.115,1.894,1.894,0,0,1,.205.167,9.61,9.61,0,0,1,0,13.962,9.791,9.791,0,0,1-7.093,2.855,9.967,9.967,0,0,1-6.159-2.053,9.495,9.495,0,0,1-3.6-5.394l5.936-1.512a3.93,3.93,0,0,0,3.845,2.8,3.837,3.837,0,0,0,3.975-3.714" transform="translate(78.343 157.033)" fill="#fff"/>
    <rect id="사각형_874" data-name="사각형 874" width="6.237" height="31.033" transform="translate(113.34 181.032)" fill="#fff"/>
    <path id="패스_2978" data-name="패스 2978" d="M28.107,49.047a9.432,9.432,0,0,1-9.433-9.433,9.187,9.187,0,0,1,2.772-6.68,9,9,0,0,1,6.661-2.772A9.144,9.144,0,0,1,34.53,32.7a18.173,18.173,0,0,1,3.388-5.362,15.7,15.7,0,0,0-9.831-3.531,15.155,15.155,0,0,0-11.108,4.639,15.271,15.271,0,0,0-4.62,11.146,15.167,15.167,0,0,0,4.62,11.127A15.267,15.267,0,0,0,28.087,55.3a15.625,15.625,0,0,0,9.86-3.425,17.972,17.972,0,0,1-3.411-5.357,9.1,9.1,0,0,1-6.429,2.526" transform="translate(109.912 156.973)" fill="#fff"/>
    <path id="패스_2979" data-name="패스 2979" d="M66.262,28.447A15.2,15.2,0,0,1,70.9,39.594,15.742,15.742,0,0,1,55.135,55.3,15.709,15.709,0,0,1,39.387,39.594a15.274,15.274,0,0,1,4.62-11.146,15.663,15.663,0,0,1,22.254,0M48.454,32.875a9.433,9.433,0,0,0,0,13.36,9.458,9.458,0,0,0,13.341,0,9.39,9.39,0,0,0,0-13.36,9.412,9.412,0,0,0-13.341,0" transform="translate(106.415 156.973)" fill="#fff"/>
    <path id="패스_2980" data-name="패스 2980" d="M93.84,44.1l15.189-20.848V55.02h-6.238V42.161L93.84,54.52,84.869,42.161V55.02H78.631V23.256Z" transform="translate(101.337 157.045)" fill="#fff"/>
    <path id="패스_2981" data-name="패스 2981" d="M136.677,24.008v6.218H124.2v6.257h9.356V42.7H124.2v6.256h12.475v6.2H117.965V24.008Z" transform="translate(96.248 156.947)" fill="#fff"/>
    <path id="패스_2982" data-name="패스 2982" d="M151.028,48.979c1.723,0,3.624-1.43,3.624-3.153,0-2.833-3.8-3.228-5.949-3.972-3.785-1.289-7.125-4.4-7.125-8.622a9.468,9.468,0,0,1,18.843-1.309l-6.193,1.309a3.149,3.149,0,0,0-6.3.018c0,2.8,3.539,3.54,5.695,4.18,3.916,1.129,7.37,4.113,7.37,8.434,0,5.232-4.7,9.459-9.921,9.459a9.972,9.972,0,0,1-9.845-8.142l6.194-1.317c0,1.732,1.882,3.144,3.633,3.144Z" transform="translate(93.237 156.977)" fill="#fff"/>
  </g>
</svg>
