<svg id="그룹_729" data-name="그룹 729" xmlns="http://www.w3.org/2000/svg" xmlns:xlink="http://www.w3.org/1999/xlink" width="285.131" height="166.251" viewBox="0 0 285.131 166.251">
  <defs>
    <clipPath id="clip-path">
      <rect id="사각형_789" data-name="사각형 789" width="285.131" height="166.251" fill="#fff"/>
    </clipPath>
  </defs>
  <rect id="사각형_785" data-name="사각형 785" width="12.615" height="62.762" transform="translate(0.184 54.727)" fill="#fff"/>
  <g id="그룹_666" data-name="그룹 666">
    <g id="그룹_665" data-name="그룹 665" clip-path="url(#clip-path)">
      <path id="패스_2739" data-name="패스 2739" d="M51.357,109.008A19.074,19.074,0,0,1,32.28,89.931,18.582,18.582,0,0,1,37.886,76.42a18.2,18.2,0,0,1,13.471-5.606,18.494,18.494,0,0,1,12.992,5.138A36.742,36.742,0,0,1,71.2,65.107a31.762,31.762,0,0,0-19.884-7.141,30.65,30.65,0,0,0-22.465,9.383,31.818,31.818,0,0,0,0,45.046,30.875,30.875,0,0,0,22.465,9.266,31.6,31.6,0,0,0,19.941-6.927,36.337,36.337,0,0,1-6.9-10.834,18.4,18.4,0,0,1-13,5.108" transform="translate(-1.26 -3.745)" fill="#fff"/>
      <path id="패스_2740" data-name="패스 2740" d="M124.738,67.349a30.74,30.74,0,0,1,9.383,22.542,31.837,31.837,0,0,1-31.887,31.771A31.772,31.772,0,0,1,70.385,89.891a31.97,31.97,0,0,1,31.848-31.925,30.694,30.694,0,0,1,22.5,9.383M88.723,76.3a19.081,19.081,0,0,0,0,27.021,19.126,19.126,0,0,0,26.981,0,18.99,18.99,0,0,0,0-27.021,19.034,19.034,0,0,0-26.981,0" transform="translate(-4.548 -3.745)" fill="#fff"/>
      <path id="패스_2741" data-name="패스 2741" d="M175.015,99.091l30.719-42.165v64.241H193.12V95.159l-18.1,24.995L156.872,95.159v26.008H144.257V56.926Z" transform="translate(-9.32 -3.678)" fill="#fff"/>
      <path id="패스_2742" data-name="패스 2742" d="M256.141,58.341V70.916H230.912V83.57h18.921V96.145H230.912V108.8h25.229v12.537H218.3v-63Z" transform="translate(-14.104 -3.769)" fill="#fff"/>
      <path id="패스_2743" data-name="패스 2743" d="M281.905,108.875c3.484,0,7.33-2.893,7.33-6.377,0-5.73-7.691-6.53-12.032-8.033-7.652-2.608-14.41-8.891-14.41-17.437a19.149,19.149,0,0,1,38.11-2.647l-12.525,2.647a6.368,6.368,0,0,0-12.735.037c0,5.654,7.158,7.158,11.516,8.452,7.919,2.284,14.905,8.318,14.905,17.056,0,10.584-9.5,19.132-20.064,19.132-9.708,0-18.484-7.12-19.912-16.467l12.526-2.665c0,3.5,3.807,6.359,7.348,6.359Z" transform="translate(-16.934 -3.742)" fill="#fff"/>
      <path id="패스_2744" data-name="패스 2744" d="M143.662,14.937V1.931h2.7l3.358,5.577a35.864,35.864,0,0,1,2.22,4.361h.038c-.154-1.737-.213-3.416-.213-5.4V1.931h2.2V14.937h-2.452l-3.4-5.711a44.98,44.98,0,0,1-2.335-4.5l-.059.019c.1,1.679.116,3.4.116,5.538v4.651Z" transform="translate(-9.282 -0.125)" fill="#fff"/>
      <path id="패스_2745" data-name="패스 2745" d="M166.4,10.386a4.655,4.655,0,0,1-4.824,5,4.544,4.544,0,0,1-4.709-4.843,4.64,4.64,0,0,1,4.863-4.978,4.508,4.508,0,0,1,4.669,4.824m-7.082.1c0,1.814.888,3.184,2.335,3.184,1.351,0,2.3-1.332,2.3-3.222,0-1.467-.656-3.146-2.276-3.146-1.679,0-2.355,1.621-2.355,3.184" transform="translate(-10.135 -0.359)" fill="#fff"/>
      <path id="패스_2746" data-name="패스 2746" d="M170.336,5.788l.985,4.265c.211,1,.425,2.026.6,3.048h.038c.193-1.022.5-2.065.773-3.03l1.215-4.284h1.93l1.178,4.168c.289,1.1.541,2.123.752,3.146h.038c.154-1.022.368-2.046.618-3.146L179.5,5.788h2.335l-2.952,9.4h-2.2l-1.12-3.821a28.706,28.706,0,0,1-.714-3.01h-.038a24.883,24.883,0,0,1-.715,3.01l-1.2,3.821h-2.219l-2.779-9.4Z" transform="translate(-10.848 -0.374)" fill="#fff"/>
      <path id="패스_2747" data-name="패스 2747" d="M191.223,2.894a1.333,1.333,0,0,1-2.664,0,1.333,1.333,0,0,1,2.664,0m-2.528,2.624h2.394v9.4h-2.394Z" transform="translate(-12.183 -0.103)" fill="#fff"/>
      <path id="패스_2748" data-name="패스 2748" d="M193.83,12.991a5.3,5.3,0,0,0,2.412.675c1.042,0,1.505-.425,1.505-1.042,0-.637-.386-.965-1.543-1.37-1.833-.637-2.605-1.64-2.586-2.74,0-1.66,1.37-2.952,3.551-2.952a5.506,5.506,0,0,1,2.489.559L199.195,7.8a4.22,4.22,0,0,0-1.988-.54c-.848,0-1.311.405-1.311.984,0,.6.444.888,1.64,1.312,1.7.617,2.49,1.485,2.51,2.874,0,1.7-1.332,2.933-3.821,2.933a6.056,6.056,0,0,1-2.856-.656Z" transform="translate(-12.493 -0.359)" fill="#fff"/>
      <path id="패스_2749" data-name="패스 2749" d="M209.517,2.921V5.6h2.258V7.378h-2.258v4.149c0,1.138.309,1.737,1.216,1.737a3.506,3.506,0,0,0,.926-.116l.038,1.814a5.224,5.224,0,0,1-1.717.231,2.743,2.743,0,0,1-2.045-.772A3.736,3.736,0,0,1,207.2,11.8V7.378H205.85V5.6H207.2V3.48Z" transform="translate(-13.3 -0.189)" fill="#fff"/>
      <path id="패스_2750" data-name="패스 2750" d="M214.1,1.188H216.5v5.6h.038a3.165,3.165,0,0,1,1.177-1.08,3.219,3.219,0,0,1,1.621-.425c1.6,0,3.28,1.061,3.28,4.072v5.538H220.24V9.621c0-1.37-.5-2.393-1.815-2.393a1.937,1.937,0,0,0-1.833,1.331,2.009,2.009,0,0,0-.1.714v5.615H214.1Z" transform="translate(-13.833 -0.077)" fill="#fff"/>
      <path id="패스_2751" data-name="패스 2751" d="M227.543,11.138c.059,1.7,1.389,2.431,2.9,2.431a7.085,7.085,0,0,0,2.605-.424l.347,1.64a8.842,8.842,0,0,1-3.28.579c-3.049,0-4.844-1.872-4.844-4.747,0-2.605,1.584-5.055,4.594-5.055,3.048,0,4.052,2.508,4.052,4.573a5.872,5.872,0,0,1-.077,1Zm4.13-1.659a2.021,2.021,0,0,0-1.949-2.3,2.324,2.324,0,0,0-2.18,2.3Z" transform="translate(-14.554 -0.359)" fill="#fff"/>
      <path id="패스_2752" data-name="패스 2752" d="M242.506,3.918H238.8V1.932h9.823V3.918h-3.744V14.937h-2.373Z" transform="translate(-15.429 -0.125)" fill="#fff"/>
      <path id="패스_2753" data-name="패스 2753" d="M252.978,2.894a1.333,1.333,0,0,1-2.664,0,1.333,1.333,0,0,1,2.664,0m-2.529,2.624h2.394v9.4h-2.394Z" transform="translate(-16.173 -0.103)" fill="#fff"/>
      <path id="패스_2754" data-name="패스 2754" d="M255.736,8.572c0-1.08-.02-1.987-.077-2.8H257.7l.1,1.389h.057a3.252,3.252,0,0,1,2.9-1.6A2.707,2.707,0,0,1,263.358,7.3h.038a3.56,3.56,0,0,1,1.158-1.178,3.139,3.139,0,0,1,1.891-.559c1.563,0,3.145,1.062,3.145,4.072v5.538h-2.315V9.981c0-1.563-.54-2.489-1.679-2.489a1.81,1.81,0,0,0-1.659,1.254,3.4,3.4,0,0,0-.116.791v5.635h-2.315V9.73c0-1.312-.522-2.238-1.621-2.238a1.854,1.854,0,0,0-1.7,1.351,2.052,2.052,0,0,0-.135.772v5.558h-2.316Z" transform="translate(-16.518 -0.359)" fill="#fff"/>
      <path id="패스_2755" data-name="패스 2755" d="M274.876,11.138c.058,1.7,1.389,2.431,2.9,2.431a7.085,7.085,0,0,0,2.605-.424l.347,1.64a8.842,8.842,0,0,1-3.28.579c-3.049,0-4.844-1.872-4.844-4.747,0-2.605,1.584-5.055,4.594-5.055,3.048,0,4.052,2.508,4.052,4.573a5.879,5.879,0,0,1-.077,1Zm4.13-1.659a2.02,2.02,0,0,0-1.949-2.3,2.324,2.324,0,0,0-2.18,2.3Z" transform="translate(-17.612 -0.359)" fill="#fff"/>
      <path id="패스_2756" data-name="패스 2756" d="M290.812,2.921V5.6h2.258V7.378h-2.258v4.149c0,1.138.309,1.737,1.216,1.737a3.507,3.507,0,0,0,.926-.116l.038,1.814a5.224,5.224,0,0,1-1.717.231,2.744,2.744,0,0,1-2.045-.772A3.736,3.736,0,0,1,288.5,11.8V7.378h-1.351V5.6H288.5V3.48Z" transform="translate(-18.552 -0.189)" fill="#fff"/>
      <path id="패스_2757" data-name="패스 2757" d="M304.167,10.386a4.655,4.655,0,0,1-4.824,5,4.544,4.544,0,0,1-4.709-4.843A4.64,4.64,0,0,1,299.5,5.562a4.508,4.508,0,0,1,4.669,4.824m-7.082.1c0,1.814.888,3.184,2.335,3.184,1.351,0,2.3-1.332,2.3-3.222,0-1.467-.656-3.146-2.276-3.146-1.679,0-2.355,1.621-2.355,3.184" transform="translate(-19.036 -0.359)" fill="#fff"/>
      <path id="패스_2758" data-name="패스 2758" d="M152.936,38.887a8.218,8.218,0,0,1-3.359.579c-4.129,0-6.638-2.585-6.638-6.541,0-4.285,2.973-6.87,6.946-6.87a7.476,7.476,0,0,1,3.165.579l-.521,1.891a6.311,6.311,0,0,0-2.547-.5c-2.643,0-4.553,1.66-4.553,4.786,0,2.856,1.677,4.689,4.534,4.689a6.646,6.646,0,0,0,2.586-.483Z" transform="translate(-9.235 -1.683)" fill="#fff"/>
      <path id="패스_2759" data-name="패스 2759" d="M165.08,34.736a4.655,4.655,0,0,1-4.825,5,4.544,4.544,0,0,1-4.709-4.843,4.641,4.641,0,0,1,4.863-4.979,4.51,4.51,0,0,1,4.67,4.825m-7.082.1c0,1.814.887,3.184,2.334,3.184,1.351,0,2.3-1.332,2.3-3.222,0-1.467-.655-3.146-2.276-3.146-1.679,0-2.354,1.621-2.354,3.184" transform="translate(-10.05 -1.933)" fill="#fff"/>
      <path id="패스_2760" data-name="패스 2760" d="M168.644,32.922c0-1.08-.019-1.988-.077-2.8h2.084l.116,1.41h.057a3.388,3.388,0,0,1,2.991-1.622c1.64,0,3.338,1.062,3.338,4.033v5.577h-2.373V34.215c0-1.351-.5-2.373-1.8-2.373a1.992,1.992,0,0,0-1.853,1.389,2.432,2.432,0,0,0-.1.772v5.519h-2.394Z" transform="translate(-10.891 -1.933)" fill="#fff"/>
      <path id="패스_2761" data-name="패스 2761" d="M187.525,38.229h-.038a3.254,3.254,0,0,1-2.914,1.505c-2.1,0-3.937-1.833-3.937-4.767,0-3.435,2.2-5.056,4.207-5.056a2.959,2.959,0,0,1,2.74,1.447l.039.02.057-1.254h2.3c-.038.849-.078,1.737-.078,2.721v10.5h-2.373Zm0-4.226a2.749,2.749,0,0,0-.058-.579,2.08,2.08,0,0,0-2.026-1.641c-1.524,0-2.393,1.294-2.393,3.068,0,1.718.83,3.011,2.335,3.011a2.081,2.081,0,0,0,2.026-1.563,2.416,2.416,0,0,0,.116-.733Z" transform="translate(-11.671 -1.933)" fill="#fff"/>
      <path id="패스_2762" data-name="패스 2762" d="M202.5,36.718c0,1.12.037,2.046.076,2.817h-2.084l-.116-1.428h-.038a3.4,3.4,0,0,1-3.01,1.641c-1.717,0-3.28-1.023-3.28-4.09v-5.52h2.373v5.115c0,1.563.5,2.566,1.758,2.566a2,2,0,0,0,1.813-1.274,2.164,2.164,0,0,0,.135-.732V30.138H202.5Z" transform="translate(-12.537 -1.947)" fill="#fff"/>
      <path id="패스_2763" data-name="패스 2763" d="M208.293,35.489c.059,1.7,1.389,2.432,2.9,2.432a7.084,7.084,0,0,0,2.605-.425l.347,1.64a8.842,8.842,0,0,1-3.28.579c-3.049,0-4.844-1.872-4.844-4.747,0-2.605,1.584-5.056,4.594-5.056,3.048,0,4.052,2.509,4.052,4.574a5.874,5.874,0,0,1-.077,1Zm4.13-1.659a2.021,2.021,0,0,0-1.949-2.3,2.324,2.324,0,0,0-2.18,2.3Z" transform="translate(-13.311 -1.933)" fill="#fff"/>
      <path id="패스_2764" data-name="패스 2764" d="M218.121,33.153c0-1.273-.019-2.18-.077-3.03h2.064l.078,1.8h.077a2.8,2.8,0,0,1,2.567-2.007,2.507,2.507,0,0,1,.559.058v2.238a3.314,3.314,0,0,0-.694-.077,2.093,2.093,0,0,0-2.123,1.794,4.1,4.1,0,0,0-.077.733v4.863h-2.374Z" transform="translate(-14.088 -1.933)" fill="#fff"/>
      <path id="패스_2765" data-name="패스 2765" d="M242.991,32.634c0,4.362-2.644,6.851-6.233,6.851-3.667,0-5.983-2.8-5.983-6.619,0-4,2.51-6.812,6.176-6.812,3.8,0,6.04,2.875,6.04,6.58m-9.707.194c0,2.643,1.33,4.747,3.607,4.747,2.3,0,3.589-2.122,3.589-4.844,0-2.451-1.215-4.766-3.589-4.766-2.353,0-3.607,2.18-3.607,4.863" transform="translate(-14.91 -1.683)" fill="#fff"/>
      <path id="패스_2766" data-name="패스 2766" d="M246.663,39.239c.038-.636.077-1.678.077-2.643V25.539h2.374v5.6h.038a3.4,3.4,0,0,1,3.01-1.505c2.3,0,3.937,1.91,3.917,4.766,0,3.378-2.142,5.057-4.264,5.057a3.235,3.235,0,0,1-2.972-1.621h-.038l-.116,1.408Zm2.451-3.878a2.693,2.693,0,0,0,.057.559,2.192,2.192,0,0,0,2.1,1.66c1.484,0,2.392-1.2,2.392-3.088,0-1.66-.79-3.011-2.373-3.011a2.224,2.224,0,0,0-2.1,1.737,2.858,2.858,0,0,0-.077.617Z" transform="translate(-15.937 -1.65)" fill="#fff"/>
      <path id="패스_2767" data-name="패스 2767" d="M261.278,35.489c.058,1.7,1.389,2.432,2.9,2.432a7.084,7.084,0,0,0,2.605-.425l.347,1.64a8.842,8.842,0,0,1-3.28.579c-3.049,0-4.844-1.872-4.844-4.747,0-2.605,1.584-5.056,4.594-5.056,3.048,0,4.052,2.509,4.052,4.574a5.87,5.87,0,0,1-.077,1Zm4.13-1.659a2.021,2.021,0,0,0-1.949-2.3,2.323,2.323,0,0,0-2.18,2.3Z" transform="translate(-16.734 -1.933)" fill="#fff"/>
      <path id="패스_2768" data-name="패스 2768" d="M270.957,37.341a5.3,5.3,0,0,0,2.412.675c1.042,0,1.505-.425,1.505-1.042,0-.637-.386-.964-1.543-1.37-1.833-.637-2.605-1.64-2.586-2.74,0-1.659,1.37-2.953,3.551-2.953a5.5,5.5,0,0,1,2.489.56l-.463,1.679a4.208,4.208,0,0,0-1.988-.541c-.848,0-1.311.405-1.311.984,0,.6.444.888,1.64,1.312,1.7.617,2.49,1.486,2.509,2.875,0,1.7-1.331,2.933-3.82,2.933a6.056,6.056,0,0,1-2.856-.657Z" transform="translate(-17.477 -1.933)" fill="#fff"/>
      <path id="패스_2769" data-name="패스 2769" d="M283.061,27.244a1.333,1.333,0,1,1-1.332-1.294,1.259,1.259,0,0,1,1.332,1.294m-2.528,2.625h2.394v9.4h-2.394Z" transform="translate(-18.116 -1.677)" fill="#fff"/>
      <path id="패스_2770" data-name="패스 2770" d="M289.3,27.271v2.683h2.257v1.775H289.3v4.148c0,1.139.309,1.737,1.216,1.737a3.507,3.507,0,0,0,.926-.116l.038,1.814a5.2,5.2,0,0,1-1.717.232,2.742,2.742,0,0,1-2.045-.772,3.737,3.737,0,0,1-.734-2.625V31.729h-1.351V29.954h1.351V27.831Z" transform="translate(-18.455 -1.762)" fill="#fff"/>
      <path id="패스_2771" data-name="패스 2771" d="M296.27,30.139l1.7,5.036c.193.579.385,1.294.521,1.833h.059c.154-.54.327-1.235.5-1.852l1.466-5.017h2.548l-2.354,6.406c-1.294,3.512-2.161,5.075-3.281,6.04a4.776,4.776,0,0,1-2.489,1.216l-.54-2.007a4.061,4.061,0,0,0,1.389-.656,4.117,4.117,0,0,0,1.293-1.486.941.941,0,0,0,.154-.424,1,1,0,0,0-.135-.463l-3.435-8.626Z" transform="translate(-18.974 -1.947)" fill="#fff"/>
      <path id="패스_2772" data-name="패스 2772" d="M8.506,14.772H.5A13.675,13.675,0,0,1,4.65,4.735,13.785,13.785,0,0,1,14.735.582,13.675,13.675,0,0,1,24.773,4.735,13.688,13.688,0,0,1,28.95,14.772a14.153,14.153,0,0,1-1.928,7A33.719,33.719,0,0,1,22.2,28.294a46.439,46.439,0,0,1-4.5,4.376H28.777v7.984H.348l1.36-4.548A87.05,87.05,0,0,0,14.735,24.722,43.617,43.617,0,0,0,19.2,19.11a8.613,8.613,0,0,0,1.718-4.338,6.2,6.2,0,0,0-12.41,0" transform="translate(-0.022 -0.038)" fill="#fff"/>
      <path id="패스_2773" data-name="패스 2773" d="M49.086.582a13.311,13.311,0,0,1,11.4,6.032,23.485,23.485,0,0,1,4.129,14.091,23.573,23.573,0,0,1-4.129,14.14,13.367,13.367,0,0,1-11.4,6.007c-9.839,0-15.524-9.437-15.524-20.147,0-10.68,5.719-20.123,15.524-20.123m-.024,8.059a5.822,5.822,0,0,0-4.894,2.6,16.1,16.1,0,0,0-2.621,9.468,15.881,15.881,0,0,0,2.621,9.468,5.936,5.936,0,0,0,9.814,0,15.933,15.933,0,0,0,2.595-9.468,16.072,16.072,0,0,0-2.595-9.468,5.848,5.848,0,0,0-4.92-2.6" transform="translate(-2.168 -0.038)" fill="#fff"/>
      <path id="패스_2774" data-name="패스 2774" d="M77.551,14.772h-8.01A13.675,13.675,0,0,1,73.695,4.735a14.264,14.264,0,0,1,20.123,0,13.687,13.687,0,0,1,4.177,10.037,14.152,14.152,0,0,1-1.927,7,33.719,33.719,0,0,1-4.821,6.525,46.439,46.439,0,0,1-4.5,4.376H97.822v7.984H69.393l1.36-4.548A87.051,87.051,0,0,0,83.78,24.722a43.617,43.617,0,0,0,4.463-5.611,8.613,8.613,0,0,0,1.718-4.338,6.2,6.2,0,0,0-12.41,0" transform="translate(-4.483 -0.038)" fill="#fff"/>
      <path id="패스_2775" data-name="패스 2775" d="M120.826,27.54a6.809,6.809,0,0,0-2.5-5.154q-2.5-2.262-7.192-2.484l1.679-3.312a8.456,8.456,0,0,0,4.573-2.064,4.56,4.56,0,0,0,1.434-3.251l-.073.05a3.25,3.25,0,0,0-3.214-3.214,3.182,3.182,0,0,0-3.139,2.546l-7.96-1.705A11.516,11.516,0,0,1,115.536,0a11.018,11.018,0,0,1,8.01,3.312,11.047,11.047,0,0,1,3.312,8.034,11.082,11.082,0,0,1-2.2,6.774,2.963,2.963,0,0,1,.271.223,12.366,12.366,0,0,1,3.98,9.245,12.315,12.315,0,0,1-3.98,9.245,12.968,12.968,0,0,1-9.394,3.782,13.215,13.215,0,0,1-8.158-2.719,12.582,12.582,0,0,1-4.771-7.144l7.862-2a5.209,5.209,0,0,0,5.092,3.708,5.082,5.082,0,0,0,5.266-4.919" transform="translate(-6.629 0)" fill="#fff"/>
      <path id="패스_2776" data-name="패스 2776" d="M.211,150.642v-.935l1.194-1.159c2.874-2.735,4.172-4.19,4.19-5.885a2.007,2.007,0,0,0-2.233-2.2,3.832,3.832,0,0,0-2.389.951l-.485-1.073A4.94,4.94,0,0,1,3.673,139.2a3.165,3.165,0,0,1,3.444,3.272c0,2.077-1.506,3.756-3.877,6.04l-.9.832v.035H7.394v1.264Z" transform="translate(-0.014 -8.994)" fill="#fff"/>
      <path id="패스_2777" data-name="패스 2777" d="M17.174,144.895c0,3.826-1.418,5.937-3.911,5.937-2.2,0-3.687-2.06-3.721-5.782,0-3.773,1.627-5.85,3.911-5.85,2.371,0,3.721,2.111,3.721,5.695m-6.11.173c0,2.925.9,4.587,2.285,4.587,1.558,0,2.3-1.817,2.3-4.691,0-2.77-.71-4.587-2.284-4.587-1.333,0-2.3,1.627-2.3,4.691" transform="translate(-0.617 -8.994)" fill="#fff"/>
      <path id="패스_2778" data-name="패스 2778" d="M19.2,150.642v-.935l1.194-1.159c2.874-2.735,4.172-4.19,4.19-5.885a2.007,2.007,0,0,0-2.233-2.2,3.832,3.832,0,0,0-2.389.951l-.485-1.073a4.94,4.94,0,0,1,3.185-1.142,3.165,3.165,0,0,1,3.444,3.272c0,2.077-1.506,3.756-3.877,6.04l-.9.832v.035h5.054v1.264Z" transform="translate(-1.241 -8.994)" fill="#fff"/>
      <path id="패스_2779" data-name="패스 2779" d="M29.06,148.893a5.09,5.09,0,0,0,2.493.71c1.956,0,2.561-1.247,2.543-2.181-.017-1.575-1.436-2.25-2.908-2.25h-.847v-1.143h.847c1.108,0,2.511-.571,2.511-1.9,0-.9-.572-1.7-1.973-1.7a4.132,4.132,0,0,0-2.251.745l-.4-1.108a5.34,5.34,0,0,1,2.942-.866c2.215,0,3.22,1.316,3.22,2.684a2.793,2.793,0,0,1-2.077,2.648v.035a2.931,2.931,0,0,1,2.511,2.891c0,1.8-1.4,3.374-4.1,3.374a5.724,5.724,0,0,1-2.925-.76Z" transform="translate(-1.851 -8.994)" fill="#fff"/>
      <rect id="사각형_786" data-name="사각형 786" width="2.648" height="11.667" transform="translate(39.763 129.981)" fill="#fff"/>
      <path id="패스_2780" data-name="패스 2780" d="M47.909,144.73c0-.866-.018-1.575-.069-2.267h1.351l.086,1.384h.035a3.081,3.081,0,0,1,2.77-1.575c1.159,0,2.96.693,2.96,3.566v5H53.517v-4.828c0-1.352-.5-2.476-1.938-2.476a2.165,2.165,0,0,0-2.043,1.557,2.223,2.223,0,0,0-.1.71v5.037H47.909Z" transform="translate(-3.091 -9.192)" fill="#fff"/>
      <path id="패스_2781" data-name="패스 2781" d="M59.884,139.9v2.406h2.18v1.16h-2.18v4.517c0,1.039.294,1.627,1.142,1.627a3.42,3.42,0,0,0,.883-.1l.069,1.142a3.726,3.726,0,0,1-1.351.208,2.108,2.108,0,0,1-1.644-.641,3.1,3.1,0,0,1-.588-2.18V143.47H57.1v-1.16h1.3V140.3Z" transform="translate(-3.689 -9.039)" fill="#fff"/>
      <path id="패스_2782" data-name="패스 2782" d="M64.937,146.928a2.684,2.684,0,0,0,2.873,2.908,5.517,5.517,0,0,0,2.319-.433l.26,1.09a6.786,6.786,0,0,1-2.787.519,3.889,3.889,0,0,1-4.119-4.222c0-2.527,1.489-4.518,3.93-4.518,2.734,0,3.462,2.406,3.462,3.946a5.833,5.833,0,0,1-.052.71Zm4.466-1.091a2.169,2.169,0,0,0-2.112-2.475,2.524,2.524,0,0,0-2.337,2.475Z" transform="translate(-4.102 -9.192)" fill="#fff"/>
      <path id="패스_2783" data-name="패스 2783" d="M73.4,145.076c0-.987-.019-1.834-.071-2.613h1.335l.051,1.644h.068a2.513,2.513,0,0,1,2.321-1.834,1.654,1.654,0,0,1,.432.051v1.437a2.3,2.3,0,0,0-.519-.052,2.138,2.138,0,0,0-2.043,1.956,4.308,4.308,0,0,0-.069.71v4.466H73.4Z" transform="translate(-4.738 -9.192)" fill="#fff"/>
      <path id="패스_2784" data-name="패스 2784" d="M79.527,144.73c0-.866-.018-1.575-.07-2.267h1.352l.086,1.384h.035a3.081,3.081,0,0,1,2.77-1.575c1.159,0,2.96.693,2.96,3.566v5H85.135v-4.828c0-1.352-.5-2.476-1.938-2.476a2.165,2.165,0,0,0-2.043,1.557,2.222,2.222,0,0,0-.1.71v5.037H79.527Z" transform="translate(-5.134 -9.192)" fill="#fff"/>
      <path id="패스_2785" data-name="패스 2785" d="M94.4,150.841l-.121-1.057h-.051a3.119,3.119,0,0,1-2.562,1.246,2.385,2.385,0,0,1-2.561-2.4c0-2.026,1.8-3.134,5.036-3.116v-.174a1.726,1.726,0,0,0-1.9-1.938,4.186,4.186,0,0,0-2.181.623l-.346-1a5.2,5.2,0,0,1,2.752-.744c2.562,0,3.185,1.747,3.185,3.426v3.133a11.811,11.811,0,0,0,.138,2.009Zm-.224-4.276c-1.661-.035-3.548.259-3.548,1.887a1.347,1.347,0,0,0,1.436,1.454,2.088,2.088,0,0,0,2.026-1.4,1.609,1.609,0,0,0,.086-.485Z" transform="translate(-5.757 -9.192)" fill="#fff"/>
      <path id="패스_2786" data-name="패스 2786" d="M100.424,139.9v2.406h2.18v1.16h-2.18v4.517c0,1.039.295,1.627,1.142,1.627a3.426,3.426,0,0,0,.883-.1l.068,1.142a3.716,3.716,0,0,1-1.35.208,2.108,2.108,0,0,1-1.644-.641,3.1,3.1,0,0,1-.588-2.18V143.47h-1.3v-1.16h1.3V140.3Z" transform="translate(-6.308 -9.039)" fill="#fff"/>
      <path id="패스_2787" data-name="패스 2787" d="M106.466,139.893a.944.944,0,0,1-1.888,0,.928.928,0,0,1,.952-.952.905.905,0,0,1,.935.952m-1.7,2.353h1.524v8.378h-1.524Z" transform="translate(-6.757 -8.977)" fill="#fff"/>
      <path id="패스_2788" data-name="패스 2788" d="M116.652,146.581a4.094,4.094,0,0,1-4.172,4.449,3.984,3.984,0,0,1-4.016-4.31,4.091,4.091,0,0,1,4.154-4.448,3.967,3.967,0,0,1,4.033,4.309m-6.647.087c0,1.835,1.055,3.22,2.545,3.22,1.453,0,2.543-1.368,2.543-3.254,0-1.42-.71-3.22-2.509-3.22s-2.58,1.661-2.58,3.254" transform="translate(-7.008 -9.192)" fill="#fff"/>
      <path id="패스_2789" data-name="패스 2789" d="M119.271,144.73c0-.866-.018-1.575-.069-2.267h1.351l.086,1.384h.035a3.081,3.081,0,0,1,2.77-1.575c1.159,0,2.96.693,2.96,3.566v5h-1.524v-4.828c0-1.352-.5-2.476-1.938-2.476a2.165,2.165,0,0,0-2.043,1.557,2.223,2.223,0,0,0-.1.71v5.037h-1.523Z" transform="translate(-7.702 -9.192)" fill="#fff"/>
      <path id="패스_2790" data-name="패스 2790" d="M134.143,150.841l-.121-1.057h-.051a3.12,3.12,0,0,1-2.562,1.246,2.385,2.385,0,0,1-2.561-2.4c0-2.026,1.8-3.134,5.036-3.116v-.174a1.726,1.726,0,0,0-1.9-1.938,4.184,4.184,0,0,0-2.181.623l-.347-1a5.2,5.2,0,0,1,2.753-.744c2.562,0,3.185,1.747,3.185,3.426v3.133a11.809,11.809,0,0,0,.138,2.009Zm-.224-4.276c-1.661-.035-3.548.259-3.548,1.887a1.347,1.347,0,0,0,1.436,1.454,2.088,2.088,0,0,0,2.026-1.4,1.609,1.609,0,0,0,.086-.485Z" transform="translate(-8.325 -9.192)" fill="#fff"/>
      <rect id="사각형_787" data-name="사각형 787" width="1.523" height="12.29" transform="translate(129.526 129.358)" fill="#fff"/>
      <path id="패스_2791" data-name="패스 2791" d="M155.167,150.284a7.526,7.526,0,0,1-2.994.5c-4.033,0-6.11-2.509-6.11-5.832,0-3.982,2.838-6.2,6.369-6.2a6.882,6.882,0,0,1,2.874.519l-.537,2.094a5.686,5.686,0,0,0-2.215-.432,3.835,3.835,0,0,0,.018,7.667,6.587,6.587,0,0,0,2.2-.381Z" transform="translate(-9.437 -8.965)" fill="#fff"/>
      <path id="패스_2792" data-name="패스 2792" d="M165.319,146.581a4.094,4.094,0,0,1-4.172,4.449,3.983,3.983,0,0,1-4.015-4.31,4.09,4.09,0,0,1,4.153-4.448,3.967,3.967,0,0,1,4.033,4.309m-6.646.087c0,1.835,1.054,3.22,2.544,3.22,1.453,0,2.543-1.368,2.543-3.254,0-1.42-.709-3.22-2.509-3.22s-2.579,1.661-2.579,3.254" transform="translate(-10.152 -9.192)" fill="#fff"/>
      <path id="패스_2793" data-name="패스 2793" d="M167.937,144.73c0-.866-.018-1.575-.07-2.267h1.352l.086,1.384h.035a3.081,3.081,0,0,1,2.77-1.575c1.159,0,2.959.693,2.959,3.566v5h-1.523v-4.828c0-1.352-.5-2.476-1.938-2.476a2.165,2.165,0,0,0-2.043,1.557,2.223,2.223,0,0,0-.1.71v5.037h-1.523Z" transform="translate(-10.846 -9.192)" fill="#fff"/>
      <path id="패스_2794" data-name="패스 2794" d="M185.393,142.463c-.035.606-.069,1.281-.069,2.3v4.863c0,1.922-.381,3.1-1.194,3.827a4.446,4.446,0,0,1-3.047,1,5.418,5.418,0,0,1-2.787-.692l.381-1.16a4.735,4.735,0,0,0,2.458.658c1.557,0,2.7-.814,2.7-2.926V149.4H183.8a2.988,2.988,0,0,1-2.665,1.4c-2.077,0-3.566-1.765-3.566-4.085,0-2.839,1.852-4.448,3.773-4.448a2.783,2.783,0,0,1,2.613,1.454h.035l.069-1.264Zm-1.575,3.306a2.227,2.227,0,0,0-2.216-2.3c-1.454,0-2.492,1.229-2.492,3.167,0,1.644.831,3.012,2.475,3.012a2.226,2.226,0,0,0,2.112-1.557,2.666,2.666,0,0,0,.121-.814Z" transform="translate(-11.473 -9.192)" fill="#fff"/>
      <path id="패스_2795" data-name="패스 2795" d="M188.449,145.076c0-.987-.018-1.834-.069-2.613h1.333l.051,1.644h.069a2.514,2.514,0,0,1,2.32-1.834,1.652,1.652,0,0,1,.433.051v1.437a2.3,2.3,0,0,0-.519-.052,2.137,2.137,0,0,0-2.043,1.956,4.3,4.3,0,0,0-.069.71v4.466h-1.506Z" transform="translate(-12.171 -9.192)" fill="#fff"/>
      <path id="패스_2796" data-name="패스 2796" d="M195.128,146.928A2.685,2.685,0,0,0,198,149.836a5.517,5.517,0,0,0,2.319-.433l.26,1.09a6.788,6.788,0,0,1-2.787.519,3.889,3.889,0,0,1-4.119-4.222c0-2.527,1.489-4.518,3.929-4.518,2.735,0,3.462,2.406,3.462,3.946a5.886,5.886,0,0,1-.051.71Zm4.466-1.091a2.17,2.17,0,0,0-2.112-2.475,2.524,2.524,0,0,0-2.337,2.475Z" transform="translate(-12.513 -9.192)" fill="#fff"/>
      <path id="패스_2797" data-name="패스 2797" d="M203.347,149.283a3.987,3.987,0,0,0,2.008.606c1.107,0,1.627-.554,1.627-1.246,0-.728-.433-1.125-1.557-1.541-1.506-.537-2.216-1.368-2.216-2.372,0-1.35,1.091-2.457,2.891-2.457a4.185,4.185,0,0,1,2.06.519l-.382,1.107a3.258,3.258,0,0,0-1.713-.485c-.9,0-1.4.519-1.4,1.142,0,.692.5,1,1.592,1.42,1.455.554,2.2,1.281,2.2,2.527,0,1.47-1.142,2.509-3.133,2.509a4.782,4.782,0,0,1-2.354-.571Z" transform="translate(-13.114 -9.192)" fill="#fff"/>
      <path id="패스_2798" data-name="패스 2798" d="M210.678,149.283a3.987,3.987,0,0,0,2.008.606c1.108,0,1.627-.554,1.627-1.246,0-.728-.433-1.125-1.557-1.541-1.506-.537-2.216-1.368-2.216-2.372,0-1.35,1.092-2.457,2.89-2.457a4.186,4.186,0,0,1,2.061.519l-.382,1.107a3.258,3.258,0,0,0-1.713-.485c-.9,0-1.4.519-1.4,1.142,0,.692.5,1,1.592,1.42,1.455.554,2.2,1.281,2.2,2.527,0,1.47-1.143,2.509-3.134,2.509a4.779,4.779,0,0,1-2.354-.571Z" transform="translate(-13.587 -9.192)" fill="#fff"/>
      <path id="패스_2799" data-name="패스 2799" d="M229.72,146.581a4.094,4.094,0,0,1-4.172,4.449,3.984,3.984,0,0,1-4.016-4.31,4.091,4.091,0,0,1,4.154-4.448,3.967,3.967,0,0,1,4.033,4.309m-6.647.087c0,1.835,1.055,3.22,2.545,3.22,1.454,0,2.543-1.368,2.543-3.254,0-1.42-.71-3.22-2.509-3.22s-2.58,1.661-2.58,3.254" transform="translate(-14.313 -9.192)" fill="#fff"/>
      <path id="패스_2800" data-name="패스 2800" d="M232.339,144.73c0-.866-.018-1.575-.07-2.267h1.352l.086,1.384h.035a3.081,3.081,0,0,1,2.77-1.575c1.159,0,2.959.693,2.959,3.566v5h-1.523v-4.828c0-1.352-.5-2.476-1.938-2.476a2.165,2.165,0,0,0-2.043,1.557,2.223,2.223,0,0,0-.1.71v5.037h-1.523Z" transform="translate(-15.007 -9.192)" fill="#fff"/>
      <path id="패스_2801" data-name="패스 2801" d="M257.056,144.658c0,3.826-2.321,6.145-5.73,6.145-3.462,0-5.487-2.613-5.487-5.937,0-3.5,2.233-6.11,5.678-6.11,3.583,0,5.539,2.683,5.539,5.9m-8.431.156c0,2.284,1.074,3.894,2.839,3.894,1.783,0,2.8-1.7,2.8-3.964,0-2.094-1-3.894-2.821-3.894-1.783,0-2.822,1.7-2.822,3.964" transform="translate(-15.884 -8.965)" fill="#fff"/>
      <path id="패스_2802" data-name="패스 2802" d="M259.741,150.583c.035-.572.069-1.419.069-2.164V138.293h1.506v5.263h.035a3.119,3.119,0,0,1,2.856-1.541c2.077,0,3.548,1.73,3.532,4.276,0,2.994-1.888,4.482-3.757,4.482a2.985,2.985,0,0,1-2.8-1.574h-.052l-.068,1.384Zm1.575-3.358a2.849,2.849,0,0,0,.069.554,2.35,2.35,0,0,0,2.285,1.783c1.592,0,2.544-1.3,2.544-3.22,0-1.679-.865-3.115-2.492-3.115A2.429,2.429,0,0,0,261.4,145.1a3.07,3.07,0,0,0-.086.623Z" transform="translate(-16.782 -8.935)" fill="#fff"/>
      <path id="패스_2803" data-name="패스 2803" d="M271.156,146.928a2.684,2.684,0,0,0,2.873,2.908,5.517,5.517,0,0,0,2.319-.433l.26,1.09a6.787,6.787,0,0,1-2.787.519,3.889,3.889,0,0,1-4.119-4.222c0-2.527,1.489-4.518,3.93-4.518,2.734,0,3.462,2.406,3.462,3.946a5.834,5.834,0,0,1-.052.71Zm4.466-1.091a2.169,2.169,0,0,0-2.112-2.475,2.524,2.524,0,0,0-2.337,2.475Z" transform="translate(-17.425 -9.192)" fill="#fff"/>
      <path id="패스_2804" data-name="패스 2804" d="M279.373,149.283a3.987,3.987,0,0,0,2.008.606c1.108,0,1.627-.554,1.627-1.246,0-.728-.433-1.125-1.558-1.541-1.505-.537-2.215-1.368-2.215-2.372,0-1.35,1.092-2.457,2.89-2.457a4.186,4.186,0,0,1,2.061.519L283.8,143.9a3.257,3.257,0,0,0-1.713-.485c-.9,0-1.4.519-1.4,1.142,0,.692.5,1,1.592,1.42,1.455.554,2.2,1.281,2.2,2.527,0,1.47-1.143,2.509-3.134,2.509a4.779,4.779,0,0,1-2.354-.571Z" transform="translate(-18.026 -9.192)" fill="#fff"/>
      <path id="패스_2805" data-name="패스 2805" d="M288.637,139.893a.944.944,0,0,1-1.888,0,.928.928,0,0,1,.952-.952.9.9,0,0,1,.935.952m-1.7,2.353h1.524v8.378H286.94Z" transform="translate(-18.527 -8.977)" fill="#fff"/>
      <path id="패스_2806" data-name="패스 2806" d="M293.053,139.9v2.406h2.18v1.16h-2.18v4.517c0,1.039.295,1.627,1.142,1.627a3.426,3.426,0,0,0,.883-.1l.068,1.142a3.716,3.716,0,0,1-1.35.208,2.109,2.109,0,0,1-1.644-.641,3.1,3.1,0,0,1-.588-2.18V143.47h-1.3v-1.16h1.3V140.3Z" transform="translate(-18.754 -9.039)" fill="#fff"/>
      <path id="패스_2807" data-name="패스 2807" d="M298.056,142.475l1.835,4.95c.19.554.4,1.212.536,1.714h.035c.155-.5.328-1.142.537-1.747l1.661-4.916h1.61l-2.285,5.972c-1.091,2.874-1.834,4.345-2.874,5.245a4.126,4.126,0,0,1-1.869.987l-.38-1.281a4.024,4.024,0,0,0,1.332-.744,4.637,4.637,0,0,0,1.282-1.7,1.122,1.122,0,0,0,.121-.364,1.31,1.31,0,0,0-.1-.4l-3.1-7.72Z" transform="translate(-19.15 -9.205)" fill="#fff"/>
      <path id="패스_2808" data-name="패스 2808" d="M5.087,173.054,4.971,172H4.92a2.958,2.958,0,0,1-2.459,1.247A2.339,2.339,0,0,1,0,170.838c0-2.025,1.729-3.133,4.838-3.116v-.173a1.7,1.7,0,0,0-1.829-1.938,3.9,3.9,0,0,0-2.094.622l-.332-1a4.85,4.85,0,0,1,2.642-.744c2.46,0,3.059,1.747,3.059,3.427v3.133a12.246,12.246,0,0,0,.133,2.008Zm-.216-4.276c-1.6-.035-3.408.26-3.408,1.887a1.321,1.321,0,0,0,1.38,1.455,2.009,2.009,0,0,0,1.945-1.4,1.633,1.633,0,0,0,.083-.485Z" transform="translate(0 -10.628)" fill="#fff"/>
      <path id="패스_2809" data-name="패스 2809" d="M9.129,166.944c0-.865-.017-1.574-.066-2.267h1.3l.083,1.384h.033a2.943,2.943,0,0,1,2.659-1.574c1.114,0,2.843.692,2.843,3.565v5H14.515v-4.828c0-1.351-.483-2.475-1.861-2.475a2.094,2.094,0,0,0-1.962,1.557,2.272,2.272,0,0,0-.1.709v5.037H9.129Z" transform="translate(-0.586 -10.628)" fill="#fff"/>
      <path id="패스_2810" data-name="패스 2810" d="M25.8,160.508v10.126c0,.744.017,1.592.066,2.164H24.552l-.065-1.455h-.035a2.959,2.959,0,0,1-2.742,1.645c-1.945,0-3.44-1.715-3.44-4.259-.017-2.787,1.644-4.5,3.607-4.5A2.664,2.664,0,0,1,24.3,165.51h.033v-5Zm-1.463,7.321a2.814,2.814,0,0,0-.066-.641,2.174,2.174,0,0,0-2.11-1.766c-1.513,0-2.41,1.385-2.41,3.237,0,1.7.8,3.1,2.377,3.1a2.222,2.222,0,0,0,2.144-1.817,2.772,2.772,0,0,0,.066-.659Z" transform="translate(-1.18 -10.371)" fill="#fff"/>
      <path id="패스_2811" data-name="패스 2811" d="M42.24,168.374c-.051-1.4-.1-3.1-.1-4.795h-.051c-.364,1.489-.848,3.15-1.3,4.518l-1.42,4.553H37.307l-1.247-4.518c-.381-1.368-.778-3.029-1.055-4.553H34.97c-.068,1.576-.121,3.375-.208,4.829l-.208,4.431H32.115l.744-11.666h3.514l1.142,3.895c.363,1.35.727,2.8.987,4.171h.051c.329-1.35.727-2.89,1.107-4.189l1.247-3.877h3.444l.641,11.666h-2.58Z" transform="translate(-2.075 -10.414)" fill="#fff"/>
      <path id="패스_2812" data-name="패스 2812" d="M54.888,167.907H50.6v2.77h4.794v2.163H47.947V161.173h7.2v2.164H50.6v2.423h4.293Z" transform="translate(-3.098 -10.414)" fill="#fff"/>
      <path id="패스_2813" data-name="패스 2813" d="M59.5,162.117v2.406h2.094v1.16H59.5V170.2c0,1.038.282,1.627,1.1,1.627a3.146,3.146,0,0,0,.847-.1l.067,1.142a3.463,3.463,0,0,1-1.3.209,1.985,1.985,0,0,1-1.58-.642,3.194,3.194,0,0,1-.564-2.18v-4.569H56.823v-1.16h1.248v-2.007Z" transform="translate(-3.671 -10.475)" fill="#fff"/>
      <path id="패스_2814" data-name="패스 2814" d="M67.987,173.054,67.871,172H67.82a2.959,2.959,0,0,1-2.459,1.247,2.339,2.339,0,0,1-2.461-2.407c0-2.025,1.729-3.133,4.838-3.116v-.173a1.7,1.7,0,0,0-1.829-1.938,3.9,3.9,0,0,0-2.094.622l-.332-1a4.85,4.85,0,0,1,2.642-.744c2.46,0,3.059,1.747,3.059,3.427v3.133a12.246,12.246,0,0,0,.133,2.008Zm-.216-4.276c-1.6-.035-3.408.26-3.408,1.887a1.321,1.321,0,0,0,1.38,1.455,2.009,2.009,0,0,0,1.945-1.4,1.633,1.633,0,0,0,.083-.485Z" transform="translate(-4.064 -10.628)" fill="#fff"/>
      <path id="패스_2815" data-name="패스 2815" d="M71.964,172.8c.034-.572.066-1.42.066-2.164V160.508h1.446v5.262h.033a2.973,2.973,0,0,1,2.744-1.541c1.994,0,3.408,1.73,3.39,4.276,0,2.994-1.811,4.483-3.607,4.483a2.845,2.845,0,0,1-2.692-1.575h-.05l-.067,1.384Zm1.513-3.358a2.838,2.838,0,0,0,.067.554,2.274,2.274,0,0,0,2.193,1.783c1.529,0,2.442-1.3,2.442-3.219,0-1.679-.831-3.117-2.393-3.117a2.354,2.354,0,0,0-2.227,1.871,3.065,3.065,0,0,0-.083.622Z" transform="translate(-4.65 -10.371)" fill="#fff"/>
      <path id="패스_2816" data-name="패스 2816" d="M89.28,168.8c0,3.1-2.062,4.449-4.006,4.449-2.178,0-3.856-1.662-3.856-4.31,0-2.8,1.761-4.449,3.989-4.449,2.31,0,3.873,1.748,3.873,4.31m-6.383.086c0,1.835,1.014,3.22,2.443,3.22,1.4,0,2.444-1.368,2.444-3.254,0-1.419-.682-3.219-2.411-3.219S82.9,167.29,82.9,168.882" transform="translate(-5.26 -10.628)" fill="#fff"/>
      <rect id="사각형_788" data-name="사각형 788" width="1.463" height="12.289" transform="translate(85.766 150.137)" fill="#fff"/>
      <path id="패스_2817" data-name="패스 2817" d="M97.393,162.107a.906.906,0,1,1-1.811,0,.91.91,0,0,1,.914-.952.887.887,0,0,1,.9.952m-1.629,2.353h1.463v8.378H95.764Z" transform="translate(-6.176 -10.412)" fill="#fff"/>
      <path id="패스_2818" data-name="패스 2818" d="M105.523,172.743a5.194,5.194,0,0,1-2.31.485c-2.426,0-4.005-1.715-4.005-4.276a4.173,4.173,0,0,1,4.322-4.449,4.728,4.728,0,0,1,2.028.433l-.333,1.177a3.281,3.281,0,0,0-1.695-.4c-1.846,0-2.843,1.42-2.843,3.168a2.825,2.825,0,0,0,2.793,3.134,4.021,4.021,0,0,0,1.794-.416Z" transform="translate(-6.41 -10.629)" fill="#fff"/>
      <path id="패스_2819" data-name="패스 2819" d="M111.324,170.11a6.738,6.738,0,0,0,2.925.726c1.212,0,1.853-.5,1.853-1.263,0-.727-.554-1.142-1.956-1.644-1.939-.675-3.2-1.748-3.2-3.445,0-1.99,1.662-3.513,4.414-3.513a7.151,7.151,0,0,1,2.977.588l-.588,2.129a5.56,5.56,0,0,0-2.441-.554c-1.142,0-1.7.519-1.7,1.125,0,.744.658,1.073,2.164,1.644,2.06.761,3.029,1.835,3.029,3.479,0,1.957-1.506,3.618-4.708,3.618a7.631,7.631,0,0,1-3.307-.71Z" transform="translate(-7.158 -10.4)" fill="#fff"/>
      <path id="패스_2820" data-name="패스 2820" d="M121.692,164.689l1.761,4.951c.183.554.383,1.211.515,1.713H124c.15-.5.316-1.141.515-1.747l1.6-4.916h1.545l-2.193,5.972c-1.047,2.874-1.762,4.345-2.759,5.246a3.905,3.905,0,0,1-1.795.986l-.366-1.281a3.836,3.836,0,0,0,1.28-.745,4.59,4.59,0,0,0,1.23-1.7,1.11,1.11,0,0,0,.116-.364,1.382,1.382,0,0,0-.1-.4l-2.976-7.721Z" transform="translate(-7.759 -10.641)" fill="#fff"/>
      <path id="패스_2821" data-name="패스 2821" d="M129.492,166.944c0-.865-.017-1.574-.066-2.267h1.3l.083,1.384h.033a2.943,2.943,0,0,1,2.659-1.574c1.114,0,2.844.692,2.844,3.565v5h-1.463v-4.828c0-1.351-.483-2.475-1.861-2.475a2.092,2.092,0,0,0-1.962,1.557,2.243,2.243,0,0,0-.1.709v5.037h-1.463Z" transform="translate(-8.362 -10.628)" fill="#fff"/>
      <path id="패스_2822" data-name="패스 2822" d="M146.162,160.508v10.126c0,.744.016,1.592.066,2.164h-1.313l-.066-1.455h-.034a2.958,2.958,0,0,1-2.742,1.645c-1.945,0-3.44-1.715-3.44-4.259-.017-2.787,1.644-4.5,3.607-4.5a2.664,2.664,0,0,1,2.426,1.281h.033v-5Zm-1.463,7.321a2.814,2.814,0,0,0-.066-.641,2.174,2.174,0,0,0-2.11-1.766c-1.513,0-2.411,1.385-2.411,3.237,0,1.7.8,3.1,2.377,3.1a2.222,2.222,0,0,0,2.144-1.817,2.772,2.772,0,0,0,.066-.659Z" transform="translate(-8.957 -10.371)" fill="#fff"/>
      <path id="패스_2823" data-name="패스 2823" d="M149.165,167.29c0-.987-.017-1.835-.066-2.614h1.28l.05,1.645h.066a2.434,2.434,0,0,1,2.227-1.835,1.523,1.523,0,0,1,.415.052v1.436a2.117,2.117,0,0,0-.5-.051,2.088,2.088,0,0,0-1.961,1.955,4.319,4.319,0,0,0-.067.71v4.466h-1.446Z" transform="translate(-9.633 -10.628)" fill="#fff"/>
      <path id="패스_2824" data-name="패스 2824" d="M161.937,168.8c0,3.1-2.061,4.449-4.005,4.449-2.178,0-3.856-1.662-3.856-4.31,0-2.8,1.761-4.449,3.988-4.449,2.31,0,3.873,1.748,3.873,4.31m-6.382.086c0,1.835,1.013,3.22,2.443,3.22,1.4,0,2.443-1.368,2.443-3.254,0-1.419-.682-3.219-2.41-3.219s-2.477,1.661-2.477,3.253" transform="translate(-9.955 -10.628)" fill="#fff"/>
      <path id="패스_2825" data-name="패스 2825" d="M164.342,166.944c0-.865-.017-1.574-.066-2.267h1.28l.067,1.351h.049a2.761,2.761,0,0,1,2.526-1.541,2.387,2.387,0,0,1,2.278,1.679h.034a3.4,3.4,0,0,1,.9-1.091,2.671,2.671,0,0,1,1.779-.588c1.064,0,2.643.727,2.643,3.635v4.932H174.4v-4.742c0-1.61-.566-2.579-1.745-2.579a1.907,1.907,0,0,0-1.729,1.384,2.605,2.605,0,0,0-.116.761v5.176h-1.43v-5.019c0-1.333-.565-2.3-1.679-2.3a2.019,2.019,0,0,0-1.811,1.523,2.175,2.175,0,0,0-.117.744v5.055h-1.429Z" transform="translate(-10.614 -10.628)" fill="#fff"/>
      <path id="패스_2826" data-name="패스 2826" d="M179.837,169.142a2.629,2.629,0,0,0,2.759,2.907,5.11,5.11,0,0,0,2.227-.432l.25,1.09a6.279,6.279,0,0,1-2.676.52c-2.477,0-3.957-1.7-3.957-4.223s1.429-4.518,3.773-4.518c2.627,0,3.324,2.406,3.324,3.946a6.169,6.169,0,0,1-.05.71Zm4.288-1.091c.018-.969-.382-2.475-2.028-2.475-1.479,0-2.127,1.419-2.244,2.475Z" transform="translate(-11.529 -10.628)" fill="#fff"/>
      <path id="패스_2827" data-name="패스 2827" d="M191.518,160.508h1.463v5.227h.033a2.778,2.778,0,0,1,1.048-1.073,2.921,2.921,0,0,1,1.5-.433c1.081,0,2.81.693,2.81,3.583V172.8H196.9v-4.812c0-1.351-.483-2.493-1.861-2.493a2.116,2.116,0,0,0-1.962,1.524,1.888,1.888,0,0,0-.1.726V172.8h-1.463Z" transform="translate(-12.374 -10.371)" fill="#fff"/>
      <path id="패스_2828" data-name="패스 2828" d="M208.515,168.8c0,3.1-2.061,4.449-4.005,4.449-2.178,0-3.856-1.662-3.856-4.31,0-2.8,1.761-4.449,3.988-4.449,2.31,0,3.872,1.748,3.872,4.31m-6.382.086c0,1.835,1.013,3.22,2.443,3.22,1.4,0,2.443-1.368,2.443-3.254,0-1.419-.682-3.219-2.41-3.219s-2.477,1.661-2.477,3.253" transform="translate(-12.964 -10.628)" fill="#fff"/>
      <path id="패스_2829" data-name="패스 2829" d="M210.687,171.5a3.715,3.715,0,0,0,1.927.606c1.064,0,1.562-.554,1.562-1.246,0-.728-.415-1.125-1.5-1.541-1.445-.537-2.127-1.368-2.127-2.372a2.519,2.519,0,0,1,2.774-2.457,3.885,3.885,0,0,1,1.978.519l-.365,1.108a3.051,3.051,0,0,0-1.646-.485,1.191,1.191,0,0,0-1.346,1.142c0,.692.483,1,1.529,1.42,1.4.554,2.111,1.281,2.111,2.527,0,1.47-1.1,2.51-3.009,2.51a4.441,4.441,0,0,1-2.26-.572Z" transform="translate(-13.589 -10.628)" fill="#fff"/>
      <path id="패스_2830" data-name="패스 2830" d="M219.554,162.117v2.406h2.094v1.16h-2.094V170.2c0,1.038.283,1.627,1.1,1.627a3.151,3.151,0,0,0,.847-.1l.066,1.142a3.454,3.454,0,0,1-1.3.209,1.986,1.986,0,0,1-1.58-.642,3.194,3.194,0,0,1-.564-2.18v-4.569h-1.248v-1.16h1.248v-2.007Z" transform="translate(-14.012 -10.475)" fill="#fff"/>
      <path id="패스_2831" data-name="패스 2831" d="M224.3,169.142a2.629,2.629,0,0,0,2.759,2.907,5.11,5.11,0,0,0,2.227-.432l.25,1.09a6.279,6.279,0,0,1-2.676.52c-2.477,0-3.956-1.7-3.956-4.223s1.428-4.518,3.772-4.518c2.627,0,3.324,2.406,3.324,3.946a6.168,6.168,0,0,1-.05.71Zm4.288-1.091c.018-.969-.382-2.475-2.028-2.475-1.479,0-2.127,1.419-2.244,2.475Z" transform="translate(-14.402 -10.628)" fill="#fff"/>
      <path id="패스_2832" data-name="패스 2832" d="M239.229,160.508v10.126c0,.744.017,1.592.066,2.164h-1.313l-.065-1.455h-.035a2.959,2.959,0,0,1-2.742,1.645c-1.945,0-3.44-1.715-3.44-4.259-.017-2.787,1.644-4.5,3.607-4.5a2.664,2.664,0,0,1,2.426,1.281h.033v-5Zm-1.463,7.321a2.814,2.814,0,0,0-.066-.641,2.174,2.174,0,0,0-2.11-1.766c-1.513,0-2.41,1.385-2.41,3.237,0,1.7.8,3.1,2.377,3.1a2.222,2.222,0,0,0,2.144-1.817,2.772,2.772,0,0,0,.066-.659Z" transform="translate(-14.97 -10.371)" fill="#fff"/>
      <path id="패스_2833" data-name="패스 2833" d="M245.827,172.8c.034-.572.066-1.42.066-2.164V160.508h1.446v5.262h.033a2.973,2.973,0,0,1,2.743-1.541c1.994,0,3.407,1.73,3.39,4.276,0,2.994-1.811,4.483-3.607,4.483a2.845,2.845,0,0,1-2.692-1.575h-.05l-.067,1.384Zm1.513-3.358a2.914,2.914,0,0,0,.066.554,2.275,2.275,0,0,0,2.194,1.783c1.528,0,2.442-1.3,2.442-3.219,0-1.679-.831-3.117-2.393-3.117a2.354,2.354,0,0,0-2.227,1.871,3.064,3.064,0,0,0-.083.622Z" transform="translate(-15.883 -10.371)" fill="#fff"/>
      <path id="패스_2834" data-name="패스 2834" d="M256.238,164.689,258,169.64c.183.554.383,1.211.515,1.713h.035c.149-.5.315-1.141.514-1.747l1.6-4.916H262.2l-2.2,5.972c-1.046,2.874-1.761,4.345-2.758,5.246a3.9,3.9,0,0,1-1.795.986l-.366-1.281a3.848,3.848,0,0,0,1.281-.745,4.6,4.6,0,0,0,1.229-1.7,1.109,1.109,0,0,0,.116-.364,1.359,1.359,0,0,0-.1-.4l-2.975-7.721Z" transform="translate(-16.452 -10.641)" fill="#fff"/>
      <path id="패스_2835" data-name="패스 2835" d="M267.757,161.173H269.2V166.8h.05c.3-.451.6-.866.88-1.247l3.424-4.379h1.8l-4.057,4.95,4.372,6.717h-1.713l-3.69-5.73-1.063,1.281v4.449h-1.445Z" transform="translate(-17.3 -10.414)" fill="#fff"/>
      <path id="패스_2836" data-name="패스 2836" d="M277.043,170.992a4.977,4.977,0,0,0,2.593.762c1.48,0,2.343-.814,2.343-1.991,0-1.09-.6-1.714-2.11-2.319-1.829-.675-2.959-1.662-2.959-3.306,0-1.818,1.446-3.168,3.623-3.168a4.921,4.921,0,0,1,2.477.572l-.4,1.229a4.318,4.318,0,0,0-2.128-.554c-1.529,0-2.11.951-2.11,1.747,0,1.091.681,1.628,2.227,2.251,1.894.761,2.859,1.714,2.859,3.427,0,1.8-1.28,3.358-3.922,3.358a5.615,5.615,0,0,1-2.859-.745Z" transform="translate(-17.876 -10.4)" fill="#fff"/>
      <path id="패스_2837" data-name="패스 2837" d="M285.7,170.992a4.976,4.976,0,0,0,2.593.762c1.48,0,2.343-.814,2.343-1.991,0-1.09-.6-1.714-2.11-2.319-1.829-.675-2.959-1.662-2.959-3.306,0-1.818,1.446-3.168,3.623-3.168a4.921,4.921,0,0,1,2.477.572l-.4,1.229a4.318,4.318,0,0,0-2.128-.554c-1.529,0-2.11.951-2.11,1.747,0,1.091.681,1.628,2.227,2.251,1.894.761,2.858,1.714,2.858,3.427,0,1.8-1.28,3.358-3.922,3.358a5.614,5.614,0,0,1-2.859-.745Z" transform="translate(-18.435 -10.4)" fill="#fff"/>
      <path id="패스_2838" data-name="패스 2838" d="M304.119,166.872c0,4.016-2.343,6.146-5.2,6.146-2.958,0-5.035-2.389-5.035-5.921,0-3.7,2.21-6.127,5.2-6.127,3.058,0,5.035,2.44,5.035,5.9m-8.693.191c0,2.493,1.3,4.726,3.574,4.726,2.294,0,3.59-2.2,3.59-4.847,0-2.32-1.164-4.742-3.574-4.742-2.394,0-3.59,2.3-3.59,4.864" transform="translate(-18.988 -10.4)" fill="#fff"/>
    </g>
  </g>
</svg>
