<svg id="그룹_1468" data-name="그룹 1468" xmlns="http://www.w3.org/2000/svg" xmlns:xlink="http://www.w3.org/1999/xlink" width="203.912" height="52.98" viewBox="0 0 203.912 52.98">
  <defs>
    <clipPath id="clip-path">
      <rect id="사각형_739" data-name="사각형 739" width="203.912" height="52.98" fill="#07013a"/>
    </clipPath>
  </defs>
  <g id="그룹_1409" data-name="그룹 1409" transform="translate(0 0)" clip-path="url(#clip-path)">
    <path id="패스_1614" data-name="패스 1614" d="M.518,9.017V.51H2.285l2.2,3.648A23.43,23.43,0,0,1,5.933,7.01h.025c-.1-1.135-.139-2.234-.139-3.533V.51H7.258V9.017h-1.6L3.434,5.281A29.21,29.21,0,0,1,1.908,2.34l-.04.013c.064,1.1.076,2.221.076,3.623V9.017Z" transform="translate(0.001 0.001)" fill="#07013a"/>
    <path id="패스_1615" data-name="패스 1615" d="M14.816,5.882a3.045,3.045,0,0,1-3.156,3.269A2.972,2.972,0,0,1,8.58,5.983a3.036,3.036,0,0,1,3.182-3.257,2.949,2.949,0,0,1,3.054,3.156m-4.633.063c0,1.187.581,2.082,1.527,2.082.884,0,1.5-.871,1.5-2.107,0-.959-.429-2.057-1.489-2.057-1.1,0-1.54,1.06-1.54,2.082" transform="translate(0.018 0.006)" fill="#07013a"/>
    <path id="패스_1616" data-name="패스 1616" d="M16.91,2.865l.644,2.79c.138.655.278,1.325.391,1.994h.025c.126-.669.329-1.351.505-1.982l.8-2.8h1.262l.77,2.727c.189.719.354,1.388.493,2.057h.025c.1-.669.24-1.339.4-2.057l.681-2.727h1.527L22.5,9.012H21.063l-.733-2.5a18.679,18.679,0,0,1-.466-1.969H19.84a16.283,16.283,0,0,1-.468,1.969l-.783,2.5H17.138L15.32,2.865Z" transform="translate(0.032 0.006)" fill="#07013a"/>
    <path id="패스_1617" data-name="패스 1617" d="M29.673,1.154a.872.872,0,0,1-1.743,0,.872.872,0,0,1,1.743,0M28.018,2.87h1.565V9.017H28.018Z" transform="translate(0.059 0.001)" fill="#07013a"/>
    <path id="패스_1618" data-name="패스 1618" d="M31.169,7.586a3.469,3.469,0,0,0,1.578.442c.681,0,.984-.278.984-.681s-.253-.631-1.009-.9c-1.2-.416-1.7-1.072-1.692-1.792a2.057,2.057,0,0,1,2.322-1.931,3.6,3.6,0,0,1,1.628.366l-.3,1.1a2.762,2.762,0,0,0-1.3-.354c-.555,0-.858.266-.858.643s.291.581,1.072.859c1.111.4,1.629.972,1.641,1.881,0,1.11-.871,1.918-2.5,1.918a3.963,3.963,0,0,1-1.868-.429Z" transform="translate(0.065 0.006)" fill="#07013a"/>
    <path id="패스_1619" data-name="패스 1619" d="M40.885,1.115V2.87h1.477V4.03H40.885V6.744c0,.746.2,1.136.8,1.136a2.282,2.282,0,0,0,.605-.076l.025,1.187a3.41,3.41,0,0,1-1.123.151,1.8,1.8,0,0,1-1.338-.5,2.448,2.448,0,0,1-.479-1.717V4.03h-.884V2.87h.884V1.481Z" transform="translate(0.082 0.002)" fill="#07013a"/>
    <path id="패스_1620" data-name="패스 1620" d="M43.526.056h1.565V3.717h.025a2.219,2.219,0,0,1,1.83-.984c1.048,0,2.146.693,2.146,2.663V9.018H47.539V5.572c0-.9-.328-1.564-1.187-1.564a1.266,1.266,0,0,0-1.2.871,1.311,1.311,0,0,0-.063.467V9.018H43.526Z" transform="translate(0.092 0)" fill="#07013a"/>
    <path id="패스_1621" data-name="패스 1621" d="M51.829,6.374a1.671,1.671,0,0,0,1.894,1.59,4.624,4.624,0,0,0,1.7-.278l.227,1.073a5.792,5.792,0,0,1-2.146.379A2.909,2.909,0,0,1,50.34,6.033a3.044,3.044,0,0,1,3-3.307c1.994,0,2.651,1.641,2.651,2.991a3.841,3.841,0,0,1-.05.656Zm2.7-1.085a1.321,1.321,0,0,0-1.275-1.5,1.521,1.521,0,0,0-1.427,1.5Z" transform="translate(0.107 0.006)" fill="#07013a"/>
    <path id="패스_1622" data-name="패스 1622" d="M61.028,1.81H58.605V.51H65.03v1.3H62.581V9.017H61.028Z" transform="translate(0.124 0.001)" fill="#07013a"/>
    <path id="패스_1623" data-name="패스 1623" d="M67.376,1.154a.872.872,0,0,1-1.742,0,.871.871,0,0,1,1.742,0M65.722,2.87h1.565V9.017H65.722Z" transform="translate(0.139 0.001)" fill="#07013a"/>
    <path id="패스_1624" data-name="패스 1624" d="M68.947,4.7c0-.706-.013-1.3-.05-1.83h1.338l.063.909h.038a2.125,2.125,0,0,1,1.893-1.048,1.774,1.774,0,0,1,1.7,1.136h.025a2.318,2.318,0,0,1,.757-.77,2.05,2.05,0,0,1,1.238-.367c1.022,0,2.057.694,2.057,2.664V9.012H76.5v-3.4c0-1.023-.353-1.628-1.1-1.628a1.184,1.184,0,0,0-1.085.821,2.21,2.21,0,0,0-.075.517V9.012H72.721V5.453c0-.859-.341-1.464-1.06-1.464a1.212,1.212,0,0,0-1.11.883,1.334,1.334,0,0,0-.089.505V9.012H68.947Z" transform="translate(0.146 0.006)" fill="#07013a"/>
    <path id="패스_1625" data-name="패스 1625" d="M80.728,6.374a1.67,1.67,0,0,0,1.894,1.59,4.624,4.624,0,0,0,1.7-.278l.227,1.073a5.788,5.788,0,0,1-2.146.379,2.909,2.909,0,0,1-3.169-3.106,3.044,3.044,0,0,1,3-3.307c1.994,0,2.651,1.641,2.651,2.991a3.84,3.84,0,0,1-.05.656Zm2.7-1.085a1.322,1.322,0,0,0-1.275-1.5,1.521,1.521,0,0,0-1.427,1.5Z" transform="translate(0.168 0.006)" fill="#07013a"/>
    <path id="패스_1626" data-name="패스 1626" d="M90.519,1.115V2.87H92V4.03H90.519V6.744c0,.746.2,1.136.8,1.136A2.283,2.283,0,0,0,91.92,7.8l.025,1.187a3.41,3.41,0,0,1-1.123.151,1.8,1.8,0,0,1-1.338-.5A2.448,2.448,0,0,1,89,6.921V4.03h-.884V2.87H89V1.481Z" transform="translate(0.187 0.002)" fill="#07013a"/>
    <path id="패스_1627" data-name="패스 1627" d="M98.929,5.882a3.045,3.045,0,0,1-3.156,3.269,2.972,2.972,0,0,1-3.081-3.168,3.036,3.036,0,0,1,3.182-3.257,2.95,2.95,0,0,1,3.054,3.156M94.3,5.945c0,1.187.581,2.082,1.527,2.082.884,0,1.5-.871,1.5-2.107,0-.959-.429-2.057-1.489-2.057-1.1,0-1.54,1.06-1.54,2.082" transform="translate(0.197 0.006)" fill="#07013a"/>
    <path id="패스_1628" data-name="패스 1628" d="M108.839,8.709a5.374,5.374,0,0,1-2.2.379A4.013,4.013,0,0,1,102.3,4.809,4.279,4.279,0,0,1,106.845.315a4.882,4.882,0,0,1,2.07.379l-.341,1.237a4.143,4.143,0,0,0-1.667-.328,2.832,2.832,0,0,0-2.978,3.13A2.792,2.792,0,0,0,106.895,7.8a4.345,4.345,0,0,0,1.692-.316Z" transform="translate(0.217 0.001)" fill="#07013a"/>
    <path id="패스_1629" data-name="패스 1629" d="M116.234,5.826a3.045,3.045,0,0,1-3.156,3.269A2.972,2.972,0,0,1,110,5.927,3.036,3.036,0,0,1,113.18,2.67a2.949,2.949,0,0,1,3.054,3.156m-4.633.063c0,1.187.581,2.082,1.527,2.082.884,0,1.5-.871,1.5-2.107,0-.959-.429-2.057-1.489-2.057-1.1,0-1.54,1.06-1.54,2.082" transform="translate(0.233 0.006)" fill="#07013a"/>
    <path id="패스_1630" data-name="패스 1630" d="M118,4.639c0-.706-.013-1.3-.05-1.831h1.363l.076.922h.037a2.218,2.218,0,0,1,1.957-1.06c1.072,0,2.183.694,2.183,2.638V8.955h-1.552V5.485c0-.884-.328-1.552-1.173-1.552a1.3,1.3,0,0,0-1.212.909,1.587,1.587,0,0,0-.063.5v3.61H118Z" transform="translate(0.25 0.006)" fill="#07013a"/>
    <path id="패스_1631" data-name="패스 1631" d="M129.823,8.11H129.8a2.129,2.129,0,0,1-1.906.985c-1.376,0-2.575-1.2-2.575-3.118,0-2.247,1.44-3.308,2.752-3.308a1.936,1.936,0,0,1,1.793.947l.025.013.038-.821h1.5c-.025.555-.051,1.136-.051,1.78v6.867h-1.552Zm0-2.764a1.845,1.845,0,0,0-.038-.379,1.359,1.359,0,0,0-1.325-1.073c-1,0-1.565.846-1.565,2.007,0,1.123.542,1.969,1.527,1.969a1.361,1.361,0,0,0,1.325-1.022,1.573,1.573,0,0,0,.076-.48Z" transform="translate(0.266 0.006)" fill="#07013a"/>
    <path id="패스_1632" data-name="패스 1632" d="M139.034,7.112c0,.733.025,1.338.05,1.843h-1.363l-.076-.934h-.025a2.222,2.222,0,0,1-1.969,1.073c-1.123,0-2.146-.669-2.146-2.677V2.808h1.552V6.153c0,1.022.329,1.679,1.149,1.679A1.309,1.309,0,0,0,137.393,7a1.426,1.426,0,0,0,.087-.48V2.808h1.553Z" transform="translate(0.283 0.006)" fill="#07013a"/>
    <path id="패스_1633" data-name="패스 1633" d="M142.3,6.318a1.671,1.671,0,0,0,1.894,1.59,4.624,4.624,0,0,0,1.7-.278l.227,1.073a5.792,5.792,0,0,1-2.146.379,2.909,2.909,0,0,1-3.169-3.106,3.044,3.044,0,0,1,3-3.307c1.994,0,2.651,1.641,2.651,2.991a3.841,3.841,0,0,1-.05.656ZM145,5.232a1.321,1.321,0,0,0-1.275-1.5,1.52,1.52,0,0,0-1.427,1.5Z" transform="translate(0.299 0.006)" fill="#07013a"/>
    <path id="패스_1634" data-name="패스 1634" d="M148.205,4.79c0-.833-.013-1.426-.05-1.981h1.35l.051,1.173h.05a1.833,1.833,0,0,1,1.68-1.313,1.631,1.631,0,0,1,.365.038V4.172a2.161,2.161,0,0,0-.454-.05A1.367,1.367,0,0,0,149.808,5.3a2.675,2.675,0,0,0-.05.48V8.956h-1.553Z" transform="translate(0.314 0.006)" fill="#07013a"/>
    <path id="패스_1635" data-name="패스 1635" d="M163.919,4.619c0,2.853-1.73,4.48-4.078,4.48-2.4,0-3.912-1.83-3.912-4.329,0-2.613,1.641-4.455,4.039-4.455,2.486,0,3.951,1.881,3.951,4.3m-6.349.126c0,1.729.871,3.1,2.36,3.1s2.348-1.388,2.348-3.168c0-1.6-.8-3.118-2.348-3.118s-2.36,1.426-2.36,3.181" transform="translate(0.331 0.001)" fill="#07013a"/>
    <path id="패스_1636" data-name="패스 1636" d="M165.627,8.962c.025-.417.05-1.1.05-1.73V0h1.553V3.661h.025a2.222,2.222,0,0,1,1.969-.985c1.5,0,2.574,1.25,2.562,3.118,0,2.209-1.4,3.307-2.79,3.307a2.112,2.112,0,0,1-1.943-1.06h-.026l-.075.922Zm1.6-2.537a1.719,1.719,0,0,0,.038.366,1.433,1.433,0,0,0,1.376,1.086c.971,0,1.564-.784,1.564-2.02,0-1.085-.517-1.969-1.552-1.969a1.456,1.456,0,0,0-1.376,1.136,1.867,1.867,0,0,0-.05.4Z" transform="translate(0.351 0)" fill="#07013a"/>
    <path id="패스_1637" data-name="패스 1637" d="M174.649,6.318a1.67,1.67,0,0,0,1.894,1.59,4.624,4.624,0,0,0,1.7-.278l.228,1.073a5.788,5.788,0,0,1-2.146.379,2.909,2.909,0,0,1-3.169-3.106,3.044,3.044,0,0,1,3-3.307c1.994,0,2.651,1.641,2.651,2.991a3.84,3.84,0,0,1-.05.656Zm2.7-1.085a1.322,1.322,0,0,0-1.275-1.5,1.52,1.52,0,0,0-1.427,1.5Z" transform="translate(0.367 0.006)" fill="#07013a"/>
    <path id="패스_1638" data-name="패스 1638" d="M180.481,7.529a3.469,3.469,0,0,0,1.578.442c.682,0,.984-.278.984-.681s-.253-.631-1.009-.9c-1.2-.416-1.7-1.072-1.692-1.792a2.057,2.057,0,0,1,2.322-1.931,3.6,3.6,0,0,1,1.628.366l-.3,1.1a2.75,2.75,0,0,0-1.3-.354c-.555,0-.858.266-.858.643s.291.581,1.072.859c1.111.4,1.629.972,1.641,1.881,0,1.11-.871,1.918-2.5,1.918a3.963,3.963,0,0,1-1.868-.429Z" transform="translate(0.382 0.006)" fill="#07013a"/>
    <path id="패스_1639" data-name="패스 1639" d="M187.967,1.1a.872.872,0,0,1-1.743,0,.872.872,0,0,1,1.743,0m-1.655,1.717h1.565V8.96h-1.565Z" transform="translate(0.395 0)" fill="#07013a"/>
    <path id="패스_1640" data-name="패스 1640" d="M191.822,1.058V2.813H193.3V3.974h-1.476V6.688c0,.745.2,1.135.8,1.135a2.29,2.29,0,0,0,.605-.075l.025,1.186a3.378,3.378,0,0,1-1.123.152,1.8,1.8,0,0,1-1.338-.505,2.448,2.448,0,0,1-.479-1.717V3.974h-.884V2.813h.884V1.424Z" transform="translate(0.402 0.002)" fill="#07013a"/>
    <path id="패스_1641" data-name="패스 1641" d="M196.029,2.809l1.11,3.294c.126.379.253.846.341,1.2h.038c.1-.354.214-.808.329-1.212l.959-3.282h1.667L198.932,7c-.846,2.3-1.414,3.319-2.147,3.95a3.112,3.112,0,0,1-1.627.795l-.354-1.312a2.664,2.664,0,0,0,.909-.43,2.7,2.7,0,0,0,.846-.972.62.62,0,0,0,.1-.278.659.659,0,0,0-.089-.3l-2.246-5.642Z" transform="translate(0.412 0.006)" fill="#07013a"/>
    <rect id="사각형_735" data-name="사각형 735" width="5.273" height="26.234" transform="translate(0 15.404)" fill="#07013a"/>
    <path id="패스_1642" data-name="패스 1642" d="M20.846,36.5a7.972,7.972,0,0,1-7.974-7.974,7.764,7.764,0,0,1,2.343-5.647,7.6,7.6,0,0,1,5.631-2.344,7.734,7.734,0,0,1,5.43,2.148,15.348,15.348,0,0,1,2.864-4.533A13.269,13.269,0,0,0,20.83,15.16a12.807,12.807,0,0,0-9.39,3.922A12.908,12.908,0,0,0,7.534,28.5a12.819,12.819,0,0,0,3.906,9.407,12.9,12.9,0,0,0,9.39,3.873,13.2,13.2,0,0,0,8.335-2.9,15.168,15.168,0,0,1-2.883-4.529A7.691,7.691,0,0,1,20.846,36.5" transform="translate(0.016 0.032)" fill="#07013a"/>
    <path id="패스_1643" data-name="패스 1643" d="M50.1,19.082a12.848,12.848,0,0,1,3.921,9.423A13.306,13.306,0,0,1,40.7,41.784,13.28,13.28,0,0,1,27.384,28.505a12.908,12.908,0,0,1,3.906-9.423,13.24,13.24,0,0,1,18.813,0M35.049,22.825a7.974,7.974,0,0,0,0,11.294,7.994,7.994,0,0,0,11.278,0,7.938,7.938,0,0,0,0-11.294,7.957,7.957,0,0,0-11.278,0" transform="translate(0.058 0.032)" fill="#07013a"/>
    <path id="패스_1644" data-name="패스 1644" d="M69.062,32.379,81.9,14.754V41.606H76.629V30.735L69.062,41.183,61.478,30.735V41.606H56.206V14.754Z" transform="translate(0.119 0.031)" fill="#07013a"/>
    <path id="패스_1645" data-name="패스 1645" d="M100.911,15.306v5.256H90.365v5.289h7.909v5.257H90.365V36.4h10.545v5.241H85.092V15.306Z" transform="translate(0.18 0.032)" fill="#07013a"/>
    <path id="패스_1646" data-name="패스 1646" d="M110.46,36.441a3.06,3.06,0,0,0,3.063-2.666c0-2.4-3.215-2.729-5.029-3.357-3.2-1.09-6.024-3.717-6.024-7.288a8,8,0,0,1,15.93-1.106l-5.235,1.106a2.662,2.662,0,0,0-5.323.015c0,2.364,2.991,2.992,4.814,3.533,3.31.955,6.229,3.477,6.229,7.129,0,4.423-3.969,8-8.386,8a8.43,8.43,0,0,1-8.323-6.883l5.235-1.114a3.037,3.037,0,0,0,3.072,2.658Z" transform="translate(0.217 0.032)" fill="#07013a"/>
    <path id="패스_1647" data-name="패스 1647" d="M129.04,24.414h-5.252a9.328,9.328,0,0,1,18.655,0A9.273,9.273,0,0,1,141.18,29a22.091,22.091,0,0,1-3.161,4.279,30.563,30.563,0,0,1-2.95,2.869h7.261v5.235H123.691l.892-2.982a57.052,57.052,0,0,0,8.541-7.464,28.663,28.663,0,0,0,2.926-3.679,5.652,5.652,0,0,0,1.126-2.845,4.068,4.068,0,0,0-8.136,0" transform="translate(0.262 0.032)" fill="#07013a"/>
    <path id="패스_1648" data-name="패스 1648" d="M154.2,15.11a8.728,8.728,0,0,1,7.472,3.955,15.393,15.393,0,0,1,2.708,9.239,15.449,15.449,0,0,1-2.708,9.271,8.763,8.763,0,0,1-7.472,3.938c-6.452,0-10.179-6.187-10.179-13.209,0-7,3.75-13.194,10.179-13.194m-.016,5.284a3.817,3.817,0,0,0-3.209,1.7,10.553,10.553,0,0,0-1.719,6.208,10.411,10.411,0,0,0,1.719,6.207,3.892,3.892,0,0,0,6.435,0,10.441,10.441,0,0,0,1.7-6.207,10.538,10.538,0,0,0-1.7-6.208,3.834,3.834,0,0,0-3.226-1.7" transform="translate(0.305 0.032)" fill="#07013a"/>
    <path id="패스_1649" data-name="패스 1649" d="M171.294,24.414h-5.252a9.328,9.328,0,0,1,18.656,0A9.273,9.273,0,0,1,183.434,29a22.091,22.091,0,0,1-3.161,4.279,30.56,30.56,0,0,1-2.95,2.869h7.261v5.235H165.945l.892-2.982a57.052,57.052,0,0,0,8.541-7.464,28.664,28.664,0,0,0,2.926-3.679,5.652,5.652,0,0,0,1.126-2.845,4.068,4.068,0,0,0-8.136,0" transform="translate(0.352 0.032)" fill="#07013a"/>
    <path id="패스_1650" data-name="패스 1650" d="M198.217,32.81a4.46,4.46,0,0,0-1.636-3.379,7.333,7.333,0,0,0-4.717-1.629l1.1-2.172a5.55,5.55,0,0,0,3-1.353,3,3,0,0,0,.94-2.132l-.048.032a2.131,2.131,0,0,0-2.108-2.107,2.086,2.086,0,0,0-2.058,1.67l-5.219-1.118a7.551,7.551,0,0,1,7.277-5.867,7.416,7.416,0,0,1,7.423,7.44,7.259,7.259,0,0,1-1.442,4.441,2.134,2.134,0,0,1,.178.145,8.345,8.345,0,0,1,0,12.124,8.5,8.5,0,0,1-6.159,2.48A8.661,8.661,0,0,1,189.4,39.6a8.254,8.254,0,0,1-3.129-4.685l5.154-1.313a3.416,3.416,0,0,0,3.339,2.432,3.332,3.332,0,0,0,3.452-3.226" transform="translate(0.395 0.031)" fill="#07013a"/>
    <path id="패스_1651" data-name="패스 1651" d="M.01,51.527V51.2l.423-.411C1.449,49.818,1.909,49.3,1.915,48.7a.71.71,0,0,0-.79-.778,1.354,1.354,0,0,0-.846.337l-.171-.38a1.747,1.747,0,0,1,1.126-.4,1.12,1.12,0,0,1,1.22,1.157c0,.736-.533,1.33-1.371,2.138l-.32.294v.013H2.551v.447Z" transform="translate(0 0.101)" fill="#07013a"/>
    <path id="패스_1652" data-name="패스 1652" d="M5.794,49.492c0,1.354-.5,2.1-1.385,2.1-.778,0-1.3-.729-1.317-2.045,0-1.336.576-2.07,1.385-2.07.839,0,1.317.748,1.317,2.015m-2.163.061c0,1.035.319,1.623.809,1.623.551,0,.815-.643.815-1.66,0-.979-.252-1.622-.809-1.622-.471,0-.815.575-.815,1.66" transform="translate(0.007 0.101)" fill="#07013a"/>
    <path id="패스_1653" data-name="패스 1653" d="M6.283,51.527V51.2l.423-.411C7.722,49.818,8.182,49.3,8.188,48.7a.71.71,0,0,0-.79-.778,1.354,1.354,0,0,0-.846.337l-.171-.38a1.747,1.747,0,0,1,1.126-.4,1.121,1.121,0,0,1,1.22,1.157c0,.736-.533,1.33-1.372,2.138l-.319.294v.013H8.824v.447Z" transform="translate(0.013 0.101)" fill="#07013a"/>
    <path id="패스_1654" data-name="패스 1654" d="M9.549,50.907a1.794,1.794,0,0,0,.881.252c.692,0,.906-.441.9-.772-.006-.558-.508-.8-1.028-.8H10v-.4h.3c.392,0,.888-.2.888-.674,0-.318-.2-.6-.7-.6a1.462,1.462,0,0,0-.8.264l-.141-.392a1.891,1.891,0,0,1,1.041-.307c.784,0,1.139.466,1.139.95a.989.989,0,0,1-.735.937v.012a1.039,1.039,0,0,1,.889,1.023c0,.637-.5,1.195-1.453,1.195a2.029,2.029,0,0,1-1.035-.27Z" transform="translate(0.02 0.101)" fill="#07013a"/>
    <rect id="사각형_736" data-name="사각형 736" width="0.937" height="4.128" transform="translate(14.011 47.499)" fill="#07013a"/>
    <path id="패스_1655" data-name="패스 1655" d="M15.766,49.362c0-.307-.006-.557-.025-.8h.478l.031.49h.012a1.091,1.091,0,0,1,.98-.557c.41,0,1.047.246,1.047,1.262v1.771H17.75v-1.71c0-.478-.177-.876-.685-.876a.767.767,0,0,0-.724.551.793.793,0,0,0-.036.252v1.783h-.539Z" transform="translate(0.033 0.103)" fill="#07013a"/>
    <path id="패스_1656" data-name="패스 1656" d="M19.785,47.71v.851h.772v.411h-.772v1.6c0,.368.1.575.4.575a1.219,1.219,0,0,0,.313-.036l.025.4a1.321,1.321,0,0,1-.478.073.746.746,0,0,1-.582-.226,1.1,1.1,0,0,1-.208-.772V48.972H18.8v-.411h.459v-.709Z" transform="translate(0.04 0.101)" fill="#07013a"/>
    <path id="패스_1657" data-name="패스 1657" d="M21.422,50.139a.95.95,0,0,0,1.017,1.029,1.95,1.95,0,0,0,.82-.153l.092.386a2.409,2.409,0,0,1-.986.183,1.376,1.376,0,0,1-1.457-1.494,1.439,1.439,0,0,1,1.39-1.6,1.255,1.255,0,0,1,1.225,1.4,2.079,2.079,0,0,1-.018.252ZM23,49.754a.768.768,0,0,0-.748-.876.893.893,0,0,0-.827.876Z" transform="translate(0.044 0.103)" fill="#07013a"/>
    <path id="패스_1658" data-name="패스 1658" d="M24.185,49.484c0-.349-.006-.649-.025-.925h.472l.018.582h.025a.888.888,0,0,1,.821-.649.6.6,0,0,1,.153.018v.509A.767.767,0,0,0,25.465,49a.756.756,0,0,0-.723.692,1.543,1.543,0,0,0-.024.252v1.579h-.533Z" transform="translate(0.051 0.103)" fill="#07013a"/>
    <path id="패스_1659" data-name="패스 1659" d="M26.209,49.362c0-.307-.006-.557-.025-.8h.478l.031.49h.012a1.091,1.091,0,0,1,.98-.557c.41,0,1.047.246,1.047,1.262v1.771h-.539v-1.71c0-.478-.177-.876-.685-.876a.767.767,0,0,0-.724.551.793.793,0,0,0-.036.252v1.783h-.539Z" transform="translate(0.056 0.103)" fill="#07013a"/>
    <path id="패스_1660" data-name="패스 1660" d="M31.244,51.524l-.042-.374h-.019a1.1,1.1,0,0,1-.906.441.845.845,0,0,1-.907-.852c0-.717.637-1.108,1.783-1.1v-.061a.611.611,0,0,0-.674-.686,1.484,1.484,0,0,0-.772.22l-.122-.355a1.841,1.841,0,0,1,.974-.264c.907,0,1.126.618,1.126,1.213v1.108a4.257,4.257,0,0,0,.049.712Zm-.079-1.513c-.588-.012-1.256.092-1.256.667a.477.477,0,0,0,.508.514.739.739,0,0,0,.718-.5.583.583,0,0,0,.03-.172Z" transform="translate(0.062 0.103)" fill="#07013a"/>
    <path id="패스_1661" data-name="패스 1661" d="M33.175,47.71v.851h.772v.411h-.772v1.6c0,.368.1.575.4.575a1.219,1.219,0,0,0,.313-.036l.024.4a1.311,1.311,0,0,1-.477.073.747.747,0,0,1-.582-.226,1.1,1.1,0,0,1-.208-.772V48.972h-.459v-.411h.459v-.709Z" transform="translate(0.068 0.101)" fill="#07013a"/>
    <path id="패스_1662" data-name="패스 1662" d="M35.148,47.729a.334.334,0,0,1-.667,0,.329.329,0,0,1,.337-.337.32.32,0,0,1,.331.337m-.6.833h.539v2.964h-.539Z" transform="translate(0.073 0.1)" fill="#07013a"/>
    <path id="패스_1663" data-name="패스 1663" d="M38.662,50.017a1.449,1.449,0,0,1-1.476,1.574,1.41,1.41,0,0,1-1.421-1.525,1.447,1.447,0,0,1,1.47-1.573,1.4,1.4,0,0,1,1.427,1.524m-2.352.031c0,.649.374,1.139.9,1.139s.9-.484.9-1.151c0-.5-.252-1.139-.888-1.139s-.913.588-.913,1.151" transform="translate(0.076 0.103)" fill="#07013a"/>
    <path id="패스_1664" data-name="패스 1664" d="M39.335,49.362c0-.307-.006-.557-.025-.8h.478l.031.49h.012a1.091,1.091,0,0,1,.98-.557c.41,0,1.047.246,1.047,1.262v1.771h-.539v-1.71c0-.478-.177-.876-.685-.876a.767.767,0,0,0-.724.551.793.793,0,0,0-.036.252v1.783h-.539Z" transform="translate(0.083 0.103)" fill="#07013a"/>
    <path id="패스_1665" data-name="패스 1665" d="M44.37,51.524l-.042-.374h-.019a1.1,1.1,0,0,1-.906.441.845.845,0,0,1-.907-.852c0-.717.637-1.108,1.783-1.1v-.061a.611.611,0,0,0-.674-.686,1.484,1.484,0,0,0-.772.22l-.122-.355a1.841,1.841,0,0,1,.974-.264c.907,0,1.126.618,1.126,1.213v1.108a4.256,4.256,0,0,0,.049.712Zm-.079-1.513c-.588-.012-1.256.092-1.256.667a.477.477,0,0,0,.508.514.739.739,0,0,0,.718-.5.583.583,0,0,0,.03-.172Z" transform="translate(0.09 0.103)" fill="#07013a"/>
    <rect id="사각형_737" data-name="사각형 737" width="0.539" height="4.349" transform="translate(45.773 47.278)" fill="#07013a"/>
    <path id="패스_1666" data-name="패스 1666" d="M51.4,51.41a2.671,2.671,0,0,1-1.059.177,1.963,1.963,0,0,1-2.163-2.063,2.1,2.1,0,0,1,2.254-2.194,2.426,2.426,0,0,1,1.017.184l-.19.741a2.022,2.022,0,0,0-.784-.152,1.357,1.357,0,0,0,.006,2.713,2.339,2.339,0,0,0,.778-.134Z" transform="translate(0.102 0.1)" fill="#07013a"/>
    <path id="패스_1667" data-name="패스 1667" d="M54.736,50.017a1.449,1.449,0,0,1-1.476,1.574,1.41,1.41,0,0,1-1.421-1.525,1.447,1.447,0,0,1,1.47-1.573,1.4,1.4,0,0,1,1.427,1.524m-2.352.031c0,.649.374,1.139.9,1.139s.9-.484.9-1.151c0-.5-.252-1.139-.888-1.139s-.913.588-.913,1.151" transform="translate(0.11 0.103)" fill="#07013a"/>
    <path id="패스_1668" data-name="패스 1668" d="M55.409,49.362c0-.307-.006-.557-.025-.8h.478l.031.49h.012a1.091,1.091,0,0,1,.98-.557c.41,0,1.047.246,1.047,1.262v1.771h-.539v-1.71c0-.478-.177-.876-.685-.876a.767.767,0,0,0-.724.551.793.793,0,0,0-.036.252v1.783h-.539Z" transform="translate(0.117 0.103)" fill="#07013a"/>
    <path id="패스_1669" data-name="패스 1669" d="M61.357,48.56c-.012.214-.024.453-.024.815V51.1a1.706,1.706,0,0,1-.423,1.354,1.571,1.571,0,0,1-1.078.355,1.915,1.915,0,0,1-.986-.245l.135-.411a1.672,1.672,0,0,0,.87.233c.551,0,.955-.288.955-1.034v-.331h-.012a1.06,1.06,0,0,1-.943.5,1.325,1.325,0,0,1-1.262-1.446,1.422,1.422,0,0,1,1.335-1.573.984.984,0,0,1,.925.514h.012l.024-.447ZM60.8,49.73a.787.787,0,0,0-.784-.815c-.515,0-.882.435-.882,1.121,0,.581.294,1.065.876,1.065a.787.787,0,0,0,.747-.551.923.923,0,0,0,.043-.288Z" transform="translate(0.124 0.103)" fill="#07013a"/>
    <path id="패스_1670" data-name="패스 1670" d="M62.184,49.484c0-.349-.006-.649-.025-.925h.472l.018.582h.025a.888.888,0,0,1,.821-.649.6.6,0,0,1,.153.018v.509A.767.767,0,0,0,63.464,49a.755.755,0,0,0-.723.692,1.543,1.543,0,0,0-.024.252v1.579h-.533Z" transform="translate(0.132 0.103)" fill="#07013a"/>
    <path id="패스_1671" data-name="패스 1671" d="M64.422,50.139a.95.95,0,0,0,1.017,1.029,1.95,1.95,0,0,0,.82-.153l.092.386a2.409,2.409,0,0,1-.986.183,1.376,1.376,0,0,1-1.457-1.494,1.439,1.439,0,0,1,1.39-1.6,1.255,1.255,0,0,1,1.225,1.4,2.081,2.081,0,0,1-.018.252ZM66,49.754a.768.768,0,0,0-.748-.876.893.893,0,0,0-.827.876Z" transform="translate(0.136 0.103)" fill="#07013a"/>
    <path id="패스_1672" data-name="패스 1672" d="M67.111,50.972a1.412,1.412,0,0,0,.711.214c.392,0,.576-.2.576-.441s-.153-.4-.552-.545c-.532-.189-.784-.484-.784-.839a.914.914,0,0,1,1.023-.87,1.478,1.478,0,0,1,.729.183l-.134.392a1.156,1.156,0,0,0-.606-.171c-.319,0-.5.184-.5.4,0,.246.177.356.563.5.514.2.778.453.778.894,0,.52-.4.888-1.108.888a1.693,1.693,0,0,1-.833-.2Z" transform="translate(0.142 0.103)" fill="#07013a"/>
    <path id="패스_1673" data-name="패스 1673" d="M69.533,50.972a1.406,1.406,0,0,0,.711.214c.391,0,.575-.2.575-.441s-.153-.4-.552-.545c-.532-.189-.784-.484-.784-.839a.914.914,0,0,1,1.023-.87,1.478,1.478,0,0,1,.729.183l-.134.392A1.155,1.155,0,0,0,70.5,48.9c-.32,0-.5.184-.5.4,0,.246.177.356.563.5.514.2.778.453.778.894,0,.52-.4.888-1.108.888a1.693,1.693,0,0,1-.833-.2Z" transform="translate(0.147 0.103)" fill="#07013a"/>
    <path id="패스_1674" data-name="패스 1674" d="M76.006,50.017a1.449,1.449,0,0,1-1.476,1.574,1.41,1.41,0,0,1-1.421-1.525,1.447,1.447,0,0,1,1.47-1.573,1.4,1.4,0,0,1,1.427,1.524m-2.352.031c0,.649.374,1.139.9,1.139s.9-.484.9-1.151c0-.5-.252-1.139-.888-1.139s-.913.588-.913,1.151" transform="translate(0.155 0.103)" fill="#07013a"/>
    <path id="패스_1675" data-name="패스 1675" d="M76.68,49.362c0-.307-.006-.557-.025-.8h.478l.031.49h.012a1.091,1.091,0,0,1,.98-.557c.41,0,1.047.246,1.047,1.262v1.771h-.539v-1.71c0-.478-.177-.876-.685-.876a.767.767,0,0,0-.724.551.793.793,0,0,0-.036.252v1.783H76.68Z" transform="translate(0.163 0.103)" fill="#07013a"/>
    <path id="패스_1676" data-name="패스 1676" d="M85.106,49.419a1.967,1.967,0,0,1-2.027,2.174,1.924,1.924,0,0,1-1.942-2.1,2,2,0,0,1,2.009-2.162,1.924,1.924,0,0,1,1.96,2.088m-2.983.055c0,.809.38,1.378,1,1.378s.993-.6.993-1.4c0-.741-.356-1.378-1-1.378s-1,.6-1,1.4" transform="translate(0.172 0.1)" fill="#07013a"/>
    <path id="패스_1677" data-name="패스 1677" d="M85.729,51.527c.012-.2.024-.5.024-.766V47.178h.533V49.04H86.3a1.105,1.105,0,0,1,1.011-.545c.735,0,1.255.612,1.25,1.513a1.409,1.409,0,0,1-1.33,1.586,1.056,1.056,0,0,1-.992-.557h-.018l-.025.49Zm.557-1.189a1.043,1.043,0,0,0,.024.2.833.833,0,0,0,.809.63c.563,0,.9-.459.9-1.139,0-.594-.307-1.1-.882-1.1a.861.861,0,0,0-.822.661,1.085,1.085,0,0,0-.03.22Z" transform="translate(0.182 0.1)" fill="#07013a"/>
    <path id="패스_1678" data-name="패스 1678" d="M89.533,50.139a.95.95,0,0,0,1.017,1.029,1.95,1.95,0,0,0,.82-.153l.092.386a2.409,2.409,0,0,1-.986.183,1.376,1.376,0,0,1-1.457-1.494,1.439,1.439,0,0,1,1.39-1.6,1.255,1.255,0,0,1,1.225,1.4,2.077,2.077,0,0,1-.018.252Zm1.58-.386a.768.768,0,0,0-.748-.876.893.893,0,0,0-.827.876Z" transform="translate(0.189 0.103)" fill="#07013a"/>
    <path id="패스_1679" data-name="패스 1679" d="M92.221,50.972a1.412,1.412,0,0,0,.71.214c.392,0,.576-.2.576-.441s-.153-.4-.552-.545c-.532-.189-.784-.484-.784-.839a.914.914,0,0,1,1.023-.87,1.478,1.478,0,0,1,.729.183l-.134.392a1.156,1.156,0,0,0-.606-.171c-.319,0-.5.184-.5.4,0,.246.177.356.563.5.514.2.778.453.778.894,0,.52-.4.888-1.108.888a1.693,1.693,0,0,1-.833-.2Z" transform="translate(0.195 0.103)" fill="#07013a"/>
    <path id="패스_1680" data-name="패스 1680" d="M95.316,47.729a.334.334,0,0,1-.667,0,.329.329,0,0,1,.337-.337.32.32,0,0,1,.331.337m-.6.833h.539v2.964h-.539Z" transform="translate(0.201 0.1)" fill="#07013a"/>
    <path id="패스_1681" data-name="패스 1681" d="M96.8,47.71v.851h.772v.411H96.8v1.6c0,.368.1.575.4.575a1.219,1.219,0,0,0,.313-.036l.024.4a1.311,1.311,0,0,1-.477.073.747.747,0,0,1-.582-.226,1.1,1.1,0,0,1-.208-.772V48.972h-.459v-.411h.459v-.709Z" transform="translate(0.203 0.101)" fill="#07013a"/>
    <path id="패스_1682" data-name="패스 1682" d="M98.422,48.559l.649,1.752c.067.2.14.429.189.606h.013c.054-.177.116-.4.189-.618l.588-1.74h.569l-.809,2.113A4.5,4.5,0,0,1,98.8,52.527a1.454,1.454,0,0,1-.661.35L98,52.424a1.436,1.436,0,0,0,.472-.264,1.627,1.627,0,0,0,.453-.6.378.378,0,0,0,.043-.128.454.454,0,0,0-.037-.141l-1.1-2.732Z" transform="translate(0.207 0.103)" fill="#07013a"/>
    <path id="패스_1683" data-name="패스 1683" d="M103.693,51.524l-.041-.374h-.018a1.046,1.046,0,0,1-.87.441.828.828,0,0,1-.871-.852c0-.717.612-1.108,1.712-1.1v-.061a.6.6,0,0,0-.646-.685,1.381,1.381,0,0,0-.742.219l-.117-.355a1.713,1.713,0,0,1,.935-.264c.871,0,1.082.618,1.082,1.213v1.108a4.381,4.381,0,0,0,.047.712Zm-.076-1.513c-.564-.012-1.206.092-1.206.667a.468.468,0,0,0,.488.515.712.712,0,0,0,.688-.5.615.615,0,0,0,.029-.172Z" transform="translate(0.216 0.103)" fill="#07013a"/>
    <path id="패스_1684" data-name="패스 1684" d="M104.91,49.362c0-.307-.006-.557-.023-.8h.458l.03.49h.011a1.042,1.042,0,0,1,.941-.557c.395,0,1.006.246,1.006,1.262v1.771h-.517v-1.71c0-.477-.171-.876-.659-.876a.741.741,0,0,0-.693.552.783.783,0,0,0-.036.251v1.783h-.517Z" transform="translate(0.222 0.103)" fill="#07013a"/>
    <path id="패스_1685" data-name="패스 1685" d="M110.591,47.178v3.583c0,.264.007.563.024.766h-.465l-.023-.515h-.012a1.046,1.046,0,0,1-.97.582c-.688,0-1.218-.606-1.218-1.506-.006-.986.582-1.592,1.277-1.592a.942.942,0,0,1,.858.453h.012v-1.77Zm-.517,2.59a1.022,1.022,0,0,0-.023-.226.771.771,0,0,0-.748-.625c-.535,0-.853.49-.853,1.145,0,.6.283,1.1.842,1.1a.786.786,0,0,0,.759-.642,1.014,1.014,0,0,0,.023-.233Z" transform="translate(0.229 0.1)" fill="#07013a"/>
    <path id="패스_1686" data-name="패스 1686" d="M116.083,49.945c-.018-.5-.037-1.1-.037-1.7h-.018c-.128.527-.3,1.114-.459,1.6l-.5,1.611h-.73l-.441-1.6c-.134-.484-.276-1.072-.373-1.611h-.013c-.024.557-.043,1.195-.073,1.709l-.073,1.568H112.5l.263-4.129h1.244l.4,1.379c.128.477.257.992.349,1.476h.018c.117-.478.258-1.023.392-1.482l.442-1.373h1.219l.226,4.129h-.913Z" transform="translate(0.239 0.1)" fill="#07013a"/>
    <path id="패스_1687" data-name="패스 1687" d="M120.185,49.78h-1.519v.98h1.7v.766h-2.634V47.4h2.548v.766h-1.611v.858h1.519Z" transform="translate(0.25 0.1)" fill="#07013a"/>
    <path id="패스_1688" data-name="패스 1688" d="M121.608,47.71v.851h.742v.411h-.742v1.6c0,.368.1.576.389.576a1.119,1.119,0,0,0,.3-.037l.023.4a1.214,1.214,0,0,1-.458.074.7.7,0,0,1-.559-.227,1.127,1.127,0,0,1-.2-.772V48.972h-.442v-.411h.442v-.709Z" transform="translate(0.256 0.101)" fill="#07013a"/>
    <path id="패스_1689" data-name="패스 1689" d="M124.468,51.524l-.041-.374h-.018a1.046,1.046,0,0,1-.87.441.828.828,0,0,1-.871-.852c0-.717.612-1.108,1.712-1.1v-.061a.6.6,0,0,0-.646-.685,1.381,1.381,0,0,0-.742.219l-.117-.355a1.713,1.713,0,0,1,.935-.264c.871,0,1.082.618,1.082,1.213v1.108a4.381,4.381,0,0,0,.047.712Zm-.076-1.513c-.564-.012-1.206.092-1.206.667a.468.468,0,0,0,.488.515.712.712,0,0,0,.688-.5.616.616,0,0,0,.029-.172Z" transform="translate(0.26 0.103)" fill="#07013a"/>
    <path id="패스_1690" data-name="패스 1690" d="M125.661,51.526c.013-.2.024-.5.024-.766V47.177h.512v1.862h.011a1.053,1.053,0,0,1,.97-.545c.706,0,1.206.612,1.2,1.513,0,1.059-.64,1.586-1.275,1.586a1.007,1.007,0,0,1-.954-.557h-.016l-.025.49Zm.536-1.189a1.033,1.033,0,0,0,.023.2.8.8,0,0,0,.776.63c.542,0,.865-.459.865-1.138,0-.594-.294-1.1-.847-1.1a.833.833,0,0,0-.788.661,1.09,1.09,0,0,0-.029.22Z" transform="translate(0.266 0.1)" fill="#07013a"/>
    <path id="패스_1691" data-name="패스 1691" d="M131.566,50.017a1.422,1.422,0,0,1-1.418,1.573,1.385,1.385,0,0,1-1.364-1.525,1.422,1.422,0,0,1,1.411-1.573,1.38,1.38,0,0,1,1.371,1.525m-2.259.03c0,.649.359,1.139.865,1.139s.865-.484.865-1.151c0-.5-.242-1.139-.854-1.139s-.876.588-.876,1.151" transform="translate(0.273 0.103)" fill="#07013a"/>
    <rect id="사각형_738" data-name="사각형 738" width="0.517" height="4.348" transform="translate(132.456 47.278)" fill="#07013a"/>
    <path id="패스_1692" data-name="패스 1692" d="M134.1,47.729a.311.311,0,0,1-.329.331.315.315,0,0,1-.312-.331.323.323,0,0,1,.324-.338.314.314,0,0,1,.317.338m-.576.833h.517v2.964h-.517Z" transform="translate(0.283 0.1)" fill="#07013a"/>
    <path id="패스_1693" data-name="패스 1693" d="M136.894,51.413a1.833,1.833,0,0,1-.818.171,1.382,1.382,0,0,1-1.417-1.512,1.477,1.477,0,0,1,1.529-1.574,1.663,1.663,0,0,1,.718.153l-.118.416a1.165,1.165,0,0,0-.6-.14,1.122,1.122,0,0,0-.018,2.23,1.425,1.425,0,0,0,.635-.147Z" transform="translate(0.286 0.103)" fill="#07013a"/>
    <path id="패스_1694" data-name="패스 1694" d="M138.674,50.565a2.39,2.39,0,0,0,1.035.257c.429,0,.655-.177.655-.446s-.2-.4-.692-.582c-.685-.24-1.132-.618-1.132-1.22,0-.7.587-1.243,1.561-1.243a2.524,2.524,0,0,1,1.053.208l-.207.753a1.977,1.977,0,0,0-.864-.2c-.4,0-.6.183-.6.4,0,.264.233.38.766.582.729.269,1.071.649,1.071,1.231,0,.692-.532,1.281-1.666,1.281a2.7,2.7,0,0,1-1.169-.252Z" transform="translate(0.294 0.1)" fill="#07013a"/>
    <path id="패스_1695" data-name="패스 1695" d="M142.123,48.559l.623,1.752c.065.2.135.429.182.606h.012c.053-.177.111-.4.182-.618l.564-1.74h.547l-.777,2.113a4.562,4.562,0,0,1-.976,1.856,1.378,1.378,0,0,1-.635.349l-.129-.453a1.372,1.372,0,0,0,.453-.264,1.622,1.622,0,0,0,.435-.6.387.387,0,0,0,.041-.128.464.464,0,0,0-.035-.141l-1.052-2.732Z" transform="translate(0.3 0.103)" fill="#07013a"/>
    <path id="패스_1696" data-name="패스 1696" d="M144.664,49.362c0-.307-.006-.557-.023-.8h.458l.03.49h.011a1.042,1.042,0,0,1,.941-.557c.395,0,1.006.246,1.006,1.262v1.771h-.517v-1.71c0-.477-.171-.876-.659-.876a.741.741,0,0,0-.693.552.781.781,0,0,0-.036.251v1.783h-.517Z" transform="translate(0.307 0.103)" fill="#07013a"/>
    <path id="패스_1697" data-name="패스 1697" d="M150.345,47.178v3.583c0,.264.006.563.024.766H149.9l-.023-.515h-.012a1.045,1.045,0,0,1-.97.582c-.688,0-1.218-.606-1.218-1.506-.006-.986.582-1.592,1.277-1.592a.942.942,0,0,1,.858.453h.012v-1.77Zm-.517,2.59a1.024,1.024,0,0,0-.023-.226.771.771,0,0,0-.748-.625c-.535,0-.853.49-.853,1.145,0,.6.283,1.1.842,1.1a.786.786,0,0,0,.759-.642,1.015,1.015,0,0,0,.023-.233Z" transform="translate(0.313 0.1)" fill="#07013a"/>
    <path id="패스_1698" data-name="패스 1698" d="M151.161,49.484c0-.349-.006-.649-.023-.925h.452l.018.582h.024a.86.86,0,0,1,.788-.649.549.549,0,0,1,.147.018v.508a.764.764,0,0,0-.176-.018.74.74,0,0,0-.694.692,1.545,1.545,0,0,0-.023.251v1.58h-.512Z" transform="translate(0.321 0.103)" fill="#07013a"/>
    <path id="패스_1699" data-name="패스 1699" d="M155.564,50.017a1.422,1.422,0,0,1-1.418,1.573,1.385,1.385,0,0,1-1.364-1.525,1.422,1.422,0,0,1,1.411-1.573,1.38,1.38,0,0,1,1.371,1.525m-2.259.03c0,.649.359,1.139.865,1.139s.865-.484.865-1.151c0-.5-.242-1.139-.853-1.139s-.877.588-.877,1.151" transform="translate(0.324 0.103)" fill="#07013a"/>
    <path id="패스_1700" data-name="패스 1700" d="M156.174,49.362c0-.307-.006-.557-.023-.8h.452l.024.478h.018a.976.976,0,0,1,.894-.545.845.845,0,0,1,.806.594h.012a1.2,1.2,0,0,1,.317-.386.945.945,0,0,1,.629-.208c.377,0,.936.258.936,1.287v1.746h-.506V49.846c0-.569-.2-.913-.617-.913a.675.675,0,0,0-.612.49.934.934,0,0,0-.041.27v1.832h-.506V49.748c0-.471-.2-.815-.594-.815a.715.715,0,0,0-.64.539.753.753,0,0,0-.041.264v1.789h-.506Z" transform="translate(0.331 0.103)" fill="#07013a"/>
    <path id="패스_1701" data-name="패스 1701" d="M161.322,50.139a.931.931,0,0,0,.976,1.029,1.8,1.8,0,0,0,.789-.153l.088.386a2.219,2.219,0,0,1-.947.184,1.352,1.352,0,0,1-1.4-1.5,1.42,1.42,0,0,1,1.335-1.6,1.241,1.241,0,0,1,1.176,1.4,2.354,2.354,0,0,1-.017.252Zm1.517-.386c.006-.343-.135-.876-.717-.876-.523,0-.753.5-.794.876Z" transform="translate(0.341 0.103)" fill="#07013a"/>
    <path id="패스_1702" data-name="패스 1702" d="M165.148,47.178h.517v1.85h.012a.978.978,0,0,1,.371-.38,1.027,1.027,0,0,1,.529-.153c.383,0,.994.245.994,1.268v1.764h-.517v-1.7c0-.478-.171-.882-.659-.882a.749.749,0,0,0-.693.539.662.662,0,0,0-.036.257v1.789h-.517Z" transform="translate(0.35 0.1)" fill="#07013a"/>
    <path id="패스_1703" data-name="패스 1703" d="M170.948,50.017a1.422,1.422,0,0,1-1.418,1.573,1.385,1.385,0,0,1-1.364-1.525,1.422,1.422,0,0,1,1.411-1.573,1.38,1.38,0,0,1,1.371,1.525m-2.259.03c0,.649.359,1.139.865,1.139s.865-.484.865-1.151c0-.5-.242-1.139-.853-1.139s-.877.588-.877,1.151" transform="translate(0.357 0.103)" fill="#07013a"/>
    <path id="패스_1704" data-name="패스 1704" d="M171.487,50.972a1.321,1.321,0,0,0,.682.214c.376,0,.552-.2.552-.441s-.146-.4-.529-.545c-.511-.189-.753-.484-.753-.839a.892.892,0,0,1,.982-.87,1.371,1.371,0,0,1,.7.183l-.129.392a1.078,1.078,0,0,0-.582-.171.421.421,0,0,0-.476.4c0,.246.17.356.541.5.494.2.747.453.747.894,0,.52-.388.888-1.064.888a1.573,1.573,0,0,1-.8-.2Z" transform="translate(0.363 0.103)" fill="#07013a"/>
    <path id="패스_1705" data-name="패스 1705" d="M174.471,47.71v.851h.742v.411h-.742v1.6c0,.368.1.576.389.576a1.125,1.125,0,0,0,.3-.037l.023.4a1.214,1.214,0,0,1-.458.074.7.7,0,0,1-.559-.227,1.127,1.127,0,0,1-.2-.772V48.972h-.442v-.411h.442v-.709Z" transform="translate(0.368 0.101)" fill="#07013a"/>
    <path id="패스_1706" data-name="패스 1706" d="M176.008,50.139a.931.931,0,0,0,.976,1.029,1.8,1.8,0,0,0,.789-.153l.088.386a2.219,2.219,0,0,1-.947.184,1.352,1.352,0,0,1-1.4-1.5,1.42,1.42,0,0,1,1.335-1.6,1.241,1.241,0,0,1,1.176,1.4,2.078,2.078,0,0,1-.018.252Zm1.517-.386c.006-.343-.135-.876-.717-.876-.523,0-.753.5-.794.876Z" transform="translate(0.372 0.103)" fill="#07013a"/>
    <path id="패스_1707" data-name="패스 1707" d="M181.083,47.178v3.583c0,.264.007.563.024.766h-.465l-.023-.515h-.012a1.046,1.046,0,0,1-.97.582c-.688,0-1.218-.606-1.218-1.506-.006-.986.582-1.592,1.277-1.592a.942.942,0,0,1,.858.453h.012v-1.77Zm-.517,2.59a1.022,1.022,0,0,0-.023-.226.771.771,0,0,0-.748-.625c-.535,0-.853.49-.853,1.145,0,.6.283,1.1.842,1.1a.786.786,0,0,0,.759-.642,1.014,1.014,0,0,0,.023-.233Z" transform="translate(0.378 0.1)" fill="#07013a"/>
    <path id="패스_1708" data-name="패스 1708" d="M183.085,51.526c.012-.2.023-.5.023-.766V47.177h.512v1.862h.012a1.053,1.053,0,0,1,.97-.545c.705,0,1.206.612,1.2,1.513,0,1.059-.64,1.586-1.276,1.586a1.007,1.007,0,0,1-.953-.557h-.017l-.024.49Zm.535-1.189a1.122,1.122,0,0,0,.023.2.806.806,0,0,0,.777.63c.541,0,.865-.459.865-1.138,0-.594-.295-1.1-.847-1.1a.834.834,0,0,0-.789.661,1.092,1.092,0,0,0-.029.22Z" transform="translate(0.388 0.1)" fill="#07013a"/>
    <path id="패스_1709" data-name="패스 1709" d="M186.561,48.559l.623,1.752c.065.2.135.429.182.606h.012c.053-.177.111-.4.182-.618l.564-1.74h.547l-.777,2.113a4.562,4.562,0,0,1-.976,1.856,1.378,1.378,0,0,1-.635.349l-.129-.453a1.372,1.372,0,0,0,.453-.264,1.621,1.621,0,0,0,.435-.6.388.388,0,0,0,.041-.128.463.463,0,0,0-.035-.141L186,48.559Z" transform="translate(0.394 0.103)" fill="#07013a"/>
    <path id="패스_1710" data-name="패스 1710" d="M190.328,47.4h.511v1.991h.018c.106-.159.211-.307.312-.442L192.38,47.4h.635l-1.435,1.752,1.546,2.376h-.605L191.216,49.5l-.377.454v1.573h-.511Z" transform="translate(0.404 0.1)" fill="#07013a"/>
    <path id="패스_1711" data-name="패스 1711" d="M193.4,50.876a1.756,1.756,0,0,0,.917.27c.524,0,.83-.288.83-.7,0-.386-.211-.606-.747-.821-.647-.239-1.047-.588-1.047-1.169a1.158,1.158,0,0,1,1.282-1.121,1.743,1.743,0,0,1,.877.2l-.141.435a1.534,1.534,0,0,0-.753-.2c-.541,0-.747.337-.747.618,0,.386.241.575.788.8.67.27,1.011.606,1.011,1.213,0,.637-.452,1.189-1.388,1.189a1.981,1.981,0,0,1-1.011-.264Z" transform="translate(0.41 0.1)" fill="#07013a"/>
    <path id="패스_1712" data-name="패스 1712" d="M196.262,50.876a1.756,1.756,0,0,0,.917.27c.524,0,.83-.288.83-.7,0-.386-.211-.606-.747-.821-.647-.239-1.047-.588-1.047-1.169A1.158,1.158,0,0,1,197.5,47.33a1.744,1.744,0,0,1,.877.2l-.141.435a1.534,1.534,0,0,0-.753-.2c-.541,0-.747.337-.747.618,0,.386.241.575.788.8.67.27,1.011.606,1.011,1.213,0,.637-.452,1.189-1.388,1.189a1.981,1.981,0,0,1-1.011-.264Z" transform="translate(0.416 0.1)" fill="#07013a"/>
    <path id="패스_1713" data-name="패스 1713" d="M202.579,49.419c0,1.421-.829,2.174-1.841,2.174a1.864,1.864,0,0,1-1.782-2.094,1.932,1.932,0,0,1,1.841-2.168,1.851,1.851,0,0,1,1.782,2.088m-3.076.067c0,.882.459,1.673,1.265,1.673s1.271-.779,1.271-1.716c0-.821-.412-1.678-1.265-1.678s-1.271.814-1.271,1.721" transform="translate(0.422 0.1)" fill="#07013a"/>
  </g>
</svg>
