<svg id="그룹_1469" data-name="그룹 1469" xmlns="http://www.w3.org/2000/svg" xmlns:xlink="http://www.w3.org/1999/xlink" width="1122" height="793.805" viewBox="0 0 1122 793.805">
  <defs>
    <clipPath id="clip-path">
      <rect id="사각형_722" data-name="사각형 722" width="440.005" height="287.153" fill="none"/>
    </clipPath>
    <clipPath id="clip-path-2">
      <rect id="사각형_750" data-name="사각형 750" width="1079.496" height="768.846" fill="none"/>
    </clipPath>
  </defs>
  <path id="패스_1962" data-name="패스 1962" d="M0,0H1122V793.8H0Z" fill="none"/>
  <g id="그룹_1467" data-name="그룹 1467" transform="translate(341.536 273.18)" opacity="0.03">
    <rect id="사각형_719" data-name="사각형 719" width="37.829" height="175.76" transform="translate(0 2.036)" fill="#1d7348"/>
    <path id="패스_1462" data-name="패스 1462" d="M63.3.31,5.543,85.917l.824,1.16,51.7,90.153h43.067L49.19,87.076l-.626-1.212L106.369.31Z" transform="translate(30.975 1.729)" fill="#1d7348"/>
    <path id="패스_1463" data-name="패스 1463" d="M89.5.31,31.737,85.917l.824,1.16,51.665,90.087-72.444,108.1,44.694.119L126.2,178.665l1.061-1.7L75.39,87.076l-.626-1.212L132.569.31Z" transform="translate(65.836 1.729)" fill="#1d7348"/>
    <path id="패스_1464" data-name="패스 1464" d="M98.862.31,41.1,85.917l.83,1.16,51.658,90.087L21.055,285.3l44.78-.046,69.729-106.59,1.061-1.7L84.75,87.076l-.626-1.212L141.929.31Z" transform="translate(117.661 1.729)" fill="#1d7348"/>
    <g id="그룹_1393" data-name="그룹 1393" transform="translate(0 0)">
      <g id="그룹_1392" data-name="그룹 1392" clip-path="url(#clip-path)">
        <path id="패스_1465" data-name="패스 1465" d="M125.261,0A90.037,90.037,0,1,0,215.3,90.041,90.04,90.04,0,0,0,125.261,0M127.7,144.11a54.073,54.073,0,1,1,54.076-54.076A54.077,54.077,0,0,1,127.7,144.11" transform="translate(196.855 -0.001)" fill="#1d7348"/>
        <path id="패스_1466" data-name="패스 1466" d="M63.125,41.882H55.714l-8.156-4.915-.942.56v4.355H40.337V28.508h6.279v5.659l8.723-5.659H61.63L51.023,34.767Z" transform="translate(225.41 159.306)" fill="#171716"/>
        <path id="패스_1467" data-name="패스 1467" d="M59.23,39.255a5.715,5.715,0,0,1-3.913,1.1c-2.2,0-3.6-.343-4.2-1.021S50.2,37.4,50.2,35.572v-.336q0-2.737,1.015-3.795c.672-.712,2.036-1.061,4.1-1.061q3.35,0,4.236,1.186a6.158,6.158,0,0,1,.889,3.67v.356a4.734,4.734,0,0,1-1.212,3.663m7.537-4.2a5.492,5.492,0,0,0-2.853-4.711q-2.866-1.868-8.433-1.864-5.7,0-8.65,1.832a5.448,5.448,0,0,0-2.951,4.744v.758a5.206,5.206,0,0,0,3.162,4.8,17.835,17.835,0,0,0,8.275,1.654,17.852,17.852,0,0,0,8.308-1.654,5.232,5.232,0,0,0,3.143-4.829Z" transform="translate(245.21 159.134)" fill="#171716"/>
        <path id="패스_1468" data-name="패스 1468" d="M59.114,33.568a9.284,9.284,0,0,1-3.2.389H54.206V30.412h2.056a8.312,8.312,0,0,1,2.853.369,1.29,1.29,0,0,1,.962,1.245V32.4c0,.527-.323.909-.962,1.173m6.252,3.281a8.574,8.574,0,0,0-4.941-2.082,12.151,12.151,0,0,0,4.4-.817c.982-.455,1.469-1.067,1.469-1.832v-.725c0-.81-.553-1.5-1.673-2.049a13.79,13.79,0,0,0-5.692-.837h-11V41.882h6.272V35.86h1.476a4.807,4.807,0,0,1,3.828,1.4q1.206,1.393,1.285,4.625h6.219q0-3.409-1.647-5.033" transform="translate(267.864 159.307)" fill="#171716"/>
        <path id="패스_1469" data-name="패스 1469" d="M69.2,41.882H51.449V28.508H68.426v2.009h-10.7v3.6h8.327V36.17H57.727v3.709H69.2Z" transform="translate(287.504 159.306)" fill="#171716"/>
        <path id="패스_1470" data-name="패스 1470" d="M62.748,36.737l3.274-4.948,3.492,4.948Zm6.871-8.229H63.743L54.322,41.882h5.1l2.121-3.241h9.283L72.9,41.882h6.417Z" transform="translate(303.562 159.307)" fill="#171716"/>
        <path id="패스_1471" data-name="패스 1471" d="M79.63,41.882h-2.7l-13.96-8.4v8.4h-4.48V28.508h3.367l13.3,7.926V28.508H79.63Z" transform="translate(326.843 159.306)" fill="#171716"/>
        <path id="패스_1472" data-name="패스 1472" d="M59.7,41.356q0,2.115-2.958,3.143a26.289,26.289,0,0,1-8.229,1.021q-3.014,0-5.093-.178A32.594,32.594,0,0,1,40,44.9V42.634a23.678,23.678,0,0,0,3.307.56,37.639,37.639,0,0,0,4.434.264,14.745,14.745,0,0,0,4.223-.4c.764-.264,1.153-.692,1.153-1.291,0-.4-.277-.744-.837-1.048a22.561,22.561,0,0,0-4.737-1.2,16.981,16.981,0,0,1-4.809-1.555,2.838,2.838,0,0,1-1.706-2.55c0-1.034.916-1.9,2.754-2.616a21.664,21.664,0,0,1,7.6-1.067c1.568,0,2.984.066,4.236.191s2.135.237,2.642.323v2.062c-1.067-.138-2.121-.264-3.169-.362s-2.167-.158-3.353-.158a12.4,12.4,0,0,0-3.63.382c-.744.25-1.113.567-1.113.949a1.158,1.158,0,0,0,.83,1.08,31.532,31.532,0,0,0,4.888,1.067A16.165,16.165,0,0,1,58.1,38.938a2.872,2.872,0,0,1,1.6,2.418" transform="translate(223.533 177.318)" fill="#171716"/>
        <path id="패스_1473" data-name="패스 1473" d="M58.714,42.509a5.715,5.715,0,0,1-3.913,1.1c-2.2,0-3.6-.336-4.2-1.021s-.909-1.944-.909-3.762V38.49c0-1.818.336-3.09,1.008-3.795s2.042-1.061,4.1-1.061q3.35,0,4.236,1.192a6.125,6.125,0,0,1,.883,3.663v.356a4.757,4.757,0,0,1-1.206,3.663m7.537-4.2a5.5,5.5,0,0,0-2.859-4.717q-2.856-1.858-8.426-1.858-5.7,0-8.65,1.832a5.448,5.448,0,0,0-2.952,4.744v.758a5.206,5.206,0,0,0,3.162,4.8A17.9,17.9,0,0,0,54.8,45.513a17.934,17.934,0,0,0,8.308-1.654,5.232,5.232,0,0,0,3.143-4.829Z" transform="translate(242.326 177.318)" fill="#171716"/>
        <path id="패스_1474" data-name="패스 1474" d="M66.308,44.952a14.459,14.459,0,0,1-2.352.382,36.589,36.589,0,0,1-3.946.185,21.819,21.819,0,0,1-9.217-1.667q-3.568-1.67-3.571-4.915V38.4q0-3.024,3.623-4.849a20.179,20.179,0,0,1,9.092-1.825c1.568,0,2.872.053,3.927.145a16.269,16.269,0,0,1,2.444.376v2.056a15.756,15.756,0,0,0-2.161-.356,28.086,28.086,0,0,0-3.2-.158,9.546,9.546,0,0,0-5.33,1.272A4.01,4.01,0,0,0,53.7,38.588v.184a3.9,3.9,0,0,0,1.785,3.544,9.006,9.006,0,0,0,4.888,1.146,28.85,28.85,0,0,0,3.571-.191c.988-.132,1.779-.257,2.359-.376Z" transform="translate(263.885 177.312)" fill="#171716"/>
        <rect id="사각형_720" data-name="사각형 720" width="6.272" height="13.374" transform="translate(335.504 209.254)" fill="#171716"/>
        <path id="패스_1475" data-name="패스 1475" d="M70.616,45.136H52.867V31.762H69.845v2.009h-10.7v3.6H67.48v2.056H59.146v3.709h11.47Z" transform="translate(295.433 177.491)" fill="#171716"/>
        <path id="패스_1476" data-name="패스 1476" d="M74.336,33.771H68.261V45.136H61.989V33.771H55.764V31.762H74.336Z" transform="translate(311.618 177.49)" fill="#171716"/>
        <path id="패스_1477" data-name="패스 1477" d="M83.575,31.762,74.312,39.49v5.646H68.04V39.767l-9.461-8h7.326l6.18,5.363,6.509-5.363Z" transform="translate(327.351 177.491)" fill="#171716"/>
        <path id="패스_1478" data-name="패스 1478" d="M57.314,37.02h-10.7v3.6h8.327v2.056H46.615v5.712H40.337V35.017H57.314Z" transform="translate(225.409 195.679)" fill="#171716"/>
        <path id="패스_1479" data-name="패스 1479" d="M58.581,45.763a5.7,5.7,0,0,1-3.907,1.1c-2.2,0-3.6-.336-4.2-1.021s-.909-1.944-.909-3.762v-.336c0-1.818.336-3.09,1.008-3.795s2.042-1.061,4.1-1.061c2.227,0,3.643.4,4.236,1.192a6.125,6.125,0,0,1,.883,3.663V42.1a4.734,4.734,0,0,1-1.212,3.663m7.543-4.2a5.5,5.5,0,0,0-2.859-4.717q-2.856-1.858-8.426-1.858-5.7,0-8.65,1.832a5.448,5.448,0,0,0-2.952,4.743v.758a5.206,5.206,0,0,0,3.162,4.8,17.9,17.9,0,0,0,8.275,1.654,17.935,17.935,0,0,0,8.308-1.654,5.232,5.232,0,0,0,3.143-4.829Z" transform="translate(241.617 195.502)" fill="#171716"/>
        <path id="패스_1480" data-name="패스 1480" d="M58.465,40.077a9.234,9.234,0,0,1-3.2.389h-1.7V36.921h2.062a8.445,8.445,0,0,1,2.84.369,1.3,1.3,0,0,1,.962,1.245V38.9a1.274,1.274,0,0,1-.962,1.173m6.259,3.281a8.62,8.62,0,0,0-4.941-2.088,12,12,0,0,0,4.4-.81c.975-.455,1.463-1.067,1.463-1.832V37.9c0-.81-.553-1.5-1.673-2.056a13.9,13.9,0,0,0-5.692-.83H47.291V48.391h6.272V42.369h1.469a4.856,4.856,0,0,1,3.841,1.4c.8.929,1.219,2.471,1.278,4.625h6.226q0-3.409-1.654-5.033" transform="translate(264.271 195.68)" fill="#171716"/>
        <path id="패스_1481" data-name="패스 1481" d="M71.694,37.02H65.62V48.391H59.348V37.02H53.122v-2H71.694Z" transform="translate(296.855 195.679)" fill="#171716"/>
        <path id="패스_1482" data-name="패스 1482" d="M76.08,48.39H69.808V42.632H62.654V48.39H56.382V35.016h6.272V40.57h7.155V35.016H76.08Z" transform="translate(315.071 195.677)" fill="#171716"/>
        <path id="패스_1483" data-name="패스 1483" d="M77.951,48.39H60.2V35.016H77.18v2h-10.7v3.6h8.327v2.056H66.481v3.709h11.47Z" transform="translate(336.422 195.677)" fill="#171716"/>
        <path id="패스_1484" data-name="패스 1484" d="M59.7,47.864c0,1.416-.988,2.457-2.958,3.143a26.288,26.288,0,0,1-8.229,1.021q-3.014,0-5.093-.171A32.376,32.376,0,0,1,40,51.409v-2.26a24.96,24.96,0,0,0,3.307.553,37.666,37.666,0,0,0,4.434.27,15,15,0,0,0,4.223-.4c.764-.27,1.153-.7,1.153-1.3,0-.4-.277-.744-.837-1.048a22.56,22.56,0,0,0-4.737-1.2,16.775,16.775,0,0,1-4.809-1.555,2.838,2.838,0,0,1-1.706-2.55q0-1.542,2.754-2.609a21.644,21.644,0,0,1,7.6-1.074c1.568,0,2.984.066,4.236.191s2.135.237,2.642.329v2.056c-1.067-.138-2.121-.257-3.169-.362s-2.167-.152-3.353-.152a12.451,12.451,0,0,0-3.63.376c-.744.257-1.113.567-1.113.949a1.172,1.172,0,0,0,.83,1.087,33.32,33.32,0,0,0,4.888,1.067A15.86,15.86,0,0,1,58.1,45.453a2.855,2.855,0,0,1,1.6,2.411" transform="translate(223.533 213.685)" fill="#171716"/>
        <path id="패스_1485" data-name="패스 1485" d="M61.765,40.274H55.7V51.645H49.419V40.274H43.2v-2H61.765Z" transform="translate(241.409 213.865)" fill="#171716"/>
        <path id="패스_1486" data-name="패스 1486" d="M66.641,47.817q0,1.9-2.431,2.965a19.832,19.832,0,0,1-7.53,1.067q-5.465,0-7.86-1.14A3.651,3.651,0,0,1,46.428,47.3V38.271H52.7v9.4a1.751,1.751,0,0,0,1.034,1.634,8.456,8.456,0,0,0,3.577.54,9.487,9.487,0,0,0,3.5-.488,1.749,1.749,0,0,0,1.146-1.746V38.271h4.678Z" transform="translate(259.448 213.864)" fill="#171716"/>
        <path id="패스_1487" data-name="패스 1487" d="M63.435,48.706a7.1,7.1,0,0,1-4.039.936H56.511V40.279h2.352A7.26,7.26,0,0,1,63.2,41.432a3.881,3.881,0,0,1,1.588,3.353v.369q0,2.619-1.351,3.551M71.117,44.7A5.31,5.31,0,0,0,68.4,40q-2.708-1.719-8.993-1.726H50.232V51.644H60.463q5.267,0,7.965-1.575a5.219,5.219,0,0,0,2.688-4.829Z" transform="translate(280.706 213.859)" fill="#171716"/>
        <path id="패스_1488" data-name="패스 1488" d="M78.6,38.271,69.348,46v5.646H63.069V46.275l-9.461-8h7.333l6.18,5.363,6.509-5.363Z" transform="translate(299.574 213.863)" fill="#171716"/>
        <path id="패스_1489" data-name="패스 1489" d="M75.507,49.018a5.715,5.715,0,0,1-3.913,1.1c-2.2,0-3.6-.336-4.2-1.021s-.909-1.944-.909-3.762V45q0-2.737,1.008-3.795c.672-.712,2.042-1.061,4.1-1.061,2.227,0,3.643.4,4.236,1.186A6.158,6.158,0,0,1,76.72,45v.356a4.758,4.758,0,0,1-1.212,3.663m7.537-4.2A5.5,5.5,0,0,0,80.185,40.1q-2.856-1.858-8.426-1.858-5.7,0-8.65,1.831a5.448,5.448,0,0,0-2.951,4.743v.758a5.206,5.206,0,0,0,3.162,4.8,17.9,17.9,0,0,0,8.275,1.654A17.935,17.935,0,0,0,79.9,50.369a5.232,5.232,0,0,0,3.143-4.829Z" transform="translate(336.169 213.691)" fill="#171716"/>
        <path id="패스_1490" data-name="패스 1490" d="M81.188,40.274h-10.7v3.6h8.334v2.056H70.488v5.712H64.21V38.271H81.188Z" transform="translate(358.817 213.865)" fill="#171716"/>
        <path id="패스_1491" data-name="패스 1491" d="M55.468,52.272a5.75,5.75,0,0,1-3.913,1.1q-3.291,0-4.2-1.028c-.6-.679-.9-1.937-.9-3.755v-.336q0-2.737,1.008-3.795c.672-.712,2.042-1.067,4.1-1.067,2.233,0,3.65.4,4.243,1.192a6.148,6.148,0,0,1,.883,3.67V48.6a4.75,4.75,0,0,1-1.212,3.67m7.543-4.2a5.5,5.5,0,0,0-2.859-4.717q-2.856-1.858-8.426-1.858-5.7,0-8.65,1.832a5.448,5.448,0,0,0-2.958,4.743v.758a5.2,5.2,0,0,0,3.169,4.79,17.783,17.783,0,0,0,8.268,1.66,17.81,17.81,0,0,0,8.308-1.66,5.221,5.221,0,0,0,3.149-4.829Z" transform="translate(224.187 231.875)" fill="#171716"/>
        <path id="패스_1492" data-name="패스 1492" d="M55.2,46a6.584,6.584,0,0,1-2.741.408H50.24V43.429H52.42a7.9,7.9,0,0,1,2.688.349,1.219,1.219,0,0,1,.9,1.16A1.2,1.2,0,0,1,55.2,46m6.865,2.023a11.342,11.342,0,0,0-4.632-1.166A8.321,8.321,0,0,0,60.814,46a1.966,1.966,0,0,0,1.1-1.772c0-.856-.593-1.522-1.785-2a18.021,18.021,0,0,0-6.035-.711H44.172V54.9H53.9a19.487,19.487,0,0,0,7.319-1.107q2.648-1.1,2.648-3.136a2.95,2.95,0,0,0-1.805-2.629m-5.547,4.328a8.244,8.244,0,0,1-3.808.639H50.24V48.212h2.135a9.581,9.581,0,0,1,4.039.619,1.885,1.885,0,0,1,1.239,1.687,2.007,2.007,0,0,1-1.133,1.838" transform="translate(246.842 232.048)" fill="#171716"/>
        <path id="패스_1493" data-name="패스 1493" d="M65.567,54.9H47.818V41.525H64.8v2.009H54.1v3.6h8.327v2.056H54.1V52.9h11.47Z" transform="translate(267.219 232.048)" fill="#171716"/>
        <path id="패스_1494" data-name="패스 1494" d="M70.461,51.119c0,1.41-.982,2.457-2.958,3.136a26.038,26.038,0,0,1-8.229,1.028q-3.014,0-5.093-.178a30.708,30.708,0,0,1-3.419-.441V52.4a23.672,23.672,0,0,0,3.307.56,37.645,37.645,0,0,0,4.434.263,15.064,15.064,0,0,0,4.223-.4c.764-.27,1.153-.7,1.153-1.3,0-.4-.277-.744-.837-1.048a22.7,22.7,0,0,0-4.737-1.2A17.218,17.218,0,0,1,53.5,47.733a2.847,2.847,0,0,1-1.706-2.556c0-1.028.916-1.9,2.754-2.616a21.665,21.665,0,0,1,7.6-1.067c1.568,0,2.984.066,4.236.191s2.135.237,2.642.323V44.07c-1.061-.138-2.121-.263-3.169-.362s-2.168-.152-3.353-.152a12.421,12.421,0,0,0-3.63.376c-.744.25-1.113.567-1.113.942a1.16,1.16,0,0,0,.83,1.087,32.038,32.038,0,0,0,4.888,1.074A16.035,16.035,0,0,1,68.86,48.7a2.872,2.872,0,0,1,1.6,2.418" transform="translate(283.668 231.875)" fill="#171716"/>
        <rect id="사각형_721" data-name="사각형 721" width="6.272" height="13.374" transform="translate(359.102 273.575)" fill="#171716"/>
        <path id="패스_1495" data-name="패스 1495" d="M74.633,43.528H68.565V54.893H62.287V43.528H56.068v-2H74.633Z" transform="translate(313.317 232.052)" fill="#171716"/>
        <path id="패스_1496" data-name="패스 1496" d="M83.878,41.525l-9.256,7.721V54.9H68.343V49.523l-9.461-8h7.326l6.186,5.363L78.9,41.525Z" transform="translate(329.045 232.05)" fill="#171716"/>
      </g>
    </g>
  </g>
  <g id="그룹_1464" data-name="그룹 1464" transform="translate(21.346 12.007)">
    <g id="그룹_1426" data-name="그룹 1426" transform="translate(0 0)" clip-path="url(#clip-path-2)">
      <path id="패스_1884" data-name="패스 1884" d="M23.5,19.351a7.3,7.3,0,0,1-2.42-1.408A13.123,13.123,0,0,1,18.108,13.5a13.37,13.37,0,0,0,3.273,4.072,6.45,6.45,0,0,0,2.253,1.219,6.319,6.319,0,0,0,2.535.132,7.8,7.8,0,0,0,2.46-.6,2.146,2.146,0,0,0,.879-.73,1.765,1.765,0,0,0,.247-1.085,2.91,2.91,0,0,0-.084-.587.878.878,0,0,0-.092-.245l-.06-.116-.083-.107a1.672,1.672,0,0,0-.918-.567c-.723-.183-1.537.181-1.468.953v.035a.412.412,0,0,1-.033.211.427.427,0,0,1-.783-.343,3.3,3.3,0,0,0,.133-.382c.051-.125.111-.251.168-.372a2.643,2.643,0,0,1,.267-.33,1.655,1.655,0,0,1,.334-.251,2.253,2.253,0,0,1,3.09.775l.015.027a2.675,2.675,0,0,1,.037,2.616v.008c-.052.1-.089.163-.089.163a3.222,3.222,0,0,1-1.239,1.026,7.512,7.512,0,0,1-2.636.6,7.5,7.5,0,0,1-2.823-.267" transform="translate(5.717 4.512)" fill="#4a58a1"/>
      <path id="패스_1885" data-name="패스 1885" d="M21.5,19.035A10.647,10.647,0,0,0,23.513,20.3a9.668,9.668,0,0,0,2.3.78,7.129,7.129,0,0,0,2.535.031l.64-.133c.208-.065.412-.147.62-.223l.311-.119.291-.157a3.784,3.784,0,0,0,.564-.35.806.806,0,0,0-.959-1.3l-.02.013a6.79,6.79,0,0,1-1.766,1.047,6.018,6.018,0,0,1-2.123.348,9.068,9.068,0,0,1-2.237-.343,10.428,10.428,0,0,1-2.164-.857" transform="translate(6.852 6.241)" fill="#4a58a1"/>
      <path id="패스_1886" data-name="패스 1886" d="M22.491,20.689A7.19,7.19,0,0,0,24.66,22.7a6.048,6.048,0,0,0,1.408.627l.379.105.39.072a2.522,2.522,0,0,0,.4.048,2.006,2.006,0,0,0,.4,0,.522.522,0,0,0-.06-1.039,8.25,8.25,0,0,1-1.334,0,5.275,5.275,0,0,1-1.334-.319,6.83,6.83,0,0,1-1.267-.627,7.041,7.041,0,0,1-1.145-.881" transform="translate(7.181 6.913)" fill="#4a58a1"/>
      <path id="패스_1887" data-name="패스 1887" d="M10.849,20.346a2.766,2.766,0,1,1,2.766-2.766,2.765,2.765,0,0,1-2.766,2.766m0-4.231a1.468,1.468,0,1,0,1.468,1.468,1.467,1.467,0,0,0-1.468-1.468" transform="translate(2.367 4.951)" fill="#4a58a1"/>
      <path id="패스_1888" data-name="패스 1888" d="M22.475,27.82a1.5,1.5,0,1,1-1.5-1.5,1.5,1.5,0,0,1,1.5,1.5" transform="translate(6.177 8.797)" fill="#4a58a1"/>
      <path id="패스_1889" data-name="패스 1889" d="M12.614,30.231a7.339,7.339,0,0,0-1.4-2.419A13.114,13.114,0,0,0,6.767,24.84a13.376,13.376,0,0,1,4.073,3.274,6.441,6.441,0,0,1,1.219,2.256,6.343,6.343,0,0,1,.133,2.535,7.8,7.8,0,0,1-.606,2.46,2.114,2.114,0,0,1-.728.879,1.772,1.772,0,0,1-1.086.248,2.808,2.808,0,0,1-.587-.085.808.808,0,0,1-.244-.092l-.12-.055-.1-.083a1.668,1.668,0,0,1-.57-.919c-.181-.722.181-1.536.953-1.461h.035A.428.428,0,1,0,9,32.979a3.231,3.231,0,0,1-.382.133c-.125.051-.251.111-.374.168a2.824,2.824,0,0,0-.33.26,1.608,1.608,0,0,0-.249.335,2.251,2.251,0,0,0,.774,3.087l.027.016a2.678,2.678,0,0,0,2.616.039H11.1c.1-.052.163-.089.163-.089a3.268,3.268,0,0,0,1.026-1.239,7.511,7.511,0,0,0,.6-2.631,7.481,7.481,0,0,0-.267-2.824" transform="translate(1.927 8.301)" fill="#4a58a1"/>
      <path id="패스_1890" data-name="패스 1890" d="M12.3,28.237a10.647,10.647,0,0,1,1.263,2.009,9.668,9.668,0,0,1,.78,2.3,7.129,7.129,0,0,1,.031,2.535l-.133.64c-.064.208-.147.412-.223.62l-.119.311-.157.291a3.784,3.784,0,0,1-.35.564.806.806,0,0,1-1.3-.959l.013-.02a6.79,6.79,0,0,0,1.047-1.766,6.018,6.018,0,0,0,.348-2.123,9.068,9.068,0,0,0-.343-2.237,10.429,10.429,0,0,0-.857-2.164" transform="translate(3.657 9.436)" fill="#4a58a1"/>
      <path id="패스_1891" data-name="패스 1891" d="M13.951,29.222a7.2,7.2,0,0,1,2.009,2.171,6.048,6.048,0,0,1,.627,1.407l.105.379.072.388a2.541,2.541,0,0,1,.048.4,2.02,2.02,0,0,1,0,.4.522.522,0,0,1-1.039-.061,8.167,8.167,0,0,0,0-1.327,5.289,5.289,0,0,0-.319-1.334,6.913,6.913,0,0,0-.627-1.267,7.031,7.031,0,0,0-.881-1.143" transform="translate(4.327 9.765)" fill="#4a58a1"/>
      <path id="패스_1892" data-name="패스 1892" d="M23.5,558.48a7.326,7.326,0,0,0-2.42,1.407,13.13,13.13,0,0,0-2.971,4.447,13.392,13.392,0,0,1,3.273-4.073,5.8,5.8,0,0,1,4.8-1.352,7.882,7.882,0,0,1,2.46.607,2.143,2.143,0,0,1,.879.728,1.771,1.771,0,0,1,.247,1.086,2.9,2.9,0,0,1-.084.587.885.885,0,0,1-.092.244l-.06.117-.083.1a1.668,1.668,0,0,1-.918.57c-.723.18-1.537-.181-1.468-.953v-.035a.409.409,0,0,0-.033-.211.427.427,0,0,0-.783.342,3.486,3.486,0,0,1,.133.381c.051.125.111.251.168.374a2.64,2.64,0,0,0,.267.33,1.6,1.6,0,0,0,.334.25,2.255,2.255,0,0,0,3.091-.776l.013-.024a2.677,2.677,0,0,0,.037-2.617v-.008c-.052-.1-.089-.163-.089-.163a3.246,3.246,0,0,0-1.239-1.026,7.542,7.542,0,0,0-2.636-.6,7.476,7.476,0,0,0-2.823.267" transform="translate(5.717 186.504)" fill="#4a58a1"/>
      <path id="패스_1893" data-name="패스 1893" d="M21.5,557.89a10.647,10.647,0,0,1,2.009-1.263,9.61,9.61,0,0,1,2.3-.78,7.1,7.1,0,0,1,2.535-.031l.64.133c.208.064.412.147.62.223l.311.119.291.157a3.786,3.786,0,0,1,.564.349.806.806,0,1,1-.959,1.3l-.02-.013a6.792,6.792,0,0,0-1.766-1.047,6.016,6.016,0,0,0-2.123-.348,9.068,9.068,0,0,0-2.237.343,10.432,10.432,0,0,0-2.164.857" transform="translate(6.852 185.681)" fill="#4a58a1"/>
      <path id="패스_1894" data-name="패스 1894" d="M22.491,556.318a7.189,7.189,0,0,1,2.169-2.009,6.049,6.049,0,0,1,1.408-.627l.379-.105.39-.072a2.527,2.527,0,0,1,.4-.048,2.236,2.236,0,0,1,.4,0,.522.522,0,0,1-.06,1.039,8.251,8.251,0,0,0-1.334,0,5.277,5.277,0,0,0-1.334.319,6.913,6.913,0,0,0-1.267.627,7.043,7.043,0,0,0-1.145.88" transform="translate(7.181 184.922)" fill="#4a58a1"/>
      <path id="패스_1895" data-name="패스 1895" d="M13.614,560.093a2.766,2.766,0,1,1-2.766-2.766,2.765,2.765,0,0,1,2.766,2.766m-1.3,0a1.468,1.468,0,1,0-1.468,1.467,1.468,1.468,0,0,0,1.468-1.467" transform="translate(2.367 186.219)" fill="#4a58a1"/>
      <path id="패스_1896" data-name="패스 1896" d="M22.475,549.223a1.5,1.5,0,1,0-1.5,1.5,1.5,1.5,0,0,0,1.5-1.5" transform="translate(6.177 183.011)" fill="#4a58a1"/>
      <path id="패스_1897" data-name="패스 1897" d="M12.616,549.191a7.334,7.334,0,0,1-1.408,2.419,13.091,13.091,0,0,1-4.447,2.971,13.373,13.373,0,0,0,4.08-3.27,6.463,6.463,0,0,0,1.219-2.256,6.344,6.344,0,0,0,.133-2.535,7.8,7.8,0,0,0-.606-2.46,2.115,2.115,0,0,0-.728-.879,1.772,1.772,0,0,0-1.086-.248,2.815,2.815,0,0,0-.587.085.764.764,0,0,0-.244.092l-.117.059-.1.083a1.672,1.672,0,0,0-.57.919c-.181.722.181,1.536.953,1.461h.035a.428.428,0,1,1-.131.818,3.245,3.245,0,0,0-.382-.133c-.125-.051-.251-.111-.374-.168a2.739,2.739,0,0,1-.33-.267,1.606,1.606,0,0,1-.249-.335,2.251,2.251,0,0,1,.774-3.087l.027-.016a2.678,2.678,0,0,1,2.616-.039H11.1c.1.052.163.089.163.089a3.268,3.268,0,0,1,1.026,1.239,7.546,7.546,0,0,1,.6,2.636,7.481,7.481,0,0,1-.267,2.824" transform="translate(1.926 181.125)" fill="#4a58a1"/>
      <path id="패스_1898" data-name="패스 1898" d="M12.3,550.458a10.646,10.646,0,0,0,1.263-2.009,9.609,9.609,0,0,0,.78-2.3,7.129,7.129,0,0,0,.031-2.535l-.133-.642c-.064-.208-.147-.412-.223-.62l-.119-.311-.157-.289a3.607,3.607,0,0,0-.35-.564.806.806,0,0,0-1.3.958l.013.02a6.811,6.811,0,0,1,1.047,1.766,6.048,6.048,0,0,1,.348,2.123,9.067,9.067,0,0,1-.343,2.237,10.425,10.425,0,0,1-.857,2.164" transform="translate(3.657 180.716)" fill="#4a58a1"/>
      <path id="패스_1899" data-name="패스 1899" d="M13.951,548.471A7.14,7.14,0,0,0,15.96,546.3a6.048,6.048,0,0,0,.627-1.407l.105-.379.072-.39a2.522,2.522,0,0,0,.048-.4,2.006,2.006,0,0,0,0-.4.522.522,0,0,0-1.039.06,8.167,8.167,0,0,1,0,1.327,5.274,5.274,0,0,1-.319,1.334,6.827,6.827,0,0,1-.627,1.267,7.043,7.043,0,0,1-.881,1.145" transform="translate(4.327 181.388)" fill="#4a58a1"/>
      <path id="패스_1900" data-name="패스 1900" d="M397.2,9.812a7.36,7.36,0,0,0-2.8.059,13.137,13.137,0,0,0-4.755,2.452,13.391,13.391,0,0,1,4.836-1.979,6.463,6.463,0,0,1,2.565.025,6.4,6.4,0,0,1,2.284,1.115,7.822,7.822,0,0,1,1.86,1.722,2.107,2.107,0,0,1,.416,1.067,1.777,1.777,0,0,1-.31,1.067,2.769,2.769,0,0,1-.359.474.8.8,0,0,1-.2.168l-.108.073-.123.052a1.677,1.677,0,0,1-1.081.052c-.718-.191-1.255-.9-.816-1.54l.02-.029a.413.413,0,0,0,.072-.2.428.428,0,1,0-.851-.081,3.385,3.385,0,0,1-.065.4c-.016.133-.024.267-.033.408a2.707,2.707,0,0,0,.068.414,1.585,1.585,0,0,0,.172.382,2.252,2.252,0,0,0,3.078.82l.021-.013a2.674,2.674,0,0,0,1.3-2.268v-.2a3.268,3.268,0,0,0-.587-1.5,7.539,7.539,0,0,0-2.015-1.8,7.455,7.455,0,0,0-2.6-1.141" transform="translate(129.858 3.244)" fill="#4a58a1"/>
      <path id="패스_1901" data-name="패스 1901" d="M397.2,9.812a7.36,7.36,0,0,0-2.8.059,13.137,13.137,0,0,0-4.755,2.452,13.391,13.391,0,0,1,4.836-1.979,6.463,6.463,0,0,1,2.565.025,6.4,6.4,0,0,1,2.284,1.115,7.822,7.822,0,0,1,1.86,1.722,2.107,2.107,0,0,1,.416,1.067,1.777,1.777,0,0,1-.31,1.067,2.769,2.769,0,0,1-.359.474.8.8,0,0,1-.2.168l-.108.073-.123.052a1.677,1.677,0,0,1-1.081.052c-.718-.191-1.255-.9-.816-1.54l.02-.029a.413.413,0,0,0,.072-.2.428.428,0,1,0-.851-.081,3.385,3.385,0,0,1-.065.4c-.016.133-.024.267-.033.408a2.707,2.707,0,0,0,.068.414,1.585,1.585,0,0,0,.172.382,2.252,2.252,0,0,0,3.078.82l.021-.013a2.674,2.674,0,0,0,1.3-2.268v-.2a3.268,3.268,0,0,0-.587-1.5,7.539,7.539,0,0,0-2.015-1.8,7.455,7.455,0,0,0-2.6-1.141" transform="translate(129.858 3.244)" fill="none" stroke="#4a59a2" stroke-linecap="round" stroke-linejoin="round" stroke-width="0.25"/>
      <path id="패스_1902" data-name="패스 1902" d="M395.26,8.584a10.674,10.674,0,0,1,2.369-.133,9.674,9.674,0,0,1,2.393.432,7.141,7.141,0,0,1,2.228,1.2l.492.432c.151.157.289.33.435.5l.215.255.177.277a3.675,3.675,0,0,1,.324.579.806.806,0,1,1-1.468.667l-.011-.021A6.811,6.811,0,0,0,401.379,11a6.044,6.044,0,0,0-1.688-1.334,9.013,9.013,0,0,0-2.124-.784,10.443,10.443,0,0,0-2.308-.3" transform="translate(131.733 2.82)" fill="#4a58a1"/>
      <path id="패스_1903" data-name="패스 1903" d="M395.26,8.584a10.674,10.674,0,0,1,2.369-.133,9.674,9.674,0,0,1,2.393.432,7.141,7.141,0,0,1,2.228,1.2l.492.432c.151.157.289.33.435.5l.215.255.177.277a3.675,3.675,0,0,1,.324.579.806.806,0,1,1-1.468.667l-.011-.021A6.811,6.811,0,0,0,401.379,11a6.044,6.044,0,0,0-1.688-1.334,9.013,9.013,0,0,0-2.124-.784,10.443,10.443,0,0,0-2.308-.3" transform="translate(131.733 2.82)" fill="none" stroke="#4a59a2" stroke-linecap="round" stroke-linejoin="round" stroke-width="0.25"/>
      <path id="패스_1904" data-name="패스 1904" d="M396.968,7.678a7.152,7.152,0,0,1,2.871-.707,6.051,6.051,0,0,1,1.534.133l.383.091.376.127a2.444,2.444,0,0,1,.368.149,2.076,2.076,0,0,1,.351.191.522.522,0,0,1-.556.881,8.017,8.017,0,0,0-1.161-.646,5.294,5.294,0,0,0-1.322-.368,6.949,6.949,0,0,0-1.413-.065,7.073,7.073,0,0,0-1.427.216" transform="translate(132.304 2.329)" fill="#4a58a1"/>
      <path id="패스_1905" data-name="패스 1905" d="M396.968,7.678a7.152,7.152,0,0,1,2.871-.707,6.051,6.051,0,0,1,1.534.133l.383.091.376.127a2.444,2.444,0,0,1,.368.149,2.076,2.076,0,0,1,.351.191.522.522,0,0,1-.556.881,8.017,8.017,0,0,0-1.161-.646,5.294,5.294,0,0,0-1.322-.368,6.949,6.949,0,0,0-1.413-.065,7.073,7.073,0,0,0-1.427.216" transform="translate(132.304 2.329)" fill="none" stroke="#4a59a2" stroke-linecap="round" stroke-linejoin="round" stroke-width="0.25"/>
      <path id="패스_1906" data-name="패스 1906" d="M394.7,7.625a11.442,11.442,0,0,0,.8-1.672,9.109,9.109,0,0,0,.49-1.752,4.948,4.948,0,0,0,.013-1.734,3.224,3.224,0,0,0-.25-.78,5.255,5.255,0,0,0-.423-.667l-.023-.035a.52.52,0,0,1,.854-.594,3.6,3.6,0,0,1,.646,1.987,5.672,5.672,0,0,1-.294,1.952,9.543,9.543,0,0,1-.77,1.734,11.818,11.818,0,0,1-1.042,1.557" transform="translate(131.547 0.062)" fill="#4a58a1"/>
      <path id="패스_1907" data-name="패스 1907" d="M395.813,2.623a4.349,4.349,0,0,0-1.349-1.159,4.971,4.971,0,0,0-.792-.358,5.946,5.946,0,0,0-.83-.221h-.011A.446.446,0,0,1,393.01.01a.534.534,0,0,1,.1.035,6.342,6.342,0,0,1,.855.471,5.333,5.333,0,0,1,.756.594,4.547,4.547,0,0,1,1.086,1.514" transform="translate(130.803 0.002)" fill="#4a58a1"/>
      <path id="패스_1908" data-name="패스 1908" d="M397.2,568.317a7.361,7.361,0,0,1-2.8-.059,13.137,13.137,0,0,1-4.755-2.452,13.389,13.389,0,0,0,4.836,1.978,6.463,6.463,0,0,0,2.565-.025,6.4,6.4,0,0,0,2.284-1.115,7.821,7.821,0,0,0,1.86-1.722,2.107,2.107,0,0,0,.416-1.067,1.777,1.777,0,0,0-.31-1.067,2.767,2.767,0,0,0-.359-.474.8.8,0,0,0-.2-.168l-.108-.073-.123-.052a1.677,1.677,0,0,0-1.081-.052c-.718.191-1.255.9-.816,1.54l.02.029a.413.413,0,0,1,.072.2.428.428,0,1,1-.851.081,3.384,3.384,0,0,0-.065-.4c-.016-.133-.024-.267-.033-.408a2.706,2.706,0,0,1,.068-.414,1.584,1.584,0,0,1,.172-.382,2.252,2.252,0,0,1,3.078-.82l.021.013a2.674,2.674,0,0,1,1.3,2.268v.2a3.267,3.267,0,0,1-.587,1.5,8.785,8.785,0,0,1-4.612,2.944" transform="translate(129.858 187.476)" fill="#4a58a1"/>
      <path id="패스_1909" data-name="패스 1909" d="M397.2,568.317a7.361,7.361,0,0,1-2.8-.059,13.137,13.137,0,0,1-4.755-2.452,13.389,13.389,0,0,0,4.836,1.978,6.463,6.463,0,0,0,2.565-.025,6.4,6.4,0,0,0,2.284-1.115,7.821,7.821,0,0,0,1.86-1.722,2.107,2.107,0,0,0,.416-1.067,1.777,1.777,0,0,0-.31-1.067,2.767,2.767,0,0,0-.359-.474.8.8,0,0,0-.2-.168l-.108-.073-.123-.052a1.677,1.677,0,0,0-1.081-.052c-.718.191-1.255.9-.816,1.54l.02.029a.413.413,0,0,1,.072.2.428.428,0,1,1-.851.081,3.384,3.384,0,0,0-.065-.4c-.016-.133-.024-.267-.033-.408a2.706,2.706,0,0,1,.068-.414,1.584,1.584,0,0,1,.172-.382,2.252,2.252,0,0,1,3.078-.82l.021.013a2.674,2.674,0,0,1,1.3,2.268v.2a3.267,3.267,0,0,1-.587,1.5,8.785,8.785,0,0,1-4.612,2.944" transform="translate(129.858 187.476)" fill="none" stroke="#4a59a2" stroke-linecap="round" stroke-linejoin="round" stroke-width="0.25"/>
      <path id="패스_1910" data-name="패스 1910" d="M395.26,568.916a10.675,10.675,0,0,0,2.369.133,9.672,9.672,0,0,0,2.393-.432,7.139,7.139,0,0,0,2.228-1.2l.492-.432c.151-.157.289-.33.435-.5l.215-.255.177-.277a3.677,3.677,0,0,0,.324-.579.806.806,0,0,0-1.468-.667l-.011.021a6.811,6.811,0,0,1-1.038,1.772,6.063,6.063,0,0,1-1.688,1.334,9.013,9.013,0,0,1-2.124.784,10.45,10.45,0,0,1-2.308.3" transform="translate(131.733 188.527)" fill="#4a58a1"/>
      <path id="패스_1911" data-name="패스 1911" d="M395.26,568.916a10.675,10.675,0,0,0,2.369.133,9.672,9.672,0,0,0,2.393-.432,7.139,7.139,0,0,0,2.228-1.2l.492-.432c.151-.157.289-.33.435-.5l.215-.255.177-.277a3.677,3.677,0,0,0,.324-.579.806.806,0,0,0-1.468-.667l-.011.021a6.811,6.811,0,0,1-1.038,1.772,6.063,6.063,0,0,1-1.688,1.334,9.013,9.013,0,0,1-2.124.784,10.45,10.45,0,0,1-2.308.3" transform="translate(131.733 188.527)" fill="none" stroke="#4a59a2" stroke-linecap="round" stroke-linejoin="round" stroke-width="0.25"/>
      <path id="패스_1912" data-name="패스 1912" d="M396.968,569.024a7.173,7.173,0,0,0,2.871.707,6.051,6.051,0,0,0,1.534-.133l.383-.091.376-.127a2.585,2.585,0,0,0,.368-.149,2.074,2.074,0,0,0,.351-.191.522.522,0,0,0-.556-.88,8.024,8.024,0,0,1-1.161.646,5.24,5.24,0,0,1-1.322.368,6.862,6.862,0,0,1-1.413.065,6.982,6.982,0,0,1-1.427-.216" transform="translate(132.304 189.816)" fill="#4a58a1"/>
      <path id="패스_1913" data-name="패스 1913" d="M396.968,569.024a7.173,7.173,0,0,0,2.871.707,6.051,6.051,0,0,0,1.534-.133l.383-.091.376-.127a2.585,2.585,0,0,0,.368-.149,2.074,2.074,0,0,0,.351-.191.522.522,0,0,0-.556-.88,8.024,8.024,0,0,1-1.161.646,5.24,5.24,0,0,1-1.322.368,6.862,6.862,0,0,1-1.413.065,6.982,6.982,0,0,1-1.427-.216" transform="translate(132.304 189.816)" fill="none" stroke="#4a59a2" stroke-linecap="round" stroke-linejoin="round" stroke-width="0.25"/>
      <path id="패스_1914" data-name="패스 1914" d="M394.7,570.53a11.567,11.567,0,0,1,.8,1.672,9.1,9.1,0,0,1,.49,1.753,4.948,4.948,0,0,1,.013,1.734,3.2,3.2,0,0,1-.25.779,5.161,5.161,0,0,1-.423.667l-.023.036a.52.52,0,0,0,.854.594,3.605,3.605,0,0,0,.646-1.986,5.672,5.672,0,0,0-.294-1.952,9.467,9.467,0,0,0-.77-1.734,11.818,11.818,0,0,0-1.042-1.557" transform="translate(131.547 190.63)" fill="#4a58a1"/>
      <path id="패스_1915" data-name="패스 1915" d="M395.816,574.328a4.348,4.348,0,0,1-1.349,1.159,4.955,4.955,0,0,1-.792.358,5.706,5.706,0,0,1-.826.22h-.011a.446.446,0,0,0,.148.879l.031-.007a.454.454,0,0,0,.1-.033,6.339,6.339,0,0,0,.855-.471,5.337,5.337,0,0,0,.756-.594,4.565,4.565,0,0,0,1.086-1.514" transform="translate(130.8 191.898)" fill="#4a58a1"/>
      <path id="패스_1916" data-name="패스 1916" d="M4.778,14.708H510.6a26.63,26.63,0,0,0,8.272-1.4l-.02.016c.133-.052.256-.109.39-.164l.033-.015c9.1-3.7,12.092-9.391,12.092-9.391l-.027.02c.041-.065.091-.121.133-.188.019-.031.037-.064.053-.1a1.015,1.015,0,1,0-1.822-.9l-.013.029-.013.028a15.091,15.091,0,0,1-1.853,2.951,23.6,23.6,0,0,1-2.515,2.586c-.667.572-1.35,1.118-2.063,1.636a7.081,7.081,0,0,0,.978-1.842,7.285,7.285,0,0,0,.468-2.513,4.182,4.182,0,0,0-.225-1.343,3.412,3.412,0,0,0-.731-1.2,5.158,5.158,0,0,0-2.285-1.383,6.045,6.045,0,0,0-2.656-.187,4.8,4.8,0,0,0-1.334.427,4.11,4.11,0,0,0-1.151.883,5.225,5.225,0,0,0-.771,1.173,4.7,4.7,0,0,0-.426,1.369,3.019,3.019,0,0,0,.187,1.617,2.47,2.47,0,0,0,1.3,1.262,3.607,3.607,0,0,0,1.588.253,5.353,5.353,0,0,0,1.453-.291l.036-.012a1.171,1.171,0,0,0,.133-.056,1.026,1.026,0,1,0-.934-1.828,2.444,2.444,0,0,1-1.624.257.657.657,0,0,1-.418-.31,1.368,1.368,0,0,1-.125-.72,3.317,3.317,0,0,1,.7-1.773,2.7,2.7,0,0,1,.7-.6,3.4,3.4,0,0,1,.921-.348,4.378,4.378,0,0,1,3.869,1.047,2.6,2.6,0,0,1,.732,1.8,6.259,6.259,0,0,1-.331,2.172,6.073,6.073,0,0,1-1.025,1.964,7.472,7.472,0,0,1-1.658,1.53c-.211.145-.434.28-.654.416A24.529,24.529,0,0,1,508.72,14.06H4.127V383.993h.651Zm526.7,749.684c-.041-.067-.091-.123-.133-.188l.027.021s-2.988-5.694-12.092-9.392l-.033-.015c-.133-.053-.255-.111-.39-.164l.02.017a26.632,26.632,0,0,0-8.272-1.4H4.778V383.992H4.127V753.926h504.6a24.546,24.546,0,0,1,11.252,2.473c.22.133.443.267.654.418a7.463,7.463,0,0,1,1.658,1.529,6.1,6.1,0,0,1,1.025,1.964,6.257,6.257,0,0,1,.331,2.172,2.6,2.6,0,0,1-.732,1.8,4.381,4.381,0,0,1-3.869,1.046,3.4,3.4,0,0,1-.921-.348,2.689,2.689,0,0,1-.7-.6,3.317,3.317,0,0,1-.7-1.773,1.373,1.373,0,0,1,.125-.722.655.655,0,0,1,.418-.308,2.436,2.436,0,0,1,1.624.256,1.026,1.026,0,1,0,.975-1.8c-.013-.008-.028-.015-.041-.021a.834.834,0,0,0-.133-.056l-.036-.013a5.406,5.406,0,0,0-1.453-.289,3.607,3.607,0,0,0-1.588.253,2.472,2.472,0,0,0-1.3,1.261,3.021,3.021,0,0,0-.187,1.618,4.684,4.684,0,0,0,.426,1.367,5.2,5.2,0,0,0,.771,1.173,4.113,4.113,0,0,0,1.151.884,4.793,4.793,0,0,0,1.334.427,6.064,6.064,0,0,0,2.656-.188,5.156,5.156,0,0,0,2.285-1.383,3.4,3.4,0,0,0,.731-1.2,4.178,4.178,0,0,0,.226-1.342,7.3,7.3,0,0,0-.468-2.515,7.1,7.1,0,0,0-.978-1.842c.712.519,1.4,1.067,2.063,1.636a23.6,23.6,0,0,1,2.515,2.586,15.1,15.1,0,0,1,1.853,2.952l.013.028a1.015,1.015,0,0,0,1.836-.867c-.016-.033-.035-.068-.053-.1" transform="translate(1.045 0.431)" fill="#4a58a1"/>
      <path id="패스_1917" data-name="패스 1917" d="M4.778,14.708H510.6a26.63,26.63,0,0,0,8.272-1.4l-.02.016c.133-.052.256-.109.39-.164l.033-.015c9.1-3.7,12.092-9.391,12.092-9.391l-.027.02c.041-.065.091-.121.133-.188.019-.031.037-.064.053-.1a1.015,1.015,0,1,0-1.822-.9l-.013.029-.013.028a15.091,15.091,0,0,1-1.853,2.951,23.6,23.6,0,0,1-2.515,2.586c-.667.572-1.35,1.118-2.063,1.636a7.081,7.081,0,0,0,.978-1.842,7.285,7.285,0,0,0,.468-2.513,4.182,4.182,0,0,0-.225-1.343,3.412,3.412,0,0,0-.731-1.2,5.158,5.158,0,0,0-2.285-1.383,6.045,6.045,0,0,0-2.656-.187,4.8,4.8,0,0,0-1.334.427,4.11,4.11,0,0,0-1.151.883,5.225,5.225,0,0,0-.771,1.173,4.7,4.7,0,0,0-.426,1.369,3.019,3.019,0,0,0,.187,1.617,2.47,2.47,0,0,0,1.3,1.262,3.607,3.607,0,0,0,1.588.253,5.353,5.353,0,0,0,1.453-.291l.036-.012a1.171,1.171,0,0,0,.133-.056,1.026,1.026,0,1,0-.934-1.828,2.444,2.444,0,0,1-1.624.257.657.657,0,0,1-.418-.31,1.368,1.368,0,0,1-.125-.72,3.317,3.317,0,0,1,.7-1.773,2.7,2.7,0,0,1,.7-.6,3.4,3.4,0,0,1,.921-.348,4.378,4.378,0,0,1,3.869,1.047,2.6,2.6,0,0,1,.732,1.8,6.259,6.259,0,0,1-.331,2.172,6.073,6.073,0,0,1-1.025,1.964,7.472,7.472,0,0,1-1.658,1.53c-.211.145-.434.28-.654.416A24.529,24.529,0,0,1,508.72,14.06H4.127V383.993h.651Zm526.7,749.684c-.041-.067-.091-.123-.133-.188l.027.021s-2.988-5.694-12.092-9.392l-.033-.015c-.133-.053-.255-.111-.39-.164l.02.017a26.632,26.632,0,0,0-8.272-1.4H4.778V383.992H4.127V753.926h504.6a24.546,24.546,0,0,1,11.252,2.473c.22.133.443.267.654.418a7.463,7.463,0,0,1,1.658,1.529,6.1,6.1,0,0,1,1.025,1.964,6.257,6.257,0,0,1,.331,2.172,2.6,2.6,0,0,1-.732,1.8,4.381,4.381,0,0,1-3.869,1.046,3.4,3.4,0,0,1-.921-.348,2.689,2.689,0,0,1-.7-.6,3.317,3.317,0,0,1-.7-1.773,1.373,1.373,0,0,1,.125-.722.655.655,0,0,1,.418-.308,2.436,2.436,0,0,1,1.624.256,1.026,1.026,0,1,0,.975-1.8c-.013-.008-.028-.015-.041-.021a.834.834,0,0,0-.133-.056l-.036-.013a5.406,5.406,0,0,0-1.453-.289,3.607,3.607,0,0,0-1.588.253,2.472,2.472,0,0,0-1.3,1.261,3.021,3.021,0,0,0-.187,1.618,4.684,4.684,0,0,0,.426,1.367,5.2,5.2,0,0,0,.771,1.173,4.113,4.113,0,0,0,1.151.884,4.793,4.793,0,0,0,1.334.427,6.064,6.064,0,0,0,2.656-.188,5.156,5.156,0,0,0,2.285-1.383,3.4,3.4,0,0,0,.731-1.2,4.178,4.178,0,0,0,.226-1.342,7.3,7.3,0,0,0-.468-2.515,7.1,7.1,0,0,0-.978-1.842c.712.519,1.4,1.067,2.063,1.636a23.6,23.6,0,0,1,2.515,2.586,15.1,15.1,0,0,1,1.853,2.952l.013.028a1.015,1.015,0,0,0,1.836-.867c-.016-.033-.035-.068-.053-.1" transform="translate(1.045 0.431)" fill="none" stroke="#4a59a2" stroke-linecap="round" stroke-linejoin="round" stroke-width="0.5"/>
      <path id="패스_1918" data-name="패스 1918" d="M21.833,28.568V8.284H507.047a.651.651,0,1,0,.059-1.3.431.431,0,0,0-.059,0H20.529V27.262H.25V736.91H20.529v20.279H507.047a.651.651,0,0,0,0-1.3H21.833V735.608H1.551V28.568ZM513.664,8.289a.651.651,0,1,0-.651-.651.65.65,0,0,0,.651.651h0m-3.307-1.3a.651.651,0,1,0,.65.652v0a.65.65,0,0,0-.65-.65M513.664,755.9a.651.651,0,1,0,.65.652h0a.652.652,0,0,0-.65-.651m-3.307,0a.651.651,0,1,0,.65.652h0a.65.65,0,0,0-.648-.651h0" transform="translate(-0.25 2.334)" fill="#4a58a1"/>
      <path id="패스_1919" data-name="패스 1919" d="M21.833,28.568V8.284H507.047a.651.651,0,1,0,.059-1.3.431.431,0,0,0-.059,0H20.529V27.262H.25V736.91H20.529v20.279H507.047a.651.651,0,0,0,0-1.3H21.833V735.608H1.551V28.568ZM513.664,8.289a.651.651,0,1,0-.651-.651.65.65,0,0,0,.651.651h0m-3.307-1.3a.651.651,0,1,0,.65.652v0a.65.65,0,0,0-.65-.65M513.664,755.9a.651.651,0,1,0,.65.652h0a.652.652,0,0,0-.65-.651m-3.307,0a.651.651,0,1,0,.65.652h0a.65.65,0,0,0-.648-.651h0" transform="translate(-0.25 2.334)" fill="none" stroke="#4a59a2" stroke-linecap="round" stroke-linejoin="round" stroke-width="0.5"/>
      <path id="패스_1920" data-name="패스 1920" d="M789.273,19.352a7.3,7.3,0,0,0,2.419-1.408,13.142,13.142,0,0,0,2.972-4.445,13.409,13.409,0,0,1-3.273,4.073,6.468,6.468,0,0,1-2.257,1.219,6.319,6.319,0,0,1-2.535.132,7.8,7.8,0,0,1-2.461-.6,2.107,2.107,0,0,1-.879-.73,1.765,1.765,0,0,1-.248-1.085,2.794,2.794,0,0,1,.085-.587.8.8,0,0,1,.092-.245l.059-.116.083-.107a1.68,1.68,0,0,1,.919-.567c.722-.183,1.536.181,1.468.953v.035a.428.428,0,1,0,.818-.132,2.869,2.869,0,0,1-.133-.382c-.052-.125-.112-.251-.169-.372a2.644,2.644,0,0,0-.267-.33,1.663,1.663,0,0,0-.335-.251,2.25,2.25,0,0,0-3.087.775l-.016.027a2.679,2.679,0,0,0-.039,2.616v.008c.052.1.089.163.089.163a3.256,3.256,0,0,0,1.239,1.026,8.8,8.8,0,0,0,5.461.343" transform="translate(261.008 4.512)" fill="#4a58a1"/>
      <path id="패스_1921" data-name="패스 1921" d="M790.541,19.035a10.647,10.647,0,0,1-2.009,1.263,9.669,9.669,0,0,1-2.3.78,7.13,7.13,0,0,1-2.535.031l-.64-.133c-.208-.065-.412-.147-.62-.223l-.311-.119-.291-.157a3.783,3.783,0,0,1-.564-.35.806.806,0,1,1,.959-1.3l.02.013a6.789,6.789,0,0,0,1.766,1.047,6.017,6.017,0,0,0,2.123.348,9.067,9.067,0,0,0,2.237-.343,10.427,10.427,0,0,0,2.164-.857" transform="translate(260.599 6.241)" fill="#4a58a1"/>
      <path id="패스_1922" data-name="패스 1922" d="M788.553,20.689a7.159,7.159,0,0,1-2.169,2.009,6.05,6.05,0,0,1-1.407.627l-.379.105-.39.072a2.522,2.522,0,0,1-.4.048,2.007,2.007,0,0,1-.4,0,.522.522,0,0,1,.06-1.039,8.167,8.167,0,0,0,1.327,0,5.274,5.274,0,0,0,1.334-.319,6.829,6.829,0,0,0,1.267-.627,7.04,7.04,0,0,0,1.145-.881" transform="translate(261.27 6.913)" fill="#4a58a1"/>
      <path id="패스_1923" data-name="패스 1923" d="M797.412,17.581a2.767,2.767,0,1,1,2.768,2.766h0a2.769,2.769,0,0,1-2.766-2.766m1.3,0a1.468,1.468,0,1,0,1.467-1.468,1.467,1.467,0,0,0-1.467,1.468" transform="translate(266.103 4.951)" fill="#4a58a1"/>
      <path id="패스_1924" data-name="패스 1924" d="M787.916,27.82a1.5,1.5,0,1,0,1.5-1.5,1.5,1.5,0,0,0-1.5,1.5" transform="translate(262.93 8.797)" fill="#4a58a1"/>
      <path id="패스_1925" data-name="패스 1925" d="M798.561,30.231a7.333,7.333,0,0,1,1.407-2.419,13.114,13.114,0,0,1,4.447-2.972,13.375,13.375,0,0,0-4.073,3.274,6.438,6.438,0,0,0-1.219,2.256,6.343,6.343,0,0,0-.133,2.535,7.8,7.8,0,0,0,.606,2.46,2.114,2.114,0,0,0,.728.879,1.772,1.772,0,0,0,1.086.248,2.807,2.807,0,0,0,.587-.085.809.809,0,0,0,.244-.092l.117-.059.1-.083a1.667,1.667,0,0,0,.57-.919c.181-.722-.181-1.536-.953-1.461h-.035a.427.427,0,1,1,.131-.818,3.236,3.236,0,0,0,.382.133c.125.051.251.111.374.168a2.693,2.693,0,0,1,.329.26,1.606,1.606,0,0,1,.25.335,2.251,2.251,0,0,1-.774,3.087l-.027.016a2.678,2.678,0,0,1-2.616.039h-.009c-.1-.052-.163-.089-.163-.089a3.268,3.268,0,0,1-1.026-1.239,7.517,7.517,0,0,1-.594-2.627,7.483,7.483,0,0,1,.267-2.824" transform="translate(266.388 8.301)" fill="#4a58a1"/>
      <path id="패스_1926" data-name="패스 1926" d="M797.973,28.237a10.647,10.647,0,0,0-1.263,2.009,9.667,9.667,0,0,0-.781,2.3,7.129,7.129,0,0,0-.031,2.535l.133.64c.065.208.147.412.223.62l.119.311.157.291a3.786,3.786,0,0,0,.349.564.806.806,0,0,0,1.3-.959l-.013-.02a6.75,6.75,0,0,1-1.046-1.766,5.987,5.987,0,0,1-.349-2.123,9.062,9.062,0,0,1,.343-2.237,10.432,10.432,0,0,1,.857-2.164" transform="translate(265.564 9.436)" fill="#4a58a1"/>
      <path id="패스_1927" data-name="패스 1927" d="M796.405,29.222a7.194,7.194,0,0,0-2.009,2.171,6.046,6.046,0,0,0-.627,1.407l-.105.379-.072.388a2.525,2.525,0,0,0-.048.4,2.025,2.025,0,0,0,0,.4.522.522,0,0,0,1.039-.061,8.169,8.169,0,0,1,0-1.327,5.283,5.283,0,0,1,.319-1.334,6.915,6.915,0,0,1,.627-1.267,7.03,7.03,0,0,1,.881-1.143" transform="translate(264.807 9.765)" fill="#4a58a1"/>
      <path id="패스_1928" data-name="패스 1928" d="M789.273,558.477a7.32,7.32,0,0,1,2.419,1.407,13.113,13.113,0,0,1,2.972,4.447,13.393,13.393,0,0,0-3.273-4.073,5.812,5.812,0,0,0-4.792-1.353,7.839,7.839,0,0,0-2.461.607,2.113,2.113,0,0,0-.879.728,1.771,1.771,0,0,0-.248,1.086,2.807,2.807,0,0,0,.085.587.807.807,0,0,0,.092.244l.059.117.083.1a1.672,1.672,0,0,0,.919.57c.722.18,1.536-.182,1.468-.953v-.035a.429.429,0,0,1,.391-.464.414.414,0,0,1,.205.032.428.428,0,0,1,.223.562h0a3.01,3.01,0,0,0-.133.382c-.052.125-.112.251-.169.374a2.65,2.65,0,0,1-.267.329,1.608,1.608,0,0,1-.335.249,2.251,2.251,0,0,1-3.089-.776l-.015-.024a2.681,2.681,0,0,1-.039-2.618V560c.052-.1.089-.163.089-.163a3.257,3.257,0,0,1,1.239-1.026,8.8,8.8,0,0,1,5.461-.341" transform="translate(261.008 186.507)" fill="#4a58a1"/>
      <path id="패스_1929" data-name="패스 1929" d="M790.541,557.89a10.648,10.648,0,0,0-2.009-1.263,9.61,9.61,0,0,0-2.3-.78,7.1,7.1,0,0,0-2.535-.031l-.64.133c-.208.064-.412.147-.62.223l-.311.119-.291.157a3.786,3.786,0,0,0-.564.349.806.806,0,1,0,.959,1.3l.02-.013a6.791,6.791,0,0,1,1.766-1.047,6.016,6.016,0,0,1,2.123-.348,9.067,9.067,0,0,1,2.237.343,10.43,10.43,0,0,1,2.164.857" transform="translate(260.599 185.681)" fill="#4a58a1"/>
      <path id="패스_1930" data-name="패스 1930" d="M788.553,556.318a7.159,7.159,0,0,0-2.169-2.009,6.051,6.051,0,0,0-1.407-.627l-.379-.105-.39-.072a2.528,2.528,0,0,0-.4-.048,2.237,2.237,0,0,0-.4,0,.522.522,0,0,0,.06,1.039,8.168,8.168,0,0,1,1.327,0,5.276,5.276,0,0,1,1.334.319,6.912,6.912,0,0,1,1.267.627,7.042,7.042,0,0,1,1.145.88" transform="translate(261.27 184.922)" fill="#4a58a1"/>
      <path id="패스_1931" data-name="패스 1931" d="M800.179,557.33a2.766,2.766,0,1,1-2.766,2.767,2.765,2.765,0,0,1,2.766-2.767m0,4.23a1.467,1.467,0,1,0-1.468-1.468,1.468,1.468,0,0,0,1.468,1.468" transform="translate(266.103 186.22)" fill="#4a58a1"/>
      <path id="패스_1932" data-name="패스 1932" d="M787.916,549.223a1.5,1.5,0,1,1,1.5,1.5,1.5,1.5,0,0,1-1.5-1.5" transform="translate(262.93 183.011)" fill="#4a58a1"/>
      <path id="패스_1933" data-name="패스 1933" d="M798.56,549.191a7.332,7.332,0,0,0,1.407,2.419,13.091,13.091,0,0,0,4.447,2.971,13.361,13.361,0,0,1-4.073-3.27,6.461,6.461,0,0,1-1.219-2.256,6.343,6.343,0,0,1-.133-2.535,7.8,7.8,0,0,1,.606-2.46,2.114,2.114,0,0,1,.728-.879,1.772,1.772,0,0,1,1.086-.248,2.813,2.813,0,0,1,.587.085.763.763,0,0,1,.244.092l.117.059.1.083a1.672,1.672,0,0,1,.57.919c.181.722-.181,1.536-.953,1.461h-.035a.427.427,0,1,0,.131.818,3.251,3.251,0,0,1,.382-.133c.125-.051.251-.111.374-.168a2.64,2.64,0,0,0,.329-.267,1.6,1.6,0,0,0,.25-.335,2.251,2.251,0,0,0-.774-3.087l-.027-.016a2.678,2.678,0,0,0-2.616-.039h-.009c-.1.052-.163.089-.163.089a3.268,3.268,0,0,0-1.026,1.239,8.8,8.8,0,0,0-.342,5.461" transform="translate(266.389 181.125)" fill="#4a58a1"/>
      <path id="패스_1934" data-name="패스 1934" d="M797.973,550.458a10.647,10.647,0,0,1-1.263-2.009,9.607,9.607,0,0,1-.781-2.3,7.129,7.129,0,0,1-.031-2.535l.133-.642c.065-.208.147-.412.223-.62l.119-.311.157-.289a3.618,3.618,0,0,1,.349-.564.806.806,0,0,1,1.3.958l-.013.02a6.749,6.749,0,0,0-1.046,1.766,5.987,5.987,0,0,0-.349,2.123,9.062,9.062,0,0,0,.343,2.237,10.428,10.428,0,0,0,.857,2.164" transform="translate(265.564 180.716)" fill="#4a58a1"/>
      <path id="패스_1935" data-name="패스 1935" d="M796.405,548.471A7.157,7.157,0,0,1,794.4,546.3a6.046,6.046,0,0,1-.627-1.407l-.105-.379-.072-.39a2.506,2.506,0,0,1-.048-.4,2.011,2.011,0,0,1,0-.4.522.522,0,0,1,1.039.06,8.169,8.169,0,0,0,0,1.327,5.268,5.268,0,0,0,.319,1.334,6.829,6.829,0,0,0,.627,1.267,7.042,7.042,0,0,0,.881,1.145" transform="translate(264.807 181.388)" fill="#4a58a1"/>
      <path id="패스_1936" data-name="패스 1936" d="M415.832,9.812a7.306,7.306,0,0,1,2.8.059,13.137,13.137,0,0,1,4.755,2.452,13.373,13.373,0,0,0-4.838-1.979,5.792,5.792,0,0,0-4.848,1.141,7.822,7.822,0,0,0-1.86,1.722,2.107,2.107,0,0,0-.416,1.067,1.777,1.777,0,0,0,.31,1.067,2.816,2.816,0,0,0,.359.474.8.8,0,0,0,.2.168l.108.073.123.052a1.677,1.677,0,0,0,1.081.052c.718-.191,1.255-.9.816-1.54l-.02-.029a.412.412,0,0,1-.072-.2.428.428,0,1,1,.851-.081,3.372,3.372,0,0,0,.065.4c.016.133.024.267.033.408a2.544,2.544,0,0,1-.068.414,1.587,1.587,0,0,1-.172.382,2.252,2.252,0,0,1-3.078.82l-.021-.013a2.674,2.674,0,0,1-1.3-2.268v-.2a3.268,3.268,0,0,1,.587-1.5,7.538,7.538,0,0,1,2.015-1.8,7.455,7.455,0,0,1,2.6-1.141" transform="translate(136.871 3.244)" fill="#4a58a1"/>
      <path id="패스_1937" data-name="패스 1937" d="M415.832,9.812a7.306,7.306,0,0,1,2.8.059,13.137,13.137,0,0,1,4.755,2.452,13.373,13.373,0,0,0-4.838-1.979,5.792,5.792,0,0,0-4.848,1.141,7.822,7.822,0,0,0-1.86,1.722,2.107,2.107,0,0,0-.416,1.067,1.777,1.777,0,0,0,.31,1.067,2.816,2.816,0,0,0,.359.474.8.8,0,0,0,.2.168l.108.073.123.052a1.677,1.677,0,0,0,1.081.052c.718-.191,1.255-.9.816-1.54l-.02-.029a.412.412,0,0,1-.072-.2.428.428,0,1,1,.851-.081,3.372,3.372,0,0,0,.065.4c.016.133.024.267.033.408a2.544,2.544,0,0,1-.068.414,1.587,1.587,0,0,1-.172.382,2.252,2.252,0,0,1-3.078.82l-.021-.013a2.674,2.674,0,0,1-1.3-2.268v-.2a3.268,3.268,0,0,1,.587-1.5,7.538,7.538,0,0,1,2.015-1.8,7.455,7.455,0,0,1,2.6-1.141" transform="translate(136.871 3.244)" fill="none" stroke="#4a59a2" stroke-linecap="round" stroke-linejoin="round" stroke-width="0.25"/>
      <path id="패스_1938" data-name="패스 1938" d="M416.763,8.585a10.594,10.594,0,0,0-2.369-.133A9.674,9.674,0,0,0,412,8.883a7.14,7.14,0,0,0-2.228,1.2l-.492.432c-.151.157-.289.33-.435.5l-.215.255-.177.278a3.675,3.675,0,0,0-.324.579.806.806,0,0,0,1.468.667l.011-.021A6.811,6.811,0,0,1,410.644,11a6.043,6.043,0,0,1,1.688-1.334,9.013,9.013,0,0,1,2.124-.784,10.444,10.444,0,0,1,2.308-.3" transform="translate(136.008 2.82)" fill="#4a58a1"/>
      <path id="패스_1939" data-name="패스 1939" d="M416.763,8.585a10.594,10.594,0,0,0-2.369-.133A9.674,9.674,0,0,0,412,8.883a7.14,7.14,0,0,0-2.228,1.2l-.492.432c-.151.157-.289.33-.435.5l-.215.255-.177.278a3.675,3.675,0,0,0-.324.579.806.806,0,0,0,1.468.667l.011-.021A6.811,6.811,0,0,1,410.644,11a6.043,6.043,0,0,1,1.688-1.334,9.013,9.013,0,0,1,2.124-.784,10.444,10.444,0,0,1,2.308-.3" transform="translate(136.008 2.82)" fill="none" stroke="#4a59a2" stroke-linecap="round" stroke-linejoin="round" stroke-width="0.25"/>
      <path id="패스_1940" data-name="패스 1940" d="M414.4,7.678a7.152,7.152,0,0,0-2.871-.707A6.051,6.051,0,0,0,410,7.1l-.384.091-.375.127a2.46,2.46,0,0,0-.37.149,2.064,2.064,0,0,0-.35.191.522.522,0,0,0,.556.881,8.018,8.018,0,0,1,1.161-.646,5.283,5.283,0,0,1,1.321-.368,6.949,6.949,0,0,1,1.413-.065,7.087,7.087,0,0,1,1.429.216" transform="translate(136.091 2.329)" fill="#4a58a1"/>
      <path id="패스_1941" data-name="패스 1941" d="M414.4,7.678a7.152,7.152,0,0,0-2.871-.707A6.051,6.051,0,0,0,410,7.1l-.384.091-.375.127a2.46,2.46,0,0,0-.37.149,2.064,2.064,0,0,0-.35.191.522.522,0,0,0,.556.881,8.018,8.018,0,0,1,1.161-.646,5.283,5.283,0,0,1,1.321-.368,6.949,6.949,0,0,1,1.413-.065,7.087,7.087,0,0,1,1.429.216" transform="translate(136.091 2.329)" fill="none" stroke="#4a59a2" stroke-linecap="round" stroke-linejoin="round" stroke-width="0.25"/>
      <path id="패스_1942" data-name="패스 1942" d="M415.666,7.625a11.449,11.449,0,0,1-.8-1.672,9.114,9.114,0,0,1-.49-1.752,4.985,4.985,0,0,1-.013-1.734,3.229,3.229,0,0,1,.249-.78,5.349,5.349,0,0,1,.422-.667l.024-.035A.52.52,0,0,0,414.2.391a3.62,3.62,0,0,0-.646,1.987,5.639,5.639,0,0,0,.294,1.952,9.535,9.535,0,0,0,.77,1.734,11.811,11.811,0,0,0,1.042,1.557" transform="translate(137.846 0.062)" fill="#4a58a1"/>
      <path id="패스_1943" data-name="패스 1943" d="M414.866,2.623a4.351,4.351,0,0,1,1.349-1.159,4.97,4.97,0,0,1,.792-.358,5.89,5.89,0,0,1,.826-.221h.011a.446.446,0,0,0-.179-.874.533.533,0,0,0-.1.035,6.439,6.439,0,0,0-.851.47,5.615,5.615,0,0,0-.756.594,4.575,4.575,0,0,0-1.085,1.514" transform="translate(138.284 0.002)" fill="#4a58a1"/>
      <path id="패스_1944" data-name="패스 1944" d="M415.832,568.317a7.361,7.361,0,0,0,2.8-.059,13.136,13.136,0,0,0,4.755-2.452,13.372,13.372,0,0,1-4.838,1.978,5.791,5.791,0,0,1-4.848-1.141,7.821,7.821,0,0,1-1.86-1.722,2.107,2.107,0,0,1-.416-1.067,1.777,1.777,0,0,1,.31-1.067,2.761,2.761,0,0,1,.359-.474.8.8,0,0,1,.2-.168l.108-.073.123-.052a1.677,1.677,0,0,1,1.081-.052c.718.191,1.255.9.816,1.54l-.02.029a.413.413,0,0,0-.072.2.428.428,0,1,0,.851.081,3.371,3.371,0,0,1,.065-.4c.016-.133.024-.267.033-.408a2.544,2.544,0,0,0-.068-.414,1.587,1.587,0,0,0-.172-.382,2.252,2.252,0,0,0-3.078-.82l-.021.013a2.674,2.674,0,0,0-1.3,2.268v.2a3.267,3.267,0,0,0,.587,1.5,8.784,8.784,0,0,0,4.612,2.944" transform="translate(136.871 187.476)" fill="#4a58a1"/>
      <path id="패스_1945" data-name="패스 1945" d="M415.832,568.317a7.361,7.361,0,0,0,2.8-.059,13.136,13.136,0,0,0,4.755-2.452,13.372,13.372,0,0,1-4.838,1.978,5.791,5.791,0,0,1-4.848-1.141,7.821,7.821,0,0,1-1.86-1.722,2.107,2.107,0,0,1-.416-1.067,1.777,1.777,0,0,1,.31-1.067,2.761,2.761,0,0,1,.359-.474.8.8,0,0,1,.2-.168l.108-.073.123-.052a1.677,1.677,0,0,1,1.081-.052c.718.191,1.255.9.816,1.54l-.02.029a.413.413,0,0,0-.072.2.428.428,0,1,0,.851.081,3.371,3.371,0,0,1,.065-.4c.016-.133.024-.267.033-.408a2.544,2.544,0,0,0-.068-.414,1.587,1.587,0,0,0-.172-.382,2.252,2.252,0,0,0-3.078-.82l-.021.013a2.674,2.674,0,0,0-1.3,2.268v.2a3.267,3.267,0,0,0,.587,1.5,8.784,8.784,0,0,0,4.612,2.944" transform="translate(136.871 187.476)" fill="none" stroke="#4a59a2" stroke-linecap="round" stroke-linejoin="round" stroke-width="0.25"/>
      <path id="패스_1946" data-name="패스 1946" d="M416.763,568.916a10.675,10.675,0,0,1-2.369.133,9.672,9.672,0,0,1-2.393-.432,7.138,7.138,0,0,1-2.228-1.2l-.492-.432c-.151-.157-.289-.33-.435-.5l-.215-.255-.177-.277a3.678,3.678,0,0,1-.324-.579.806.806,0,0,1,1.468-.667l.011.021a6.811,6.811,0,0,0,1.038,1.772,6.062,6.062,0,0,0,1.688,1.334,9.013,9.013,0,0,0,2.124.784,10.45,10.45,0,0,0,2.308.3" transform="translate(136.008 188.527)" fill="#4a58a1"/>
      <path id="패스_1947" data-name="패스 1947" d="M416.763,568.916a10.675,10.675,0,0,1-2.369.133,9.672,9.672,0,0,1-2.393-.432,7.138,7.138,0,0,1-2.228-1.2l-.492-.432c-.151-.157-.289-.33-.435-.5l-.215-.255-.177-.277a3.678,3.678,0,0,1-.324-.579.806.806,0,0,1,1.468-.667l.011.021a6.811,6.811,0,0,0,1.038,1.772,6.062,6.062,0,0,0,1.688,1.334,9.013,9.013,0,0,0,2.124.784,10.45,10.45,0,0,0,2.308.3" transform="translate(136.008 188.527)" fill="none" stroke="#4a59a2" stroke-linecap="round" stroke-linejoin="round" stroke-width="0.25"/>
      <path id="패스_1948" data-name="패스 1948" d="M414.4,569.024a7.173,7.173,0,0,1-2.871.707A6.052,6.052,0,0,1,410,569.6l-.384-.091-.375-.127a2.6,2.6,0,0,1-.37-.149,2.062,2.062,0,0,1-.35-.191.522.522,0,0,1,.556-.88,8.025,8.025,0,0,0,1.161.646,5.229,5.229,0,0,0,1.321.368,6.862,6.862,0,0,0,1.413.065,7,7,0,0,0,1.429-.216" transform="translate(136.091 189.816)" fill="#4a58a1"/>
      <path id="패스_1949" data-name="패스 1949" d="M414.4,569.024a7.173,7.173,0,0,1-2.871.707A6.052,6.052,0,0,1,410,569.6l-.384-.091-.375-.127a2.6,2.6,0,0,1-.37-.149,2.062,2.062,0,0,1-.35-.191.522.522,0,0,1,.556-.88,8.025,8.025,0,0,0,1.161.646,5.229,5.229,0,0,0,1.321.368,6.862,6.862,0,0,0,1.413.065,7,7,0,0,0,1.429-.216" transform="translate(136.091 189.816)" fill="none" stroke="#4a59a2" stroke-linecap="round" stroke-linejoin="round" stroke-width="0.25"/>
      <path id="패스_1950" data-name="패스 1950" d="M415.666,570.53a11.574,11.574,0,0,0-.8,1.672,9.1,9.1,0,0,0-.49,1.753,4.985,4.985,0,0,0-.013,1.734,3.2,3.2,0,0,0,.249.779,5.349,5.349,0,0,0,.422.667l.024.036a.52.52,0,0,1-.854.594,3.627,3.627,0,0,1-.646-1.986,5.639,5.639,0,0,1,.294-1.952,9.459,9.459,0,0,1,.77-1.734,11.812,11.812,0,0,1,1.042-1.557" transform="translate(137.846 190.63)" fill="#4a58a1"/>
      <path id="패스_1951" data-name="패스 1951" d="M433.224,14.058a24.576,24.576,0,0,1-11.259-2.472c-.22-.133-.443-.267-.652-.418a7.463,7.463,0,0,1-1.658-1.529,6.074,6.074,0,0,1-1.025-1.964A6.293,6.293,0,0,1,418.3,5.5a2.592,2.592,0,0,1,.732-1.8A4.373,4.373,0,0,1,422.9,2.658,3.4,3.4,0,0,1,423.82,3a2.694,2.694,0,0,1,.7.6,3.327,3.327,0,0,1,.7,1.773,1.381,1.381,0,0,1-.124.72.656.656,0,0,1-.418.31,2.449,2.449,0,0,1-1.625-.257,1.026,1.026,0,1,0-.934,1.828.828.828,0,0,0,.133.056l.036.012a5.3,5.3,0,0,0,1.454.291,3.6,3.6,0,0,0,1.586-.253,2.472,2.472,0,0,0,1.3-1.261,3.024,3.024,0,0,0,.187-1.618,4.63,4.63,0,0,0-.416-1.366,5.238,5.238,0,0,0-.771-1.174,4.085,4.085,0,0,0-1.151-.883,4.8,4.8,0,0,0-1.334-.427,6.025,6.025,0,0,0-2.656.188,5.134,5.134,0,0,0-2.284,1.383,3.363,3.363,0,0,0-.731,1.2,4.108,4.108,0,0,0-.225,1.342,7.253,7.253,0,0,0,.468,2.513,7.044,7.044,0,0,0,.977,1.844c-.712-.519-1.4-1.067-2.063-1.636a23.593,23.593,0,0,1-2.513-2.586,15.109,15.109,0,0,1-1.854-2.952l-.013-.028a1.015,1.015,0,0,0-1.836.867c.016.033.035.067.053.1.041.065.092.123.133.188l-.028-.021s2.988,5.694,12.093,9.392l.035.015c.133.053.253.111.388.164l-.02-.017a26.63,26.63,0,0,0,8.272,1.4H936.9V383.993h.651V14.058ZM936.907,753.278H431.354a26.629,26.629,0,0,0-8.272,1.4l.02-.017c-.133.053-.256.111-.388.164l-.035.015c-9.1,3.7-12.092,9.392-12.092,9.392l.028-.02c-.041.064-.092.121-.133.187-.019.032-.037.065-.053.1a1.015,1.015,0,1,0,1.822.9l.013-.028.013-.028a15.059,15.059,0,0,1,1.854-2.951,23.373,23.373,0,0,1,2.514-2.587c.66-.571,1.35-1.117,2.063-1.636a7.045,7.045,0,0,0-.977,1.844,7.255,7.255,0,0,0-.468,2.514,4.108,4.108,0,0,0,.225,1.342,3.36,3.36,0,0,0,.731,1.2,5.146,5.146,0,0,0,2.284,1.383,6.046,6.046,0,0,0,2.656.188,4.711,4.711,0,0,0,1.334-.427,4.085,4.085,0,0,0,1.151-.883,5.236,5.236,0,0,0,.771-1.174,4.6,4.6,0,0,0,.426-1.368,3.022,3.022,0,0,0-.187-1.618,2.467,2.467,0,0,0-1.3-1.261,3.6,3.6,0,0,0-1.586-.253,5.363,5.363,0,0,0-1.454.291l-.036.012a.829.829,0,0,0-.133.056,1.026,1.026,0,0,0,.934,1.828,2.449,2.449,0,0,1,1.625-.257.668.668,0,0,1,.418.31,1.381,1.381,0,0,1,.124.72,3.317,3.317,0,0,1-.7,1.773,2.67,2.67,0,0,1-.7.6,3.387,3.387,0,0,1-.921.348,4.377,4.377,0,0,1-3.869-1.046,2.592,2.592,0,0,1-.732-1.8,6.293,6.293,0,0,1,.332-2.172,6.076,6.076,0,0,1,1.025-1.964,7.464,7.464,0,0,1,1.658-1.529c.209-.145.432-.28.652-.418a24.552,24.552,0,0,1,11.252-2.472H937.559V383.993h-.651Z" transform="translate(136.766 0.431)" fill="#4a58a1"/>
      <path id="패스_1952" data-name="패스 1952" d="M433.224,14.058a24.576,24.576,0,0,1-11.259-2.472c-.22-.133-.443-.267-.652-.418a7.463,7.463,0,0,1-1.658-1.529,6.074,6.074,0,0,1-1.025-1.964A6.293,6.293,0,0,1,418.3,5.5a2.592,2.592,0,0,1,.732-1.8A4.373,4.373,0,0,1,422.9,2.658,3.4,3.4,0,0,1,423.82,3a2.694,2.694,0,0,1,.7.6,3.327,3.327,0,0,1,.7,1.773,1.381,1.381,0,0,1-.124.72.656.656,0,0,1-.418.31,2.449,2.449,0,0,1-1.625-.257,1.026,1.026,0,1,0-.934,1.828.828.828,0,0,0,.133.056l.036.012a5.3,5.3,0,0,0,1.454.291,3.6,3.6,0,0,0,1.586-.253,2.472,2.472,0,0,0,1.3-1.261,3.024,3.024,0,0,0,.187-1.618,4.63,4.63,0,0,0-.416-1.366,5.238,5.238,0,0,0-.771-1.174,4.085,4.085,0,0,0-1.151-.883,4.8,4.8,0,0,0-1.334-.427,6.025,6.025,0,0,0-2.656.188,5.134,5.134,0,0,0-2.284,1.383,3.363,3.363,0,0,0-.731,1.2,4.108,4.108,0,0,0-.225,1.342,7.253,7.253,0,0,0,.468,2.513,7.044,7.044,0,0,0,.977,1.844c-.712-.519-1.4-1.067-2.063-1.636a23.593,23.593,0,0,1-2.513-2.586,15.109,15.109,0,0,1-1.854-2.952l-.013-.028a1.015,1.015,0,0,0-1.836.867c.016.033.035.067.053.1.041.065.092.123.133.188l-.028-.021s2.988,5.694,12.093,9.392l.035.015c.133.053.253.111.388.164l-.02-.017a26.63,26.63,0,0,0,8.272,1.4H936.9V383.993h.651V14.058ZM936.907,753.278H431.354a26.629,26.629,0,0,0-8.272,1.4l.02-.017c-.133.053-.256.111-.388.164l-.035.015c-9.1,3.7-12.092,9.392-12.092,9.392l.028-.02c-.041.064-.092.121-.133.187-.019.032-.037.065-.053.1a1.015,1.015,0,1,0,1.822.9l.013-.028.013-.028a15.059,15.059,0,0,1,1.854-2.951,23.373,23.373,0,0,1,2.514-2.587c.66-.571,1.35-1.117,2.063-1.636a7.045,7.045,0,0,0-.977,1.844,7.255,7.255,0,0,0-.468,2.514,4.108,4.108,0,0,0,.225,1.342,3.36,3.36,0,0,0,.731,1.2,5.146,5.146,0,0,0,2.284,1.383,6.046,6.046,0,0,0,2.656.188,4.711,4.711,0,0,0,1.334-.427,4.085,4.085,0,0,0,1.151-.883,5.236,5.236,0,0,0,.771-1.174,4.6,4.6,0,0,0,.426-1.368,3.022,3.022,0,0,0-.187-1.618,2.467,2.467,0,0,0-1.3-1.261,3.6,3.6,0,0,0-1.586-.253,5.363,5.363,0,0,0-1.454.291l-.036.012a.829.829,0,0,0-.133.056,1.026,1.026,0,0,0,.934,1.828,2.449,2.449,0,0,1,1.625-.257.668.668,0,0,1,.418.31,1.381,1.381,0,0,1,.124.72,3.317,3.317,0,0,1-.7,1.773,2.67,2.67,0,0,1-.7.6,3.387,3.387,0,0,1-.921.348,4.377,4.377,0,0,1-3.869-1.046,2.592,2.592,0,0,1-.732-1.8,6.293,6.293,0,0,1,.332-2.172,6.076,6.076,0,0,1,1.025-1.964,7.464,7.464,0,0,1,1.658-1.529c.209-.145.432-.28.652-.418a24.552,24.552,0,0,1,11.252-2.472H937.559V383.993h-.651Z" transform="translate(136.766 0.431)" fill="none" stroke="#4a59a2" stroke-linecap="round" stroke-linejoin="round" stroke-width="0.5"/>
      <path id="패스_1953" data-name="패스 1953" d="M424.923,6.982a.651.651,0,1,0,.654.65.653.653,0,0,0-.654-.65h0M917.791,27.261V6.982H431.54a.652.652,0,1,0-.059,1.3h485V28.562h20.279V735.612H916.486v20.279H431.54a.651.651,0,0,0,0,1.3H917.788V736.914h20.279V27.265ZM428.232,6.982a.651.651,0,1,0,.651.652v0a.653.653,0,0,0-.651-.65M424.923,755.9a.651.651,0,1,0,.651.651.651.651,0,0,0-.651-.651h0m3.309,0a.651.651,0,1,0,.651.651.651.651,0,0,0-.651-.651" transform="translate(141.427 2.334)" fill="#4a58a1"/>
      <path id="패스_1954" data-name="패스 1954" d="M424.923,6.982a.651.651,0,1,0,.654.65.653.653,0,0,0-.654-.65h0M917.791,27.261V6.982H431.54a.652.652,0,1,0-.059,1.3h485V28.562h20.279V735.612H916.486v20.279H431.54a.651.651,0,0,0,0,1.3H917.788V736.914h20.279V27.265ZM428.232,6.982a.651.651,0,1,0,.651.652v0a.653.653,0,0,0-.651-.65M424.923,755.9a.651.651,0,1,0,.651.651.651.651,0,0,0-.651-.651h0m3.309,0a.651.651,0,1,0,.651.651.651.651,0,0,0-.651-.651" transform="translate(141.427 2.334)" fill="none" stroke="#4a59a2" stroke-linecap="round" stroke-linejoin="round" stroke-width="0.5"/>
    </g>
  </g>
</svg>
