<svg id="그룹_1465" data-name="그룹 1465" xmlns="http://www.w3.org/2000/svg" xmlns:xlink="http://www.w3.org/1999/xlink" width="143.816" height="139.05" viewBox="0 0 143.816 139.05">
  <defs>
    <linearGradient id="linear-gradient" x1="0.554" y1="0.502" x2="0.254" y2="0.501" gradientUnits="objectBoundingBox">
      <stop offset="0" stop-color="#0975ba"/>
      <stop offset="1" stop-color="#053b5d"/>
    </linearGradient>
    <linearGradient id="linear-gradient-2" x1="0.505" y1="0.48" x2="0.5" y2="0.743" gradientUnits="objectBoundingBox">
      <stop offset="0" stop-color="#116fb0"/>
      <stop offset="1" stop-color="#093858"/>
    </linearGradient>
    <radialGradient id="radial-gradient" cx="0.5" cy="0.5" r="0.368" gradientTransform="matrix(0.998, -0.061, 0.061, 0.998, -0.029, 0.031)" gradientUnits="objectBoundingBox">
      <stop offset="0" stop-color="#0a5486"/>
      <stop offset="0.973" stop-color="#0a5181"/>
      <stop offset="1" stop-color="#052a43"/>
    </radialGradient>
    <clipPath id="clip-path">
      <path id="패스_1497" data-name="패스 1497" d="M0,68.621l21.929,6.595,6.593,21.927L82.954,42.711,54.432,14.189Z" transform="translate(0 -14.189)" fill="url(#linear-gradient)"/>
    </clipPath>
    <clipPath id="clip-path-2">
      <path id="패스_1498" data-name="패스 1498" d="M16.028,42.711,70.462,97.143l6.593-21.927,21.927-6.595L44.552,14.189Z" transform="translate(-16.028 -14.189)" fill="url(#linear-gradient-2)"/>
    </clipPath>
    <clipPath id="clip-path-3">
      <path id="패스_1499" data-name="패스 1499" d="M59.527,0A8.482,8.482,0,0,0,56.16.7l-8.11,3.484a8.535,8.535,0,0,1-2.369.633L36.916,5.85a8.521,8.521,0,0,0-5.832,3.367l-5.279,7.074a8.558,8.558,0,0,1-1.733,1.73L17,23.3a8.521,8.521,0,0,0-3.367,5.829L12.593,37.9a8.429,8.429,0,0,1-.633,2.366L8.476,48.38a8.509,8.509,0,0,0,0,6.735l3.484,8.11a8.406,8.406,0,0,1,.633,2.366l1.038,8.768A8.521,8.521,0,0,0,17,80.187l7.074,5.282A8.5,8.5,0,0,1,25.805,87.2l5.279,7.072a8.521,8.521,0,0,0,5.832,3.367l8.766,1.038a8.536,8.536,0,0,1,2.369.633l8.11,3.484a8.5,8.5,0,0,0,6.732,0L71,99.312a8.477,8.477,0,0,1,2.363-.633l8.771-1.038a8.521,8.521,0,0,0,5.829-3.367L93.25,87.2a8.44,8.44,0,0,1,1.733-1.733l7.074-5.282a8.527,8.527,0,0,0,3.365-5.829l1.038-8.768a8.494,8.494,0,0,1,.633-2.366l3.487-8.11a8.531,8.531,0,0,0,0-6.735l-3.487-8.11a8.518,8.518,0,0,1-.633-2.366l-1.038-8.771a8.527,8.527,0,0,0-3.365-5.829l-7.074-5.282a8.492,8.492,0,0,1-1.733-1.73L87.968,9.217A8.521,8.521,0,0,0,82.139,5.85L73.368,4.812A8.477,8.477,0,0,1,71,4.179L62.892.7A8.479,8.479,0,0,0,59.527,0Z" transform="translate(-7.781)" fill="url(#radial-gradient)"/>
    </clipPath>
    <clipPath id="clip-path-4">
      <rect id="사각형_744" data-name="사각형 744" width="143.816" height="139.045" fill="none"/>
    </clipPath>
  </defs>
  <g id="그룹_1414" data-name="그룹 1414" transform="translate(8.225 49.363)">
    <g id="그룹_1395" data-name="그룹 1395" clip-path="url(#clip-path)">
      <rect id="사각형_723" data-name="사각형 723" width="117.315" height="117.315" transform="translate(-41.477 41.477) rotate(-45)" fill="url(#linear-gradient)"/>
    </g>
  </g>
  <g id="그룹_1415" data-name="그룹 1415" transform="translate(53.705 49.363)">
    <g id="그룹_1397" data-name="그룹 1397" clip-path="url(#clip-path-2)">
      <rect id="사각형_724" data-name="사각형 724" width="117.315" height="117.315" transform="translate(-41.477 41.477) rotate(-45)" fill="url(#linear-gradient-2)"/>
    </g>
  </g>
  <g id="그룹_1416" data-name="그룹 1416" transform="translate(20.186 0)">
    <g id="그룹_1399" data-name="그룹 1399" clip-path="url(#clip-path-3)">
      <rect id="사각형_725" data-name="사각형 725" width="146.787" height="146.796" transform="matrix(0.687, -0.726, 0.726, 0.687, -52.013, 54.735)" fill="url(#radial-gradient)"/>
    </g>
  </g>
  <g id="그룹_1417" data-name="그룹 1417" transform="translate(0 0.005)" clip-path="url(#clip-path-4)">
    <path id="패스_1714" data-name="패스 1714" d="M90.707,43.917A39.008,39.008,0,1,1,51.7,4.91,39.007,39.007,0,0,1,90.707,43.917" transform="translate(20.232 7.829)" fill="#fff"/>
    <path id="패스_1715" data-name="패스 1715" d="M83.779,41.28A34.717,34.717,0,1,1,49.061,6.564,34.719,34.719,0,0,1,83.779,41.28Z" transform="translate(22.869 10.466)" fill="none"/>
    <path id="패스_1716" data-name="패스 1716" d="M27.981,7.573a.412.412,0,0,1-.412-.412V1.811a.411.411,0,0,1,.822,0V7.16a.411.411,0,0,1-.41.412" transform="translate(43.951 2.235)" fill="#fff"/>
    <path id="패스_1717" data-name="패스 1717" d="M21.462,9.321a.411.411,0,0,1-.355-.2L18.429,4.482a.413.413,0,0,1,.716-.412L21.82,8.7a.412.412,0,0,1-.358.617" transform="translate(29.294 6.163)" fill="#fff"/>
    <path id="패스_1718" data-name="패스 1718" d="M16.69,14.092a.411.411,0,0,1-.2-.054L11.85,11.363a.412.412,0,1,1,.412-.713L16.9,13.324a.415.415,0,0,1,.153.563.422.422,0,0,1-.358.2" transform="translate(18.565 16.892)" fill="#fff"/>
    <path id="패스_1719" data-name="패스 1719" d="M14.944,20.61H9.594a.411.411,0,1,1,0-.822h5.349a.411.411,0,1,1,0,.822" transform="translate(14.638 31.548)" fill="#fff"/>
    <path id="패스_1720" data-name="패스 1720" d="M12.058,31.447a.406.406,0,0,1-.355-.2.412.412,0,0,1,.15-.563L16.483,28a.412.412,0,0,1,.412.713l-4.633,2.675a.411.411,0,0,1-.2.054" transform="translate(18.567 44.56)" fill="#fff"/>
    <path id="패스_1721" data-name="패스 1721" d="M18.787,39.381a.412.412,0,0,1-.358-.617L21.1,34.132a.413.413,0,1,1,.716.41l-2.677,4.633a.415.415,0,0,1-.355.2" transform="translate(29.294 54.085)" fill="#fff"/>
    <path id="패스_1722" data-name="패스 1722" d="M27.981,42.284a.414.414,0,0,1-.412-.412V36.524a.412.412,0,1,1,.825,0v5.347a.414.414,0,0,1-.412.412" transform="translate(43.951 57.572)" fill="#fff"/>
    <path id="패스_1723" data-name="패스 1723" d="M38.818,39.381a.419.419,0,0,1-.358-.2l-2.675-4.633a.413.413,0,0,1,.716-.41l2.675,4.631a.412.412,0,0,1-.358.617" transform="translate(56.963 54.085)" fill="#fff"/>
    <path id="패스_1724" data-name="패스 1724" d="M46.751,31.447a.411.411,0,0,1-.2-.054l-4.633-2.675A.412.412,0,0,1,42.325,28l4.631,2.675a.412.412,0,0,1,.15.563.406.406,0,0,1-.355.2" transform="translate(66.489 44.56)" fill="#fff"/>
    <path id="패스_1725" data-name="패스 1725" d="M49.655,20.609H44.305a.411.411,0,1,1,0-.822h5.349a.411.411,0,1,1,0,.822" transform="translate(69.975 31.546)" fill="#fff"/>
    <path id="패스_1726" data-name="패스 1726" d="M42.118,14.091a.411.411,0,0,1-.2-.768l4.631-2.675a.412.412,0,0,1,.412.713l-4.633,2.675a.411.411,0,0,1-.2.054" transform="translate(66.489 16.89)" fill="#fff"/>
    <path id="패스_1727" data-name="패스 1727" d="M36.143,9.32a.411.411,0,0,1-.355-.617l2.672-4.631a.413.413,0,1,1,.716.41L36.5,9.115a.419.419,0,0,1-.358.2" transform="translate(56.964 6.161)" fill="#fff"/>
    <rect id="사각형_740" data-name="사각형 740" width="2.428" height="12.076" transform="translate(44.535 46.281)" fill="#1f3258"/>
    <path id="패스_1728" data-name="패스 1728" d="M24.635,27.624a3.671,3.671,0,0,1-3.671-3.671,3.577,3.577,0,0,1,1.079-2.6,3.5,3.5,0,0,1,2.592-1.079,3.561,3.561,0,0,1,2.5.988,7.033,7.033,0,0,1,1.318-2.086A6.1,6.1,0,0,0,24.627,17.8a6.151,6.151,0,0,0-6.12,6.143,6.116,6.116,0,0,0,6.12,6.115,6.078,6.078,0,0,0,3.837-1.333,6.943,6.943,0,0,1-1.326-2.086,3.543,3.543,0,0,1-2.5.983" transform="translate(29.504 28.382)" fill="#1f3258"/>
    <path id="패스_1729" data-name="패스 1729" d="M32.494,19.608a6.1,6.1,0,0,1,0,8.667,6.15,6.15,0,0,1-8.66,0,6.122,6.122,0,0,1,0-8.667,6.094,6.094,0,0,1,8.66,0M25.565,21.33a3.67,3.67,0,0,0,0,5.2,3.673,3.673,0,1,0,5.191-5.2,3.661,3.661,0,0,0-5.191,0" transform="translate(35.132 28.382)" fill="#1f3258"/>
    <path id="패스_1730" data-name="패스 1730" d="M33.08,25.844l5.912-8.115V30.091H36.564v-5L33.08,29.9l-3.492-4.81v5H27.162V17.73Z" transform="translate(43.302 28.266)" fill="#1f3258"/>
    <path id="패스_1731" data-name="패스 1731" d="M39.581,17.828v2.42H34.727v2.433h3.64V25.1h-3.64v2.436h4.854v2.413H32.3V17.828Z" transform="translate(51.491 28.423)" fill="#1f3258"/>
    <path id="패스_1732" data-name="패스 1732" d="M39.15,27.605a1.411,1.411,0,0,0,1.411-1.227c0-1.1-1.481-1.256-2.317-1.546a3.739,3.739,0,0,1-2.773-3.354,3.685,3.685,0,0,1,7.334-.508l-2.41.508a1.226,1.226,0,0,0-2.452.008c0,1.087,1.378,1.378,2.218,1.627a3.59,3.59,0,0,1,2.867,3.282,3.835,3.835,0,0,1-3.86,3.681,3.881,3.881,0,0,1-3.832-3.17l2.41-.511a1.4,1.4,0,0,0,1.414,1.222Z" transform="translate(56.335 28.377)" fill="#1f3258"/>
    <path id="패스_1733" data-name="패스 1733" d="M27.12,16.417v-2.5h.519l.646,1.074a6.565,6.565,0,0,1,.428.838h.008c-.031-.332-.042-.656-.042-1.038v-.874H29.1v2.5h-.47l-.654-1.1a8.853,8.853,0,0,1-.451-.864l-.01,0c.018.324.023.654.023,1.066v.9Z" transform="translate(43.235 22.183)" fill="#1d1e1c"/>
    <path id="패스_1734" data-name="패스 1734" d="M29.87,15.095a.9.9,0,0,1-.929.962.875.875,0,0,1-.905-.934.893.893,0,0,1,.937-.957.868.868,0,0,1,.9.929m-1.362.018c0,.35.171.612.449.612.259,0,.444-.257.444-.62,0-.283-.127-.6-.438-.6s-.454.311-.454.612" transform="translate(44.695 22.585)" fill="#1d1e1c"/>
    <path id="패스_1735" data-name="패스 1735" d="M29.27,14.182l.189.82c.042.195.083.392.114.586h.008c.039-.195.1-.4.15-.581l.233-.825h.371l.226.8c.057.213.1.41.145.6h.008c.029-.195.07-.392.119-.6l.2-.8h.449l-.568,1.808h-.423l-.215-.734a5.324,5.324,0,0,1-.137-.581h-.008a4.692,4.692,0,0,1-.137.581l-.231.734h-.425L28.8,14.182Z" transform="translate(45.918 22.61)" fill="#1d1e1c"/>
    <path id="패스_1736" data-name="패스 1736" d="M30.749,14.141a.257.257,0,0,1-.514,0,.257.257,0,0,1,.514,0m-.488.506h.462v1.808h-.462Z" transform="translate(48.201 22.148)" fill="#1d1e1c"/>
    <path id="패스_1737" data-name="패스 1737" d="M30.657,15.6a1.03,1.03,0,0,0,.464.13c.2,0,.291-.08.291-.2s-.075-.187-.3-.265c-.353-.122-.5-.314-.5-.527a.606.606,0,0,1,.685-.568,1.074,1.074,0,0,1,.477.106l-.088.324a.82.82,0,0,0-.384-.1c-.161,0-.252.078-.252.189s.086.171.316.252c.327.119.48.285.483.553,0,.327-.257.566-.734.566a1.148,1.148,0,0,1-.55-.127Z" transform="translate(48.734 22.585)" fill="#1d1e1c"/>
    <path id="패스_1738" data-name="패스 1738" d="M32.141,13.983V14.5h.433v.342h-.433v.8c0,.221.06.335.233.335a.734.734,0,0,0,.179-.021l.008.348a1.019,1.019,0,0,1-.332.044.524.524,0,0,1-.392-.148.711.711,0,0,1-.143-.506v-.848h-.259V14.5h.259v-.407Z" transform="translate(50.114 22.293)" fill="#1d1e1c"/>
    <path id="패스_1739" data-name="패스 1739" d="M32.008,13.863h.462V14.94h.005a.61.61,0,0,1,.228-.208.619.619,0,0,1,.311-.083c.309,0,.63.2.63.783V16.5h-.457V15.487c0-.265-.1-.462-.348-.462a.374.374,0,0,0-.371.394V16.5h-.462Z" transform="translate(51.028 22.102)" fill="#1d1e1c"/>
    <path id="패스_1740" data-name="패스 1740" d="M33.22,15.24a.489.489,0,0,0,.555.467,1.371,1.371,0,0,0,.5-.08l.065.316a1.716,1.716,0,0,1-.63.112.856.856,0,0,1-.931-.916.9.9,0,0,1,.882-.973.788.788,0,0,1,.781.882,1.064,1.064,0,0,1-.016.192Zm.794-.319a.389.389,0,0,0-.376-.441.445.445,0,0,0-.418.441Z" transform="translate(52.262 22.585)" fill="#1d1e1c"/>
    <path id="패스_1741" data-name="패스 1741" d="M34.435,14.3h-.713v-.381h1.891V14.3h-.721v2.119h-.457Z" transform="translate(53.759 22.184)" fill="#1d1e1c"/>
    <path id="패스_1742" data-name="패스 1742" d="M35.034,14.141a.242.242,0,0,1-.262.244.239.239,0,0,1-.252-.244.257.257,0,0,1,.514,0m-.488.506h.462v1.808h-.462Z" transform="translate(55.032 22.148)" fill="#1d1e1c"/>
    <path id="패스_1743" data-name="패스 1743" d="M34.907,14.746c0-.208,0-.381-.016-.54h.394l.018.27h.01a.628.628,0,0,1,.558-.309.517.517,0,0,1,.5.335h.008a.7.7,0,0,1,.223-.228.608.608,0,0,1,.363-.106c.3,0,.607.2.607.783v1.066h-.446v-1c0-.3-.1-.48-.324-.48a.35.35,0,0,0-.319.241.7.7,0,0,0-.021.153v1.084h-.446V14.969c0-.252-.1-.431-.311-.431a.355.355,0,0,0-.327.259.394.394,0,0,0-.026.148v1.071h-.446Z" transform="translate(55.624 22.587)" fill="#1d1e1c"/>
    <path id="패스_1744" data-name="패스 1744" d="M36.5,15.24a.489.489,0,0,0,.555.467,1.371,1.371,0,0,0,.5-.08l.065.316a1.716,1.716,0,0,1-.63.112.856.856,0,0,1-.931-.916.9.9,0,0,1,.882-.973.788.788,0,0,1,.781.882,1.064,1.064,0,0,1-.016.192Zm.794-.319a.389.389,0,0,0-.376-.441.445.445,0,0,0-.418.441Z" transform="translate(57.497 22.585)" fill="#1d1e1c"/>
    <path id="패스_1745" data-name="패스 1745" d="M37.781,13.983V14.5h.433v.342h-.433v.8c0,.221.06.335.233.335a.734.734,0,0,0,.179-.021l.008.348a1.019,1.019,0,0,1-.332.044.524.524,0,0,1-.392-.148.711.711,0,0,1-.143-.506v-.848h-.259V14.5h.259v-.407Z" transform="translate(59.106 22.293)" fill="#1d1e1c"/>
    <path id="패스_1746" data-name="패스 1746" d="M39.429,15.095a.9.9,0,0,1-.929.962.875.875,0,0,1-.905-.934.893.893,0,0,1,.937-.957.868.868,0,0,1,.9.929m-1.362.018c0,.35.171.612.449.612.259,0,.444-.257.444-.62,0-.283-.127-.6-.438-.6s-.454.311-.454.612" transform="translate(59.935 22.585)" fill="#1d1e1c"/>
    <path id="패스_1747" data-name="패스 1747" d="M28.993,18.058a1.6,1.6,0,0,1-.646.112,1.18,1.18,0,0,1-1.276-1.258,1.259,1.259,0,0,1,1.336-1.323,1.468,1.468,0,0,1,.61.112l-.1.363a1.223,1.223,0,0,0-.49-.1.834.834,0,0,0-.877.921.823.823,0,0,0,.874.9,1.24,1.24,0,0,0,.5-.093Z" transform="translate(43.157 24.852)" fill="#1d1e1c"/>
    <path id="패스_1748" data-name="패스 1748" d="M29.779,16.785a.9.9,0,0,1-.929.962.875.875,0,0,1-.905-.934.893.893,0,0,1,.937-.957.868.868,0,0,1,.9.929m-1.362.018c0,.35.171.612.449.612.259,0,.444-.257.444-.62,0-.283-.127-.6-.438-.6s-.454.311-.454.612" transform="translate(44.55 25.279)" fill="#1d1e1c"/>
    <path id="패스_1749" data-name="패스 1749" d="M28.864,16.435c0-.208,0-.381-.016-.54h.4l.021.272h.013a.654.654,0,0,1,.576-.311c.314,0,.641.2.641.776v1.074h-.457V16.684c0-.259-.1-.457-.345-.457a.38.38,0,0,0-.355.267.445.445,0,0,0-.018.148v1.064h-.462Z" transform="translate(45.99 25.279)" fill="#1d1e1c"/>
    <path id="패스_1750" data-name="패스 1750" d="M31.012,17.454H31a.619.619,0,0,1-.56.291.822.822,0,0,1-.758-.916.864.864,0,0,1,.809-.973.567.567,0,0,1,.527.278l.008,0,.01-.241h.444c-.008.163-.016.335-.016.524V18.44h-.457Zm0-.812A.525.525,0,0,0,31,16.53a.4.4,0,0,0-.392-.316c-.293,0-.459.249-.459.591s.158.579.449.579a.4.4,0,0,0,.389-.3.441.441,0,0,0,.023-.14Z" transform="translate(47.326 25.279)" fill="#1d1e1c"/>
    <path id="패스_1751" data-name="패스 1751" d="M32.243,17.138c0,.215.008.394.016.542h-.4l-.021-.275h-.008a.656.656,0,0,1-.581.316c-.329,0-.63-.2-.63-.789V15.872h.457v.983c0,.3.1.5.337.5a.384.384,0,0,0,.35-.246.4.4,0,0,0,.026-.14V15.872h.457Z" transform="translate(48.809 25.305)" fill="#1d1e1c"/>
    <path id="패스_1752" data-name="패스 1752" d="M31.885,16.929a.489.489,0,0,0,.555.467,1.371,1.371,0,0,0,.5-.08l.065.317a1.716,1.716,0,0,1-.63.112.856.856,0,0,1-.931-.916.9.9,0,0,1,.882-.973.788.788,0,0,1,.781.882,1.064,1.064,0,0,1-.016.192Zm.794-.319a.389.389,0,0,0-.376-.441.445.445,0,0,0-.418.441Z" transform="translate(50.133 25.278)" fill="#1d1e1c"/>
    <path id="패스_1753" data-name="패스 1753" d="M32.3,16.479c0-.244,0-.42-.016-.584h.4l.016.345h.016a.539.539,0,0,1,.493-.384.486.486,0,0,1,.109.01V16.3a.623.623,0,0,0-.135-.016.4.4,0,0,0-.407.345.774.774,0,0,0-.016.143V17.7H32.3Z" transform="translate(51.463 25.279)" fill="#1d1e1c"/>
    <path id="패스_1754" data-name="패스 1754" d="M35.514,16.855a1.183,1.183,0,0,1-1.2,1.318A1.158,1.158,0,0,1,33.164,16.9a1.2,1.2,0,0,1,1.188-1.31,1.155,1.155,0,0,1,1.162,1.266m-1.868.036c0,.508.257.913.7.913s.69-.407.69-.931c0-.472-.233-.918-.69-.918s-.7.42-.7.937" transform="translate(52.871 24.854)" fill="#1d1e1c"/>
    <path id="패스_1755" data-name="패스 1755" d="M34.266,18.19c.01-.125.016-.324.016-.508v-2.13h.459v1.079h.005a.651.651,0,0,1,.579-.291c.444,0,.758.368.755.916a.866.866,0,0,1-.822.973.616.616,0,0,1-.568-.311h-.01l-.021.272Zm.475-.747a.683.683,0,0,0,.008.106.427.427,0,0,0,.407.322c.283,0,.459-.231.459-.594,0-.322-.15-.581-.454-.581a.428.428,0,0,0-.407.335.542.542,0,0,0-.013.119Z" transform="translate(54.627 24.795)" fill="#1d1e1c"/>
    <path id="패스_1756" data-name="패스 1756" d="M35.561,16.929a.489.489,0,0,0,.555.467,1.371,1.371,0,0,0,.5-.08l.065.317a1.716,1.716,0,0,1-.63.112.856.856,0,0,1-.931-.916.9.9,0,0,1,.882-.973.788.788,0,0,1,.781.882,1.063,1.063,0,0,1-.016.192Zm.794-.319a.389.389,0,0,0-.376-.441.445.445,0,0,0-.418.441Z" transform="translate(55.994 25.278)" fill="#1d1e1c"/>
    <path id="패스_1757" data-name="패스 1757" d="M36.008,17.285a1.03,1.03,0,0,0,.464.13c.2,0,.291-.08.291-.2s-.075-.187-.3-.265c-.353-.122-.5-.314-.5-.527a.606.606,0,0,1,.685-.568,1.074,1.074,0,0,1,.477.106l-.088.324a.82.82,0,0,0-.384-.1c-.161,0-.252.078-.252.189s.086.171.316.252c.327.119.48.285.483.555,0,.324-.257.563-.734.563a1.148,1.148,0,0,1-.55-.127Z" transform="translate(57.264 25.279)" fill="#1d1e1c"/>
    <path id="패스_1758" data-name="패스 1758" d="M37.121,15.83a.257.257,0,1,1-.257-.249.246.246,0,0,1,.257.249m-.488.506h.462v1.808h-.462Z" transform="translate(58.359 24.841)" fill="#1d1e1c"/>
    <path id="패스_1759" data-name="패스 1759" d="M37.677,15.673v.516h.433v.342h-.433v.8c0,.221.06.335.233.335a.734.734,0,0,0,.179-.021l.008.348a1.019,1.019,0,0,1-.332.044.52.52,0,0,1-.392-.148.711.711,0,0,1-.143-.506v-.848h-.259v-.342h.259v-.407Z" transform="translate(58.94 24.987)" fill="#1d1e1c"/>
    <path id="패스_1760" data-name="패스 1760" d="M38.029,15.872l.327.97c.036.112.075.246.1.353h.01c.029-.106.062-.239.1-.358l.283-.965h.49L38.882,17.1a2.7,2.7,0,0,1-.63,1.162.893.893,0,0,1-.48.233l-.1-.384a.823.823,0,0,0,.267-.127.8.8,0,0,0,.249-.285.2.2,0,0,0,.031-.083.212.212,0,0,0-.026-.088l-.662-1.66Z" transform="translate(59.828 25.305)" fill="#1d1e1c"/>
    <path id="패스_1761" data-name="패스 1761" d="M18.746,16.552H17.206a2.737,2.737,0,0,1,4.672-1.93,2.631,2.631,0,0,1,.8,1.93,2.706,2.706,0,0,1-.371,1.346,6.442,6.442,0,0,1-.926,1.256,8.864,8.864,0,0,1-.866.843h2.132v1.536H17.177l.262-.877a16.719,16.719,0,0,0,2.506-2.19,8.315,8.315,0,0,0,.859-1.079,1.655,1.655,0,0,0,.329-.835,1.193,1.193,0,0,0-2.387,0" transform="translate(27.384 22.033)" fill="#0975ba"/>
    <path id="패스_1762" data-name="패스 1762" d="M22.47,13.821a2.556,2.556,0,0,1,2.192,1.162,4.517,4.517,0,0,1,.794,2.711,4.544,4.544,0,0,1-.794,2.721A2.57,2.57,0,0,1,22.47,21.57c-1.894,0-2.989-1.816-2.989-3.876s1.1-3.873,2.989-3.873m-.005,1.551a1.117,1.117,0,0,0-.942.5,3.081,3.081,0,0,0-.5,1.821,3.048,3.048,0,0,0,.5,1.821,1.141,1.141,0,0,0,1.889,0,3.073,3.073,0,0,0,.5-1.821,3.1,3.1,0,0,0-.5-1.821,1.122,1.122,0,0,0-.947-.5" transform="translate(31.057 22.035)" fill="#0975ba"/>
    <path id="패스_1763" data-name="패스 1763" d="M23.538,16.552H22a2.737,2.737,0,0,1,5.474,0A2.706,2.706,0,0,1,27.1,17.9a6.442,6.442,0,0,1-.926,1.256,8.864,8.864,0,0,1-.866.843h2.132v1.536H21.968l.262-.877a16.719,16.719,0,0,0,2.506-2.19,8.314,8.314,0,0,0,.859-1.079,1.655,1.655,0,0,0,.329-.835,1.193,1.193,0,0,0-2.387,0" transform="translate(35.022 22.033)" fill="#0975ba"/>
    <path id="패스_1764" data-name="패스 1764" d="M27.777,19.08a1.312,1.312,0,0,0-.48-.991,2.153,2.153,0,0,0-1.385-.48l.324-.636a1.655,1.655,0,0,0,.879-.4.878.878,0,0,0,.275-.628l-.013.01a.624.624,0,0,0-.617-.617.61.61,0,0,0-.6.49L24.622,15.5A2.22,2.22,0,0,1,26.76,13.78a2.192,2.192,0,0,1,1.754,3.487.381.381,0,0,1,.052.044,2.443,2.443,0,0,1,0,3.557,2.5,2.5,0,0,1-1.806.729,2.531,2.531,0,0,1-1.57-.524,2.393,2.393,0,0,1-.918-1.375l1.512-.384a1,1,0,0,0,.978.713.978.978,0,0,0,1.014-.947" transform="translate(38.695 21.97)" fill="#0975ba"/>
    <path id="패스_1765" data-name="패스 1765" d="M17.168,25.64v-.179l.231-.223c.553-.527.8-.807.8-1.134a.385.385,0,0,0-.428-.423.733.733,0,0,0-.459.184l-.093-.208a.943.943,0,0,1,.612-.221.609.609,0,0,1,.662.63c0,.4-.288.724-.745,1.162l-.174.161V25.4h.973v.244Z" transform="translate(27.37 37.367)" fill="#1d1e1c"/>
    <path id="패스_1766" data-name="패스 1766" d="M19.283,24.534c0,.737-.272,1.144-.752,1.144-.423,0-.708-.4-.716-1.113s.314-1.126.752-1.126c.457,0,.716.4.716,1.095m-1.175.034c0,.563.174.882.441.882.3,0,.441-.35.441-.9,0-.532-.135-.882-.438-.882-.257,0-.444.314-.444.9" transform="translate(28.401 37.368)" fill="#1d1e1c"/>
    <path id="패스_1767" data-name="패스 1767" d="M18.485,25.64v-.179l.231-.223c.553-.527.8-.807.8-1.134a.385.385,0,0,0-.428-.423.733.733,0,0,0-.459.184l-.093-.208a.943.943,0,0,1,.612-.221.609.609,0,0,1,.662.63c0,.4-.288.724-.745,1.162l-.174.161V25.4h.973v.244Z" transform="translate(29.469 37.367)" fill="#1d1e1c"/>
    <path id="패스_1768" data-name="패스 1768" d="M19.22,25.3a.97.97,0,0,0,.48.137c.376,0,.493-.241.49-.42-.005-.3-.278-.433-.56-.433h-.163v-.221h.163c.213,0,.483-.109.483-.366,0-.174-.109-.327-.379-.327a.809.809,0,0,0-.433.143l-.078-.213a1.038,1.038,0,0,1,.566-.166c.428,0,.62.254.62.516a.535.535,0,0,1-.4.508v.008a.564.564,0,0,1,.483.555c0,.348-.27.651-.789.651a1.1,1.1,0,0,1-.563-.148Z" transform="translate(30.513 37.367)" fill="#1d1e1c"/>
    <rect id="사각형_741" data-name="사각형 741" width="0.508" height="2.244" transform="translate(52.152 60.762)" fill="#1d1e1c"/>
    <path id="패스_1769" data-name="패스 1769" d="M20.485,24.124c0-.166,0-.3-.013-.436h.259l.016.265h.008a.593.593,0,0,1,.532-.3c.223,0,.571.132.571.685V25.3h-.293v-.929c0-.259-.1-.477-.374-.477a.416.416,0,0,0-.392.3.426.426,0,0,0-.021.137V25.3h-.293Z" transform="translate(32.637 37.708)" fill="#1d1e1c"/>
    <path id="패스_1770" data-name="패스 1770" d="M21.651,23.487v.462h.42v.223h-.42v.872c0,.2.057.311.221.311a.785.785,0,0,0,.169-.018l.013.218a.7.7,0,0,1-.259.042.408.408,0,0,1-.316-.125.6.6,0,0,1-.112-.42v-.879h-.252v-.223h.252v-.384Z" transform="translate(33.66 37.445)" fill="#1d1e1c"/>
    <path id="패스_1771" data-name="패스 1771" d="M21.838,24.547a.516.516,0,0,0,.553.56,1.058,1.058,0,0,0,.446-.086l.049.21a1.305,1.305,0,0,1-.537.1.748.748,0,0,1-.791-.812.781.781,0,0,1,.755-.869.682.682,0,0,1,.667.758.847.847,0,0,1-.01.137Zm.859-.21a.419.419,0,0,0-.407-.477.487.487,0,0,0-.449.477Z" transform="translate(34.368 37.708)" fill="#1d1e1c"/>
    <path id="패스_1772" data-name="패스 1772" d="M22.254,24.191c0-.189,0-.353-.013-.5H22.5l.01.316h.013a.484.484,0,0,1,.446-.353.269.269,0,0,1,.083.01v.275a.573.573,0,0,0-.1-.008.41.41,0,0,0-.392.376.7.7,0,0,0-.013.135V25.3h-.291Z" transform="translate(35.457 37.706)" fill="#1d1e1c"/>
    <path id="패스_1773" data-name="패스 1773" d="M22.679,24.124c0-.166,0-.3-.013-.436h.259l.016.265h.008a.593.593,0,0,1,.532-.3c.223,0,.571.132.571.685V25.3h-.293v-.929c0-.259-.1-.477-.374-.477a.416.416,0,0,0-.392.3.426.426,0,0,0-.021.137V25.3h-.293Z" transform="translate(36.135 37.708)" fill="#1d1e1c"/>
    <path id="패스_1774" data-name="패스 1774" d="M24.355,25.3l-.023-.2h-.01a.6.6,0,0,1-.493.239.458.458,0,0,1-.493-.462c0-.389.345-.6.968-.6v-.034a.332.332,0,0,0-.366-.374.812.812,0,0,0-.42.119l-.065-.192a.984.984,0,0,1,.529-.143c.493,0,.612.335.612.659v.6a2.472,2.472,0,0,0,.026.387Zm-.044-.822c-.319-.008-.682.049-.682.363a.26.26,0,0,0,.275.28.406.406,0,0,0,.392-.27.413.413,0,0,0,.016-.093Z" transform="translate(37.201 37.708)" fill="#1d1e1c"/>
    <path id="패스_1775" data-name="패스 1775" d="M24.464,23.487v.462h.42v.223h-.42v.872c0,.2.057.311.221.311a.785.785,0,0,0,.169-.018l.013.218a.7.7,0,0,1-.259.042.408.408,0,0,1-.316-.125.6.6,0,0,1-.112-.42v-.879h-.252v-.223h.252v-.384Z" transform="translate(38.145 37.445)" fill="#1d1e1c"/>
    <path id="패스_1776" data-name="패스 1776" d="M24.772,23.6a.182.182,0,1,1-.363,0,.177.177,0,0,1,.182-.182.174.174,0,0,1,.182.182m-.327.454h.293v1.611h-.293Z" transform="translate(38.913 37.339)" fill="#1d1e1c"/>
    <path id="패스_1777" data-name="패스 1777" d="M26.254,24.482a.789.789,0,0,1-.8.856.767.767,0,0,1-.773-.83.787.787,0,0,1,.8-.856.764.764,0,0,1,.776.83m-1.279.016c0,.353.2.62.49.62s.488-.265.488-.628c0-.272-.135-.617-.483-.617s-.5.319-.5.625" transform="translate(39.344 37.708)" fill="#1d1e1c"/>
    <path id="패스_1778" data-name="패스 1778" d="M25.436,24.124c0-.166,0-.3-.013-.436h.259l.016.265h.008a.593.593,0,0,1,.532-.3c.223,0,.571.132.571.685V25.3h-.293v-.929c0-.259-.1-.477-.374-.477a.416.416,0,0,0-.392.3.426.426,0,0,0-.021.137V25.3h-.293Z" transform="translate(40.53 37.708)" fill="#1d1e1c"/>
    <path id="패스_1779" data-name="패스 1779" d="M27.113,25.3l-.023-.2h-.01a.6.6,0,0,1-.493.239.458.458,0,0,1-.493-.462c0-.389.345-.6.968-.6v-.034a.332.332,0,0,0-.366-.374.812.812,0,0,0-.42.119l-.065-.192a.984.984,0,0,1,.529-.143c.493,0,.612.335.612.659v.6a2.472,2.472,0,0,0,.026.387Zm-.044-.822c-.319-.008-.682.049-.682.363a.26.26,0,0,0,.275.28.406.406,0,0,0,.392-.27.413.413,0,0,0,.016-.093Z" transform="translate(41.598 37.708)" fill="#1d1e1c"/>
    <rect id="사각형_742" data-name="사각형 742" width="0.293" height="2.366" transform="translate(69.421 60.642)" fill="#1d1e1c"/>
    <path id="패스_1780" data-name="패스 1780" d="M29.038,25.626a1.45,1.45,0,0,1-.576.1A1.067,1.067,0,0,1,27.287,24.6a1.143,1.143,0,0,1,1.224-1.193,1.314,1.314,0,0,1,.553.1l-.1.4a1.073,1.073,0,0,0-.425-.083.737.737,0,0,0,0,1.474,1.226,1.226,0,0,0,.423-.073Z" transform="translate(43.501 37.319)" fill="#1d1e1c"/>
    <path id="패스_1781" data-name="패스 1781" d="M29.63,24.482a.789.789,0,0,1-.8.856.767.767,0,0,1-.773-.83.787.787,0,0,1,.8-.856.764.764,0,0,1,.776.83m-1.279.016c0,.353.2.62.49.62s.488-.265.488-.628c0-.272-.135-.617-.483-.617s-.5.319-.5.625" transform="translate(44.726 37.708)" fill="#1d1e1c"/>
    <path id="패스_1782" data-name="패스 1782" d="M28.813,24.124c0-.166,0-.3-.013-.436h.259l.016.265h.008a.593.593,0,0,1,.532-.3c.223,0,.571.132.571.685V25.3h-.293v-.929c0-.259-.1-.477-.374-.477a.416.416,0,0,0-.392.3.426.426,0,0,0-.021.137V25.3h-.293Z" transform="translate(45.913 37.708)" fill="#1d1e1c"/>
    <path id="패스_1783" data-name="패스 1783" d="M30.978,23.688c-.008.117-.013.246-.013.444v.934a.93.93,0,0,1-.231.737.849.849,0,0,1-.586.195,1.037,1.037,0,0,1-.537-.135l.075-.223a.9.9,0,0,0,.472.127c.3,0,.519-.156.519-.563v-.179h-.005a.583.583,0,0,1-.514.27.72.72,0,0,1-.685-.786.772.772,0,0,1,.724-.856.534.534,0,0,1,.5.28h.008l.013-.244Zm-.3.636a.427.427,0,0,0-.425-.444c-.28,0-.48.236-.48.61,0,.316.158.581.475.581a.428.428,0,0,0,.407-.3.539.539,0,0,0,.023-.156Z" transform="translate(46.986 37.708)" fill="#1d1e1c"/>
    <path id="패스_1784" data-name="패스 1784" d="M30.236,24.191c0-.189,0-.353-.013-.5h.257l.01.316H30.5a.484.484,0,0,1,.446-.353.269.269,0,0,1,.083.01v.275a.573.573,0,0,0-.1-.008.41.41,0,0,0-.392.376.7.7,0,0,0-.013.135V25.3h-.291Z" transform="translate(48.182 37.706)" fill="#1d1e1c"/>
    <path id="패스_1785" data-name="패스 1785" d="M30.87,24.547a.516.516,0,0,0,.553.56,1.049,1.049,0,0,0,.446-.086l.049.21a1.305,1.305,0,0,1-.537.1.748.748,0,0,1-.791-.812.781.781,0,0,1,.755-.869.682.682,0,0,1,.667.758.847.847,0,0,1-.01.137Zm.859-.21a.419.419,0,0,0-.407-.477.487.487,0,0,0-.449.477Z" transform="translate(48.767 37.708)" fill="#1d1e1c"/>
    <path id="패스_1786" data-name="패스 1786" d="M31.308,25a.757.757,0,0,0,.387.117c.213,0,.314-.106.314-.239s-.083-.218-.3-.3c-.291-.1-.425-.262-.425-.457a.5.5,0,0,1,.555-.472.8.8,0,0,1,.4.1l-.073.213a.623.623,0,0,0-.329-.093c-.174,0-.27.1-.27.218,0,.135.1.195.306.275.28.106.423.246.423.485,0,.283-.221.483-.6.483a.9.9,0,0,1-.451-.109Z" transform="translate(49.795 37.706)" fill="#1d1e1c"/>
    <path id="패스_1787" data-name="패스 1787" d="M31.817,25a.757.757,0,0,0,.387.117c.213,0,.314-.106.314-.239s-.083-.218-.3-.3c-.291-.1-.425-.262-.425-.457a.5.5,0,0,1,.555-.472.8.8,0,0,1,.4.1l-.073.213a.623.623,0,0,0-.329-.093c-.174,0-.27.1-.27.218,0,.135.1.195.306.275.28.106.423.246.423.485,0,.283-.221.483-.6.483a.9.9,0,0,1-.451-.109Z" transform="translate(50.607 37.706)" fill="#1d1e1c"/>
    <path id="패스_1788" data-name="패스 1788" d="M34.1,24.482a.787.787,0,0,1-.8.856.768.768,0,0,1-.773-.83.788.788,0,0,1,.8-.856.764.764,0,0,1,.776.83m-1.276.016c0,.353.2.62.488.62s.488-.265.488-.628c0-.272-.135-.617-.483-.617s-.493.319-.493.625" transform="translate(51.849 37.708)" fill="#1d1e1c"/>
    <path id="패스_1789" data-name="패스 1789" d="M33.281,24.124c0-.166,0-.3-.013-.436h.259l.016.265h.008a.593.593,0,0,1,.532-.3c.223,0,.571.132.571.685V25.3H34.36v-.929c0-.259-.1-.477-.374-.477a.416.416,0,0,0-.392.3.426.426,0,0,0-.021.137V25.3h-.293Z" transform="translate(53.036 37.708)" fill="#1d1e1c"/>
    <path id="패스_1790" data-name="패스 1790" d="M36.367,24.542a1.07,1.07,0,0,1-1.1,1.183,1.048,1.048,0,0,1-1.056-1.141A1.086,1.086,0,0,1,35.3,23.408a1.046,1.046,0,0,1,1.066,1.134m-1.621.031c0,.438.208.75.547.75s.54-.327.54-.763c0-.4-.195-.75-.545-.75s-.542.327-.542.763" transform="translate(54.537 37.319)" fill="#1d1e1c"/>
    <path id="패스_1791" data-name="패스 1791" d="M35.174,25.741c.008-.109.013-.272.013-.415V23.375h.291v1.014h.008a.591.591,0,0,1,.547-.3.722.722,0,0,1,.68.822.765.765,0,0,1-.721.861.57.57,0,0,1-.54-.3h-.01l-.013.267Zm.3-.646a.7.7,0,0,0,.013.106.453.453,0,0,0,.441.342c.306,0,.488-.249.488-.62,0-.322-.166-.6-.48-.6a.47.47,0,0,0-.446.361.7.7,0,0,0-.016.119Z" transform="translate(56.075 37.266)" fill="#1d1e1c"/>
    <path id="패스_1792" data-name="패스 1792" d="M36.145,24.547a.516.516,0,0,0,.553.56,1.058,1.058,0,0,0,.446-.086l.049.21a1.305,1.305,0,0,1-.537.1.748.748,0,0,1-.791-.812.781.781,0,0,1,.755-.869.682.682,0,0,1,.667.758.847.847,0,0,1-.01.137Zm.859-.21a.419.419,0,0,0-.407-.477.487.487,0,0,0-.449.477Z" transform="translate(57.177 37.708)" fill="#1d1e1c"/>
    <path id="패스_1793" data-name="패스 1793" d="M36.583,25a.757.757,0,0,0,.387.117c.213,0,.314-.106.314-.239s-.083-.218-.3-.3c-.291-.1-.425-.262-.425-.457a.5.5,0,0,1,.555-.472.8.8,0,0,1,.4.1l-.073.213a.623.623,0,0,0-.329-.093c-.174,0-.27.1-.27.218,0,.135.1.195.306.275.28.106.423.246.423.485,0,.283-.221.483-.6.483a.9.9,0,0,1-.451-.109Z" transform="translate(58.205 37.706)" fill="#1d1e1c"/>
    <path id="패스_1794" data-name="패스 1794" d="M37.411,23.6a.182.182,0,1,1-.363,0,.178.178,0,0,1,.184-.182.174.174,0,0,1,.179.182m-.327.454h.293v1.611h-.293Z" transform="translate(59.063 37.339)" fill="#1d1e1c"/>
    <path id="패스_1795" data-name="패스 1795" d="M37.829,23.487v.462h.42v.223h-.42v.872c0,.2.057.311.221.311a.785.785,0,0,0,.169-.018l.013.218a.7.7,0,0,1-.259.042.408.408,0,0,1-.317-.125.6.6,0,0,1-.112-.42v-.879h-.252v-.223h.252v-.384Z" transform="translate(59.452 37.445)" fill="#1d1e1c"/>
    <path id="패스_1796" data-name="패스 1796" d="M38.036,23.666l.353.952c.036.106.078.233.1.329H38.5c.031-.1.065-.218.1-.335l.322-.947h.309l-.441,1.149a2.435,2.435,0,0,1-.553,1.009.78.78,0,0,1-.358.189l-.075-.246a.758.758,0,0,0,.257-.143.855.855,0,0,0,.246-.327.2.2,0,0,0,.023-.07.246.246,0,0,0-.018-.075l-.6-1.486Z" transform="translate(60.129 37.73)" fill="#1d1e1c"/>
    <path id="패스_1797" data-name="패스 1797" d="M18.131,26.84l-.023-.2H18.1a.573.573,0,0,1-.475.239.447.447,0,0,1-.472-.462c0-.389.332-.6.931-.6v-.034a.328.328,0,0,0-.353-.374.748.748,0,0,0-.4.119l-.065-.192a.918.918,0,0,1,.508-.143c.472,0,.589.335.589.659v.6a2.192,2.192,0,0,0,.026.387Zm-.042-.822c-.306-.008-.656.049-.656.363a.255.255,0,0,0,.267.28.389.389,0,0,0,.374-.27.306.306,0,0,0,.016-.093Z" transform="translate(27.346 40.164)" fill="#1d1e1c"/>
    <path id="패스_1798" data-name="패스 1798" d="M17.795,25.665c0-.166,0-.3-.013-.436h.249l.016.265h.008a.561.561,0,0,1,.511-.3c.215,0,.547.132.547.685v.962H18.83v-.929c0-.259-.091-.477-.358-.477a.4.4,0,0,0-.376.3.426.426,0,0,0-.021.137v.968h-.28Z" transform="translate(28.348 40.164)" fill="#1d1e1c"/>
    <path id="패스_1799" data-name="패스 1799" d="M19.87,24.917v1.948c0,.143,0,.306.01.415h-.252L19.619,27h-.008a.571.571,0,0,1-.529.316c-.374,0-.662-.332-.662-.82,0-.537.316-.866.7-.866a.516.516,0,0,1,.467.246h.008v-.962Zm-.28,1.409a.528.528,0,0,0-.016-.125.418.418,0,0,0-.4-.337c-.291,0-.462.265-.462.623,0,.324.153.594.454.594a.427.427,0,0,0,.412-.348.5.5,0,0,0,.016-.127Z" transform="translate(29.365 39.724)" fill="#1d1e1c"/>
    <path id="패스_1800" data-name="패스 1800" d="M21.329,26.348c-.01-.27-.021-.6-.021-.924H21.3c-.07.288-.163.607-.252.869l-.272.877h-.4l-.239-.869c-.075-.262-.15-.584-.2-.877h-.005c-.013.3-.023.651-.042.931l-.039.851h-.47l.143-2.244H20.2l.221.75c.067.259.137.54.189.8h.01c.062-.259.14-.555.213-.807l.239-.745h.664l.122,2.244h-.5Z" transform="translate(30.898 39.798)" fill="#1d1e1c"/>
    <path id="패스_1801" data-name="패스 1801" d="M21.815,26.258H20.99v.532h.921v.418H20.479V24.963h1.385v.415H20.99v.467h.825Z" transform="translate(32.649 39.798)" fill="#1d1e1c"/>
    <path id="패스_1802" data-name="패스 1802" d="M21.61,25.028v.462h.4v.223h-.4v.872c0,.2.054.311.21.311a.709.709,0,0,0,.163-.018L22,27.1a.656.656,0,0,1-.249.042.383.383,0,0,1-.3-.125.609.609,0,0,1-.109-.42v-.879H21.1V25.49h.239v-.384Z" transform="translate(33.632 39.901)" fill="#1d1e1c"/>
    <path id="패스_1803" data-name="패스 1803" d="M22.5,26.84l-.023-.2h-.008a.573.573,0,0,1-.475.239.447.447,0,0,1-.472-.462c0-.389.332-.6.931-.6v-.034a.328.328,0,0,0-.353-.374.741.741,0,0,0-.4.119l-.065-.192a.918.918,0,0,1,.508-.143c.472,0,.589.335.589.659v.6a2.193,2.193,0,0,0,.026.387Zm-.042-.822c-.306-.008-.656.049-.656.363a.255.255,0,0,0,.267.28.389.389,0,0,0,.374-.27.306.306,0,0,0,.016-.093Z" transform="translate(34.303 40.164)" fill="#1d1e1c"/>
    <path id="패스_1804" data-name="패스 1804" d="M22.146,27.28c.005-.109.013-.272.013-.415V24.917h.278v1.012h.005a.578.578,0,0,1,.529-.3c.384,0,.656.332.651.822,0,.576-.348.861-.693.861a.545.545,0,0,1-.519-.3H22.4l-.013.267Zm.291-.646a.478.478,0,0,0,.013.106.439.439,0,0,0,.423.342c.293,0,.47-.249.47-.617,0-.324-.161-.6-.462-.6a.453.453,0,0,0-.428.361.7.7,0,0,0-.016.119Z" transform="translate(35.306 39.724)" fill="#1d1e1c"/>
    <path id="패스_1805" data-name="패스 1805" d="M24.314,26.023a.773.773,0,0,1-.77.856.755.755,0,0,1-.742-.83.774.774,0,0,1,.768-.856.75.75,0,0,1,.745.83m-1.227.016c0,.353.195.62.47.62s.47-.265.47-.628c0-.272-.13-.617-.462-.617s-.477.319-.477.625" transform="translate(36.351 40.164)" fill="#1d1e1c"/>
    <rect id="사각형_743" data-name="사각형 743" width="0.28" height="2.366" transform="translate(61.003 64.64)" fill="#1d1e1c"/>
    <path id="패스_1806" data-name="패스 1806" d="M24.133,25.146a.174.174,0,1,1-.348,0,.175.175,0,0,1,.174-.184.172.172,0,0,1,.174.184m-.314.451h.28v1.611h-.28Z" transform="translate(37.918 39.796)" fill="#1d1e1c"/>
    <path id="패스_1807" data-name="패스 1807" d="M25.251,26.779a1.01,1.01,0,0,1-.444.093.751.751,0,0,1-.77-.822.8.8,0,0,1,.83-.856.939.939,0,0,1,.392.083l-.065.226a.649.649,0,0,0-.327-.075.609.609,0,0,0-.01,1.211.786.786,0,0,0,.348-.08Z" transform="translate(38.32 40.166)" fill="#1d1e1c"/>
    <path id="패스_1808" data-name="패스 1808" d="M24.943,26.708a1.3,1.3,0,0,0,.563.14c.233,0,.355-.1.355-.244s-.106-.221-.376-.316c-.374-.13-.615-.335-.615-.662,0-.384.319-.677.848-.677a1.373,1.373,0,0,1,.573.114l-.114.41a1.047,1.047,0,0,0-.47-.106c-.218,0-.327.1-.327.215,0,.143.127.208.418.316.4.145.584.353.584.669,0,.376-.291.7-.908.7a1.477,1.477,0,0,1-.636-.135Z" transform="translate(39.599 39.775)" fill="#1d1e1c"/>
    <path id="패스_1809" data-name="패스 1809" d="M25.792,25.207l.34.952c.034.106.073.233.1.329h.005c.029-.1.062-.218.1-.335l.306-.947h.3l-.423,1.149a2.5,2.5,0,0,1-.532,1.009.742.742,0,0,1-.345.189l-.07-.246a.748.748,0,0,0,.246-.143.9.9,0,0,0,.236-.327.2.2,0,0,0,.023-.07.277.277,0,0,0-.021-.075l-.571-1.486Z" transform="translate(40.63 40.187)" fill="#1d1e1c"/>
    <path id="패스_1810" data-name="패스 1810" d="M26.146,25.665c0-.166,0-.3-.013-.436h.249l.016.265h.008a.561.561,0,0,1,.511-.3c.215,0,.547.132.547.685v.962h-.283v-.929c0-.259-.091-.477-.358-.477a.4.4,0,0,0-.376.3.426.426,0,0,0-.021.137v.968h-.28Z" transform="translate(41.662 40.164)" fill="#1d1e1c"/>
    <path id="패스_1811" data-name="패스 1811" d="M28.219,24.917v1.948c0,.143.005.306.013.415H27.98L27.967,27h-.005a.574.574,0,0,1-.529.316c-.374,0-.662-.332-.662-.82,0-.537.316-.866.7-.866a.516.516,0,0,1,.467.246h.005v-.962Zm-.28,1.409a.521.521,0,0,0-.013-.125.418.418,0,0,0-.4-.337c-.293,0-.464.265-.464.623,0,.324.153.594.457.594a.427.427,0,0,0,.412-.348.5.5,0,0,0,.013-.127Z" transform="translate(42.679 39.724)" fill="#1d1e1c"/>
    <path id="패스_1812" data-name="패스 1812" d="M27.511,25.733c0-.189,0-.353-.013-.5h.246l.01.316h.013a.468.468,0,0,1,.428-.353.263.263,0,0,1,.08.01v.275a.532.532,0,0,0-.1-.008.4.4,0,0,0-.379.376.993.993,0,0,0-.013.135v.861h-.278Z" transform="translate(43.838 40.164)" fill="#1d1e1c"/>
    <path id="패스_1813" data-name="패스 1813" d="M29.355,26.023a.773.773,0,0,1-.77.856.755.755,0,0,1-.742-.83.774.774,0,0,1,.768-.856.75.75,0,0,1,.745.83m-1.227.016c0,.353.195.62.47.62s.47-.265.47-.628c0-.272-.13-.617-.462-.617s-.477.319-.477.625" transform="translate(44.388 40.164)" fill="#1d1e1c"/>
    <path id="패스_1814" data-name="패스 1814" d="M28.564,25.665c0-.166,0-.3-.013-.436H28.8l.013.259h.01a.528.528,0,0,1,.485-.3.46.46,0,0,1,.438.322h.005a.71.71,0,0,1,.174-.21.517.517,0,0,1,.342-.112c.2,0,.508.14.508.7v.949H30.5v-.913c0-.309-.109-.5-.337-.5a.371.371,0,0,0-.332.267.49.49,0,0,0-.021.145v1h-.275v-.965c0-.257-.109-.444-.324-.444a.388.388,0,0,0-.348.293.375.375,0,0,0-.023.143v.973h-.275Z" transform="translate(45.516 40.164)" fill="#1d1e1c"/>
    <path id="패스_1815" data-name="패스 1815" d="M29.8,26.088a.506.506,0,0,0,.532.56.984.984,0,0,0,.428-.086l.047.21a1.2,1.2,0,0,1-.514.1.736.736,0,0,1-.763-.812.771.771,0,0,1,.726-.869.674.674,0,0,1,.641.758,1.308,1.308,0,0,1-.01.137Zm.825-.21c0-.187-.073-.477-.389-.477-.285,0-.41.275-.433.477Z" transform="translate(47.082 40.164)" fill="#1d1e1c"/>
    <path id="패스_1816" data-name="패스 1816" d="M30.441,24.917h.28v1.007h.008a.518.518,0,0,1,.2-.208.566.566,0,0,1,.288-.083c.208,0,.54.132.54.69v.96h-.283v-.926c0-.262-.091-.48-.358-.48a.406.406,0,0,0-.376.293.371.371,0,0,0-.021.14v.973h-.28Z" transform="translate(48.53 39.724)" fill="#1d1e1c"/>
    <path id="패스_1817" data-name="패스 1817" d="M32.586,26.023a.773.773,0,0,1-.77.856.755.755,0,0,1-.742-.83.774.774,0,0,1,.768-.856.75.75,0,0,1,.745.83m-1.227.016c0,.353.195.62.47.62s.47-.265.47-.628c0-.272-.13-.617-.462-.617s-.477.319-.477.625" transform="translate(49.539 40.164)" fill="#1d1e1c"/>
    <path id="패스_1818" data-name="패스 1818" d="M31.815,26.542a.714.714,0,0,0,.371.117c.2,0,.3-.106.3-.239s-.08-.218-.288-.3c-.278-.1-.41-.262-.41-.457a.485.485,0,0,1,.534-.472.748.748,0,0,1,.381.1l-.07.213a.58.58,0,0,0-.316-.093c-.169,0-.259.1-.259.218,0,.135.091.195.293.275.27.106.407.246.407.485,0,.283-.213.483-.579.483a.846.846,0,0,1-.436-.109Z" transform="translate(50.608 40.164)" fill="#1d1e1c"/>
    <path id="패스_1819" data-name="패스 1819" d="M32.715,25.028v.462h.4v.223h-.4v.872c0,.2.054.311.21.311a.709.709,0,0,0,.163-.018l.013.218a.656.656,0,0,1-.249.042.383.383,0,0,1-.3-.125.609.609,0,0,1-.109-.42v-.879H32.2V25.49h.239v-.384Z" transform="translate(51.335 39.901)" fill="#1d1e1c"/>
    <path id="패스_1820" data-name="패스 1820" d="M32.888,26.088a.506.506,0,0,0,.532.56.984.984,0,0,0,.428-.086l.047.21a1.2,1.2,0,0,1-.514.1.736.736,0,0,1-.763-.812.771.771,0,0,1,.726-.869.674.674,0,0,1,.641.758,1.308,1.308,0,0,1-.01.137Zm.825-.21c0-.187-.073-.477-.389-.477-.285,0-.41.275-.433.477Z" transform="translate(52 40.164)" fill="#1d1e1c"/>
    <path id="패스_1821" data-name="패스 1821" d="M34.674,24.917v1.948c0,.143.005.306.016.415h-.254L34.422,27h0a.578.578,0,0,1-.532.316c-.371,0-.659-.332-.659-.82,0-.537.314-.866.693-.866a.516.516,0,0,1,.467.246H34.4v-.962ZM34.4,26.326a.7.7,0,0,0-.013-.125.423.423,0,0,0-.407-.337c-.293,0-.462.265-.462.623,0,.324.15.594.454.594a.432.432,0,0,0,.415-.348.659.659,0,0,0,.013-.127Z" transform="translate(52.974 39.724)" fill="#1d1e1c"/>
    <path id="패스_1822" data-name="패스 1822" d="M34.209,27.28c.005-.109.013-.272.013-.415V24.917H34.5v1.012H34.5a.578.578,0,0,1,.529-.3c.384,0,.656.332.651.822,0,.576-.348.861-.693.861a.547.547,0,0,1-.519-.3h-.01l-.01.267Zm.291-.646a.478.478,0,0,0,.013.106.439.439,0,0,0,.423.342c.293,0,.47-.249.47-.617,0-.324-.161-.6-.462-.6a.453.453,0,0,0-.428.361.7.7,0,0,0-.016.119Z" transform="translate(54.537 39.724)" fill="#1d1e1c"/>
    <path id="패스_1823" data-name="패스 1823" d="M35.127,25.207l.34.952c.034.106.073.233.1.329h.005c.029-.1.062-.218.1-.335l.306-.947h.3l-.423,1.149a2.5,2.5,0,0,1-.532,1.009.742.742,0,0,1-.345.189l-.07-.246a.748.748,0,0,0,.246-.143.9.9,0,0,0,.236-.327.2.2,0,0,0,.023-.07.277.277,0,0,0-.021-.075l-.571-1.486Z" transform="translate(55.512 40.187)" fill="#1d1e1c"/>
    <path id="패스_1824" data-name="패스 1824" d="M35.73,24.963h.278v1.082h.01c.057-.086.114-.166.169-.239l.659-.843h.345l-.778.952.841,1.292h-.329l-.711-1.1-.2.246v.856H35.73Z" transform="translate(56.961 39.798)" fill="#1d1e1c"/>
    <path id="패스_1825" data-name="패스 1825" d="M36.419,26.877a.949.949,0,0,0,.5.148c.285,0,.451-.158.451-.384,0-.21-.114-.329-.4-.446-.353-.13-.571-.319-.571-.636a.629.629,0,0,1,.7-.61.949.949,0,0,1,.477.109l-.078.236a.848.848,0,0,0-.41-.106c-.293,0-.4.184-.4.337,0,.21.13.311.428.433.363.145.55.329.55.659,0,.345-.246.646-.755.646a1.073,1.073,0,0,1-.55-.143Z" transform="translate(57.948 39.775)" fill="#1d1e1c"/>
    <path id="패스_1826" data-name="패스 1826" d="M37.02,26.877a.949.949,0,0,0,.5.148c.285,0,.451-.158.451-.384,0-.21-.114-.329-.4-.446-.353-.13-.571-.319-.571-.636a.629.629,0,0,1,.7-.61.949.949,0,0,1,.477.109l-.078.236a.847.847,0,0,0-.41-.106c-.293,0-.4.184-.4.337,0,.21.13.311.428.433.363.145.55.329.55.659,0,.345-.246.646-.755.646a1.073,1.073,0,0,1-.55-.143Z" transform="translate(58.906 39.775)" fill="#1d1e1c"/>
    <path id="패스_1827" data-name="패스 1827" d="M39.514,26.085c0,.773-.451,1.183-1,1.183a1.015,1.015,0,0,1-.97-1.139,1.051,1.051,0,0,1,1-1.18,1.008,1.008,0,0,1,.97,1.136m-1.673.036c0,.48.249.911.687.911s.69-.425.69-.934c0-.446-.223-.913-.687-.913s-.69.444-.69.937" transform="translate(59.85 39.775)" fill="#1d1e1c"/>
  </g>
</svg>
