<svg xmlns="http://www.w3.org/2000/svg" xmlns:xlink="http://www.w3.org/1999/xlink" width="180" height="180" viewBox="0 0 180 180">
  <defs>
    <clipPath id="clip-path">
      <rect id="사각형_398" data-name="사각형 398" width="100.531" height="120.167" fill="none"/>
    </clipPath>
  </defs>
  <g id="그룹_273" data-name="그룹 273" transform="translate(-360 -1612.5)">
    <rect id="사각형_397" data-name="사각형 397" width="180" height="180" rx="20" transform="translate(360 1612.5)" fill="#f4f4f4" opacity="0.999"/>
    <g id="그룹_263" data-name="그룹 263" transform="translate(400 1642.332)">
      <g id="그룹_262" data-name="그룹 262" transform="translate(0 0.001)" clip-path="url(#clip-path)">
        <path id="패스_1806" data-name="패스 1806" d="M82.649,101.676H15.5a12.775,12.775,0,0,1-12.76-12.76V20.392A12.774,12.774,0,0,1,15.5,7.634H82.649a12.774,12.774,0,0,1,12.76,12.758V88.916a12.775,12.775,0,0,1-12.76,12.76M15.5,11.225a9.179,9.179,0,0,0-9.169,9.168V88.916A9.179,9.179,0,0,0,15.5,98.085H82.649a9.18,9.18,0,0,0,9.169-9.169V20.392a9.18,9.18,0,0,0-9.169-9.168Z" transform="translate(1.194 3.33)" fill="#666"/>
        <path id="패스_1807" data-name="패스 1807" d="M65.918,14.555a1.8,1.8,0,0,1-1.8-1.8,9.179,9.179,0,0,0-9.169-9.169H30.285a9.179,9.179,0,0,0-9.168,9.169,1.8,1.8,0,0,1-3.591,0A12.774,12.774,0,0,1,30.285,0H54.953a12.775,12.775,0,0,1,12.76,12.76,1.8,1.8,0,0,1-1.8,1.8" transform="translate(7.647 -0.001)" fill="#666"/>
        <path id="패스_1808" data-name="패스 1808" d="M49.55,77.955h-7.5A31.845,31.845,0,0,1,10.238,46.147V9.348a1.8,1.8,0,1,1,3.591,0v36.8A28.249,28.249,0,0,0,42.047,74.364h7.5A28.249,28.249,0,0,0,77.769,46.147V9.348a1.8,1.8,0,0,1,3.591,0v36.8A31.845,31.845,0,0,1,49.55,77.955" transform="translate(4.467 3.294)" fill="#666"/>
        <path id="패스_1809" data-name="패스 1809" d="M42.779,38.747a1.8,1.8,0,0,1-1.4-2.921L51.317,23.49a1.8,1.8,0,1,1,2.8,2.252L44.179,38.077a1.8,1.8,0,0,1-1.4.669" transform="translate(17.881 9.955)" fill="#10bf99"/>
        <path id="패스_1810" data-name="패스 1810" d="M78.647,19.017H12.522a1.8,1.8,0,1,1,0-3.591H78.647a1.8,1.8,0,1,1,0,3.591" transform="translate(4.68 6.729)" fill="#666"/>
        <path id="패스_1811" data-name="패스 1811" d="M78.647,35H12.522a1.8,1.8,0,1,1,0-3.591H78.647a1.8,1.8,0,1,1,0,3.591" transform="translate(4.68 13.702)" fill="#666"/>
        <path id="패스_1812" data-name="패스 1812" d="M23.257,40.632a1.8,1.8,0,0,1-1.8-1.8v-20.9a1.8,1.8,0,1,1,3.591,0v20.9a1.8,1.8,0,0,1-1.8,1.8" transform="translate(9.363 7.042)" fill="#666"/>
        <path id="패스_1813" data-name="패스 1813" d="M49.772,74.154H30.587a8.134,8.134,0,1,1,0-16.267H49.772a8.134,8.134,0,1,1,0,16.267M30.587,61.478a4.543,4.543,0,1,0,0,9.086H49.772a4.543,4.543,0,1,0,0-9.086Z" transform="translate(9.796 25.254)" fill="#10bf99"/>
        <path id="패스_1814" data-name="패스 1814" d="M16.12,70.1a5.392,5.392,0,1,1,5.392-5.392A5.4,5.4,0,0,1,16.12,70.1m0-7.194a1.8,1.8,0,1,0,1.8,1.8,1.8,1.8,0,0,0-1.8-1.8" transform="translate(4.68 25.878)" fill="#10bf99"/>
        <path id="패스_1815" data-name="패스 1815" d="M57.15,70.1a5.392,5.392,0,1,1,5.393-5.392A5.4,5.4,0,0,1,57.15,70.1m0-7.194a1.8,1.8,0,1,0,1.8,1.8,1.8,1.8,0,0,0-1.8-1.8" transform="translate(22.581 25.878)" fill="#10bf99"/>
        <path id="패스_1816" data-name="패스 1816" d="M24.667,52.135a7.62,7.62,0,1,1,7.621-7.619,7.628,7.628,0,0,1-7.621,7.619m0-11.65a4.029,4.029,0,1,0,4.03,4.03,4.034,4.034,0,0,0-4.03-4.03" transform="translate(7.438 16.096)" fill="#10bf99"/>
        <path id="패스_1817" data-name="패스 1817" d="M49.955,52.135a7.62,7.62,0,1,1,7.619-7.619,7.63,7.63,0,0,1-7.619,7.619m0-11.65a4.029,4.029,0,1,0,4.029,4.03,4.035,4.035,0,0,0-4.029-4.03" transform="translate(18.469 16.096)" fill="#10bf99"/>
        <path id="패스_1818" data-name="패스 1818" d="M66.1,53.368H55.818a1.8,1.8,0,1,1,0-3.591H66.1a1.8,1.8,0,0,1,0,3.591" transform="translate(23.569 21.716)" fill="#666"/>
        <path id="패스_1819" data-name="패스 1819" d="M66.1,58.138H55.818a1.8,1.8,0,1,1,0-3.591H66.1a1.8,1.8,0,0,1,0,3.591" transform="translate(23.569 23.797)" fill="#666"/>
        <path id="패스_1820" data-name="패스 1820" d="M18.388,53.368H8.11a1.8,1.8,0,0,1,0-3.591H18.388a1.8,1.8,0,1,1,0,3.591" transform="translate(2.755 21.716)" fill="#666"/>
        <path id="패스_1821" data-name="패스 1821" d="M18.388,58.138H8.11a1.8,1.8,0,0,1,0-3.591H18.388a1.8,1.8,0,1,1,0,3.591" transform="translate(2.755 23.797)" fill="#666"/>
        <path id="패스_1822" data-name="패스 1822" d="M1.8,89.515a1.8,1.8,0,0,1-1.331-3l14.167-15.66a1.8,1.8,0,1,1,2.663,2.41L3.127,88.924a1.791,1.791,0,0,1-1.331.59" transform="translate(0 30.654)" fill="#666"/>
        <path id="패스_1823" data-name="패스 1823" d="M73.593,89.514a1.793,1.793,0,0,1-1.331-.59L58.094,73.264a1.8,1.8,0,1,1,2.661-2.41l14.169,15.66a1.8,1.8,0,0,1-1.331,3" transform="translate(25.143 30.654)" fill="#666"/>
      </g>
    </g>
  </g>
</svg>
