<svg xmlns="http://www.w3.org/2000/svg" xmlns:xlink="http://www.w3.org/1999/xlink" width="180" height="180" viewBox="0 0 180 180">
  <defs>
    <clipPath id="clip-path">
      <rect id="사각형_399" data-name="사각형 399" width="120.082" height="64.216" fill="none"/>
    </clipPath>
  </defs>
  <g id="그룹_272" data-name="그룹 272" transform="translate(-360 -1320)">
    <rect id="사각형_396" data-name="사각형 396" width="180" height="180" rx="20" transform="translate(360 1320)" fill="#f4f4f4" opacity="0.999"/>
    <g id="그룹_265" data-name="그룹 265" transform="translate(390 1375.46)">
      <g id="그룹_264" data-name="그룹 264" transform="translate(0 0)" clip-path="url(#clip-path)">
        <path id="패스_1824" data-name="패스 1824" d="M45,47.324c-.06,0-.122,0-.184-.009a1.8,1.8,0,0,1-1.606-1.969L47.122,6.951a1.8,1.8,0,0,1,3.575.364L46.786,45.709A1.8,1.8,0,0,1,45,47.324" transform="translate(18.895 2.334)" fill="#666"/>
        <path id="패스_1825" data-name="패스 1825" d="M27.687,41.992h-.06a1.8,1.8,0,0,1-1.736-1.856l.71-21.686a1.8,1.8,0,0,1,3.592.118l-.71,21.686a1.8,1.8,0,0,1-1.8,1.738" transform="translate(11.323 7.309)" fill="#666"/>
        <path id="패스_1826" data-name="패스 1826" d="M56.25,41.707a1.8,1.8,0,0,1-1.426-2.888L71,17.665a1.8,1.8,0,1,1,2.855,2.182L57.679,41a1.794,1.794,0,0,1-1.429.706" transform="translate(23.817 7.418)" fill="#666"/>
        <path id="패스_1827" data-name="패스 1827" d="M70.437,36.136H24.223a1.8,1.8,0,1,1,0-3.593H70.437a1.8,1.8,0,0,1,0,3.593" transform="translate(9.808 14.233)" fill="#10bf99"/>
        <path id="패스_1828" data-name="패스 1828" d="M13.571,36.136H1.839a1.8,1.8,0,1,1,0-3.593H13.571a1.8,1.8,0,1,1,0,3.593" transform="translate(0.018 14.233)" fill="#10bf99"/>
        <path id="패스_1829" data-name="패스 1829" d="M87.715,36.136H70.473a1.8,1.8,0,0,1,0-3.593H87.715a1.8,1.8,0,0,1,0,3.593" transform="translate(30.037 14.233)" fill="#10bf99"/>
        <path id="패스_1830" data-name="패스 1830" d="M85.881,31.615H77.6a6.152,6.152,0,0,1,0-12.3h8.282a1.8,1.8,0,1,1,0,3.593H77.6a2.559,2.559,0,1,0,0,5.117h8.282a1.8,1.8,0,1,1,0,3.593" transform="translate(31.249 8.446)" fill="#10bf99"/>
        <path id="패스_1831" data-name="패스 1831" d="M13.559,33.746H3.25a1.8,1.8,0,1,1,0-3.593H13.559a3.624,3.624,0,1,0,0-7.249,1.8,1.8,0,1,1,0-3.593,7.218,7.218,0,1,1,0,14.435" transform="translate(0.635 8.446)" fill="#10bf99"/>
        <path id="패스_1832" data-name="패스 1832" d="M43.073,24.388H40.051a1.8,1.8,0,0,1,0-3.593h3.023a1.8,1.8,0,1,1,0,3.593" transform="translate(16.731 9.095)" fill="#10bf99"/>
        <path id="패스_1833" data-name="패스 1833" d="M53.461,24.388H50.439a1.8,1.8,0,0,1,0-3.593h3.023a1.8,1.8,0,0,1,0,3.593" transform="translate(21.274 9.095)" fill="#10bf99"/>
        <path id="패스_1834" data-name="패스 1834" d="M85.713,24.91a1.8,1.8,0,0,1-1.654-1.1c-3.2-7.552-10.471-20.219-23.274-20.219H42.134a1.8,1.8,0,1,1,0-3.593H60.785c14.874,0,23.04,14.042,26.581,22.411a1.794,1.794,0,0,1-.953,2.354,1.774,1.774,0,0,1-.7.144" transform="translate(17.642 0)" fill="#58585b"/>
        <path id="패스_1835" data-name="패스 1835" d="M1.961,41.482A1.8,1.8,0,0,1,.531,38.6C9.564,26.7,26.3,22.364,30.105,21.509,38.488,8.8,48.1,1.768,59.469.022A1.749,1.749,0,0,1,59.742,0H78.393a1.8,1.8,0,1,1,0,3.593H59.882c-10.568,1.667-19.2,8.184-27.171,20.494a1.8,1.8,0,0,1-1.167.788c-.187.037-18.975,3.81-28.149,15.9a1.8,1.8,0,0,1-1.433.71" transform="translate(0.072 0)" fill="#666"/>
        <path id="패스_1836" data-name="패스 1836" d="M81.148,50.932H71.463a1.8,1.8,0,0,1,0-3.593h9.685a4.877,4.877,0,0,0,4.871-4.873V23.573A4.877,4.877,0,0,0,81.148,18.7H73.236a1.8,1.8,0,0,1,0-3.593h7.911a8.475,8.475,0,0,1,8.465,8.466V42.466a8.475,8.475,0,0,1-8.465,8.466" transform="translate(30.47 6.607)" fill="#666"/>
        <path id="패스_1837" data-name="패스 1837" d="M12.11,45.9H8.465A8.475,8.475,0,0,1,0,37.436V28.4a1.8,1.8,0,1,1,3.593,0v9.032a4.877,4.877,0,0,0,4.871,4.873H12.11a1.8,1.8,0,1,1,0,3.593" transform="translate(0 11.637)" fill="#666"/>
        <path id="패스_1838" data-name="패스 1838" d="M31.888,44.452a1.8,1.8,0,0,1-1.8-1.8,9.579,9.579,0,1,0-19.159,0,1.8,1.8,0,1,1-3.593,0,13.173,13.173,0,1,1,26.346,0,1.8,1.8,0,0,1-1.8,1.8" transform="translate(3.21 12.894)" fill="#666"/>
        <path id="패스_1839" data-name="패스 1839" d="M78.138,44.452a1.8,1.8,0,0,1-1.8-1.8,9.579,9.579,0,1,0-19.159,0,1.8,1.8,0,1,1-3.593,0,13.173,13.173,0,1,1,26.346,0,1.8,1.8,0,0,1-1.8,1.8" transform="translate(23.438 12.894)" fill="#666"/>
        <path id="패스_1840" data-name="패스 1840" d="M68.343,41.083H25.15a1.8,1.8,0,1,1,0-3.593H68.343a1.8,1.8,0,1,1,0,3.593" transform="translate(10.214 16.396)" fill="#666"/>
        <path id="패스_1841" data-name="패스 1841" d="M77.5,25.036a1.8,1.8,0,0,1-1.654-1.1c-2.435-5.751-7.964-15.4-17.638-15.4H43.774a1.8,1.8,0,1,1,0-3.593H58.208c11.745,0,18.164,11.02,20.945,17.591a1.8,1.8,0,0,1-.953,2.354,1.774,1.774,0,0,1-.7.144" transform="translate(18.359 2.163)" fill="#666"/>
        <path id="패스_1842" data-name="패스 1842" d="M28.425,25.035a1.8,1.8,0,0,1-1.506-2.773c6.629-10.246,14.26-15.9,23.323-17.294a1.749,1.749,0,0,1,.273-.022H64.95a1.8,1.8,0,1,1,0,3.593h-14.3C42.613,9.819,36.026,14.8,29.934,24.214a1.792,1.792,0,0,1-1.509.821" transform="translate(11.647 2.163)" fill="#666"/>
        <path id="패스_1843" data-name="패스 1843" d="M83.845,20.135H28.635a1.8,1.8,0,0,1,0-3.593H83.845a1.8,1.8,0,1,1,0,3.593" transform="translate(11.738 7.235)" fill="#666"/>
        <path id="패스_1844" data-name="패스 1844" d="M19.094,49.546a8,8,0,1,1,8-8,8.01,8.01,0,0,1-8,8m0-12.407A4.407,4.407,0,1,0,23.5,41.544a4.411,4.411,0,0,0-4.407-4.406" transform="translate(4.852 14.671)" fill="#666"/>
        <path id="패스_1845" data-name="패스 1845" d="M65.156,49.546a8,8,0,1,1,8-8,8.01,8.01,0,0,1-8,8m0-12.407a4.407,4.407,0,1,0,4.407,4.406,4.412,4.412,0,0,0-4.407-4.406" transform="translate(24.998 14.671)" fill="#666"/>
      </g>
    </g>
  </g>
</svg>
