<svg xmlns="http://www.w3.org/2000/svg" xmlns:xlink="http://www.w3.org/1999/xlink" width="180" height="180" viewBox="0 0 180 180">
  <defs>
    <clipPath id="clip-path">
      <rect id="사각형_606" data-name="사각형 606" width="131.161" height="97.63" fill="#666"/>
    </clipPath>
  </defs>
  <g id="그룹_385" data-name="그룹 385" transform="translate(-360 -2824)">
    <rect id="사각형_585" data-name="사각형 585" width="180" height="180" rx="20" transform="translate(360 2824)" fill="#f4f4f4" opacity="0.999"/>
    <g id="그룹_302" data-name="그룹 302" transform="translate(384 2865)">
      <g id="그룹_301" data-name="그룹 301" clip-path="url(#clip-path)">
        <path id="패스_2172" data-name="패스 2172" d="M106.518,45.372H4.506a1.929,1.929,0,1,1,0-3.859H106.518a1.929,1.929,0,0,1,0,3.859" transform="translate(1.401 22.565)" fill="#10bf99"/>
        <path id="패스_2163" data-name="패스 2163" d="M52.154,18.109H38.262a1.929,1.929,0,1,1,0-3.859H52.154a1.929,1.929,0,1,1,0,3.859" transform="translate(19.749 7.746)" fill="#10bf99"/>
        <path id="패스_2164" data-name="패스 2164" d="M50.029,25.984H36.137a1.929,1.929,0,0,1,0-3.859H50.029a1.929,1.929,0,0,1,0,3.859" transform="translate(18.594 12.026)" fill="#10bf99"/>
        <path id="패스_2165" data-name="패스 2165" d="M48.779,32.859H34.887a1.929,1.929,0,1,1,0-3.859H48.779a1.929,1.929,0,1,1,0,3.859" transform="translate(17.915 15.763)" fill="#10bf99"/>
        <path id="패스_2166" data-name="패스 2166" d="M48.026,56.609H40.887a1.929,1.929,0,0,1,0-3.859h7.139a1.929,1.929,0,0,1,0,3.859" transform="translate(21.176 28.673)" fill="#10bf99"/>
        <path id="패스_2167" data-name="패스 2167" d="M89.165,61.836H21.537a1.927,1.927,0,0,1-.84-.191l-.909-.438C11.909,57.417,0,51.69,0,43.71c0-8.649,13.972-14.716,21.537-14.716H41.713a1.929,1.929,0,1,1,0,3.859H21.537c-6.494,0-17.678,5.365-17.678,10.857,0,5.554,11.45,11.06,17.6,14.019l.517.249h66.75c.982-.465,2.207-1.022,3.6-1.655,6.768-3.07,24.746-11.231,24.746-16.022,0-1.145-1.664-2.212-2.655-2.746a1.93,1.93,0,0,1,1.832-3.4c3.106,1.675,4.682,3.742,4.682,6.143,0,6.716-13.342,13.335-27.009,19.537-1.557.707-2.9,1.317-3.919,1.808a1.921,1.921,0,0,1-.838.191" transform="translate(0 15.76)" fill="#666"/>
        <path id="패스_2168" data-name="패스 2168" d="M81.617,34.548a1.941,1.941,0,0,1-.375-.035A92.38,92.38,0,0,0,65.7,32.853H45.1a1.929,1.929,0,1,1,0-3.859H65.7a95.478,95.478,0,0,1,16.289,1.73,1.93,1.93,0,0,1-.37,3.823" transform="translate(23.465 15.76)" fill="#666"/>
        <path id="패스_2169" data-name="패스 2169" d="M78.059,47.934H64.706A1.93,1.93,0,0,1,63.2,44.8l20.46-25.574a1.926,1.926,0,0,1,1.507-.724h9.945a1.929,1.929,0,0,1,1.605,3L79.665,47.074a1.929,1.929,0,0,1-1.605.86m-9.34-3.859h8.307L91.5,22.36H86.09Z" transform="translate(34.122 10.056)" fill="#666"/>
        <path id="패스_2173" data-name="패스 2173" d="M22.731,66.515a1.932,1.932,0,0,1-1.777-2.68L47.38,1.179A1.932,1.932,0,0,1,49.158,0H65.783a1.928,1.928,0,0,1,1.886,2.331L54.456,64.559a1.93,1.93,0,0,1-3.776-.8L63.4,3.859H50.44L24.509,65.334a1.929,1.929,0,0,1-1.778,1.181" transform="translate(11.307)" fill="#666"/>
        <path id="패스_2174" data-name="패스 2174" d="M61.778,71.446H45.154a1.928,1.928,0,0,1-1.523-.747L28.572,51.283a1.929,1.929,0,1,1,3.049-2.365L46.1,67.587H58.463L49.544,51.9A1.929,1.929,0,1,1,52.9,49.994L63.454,68.563a1.928,1.928,0,0,1-1.676,2.883" transform="translate(15.31 26.184)" fill="#666"/>
        <rect id="사각형_600" data-name="사각형 600" width="5.209" height="5.209" rx="1.35" transform="translate(88.304 50.937)" fill="#10bf99"/>
        <rect id="사각형_601" data-name="사각형 601" width="5.209" height="5.209" rx="1.35" transform="translate(79.333 50.937)" fill="#10bf99"/>
        <rect id="사각형_602" data-name="사각형 602" width="5.209" height="5.209" rx="1.35" transform="translate(70.457 50.937)" fill="#10bf99"/>
        <rect id="사각형_603" data-name="사각형 603" width="5.209" height="5.209" rx="1.35" transform="translate(24.878 50.937)" fill="#10bf99"/>
        <rect id="사각형_604" data-name="사각형 604" width="5.209" height="5.209" rx="1.35" transform="translate(15.906 50.937)" fill="#10bf99"/>
      </g>
    </g>
  </g>
</svg>
