<svg xmlns="http://www.w3.org/2000/svg" xmlns:xlink="http://www.w3.org/1999/xlink" width="180" height="180" viewBox="0 0 180 180">
  <defs>
    <clipPath id="clip-path">
      <rect id="사각형_402" data-name="사각형 402" width="123.305" height="75.056" fill="#666"/>
    </clipPath>
  </defs>
  <g id="그룹_274" data-name="그룹 274" transform="translate(-360 -1937)">
    <rect id="사각형_401" data-name="사각형 401" width="180" height="180" rx="20" transform="translate(360 1937)" fill="#f4f4f4" opacity="0.999"/>
    <g id="그룹_269" data-name="그룹 269" transform="translate(388 1990)">
      <g id="그룹_268" data-name="그룹 268" transform="translate(0 0)" clip-path="url(#clip-path)">
        <path id="패스_1848" data-name="패스 1848" d="M65.989,44.4H29.931a1.868,1.868,0,1,1,0-3.737H65.989a1.868,1.868,0,0,1,0,3.737" transform="translate(13.88 20.11)" fill="#666"/>
        <path id="패스_1849" data-name="패스 1849" d="M115.651,61.945H100.606a1.868,1.868,0,1,1,0-3.737h15.045a3.922,3.922,0,0,0,3.917-3.916V12.83a3.921,3.921,0,0,0-3.917-3.917h-108A3.921,3.921,0,0,0,3.737,12.83V54.293a3.922,3.922,0,0,0,3.917,3.916H22.513a1.868,1.868,0,1,1,0,3.737H7.654A7.662,7.662,0,0,1,0,54.293V12.83A7.661,7.661,0,0,1,7.654,5.176h108A7.661,7.661,0,0,1,123.3,12.83V54.293a7.662,7.662,0,0,1-7.654,7.652" transform="translate(0 2.56)" fill="#666"/>
        <path id="패스_1850" data-name="패스 1850" d="M26.13,58.223A12.1,12.1,0,1,1,38.225,46.129,12.11,12.11,0,0,1,26.13,58.223m0-20.454a8.359,8.359,0,1,0,8.358,8.359A8.37,8.37,0,0,0,26.13,37.77" transform="translate(6.941 16.833)" fill="#666"/>
        <path id="패스_1851" data-name="패스 1851" d="M28.309,43.665a4.646,4.646,0,1,1-4.644-4.65,4.646,4.646,0,0,1,4.644,4.65" transform="translate(9.406 19.297)" fill="#10bf99"/>
        <path id="패스_1852" data-name="패스 1852" d="M64.38,58.223A12.1,12.1,0,1,1,76.475,46.129,12.11,12.11,0,0,1,64.38,58.223m0-20.454a8.359,8.359,0,1,0,8.358,8.359A8.37,8.37,0,0,0,64.38,37.77" transform="translate(25.859 16.833)" fill="#666"/>
        <path id="패스_1853" data-name="패스 1853" d="M66.559,43.665a4.646,4.646,0,1,1-4.644-4.65,4.646,4.646,0,0,1,4.644,4.65" transform="translate(28.324 19.297)" fill="#10bf99"/>
        <path id="패스_1854" data-name="패스 1854" d="M17.939,29.125H9.559a4.5,4.5,0,0,1-4.5-4.5v-8.38a4.5,4.5,0,0,1,4.5-4.5h8.38a4.5,4.5,0,0,1,4.5,4.5v8.38a4.5,4.5,0,0,1-4.5,4.5M9.559,15.487a.763.763,0,0,0-.761.761v8.38a.763.763,0,0,0,.761.761h8.38a.762.762,0,0,0,.761-.761v-8.38a.762.762,0,0,0-.761-.761Z" transform="translate(2.504 5.812)" fill="#666"/>
        <path id="패스_1855" data-name="패스 1855" d="M97.843,32.17H24.42a4.862,4.862,0,0,1-4.857-4.857V14.982a4.862,4.862,0,0,1,4.857-4.857H97.843a4.864,4.864,0,0,1,4.857,4.857v12.33a4.864,4.864,0,0,1-4.857,4.857M24.42,13.862A1.122,1.122,0,0,0,23.3,14.982v12.33a1.122,1.122,0,0,0,1.121,1.121H97.843a1.124,1.124,0,0,0,1.121-1.121V14.982a1.124,1.124,0,0,0-1.121-1.121Z" transform="translate(9.676 5.008)" fill="#666"/>
        <path id="패스_1856" data-name="패스 1856" d="M32.056,30.552a1.867,1.867,0,0,1-1.868-1.868V12.243a1.868,1.868,0,1,1,3.737,0V28.684a1.869,1.869,0,0,1-1.868,1.868" transform="translate(14.931 5.132)" fill="#666"/>
        <path id="패스_1857" data-name="패스 1857" d="M42.764,30.552A1.867,1.867,0,0,1,40.9,28.684V12.243a1.868,1.868,0,1,1,3.737,0V28.684a1.869,1.869,0,0,1-1.868,1.868" transform="translate(20.227 5.132)" fill="#666"/>
        <path id="패스_1858" data-name="패스 1858" d="M53.472,30.552A1.868,1.868,0,0,1,51.6,28.684V12.243a1.868,1.868,0,0,1,3.737,0V28.684a1.868,1.868,0,0,1-1.868,1.868" transform="translate(25.523 5.132)" fill="#666"/>
        <path id="패스_1859" data-name="패스 1859" d="M64.181,30.552a1.867,1.867,0,0,1-1.868-1.868V12.243a1.868,1.868,0,0,1,3.737,0V28.684a1.869,1.869,0,0,1-1.868,1.868" transform="translate(30.82 5.132)" fill="#666"/>
        <path id="패스_1860" data-name="패스 1860" d="M74.161,10.275A1.869,1.869,0,0,1,72.4,9.024L70.9,4.76c-.4-.974-.695-1.024-1.224-1.024H20.916c-.468,0-.858.081-1.248,1.084L18.2,9.024A1.869,1.869,0,0,1,14.667,7.79l1.495-4.266A4.878,4.878,0,0,1,20.916,0H69.677a4.893,4.893,0,0,1,4.717,3.436L75.923,7.79a1.868,1.868,0,0,1-1.762,2.486" transform="translate(7.202 0)" fill="#666"/>
        <path id="패스_1864" data-name="패스 1864" d="M42.121,33.653H2.514a1.868,1.868,0,1,1,0-3.737H42.121a1.868,1.868,0,1,1,0,3.737" transform="translate(0.32 14.797)" fill="#666"/>
        <path id="패스_1865" data-name="패스 1865" d="M94.121,33.653H54.514a1.868,1.868,0,0,1,0-3.737H94.121a1.868,1.868,0,0,1,0,3.737" transform="translate(26.039 14.797)" fill="#666"/>
      </g>
    </g>
  </g>
</svg>
