<svg xmlns="http://www.w3.org/2000/svg" xmlns:xlink="http://www.w3.org/1999/xlink" width="49.795" height="32.497" viewBox="0 0 49.795 32.497">
  <defs>
    <clipPath id="clip-path">
      <rect id="사각형_285" data-name="사각형 285" width="49.795" height="32.497" fill="none"/>
    </clipPath>
  </defs>
  <g id="그룹_195" data-name="그룹 195" transform="translate(0 0)">
    <rect id="사각형_282" data-name="사각형 282" width="4.28" height="19.889" transform="translate(0 0.232)" fill="#1d7348"/>
    <path id="패스_1438" data-name="패스 1438" d="M9.906.189,3.369,9.875l.093.132,5.851,10.2h4.873l-5.877-10.2L8.238,9.87,14.779.189Z" transform="translate(0.763 0.043)" fill="#1d7348"/>
    <path id="패스_1439" data-name="패스 1439" d="M15.957.189,9.42,9.875l.094.132L15.36,20.2l-8.2,12.234,5.058.011,7.891-12.076.12-.193L14.36,10.008l-.071-.137L20.83.189Z" transform="translate(1.622 0.043)" fill="#1d7348"/>
    <path id="패스_1440" data-name="패스 1440" d="M21.6.189,15.068,9.875l.094.132,5.845,10.2L12.8,32.439l5.068,0,7.891-12.063.12-.193L20.008,10.008l-.071-.137L26.479.189Z" transform="translate(2.898 0.043)" fill="#1d7348"/>
    <g id="그룹_194" data-name="그룹 194" transform="translate(0 0)">
      <g id="그룹_193" data-name="그룹 193" clip-path="url(#clip-path)">
        <path id="패스_1441" data-name="패스 1441" d="M31.6,0a10.19,10.19,0,1,0,10.19,10.19A10.19,10.19,0,0,0,31.6,0m.276,16.309A6.119,6.119,0,1,1,38,10.19a6.12,6.12,0,0,1-6.12,6.119" transform="translate(4.849 0)" fill="#1d7348"/>
        <path id="패스_1442" data-name="패스 1442" d="M27.1,18.844h-.839l-.924-.557-.105.064v.493h-.711V17.33h.711v.64l.987-.64h.711l-1.2.709Z" transform="translate(5.553 3.925)" fill="#171716"/>
        <path id="패스_1443" data-name="패스 1443" d="M28.413,18.531a.651.651,0,0,1-.444.124.667.667,0,0,1-.476-.115.671.671,0,0,1-.1-.426v-.038a.623.623,0,0,1,.114-.429.652.652,0,0,1,.464-.12c.253,0,.413.044.481.135a.691.691,0,0,1,.1.415v.04a.536.536,0,0,1-.136.415m.854-.476a.624.624,0,0,0-.324-.534,1.77,1.77,0,0,0-.953-.211,1.886,1.886,0,0,0-.98.207.619.619,0,0,0-.335.537v.086a.591.591,0,0,0,.358.542,2.439,2.439,0,0,0,1.876,0,.59.59,0,0,0,.357-.546Z" transform="translate(6.04 3.92)" fill="#171716"/>
        <path id="패스_1444" data-name="패스 1444" d="M30.4,17.9a1.054,1.054,0,0,1-.363.044H29.85v-.4h.233a.937.937,0,0,1,.321.042.146.146,0,0,1,.109.141v.042c0,.059-.037.1-.109.132m.709.372a.975.975,0,0,0-.56-.235,1.375,1.375,0,0,0,.5-.092c.112-.053.167-.121.167-.208v-.081c0-.092-.064-.17-.189-.233a1.579,1.579,0,0,0-.645-.094H29.14v1.513h.71v-.681h.167a.542.542,0,0,1,.433.158.815.815,0,0,1,.145.522h.7a.766.766,0,0,0-.185-.569" transform="translate(6.598 3.925)" fill="#171716"/>
        <path id="패스_1445" data-name="패스 1445" d="M33.285,18.844H31.276V17.33H33.2v.227h-1.21v.407h.942V18.2h-.942v.419h1.3Z" transform="translate(7.082 3.925)" fill="#171716"/>
        <path id="패스_1446" data-name="패스 1446" d="M33.976,18.261l.372-.559.394.559Zm.779-.931h-.666l-1.067,1.513H33.6l.24-.367h1.05l.235.367h.726Z" transform="translate(7.477 3.925)" fill="#171716"/>
        <path id="패스_1447" data-name="패스 1447" d="M37.948,18.844h-.305l-1.581-.95v.95h-.507V17.33h.381l1.5.9v-.9h.507Z" transform="translate(8.051 3.925)" fill="#171716"/>
        <path id="패스_1448" data-name="패스 1448" d="M26.547,20.379c0,.159-.112.278-.335.356a2.958,2.958,0,0,1-.931.115c-.228,0-.421-.006-.576-.02a3.541,3.541,0,0,1-.388-.05v-.256a2.855,2.855,0,0,0,.375.064,4.364,4.364,0,0,0,.5.029,1.661,1.661,0,0,0,.477-.045c.087-.031.131-.078.131-.146,0-.045-.032-.085-.094-.119a2.584,2.584,0,0,0-.537-.136A1.9,1.9,0,0,1,24.626,20a.323.323,0,0,1-.193-.289c0-.117.1-.215.312-.294a2.441,2.441,0,0,1,.861-.121,4.69,4.69,0,0,1,.48.022c.141.013.242.026.3.036v.233c-.12-.015-.239-.028-.358-.04s-.245-.017-.38-.017a1.422,1.422,0,0,0-.411.043q-.125.042-.125.107a.131.131,0,0,0,.094.123,3.382,3.382,0,0,0,.553.121,1.821,1.821,0,0,1,.61.189.325.325,0,0,1,.18.273" transform="translate(5.506 4.368)" fill="#171716"/>
        <path id="패스_1449" data-name="패스 1449" d="M28.1,20.51a.651.651,0,0,1-.444.124.444.444,0,0,1-.578-.541v-.038a.623.623,0,0,1,.114-.429.652.652,0,0,1,.464-.12c.253,0,.413.044.48.135a.69.69,0,0,1,.1.415v.04a.54.54,0,0,1-.136.415m.852-.476a.621.621,0,0,0-.324-.533,1.766,1.766,0,0,0-.954-.211,1.873,1.873,0,0,0-.979.208.615.615,0,0,0-.334.536v.086a.587.587,0,0,0,.358.542,2.439,2.439,0,0,0,1.876,0,.591.591,0,0,0,.356-.546Z" transform="translate(5.969 4.368)" fill="#171716"/>
        <path id="패스_1450" data-name="패스 1450" d="M30.867,20.786a1.662,1.662,0,0,1-.266.043,4,4,0,0,1-.446.021,2.467,2.467,0,0,1-1.044-.189.6.6,0,0,1-.4-.556v-.06a.618.618,0,0,1,.41-.548,2.264,2.264,0,0,1,1.029-.207c.178,0,.325.006.444.017a1.85,1.85,0,0,1,.277.042v.233a1.726,1.726,0,0,0-.244-.04,3.1,3.1,0,0,0-.362-.018,1.076,1.076,0,0,0-.6.145.452.452,0,0,0-.217.4v.021a.441.441,0,0,0,.2.4,1.023,1.023,0,0,0,.553.129,3.2,3.2,0,0,0,.4-.021c.112-.015.2-.029.266-.043Z" transform="translate(6.5 4.368)" fill="#171716"/>
        <rect id="사각형_283" data-name="사각형 283" width="0.71" height="1.513" transform="translate(37.968 23.681)" fill="#171716"/>
        <path id="패스_1451" data-name="패스 1451" d="M34.148,20.822H32.139V19.309H34.06v.227H32.85v.407h.943v.233H32.85V20.6h1.3Z" transform="translate(7.277 4.373)" fill="#171716"/>
        <path id="패스_1452" data-name="패스 1452" d="M36,19.536h-.687v1.287H34.6V19.536H33.9v-.227H36Z" transform="translate(7.676 4.373)" fill="#171716"/>
        <path id="패스_1453" data-name="패스 1453" d="M38.44,19.309l-1.049.874v.639h-.709v-.608l-1.072-.905h.83l.7.607.736-.607Z" transform="translate(8.064 4.373)" fill="#171716"/>
        <path id="패스_1454" data-name="패스 1454" d="M26.443,21.514h-1.21v.407h.942v.233h-.942V22.8h-.71V21.287h1.921Z" transform="translate(5.553 4.821)" fill="#171716"/>
        <path id="패스_1455" data-name="패스 1455" d="M28.022,22.488a.645.645,0,0,1-.443.124A.444.444,0,0,1,27,22.071v-.038a.623.623,0,0,1,.114-.429.652.652,0,0,1,.464-.12c.253,0,.412.044.48.135a.69.69,0,0,1,.1.415v.04a.536.536,0,0,1-.137.415m.854-.476a.621.621,0,0,0-.324-.534,1.755,1.755,0,0,0-.954-.211,1.873,1.873,0,0,0-.979.208.615.615,0,0,0-.334.536V22.1a.587.587,0,0,0,.358.542,2.439,2.439,0,0,0,1.876,0,.591.591,0,0,0,.356-.546Z" transform="translate(5.952 4.816)" fill="#171716"/>
        <path id="패스_1456" data-name="패스 1456" d="M30.013,21.86a1.058,1.058,0,0,1-.363.044h-.191v-.4h.232a.94.94,0,0,1,.323.042.146.146,0,0,1,.109.141v.042c0,.059-.037.1-.109.132m.708.372A.964.964,0,0,0,30.162,22a1.388,1.388,0,0,0,.5-.092c.11-.053.166-.121.166-.208v-.081c0-.092-.064-.17-.19-.233a1.572,1.572,0,0,0-.644-.094H28.749V22.8h.71V22.12h.167a.542.542,0,0,1,.433.158.82.82,0,0,1,.145.522h.705a.767.767,0,0,0-.188-.569" transform="translate(6.51 4.821)" fill="#171716"/>
        <path id="패스_1457" data-name="패스 1457" d="M34.4,21.514h-.687V22.8H33V21.514h-.705v-.227h2.1Z" transform="translate(7.312 4.821)" fill="#171716"/>
        <path id="패스_1458" data-name="패스 1458" d="M36.5,22.8h-.71v-.652h-.809V22.8h-.71V21.287h.71v.629h.809v-.629h.71Z" transform="translate(7.761 4.821)" fill="#171716"/>
        <path id="패스_1459" data-name="패스 1459" d="M38.607,22.8H36.6V21.287H38.52v.227h-1.21v.407h.942v.233h-.942v.419h1.3Z" transform="translate(8.287 4.821)" fill="#171716"/>
        <path id="패스_1460" data-name="패스 1460" d="M26.547,24.335c0,.161-.112.278-.335.356a2.958,2.958,0,0,1-.931.115c-.228,0-.421-.006-.576-.02a3.542,3.542,0,0,1-.388-.05V24.48a2.855,2.855,0,0,0,.375.064,4.364,4.364,0,0,0,.5.029,1.661,1.661,0,0,0,.477-.045c.087-.029.131-.078.131-.146,0-.045-.032-.085-.094-.119a2.584,2.584,0,0,0-.537-.136,1.9,1.9,0,0,1-.545-.175.323.323,0,0,1-.193-.288c0-.117.1-.216.312-.3a2.441,2.441,0,0,1,.861-.121,4.691,4.691,0,0,1,.48.022c.141.013.242.026.3.037v.232c-.12-.015-.239-.028-.358-.04s-.245-.017-.38-.017a1.422,1.422,0,0,0-.411.043q-.125.042-.125.107a.13.13,0,0,0,.094.123,3.382,3.382,0,0,0,.553.121,1.85,1.85,0,0,1,.61.189.325.325,0,0,1,.18.273" transform="translate(5.506 5.264)" fill="#171716"/>
        <path id="패스_1461" data-name="패스 1461" d="M28.363,23.492h-.687v1.287h-.71V23.492h-.7v-.227h2.1Z" transform="translate(5.947 5.269)" fill="#171716"/>
        <path id="패스_1462" data-name="패스 1462" d="M30.511,24.345c0,.143-.092.255-.275.336a2.267,2.267,0,0,1-.852.12,2.226,2.226,0,0,1-.889-.129.414.414,0,0,1-.271-.386V23.265h.71v1.063a.2.2,0,0,0,.117.185.952.952,0,0,0,.4.061,1.074,1.074,0,0,0,.4-.055.2.2,0,0,0,.129-.2V23.265h.53Z" transform="translate(6.391 5.268)" fill="#171716"/>
        <path id="패스_1463" data-name="패스 1463" d="M32.031,24.447a.809.809,0,0,1-.456.105h-.327v-1.06h.266a.82.82,0,0,1,.491.13.443.443,0,0,1,.18.38v.042a.458.458,0,0,1-.153.4m.87-.454a.6.6,0,0,0-.307-.532,1.981,1.981,0,0,0-1.018-.2H30.537v1.513h1.158a1.821,1.821,0,0,0,.9-.178.593.593,0,0,0,.3-.547Z" transform="translate(6.915 5.269)" fill="#171716"/>
        <path id="패스_1464" data-name="패스 1464" d="M35.418,23.265l-1.047.874v.639h-.71V24.17l-1.072-.905h.83l.7.607.737-.607Z" transform="translate(7.379 5.269)" fill="#171716"/>
        <path id="패스_1465" data-name="패스 1465" d="M38.308,24.466a.651.651,0,0,1-.444.124.444.444,0,0,1-.578-.541v-.038a.623.623,0,0,1,.114-.429.652.652,0,0,1,.464-.12c.253,0,.413.044.48.135a.69.69,0,0,1,.1.415v.04a.54.54,0,0,1-.136.415m.852-.476a.621.621,0,0,0-.324-.534,1.753,1.753,0,0,0-.953-.211,1.875,1.875,0,0,0-.98.208.615.615,0,0,0-.334.536v.086a.587.587,0,0,0,.358.542,2.439,2.439,0,0,0,1.876,0,.591.591,0,0,0,.356-.546Z" transform="translate(8.281 5.264)" fill="#171716"/>
        <path id="패스_1466" data-name="패스 1466" d="M40.955,23.492h-1.21V23.9h.943v.233h-.943v.646h-.71V23.265h1.921Z" transform="translate(8.839 5.269)" fill="#171716"/>
        <path id="패스_1467" data-name="패스 1467" d="M26.126,26.445a.654.654,0,0,1-.443.124.444.444,0,0,1-.578-.541V25.99a.623.623,0,0,1,.114-.429.646.646,0,0,1,.464-.12c.253,0,.412.044.48.134a.7.7,0,0,1,.1.416v.039a.539.539,0,0,1-.137.416m.854-.476a.621.621,0,0,0-.324-.534,1.755,1.755,0,0,0-.954-.211,1.874,1.874,0,0,0-.979.207.618.618,0,0,0-.334.537v.086a.587.587,0,0,0,.358.542,2.439,2.439,0,0,0,1.876,0,.592.592,0,0,0,.356-.546Z" transform="translate(5.523 5.712)" fill="#171716"/>
        <path id="패스_1468" data-name="패스 1468" d="M28.1,25.751a.754.754,0,0,1-.312.045h-.25v-.337h.247a.866.866,0,0,1,.3.04.136.136,0,0,1,.1.13.134.134,0,0,1-.09.121m.776.229a1.257,1.257,0,0,0-.524-.132.955.955,0,0,0,.383-.1.225.225,0,0,0,.124-.2c0-.1-.067-.172-.2-.226a2.07,2.07,0,0,0-.683-.08H26.853v1.512h1.1a2.211,2.211,0,0,0,.828-.124c.2-.083.3-.2.3-.356a.333.333,0,0,0-.2-.3m-.628.489a.94.94,0,0,1-.43.072h-.28V26h.242a1.066,1.066,0,0,1,.456.071.213.213,0,0,1,.14.191.226.226,0,0,1-.128.207" transform="translate(6.081 5.717)" fill="#171716"/>
        <path id="패스_1469" data-name="패스 1469" d="M31.078,26.757H29.069V25.244h1.922v.227h-1.21v.407h.942v.233h-.942v.419h1.3Z" transform="translate(6.582 5.717)" fill="#171716"/>
        <path id="패스_1470" data-name="패스 1470" d="M33.089,26.314c0,.159-.112.278-.335.356a2.958,2.958,0,0,1-.931.115c-.228,0-.421-.006-.576-.02a3.5,3.5,0,0,1-.388-.05v-.256a2.855,2.855,0,0,0,.375.064,4.359,4.359,0,0,0,.5.029,1.666,1.666,0,0,0,.478-.045c.087-.029.13-.078.13-.146,0-.045-.031-.085-.093-.119a2.584,2.584,0,0,0-.537-.136,1.9,1.9,0,0,1-.545-.175.323.323,0,0,1-.193-.289c0-.115.1-.215.312-.3a2.474,2.474,0,0,1,.861-.12c.178,0,.337.007.478.021s.243.027.3.037v.233c-.12-.015-.239-.028-.358-.04s-.245-.017-.38-.017a1.416,1.416,0,0,0-.411.043q-.125.042-.125.107a.13.13,0,0,0,.094.123,3.529,3.529,0,0,0,.553.121,1.8,1.8,0,0,1,.608.189.324.324,0,0,1,.182.273" transform="translate(6.988 5.712)" fill="#171716"/>
        <rect id="사각형_284" data-name="사각형 284" width="0.71" height="1.513" transform="translate(40.638 30.96)" fill="#171716"/>
        <path id="패스_1471" data-name="패스 1471" d="M36.185,25.471H35.5v1.287h-.71V25.471h-.7v-.227h2.1Z" transform="translate(7.718 5.717)" fill="#171716"/>
        <path id="패스_1472" data-name="패스 1472" d="M38.624,25.244l-1.047.874v.639h-.71v-.608l-1.072-.905h.83l.7.607.737-.607Z" transform="translate(8.105 5.717)" fill="#171716"/>
      </g>
    </g>
  </g>
</svg>
