<svg xmlns="http://www.w3.org/2000/svg" width="179" height="56.466" viewBox="0 0 179 56.466">
  <g id="그룹_182" data-name="그룹 182" transform="translate(-99.901 256.899)">
    <rect id="사각형_194" data-name="사각형 194" width="6.847" height="35.69" transform="translate(99.908 -248.621)" fill="#00835a"/>
    <path id="패스_716" data-name="패스 716" d="M36.168,46.841a22.934,22.934,0,0,1-10.531,2.23c-10.478,0-17.845-6.328-17.845-18.416,0-12.241,8.871-18.726,19.039-18.726,4.514,0,7.729.83,9.855,2.075l-.674,5.914a19.025,19.025,0,0,0-9.181-2.179c-6.278,0-11.672,4.253-11.672,12.345,0,8.3,4.617,13.176,11.516,13.176a18.757,18.757,0,0,0,8.974-2.282Z" transform="translate(103.84 -261.276)" fill="#00835a"/>
    <path id="패스_717" data-name="패스 717" d="M94.042,18.358v8.767h13.073v5.81H94.042v9.286h14.941v5.81H87.195V12.549h21.58v5.81Z" transform="translate(143.98 -260.963)" fill="#00835a"/>
    <path id="패스_718" data-name="패스 718" d="M104.425,41.445a18.426,18.426,0,0,0,7.678,1.816c4.2,0,7-1.816,7-4.72,0-2.8-2.126-4.462-6.173-5.759-5.759-1.816-8.145-5.033-8.145-10.116,0-7.522,6.537-10.739,13.437-10.739a15.788,15.788,0,0,1,7.522,1.712l-.519,6.174a14.028,14.028,0,0,0-7.106-2.075C114.386,17.739,112,19.5,112,22.3c0,2.906,1.763,4.514,6.277,5.915,5.759,1.816,8.2,5.135,8.2,9.6,0,7.419-6.432,11.257-14.525,11.257a20.6,20.6,0,0,1-8.041-1.608Z" transform="translate(152.428 -261.277)" fill="#00835a"/>
    <rect id="사각형_195" data-name="사각형 195" width="0.979" height="5.101" transform="translate(99.901 -207.127)" fill="#1d1e1c"/>
    <path id="패스_719" data-name="패스 719" d="M1.864,41.7a1.147,1.147,0,0,1,1.1-.741,1.133,1.133,0,0,1,1.179,1.253v2.364H3.532V42.388c0-.5-.23-.9-.786-.9A1.008,1.008,0,0,0,1.879,42.6v1.978H1.271V41.032h.55Z" transform="translate(100.543 -246.601)" fill="#1d1e1c"/>
    <path id="패스_720" data-name="패스 720" d="M5.746,41.34v.474H4.79v2.017c0,.414.215.6.533.6a1.028,1.028,0,0,0,.393-.066l.03.452a1.33,1.33,0,0,1-.556.111.914.914,0,0,1-1.009-1.052V41.814H3.626V41.34h.556v-.935H4.79v.935Z" transform="translate(101.734 -246.881)" fill="#1d1e1c"/>
    <path id="패스_721" data-name="패스 721" d="M8.024,44.4a2.3,2.3,0,0,1-1.075.245A1.532,1.532,0,0,1,5.34,42.9c0-1.186.631-1.942,1.587-1.942.92,0,1.3.786,1.3,1.749a1.436,1.436,0,0,1-.03.3H5.978c.036.8.406,1.149,1.119,1.149a1.786,1.786,0,0,0,.9-.259Zm-.416-1.889c0-.578-.208-1.039-.748-1.039-.489,0-.816.416-.869,1.039Z" transform="translate(102.6 -246.601)" fill="#1d1e1c"/>
    <path id="패스_722" data-name="패스 722" d="M8.4,41.56a.807.807,0,0,1,.763-.593A1.674,1.674,0,0,1,9.519,41l-.03.548a1.266,1.266,0,0,0-.349-.045c-.437,0-.718.385-.718,1.076V44.57H7.813V41.027h.548Z" transform="translate(103.85 -246.596)" fill="#1d1e1c"/>
    <path id="패스_723" data-name="패스 723" d="M9.977,41.7a1.147,1.147,0,0,1,1.1-.741,1.133,1.133,0,0,1,1.179,1.253v2.364h-.608V42.388c0-.5-.23-.9-.786-.9A1.008,1.008,0,0,0,9.992,42.6v1.978H9.384V41.032h.548Z" transform="translate(104.645 -246.601)" fill="#1d1e1c"/>
    <path id="패스_724" data-name="패스 724" d="M12.145,41.223a2.337,2.337,0,0,1,1.1-.266,1.117,1.117,0,0,1,1.26,1.268v2.35h-.534l-.066-.527a1.089,1.089,0,0,1-1.016.6.985.985,0,0,1-1.037-1.03c0-.808.7-1.216,1.549-1.216a2.5,2.5,0,0,1,.5.045v-.274c0-.476-.282-.712-.8-.712a1.872,1.872,0,0,0-.911.266ZM13.894,42.9a1.912,1.912,0,0,0-.438-.045c-.571,0-.956.3-.956.727a.553.553,0,0,0,.578.593.891.891,0,0,0,.816-.971Z" transform="translate(105.89 -246.602)" fill="#1d1e1c"/>
    <path id="패스_725" data-name="패스 725" d="M16.18,41.34v.474h-.956v2.017c0,.414.215.6.533.6a1.028,1.028,0,0,0,.393-.066l.03.452a1.33,1.33,0,0,1-.556.111.914.914,0,0,1-1.009-1.052V41.814H14.06V41.34h.556v-.935h.608v.935Z" transform="translate(107.008 -246.881)" fill="#1d1e1c"/>
    <path id="패스_726" data-name="패스 726" d="M16.639,40.523a.379.379,0,1,1-.379-.378.38.38,0,0,1,.379.378m-.682.92h.608v3.543h-.608Z" transform="translate(107.93 -247.012)" fill="#1d1e1c"/>
    <path id="패스_727" data-name="패스 727" d="M20.159,42.8a1.656,1.656,0,1,1-1.646-1.846A1.647,1.647,0,0,1,20.159,42.8m-2.624,0c0,.763.334,1.356.979,1.356s.979-.593.979-1.356-.334-1.358-.979-1.358-.979.595-.979,1.358" transform="translate(108.428 -246.601)" fill="#1d1e1c"/>
    <path id="패스_728" data-name="패스 728" d="M20.18,41.7a1.147,1.147,0,0,1,1.1-.741,1.133,1.133,0,0,1,1.179,1.253v2.364h-.608V42.388c0-.5-.23-.9-.786-.9A1.008,1.008,0,0,0,20.2,42.6v1.978h-.608V41.032h.55Z" transform="translate(109.803 -246.601)" fill="#1d1e1c"/>
    <path id="패스_729" data-name="패스 729" d="M22.347,41.223a2.337,2.337,0,0,1,1.1-.266,1.117,1.117,0,0,1,1.26,1.268v2.35H24.17l-.066-.527a1.087,1.087,0,0,1-1.015.6.985.985,0,0,1-1.039-1.03c0-.808.7-1.216,1.549-1.216a2.5,2.5,0,0,1,.5.045v-.274c0-.476-.282-.712-.8-.712a1.872,1.872,0,0,0-.911.266ZM24.1,42.9a1.912,1.912,0,0,0-.438-.045c-.569,0-.956.3-.956.727a.553.553,0,0,0,.578.593A.891.891,0,0,0,24.1,43.2Z" transform="translate(111.048 -246.602)" fill="#1d1e1c"/>
    <rect id="사각형_196" data-name="사각형 196" width="0.608" height="5.449" transform="translate(136.762 -207.475)" fill="#1d1e1c"/>
    <path id="패스_730" data-name="패스 730" d="M30.608,44.892a3.294,3.294,0,0,1-1.506.319,2.391,2.391,0,0,1-2.55-2.632A2.566,2.566,0,0,1,29.274,39.9a2.808,2.808,0,0,1,1.408.3l-.1.845a2.72,2.72,0,0,0-1.311-.31A1.625,1.625,0,0,0,27.606,42.5c0,1.186.659,1.882,1.646,1.882a2.7,2.7,0,0,0,1.283-.325Z" transform="translate(113.324 -247.134)" fill="#1d1e1c"/>
    <path id="패스_731" data-name="패스 731" d="M32.87,42.8a1.657,1.657,0,1,1-1.647-1.846A1.648,1.648,0,0,1,32.87,42.8m-2.624,0c0,.763.333,1.356.977,1.356s.979-.593.979-1.356-.333-1.358-.979-1.358-.977.595-.977,1.358" transform="translate(114.853 -246.601)" fill="#1d1e1c"/>
    <path id="패스_732" data-name="패스 732" d="M32.889,41.7a1.147,1.147,0,0,1,1.1-.741,1.133,1.133,0,0,1,1.179,1.253v2.364h-.608V42.388c0-.5-.23-.9-.786-.9A1.008,1.008,0,0,0,32.9,42.6v1.978H32.3V41.032h.55Z" transform="translate(116.227 -246.601)" fill="#1d1e1c"/>
    <path id="패스_733" data-name="패스 733" d="M37.941,44.227a1.747,1.747,0,0,1-1.927,1.942A1.9,1.9,0,0,1,35,45.887l.036-.548a1.978,1.978,0,0,0,1.024.327c.778,0,1.275-.438,1.275-1.387V43.96a1.21,1.21,0,0,1-1.1.69,1.593,1.593,0,0,1-1.519-1.8,1.7,1.7,0,0,1,1.615-1.889,1.045,1.045,0,0,1,1.024.674l.036-.6h.55Zm-.608-1.579a1.067,1.067,0,0,0-.948-1.179c-.572,0-1,.519-1,1.35,0,.711.34,1.3.979,1.3a1.059,1.059,0,0,0,.971-1.09Z" transform="translate(117.451 -246.601)" fill="#1d1e1c"/>
    <path id="패스_734" data-name="패스 734" d="M38.134,41.56a.807.807,0,0,1,.763-.593,1.66,1.66,0,0,1,.355.038l-.029.548a1.266,1.266,0,0,0-.349-.045c-.437,0-.718.385-.718,1.076V44.57h-.608V41.027H38.1Z" transform="translate(118.882 -246.596)" fill="#1d1e1c"/>
    <path id="패스_735" data-name="패스 735" d="M41.646,44.4a2.3,2.3,0,0,1-1.075.245A1.532,1.532,0,0,1,38.962,42.9c0-1.186.631-1.942,1.587-1.942.92,0,1.3.786,1.3,1.749a1.436,1.436,0,0,1-.03.3H39.6c.038.8.408,1.149,1.12,1.149a1.786,1.786,0,0,0,.9-.259Zm-.416-1.889c0-.578-.208-1.039-.748-1.039-.491,0-.816.416-.867,1.039Z" transform="translate(119.597 -246.601)" fill="#1d1e1c"/>
    <path id="패스_736" data-name="패스 736" d="M41.29,43.975a2.177,2.177,0,0,0,.831.17c.414,0,.748-.193.748-.519,0-.282-.179-.422-.557-.563-.607-.229-.941-.489-.941-1.052,0-.742.608-1.052,1.245-1.052a1.931,1.931,0,0,1,.793.17l-.036.519a1.582,1.582,0,0,0-.786-.185.528.528,0,0,0-.593.482c0,.348.223.5.518.592.674.215.971.512.971,1.046,0,.681-.614,1.067-1.37,1.067a2.281,2.281,0,0,1-.861-.163Z" transform="translate(120.755 -246.601)" fill="#1d1e1c"/>
    <path id="패스_737" data-name="패스 737" d="M43.108,43.975a2.17,2.17,0,0,0,.83.17c.416,0,.75-.193.75-.519,0-.282-.178-.422-.557-.563-.607-.229-.941-.489-.941-1.052,0-.742.608-1.052,1.245-1.052a1.925,1.925,0,0,1,.793.17l-.036.519a1.582,1.582,0,0,0-.786-.185.528.528,0,0,0-.593.482c0,.348.223.5.518.592.674.215.973.512.973,1.046,0,.681-.616,1.067-1.372,1.067a2.275,2.275,0,0,1-.861-.163Z" transform="translate(121.674 -246.601)" fill="#1d1e1c"/>
    <path id="패스_738" data-name="패스 738" d="M49.337,42.8a1.656,1.656,0,1,1-1.646-1.846A1.648,1.648,0,0,1,49.337,42.8m-2.624,0c0,.763.334,1.356.979,1.356s.979-.593.979-1.356-.334-1.358-.979-1.358-.979.595-.979,1.358" transform="translate(123.178 -246.601)" fill="#1d1e1c"/>
    <path id="패스_739" data-name="패스 739" d="M49.358,41.7a1.147,1.147,0,0,1,1.1-.741,1.133,1.133,0,0,1,1.179,1.253v2.364h-.608V42.388c0-.5-.23-.9-.786-.9a1.008,1.008,0,0,0-.867,1.105v1.978h-.608V41.032h.55Z" transform="translate(124.553 -246.601)" fill="#1d1e1c"/>
    <path id="패스_740" data-name="패스 740" d="M57.329,42.557A2.51,2.51,0,1,1,54.822,39.9a2.467,2.467,0,0,1,2.507,2.654m-3.96,0c0,1.105.527,1.823,1.453,1.823s1.453-.718,1.453-1.823-.525-1.823-1.453-1.823-1.453.72-1.453,1.823" transform="translate(126.349 -247.134)" fill="#1d1e1c"/>
    <path id="패스_741" data-name="패스 741" d="M56.758,42.262a1.21,1.21,0,0,1,1.1-.69,1.591,1.591,0,0,1,1.519,1.8,1.7,1.7,0,0,1-1.615,1.891,1.045,1.045,0,0,1-1.024-.674l-.038.6H56.15V39.742h.608Zm0,1.311a1.065,1.065,0,0,0,.948,1.179c.571,0,1-.519,1-1.349,0-.712-.342-1.305-.979-1.305a1.06,1.06,0,0,0-.971,1.09Z" transform="translate(128.286 -247.216)" fill="#1d1e1c"/>
    <path id="패스_742" data-name="패스 742" d="M61.351,44.4a2.3,2.3,0,0,1-1.076.245A1.532,1.532,0,0,1,58.667,42.9c0-1.186.631-1.942,1.587-1.942.918,0,1.3.786,1.3,1.749a1.436,1.436,0,0,1-.03.3H59.305c.036.8.406,1.149,1.119,1.149a1.79,1.79,0,0,0,.9-.259Zm-.416-1.889c0-.578-.208-1.039-.748-1.039-.491,0-.816.416-.869,1.039Z" transform="translate(129.559 -246.601)" fill="#1d1e1c"/>
    <path id="패스_743" data-name="패스 743" d="M60.994,43.975a2.177,2.177,0,0,0,.831.17c.416,0,.748-.193.748-.519,0-.282-.178-.422-.556-.563-.608-.229-.942-.489-.942-1.052,0-.742.608-1.052,1.247-1.052a1.936,1.936,0,0,1,.793.17l-.038.519a1.577,1.577,0,0,0-.786-.185.528.528,0,0,0-.593.482c0,.348.223.5.519.592.673.215.971.512.971,1.046,0,.681-.616,1.067-1.372,1.067a2.267,2.267,0,0,1-.86-.163Z" transform="translate(130.717 -246.601)" fill="#1d1e1c"/>
    <path id="패스_744" data-name="패스 744" d="M63.665,40.523a.378.378,0,1,1-.378-.378.379.379,0,0,1,.378.378m-.682.92h.608v3.543h-.608Z" transform="translate(131.703 -247.012)" fill="#1d1e1c"/>
    <path id="패스_745" data-name="패스 745" d="M65.95,41.34v.474h-.956v2.017c0,.414.215.6.533.6a1.028,1.028,0,0,0,.393-.066l.03.452a1.335,1.335,0,0,1-.556.111.914.914,0,0,1-1.009-1.052V41.814H63.83V41.34h.556v-.935h.608v.935Z" transform="translate(132.169 -246.881)" fill="#1d1e1c"/>
    <path id="패스_746" data-name="패스 746" d="M67.376,44.55a2.438,2.438,0,0,1-1.557,1.594l-.215-.519a1.691,1.691,0,0,0,1.12-1.016l-1.328-3.6h.7l.964,2.964.971-2.964h.661Z" transform="translate(132.96 -246.576)" fill="#1d1e1c"/>
    <path id="패스_747" data-name="패스 747" d="M69.26,41.223a2.337,2.337,0,0,1,1.1-.266,1.117,1.117,0,0,1,1.26,1.268v2.35h-.534l-.066-.527a1.087,1.087,0,0,1-1.016.6.985.985,0,0,1-1.037-1.03c0-.808.7-1.216,1.549-1.216a2.473,2.473,0,0,1,.5.045v-.274c0-.476-.282-.712-.8-.712a1.876,1.876,0,0,0-.911.266ZM71.009,42.9a1.911,1.911,0,0,0-.438-.045c-.571,0-.954.3-.954.727a.552.552,0,0,0,.578.593.891.891,0,0,0,.814-.971Z" transform="translate(134.764 -246.602)" fill="#1d1e1c"/>
    <path id="패스_748" data-name="패스 748" d="M71.989,41.7a1.147,1.147,0,0,1,1.1-.741,1.133,1.133,0,0,1,1.179,1.253v2.364h-.608V42.388c0-.5-.23-.9-.786-.9A1.008,1.008,0,0,0,72,42.6v1.978H71.4V41.032h.548Z" transform="translate(135.993 -246.601)" fill="#1d1e1c"/>
    <path id="패스_749" data-name="패스 749" d="M77.041,45.189h-.55l-.044-.644a1.218,1.218,0,0,1-1.113.72,1.592,1.592,0,0,1-1.519-1.8,1.7,1.7,0,0,1,1.615-1.889,1.041,1.041,0,0,1,1,.622V39.742h.608Zm-.608-1.927a1.067,1.067,0,0,0-.948-1.179c-.572,0-1,.519-1,1.35,0,.711.34,1.3.979,1.3a1.059,1.059,0,0,0,.971-1.09Z" transform="translate(137.217 -247.216)" fill="#1d1e1c"/>
    <path id="패스_750" data-name="패스 750" d="M80.193,43.242a7.073,7.073,0,0,1,.23.948,6.856,6.856,0,0,1,.229-.948l1-3.269H83.04l.1,5.1H82.15l-.03-2.505a18.232,18.232,0,0,1,.089-1.927,12.3,12.3,0,0,1-.459,1.927L80.92,45H79.9l-.852-2.431a11.01,11.01,0,0,1-.438-1.78,15.589,15.589,0,0,1,.089,1.78l-.029,2.505H77.7l.1-5.1h1.387Z" transform="translate(139.182 -247.099)" fill="#1d1e1c"/>
    <path id="패스_751" data-name="패스 751" d="M82.819,40.822v1.253h1.868v.831H82.819v1.326h2.135v.831H81.84V39.992h3.083v.83Z" transform="translate(141.273 -247.089)" fill="#1d1e1c"/>
    <path id="패스_752" data-name="패스 752" d="M86.3,41.34v.474H85.34v2.017c0,.414.215.6.534.6a1.025,1.025,0,0,0,.391-.066l.03.452a1.33,1.33,0,0,1-.556.111.914.914,0,0,1-1.009-1.052V41.814h-.556V41.34h.556v-.935h.608v.935Z" transform="translate(142.454 -246.881)" fill="#1d1e1c"/>
    <path id="패스_753" data-name="패스 753" d="M86.231,41.223a2.337,2.337,0,0,1,1.1-.266,1.117,1.117,0,0,1,1.26,1.268v2.35h-.534l-.066-.527a1.089,1.089,0,0,1-1.016.6.985.985,0,0,1-1.037-1.03c0-.808.7-1.216,1.549-1.216a2.5,2.5,0,0,1,.5.045v-.274c0-.476-.282-.712-.8-.712a1.876,1.876,0,0,0-.911.266ZM87.98,42.9a1.912,1.912,0,0,0-.438-.045c-.571,0-.956.3-.956.727a.553.553,0,0,0,.578.593.891.891,0,0,0,.816-.971Z" transform="translate(143.343 -246.602)" fill="#1d1e1c"/>
    <path id="패스_754" data-name="패스 754" d="M88.975,42.262a1.21,1.21,0,0,1,1.1-.69,1.591,1.591,0,0,1,1.519,1.8,1.7,1.7,0,0,1-1.615,1.891,1.045,1.045,0,0,1-1.024-.674l-.036.6h-.55V39.742h.608Zm0,1.311a1.066,1.066,0,0,0,.948,1.179c.572,0,1-.519,1-1.349,0-.712-.34-1.305-.979-1.305a1.061,1.061,0,0,0-.971,1.09Z" transform="translate(144.573 -247.216)" fill="#1d1e1c"/>
    <path id="패스_755" data-name="패스 755" d="M94.176,42.8a1.656,1.656,0,1,1-1.646-1.846A1.647,1.647,0,0,1,94.176,42.8m-2.624,0c0,.763.334,1.356.979,1.356s.979-.593.979-1.356-.334-1.358-.979-1.358-.979.595-.979,1.358" transform="translate(145.846 -246.601)" fill="#1d1e1c"/>
    <rect id="사각형_197" data-name="사각형 197" width="0.608" height="5.449" transform="translate(240.824 -207.475)" fill="#1d1e1c"/>
    <path id="패스_756" data-name="패스 756" d="M95.4,40.523a.378.378,0,1,1-.378-.378.379.379,0,0,1,.378.378m-.682.92h.608v3.543h-.608Z" transform="translate(147.749 -247.012)" fill="#1d1e1c"/>
    <path id="패스_757" data-name="패스 757" d="M98.288,44.478a2.59,2.59,0,0,1-.933.17,1.624,1.624,0,0,1-1.721-1.8,1.772,1.772,0,0,1,1.825-1.889,2.126,2.126,0,0,1,.867.163l-.053.534a1.627,1.627,0,0,0-.793-.193c-.659,0-1.179.429-1.179,1.341,0,.882.438,1.356,1.186,1.356a1.737,1.737,0,0,0,.75-.178Z" transform="translate(148.247 -246.602)" fill="#1d1e1c"/>
    <path id="패스_758" data-name="패스 758" d="M98.949,44.122a2.619,2.619,0,0,0,1.1.259c.6,0,1-.259,1-.674,0-.4-.3-.637-.882-.824A1.4,1.4,0,0,1,99,41.439c0-1.076.933-1.536,1.92-1.536a2.252,2.252,0,0,1,1.075.245l-.074.882a2.006,2.006,0,0,0-1.016-.3c-.533,0-.875.251-.875.652s.253.644.9.846c.824.259,1.171.733,1.171,1.37,0,1.06-.92,1.609-2.076,1.609a2.932,2.932,0,0,1-1.149-.23Z" transform="translate(149.885 -247.134)" fill="#1d1e1c"/>
    <path id="패스_759" data-name="패스 759" d="M103.235,44.55a2.438,2.438,0,0,1-1.557,1.594l-.215-.519a1.685,1.685,0,0,0,1.119-1.016l-1.326-3.6h.7l.964,2.964.971-2.964h.661Z" transform="translate(151.088 -246.576)" fill="#1d1e1c"/>
    <path id="패스_760" data-name="패스 760" d="M104.4,41.7a1.147,1.147,0,0,1,1.1-.741,1.133,1.133,0,0,1,1.179,1.253v2.364h-.608V42.388c0-.5-.23-.9-.786-.9a1.008,1.008,0,0,0-.867,1.105v1.978H103.8V41.032h.55Z" transform="translate(152.376 -246.601)" fill="#1d1e1c"/>
    <path id="패스_761" data-name="패스 761" d="M109.446,45.189H108.9l-.045-.644a1.218,1.218,0,0,1-1.113.72,1.592,1.592,0,0,1-1.519-1.8,1.7,1.7,0,0,1,1.615-1.889,1.041,1.041,0,0,1,1,.622V39.742h.608Zm-.608-1.927a1.067,1.067,0,0,0-.948-1.179c-.572,0-1,.519-1,1.35,0,.711.34,1.3.979,1.3a1.059,1.059,0,0,0,.971-1.09Z" transform="translate(153.599 -247.216)" fill="#1d1e1c"/>
    <path id="패스_762" data-name="패스 762" d="M109.639,41.56a.807.807,0,0,1,.763-.593,1.674,1.674,0,0,1,.357.038l-.03.548a1.267,1.267,0,0,0-.349-.045c-.437,0-.718.385-.718,1.076V44.57h-.608V41.027h.548Z" transform="translate(155.03 -246.596)" fill="#1d1e1c"/>
    <path id="패스_763" data-name="패스 763" d="M113.758,42.8a1.656,1.656,0,1,1-1.646-1.846,1.647,1.647,0,0,1,1.646,1.846m-2.624,0c0,.763.334,1.356.979,1.356s.979-.593.979-1.356-.333-1.358-.979-1.358-.979.595-.979,1.358" transform="translate(155.745 -246.601)" fill="#1d1e1c"/>
    <path id="패스_764" data-name="패스 764" d="M113.779,41.684a1.062,1.062,0,0,1,1.031-.726.991.991,0,0,1,1.022.748,1.177,1.177,0,0,1,1.09-.748c.748,0,1.1.548,1.1,1.259v2.358h-.608V42.4c0-.527-.185-.9-.7-.9-.452,0-.8.489-.8,1.105v1.978H115.3V42.4c0-.527-.187-.9-.7-.9-.453,0-.8.489-.8,1.105v1.978h-.608V41.032h.55Z" transform="translate(157.12 -246.601)" fill="#1d1e1c"/>
    <path id="패스_765" data-name="패스 765" d="M119.594,44.4a2.291,2.291,0,0,1-1.075.245A1.532,1.532,0,0,1,116.91,42.9c0-1.186.631-1.942,1.587-1.942.92,0,1.3.786,1.3,1.749a1.435,1.435,0,0,1-.03.3h-2.216c.036.8.408,1.149,1.119,1.149a1.786,1.786,0,0,0,.9-.259Zm-.416-1.889c0-.578-.208-1.039-.748-1.039-.489,0-.816.416-.867,1.039Z" transform="translate(159.002 -246.601)" fill="#1d1e1c"/>
    <path id="패스_766" data-name="패스 766" d="M55.894,12.356a7.242,7.242,0,0,1-13.618,0c-8.187,2.568-14.069,9.632-14.069,17.95,0,10.488,9.348,18.989,20.877,18.989s20.877-8.5,20.877-18.989c0-8.318-5.882-15.382-14.068-17.95m-6.81,32.89c-9.044,0-16.376-5.558-16.376-12.416S40.04,20.414,49.084,20.414,65.46,25.972,65.46,32.83,58.128,45.246,49.084,45.246" transform="translate(114.16 -261.06)" fill="#00835a"/>
    <path id="패스_767" data-name="패스 767" d="M43.994,6.913a5.708,5.708,0,1,0,5.718,5.718,5.718,5.718,0,0,0-5.718-5.718" transform="translate(119.25 -263.812)" fill="#00835a"/>
    <path id="패스_768" data-name="패스 768" d="M95.6,12.411H85.9L77.289,38.8,68.677,12.411h-9.7L58.25,48.1h6.745L65.2,30.568c.033-2.26-.035-4.8-.2-7.472L73.6,47.582h7.159l.19-.554-.16.554,8.53-24.263c-.132,2.654-.185,5.22-.155,7.249L89.375,48.1h6.953Z" transform="translate(129.348 -261.032)" fill="#00835a"/>
  </g>
</svg>
