<svg xmlns="http://www.w3.org/2000/svg" xmlns:xlink="http://www.w3.org/1999/xlink" width="187" height="58.991" viewBox="0 0 187 58.991">
  <defs>
    <clipPath id="clip-path">
      <rect id="사각형_562" data-name="사각형 562" width="187" height="58.991" fill="#006"/>
    </clipPath>
  </defs>
  <g id="그룹_532" data-name="그룹 532" transform="translate(0 0)">
    <rect id="사각형_558" data-name="사각형 558" width="7.155" height="37.283" transform="translate(0.008 8.649)" fill="#006"/>
    <g id="그룹_531" data-name="그룹 531" transform="translate(0 0)">
      <g id="그룹_530" data-name="그룹 530" clip-path="url(#clip-path)">
        <path id="패스_1801" data-name="패스 1801" d="M34.038,39.3a23.969,23.969,0,0,1-11,2.331c-10.944,0-18.64-6.611-18.64-19.24C4.4,9.6,13.661,2.83,24.285,2.83,29,2.83,32.357,3.7,34.579,5l-.7,6.179A19.9,19.9,0,0,0,24.285,8.9c-6.558,0-12.194,4.442-12.194,12.9,0,8.672,4.821,13.766,12.029,13.766A19.615,19.615,0,0,0,33.5,33.179Z" transform="translate(7.86 5.062)" fill="#006"/>
        <path id="패스_1802" data-name="패스 1802" d="M56.336,9.249v9.16H69.993v6.068H56.336v9.7H71.942v6.07H49.183V3.179H71.727v6.07Z" transform="translate(87.959 5.686)" fill="#006"/>
        <path id="패스_1803" data-name="패스 1803" d="M59.151,33.666a19.255,19.255,0,0,0,8.022,1.9c4.389,0,7.311-1.9,7.311-4.93,0-2.928-2.22-4.662-6.444-6.017-6.02-1.9-8.513-5.256-8.513-10.568,0-7.858,6.832-11.218,14.037-11.218a16.479,16.479,0,0,1,7.858,1.79l-.541,6.447A14.668,14.668,0,0,0,73.455,8.9c-3.9,0-6.394,1.843-6.394,4.768,0,3.037,1.843,4.715,6.558,6.179,6.015,1.9,8.56,5.365,8.56,10.027,0,7.749-6.72,11.759-15.174,11.759a21.5,21.5,0,0,1-8.4-1.679Z" transform="translate(104.817 5.06)" fill="#006"/>
        <rect id="사각형_559" data-name="사각형 559" width="1.023" height="5.329" transform="translate(0 51.998)" fill="#006"/>
        <path id="패스_1804" data-name="패스 1804" d="M1.336,19.978A1.2,1.2,0,0,1,2.482,19.2a1.185,1.185,0,0,1,1.232,1.311v2.468H3.079V20.7c0-.527-.24-.937-.82-.937a1.054,1.054,0,0,0-.906,1.154v2.066H.717v-3.7h.572Z" transform="translate(1.282 34.343)" fill="#006"/>
        <path id="패스_1805" data-name="패스 1805" d="M4.259,19.868v.5h-1v2.105c0,.435.223.627.558.627a1.085,1.085,0,0,0,.41-.07l.031.474a1.412,1.412,0,0,1-.58.114.956.956,0,0,1-1.054-1.1V20.364h-.58v-.5h.58v-.976h.636v.976Z" transform="translate(3.657 33.787)" fill="#006"/>
        <path id="패스_1806" data-name="패스 1806" d="M5.817,22.8a2.433,2.433,0,0,1-1.124.257,1.6,1.6,0,0,1-1.681-1.829c0-1.238.658-2.027,1.656-2.027.962,0,1.355.82,1.355,1.826a1.4,1.4,0,0,1-.031.318H3.678c.039.837.427,1.2,1.168,1.2a1.838,1.838,0,0,0,.937-.273ZM5.382,20.83c0-.605-.217-1.085-.784-1.085-.51,0-.85.435-.906,1.085Z" transform="translate(5.387 34.345)" fill="#006"/>
        <path id="패스_1807" data-name="패스 1807" d="M5.018,19.828a.843.843,0,0,1,.8-.619,1.646,1.646,0,0,1,.371.039l-.031.572a1.331,1.331,0,0,0-.362-.045c-.457,0-.753.4-.753,1.121v2.075H4.407v-3.7h.572Z" transform="translate(7.881 34.354)" fill="#006"/>
        <path id="패스_1808" data-name="패스 1808" d="M5.915,19.978A1.194,1.194,0,0,1,7.058,19.2a1.184,1.184,0,0,1,1.232,1.311v2.468H7.658V20.7c0-.527-.243-.937-.823-.937a1.054,1.054,0,0,0-.906,1.154v2.066H5.293v-3.7h.572Z" transform="translate(9.466 34.343)" fill="#006"/>
        <path id="패스_1809" data-name="패스 1809" d="M6.992,19.482A2.454,2.454,0,0,1,8.14,19.2a1.168,1.168,0,0,1,1.316,1.324v2.457H8.9l-.07-.552a1.136,1.136,0,0,1-1.062.627,1.028,1.028,0,0,1-1.085-1.076c0-.842.731-1.269,1.62-1.269a2.651,2.651,0,0,1,.519.047v-.287c0-.5-.3-.744-.837-.744a1.952,1.952,0,0,0-.954.279Zm1.829,1.751a2.04,2.04,0,0,0-.457-.047c-.6,0-1,.312-1,.761a.579.579,0,0,0,.605.619.931.931,0,0,0,.85-1.015Z" transform="translate(11.95 34.343)" fill="#006"/>
        <path id="패스_1810" data-name="패스 1810" d="M10.145,19.868v.5h-1v2.105c0,.435.223.627.558.627a1.085,1.085,0,0,0,.41-.07l.031.474a1.412,1.412,0,0,1-.58.114.956.956,0,0,1-1.054-1.1V20.364h-.58v-.5h.58v-.976h.636v.976Z" transform="translate(14.184 33.787)" fill="#006"/>
        <path id="패스_1811" data-name="패스 1811" d="M9.748,19.141a.395.395,0,1,1-.4-.4.4.4,0,0,1,.4.4m-.714.959H9.67v3.7H9.034Z" transform="translate(16.022 33.524)" fill="#006"/>
        <path id="패스_1812" data-name="패스 1812" d="M12.952,21.133a1.73,1.73,0,1,1-3.438,0,1.731,1.731,0,1,1,3.438,0m-2.741,0c0,.8.349,1.416,1.023,1.416s1.021-.619,1.021-1.416-.349-1.419-1.021-1.419-1.023.622-1.023,1.419" transform="translate(17.015 34.343)" fill="#006"/>
        <path id="패스_1813" data-name="패스 1813" d="M11.667,19.978a1.2,1.2,0,0,1,1.146-.775,1.185,1.185,0,0,1,1.232,1.311v2.468H13.41V20.7c0-.527-.24-.937-.82-.937a1.054,1.054,0,0,0-.906,1.154v2.066h-.636v-3.7h.572Z" transform="translate(19.758 34.343)" fill="#006"/>
        <path id="패스_1814" data-name="패스 1814" d="M12.747,19.482A2.454,2.454,0,0,1,13.9,19.2a1.168,1.168,0,0,1,1.316,1.324v2.457h-.558l-.07-.552a1.136,1.136,0,0,1-1.062.627,1.028,1.028,0,0,1-1.085-1.076c0-.842.731-1.269,1.62-1.269a2.651,2.651,0,0,1,.519.047v-.287c0-.5-.3-.744-.837-.744a1.952,1.952,0,0,0-.954.279Zm1.829,1.751a2.04,2.04,0,0,0-.457-.047c-.6,0-1,.312-1,.761a.578.578,0,0,0,.6.619.932.932,0,0,0,.853-1.015Z" transform="translate(22.242 34.343)" fill="#006"/>
        <rect id="사각형_560" data-name="사각형 560" width="0.636" height="5.691" transform="translate(38.508 51.635)" fill="#006"/>
        <path id="패스_1815" data-name="패스 1815" d="M19.214,23.82a3.44,3.44,0,0,1-1.573.332,2.5,2.5,0,0,1-2.663-2.747,2.68,2.68,0,0,1,2.841-2.8,2.924,2.924,0,0,1,1.472.31l-.1.884a2.832,2.832,0,0,0-1.372-.326,1.7,1.7,0,0,0-1.743,1.843c0,1.238.689,1.966,1.72,1.966a2.777,2.777,0,0,0,1.338-.34Z" transform="translate(26.786 33.281)" fill="#006"/>
        <path id="패스_1816" data-name="패스 1816" d="M20.121,21.133a1.73,1.73,0,1,1-3.438,0,1.731,1.731,0,1,1,3.438,0m-2.741,0c0,.8.349,1.416,1.023,1.416s1.021-.619,1.021-1.416-.349-1.419-1.021-1.419-1.023.622-1.023,1.419" transform="translate(29.836 34.343)" fill="#006"/>
        <path id="패스_1817" data-name="패스 1817" d="M18.836,19.978a1.2,1.2,0,0,1,1.146-.775,1.185,1.185,0,0,1,1.232,1.311v2.468h-.636V20.7c0-.527-.24-.937-.82-.937a1.054,1.054,0,0,0-.906,1.154v2.066h-.636v-3.7h.572Z" transform="translate(32.579 34.343)" fill="#006"/>
        <path id="패스_1818" data-name="패스 1818" d="M22.95,22.619a1.823,1.823,0,0,1-2.013,2.027,1.988,1.988,0,0,1-1.062-.293l.039-.574a2.068,2.068,0,0,0,1.068.343c.814,0,1.333-.457,1.333-1.45V22.34a1.268,1.268,0,0,1-1.146.719,1.662,1.662,0,0,1-1.587-1.882A1.773,1.773,0,0,1,21.269,19.2a1.087,1.087,0,0,1,1.068.705l.039-.627h.574Zm-.636-1.651a1.113,1.113,0,0,0-.993-1.23c-.594,0-1.043.541-1.043,1.408,0,.744.354,1.364,1.021,1.364a1.105,1.105,0,0,0,1.015-1.138Z" transform="translate(35.02 34.343)" fill="#006"/>
        <path id="패스_1819" data-name="패스 1819" d="M21.791,19.828a.843.843,0,0,1,.8-.619,1.646,1.646,0,0,1,.371.039l-.031.572a1.331,1.331,0,0,0-.362-.045c-.457,0-.753.4-.753,1.121v2.075H21.18v-3.7h.572Z" transform="translate(37.878 34.354)" fill="#006"/>
        <path id="패스_1820" data-name="패스 1820" d="M24.782,22.8a2.441,2.441,0,0,1-1.124.257,1.6,1.6,0,0,1-1.681-1.829c0-1.238.658-2.027,1.656-2.027.962,0,1.355.82,1.355,1.826a1.4,1.4,0,0,1-.031.318H22.643c.039.837.427,1.2,1.168,1.2a1.838,1.838,0,0,0,.937-.273Zm-.435-1.974c0-.605-.217-1.085-.784-1.085-.51,0-.85.435-.906,1.085Z" transform="translate(39.303 34.345)" fill="#006"/>
        <path id="패스_1821" data-name="패스 1821" d="M23.308,22.357a2.262,2.262,0,0,0,.867.178c.435,0,.784-.2.784-.544,0-.293-.187-.441-.583-.588-.633-.24-.982-.51-.982-1.1,0-.775.633-1.1,1.3-1.1a2.009,2.009,0,0,1,.828.178l-.039.544a1.624,1.624,0,0,0-.82-.2.551.551,0,0,0-.619.5c0,.362.231.519.541.619.705.223,1.015.535,1.015,1.093,0,.711-.641,1.115-1.433,1.115a2.391,2.391,0,0,1-.9-.17Z" transform="translate(41.614 34.343)" fill="#006"/>
        <path id="패스_1822" data-name="패스 1822" d="M24.333,22.357a2.262,2.262,0,0,0,.867.178c.435,0,.784-.2.784-.544,0-.293-.187-.441-.583-.588-.636-.24-.982-.51-.982-1.1,0-.775.633-1.1,1.3-1.1a2.009,2.009,0,0,1,.828.178l-.039.544a1.632,1.632,0,0,0-.82-.2.551.551,0,0,0-.619.5c0,.362.231.519.541.619.705.223,1.015.535,1.015,1.093,0,.711-.641,1.115-1.433,1.115a2.391,2.391,0,0,1-.9-.17Z" transform="translate(43.447 34.343)" fill="#006"/>
        <path id="패스_1823" data-name="패스 1823" d="M29.411,21.133a1.73,1.73,0,1,1-3.438,0,1.731,1.731,0,1,1,3.438,0m-2.741,0c0,.8.349,1.416,1.021,1.416s1.023-.619,1.023-1.416-.349-1.419-1.023-1.419-1.021.622-1.021,1.419" transform="translate(46.45 34.343)" fill="#006"/>
        <path id="패스_1824" data-name="패스 1824" d="M28.126,19.978a1.233,1.233,0,0,1,2.376.535v2.468h-.633V20.7c0-.527-.243-.937-.823-.937a1.056,1.056,0,0,0-.906,1.154v2.066h-.633v-3.7h.572Z" transform="translate(49.193 34.343)" fill="#006"/>
        <path id="패스_1825" data-name="패스 1825" d="M34.744,21.381a2.621,2.621,0,1,1-5.234,0,2.621,2.621,0,1,1,5.234,0m-4.135,0c0,1.154.549,1.9,1.517,1.9s1.52-.75,1.52-1.9-.549-1.9-1.52-1.9-1.517.75-1.517,1.9" transform="translate(52.775 33.281)" fill="#006"/>
        <path id="패스_1826" data-name="패스 1826" d="M32.308,21.152a1.262,1.262,0,0,1,1.146-.722,1.662,1.662,0,0,1,1.587,1.882,1.772,1.772,0,0,1-1.687,1.974,1.088,1.088,0,0,1-1.068-.7l-.039.625h-.574V18.517h.636Zm0,1.369a1.111,1.111,0,0,0,.99,1.23c.6,0,1.046-.541,1.046-1.408,0-.742-.354-1.364-1.021-1.364a1.106,1.106,0,0,0-1.015,1.14Z" transform="translate(56.642 33.116)" fill="#006"/>
        <path id="패스_1827" data-name="패스 1827" d="M35.9,22.8a2.433,2.433,0,0,1-1.124.257,1.6,1.6,0,0,1-1.681-1.829c0-1.238.658-2.027,1.656-2.027.962,0,1.355.82,1.355,1.826a1.4,1.4,0,0,1-.031.318H33.758c.039.837.427,1.2,1.168,1.2a1.838,1.838,0,0,0,.937-.273Zm-.435-1.974c0-.605-.217-1.085-.784-1.085-.51,0-.85.435-.906,1.085Z" transform="translate(59.181 34.345)" fill="#006"/>
        <path id="패스_1828" data-name="패스 1828" d="M34.423,22.357a2.262,2.262,0,0,0,.867.178c.435,0,.784-.2.784-.544,0-.293-.187-.441-.583-.588-.633-.24-.982-.51-.982-1.1,0-.775.633-1.1,1.3-1.1a2.033,2.033,0,0,1,.831.178l-.039.544a1.643,1.643,0,0,0-.823-.2.551.551,0,0,0-.619.5c0,.362.231.519.541.619.705.223,1.015.535,1.015,1.093,0,.711-.641,1.115-1.433,1.115a2.391,2.391,0,0,1-.9-.17Z" transform="translate(61.492 34.343)" fill="#006"/>
        <path id="패스_1829" data-name="패스 1829" d="M36.276,19.141a.4.4,0,1,1-.4-.4.4.4,0,0,1,.4.4m-.714.959H36.2v3.7h-.636Z" transform="translate(63.459 33.524)" fill="#006"/>
        <path id="패스_1830" data-name="패스 1830" d="M38.218,19.868v.5h-1v2.105c0,.435.223.627.558.627a1.085,1.085,0,0,0,.41-.07l.031.474a1.412,1.412,0,0,1-.58.114.955.955,0,0,1-1.054-1.1V20.364H36v-.5h.58v-.976h.636v.976Z" transform="translate(64.389 33.787)" fill="#006"/>
        <path id="패스_1831" data-name="패스 1831" d="M38.956,22.932A2.549,2.549,0,0,1,37.33,24.6l-.226-.541a1.771,1.771,0,0,0,1.171-1.062l-1.389-3.762h.728l1.009,3.1,1.012-3.1h.692Z" transform="translate(65.968 34.395)" fill="#006"/>
        <path id="패스_1832" data-name="패스 1832" d="M39.207,19.482a2.454,2.454,0,0,1,1.149-.279,1.168,1.168,0,0,1,1.316,1.324v2.457h-.558l-.07-.552a1.136,1.136,0,0,1-1.062.627A1.025,1.025,0,0,1,38.9,21.983c0-.842.728-1.269,1.617-1.269a2.651,2.651,0,0,1,.519.047v-.287c0-.5-.3-.744-.837-.744a1.943,1.943,0,0,0-.951.279Zm1.829,1.751a2.04,2.04,0,0,0-.457-.047c-.6,0-1,.312-1,.761a.579.579,0,0,0,.605.619.931.931,0,0,0,.85-1.015Z" transform="translate(69.568 34.343)" fill="#006"/>
        <path id="패스_1833" data-name="패스 1833" d="M40.891,19.978a1.2,1.2,0,0,1,1.146-.775,1.185,1.185,0,0,1,1.232,1.311v2.468h-.636V20.7c0-.527-.24-.937-.82-.937a1.054,1.054,0,0,0-.906,1.154v2.066h-.636v-3.7h.572Z" transform="translate(72.022 34.343)" fill="#006"/>
        <path id="패스_1834" data-name="패스 1834" d="M45.007,24.208h-.574l-.045-.672a1.273,1.273,0,0,1-1.163.75A1.664,1.664,0,0,1,41.636,22.4a1.775,1.775,0,0,1,1.69-1.974,1.086,1.086,0,0,1,1.046.65V18.517h.636Zm-.636-2.013a1.113,1.113,0,0,0-.993-1.23c-.594,0-1.043.541-1.043,1.408,0,.744.354,1.364,1.021,1.364A1.105,1.105,0,0,0,44.371,22.6Z" transform="translate(74.461 33.116)" fill="#006"/>
        <path id="패스_1835" data-name="패스 1835" d="M46.431,22.064a7.211,7.211,0,0,1,.24.993,7.211,7.211,0,0,1,.24-.993l1.046-3.416h1.45l.106,5.329H48.474l-.031-2.618a18.8,18.8,0,0,1,.092-2.013,12.507,12.507,0,0,1-.48,2.013l-.867,2.54H46.121l-.892-2.54a11.573,11.573,0,0,1-.455-1.857,16.028,16.028,0,0,1,.092,1.857l-.031,2.618H43.829l.109-5.329h1.447Z" transform="translate(78.383 33.351)" fill="#006"/>
        <path id="패스_1836" data-name="패스 1836" d="M47.184,19.526v1.308h1.952v.87H47.184V23.09h2.231v.867H46.163v-5.3h3.221v.867Z" transform="translate(82.558 33.37)" fill="#006"/>
        <path id="패스_1837" data-name="패스 1837" d="M49.694,19.868v.5h-1v2.105c0,.435.223.627.558.627a1.085,1.085,0,0,0,.41-.07l.031.474a1.412,1.412,0,0,1-.58.114.956.956,0,0,1-1.054-1.1V20.364h-.58v-.5h.58v-.976H48.7v.976Z" transform="translate(84.912 33.787)" fill="#006"/>
        <path id="패스_1838" data-name="패스 1838" d="M48.782,19.482A2.446,2.446,0,0,1,49.93,19.2a1.168,1.168,0,0,1,1.316,1.324v2.457h-.558l-.07-.552a1.136,1.136,0,0,1-1.062.627,1.028,1.028,0,0,1-1.085-1.076c0-.842.731-1.269,1.62-1.269a2.651,2.651,0,0,1,.519.047v-.287c0-.5-.3-.744-.837-.744a1.961,1.961,0,0,0-.954.279Zm1.829,1.751a2.04,2.04,0,0,0-.457-.047c-.6,0-1,.312-1,.761a.579.579,0,0,0,.605.619.931.931,0,0,0,.85-1.015Z" transform="translate(86.686 34.343)" fill="#006"/>
        <path id="패스_1839" data-name="패스 1839" d="M50.48,21.152a1.265,1.265,0,0,1,1.146-.722,1.664,1.664,0,0,1,1.589,1.882,1.774,1.774,0,0,1-1.69,1.974,1.088,1.088,0,0,1-1.068-.7l-.039.625h-.574V18.517h.636Zm0,1.369a1.113,1.113,0,0,0,.993,1.23c.594,0,1.043-.541,1.043-1.408,0-.742-.354-1.364-1.021-1.364a1.108,1.108,0,0,0-1.015,1.14Z" transform="translate(89.14 33.116)" fill="#006"/>
        <path id="패스_1840" data-name="패스 1840" d="M54.7,21.133a1.73,1.73,0,1,1-3.438,0,1.731,1.731,0,1,1,3.438,0m-2.741,0c0,.8.349,1.416,1.023,1.416s1.021-.619,1.021-1.416-.349-1.419-1.021-1.419-1.023.622-1.023,1.419" transform="translate(91.681 34.343)" fill="#006"/>
        <rect id="사각형_561" data-name="사각형 561" width="0.636" height="5.691" transform="translate(147.224 51.635)" fill="#006"/>
        <path id="패스_1841" data-name="패스 1841" d="M54.177,19.141a.395.395,0,1,1-.4-.4.4.4,0,0,1,.4.4m-.714.959H54.1v3.7h-.636Z" transform="translate(95.478 33.524)" fill="#006"/>
        <path id="패스_1842" data-name="패스 1842" d="M56.717,22.882a2.751,2.751,0,0,1-.979.178,1.7,1.7,0,0,1-1.8-1.882,1.85,1.85,0,0,1,1.9-1.974,2.2,2.2,0,0,1,.906.17l-.053.558a1.7,1.7,0,0,0-.831-.2c-.689,0-1.23.452-1.23,1.4,0,.923.455,1.419,1.238,1.419a1.85,1.85,0,0,0,.784-.187Z" transform="translate(96.471 34.345)" fill="#006"/>
        <path id="패스_1843" data-name="패스 1843" d="M55.849,23.015a2.749,2.749,0,0,0,1.146.27c.627,0,1.046-.27,1.046-.705,0-.418-.318-.666-.92-.859A1.463,1.463,0,0,1,55.9,20.212c0-1.124.979-1.6,2.008-1.6a2.364,2.364,0,0,1,1.124.254l-.078.923a2.089,2.089,0,0,0-1.062-.31c-.558,0-.912.262-.912.68s.262.675.937.884c.859.27,1.221.767,1.221,1.43,0,1.11-.959,1.681-2.167,1.681a3.052,3.052,0,0,1-1.2-.24Z" transform="translate(99.74 33.281)" fill="#006"/>
        <path id="패스_1844" data-name="패스 1844" d="M59.182,22.932A2.549,2.549,0,0,1,57.556,24.6l-.226-.541A1.76,1.76,0,0,0,58.5,22.994l-1.386-3.762h.728l1.009,3.1,1.012-3.1h.692Z" transform="translate(102.14 34.395)" fill="#006"/>
        <path id="패스_1845" data-name="패스 1845" d="M59.169,19.978a1.2,1.2,0,0,1,1.146-.775,1.185,1.185,0,0,1,1.232,1.311v2.468h-.636V20.7c0-.527-.24-.937-.82-.937a1.054,1.054,0,0,0-.906,1.154v2.066H58.55v-3.7h.572Z" transform="translate(104.71 34.343)" fill="#006"/>
        <path id="패스_1846" data-name="패스 1846" d="M63.283,24.208h-.574l-.045-.672a1.273,1.273,0,0,1-1.163.75A1.662,1.662,0,0,1,59.915,22.4,1.773,1.773,0,0,1,61.6,20.43a1.086,1.086,0,0,1,1.046.65V18.517h.636Zm-.636-2.013a1.111,1.111,0,0,0-.99-1.23c-.6,0-1.046.541-1.046,1.408,0,.744.354,1.364,1.021,1.364A1.105,1.105,0,0,0,62.648,22.6Z" transform="translate(107.151 33.116)" fill="#006"/>
        <path id="패스_1847" data-name="패스 1847" d="M62.124,19.828a.843.843,0,0,1,.8-.619,1.672,1.672,0,0,1,.374.039l-.033.572a1.331,1.331,0,0,0-.363-.045c-.457,0-.753.4-.753,1.121v2.075h-.633v-3.7h.572Z" transform="translate(110.009 34.354)" fill="#006"/>
        <path id="패스_1848" data-name="패스 1848" d="M65.748,21.133a1.73,1.73,0,1,1-3.438,0,1.731,1.731,0,1,1,3.438,0m-2.741,0c0,.8.349,1.416,1.023,1.416s1.021-.619,1.021-1.416-.349-1.419-1.021-1.419-1.023.622-1.023,1.419" transform="translate(111.434 34.343)" fill="#006"/>
        <path id="패스_1849" data-name="패스 1849" d="M64.463,19.961a1.111,1.111,0,0,1,1.076-.758,1.036,1.036,0,0,1,1.068.781,1.236,1.236,0,0,1,1.14-.781c.781,0,1.146.574,1.146,1.316v2.462h-.636V20.706c0-.552-.192-.945-.736-.945-.471,0-.837.51-.837,1.154v2.066H66.05V20.706c0-.552-.192-.945-.733-.945-.474,0-.839.51-.839,1.154v2.066h-.633v-3.7h.572Z" transform="translate(114.177 34.343)" fill="#006"/>
        <path id="패스_1850" data-name="패스 1850" d="M68.752,22.8a2.441,2.441,0,0,1-1.124.257,1.6,1.6,0,0,1-1.684-1.829c0-1.238.658-2.027,1.659-2.027.959,0,1.355.82,1.355,1.826a1.4,1.4,0,0,1-.033.318H66.613c.039.837.427,1.2,1.168,1.2a1.854,1.854,0,0,0,.937-.273Zm-.435-1.974c0-.605-.22-1.085-.784-1.085-.513,0-.853.435-.906,1.085Z" transform="translate(117.933 34.345)" fill="#006"/>
        <path id="패스_1851" data-name="패스 1851" d="M44.834,3.071a7.566,7.566,0,0,1-14.226,0c-8.552,2.682-14.7,10.06-14.7,18.752,0,10.956,9.765,19.837,21.811,19.837s21.811-8.881,21.811-19.837c0-8.691-6.146-16.069-14.7-18.752M37.721,37.429c-9.447,0-17.107-5.808-17.107-12.972s7.66-12.969,17.107-12.969,17.11,5.805,17.11,12.969-7.662,12.972-17.11,12.972" transform="translate(28.453 5.493)" fill="#006"/>
        <path id="패스_1852" data-name="패스 1852" d="M27.563,0a5.965,5.965,0,1,0,5.973,5.973A5.973,5.973,0,0,0,27.563,0" transform="translate(38.611 0.001)" fill="#006"/>
        <path id="패스_1853" data-name="패스 1853" d="M71.877,3.1H61.744l-9,27.569L43.75,3.1H33.617l-.761,37.286H39.9l.217-18.32c.033-2.359-.039-5.014-.215-7.8L48.9,39.843h7.478l.2-.58-.165.58,8.912-25.349c-.139,2.774-.2,5.454-.165,7.573l.218,18.32h7.261Z" transform="translate(58.759 5.547)" fill="#006"/>
      </g>
    </g>
  </g>
</svg>
