<svg id="그룹_197" data-name="그룹 197" xmlns="http://www.w3.org/2000/svg" xmlns:xlink="http://www.w3.org/1999/xlink" width="289.663" height="148.577" viewBox="0 0 289.663 148.577">
  <defs>
    <clipPath id="clip-path">
      <rect id="사각형_291" data-name="사각형 291" width="289.663" height="148.577" fill="#fff"/>
    </clipPath>
  </defs>
  <g id="그룹_196" data-name="그룹 196" transform="translate(0 0)" clip-path="url(#clip-path)">
    <path id="패스_1473" data-name="패스 1473" d="M197.577,34.727a3.12,3.12,0,0,0,2.1,2.053,9.759,9.759,0,0,1,2.1,1.271,16.474,16.474,0,0,0,2.272,1.345c1.451.592,2.714,1.659,4.3,1.9a2.234,2.234,0,0,1,.67.348q2.3,1.321,4.588,2.646a4.811,4.811,0,0,0,.5.276c1.855.777,3.7,1.582,5.57,2.308a26.408,26.408,0,0,0,3.566,1.132,10.623,10.623,0,0,0,2.422.138c1.189,0,2.338-.087,3.337.906a2.965,2.965,0,0,0,1.745.57c1.034.1,2,.226,2.544,1.331a.526.526,0,0,0,.261.272c1.429.406,2.4,1.663,3.711,2.247a2.812,2.812,0,0,1,1.751,2.124c.042.192.079.387.147.717-.315.526-.677,1.13-1.036,1.727-1.084.193-2.118.414-3.159.555A3.5,3.5,0,0,1,232,57.742c-.443.192-.572.868-1.24.731a11.422,11.422,0,0,0-1.843-.019c-.863-.031-1.763.065-2.352-.867a.885.885,0,0,0-.618-.388,15.952,15.952,0,0,1-2.721-.529,5.924,5.924,0,0,1-2.747-1.045,12.594,12.594,0,0,0-2.365-1.164c-1.192-.558-2.4-1.068-3.619-1.562a22.886,22.886,0,0,1-4.56-2.245,36,36,0,0,0-4.732-2.8c-.808-.4-1.158-1.39-2.081-1.528a1.8,1.8,0,0,0-1.58-.888c-.259-.018-.686-.27-.725-.48-.114-.636-.548-.7-.966-.729a7.27,7.27,0,0,1-3.727-1.572,3.91,3.91,0,0,0-3.388-.636,6.335,6.335,0,0,1-4.369-.427,1.925,1.925,0,0,1-.782-.481c-1.032-1.147-2.074-2.289-3.03-3.5a6.228,6.228,0,0,0-2.523-2.254,1.424,1.424,0,0,1-.823-1.021c-.211-.759-.414-1.521-.618-2.283a3.271,3.271,0,0,0-.312-1.118c-.632-.8-.953-1.532-.2-2.463a1.6,1.6,0,0,0,.112-.959,3.511,3.511,0,0,1,.768-2.769,1.406,1.406,0,0,0,.231-.534.773.773,0,0,0-.5-.931c-1.052-.107-2.14-.272-3,.615a3.8,3.8,0,0,0-.73,1.127,1.838,1.838,0,0,1-1.064,1.048A10.874,10.874,0,0,0,172.431,28a1.59,1.59,0,0,1-1.618.208,6.664,6.664,0,0,0-3.869.055,12.883,12.883,0,0,1-2.411.265c-1.058.062-2.125,0-3.174.125-.924.1-1.782.254-1.969-1.143-.926,1.007-.926,1.055-1.837,1.031a17.368,17.368,0,0,0-3.718.4c-.73.139-1.48.175-2.219.254-1.8.192-3.6.375-5.392.578a13.522,13.522,0,0,1-1.474.244,22.028,22.028,0,0,0-5.379.529,25.576,25.576,0,0,1-3.712.282,7.568,7.568,0,0,0-1.816.366,7.03,7.03,0,0,1-2.764.34c-1.052-.058-2.111,0-3.165.045-1.99.088-3.994-.232-5.977.205-.184.041-.424-.19-.636-.3-.053-.028-.108-.13-.138-.119-1.08.4-2.154-.439-3.257.012a2.715,2.715,0,0,1-1.466.116,16.41,16.41,0,0,0-5.754-.106,3.336,3.336,0,0,1-.736,0c-1.118-.062-2.239-.224-3.353-.179a23.258,23.258,0,0,1-5.006-.547c-.551-.1-1.1-.183-1.659-.237a56.374,56.374,0,0,1-7.76-1.1c-1.4-.336-2.8-.623-4.191-.993s-2.752-.81-4.122-1.233a.92.92,0,0,1-.475-.3c-.552-.805-1.413-.748-2.212-.895-.729-.821-1.467-1.622-2.173-2.456a22.046,22.046,0,0,1-2.447-5.727,2.053,2.053,0,0,1,.16-1.128,5.719,5.719,0,0,1,1.046-1.378,1.453,1.453,0,0,1,2.429.1,2.609,2.609,0,0,0,1.086.7,26.135,26.135,0,0,0,2.463.914c2.9.773,5.785,1.637,8.723,2.186a27.806,27.806,0,0,0,6.839.875,25.96,25.96,0,0,1,3.707.408,73.915,73.915,0,0,0,9.093.72c3.306-.123,6.618-.038,9.928-.02.618,0,1.236.117,1.855.175a3.207,3.207,0,0,0,.732.046c2.278-.31,4.551-.66,6.831-.949,1.977-.251,3.962-.432,5.939-.659.62-.072,1.233-.191,1.85-.294a3.6,3.6,0,0,1,2.03.028,2.429,2.429,0,0,0,2.151-.288A9.022,9.022,0,0,1,145.7,18.3c3.352-.711,6.723-1.322,10.073-2.043a8.784,8.784,0,0,0,3.379-1.052,1.919,1.919,0,0,1,.887-.295c1.81-.177,3.194-1.289,4.714-2.2a6.391,6.391,0,0,1,4.094-.81c.5.5.992.362,1.525.021.64-.41.656-.384,1.819-.371l-1.209.761c-.026.542.242.737.561.776a4.652,4.652,0,0,0,2.394-.117,1.311,1.311,0,0,1,1.905.626,3.3,3.3,0,0,0,2.382,1.727c.724.144,1.405.518,2.127.7a1.284,1.284,0,0,0,1.7-.808,5.458,5.458,0,0,0,.367-.908c.795-2.435,1.461-4.929,2.42-7.288A22.228,22.228,0,0,1,187.3,3.051a15.706,15.706,0,0,1,1.525-1.743,4.412,4.412,0,0,1,.849-.773c1.487-.92,2.017-.7,2.6,1.026a3.428,3.428,0,0,0,.237.753,11.125,11.125,0,0,1,1.276,7.457c-.321,2.5-.18,5.016-.539,7.519a20,20,0,0,0,.114,6.341,17.7,17.7,0,0,1,.137,2.975,3.317,3.317,0,0,0,.666,2.207,5.141,5.141,0,0,1,1.12,3.3,2.135,2.135,0,0,0,1.48,2.253c.292.111.568.27.856.412a3.553,3.553,0,0,0-.287.445c-.026.061.06.178.093.27.066-.077.18-.147.189-.231a2.906,2.906,0,0,0-.033-.533m31.6,22.64a1.694,1.694,0,0,0-.45-.225c-.053-.011-.14.179-.213.278a2.715,2.715,0,0,0,.409.3c.022.012.137-.185.255-.35m2.112-.486-.067-.145-.073.143Zm-.719-.073-.138-.014.055.15ZM130.438,21.245l-.084.134.136.02Zm39.313-5.005.08-.123-.129-.02Z" transform="translate(13.709 0)" fill="#fff"/>
    <path id="패스_1474" data-name="패스 1474" d="M80.284,41.861a7.01,7.01,0,0,1-3.566-1.044c-.782-.492-1.694-.777-2.481-1.325a3.906,3.906,0,0,0-1.232-.433c-.238-.065-.52.012-.74-.083-2.39-1.016-4.69-.242-6.917.549a10.083,10.083,0,0,0-3.343,2.114,36.108,36.108,0,0,1-4.435,3.271,17.784,17.784,0,0,1-3.432,1.509c-1.156.465-2.324.894-3.493,1.318a6.182,6.182,0,0,0-2.565,1.575,4.545,4.545,0,0,1-1.258.841,6.488,6.488,0,0,0-2.733,2.627,7.961,7.961,0,0,1-.677.948,2.931,2.931,0,0,0-.653,1.821,7.959,7.959,0,0,1-1,4.372,2.03,2.03,0,0,0-.111.959c-.008.8.08,1.6,0,2.387a17.981,17.981,0,0,1-.508,2.286,1.909,1.909,0,0,1-.209.534c-.435.722-.876,1.441-1.335,2.146a.935.935,0,0,1-1.3.448,10.419,10.419,0,0,1-1.5-.784c-.424-.254-.811-.581-1.236-.836-.355-.213-.74-.368-1.082-.533.113-.8.765-.475,1.036-.792a.7.7,0,0,0,.159-.511c-.034-.157-.212-.381-.343-.394a7.7,7.7,0,0,0-1.179.044c-.215-.434-.441-.894-.689-1.4l-1.295-.512c-.078-.192-.191-.331-.164-.424a4.706,4.706,0,0,0-.493-3.342c-.164-.363-.389-.645-.285-1.08a21.515,21.515,0,0,1,.9-3.634,10.089,10.089,0,0,1,1.892-2.4c.552-.624,1.165-1.186,1.76-1.765a5.579,5.579,0,0,1,.718-.61c.677-.463,1.381-.884,2.049-1.361a13.318,13.318,0,0,1,2.563-1.607,2.82,2.82,0,0,0,1.242-.84,4.549,4.549,0,0,1,2.283-1.6c1.4-.549,2.715-1.317,4.084-1.953,1.711-.794,3.421-1.6,5.163-2.3a30.929,30.929,0,0,0,4.853-2.5,22.893,22.893,0,0,0,2.644-1.8,9.615,9.615,0,0,1,2.53-1.223c1.214-.508,2.444-.976,3.672-1.448.586-.226,1.2-.374,1.769-.641a4.817,4.817,0,0,0,2.575-2.95,19.5,19.5,0,0,0,.873-5.055,22.262,22.262,0,0,0-.386-4.134,11.583,11.583,0,0,1-.19-1.168c-.015-2.379-.343-4.732-.506-7.1a40.586,40.586,0,0,1,.164-4.958c.033-.611.22-1.243.841-1.426a1.635,1.635,0,0,1,1.874.56,10.566,10.566,0,0,1,1.883,3.173,7.949,7.949,0,0,0,1.2,2.674,10.7,10.7,0,0,1,1.227,3.509c.465,1.646.756,3.346,1.141,5.018.118.514.317,1.006.455,1.515.172.632.316,1.271.476,1.905a14.837,14.837,0,0,0,.4,1.52,11.2,11.2,0,0,1,.421,2.905c.108,1.137-.111,2.309.433,3.431a3.478,3.478,0,0,1,.034,1.94,3.458,3.458,0,0,0-.022,1.742c.481,1.533-.13,3.007-.316,4.5a1.326,1.326,0,0,1-.417.641c-.4.413-.828.794-1.235,1.178" transform="translate(5.589 0.996)" fill="#fff"/>
    <path id="패스_1475" data-name="패스 1475" d="M158.052,28.8a17.257,17.257,0,0,1,3.306,3.616,11.238,11.238,0,0,1,.657,2.249,73.572,73.572,0,0,1,2.509,9.32c.224,1.028.572,2.026.805,3.052a14.619,14.619,0,0,0,2.084,5.005,10.2,10.2,0,0,1,1.38,3.441,3.243,3.243,0,0,1-.054.953c-.041.456-.088.911-.134,1.38l.975.766a7.013,7.013,0,0,0,.369,4.986,7.138,7.138,0,0,1,.4,3.3c-.152,1.36-.572,1.961-1.75,1.709a14.453,14.453,0,0,0-4.6.015c-1.512.154-1.937-.239-2.474-1.759a3.831,3.831,0,0,1-.34-.907,2,2,0,0,0-.842-1.466,5.966,5.966,0,0,1-2.226-4.8,21.053,21.053,0,0,0-.371-2.744,6.566,6.566,0,0,1-.131-.974,34.254,34.254,0,0,0-.926-7.22,6.363,6.363,0,0,1-.211-1.163,40.177,40.177,0,0,0-.738-6.072c-.248-1.494-.358-3.008-.6-4.508-.191-1.207-.179-2.486-.3-3.73a4.387,4.387,0,0,1,.116-1.378c.446-1.954.358-2.688,3.1-3.073m5.188,20.09-.221.216c.073.08.142.219.221.225s.15-.136.225-.211l-.225-.23" transform="translate(27.73 5.158)" fill="#fff"/>
    <path id="패스_1476" data-name="패스 1476" d="M147.049,69.764c-.5.256-1,.528-1.51.762a1.932,1.932,0,0,1-2.668-.6,3.06,3.06,0,0,1-.363-.455,1.281,1.281,0,0,0-1.428-.723c-1.755.43-2.642-.369-3.166-2.112a10.281,10.281,0,0,1-.684-3.263c.032-1.194.015-2.39-.012-3.584a7.452,7.452,0,0,0-.169-1.767c-.266-.987.343-1.918.014-2.932a5.852,5.852,0,0,1-.376-2.728c.387-2.035-.12-4.125.465-6.124a.793.793,0,0,0-.019-.579c-.8-1.092-.249-2.428-.6-3.6a12.976,12.976,0,0,1-.081-2.353c-.21-1.848.255-3.68-.029-5.521a3.773,3.773,0,0,1,.146-1.568c.283-.967.647-1.895,1.861-1.892.291,0,.577-.244.876-.322a.928.928,0,0,1,1.006.333,13.185,13.185,0,0,1,3.192,5.254,20.542,20.542,0,0,1,1.086,5.187,24.523,24.523,0,0,0,.508,3.72c.17,1.107.366,2.211.541,3.317a2.579,2.579,0,0,1,.063.79,9.88,9.88,0,0,0,.29,3.333,45.421,45.421,0,0,1,.834,6.272c.052,1.71.449,3.4.621,5.113.126,1.251.147,2.514.192,3.772a3.948,3.948,0,0,1-.585,2.276m.02-4.76.074-.116-.12-.019Z" transform="translate(24.428 5.438)" fill="#fff"/>
    <path id="패스_1477" data-name="패스 1477" d="M121.438,67.926c-.291-1.014-.557-1.883-.785-2.763a6.371,6.371,0,0,1-.177-1.168c-.073-1.091.309-2.157-.124-3.294a20.175,20.175,0,0,1-.528-3.1c-.174-.86.512-1.673.064-2.523.434-1.226-.045-2.461-.009-3.7.064-2.23-.268-4.468-.316-6.7a10.3,10.3,0,0,0-.269-2.908,6.135,6.135,0,0,1,.216-2.14,3.522,3.522,0,0,0,.027-1.153,3.29,3.29,0,0,1,.033-1.947,1.261,1.261,0,0,0,.111-.766c-.513-1.19-.011-2.339.071-3.5a4.959,4.959,0,0,1,1.066-2.7,1.993,1.993,0,0,1,2.819-.6A5.178,5.178,0,0,1,125.851,32c.742,2.421.759,4.951,1.21,7.412a45.351,45.351,0,0,1,.364,8.524,63.447,63.447,0,0,0,.617,7.3,27.722,27.722,0,0,0,1.907,6.783,2.679,2.679,0,0,1,.059,2.279,4.151,4.151,0,0,0-.394,1.312,2.538,2.538,0,0,1-.638,1.4,4.539,4.539,0,0,0-1.442,3.1c.009.545-.981.843-1.363.4a7.281,7.281,0,0,1-1.016-1.63c-.232-.488-.637-.819-1.023-.661-1.032.422-1.851-.277-2.693-.288" transform="translate(21.356 5.125)" fill="#fff"/>
    <path id="패스_1478" data-name="패스 1478" d="M97.146,60.727a4.458,4.458,0,0,0-.153,2.138,7.188,7.188,0,0,1-.5,4.629,10.753,10.753,0,0,0-.52,1.487,2.144,2.144,0,0,1-1.647,1.611,4.557,4.557,0,0,0-2.988-1.212c-1.5-.1-2.2-1.225-2.782-2.339a4.092,4.092,0,0,1-.475-2.684,1.846,1.846,0,0,0-.1-1.134c-.786-1.474-.653-3.054-.633-4.674l1.04-.7c.057-.768-.631-.585-1-1.111a14.672,14.672,0,0,1-.088-3.533,14.188,14.188,0,0,0,.05-3.5c-.222-1.147.054-2.4-.1-3.568a16.621,16.621,0,0,1-.138-5.117,11.55,11.55,0,0,0-.171-2.159,7.612,7.612,0,0,1,.238-2.756,2.159,2.159,0,0,0,.094-.98,6.568,6.568,0,0,1,.815-3.6c.345-.83,1.264-1.164,1.806-.5,1.128,1.376,2.594,2.471,3.138,4.363a29.548,29.548,0,0,1,1.619,7.73,3.314,3.314,0,0,0,.058.592,49,49,0,0,1,.783,7.457c.06,1.311.126,2.635.216,3.952a28.072,28.072,0,0,0,.436,3.727,7.969,7.969,0,0,0,1,1.883M88.471,32c.1-.046.25-.065.294-.146s-.032-.218-.054-.33c-.129.053-.257.106-.384.16l.145.316" transform="translate(15.569 5.494)" fill="#fff"/>
    <path id="패스_1479" data-name="패스 1479" d="M108.114,70.5l-1.837-1.153a3.042,3.042,0,0,1-.763.215c-1.509.08-2.251-.437-2.876-1.955-.175-.423-.342-.851-.542-1.349.133-.311.281-.66.442-1.038-.955-.946-.889-2.217-.9-3.445-.006-.923.094-1.846.123-2.771.064-2.045.09-4.089.172-6.133a23.42,23.42,0,0,0-.061-4.732,9.28,9.28,0,0,1-.1-1.981c.138-2.353-.039-4.718.266-7.066a6.933,6.933,0,0,0-.145-1.766,4.91,4.91,0,0,1,2.116-4.714.972.972,0,0,1,1.487.212,18.542,18.542,0,0,1,3.01,4.751,8.645,8.645,0,0,1,.627,2.875,20.55,20.55,0,0,0,.334,2.736,62.918,62.918,0,0,1,.628,7.7,10.569,10.569,0,0,0,.378,2.134,25,25,0,0,0,.69,2.466,14.851,14.851,0,0,0,.8,1.638c-.15.236-.351.553-.617.968.229.456.481.962.771,1.543a9.675,9.675,0,0,0-.705,3.6c-.057,1.181-.312,2.352-.48,3.527a4.46,4.46,0,0,0-.125.977,2.482,2.482,0,0,1-1.9,2.767l.015.053a.656.656,0,0,0-.835,0Zm-2.865-7.854c.017-.051.057-.11.044-.15s-.079-.055-.123-.083c-.021.081-.044.163-.066.244l.145-.012m.026,2.332c.1-.054.248-.087.277-.17s-.07-.208-.112-.315l-.376.231c.07.085.14.17.211.254m2.3-6.171-.205-.033c.031.032.057.085.091.091s.075-.037.114-.058" transform="translate(18.205 5.797)" fill="#fff"/>
    <path id="패스_1480" data-name="패스 1480" d="M173.337,42.741c1.034-.208,1.034-.208,1.5-1.409l2.292-.815a15.664,15.664,0,0,1,3.26,3.8,10.978,10.978,0,0,0,2.206,3.4,3.1,3.1,0,0,1,.772,1.772,3.154,3.154,0,0,0,1.166,1.961,4.89,4.89,0,0,1,1.3,1.908,17.811,17.811,0,0,0,.914,1.719,3.641,3.641,0,0,1,.5,3.03,10.161,10.161,0,0,0-.264,2.75,4.764,4.764,0,0,1-.552,2.279c-.345.7-.742,1.37-1.082,1.989-1.3.816-2.468.09-3.59-.259a27.6,27.6,0,0,1-3.588-1.677c-.249-.5-.468-1.047-.772-1.532a4.132,4.132,0,0,1-1.012-3.039,1.825,1.825,0,0,0-.209-.75,7.745,7.745,0,0,1-.473-2.7c.013-.323.013-.794-.17-.953-.864-.751-.521-1.8-.7-2.719a10.336,10.336,0,0,1-.2-1.352,2.656,2.656,0,0,1,.061-1.349c.482-.8.079-1.217-.422-1.668a2.819,2.819,0,0,1-.246-.291c-.429-1.784.988-1.812,1.909-2.186.113-.546.048-1.036-.422-.989a2.629,2.629,0,0,1-2.186-.91m3.264,3.437v.163l.233-.081c-.028-.045-.051-.117-.09-.127s-.1.029-.144.046" transform="translate(31.046 7.257)" fill="#fff"/>
    <path id="패스_1481" data-name="패스 1481" d="M61.88,41.118a4.957,4.957,0,0,0,1.019.5c1.4.261,1.885,1.273,2.159,2.62a26.777,26.777,0,0,0,.715,4.088c.184.5-.164,1.2-.061,1.765.542,2.963.2,5.956.348,8.929a11.268,11.268,0,0,0,.763,3.659,24.953,24.953,0,0,1,.874,3.233,1.2,1.2,0,0,1-.026.58c-.3,1.077-.582,2.161-.939,3.218-.472,1.4-.593,1.447-2.208,1.376.175-1.058.164-1.02-.679-1.3a14.744,14.744,0,0,0-1.451-.692c-.466-.1-.989.169-1.473.118a2.044,2.044,0,0,1-1.747-1.834c-.571-3.1-1.322-6.2-.45-9.389a5.409,5.409,0,0,0,.012-.96c.045-.586.12-1.17.178-1.755.171-1.706.35-3.41.5-5.117.1-1.054.213-2.112.212-3.167a13.091,13.091,0,0,1,1.343-4.72,5.326,5.326,0,0,1,.909-1.154m.663,23.47-.22-.205c-.032.052-.1.134-.092.149a2.051,2.051,0,0,0,.217.212c.032-.052.062-.1.1-.156M60.6,64.21a1.846,1.846,0,0,0-.295-.129c-.022-.006-.107.118-.1.138a1.79,1.79,0,0,0,.195.249c.066-.086.132-.171.2-.258" transform="translate(10.446 7.365)" fill="#fff"/>
    <path id="패스_1482" data-name="패스 1482" d="M76.893,69.175,74.823,67.9c-.765.146-1.407,1.227-2.534.336a2.748,2.748,0,0,0-.228-.664C70.649,65.06,70.81,62.4,71.388,59.7c.178-.835.348-1.672.516-2.509a1.556,1.556,0,0,0,.073-.582c-.45-2.076.338-4.051.408-6.069.07-1.98.73-3.875.507-5.9a10.461,10.461,0,0,1,.441-3.12,1.12,1.12,0,0,1,1.223-.993,4.283,4.283,0,0,1,1.12.034,2.18,2.18,0,0,1,1.89,1.929,32.569,32.569,0,0,0,1.068,5.438.717.717,0,0,1,.027.393c-.478,1.382.075,2.747.034,4.115a33.255,33.255,0,0,1-.41,3.735c-.216,1.506-.539,2.995-.719,4.5-.149,1.244-.186,2.506-.213,3.76a2.81,2.81,0,0,0,.264,1.343c.641,1.167.163,2.159-.322,3.166-.045.093-.206.124-.4.232m-1.006-1.819c-.008-.042,0-.1-.026-.125a.335.335,0,0,0-.138-.033c.013.072.025.143.038.213l.126-.055" transform="translate(12.71 7.255)" fill="#fff"/>
    <path id="패스_1483" data-name="패스 1483" d="M107.933,64.71c-.268.212-.534.309-.8,0l-.02.054h.836Z" transform="translate(19.185 11.59)" fill="#fff"/>
    <path id="패스_1484" data-name="패스 1484" d="M201.657,50.275c-.118.166-.232.362-.255.35a2.633,2.633,0,0,1-.409-.3c.073-.1.16-.289.215-.278a1.724,1.724,0,0,1,.449.225" transform="translate(35.999 8.964)" fill="#fff"/>
    <path id="패스_1485" data-name="패스 1485" d="M179.229,29.452a3.017,3.017,0,0,1,.034.533c-.008.084-.123.154-.19.231-.034-.091-.119-.209-.092-.269a3.5,3.5,0,0,1,.285-.445s-.038-.051-.038-.051" transform="translate(32.056 5.275)" fill="#fff"/>
    <path id="패스_1486" data-name="패스 1486" d="M203.367,49.851l-.139,0,.072-.143Z" transform="translate(36.4 8.903)" fill="#fff"/>
    <path id="패스_1487" data-name="패스 1487" d="M202.757,49.769l-.081.136-.055-.151Z" transform="translate(36.291 8.911)" fill="#fff"/>
    <path id="패스_1488" data-name="패스 1488" d="M122.263,18.018l.052.154-.136-.02Z" transform="translate(21.883 3.227)" fill="#fff"/>
    <path id="패스_1489" data-name="패스 1489" d="M155.6,13.795l-.047-.143.129.02Z" transform="translate(27.86 2.445)" fill="#fff"/>
    <path id="패스_1490" data-name="패스 1490" d="M162,45.837l.225.23c-.075.075-.156.218-.225.211s-.147-.145-.221-.225l.221-.216" transform="translate(28.975 8.21)" fill="#fff"/>
    <path id="패스_1491" data-name="패스 1491" d="M145.454,59.763l-.046-.134.12.019Z" transform="translate(26.044 10.68)" fill="#fff"/>
    <path id="패스_1492" data-name="패스 1492" d="M88.258,31.872l-.145-.316.384-.16c.022.112.094.255.054.33s-.191.1-.294.146" transform="translate(15.782 5.623)" fill="#fff"/>
    <path id="패스_1493" data-name="패스 1493" d="M104.723,58.081l-.145.012c.022-.081.044-.163.066-.244.044.027.111.045.123.083s-.027.1-.044.15" transform="translate(18.731 10.361)" fill="#fff"/>
    <path id="패스_1494" data-name="패스 1494" d="M104.754,60.1l-.211-.254.376-.231c.042.106.14.236.112.315s-.179.116-.277.17" transform="translate(18.724 10.677)" fill="#fff"/>
    <path id="패스_1495" data-name="패스 1495" d="M107.95,64.778h-.836a.658.658,0,0,1,.836,0" transform="translate(19.185 11.575)" fill="#fff"/>
    <path id="패스_1496" data-name="패스 1496" d="M106.7,54.8c-.039.021-.08.062-.114.057s-.06-.058-.091-.09l.205.033" transform="translate(19.074 9.808)" fill="#fff"/>
    <path id="패스_1497" data-name="패스 1497" d="M176.105,45.325c.045-.017.1-.059.144-.046s.061.083.09.127l-.233.081Z" transform="translate(31.542 8.109)" fill="#fff"/>
    <path id="패스_1498" data-name="패스 1498" d="M61.949,61.055l-.1.154A1.747,1.747,0,0,1,61.638,61c-.011-.013.059-.1.092-.147l.219.205" transform="translate(11.04 10.899)" fill="#fff"/>
    <path id="패스_1499" data-name="패스 1499" d="M60.314,60.723c-.067.086-.131.172-.2.257a1.752,1.752,0,0,1-.193-.248c-.013-.021.074-.144.094-.138a1.781,1.781,0,0,1,.3.129" transform="translate(10.732 10.853)" fill="#fff"/>
    <path id="패스_1500" data-name="패스 1500" d="M75.165,63.3l-.126.055c-.013-.071-.025-.141-.038-.213a.335.335,0,0,1,.138.033c.024.02.018.083.026.125" transform="translate(13.433 11.309)" fill="#fff"/>
    <path id="패스_1501" data-name="패스 1501" d="M47.812,55.953c-.213.108-.377.265-.5.232a.472.472,0,0,1-.223-.4.436.436,0,0,1,.369-.243c.113.018.2.228.349.414" transform="translate(8.434 9.947)" fill="#fff"/>
    <path id="패스_1502" data-name="패스 1502" d="M50.586,52.231l-.237.232a2.163,2.163,0,0,1-.15-.283c-.006-.018.1-.118.127-.107a1.389,1.389,0,0,1,.259.158" transform="translate(8.991 9.327)" fill="#fff"/>
    <path id="패스_1503" data-name="패스 1503" d="M192.168,58.245c.045-.017.094-.054.132-.042s.055.071.084.11l-.209.08-.007-.147" transform="translate(34.419 10.424)" fill="#fff"/>
    <rect id="사각형_287" data-name="사각형 287" width="6.531" height="37.904" transform="translate(0 95.324)" fill="#fff"/>
    <path id="패스_1504" data-name="패스 1504" d="M22.888,88.417a12.775,12.775,0,0,1,6.542-1.7,11.681,11.681,0,0,1,9.11,4.04l.571.632,4.311-4.4-.472-.558a16.013,16.013,0,0,0-6.013-4.446,19.566,19.566,0,0,0-7.7-1.49,19.276,19.276,0,0,0-9.761,2.519,18.091,18.091,0,0,0-6.852,6.941,21.121,21.121,0,0,0,0,19.815,18.139,18.139,0,0,0,6.825,6.939,19.16,19.16,0,0,0,9.738,2.52,19.467,19.467,0,0,0,7.731-1.516,16.237,16.237,0,0,0,6.035-4.472l.472-.558-4.31-4.4-.572.632a11.712,11.712,0,0,1-9.11,4.091,12.765,12.765,0,0,1-6.542-1.7,12.1,12.1,0,0,1-4.554-4.7,14.6,14.6,0,0,1,0-13.489,12.1,12.1,0,0,1,4.554-4.7" transform="translate(1.818 14.417)" fill="#fff"/>
    <path id="패스_1505" data-name="패스 1505" d="M68.254,83.011a20.269,20.269,0,0,0-19.571,0,18.222,18.222,0,0,0-6.875,6.965,20.838,20.838,0,0,0,0,19.765,18.225,18.225,0,0,0,6.875,6.966,20.269,20.269,0,0,0,19.571,0,18.1,18.1,0,0,0,6.852-6.941,21.13,21.13,0,0,0,0-19.815,18.1,18.1,0,0,0-6.852-6.94m-9.761,30a12.54,12.54,0,0,1-6.465-1.7,12.142,12.142,0,0,1-4.531-4.7,14.606,14.606,0,0,1,0-13.49,12.147,12.147,0,0,1,4.531-4.7,12.549,12.549,0,0,1,6.465-1.7,12.1,12.1,0,0,1,10.9,6.4,14.615,14.615,0,0,1,0,13.49,12.1,12.1,0,0,1-10.9,6.4" transform="translate(7.042 14.417)" fill="#fff"/>
    <path id="패스_1506" data-name="패스 1506" d="M118.863,102.517H136.3V96.5H118.863V86.96H136.3V80.844H112.332v37.9H136.3v-6.117H118.863Z" transform="translate(20.119 14.48)" fill="#fff"/>
    <path id="패스_1507" data-name="패스 1507" d="M3.251,125.509H.236v-.564l1.809-2.25a2,2,0,0,0,.581-1.207.8.8,0,0,0-.835-.847.8.8,0,0,0-.841.847H.317a1.412,1.412,0,0,1,1.474-1.45,1.412,1.412,0,0,1,1.475,1.482,2.679,2.679,0,0,1-.775,1.575l-1.415,1.8H3.251Z" transform="translate(0.042 21.5)" fill="#fff"/>
    <path id="패스_1508" data-name="패스 1508" d="M6.431,124.012A1.476,1.476,0,1,1,3.483,124v-2.4a1.476,1.476,0,1,1,2.948-.008ZM4.957,120.65a.863.863,0,0,0-.842.948v2.414a.844.844,0,1,0,1.676,0V121.6a.862.862,0,0,0-.834-.948" transform="translate(0.624 21.5)" fill="#fff"/>
    <path id="패스_1509" data-name="패스 1509" d="M9.568,125.509H6.553v-.564l1.809-2.25a2,2,0,0,0,.581-1.207.838.838,0,1,0-1.676,0H6.634a1.412,1.412,0,0,1,1.474-1.45,1.412,1.412,0,0,1,1.475,1.482,2.679,2.679,0,0,1-.775,1.575l-1.415,1.8H9.568Z" transform="translate(1.174 21.5)" fill="#fff"/>
    <path id="패스_1510" data-name="패스 1510" d="M12.727,125.509H9.712v-.564l1.809-2.25a2,2,0,0,0,.581-1.207.838.838,0,1,0-1.676,0H9.793a1.412,1.412,0,0,1,1.474-1.45,1.412,1.412,0,0,1,1.475,1.482,2.679,2.679,0,0,1-.775,1.575l-1.415,1.8h2.174Z" transform="translate(1.739 21.5)" fill="#fff"/>
    <rect id="사각형_288" data-name="사각형 288" width="0.706" height="5.489" transform="translate(17.637 141.52)" fill="#fff"/>
    <path id="패스_1511" data-name="패스 1511" d="M19.859,121.579a1.932,1.932,0,0,1,.42,1.345v2.391H19.6V123.01a1.372,1.372,0,0,0-.262-.91.931.931,0,0,0-.748-.305,1.1,1.1,0,0,0-.868.356,1.49,1.49,0,0,0-.318,1.023v2.141H16.73V121.16h.649v.627a1.365,1.365,0,0,1,.554-.5,1.781,1.781,0,0,1,.795-.172,1.461,1.461,0,0,1,1.132.459" transform="translate(2.996 21.693)" fill="#fff"/>
    <path id="패스_1512" data-name="패스 1512" d="M22.99,125.2a.975.975,0,0,1-.367.216,1.4,1.4,0,0,1-.452.074,1.126,1.126,0,0,1-.875-.337,1.371,1.371,0,0,1-.311-.965v-2.282h-.634v-.619h.634v-.91h.678v.91h1.073v.619H21.663v2.251a.786.786,0,0,0,.152.518.536.536,0,0,0,.434.179.766.766,0,0,0,.529-.2Z" transform="translate(3.645 21.561)" fill="#fff"/>
    <path id="패스_1513" data-name="패스 1513" d="M26.594,123.488H23.56a1.351,1.351,0,0,0,.434.882,1.423,1.423,0,0,0,2-.169l.374.487a1.649,1.649,0,0,1-.632.5,2,2,0,0,1-.843.173,2.031,2.031,0,0,1-1.052-.271,1.831,1.831,0,0,1-.709-.757,2.356,2.356,0,0,1-.251-1.1,2.4,2.4,0,0,1,.244-1.089,1.854,1.854,0,0,1,.67-.757,1.763,1.763,0,0,1,.963-.27,1.726,1.726,0,0,1,.956.27,1.826,1.826,0,0,1,.657.757,2.507,2.507,0,0,1,.236,1.113c0,.058,0,.134-.014.228m-2.649-1.4a1.382,1.382,0,0,0-.384.862h2.4a1.4,1.4,0,0,0-.384-.858,1.167,1.167,0,0,0-1.631,0" transform="translate(4.098 21.693)" fill="#fff"/>
    <path id="패스_1514" data-name="패스 1514" d="M28.01,121.309a1.729,1.729,0,0,1,.84-.189v.73a1.282,1.282,0,0,0-.156-.008,1.082,1.082,0,0,0-.864.364,1.55,1.55,0,0,0-.314,1.04v2.069h-.678V121.16h.65v.7a1.224,1.224,0,0,1,.522-.548" transform="translate(4.807 21.693)" fill="#fff"/>
    <path id="패스_1515" data-name="패스 1515" d="M32.38,121.579a1.932,1.932,0,0,1,.42,1.345v2.391h-.677V123.01a1.372,1.372,0,0,0-.262-.91.931.931,0,0,0-.748-.305,1.1,1.1,0,0,0-.868.356,1.49,1.49,0,0,0-.318,1.023v2.141h-.677V121.16H29.9v.627a1.365,1.365,0,0,1,.554-.5,1.781,1.781,0,0,1,.795-.172,1.461,1.461,0,0,1,1.132.459" transform="translate(5.239 21.693)" fill="#fff"/>
    <path id="패스_1516" data-name="패스 1516" d="M35.921,121.544a1.741,1.741,0,0,1,.413,1.262v2.509h-.643v-.548a1.1,1.1,0,0,1-.483.442,1.676,1.676,0,0,1-.744.153,1.449,1.449,0,0,1-1.006-.337,1.129,1.129,0,0,1-.377-.885,1.147,1.147,0,0,1,.36-.883,1.647,1.647,0,0,1,1.143-.333h1.073v-.149a1.022,1.022,0,0,0-.254-.745,1,1,0,0,0-.749-.259,1.816,1.816,0,0,0-.649.121,1.629,1.629,0,0,0-.536.325l-.283-.564a1.973,1.973,0,0,1,.692-.4,2.612,2.612,0,0,1,.854-.138,1.586,1.586,0,0,1,1.19.424m-.674,3.046a1.088,1.088,0,0,0,.409-.545v-.58H34.611q-.86,0-.861.643a.606.606,0,0,0,.219.494.924.924,0,0,0,.606.18,1.161,1.161,0,0,0,.671-.192" transform="translate(5.925 21.693)" fill="#fff"/>
    <path id="패스_1517" data-name="패스 1517" d="M39.089,125.2a.975.975,0,0,1-.367.216,1.4,1.4,0,0,1-.452.074,1.126,1.126,0,0,1-.875-.337,1.371,1.371,0,0,1-.311-.965v-2.282H36.45v-.619h.634v-.91h.678v.91h1.073v.619H37.762v2.251a.786.786,0,0,0,.152.518.536.536,0,0,0,.434.179.766.766,0,0,0,.529-.2Z" transform="translate(6.528 21.561)" fill="#fff"/>
    <path id="패스_1518" data-name="패스 1518" d="M39.411,120.482a.49.49,0,0,1-.13-.344.506.506,0,0,1,.13-.349.424.424,0,0,1,.329-.145.437.437,0,0,1,.328.137.476.476,0,0,1,.131.342.513.513,0,0,1-.131.356.424.424,0,0,1-.328.145.429.429,0,0,1-.329-.141m-.011.942h.678v4.155H39.4Z" transform="translate(7.036 21.429)" fill="#fff"/>
    <path id="패스_1519" data-name="패스 1519" d="M41.7,125.088a1.9,1.9,0,0,1-.694-.757,2.507,2.507,0,0,1,0-2.187,1.87,1.87,0,0,1,.694-.752,1.892,1.892,0,0,1,1-.271,1.855,1.855,0,0,1,1.691,1.023,2.517,2.517,0,0,1,0,2.187,1.9,1.9,0,0,1-.692.757,1.843,1.843,0,0,1-1,.275,1.863,1.863,0,0,1-1-.275m1.648-.568A1.252,1.252,0,0,0,43.8,124a1.878,1.878,0,0,0,0-1.529,1.231,1.231,0,0,0-.448-.513,1.245,1.245,0,0,0-1.291,0,1.239,1.239,0,0,0-.452.513,1.842,1.842,0,0,0,0,1.529,1.26,1.26,0,0,0,.452.518,1.218,1.218,0,0,0,1.291,0" transform="translate(7.3 21.693)" fill="#fff"/>
    <path id="패스_1520" data-name="패스 1520" d="M47.982,121.579a1.932,1.932,0,0,1,.42,1.345v2.391h-.677V123.01a1.372,1.372,0,0,0-.262-.91.931.931,0,0,0-.748-.305,1.1,1.1,0,0,0-.868.356,1.49,1.49,0,0,0-.318,1.023v2.141h-.677V121.16H45.5v.627a1.365,1.365,0,0,1,.554-.5,1.781,1.781,0,0,1,.795-.172,1.461,1.461,0,0,1,1.132.459" transform="translate(8.033 21.693)" fill="#fff"/>
    <path id="패스_1521" data-name="패스 1521" d="M51.523,121.544a1.741,1.741,0,0,1,.413,1.262v2.509h-.643v-.548a1.1,1.1,0,0,1-.483.442,1.676,1.676,0,0,1-.744.153,1.449,1.449,0,0,1-1.006-.337,1.129,1.129,0,0,1-.377-.885,1.151,1.151,0,0,1,.36-.883,1.647,1.647,0,0,1,1.143-.333h1.073v-.149a1.027,1.027,0,0,0-.252-.745,1.008,1.008,0,0,0-.75-.259,1.816,1.816,0,0,0-.649.121,1.629,1.629,0,0,0-.536.325l-.283-.564a1.973,1.973,0,0,1,.692-.4,2.612,2.612,0,0,1,.854-.138,1.586,1.586,0,0,1,1.19.424m-.673,3.046a1.093,1.093,0,0,0,.408-.545v-.58H50.213q-.86,0-.861.643a.6.6,0,0,0,.22.494.919.919,0,0,0,.6.18,1.167,1.167,0,0,0,.672-.192" transform="translate(8.719 21.693)" fill="#fff"/>
    <rect id="사각형_289" data-name="사각형 289" width="0.678" height="5.818" transform="translate(61.911 141.191)" fill="#fff"/>
    <path id="패스_1522" data-name="패스 1522" d="M56.8,125.219a2.55,2.55,0,0,1-.935-1,3.229,3.229,0,0,1,0-2.878,2.614,2.614,0,0,1,3.338-1.152,2.174,2.174,0,0,1,.818.639l-.459.494a1.756,1.756,0,0,0-1.39-.651,1.851,1.851,0,0,0-1,.275,1.9,1.9,0,0,0-.694.756,2.44,2.44,0,0,0,0,2.157,1.89,1.89,0,0,0,.694.757,1.861,1.861,0,0,0,1,.275,1.759,1.759,0,0,0,1.39-.659l.459.494a2.212,2.212,0,0,1-.822.643,2.545,2.545,0,0,1-1.062.219,2.513,2.513,0,0,1-1.337-.364" transform="translate(9.946 21.487)" fill="#fff"/>
    <path id="패스_1523" data-name="패스 1523" d="M60.635,125.088a1.9,1.9,0,0,1-.694-.757,2.507,2.507,0,0,1,0-2.187,1.87,1.87,0,0,1,.694-.752,1.892,1.892,0,0,1,1-.271,1.855,1.855,0,0,1,1.691,1.023,2.517,2.517,0,0,1,0,2.187,1.9,1.9,0,0,1-.692.757,1.84,1.84,0,0,1-1,.275,1.863,1.863,0,0,1-1-.275m1.648-.568a1.252,1.252,0,0,0,.448-.518,1.878,1.878,0,0,0,0-1.529,1.231,1.231,0,0,0-.448-.513,1.245,1.245,0,0,0-1.291,0,1.239,1.239,0,0,0-.452.513,1.842,1.842,0,0,0,0,1.529,1.26,1.26,0,0,0,.452.518,1.218,1.218,0,0,0,1.291,0" transform="translate(10.691 21.693)" fill="#fff"/>
    <path id="패스_1524" data-name="패스 1524" d="M66.912,121.579a1.932,1.932,0,0,1,.42,1.345v2.391h-.677V123.01a1.372,1.372,0,0,0-.262-.91.931.931,0,0,0-.748-.305,1.1,1.1,0,0,0-.868.356,1.49,1.49,0,0,0-.318,1.023v2.141h-.677V121.16h.649v.627a1.365,1.365,0,0,1,.554-.5,1.781,1.781,0,0,1,.795-.172,1.461,1.461,0,0,1,1.132.459" transform="translate(11.424 21.693)" fill="#fff"/>
    <path id="패스_1525" data-name="패스 1525" d="M71.507,121.16v3.59a2.292,2.292,0,0,1-.487,1.612,1.893,1.893,0,0,1-1.454.521,3.158,3.158,0,0,1-1.009-.16,1.956,1.956,0,0,1-.776-.459l.324-.58a1.879,1.879,0,0,0,.646.4,2.234,2.234,0,0,0,.794.144,1.249,1.249,0,0,0,.97-.344,1.516,1.516,0,0,0,.315-1.051V124.5a1.538,1.538,0,0,1-.59.482,1.811,1.811,0,0,1-.759.16,1.884,1.884,0,0,1-.97-.255,1.8,1.8,0,0,1-.68-.713,2.348,2.348,0,0,1,0-2.094,1.778,1.778,0,0,1,.68-.71,1.9,1.9,0,0,1,.97-.25,1.807,1.807,0,0,1,.788.172,1.5,1.5,0,0,1,.6.509v-.643Zm-1.288,3.152a1.206,1.206,0,0,0,.459-.482,1.458,1.458,0,0,0,.166-.7,1.345,1.345,0,0,0-.361-.976,1.342,1.342,0,0,0-1.856,0,1.35,1.35,0,0,0-.36.976,1.458,1.458,0,0,0,.166.7,1.2,1.2,0,0,0,.459.482,1.356,1.356,0,0,0,1.326,0" transform="translate(12.105 21.694)" fill="#fff"/>
    <path id="패스_1526" data-name="패스 1526" d="M73.178,121.309a1.729,1.729,0,0,1,.84-.189v.73a1.282,1.282,0,0,0-.156-.008,1.082,1.082,0,0,0-.864.364,1.55,1.55,0,0,0-.314,1.04v2.069h-.678V121.16h.65v.7a1.224,1.224,0,0,1,.522-.548" transform="translate(12.897 21.693)" fill="#fff"/>
    <path id="패스_1527" data-name="패스 1527" d="M77.806,123.488H74.772a1.351,1.351,0,0,0,.434.882,1.423,1.423,0,0,0,2-.169l.374.487a1.649,1.649,0,0,1-.632.5,2,2,0,0,1-.843.173,2.031,2.031,0,0,1-1.052-.271,1.831,1.831,0,0,1-.709-.757,2.356,2.356,0,0,1-.251-1.1,2.4,2.4,0,0,1,.244-1.089,1.854,1.854,0,0,1,.67-.757,1.763,1.763,0,0,1,.963-.27,1.726,1.726,0,0,1,.956.27,1.826,1.826,0,0,1,.657.757,2.507,2.507,0,0,1,.236,1.113c0,.058,0,.134-.014.228m-2.649-1.4a1.382,1.382,0,0,0-.384.862h2.4a1.4,1.4,0,0,0-.384-.858,1.167,1.167,0,0,0-1.631,0" transform="translate(13.271 21.693)" fill="#fff"/>
    <path id="패스_1528" data-name="패스 1528" d="M78.313,125.224a1.855,1.855,0,0,1-.664-.349l.283-.6a1.939,1.939,0,0,0,.6.314,2.254,2.254,0,0,0,.712.118q.89,0,.889-.565a.385.385,0,0,0-.12-.3.711.711,0,0,0-.3-.16c-.12-.034-.29-.072-.512-.114a4.626,4.626,0,0,1-.737-.179,1.13,1.13,0,0,1-.491-.345,1.028,1.028,0,0,1-.205-.683,1.106,1.106,0,0,1,.423-.906,1.76,1.76,0,0,1,1.137-.341,2.86,2.86,0,0,1,.748.1,1.927,1.927,0,0,1,.614.275l-.29.6a1.794,1.794,0,0,0-1.079-.33,1.154,1.154,0,0,0-.657.157.485.485,0,0,0-.225.416.414.414,0,0,0,.127.321.759.759,0,0,0,.314.173c.124.035.3.078.526.125a5.367,5.367,0,0,1,.73.184,1.089,1.089,0,0,1,.476.334.993.993,0,0,1,.2.659,1.076,1.076,0,0,1-.434.9,1.9,1.9,0,0,1-1.183.334,2.863,2.863,0,0,1-.882-.138" transform="translate(13.907 21.693)" fill="#fff"/>
    <path id="패스_1529" data-name="패스 1529" d="M81.312,125.224a1.855,1.855,0,0,1-.664-.349l.283-.6a1.939,1.939,0,0,0,.6.314,2.254,2.254,0,0,0,.712.118q.89,0,.889-.565a.385.385,0,0,0-.12-.3.711.711,0,0,0-.3-.16c-.12-.034-.29-.072-.512-.114a4.626,4.626,0,0,1-.737-.179,1.131,1.131,0,0,1-.491-.345,1.028,1.028,0,0,1-.205-.683,1.106,1.106,0,0,1,.423-.906,1.76,1.76,0,0,1,1.137-.341,2.86,2.86,0,0,1,.748.1,1.927,1.927,0,0,1,.614.275l-.29.6a1.794,1.794,0,0,0-1.079-.33,1.154,1.154,0,0,0-.657.157.485.485,0,0,0-.225.416.414.414,0,0,0,.127.321.759.759,0,0,0,.314.173c.124.035.3.078.526.125a5.368,5.368,0,0,1,.73.184,1.089,1.089,0,0,1,.476.334.993.993,0,0,1,.2.659,1.076,1.076,0,0,1-.434.9,1.9,1.9,0,0,1-1.183.334,2.863,2.863,0,0,1-.882-.138" transform="translate(14.445 21.693)" fill="#fff"/>
    <path id="패스_1530" data-name="패스 1530" d="M86.31,125.088a1.9,1.9,0,0,1-.694-.757,2.507,2.507,0,0,1,0-2.187,1.87,1.87,0,0,1,.694-.752,1.892,1.892,0,0,1,1-.271A1.855,1.855,0,0,1,89,122.143a2.517,2.517,0,0,1,0,2.187,1.9,1.9,0,0,1-.692.757,1.84,1.84,0,0,1-1,.275,1.863,1.863,0,0,1-1-.275m1.648-.568a1.252,1.252,0,0,0,.448-.518,1.878,1.878,0,0,0,0-1.529,1.231,1.231,0,0,0-.448-.513,1.245,1.245,0,0,0-1.291,0,1.239,1.239,0,0,0-.452.513,1.842,1.842,0,0,0,0,1.529,1.26,1.26,0,0,0,.452.518,1.218,1.218,0,0,0,1.291,0" transform="translate(15.289 21.693)" fill="#fff"/>
    <path id="패스_1531" data-name="패스 1531" d="M92.587,121.579a1.932,1.932,0,0,1,.42,1.345v2.391H92.33V123.01a1.372,1.372,0,0,0-.262-.91.931.931,0,0,0-.748-.305,1.1,1.1,0,0,0-.868.356,1.49,1.49,0,0,0-.318,1.023v2.141h-.677V121.16h.649v.627a1.365,1.365,0,0,1,.554-.5,1.781,1.781,0,0,1,.795-.172,1.461,1.461,0,0,1,1.132.459" transform="translate(16.023 21.693)" fill="#fff"/>
    <path id="패스_1532" data-name="패스 1532" d="M96.17,125.219a2.561,2.561,0,0,1-.942-1.007,3.182,3.182,0,0,1,0-2.87,2.577,2.577,0,0,1,4.569,0,3.219,3.219,0,0,1,0,2.878,2.611,2.611,0,0,1-3.627,1m2.325-.607a1.917,1.917,0,0,0,.684-.757,2.44,2.44,0,0,0,0-2.157,1.921,1.921,0,0,0-.684-.756,1.782,1.782,0,0,0-.977-.275,1.82,1.82,0,0,0-.985.275,1.9,1.9,0,0,0-.691.756,2.44,2.44,0,0,0,0,2.157,1.9,1.9,0,0,0,.691.757,1.83,1.83,0,0,0,.985.275,1.792,1.792,0,0,0,.977-.275" transform="translate(16.995 21.487)" fill="#fff"/>
    <path id="패스_1533" data-name="패스 1533" d="M103.127,121.634a1.826,1.826,0,0,1,.674.744,2.417,2.417,0,0,1,.243,1.106,2.443,2.443,0,0,1-.243,1.11,1.825,1.825,0,0,1-.674.749,1.806,1.806,0,0,1-.974.266,1.62,1.62,0,0,1-.762-.18,1.53,1.53,0,0,1-.572-.525v.658h-.649v-5.818h.677v2.29a1.486,1.486,0,0,1,.565-.5,1.642,1.642,0,0,1,.74-.169,1.807,1.807,0,0,1,.974.268m-.384,3.132a1.268,1.268,0,0,0,.452-.518,1.842,1.842,0,0,0,0-1.529,1.247,1.247,0,0,0-.452-.513,1.239,1.239,0,0,0-1.288,0,1.215,1.215,0,0,0-.452.513,1.878,1.878,0,0,0,0,1.529,1.235,1.235,0,0,0,.452.518,1.212,1.212,0,0,0,1.288,0" transform="translate(17.941 21.447)" fill="#fff"/>
    <path id="패스_1534" data-name="패스 1534" d="M107.671,123.488h-3.034a1.351,1.351,0,0,0,.434.882,1.423,1.423,0,0,0,2-.169l.374.487a1.649,1.649,0,0,1-.632.5,2,2,0,0,1-.843.173,2.031,2.031,0,0,1-1.052-.271,1.831,1.831,0,0,1-.709-.757,2.356,2.356,0,0,1-.251-1.1,2.4,2.4,0,0,1,.244-1.089,1.854,1.854,0,0,1,.67-.757,1.763,1.763,0,0,1,.963-.27,1.726,1.726,0,0,1,.956.27,1.826,1.826,0,0,1,.657.757,2.507,2.507,0,0,1,.236,1.113c0,.058,0,.134-.014.228m-2.649-1.4a1.382,1.382,0,0,0-.384.862h2.4a1.4,1.4,0,0,0-.384-.858,1.167,1.167,0,0,0-1.631,0" transform="translate(18.62 21.693)" fill="#fff"/>
    <path id="패스_1535" data-name="패스 1535" d="M108.178,125.224a1.855,1.855,0,0,1-.664-.349l.283-.6a1.939,1.939,0,0,0,.6.314,2.254,2.254,0,0,0,.712.118q.89,0,.889-.565a.385.385,0,0,0-.12-.3.711.711,0,0,0-.3-.16c-.12-.034-.29-.072-.512-.114a4.626,4.626,0,0,1-.737-.179,1.131,1.131,0,0,1-.491-.345,1.028,1.028,0,0,1-.205-.683,1.106,1.106,0,0,1,.423-.906,1.76,1.76,0,0,1,1.137-.341,2.86,2.86,0,0,1,.748.1,1.927,1.927,0,0,1,.614.275l-.29.6a1.794,1.794,0,0,0-1.079-.33,1.154,1.154,0,0,0-.657.157.485.485,0,0,0-.225.416.414.414,0,0,0,.127.321.759.759,0,0,0,.314.173c.124.035.3.078.526.125a5.367,5.367,0,0,1,.73.184,1.089,1.089,0,0,1,.476.334.993.993,0,0,1,.2.659,1.076,1.076,0,0,1-.434.9,1.9,1.9,0,0,1-1.183.334,2.863,2.863,0,0,1-.882-.138" transform="translate(19.257 21.693)" fill="#fff"/>
    <path id="패스_1536" data-name="패스 1536" d="M110.943,120.482a.486.486,0,0,1-.131-.344.5.5,0,0,1,.131-.349.422.422,0,0,1,.328-.145.435.435,0,0,1,.328.137.476.476,0,0,1,.131.342.513.513,0,0,1-.131.356.422.422,0,0,1-.328.145.427.427,0,0,1-.328-.141m-.011.942h.678v4.155h-.678Z" transform="translate(19.847 21.429)" fill="#fff"/>
    <path id="패스_1537" data-name="패스 1537" d="M114.768,125.2a.975.975,0,0,1-.367.216,1.4,1.4,0,0,1-.452.074,1.126,1.126,0,0,1-.875-.337,1.371,1.371,0,0,1-.311-.965v-2.282h-.634v-.619h.634v-.91h.678v.91h1.073v.619h-1.073v2.251a.786.786,0,0,0,.152.518.536.536,0,0,0,.434.179.766.766,0,0,0,.529-.2Z" transform="translate(20.083 21.561)" fill="#fff"/>
    <path id="패스_1538" data-name="패스 1538" d="M118.432,121.154l-1.813,4.571a2.068,2.068,0,0,1-.561.894,1.2,1.2,0,0,1-.772.258,1.467,1.467,0,0,1-.533-.1,1.067,1.067,0,0,1-.427-.287l.289-.564a.9.9,0,0,0,.671.305.606.606,0,0,0,.413-.145,1.252,1.252,0,0,0,.3-.5l.12-.29-1.652-4.148h.706l1.305,3.325,1.291-3.325Z" transform="translate(20.476 21.7)" fill="#fff"/>
    <path id="패스_1539" data-name="패스 1539" d="M122.552,121.544a1.741,1.741,0,0,1,.413,1.262v2.509h-.643v-.548a1.1,1.1,0,0,1-.483.442,1.676,1.676,0,0,1-.744.153,1.449,1.449,0,0,1-1.006-.337,1.129,1.129,0,0,1-.377-.885,1.147,1.147,0,0,1,.36-.883,1.647,1.647,0,0,1,1.143-.333h1.073v-.149a1.022,1.022,0,0,0-.254-.745,1,1,0,0,0-.749-.259,1.816,1.816,0,0,0-.649.121,1.629,1.629,0,0,0-.536.325l-.283-.564a1.973,1.973,0,0,1,.692-.4,2.612,2.612,0,0,1,.854-.138,1.586,1.586,0,0,1,1.19.424m-.674,3.046a1.088,1.088,0,0,0,.409-.545v-.58h-1.045q-.86,0-.861.643a.606.606,0,0,0,.219.494.924.924,0,0,0,.606.18,1.161,1.161,0,0,0,.671-.192" transform="translate(21.441 21.693)" fill="#fff"/>
    <path id="패스_1540" data-name="패스 1540" d="M126.665,121.579a1.932,1.932,0,0,1,.42,1.345v2.391h-.677V123.01a1.372,1.372,0,0,0-.262-.91.931.931,0,0,0-.748-.305,1.1,1.1,0,0,0-.868.356,1.49,1.49,0,0,0-.318,1.023v2.141h-.677V121.16h.649v.627a1.365,1.365,0,0,1,.554-.5,1.781,1.781,0,0,1,.795-.172,1.461,1.461,0,0,1,1.132.459" transform="translate(22.126 21.693)" fill="#fff"/>
    <path id="패스_1541" data-name="패스 1541" d="M131.209,119.744v5.818h-.649V124.9a1.53,1.53,0,0,1-.572.525,1.625,1.625,0,0,1-.763.18,1.8,1.8,0,0,1-.973-.266,1.825,1.825,0,0,1-.674-.749,2.427,2.427,0,0,1-.243-1.11,2.4,2.4,0,0,1,.243-1.106,1.826,1.826,0,0,1,.674-.744,1.805,1.805,0,0,1,.973-.268,1.647,1.647,0,0,1,.742.169,1.506,1.506,0,0,1,.566.5v-2.29Zm-1.283,5.022a1.241,1.241,0,0,0,.45-.518,1.878,1.878,0,0,0,0-1.529,1.22,1.22,0,0,0-.45-.513,1.241,1.241,0,0,0-1.289,0,1.239,1.239,0,0,0-.452.513,1.842,1.842,0,0,0,0,1.529,1.26,1.26,0,0,0,.452.518,1.214,1.214,0,0,0,1.289,0" transform="translate(22.807 21.447)" fill="#fff"/>
    <path id="패스_1542" data-name="패스 1542" d="M137.985,125.512l-.007-4-1.785,3.333h-.324l-1.786-3.31v3.976H133.4v-5.489h.579l2.06,3.858,2.033-3.858h.579l.007,5.489Z" transform="translate(23.894 21.497)" fill="#fff"/>
    <path id="패스_1543" data-name="패스 1543" d="M142.705,124.829v.683h-3.585v-5.489h3.485v.682h-2.78v1.686H142.3v.666h-2.477v1.772Z" transform="translate(24.917 21.497)" fill="#fff"/>
    <path id="패스_1544" data-name="패스 1544" d="M145.159,125.2a.975.975,0,0,1-.367.216,1.4,1.4,0,0,1-.452.074,1.126,1.126,0,0,1-.875-.337,1.371,1.371,0,0,1-.311-.965v-2.282h-.634v-.619h.634v-.91h.678v.91h1.073v.619h-1.073v2.251a.786.786,0,0,0,.152.518.536.536,0,0,0,.434.179.766.766,0,0,0,.529-.2Z" transform="translate(25.526 21.561)" fill="#fff"/>
    <path id="패스_1545" data-name="패스 1545" d="M148.047,121.544a1.741,1.741,0,0,1,.413,1.262v2.509h-.643v-.548a1.1,1.1,0,0,1-.483.442,1.676,1.676,0,0,1-.744.153,1.449,1.449,0,0,1-1.006-.337,1.129,1.129,0,0,1-.377-.885,1.147,1.147,0,0,1,.36-.883,1.647,1.647,0,0,1,1.143-.333h1.073v-.149a1.022,1.022,0,0,0-.254-.745,1,1,0,0,0-.749-.259,1.816,1.816,0,0,0-.649.121,1.629,1.629,0,0,0-.536.325l-.283-.564a1.973,1.973,0,0,1,.692-.4,2.613,2.613,0,0,1,.854-.138,1.586,1.586,0,0,1,1.19.424m-.674,3.046a1.088,1.088,0,0,0,.409-.545v-.58h-1.045q-.86,0-.861.643a.606.606,0,0,0,.219.494.924.924,0,0,0,.606.18,1.161,1.161,0,0,0,.671-.192" transform="translate(26.008 21.693)" fill="#fff"/>
    <path id="패스_1546" data-name="패스 1546" d="M151.988,121.634a1.826,1.826,0,0,1,.674.744,2.417,2.417,0,0,1,.243,1.106,2.443,2.443,0,0,1-.243,1.11,1.824,1.824,0,0,1-.674.749,1.806,1.806,0,0,1-.974.266,1.62,1.62,0,0,1-.762-.18,1.53,1.53,0,0,1-.572-.525v.658h-.649v-5.818h.677v2.29a1.485,1.485,0,0,1,.565-.5,1.642,1.642,0,0,1,.74-.169,1.807,1.807,0,0,1,.974.268m-.384,3.132a1.268,1.268,0,0,0,.452-.518,1.842,1.842,0,0,0,0-1.529,1.247,1.247,0,0,0-.452-.513,1.239,1.239,0,0,0-1.288,0,1.215,1.215,0,0,0-.452.513,1.878,1.878,0,0,0,0,1.529,1.235,1.235,0,0,0,.452.518,1.212,1.212,0,0,0,1.288,0" transform="translate(26.693 21.447)" fill="#fff"/>
    <path id="패스_1547" data-name="패스 1547" d="M153.765,125.088a1.9,1.9,0,0,1-.695-.757,2.507,2.507,0,0,1,0-2.187,1.87,1.87,0,0,1,.695-.752,1.892,1.892,0,0,1,1-.271,1.855,1.855,0,0,1,1.691,1.023,2.517,2.517,0,0,1,0,2.187,1.9,1.9,0,0,1-.692.757,1.84,1.84,0,0,1-1,.275,1.863,1.863,0,0,1-1-.275m1.648-.568a1.252,1.252,0,0,0,.448-.518,1.878,1.878,0,0,0,0-1.529,1.231,1.231,0,0,0-.448-.513,1.245,1.245,0,0,0-1.291,0,1.239,1.239,0,0,0-.452.513,1.842,1.842,0,0,0,0,1.529,1.26,1.26,0,0,0,.452.518,1.218,1.218,0,0,0,1.291,0" transform="translate(27.371 21.693)" fill="#fff"/>
    <rect id="사각형_290" data-name="사각형 290" width="0.678" height="5.818" transform="translate(185.017 141.191)" fill="#fff"/>
    <path id="패스_1548" data-name="패스 1548" d="M158.612,120.482a.486.486,0,0,1-.131-.344.5.5,0,0,1,.131-.349.422.422,0,0,1,.328-.145.438.438,0,0,1,.329.137.48.48,0,0,1,.13.342.517.517,0,0,1-.13.356.448.448,0,0,1-.657,0m-.011.942h.678v4.155H158.6Z" transform="translate(28.385 21.429)" fill="#fff"/>
    <path id="패스_1549" data-name="패스 1549" d="M160.915,125.088a1.918,1.918,0,0,1-.7-.757,2.486,2.486,0,0,1,0-2.187,1.882,1.882,0,0,1,.7-.752,1.923,1.923,0,0,1,1.02-.271,1.8,1.8,0,0,1,.907.228,1.541,1.541,0,0,1,.618.659l-.515.368a1.216,1.216,0,0,0-.437-.447,1.151,1.151,0,0,0-.579-.15,1.215,1.215,0,0,0-1.119.694,1.873,1.873,0,0,0,0,1.538,1.211,1.211,0,0,0,1.119.693,1.15,1.15,0,0,0,.579-.149,1.216,1.216,0,0,0,.437-.447l.515.361a1.571,1.571,0,0,1-.618.663,1.785,1.785,0,0,1-.907.231,1.915,1.915,0,0,1-1.02-.275" transform="translate(28.65 21.693)" fill="#fff"/>
    <path id="패스_1550" data-name="패스 1550" d="M165.8,125.392a2.173,2.173,0,0,1-.815-.5l.261-.612a2.136,2.136,0,0,0,.724.459,2.411,2.411,0,0,0,.907.177,1.5,1.5,0,0,0,.917-.232.734.734,0,0,0,.3-.615.643.643,0,0,0-.166-.459,1.089,1.089,0,0,0-.409-.27,7.1,7.1,0,0,0-.687-.212,6.51,6.51,0,0,1-.9-.3,1.489,1.489,0,0,1-.586-.459,1.312,1.312,0,0,1-.244-.835,1.524,1.524,0,0,1,.209-.792,1.47,1.47,0,0,1,.632-.565,2.329,2.329,0,0,1,1.051-.212,3.02,3.02,0,0,1,.862.126,2.2,2.2,0,0,1,.726.361l-.233.627a2.432,2.432,0,0,0-.663-.334,2.26,2.26,0,0,0-.692-.113,1.412,1.412,0,0,0-.9.243.772.772,0,0,0-.3.627.633.633,0,0,0,.17.459,1.165,1.165,0,0,0,.42.275,6.109,6.109,0,0,0,.68.208,6.545,6.545,0,0,1,.9.3,1.528,1.528,0,0,1,.582.455,1.283,1.283,0,0,1,.243.823,1.515,1.515,0,0,1-.211.789,1.465,1.465,0,0,1-.643.565,2.426,2.426,0,0,1-1.058.208,3.061,3.061,0,0,1-1.077-.192" transform="translate(29.549 21.487)" fill="#fff"/>
    <path id="패스_1551" data-name="패스 1551" d="M172.368,121.154l-1.813,4.571a2.068,2.068,0,0,1-.561.894,1.2,1.2,0,0,1-.772.258,1.467,1.467,0,0,1-.533-.1,1.067,1.067,0,0,1-.427-.287l.289-.564a.9.9,0,0,0,.671.305.606.606,0,0,0,.413-.145,1.252,1.252,0,0,0,.3-.5l.12-.29-1.652-4.148h.706l1.305,3.325,1.291-3.325Z" transform="translate(30.137 21.7)" fill="#fff"/>
    <path id="패스_1552" data-name="패스 1552" d="M175.412,121.579a1.932,1.932,0,0,1,.42,1.345v2.391h-.677V123.01a1.372,1.372,0,0,0-.262-.91.931.931,0,0,0-.748-.305,1.1,1.1,0,0,0-.868.356,1.491,1.491,0,0,0-.318,1.023v2.141h-.677V121.16h.648v.627a1.365,1.365,0,0,1,.554-.5,1.781,1.781,0,0,1,.795-.172,1.461,1.461,0,0,1,1.132.459" transform="translate(30.857 21.693)" fill="#fff"/>
    <path id="패스_1553" data-name="패스 1553" d="M179.956,119.744v5.818h-.649V124.9a1.53,1.53,0,0,1-.572.525,1.625,1.625,0,0,1-.763.18,1.8,1.8,0,0,1-.973-.266,1.825,1.825,0,0,1-.674-.749,2.427,2.427,0,0,1-.243-1.11,2.4,2.4,0,0,1,.243-1.106,1.826,1.826,0,0,1,.674-.744,1.806,1.806,0,0,1,.973-.268,1.647,1.647,0,0,1,.742.169,1.494,1.494,0,0,1,.565.5v-2.29Zm-1.284,5.022a1.235,1.235,0,0,0,.452-.518,1.878,1.878,0,0,0,0-1.529,1.215,1.215,0,0,0-.452-.513,1.239,1.239,0,0,0-1.288,0,1.239,1.239,0,0,0-.452.513,1.842,1.842,0,0,0,0,1.529,1.26,1.26,0,0,0,.452.518,1.212,1.212,0,0,0,1.288,0" transform="translate(31.538 21.447)" fill="#fff"/>
    <path id="패스_1554" data-name="패스 1554" d="M181.629,121.309a1.729,1.729,0,0,1,.84-.189v.73a1.282,1.282,0,0,0-.156-.008,1.082,1.082,0,0,0-.864.364,1.55,1.55,0,0,0-.314,1.04v2.069h-.678V121.16h.65v.7a1.225,1.225,0,0,1,.522-.548" transform="translate(32.321 21.693)" fill="#fff"/>
    <path id="패스_1555" data-name="패스 1555" d="M183.492,125.088a1.9,1.9,0,0,1-.695-.757,2.507,2.507,0,0,1,0-2.187,1.87,1.87,0,0,1,.695-.752,1.892,1.892,0,0,1,1-.271,1.855,1.855,0,0,1,1.691,1.023,2.517,2.517,0,0,1,0,2.187,1.9,1.9,0,0,1-.692.757,1.84,1.84,0,0,1-1,.275,1.863,1.863,0,0,1-1-.275m1.648-.568a1.252,1.252,0,0,0,.448-.518,1.878,1.878,0,0,0,0-1.529,1.231,1.231,0,0,0-.448-.513,1.245,1.245,0,0,0-1.291,0,1.239,1.239,0,0,0-.452.513,1.842,1.842,0,0,0,0,1.529,1.26,1.26,0,0,0,.452.518,1.218,1.218,0,0,0,1.291,0" transform="translate(32.695 21.693)" fill="#fff"/>
    <path id="패스_1556" data-name="패스 1556" d="M192.438,121.575a1.948,1.948,0,0,1,.413,1.349v2.391h-.677V123.01a1.413,1.413,0,0,0-.251-.91.876.876,0,0,0-.716-.305,1.023,1.023,0,0,0-.819.356,1.543,1.543,0,0,0-.3,1.023v2.141h-.678V123.01a1.413,1.413,0,0,0-.25-.91.877.877,0,0,0-.717-.305,1.022,1.022,0,0,0-.818.356,1.543,1.543,0,0,0-.3,1.023v2.141h-.678V121.16h.65v.619a1.358,1.358,0,0,1,.536-.491,1.646,1.646,0,0,1,.755-.169,1.526,1.526,0,0,1,.776.2,1.3,1.3,0,0,1,.524.573,1.491,1.491,0,0,1,.588-.565,1.766,1.766,0,0,1,.85-.2,1.437,1.437,0,0,1,1.119.455" transform="translate(33.429 21.693)" fill="#fff"/>
    <path id="패스_1557" data-name="패스 1557" d="M196.4,123.488h-3.034a1.351,1.351,0,0,0,.434.882,1.423,1.423,0,0,0,2-.169l.374.487a1.649,1.649,0,0,1-.632.5,2,2,0,0,1-.843.173,2.031,2.031,0,0,1-1.052-.271,1.831,1.831,0,0,1-.709-.757,2.356,2.356,0,0,1-.251-1.1,2.4,2.4,0,0,1,.244-1.089,1.854,1.854,0,0,1,.67-.757,1.763,1.763,0,0,1,.963-.27,1.726,1.726,0,0,1,.956.27,1.826,1.826,0,0,1,.657.757,2.507,2.507,0,0,1,.236,1.113c0,.058,0,.134-.014.228m-2.649-1.4a1.382,1.382,0,0,0-.384.862h2.4a1.4,1.4,0,0,0-.384-.858,1.167,1.167,0,0,0-1.631,0" transform="translate(34.512 21.693)" fill="#fff"/>
    <path id="패스_1558" data-name="패스 1558" d="M201.386,121.825a1.932,1.932,0,0,1,.42,1.345v2.391h-.677v-2.305a1.372,1.372,0,0,0-.262-.91.931.931,0,0,0-.748-.305,1.1,1.1,0,0,0-.868.356,1.491,1.491,0,0,0-.318,1.023v2.141h-.677v-5.818h.677v2.25a1.434,1.434,0,0,1,.554-.462,1.748,1.748,0,0,1,.766-.165,1.461,1.461,0,0,1,1.132.459" transform="translate(35.509 21.447)" fill="#fff"/>
    <path id="패스_1559" data-name="패스 1559" d="M203,125.088a1.9,1.9,0,0,1-.694-.757,2.507,2.507,0,0,1,0-2.187,1.87,1.87,0,0,1,.694-.752,1.892,1.892,0,0,1,1-.271,1.855,1.855,0,0,1,1.691,1.023,2.517,2.517,0,0,1,0,2.187,1.9,1.9,0,0,1-.692.757,1.84,1.84,0,0,1-1,.275,1.863,1.863,0,0,1-1-.275m1.65-.568A1.258,1.258,0,0,0,205.1,124a1.878,1.878,0,0,0,0-1.529,1.237,1.237,0,0,0-.447-.513,1.247,1.247,0,0,0-1.292,0,1.239,1.239,0,0,0-.452.513,1.842,1.842,0,0,0,0,1.529,1.26,1.26,0,0,0,.452.518,1.22,1.22,0,0,0,1.292,0" transform="translate(36.19 21.693)" fill="#fff"/>
    <path id="패스_1560" data-name="패스 1560" d="M206.413,125.224a1.855,1.855,0,0,1-.664-.349l.283-.6a1.939,1.939,0,0,0,.6.314,2.254,2.254,0,0,0,.712.118q.89,0,.889-.565a.385.385,0,0,0-.12-.3.711.711,0,0,0-.3-.16c-.12-.034-.29-.072-.512-.114a4.627,4.627,0,0,1-.737-.179,1.131,1.131,0,0,1-.491-.345,1.028,1.028,0,0,1-.205-.683,1.106,1.106,0,0,1,.423-.906,1.76,1.76,0,0,1,1.137-.341,2.861,2.861,0,0,1,.748.1,1.927,1.927,0,0,1,.614.275l-.29.6a1.794,1.794,0,0,0-1.079-.33,1.154,1.154,0,0,0-.657.157.485.485,0,0,0-.225.416.414.414,0,0,0,.127.321.759.759,0,0,0,.314.173c.124.035.3.078.526.125a5.366,5.366,0,0,1,.73.184,1.089,1.089,0,0,1,.476.334.993.993,0,0,1,.2.659,1.076,1.076,0,0,1-.434.9,1.9,1.9,0,0,1-1.183.334,2.863,2.863,0,0,1-.882-.138" transform="translate(36.851 21.693)" fill="#fff"/>
    <path id="패스_1561" data-name="패스 1561" d="M211.333,125.2a.976.976,0,0,1-.367.216,1.4,1.4,0,0,1-.452.074,1.126,1.126,0,0,1-.875-.337,1.371,1.371,0,0,1-.311-.965v-2.282h-.634v-.619h.634v-.91h.678v.91h1.073v.619h-1.073v2.251a.786.786,0,0,0,.152.518.536.536,0,0,0,.434.179.766.766,0,0,0,.529-.2Z" transform="translate(37.379 21.561)" fill="#fff"/>
    <path id="패스_1562" data-name="패스 1562" d="M214.937,123.488H211.9a1.351,1.351,0,0,0,.434.882,1.423,1.423,0,0,0,2-.169l.374.487a1.649,1.649,0,0,1-.632.5,2,2,0,0,1-.843.173,2.031,2.031,0,0,1-1.052-.271,1.83,1.83,0,0,1-.709-.757,2.356,2.356,0,0,1-.251-1.1,2.4,2.4,0,0,1,.244-1.089,1.854,1.854,0,0,1,.67-.757,1.763,1.763,0,0,1,.963-.27,1.726,1.726,0,0,1,.956.27,1.826,1.826,0,0,1,.657.757,2.507,2.507,0,0,1,.236,1.113c0,.058,0,.134-.014.228m-2.649-1.4a1.382,1.382,0,0,0-.384.862h2.4a1.4,1.4,0,0,0-.384-.858,1.167,1.167,0,0,0-1.631,0" transform="translate(37.832 21.693)" fill="#fff"/>
    <path id="패스_1563" data-name="패스 1563" d="M218.762,119.744v5.818h-.648V124.9a1.53,1.53,0,0,1-.572.525,1.625,1.625,0,0,1-.763.18,1.812,1.812,0,0,1-.974-.266,1.83,1.83,0,0,1-.673-.749,2.428,2.428,0,0,1-.243-1.11,2.4,2.4,0,0,1,.243-1.106,1.832,1.832,0,0,1,.673-.744,1.812,1.812,0,0,1,.974-.268,1.647,1.647,0,0,1,.742.169,1.494,1.494,0,0,1,.565.5v-2.29Zm-1.284,5.022a1.235,1.235,0,0,0,.452-.518,1.878,1.878,0,0,0,0-1.529,1.215,1.215,0,0,0-.452-.513,1.239,1.239,0,0,0-1.288,0,1.239,1.239,0,0,0-.452.513,1.842,1.842,0,0,0,0,1.529,1.26,1.26,0,0,0,.452.518,1.212,1.212,0,0,0,1.288,0" transform="translate(38.488 21.447)" fill="#fff"/>
    <path id="패스_1564" data-name="패스 1564" d="M223.83,121.634a1.826,1.826,0,0,1,.674.744,2.417,2.417,0,0,1,.243,1.106,2.443,2.443,0,0,1-.243,1.11,1.824,1.824,0,0,1-.674.749,1.806,1.806,0,0,1-.974.266,1.621,1.621,0,0,1-.762-.18,1.522,1.522,0,0,1-.572-.525v.658h-.648v-5.818h.677v2.29a1.486,1.486,0,0,1,.565-.5,1.642,1.642,0,0,1,.74-.169,1.807,1.807,0,0,1,.974.268m-.384,3.132a1.268,1.268,0,0,0,.452-.518,1.842,1.842,0,0,0,0-1.529,1.247,1.247,0,0,0-.452-.513,1.239,1.239,0,0,0-1.288,0,1.215,1.215,0,0,0-.452.513,1.878,1.878,0,0,0,0,1.529,1.235,1.235,0,0,0,.452.518,1.212,1.212,0,0,0,1.288,0" transform="translate(39.56 21.447)" fill="#fff"/>
    <path id="패스_1565" data-name="패스 1565" d="M228.3,121.154l-1.813,4.571a2.068,2.068,0,0,1-.561.894,1.2,1.2,0,0,1-.772.258,1.467,1.467,0,0,1-.533-.1,1.067,1.067,0,0,1-.427-.287l.289-.564a.9.9,0,0,0,.671.305.606.606,0,0,0,.413-.145,1.252,1.252,0,0,0,.3-.5l.12-.29-1.652-4.148h.706l1.305,3.325,1.291-3.325Z" transform="translate(40.154 21.7)" fill="#fff"/>
    <path id="패스_1566" data-name="패스 1566" d="M231.514,123.073l-.9,1.019v1.42H229.9v-5.489h.706v3.066l2.681-3.066h.805l-2.111,2.47,2.244,3.019H233.4Z" transform="translate(41.177 21.497)" fill="#fff"/>
    <path id="패스_1567" data-name="패스 1567" d="M234.55,125.392a2.173,2.173,0,0,1-.815-.5l.261-.612a2.136,2.136,0,0,0,.724.459,2.41,2.41,0,0,0,.907.177,1.5,1.5,0,0,0,.917-.232.734.734,0,0,0,.3-.615.643.643,0,0,0-.166-.459,1.089,1.089,0,0,0-.409-.27,7.1,7.1,0,0,0-.687-.212,6.51,6.51,0,0,1-.9-.3,1.489,1.489,0,0,1-.586-.459,1.312,1.312,0,0,1-.244-.835,1.524,1.524,0,0,1,.209-.792,1.47,1.47,0,0,1,.632-.565,2.329,2.329,0,0,1,1.051-.212,3.019,3.019,0,0,1,.862.126,2.2,2.2,0,0,1,.726.361l-.233.627a2.432,2.432,0,0,0-.663-.334,2.26,2.26,0,0,0-.692-.113,1.412,1.412,0,0,0-.9.243.772.772,0,0,0-.3.627.633.633,0,0,0,.17.459,1.165,1.165,0,0,0,.42.275,6.112,6.112,0,0,0,.68.208,6.545,6.545,0,0,1,.9.3,1.528,1.528,0,0,1,.582.455,1.284,1.284,0,0,1,.243.823,1.515,1.515,0,0,1-.211.789,1.465,1.465,0,0,1-.643.565,2.426,2.426,0,0,1-1.058.208,3.061,3.061,0,0,1-1.077-.192" transform="translate(41.864 21.487)" fill="#fff"/>
    <path id="패스_1568" data-name="패스 1568" d="M238.267,125.392a2.174,2.174,0,0,1-.815-.5l.261-.612a2.136,2.136,0,0,0,.724.459,2.411,2.411,0,0,0,.907.177,1.5,1.5,0,0,0,.917-.232.734.734,0,0,0,.3-.615.643.643,0,0,0-.166-.459,1.089,1.089,0,0,0-.409-.27,7.093,7.093,0,0,0-.687-.212,6.51,6.51,0,0,1-.9-.3,1.49,1.49,0,0,1-.586-.459,1.312,1.312,0,0,1-.244-.835,1.524,1.524,0,0,1,.209-.792,1.47,1.47,0,0,1,.632-.565,2.328,2.328,0,0,1,1.051-.212,3.02,3.02,0,0,1,.862.126,2.2,2.2,0,0,1,.726.361l-.233.627a2.431,2.431,0,0,0-.663-.334,2.26,2.26,0,0,0-.692-.113,1.412,1.412,0,0,0-.9.243.772.772,0,0,0-.3.627.634.634,0,0,0,.17.459,1.166,1.166,0,0,0,.42.275,6.113,6.113,0,0,0,.68.208,6.545,6.545,0,0,1,.9.3,1.528,1.528,0,0,1,.582.455,1.283,1.283,0,0,1,.243.823,1.515,1.515,0,0,1-.211.789,1.465,1.465,0,0,1-.643.565,2.426,2.426,0,0,1-1.058.208,3.061,3.061,0,0,1-1.077-.192" transform="translate(42.529 21.487)" fill="#fff"/>
    <path id="패스_1569" data-name="패스 1569" d="M242.494,125.219a2.56,2.56,0,0,1-.942-1.007,3.182,3.182,0,0,1,0-2.87,2.577,2.577,0,0,1,4.569,0,3.219,3.219,0,0,1,0,2.878,2.611,2.611,0,0,1-3.627,1m2.325-.607a1.916,1.916,0,0,0,.684-.757,2.44,2.44,0,0,0,0-2.157,1.921,1.921,0,0,0-.684-.756,1.782,1.782,0,0,0-.977-.275,1.82,1.82,0,0,0-.985.275,1.9,1.9,0,0,0-.691.756,2.441,2.441,0,0,0,0,2.157,1.9,1.9,0,0,0,.691.757,1.83,1.83,0,0,0,.985.275,1.792,1.792,0,0,0,.977-.275" transform="translate(43.202 21.487)" fill="#fff"/>
    <path id="패스_1570" data-name="패스 1570" d="M185.375,117.026H165.909v-3.642l11.679-14.518c2.259-2.783,3.75-5.16,3.75-7.79a5.182,5.182,0,0,0-5.384-5.463c-2.98,0-5.335,1.871-5.431,5.463h-4.086c0-5.767,4.326-9.359,9.517-9.359a9.111,9.111,0,0,1,9.518,9.561c0,4.148-2.884,7.486-5,10.167L171.34,113.08h14.035Z" transform="translate(29.715 14.636)" fill="#fff"/>
    <path id="패스_1571" data-name="패스 1571" d="M205.892,107.364c0,6.425-4.518,10.067-9.517,10.067s-9.517-3.642-9.517-10.118V91.834c0-6.474,4.518-10.117,9.517-10.117s9.517,3.642,9.517,10.066Zm-9.517-21.7c-3.028,0-5.431,2.378-5.431,6.121v15.581c0,3.744,2.4,6.121,5.431,6.121,2.98,0,5.383-2.377,5.383-6.121V91.783c0-3.742-2.4-6.121-5.383-6.121" transform="translate(33.468 14.636)" fill="#fff"/>
    <path id="패스_1572" data-name="패스 1572" d="M226.135,117.026H206.669v-3.642l11.679-14.518c2.259-2.783,3.75-5.16,3.75-7.79a5.182,5.182,0,0,0-5.384-5.463c-2.98,0-5.335,1.871-5.431,5.463H207.2c0-5.767,4.326-9.359,9.517-9.359a9.111,9.111,0,0,1,9.518,9.561c0,4.148-2.884,7.486-5,10.167L212.1,113.08h14.035Z" transform="translate(37.016 14.636)" fill="#fff"/>
    <path id="패스_1573" data-name="패스 1573" d="M246.515,117.026H227.049v-3.642l11.679-14.518c2.259-2.783,3.75-5.16,3.75-7.79a5.182,5.182,0,0,0-5.384-5.463c-2.98,0-5.335,1.871-5.431,5.463h-4.086c0-5.767,4.326-9.359,9.517-9.359a9.111,9.111,0,0,1,9.518,9.561c0,4.148-2.884,7.486-5,10.167L232.48,113.08h14.035Z" transform="translate(40.666 14.636)" fill="#fff"/>
    <path id="패스_1574" data-name="패스 1574" d="M113.473,80.844H108.16L94.438,105.517,80.527,80.844H75.217v37.9h6.334V94.684l9.531,16.733,3.246,5.765,1.614-2.842h0l1.022-1.806h0l10.177-18,.045,24.211h6.334Z" transform="translate(13.472 14.48)" fill="#fff"/>
    <path id="패스_1575" data-name="패스 1575" d="M150.249,97.465c-5.445-1.021-7.375-2.553-7.375-5.85,0-4.175,3.633-4.8,5.8-4.8,3.781,0,5.588,1.457,7.432,3.975l.481.657,4.531-3.417-.38-.621c-2.645-4.318-6.32-6.243-11.917-6.243-5.7,0-11.788,2.745-11.788,10.448,0,6.183,3.878,10.079,11.216,11.268,6.125.993,7.356,2.993,7.356,5.9,0,3.335-2.091,4.955-6.39,4.955-4.018,0-5.78-1.309-8-4.057l-.479-.594L136,112.523l.421.64c2.719,4.128,7.022,6.221,12.79,6.221,9.028,0,12.231-5.824,12.231-10.811,0-7.992-5.662-10.1-11.2-11.108" transform="translate(24.359 14.538)" fill="#fff"/>
  </g>
</svg>
