<svg id="그룹_681" data-name="그룹 681" xmlns="http://www.w3.org/2000/svg" xmlns:xlink="http://www.w3.org/1999/xlink" width="298.481" height="152.926" viewBox="0 0 298.481 152.926">
  <defs>
    <clipPath id="clip-path">
      <rect id="사각형_822" data-name="사각형 822" width="298.481" height="152.926" fill="none"/>
    </clipPath>
  </defs>
  <g id="그룹_680" data-name="그룹 680" clip-path="url(#clip-path)">
    <path id="패스_2840" data-name="패스 2840" d="M210.549,114.043c1.426-2.14,2.955-4.433,2.955-7.082a5.235,5.235,0,0,0-5.35-5.1c-3.414,0-6.165,1.733-6.47,6.318H197.1c.153-6.318,4.483-10.6,10.7-10.6,5.4,0,10.292,3.261,10.292,9.324a11.37,11.37,0,0,1-1.936,6.42l-11.769,17.781h13.4v4.28H196.232Z" fill="#8c8b8b"/>
    <path id="패스_2841" data-name="패스 2841" d="M223.64,109c0-6.114,4.127-11.413,11.056-11.413s11.056,5.3,11.056,11.413v14.317c0,8.458-4.534,12.482-11.056,12.482s-11.056-4.024-11.056-12.482Zm17.527-.153c0-3.566-1.937-6.979-6.471-6.979s-6.47,3.413-6.47,6.979v15.947c0,3.567,1.935,6.981,6.47,6.981s6.471-3.414,6.471-6.981Z" fill="#8c8b8b"/>
    <path id="패스_2842" data-name="패스 2842" d="M263.533,114.043c1.426-2.14,2.955-4.433,2.955-7.082a5.235,5.235,0,0,0-5.35-5.1c-3.414,0-6.165,1.733-6.47,6.318h-4.586c.153-6.318,4.483-10.6,10.7-10.6,5.4,0,10.292,3.261,10.292,9.324a11.37,11.37,0,0,1-1.936,6.42l-11.769,17.781h13.4v4.28H249.216Z" fill="#8c8b8b"/>
    <path id="패스_2843" data-name="패스 2843" d="M289.31,102.274H276.726V98h20.736l-9.884,14.367c6.215,0,10.9,4.28,10.9,11.26A11.951,11.951,0,0,1,286.457,135.8c-5.043,0-8.253-1.069-11.514-6.521l3.923-2.191c1.528,3.006,3.872,4.688,7.234,4.688a7.745,7.745,0,0,0,7.8-7.8c0-4.841-3.465-8.152-8.3-8.152a9.894,9.894,0,0,0-6.47,2.5l-.663-.611Z" fill="#8c8b8b"/>
    <rect id="사각형_818" data-name="사각형 818" width="6.727" height="38.616" transform="translate(0 98.422)" fill="#0f2647"/>
    <path id="패스_2844" data-name="패스 2844" d="M45.043,131.737,40.7,126.825l-.8.749a12.6,12.6,0,0,1-9.023,3.6,13.447,13.447,0,0,1,0-26.893,12.987,12.987,0,0,1,8.7,3.472l.78.708L44.91,103.5l-.779-.714a20.279,20.279,0,0,0-13.25-4.938A19.947,19.947,0,0,0,10.468,117.73a20.213,20.213,0,0,0,5.31,13.515,19.853,19.853,0,0,0,15.1,6.37,20.666,20.666,0,0,0,13.392-5.176Z" fill="#0f2647"/>
    <path id="패스_2845" data-name="패스 2845" d="M66.468,137.615A19.947,19.947,0,0,0,86.881,117.73a20.209,20.209,0,0,0-5.31-13.515,19.852,19.852,0,0,0-15.1-6.37A19.947,19.947,0,0,0,46.055,117.73a20.213,20.213,0,0,0,5.31,13.515,19.853,19.853,0,0,0,15.1,6.37M53.07,117.73a13.4,13.4,0,1,1,13.4,13.446,13.292,13.292,0,0,1-13.4-13.446" fill="#0f2647"/>
    <path id="패스_2846" data-name="패스 2846" d="M111.323,124.815,97.115,98.422h-6.3v38.616h6.727V112.964L111.323,138.6l13.782-25.635v24.074h6.727V98.422h-6.3Z" fill="#0f2647"/>
    <path id="패스_2847" data-name="패스 2847" d="M137.014,137.038H158V130.6H143.741v-9.842H158v-6.439H143.741v-9.459H158V98.422H137.014Z" fill="#0f2647"/>
    <path id="패스_2848" data-name="패스 2848" d="M173.467,131.464c-4.044,0-6.106-1.848-6.488-5.815l-.092-.957h-6.716l.089,1.142c.592,7.487,5.317,11.78,12.967,11.78,7.522,0,12.776-4.621,12.776-11.24,0-5.018-3.092-8.713-9.187-10.98l-4.612-1.729c-4.08-1.524-4.643-3.218-4.643-4.821,0-1.458.537-4.849,5.522-4.849,4.427,0,5.638,3.795,5.965,6.058l.13.906h6.375l-.082-1.133c-.528-7.39-5.256-11.981-12.341-11.981-7.125,0-12.295,4.687-12.295,11.144,0,5.082,2.875,8.672,8.787,10.974l4.659,1.826c3.362,1.315,5,2.941,5,4.97,0,2.682-2.5,4.705-5.81,4.705" fill="#0f2647"/>
    <path id="패스_2849" data-name="패스 2849" d="M215.85,35.8a3.222,3.222,0,0,0,2.162,2.117,10.053,10.053,0,0,1,2.169,1.31,17,17,0,0,0,2.343,1.387c1.495.61,2.8,1.71,4.433,1.962a2.267,2.267,0,0,1,.69.358q2.365,1.362,4.731,2.728a4.586,4.586,0,0,0,.513.283c1.911.8,3.812,1.633,5.742,2.38a27.457,27.457,0,0,0,3.675,1.167,10.986,10.986,0,0,0,2.5.142c1.225,0,2.41-.09,3.441.934a3.066,3.066,0,0,0,1.8.587c1.064.1,2.057.233,2.622,1.373a.546.546,0,0,0,.269.28c1.472.418,2.48,1.714,3.827,2.316a2.9,2.9,0,0,1,1.8,2.19c.044.2.083.4.154.739-.325.543-.7,1.164-1.069,1.781-1.118.2-2.183.427-3.258.572a3.6,3.6,0,0,1-3.056-.878c-.458.2-.589.9-1.279.754a11.687,11.687,0,0,0-1.9-.021c-.888-.03-1.818.068-2.425-.892a.906.906,0,0,0-.635-.4,16.484,16.484,0,0,1-2.807-.546,6.118,6.118,0,0,1-2.833-1.077,12.964,12.964,0,0,0-2.438-1.2c-1.23-.574-2.476-1.1-3.73-1.611a23.492,23.492,0,0,1-4.7-2.314,37.161,37.161,0,0,0-4.878-2.883c-.834-.407-1.194-1.434-2.146-1.576a1.853,1.853,0,0,0-1.628-.915c-.27-.019-.708-.279-.748-.495-.119-.656-.565-.726-1-.751a7.5,7.5,0,0,1-3.844-1.62,4.027,4.027,0,0,0-3.492-.656,6.514,6.514,0,0,1-4.5-.441,1.977,1.977,0,0,1-.807-.495c-1.063-1.183-2.137-2.36-3.124-3.613a6.417,6.417,0,0,0-2.6-2.323,1.468,1.468,0,0,1-.849-1.054c-.217-.783-.428-1.568-.638-2.353a3.362,3.362,0,0,0-.322-1.152c-.651-.823-.983-1.58-.209-2.539a1.653,1.653,0,0,0,.116-.989,3.618,3.618,0,0,1,.79-2.854,1.467,1.467,0,0,0,.24-.551.8.8,0,0,0-.52-.96c-1.084-.111-2.206-.282-3.089.634a3.887,3.887,0,0,0-.751,1.163,1.9,1.9,0,0,1-1.1,1.08,11.147,11.147,0,0,0-3.567,1.985,1.64,1.64,0,0,1-1.668.214,6.863,6.863,0,0,0-3.989.058,13.382,13.382,0,0,1-2.486.273c-1.09.064-2.19,0-3.272.128-.954.109-1.836.262-2.031-1.178-.953,1.039-.954,1.089-1.893,1.063a17.9,17.9,0,0,0-3.832.415c-.753.143-1.525.179-2.289.261-1.853.2-3.707.386-5.559.6a13.7,13.7,0,0,1-1.519.252,22.677,22.677,0,0,0-5.546.546,26.308,26.308,0,0,1-3.827.29,7.865,7.865,0,0,0-1.872.377,7.237,7.237,0,0,1-2.849.35c-1.084-.059-2.176,0-3.263.047-2.052.091-4.117-.24-6.162.211-.19.042-.437-.195-.654-.311-.055-.029-.113-.134-.143-.123-1.113.417-2.221-.452-3.358.012a2.8,2.8,0,0,1-1.51.12,16.922,16.922,0,0,0-5.933-.11,3.491,3.491,0,0,1-.758.005c-1.153-.064-2.309-.231-3.458-.185a23.97,23.97,0,0,1-5.16-.564c-.569-.1-1.139-.188-1.711-.244a57.918,57.918,0,0,1-8-1.14c-1.441-.345-2.89-.641-4.322-1.023s-2.836-.835-4.248-1.272a.951.951,0,0,1-.491-.307c-.569-.83-1.456-.77-2.28-.922-.752-.847-1.513-1.674-2.241-2.532a22.753,22.753,0,0,1-2.523-5.905,2.126,2.126,0,0,1,.166-1.163,5.837,5.837,0,0,1,1.079-1.421,1.5,1.5,0,0,1,2.5.1,2.7,2.7,0,0,0,1.121.726,26.715,26.715,0,0,0,2.537.942c2.989.8,5.965,1.688,8.993,2.254a28.692,28.692,0,0,0,7.052.9,26.8,26.8,0,0,1,3.821.42,76.079,76.079,0,0,0,9.375.743c3.408-.126,6.823-.039,10.235-.021.637,0,1.274.12,1.912.181a3.323,3.323,0,0,0,.755.047c2.348-.319,4.692-.68,7.042-.979,2.038-.259,4.084-.445,6.125-.68.638-.073,1.271-.2,1.906-.3a3.712,3.712,0,0,1,2.094.029,2.5,2.5,0,0,0,2.216-.3,9.3,9.3,0,0,1,2.352-.888c3.456-.733,6.931-1.363,10.384-2.107a9.044,9.044,0,0,0,3.486-1.084,1.993,1.993,0,0,1,.914-.3c1.866-.182,3.292-1.329,4.86-2.263a6.579,6.579,0,0,1,4.221-.835c.519.519,1.022.373,1.572.021.659-.423.675-.395,1.874-.382l-1.245.783c-.027.56.25.76.579.8a4.791,4.791,0,0,0,2.468-.119,1.349,1.349,0,0,1,1.963.645A3.4,3.4,0,0,0,195.9,15.8c.748.149,1.451.534,2.194.719a1.322,1.322,0,0,0,1.748-.833,5.593,5.593,0,0,0,.38-.936c.819-2.51,1.5-5.081,2.493-7.513a22.964,22.964,0,0,1,2.54-4.089,16.222,16.222,0,0,1,1.572-1.8,4.532,4.532,0,0,1,.875-.8c1.533-.949,2.081-.723,2.677,1.057a3.751,3.751,0,0,0,.244.777,11.459,11.459,0,0,1,1.317,7.687c-.331,2.581-.188,5.172-.556,7.752a20.581,20.581,0,0,0,.119,6.538,18.4,18.4,0,0,1,.139,3.067,3.416,3.416,0,0,0,.689,2.275,5.3,5.3,0,0,1,1.154,3.4,2.2,2.2,0,0,0,1.524,2.324c.3.113.586.278.883.424a3.583,3.583,0,0,0-.294.458c-.028.063.06.184.1.278.069-.079.186-.152.195-.238a3.011,3.011,0,0,0-.035-.55m32.581,23.341a1.813,1.813,0,0,0-.464-.232c-.056-.01-.146.185-.22.287a2.792,2.792,0,0,0,.422.306,2.2,2.2,0,0,0,.262-.361m-89.745-32.9c-.287-.145-.5-.32-.564-.271a2.084,2.084,0,0,0-.391.522c.136.091.309.287.4.25.182-.074.319-.274.557-.5M184.57,28.4c-.111-.168-.18-.271-.248-.375a2.157,2.157,0,0,0-.383.312c-.021.025.137.3.178.289a1.955,1.955,0,0,0,.453-.226m-25.432-4.467-.1.119.216.1c.007-.052.034-.118.015-.153s-.088-.048-.134-.07m91.469,34.71-.069-.15-.074.146Zm-.741-.075-.142-.016.057.155ZM146.634,21.9l-.086.138.139.02Zm40.529-5.161.083-.126-.132-.022Z" fill="#0f2647"/>
    <path id="패스_2850" data-name="패스 2850" d="M86.557,44.183a7.222,7.222,0,0,1-3.677-1.076c-.805-.506-1.745-.8-2.557-1.366a3.986,3.986,0,0,0-1.27-.445c-.246-.067-.536.011-.764-.086-2.464-1.049-4.835-.248-7.13.566a10.43,10.43,0,0,0-3.446,2.18,37.272,37.272,0,0,1-4.573,3.372A18.316,18.316,0,0,1,59.6,48.884c-1.191.479-2.4.921-3.6,1.359a6.377,6.377,0,0,0-2.645,1.625,4.7,4.7,0,0,1-1.3.866,6.686,6.686,0,0,0-2.817,2.708,8.368,8.368,0,0,1-.7.979,3.018,3.018,0,0,0-.673,1.876A8.207,8.207,0,0,1,46.845,62.8a2.093,2.093,0,0,0-.115.989c-.008.821.083,1.651,0,2.46a18.6,18.6,0,0,1-.523,2.357,1.981,1.981,0,0,1-.215.552c-.449.743-.9,1.485-1.376,2.212a.962.962,0,0,1-1.338.462,10.718,10.718,0,0,1-1.544-.809c-.439-.262-.837-.6-1.274-.863-.366-.219-.764-.378-1.117-.549.117-.824.789-.489,1.069-.816a.722.722,0,0,0,.164-.526c-.035-.163-.219-.393-.354-.407A8.039,8.039,0,0,0,39,67.911l-.709-1.441c-.439-.172-.913-.36-1.335-.527-.081-.2-.2-.342-.169-.437a4.857,4.857,0,0,0-.508-3.447c-.169-.372-.4-.664-.294-1.113a22.188,22.188,0,0,1,.925-3.745,10.467,10.467,0,0,1,1.952-2.478c.569-.643,1.2-1.223,1.815-1.82a5.709,5.709,0,0,1,.74-.627c.7-.478,1.423-.911,2.113-1.4a13.8,13.8,0,0,1,2.643-1.656,2.905,2.905,0,0,0,1.28-.866A4.69,4.69,0,0,1,49.808,46.7c1.44-.566,2.8-1.358,4.211-2.013,1.764-.818,3.526-1.644,5.323-2.375a31.968,31.968,0,0,0,5-2.581,23.778,23.778,0,0,0,2.725-1.852,9.881,9.881,0,0,1,2.609-1.261c1.252-.524,2.52-1.007,3.785-1.494.6-.231,1.239-.384,1.824-.661a4.96,4.96,0,0,0,2.654-3.041,20.132,20.132,0,0,0,.9-5.21,23.045,23.045,0,0,0-.4-4.263,11.718,11.718,0,0,1-.2-1.2c-.015-2.453-.353-4.877-.521-7.315A41.859,41.859,0,0,1,77.9,8.32c.035-.631.227-1.282.867-1.47a1.686,1.686,0,0,1,1.932.578,10.916,10.916,0,0,1,1.94,3.271,8.2,8.2,0,0,0,1.24,2.755,11.057,11.057,0,0,1,1.265,3.62c.479,1.7.778,3.449,1.176,5.173.122.53.328,1.038.47,1.562.177.651.326,1.309.491,1.964a15.415,15.415,0,0,0,.415,1.567,11.582,11.582,0,0,1,.435,2.995c.112,1.172-.115,2.38.445,3.538a3.585,3.585,0,0,1,.036,2,3.544,3.544,0,0,0-.023,1.795c.5,1.58-.134,3.1-.325,4.64a1.36,1.36,0,0,1-.432.66c-.412.427-.853.819-1.272,1.215" fill="#0f2647"/>
    <path id="패스_2851" data-name="패스 2851" d="M189.56,35.008a17.815,17.815,0,0,1,3.408,3.729,11.64,11.64,0,0,1,.678,2.318,76.024,76.024,0,0,1,2.585,9.608c.232,1.06.591,2.088.831,3.146a15.093,15.093,0,0,0,2.147,5.16,10.517,10.517,0,0,1,1.424,3.547,3.366,3.366,0,0,1-.057.983c-.042.47-.091.94-.138,1.422l1,.79a7.234,7.234,0,0,0,.38,5.14,7.35,7.35,0,0,1,.408,3.4c-.156,1.4-.588,2.022-1.8,1.762a14.87,14.87,0,0,0-4.741.016c-1.558.158-2-.247-2.549-1.814a3.911,3.911,0,0,1-.351-.935,2.056,2.056,0,0,0-.868-1.512,6.145,6.145,0,0,1-2.295-4.944A21.928,21.928,0,0,0,189.243,64a6.651,6.651,0,0,1-.136-1,35.274,35.274,0,0,0-.955-7.443,6.7,6.7,0,0,1-.217-1.2,41.452,41.452,0,0,0-.76-6.26c-.255-1.54-.37-3.1-.614-4.647-.2-1.246-.185-2.562-.312-3.846a4.548,4.548,0,0,1,.119-1.421c.459-2.014.369-2.771,3.192-3.168m5.348,20.712-.228.222c.076.084.147.226.228.233s.154-.14.232-.218l-.232-.237" fill="#0063b0"/>
    <path id="패스_2852" data-name="패스 2852" d="M174.811,77.529c-.519.264-1.03.545-1.556.786A1.993,1.993,0,0,1,170.5,77.7a3.066,3.066,0,0,1-.374-.469,1.322,1.322,0,0,0-1.473-.745c-1.808.444-2.723-.38-3.263-2.177a10.558,10.558,0,0,1-.705-3.364c.032-1.231.016-2.464-.012-3.695a7.707,7.707,0,0,0-.174-1.822c-.275-1.018.354-1.979.014-3.024a6.049,6.049,0,0,1-.388-2.813c.4-2.1-.124-4.251.479-6.313a.82.82,0,0,0-.018-.6c-.823-1.126-.257-2.5-.623-3.716a13.477,13.477,0,0,1-.085-2.426c-.215-1.9.263-3.795-.03-5.692A3.862,3.862,0,0,1,164,39.229c.291-1,.667-1.955,1.918-1.951.3,0,.593-.253.9-.333a.957.957,0,0,1,1.036.343,13.592,13.592,0,0,1,3.291,5.417,21.131,21.131,0,0,1,1.119,5.348,25.347,25.347,0,0,0,.524,3.835c.176,1.141.378,2.278.559,3.419a2.635,2.635,0,0,1,.064.815,10.16,10.16,0,0,0,.3,3.435,46.848,46.848,0,0,1,.858,6.467c.054,1.762.464,3.509.641,5.271.13,1.289.153,2.591.2,3.888a4.081,4.081,0,0,1-.6,2.346m.021-4.907.077-.12-.124-.018Z" fill="#0063b0"/>
    <path id="패스_2853" data-name="패스 2853" d="M145.239,75.311c-.3-1.045-.574-1.941-.81-2.848a6.578,6.578,0,0,1-.182-1.2c-.075-1.125.319-2.223-.128-3.4a20.952,20.952,0,0,1-.544-3.2c-.18-.886.527-1.724.065-2.6.448-1.264-.046-2.538-.009-3.814.065-2.3-.276-4.605-.327-6.912a10.579,10.579,0,0,0-.276-3,6.3,6.3,0,0,1,.223-2.206,3.646,3.646,0,0,0,.028-1.19,3.4,3.4,0,0,1,.033-2.006,1.3,1.3,0,0,0,.115-.791c-.529-1.226-.011-2.412.073-3.609a5.1,5.1,0,0,1,1.1-2.778,2.055,2.055,0,0,1,2.906-.616,5.334,5.334,0,0,1,2.283,3.127c.766,2.5.784,5.1,1.248,7.641a46.748,46.748,0,0,1,.376,8.788,65.7,65.7,0,0,0,.635,7.523,28.543,28.543,0,0,0,1.967,6.993,2.765,2.765,0,0,1,.06,2.351,4.279,4.279,0,0,0-.406,1.353,2.617,2.617,0,0,1-.657,1.442,4.674,4.674,0,0,0-1.487,3.2c.01.561-1.012.868-1.406.414a7.493,7.493,0,0,1-1.047-1.68c-.24-.5-.657-.845-1.055-.682-1.065.435-1.909-.286-2.777-.3" fill="#0063b0"/>
    <path id="패스_2854" data-name="패스 2854" d="M114.229,68.271a4.606,4.606,0,0,0-.158,2.2,7.4,7.4,0,0,1-.517,4.773,10.971,10.971,0,0,0-.535,1.533,2.21,2.21,0,0,1-1.7,1.66,4.7,4.7,0,0,0-3.079-1.25c-1.551-.1-2.264-1.262-2.868-2.412a4.2,4.2,0,0,1-.49-2.765,1.917,1.917,0,0,0-.1-1.171c-.811-1.519-.674-3.148-.653-4.817L105.2,65.3c.059-.792-.65-.6-1.029-1.145a15.031,15.031,0,0,1-.091-3.642,14.719,14.719,0,0,0,.051-3.612c-.229-1.183.055-2.47-.1-3.678a17.15,17.15,0,0,1-.143-5.275,11.871,11.871,0,0,0-.176-2.227,7.836,7.836,0,0,1,.246-2.84,2.205,2.205,0,0,0,.1-1.01,6.8,6.8,0,0,1,.84-3.71c.357-.855,1.3-1.2,1.863-.516,1.163,1.418,2.674,2.547,3.234,4.5a30.425,30.425,0,0,1,1.669,7.97,3.375,3.375,0,0,0,.06.611,50.552,50.552,0,0,1,.807,7.687c.062,1.352.13,2.717.222,4.074a29.138,29.138,0,0,0,.45,3.843,8.257,8.257,0,0,0,1.031,1.942m-8.943-29.615c.1-.048.257-.067.3-.151s-.032-.224-.055-.341l-.4.166.15.326" fill="#0063b0"/>
    <path id="패스_2855" data-name="패스 2855" d="M128.254,78.658l-1.893-1.188a3.233,3.233,0,0,1-.787.221c-1.556.082-2.321-.451-2.966-2.016-.18-.437-.352-.877-.558-1.391.137-.321.289-.68.455-1.07-.984-.974-.916-2.284-.923-3.552-.006-.951.1-1.9.126-2.856.065-2.107.092-4.216.177-6.322a24.185,24.185,0,0,0-.062-4.879,9.49,9.49,0,0,1-.1-2.042c.142-2.426-.04-4.863.274-7.285a7.15,7.15,0,0,0-.149-1.821,5.061,5.061,0,0,1,2.182-4.86,1,1,0,0,1,1.533.218,19.156,19.156,0,0,1,3.1,4.9,8.939,8.939,0,0,1,.647,2.963,20.966,20.966,0,0,0,.344,2.821,65.163,65.163,0,0,1,.647,7.934,10.929,10.929,0,0,0,.39,2.2,26.1,26.1,0,0,0,.711,2.541,15.262,15.262,0,0,0,.83,1.689l-.636,1,.795,1.591a9.992,9.992,0,0,0-.727,3.712c-.058,1.218-.322,2.424-.495,3.636a4.625,4.625,0,0,0-.129,1.007,2.558,2.558,0,0,1-1.96,2.853l.017.055a.68.68,0,0,0-.862,0Zm-2.954-8.1c.018-.053.059-.114.045-.155s-.082-.057-.126-.085c-.023.084-.045.168-.068.252l.149-.012m.027,2.405c.1-.056.255-.091.285-.175s-.071-.215-.115-.325l-.388.239.218.261m2.368-6.363-.211-.034c.031.033.058.088.093.093s.078-.037.118-.059" fill="#0063b0"/>
    <path id="패스_2856" data-name="패스 2856" d="M208.734,51.544c1.068-.213,1.068-.213,1.552-1.452l2.364-.841a16.192,16.192,0,0,1,3.361,3.915,11.32,11.32,0,0,0,2.273,3.5,3.183,3.183,0,0,1,.8,1.826,3.259,3.259,0,0,0,1.2,2.021,5.04,5.04,0,0,1,1.339,1.967,18.027,18.027,0,0,0,.943,1.773,3.752,3.752,0,0,1,.517,3.124,10.484,10.484,0,0,0-.273,2.836,4.917,4.917,0,0,1-.569,2.349c-.356.721-.765,1.412-1.115,2.051-1.336.84-2.545.091-3.7-.268a28.327,28.327,0,0,1-3.7-1.729c-.257-.516-.483-1.079-.8-1.579-.6-.956-1.27-1.857-1.043-3.133.042-.235-.132-.516-.215-.773a8.018,8.018,0,0,1-.487-2.786c.013-.333.013-.818-.175-.982-.891-.774-.538-1.858-.719-2.8a11.034,11.034,0,0,1-.207-1.4,2.732,2.732,0,0,1,.065-1.391c.5-.828.08-1.253-.436-1.719a2.832,2.832,0,0,1-.254-.3c-.443-1.839,1.019-1.868,1.968-2.254.115-.563.05-1.068-.436-1.02a2.713,2.713,0,0,1-2.254-.939m3.365,3.544v.169c.081-.028.161-.056.242-.086-.03-.046-.053-.119-.092-.131s-.1.031-.15.048" fill="#0063b0"/>
    <path id="패스_2857" data-name="패스 2857" d="M72.591,49.982a5.117,5.117,0,0,0,1.05.517c1.44.269,1.944,1.313,2.227,2.7a27.619,27.619,0,0,0,.736,4.214c.19.518-.169,1.237-.063,1.819.559,3.056.205,6.141.358,9.207a11.648,11.648,0,0,0,.786,3.771,25.839,25.839,0,0,1,.9,3.333,1.244,1.244,0,0,1-.027.6c-.309,1.11-.6,2.228-.967,3.317-.486,1.441-.612,1.491-2.277,1.419.18-1.091.168-1.051-.7-1.341a15.275,15.275,0,0,0-1.5-.713c-.48-.1-1.02.174-1.519.122a2.108,2.108,0,0,1-1.8-1.89c-.588-3.194-1.362-6.394-.464-9.68a5.521,5.521,0,0,0,.012-.99c.046-.6.123-1.206.184-1.809.175-1.758.36-3.515.52-5.275.1-1.086.219-2.177.218-3.265a13.518,13.518,0,0,1,1.385-4.866,5.46,5.46,0,0,1,.937-1.191m.683,24.2-.227-.211c-.033.053-.1.139-.094.152a1.845,1.845,0,0,0,.223.219l.1-.16m-2-.39a1.928,1.928,0,0,0-.3-.132c-.023-.006-.111.121-.1.142a1.879,1.879,0,0,0,.2.256c.068-.088.136-.176.2-.266" fill="#0063b0"/>
    <path id="패스_2858" data-name="패스 2858" d="M90.4,78.795l-2.134-1.311c-.79.15-1.451,1.264-2.613.346a2.836,2.836,0,0,0-.235-.685c-1.456-2.593-1.289-5.333-.694-8.12.184-.861.359-1.724.532-2.587a1.584,1.584,0,0,0,.076-.6c-.464-2.141.349-4.177.421-6.257.071-2.041.752-3.994.522-6.082a10.794,10.794,0,0,1,.455-3.217,1.154,1.154,0,0,1,1.261-1.024,4.4,4.4,0,0,1,1.154.036A2.247,2.247,0,0,1,91.1,51.282a33.565,33.565,0,0,0,1.1,5.606.727.727,0,0,1,.028.4c-.492,1.425.078,2.833.036,4.243a34.459,34.459,0,0,1-.423,3.85c-.223,1.552-.556,3.088-.742,4.644-.153,1.282-.193,2.583-.22,3.877a2.888,2.888,0,0,0,.272,1.384c.661,1.2.168,2.226-.332,3.264-.046.1-.212.128-.414.24m-1.037-1.876c-.008-.044,0-.108-.027-.128s-.093-.025-.142-.034l.039.219.13-.057" fill="#0063b0"/>
    <path id="패스_2859" data-name="패스 2859" d="M129.079,78.661c-.275.219-.551.319-.825,0l-.02.056.862,0Z" fill="#0063b0"/>
    <path id="패스_2860" data-name="패스 2860" d="M158.687,26.241c-.238.227-.375.427-.557.5-.089.037-.262-.159-.4-.25a2.061,2.061,0,0,1,.391-.522c.067-.049.277.126.564.271" fill="#fff"/>
    <path id="패스_2861" data-name="패스 2861" d="M159.138,23.932c.046.022.112.032.134.07s-.008.1-.014.153l-.217-.105.1-.118" fill="#fff"/>
    <path id="패스_2862" data-name="패스 2862" d="M215.851,35.8a3.007,3.007,0,0,1,.035.549c-.009.087-.127.16-.2.239-.035-.094-.123-.215-.1-.278a3.615,3.615,0,0,1,.293-.458l-.038-.052" fill="#e24a78"/>
    <path id="패스_2863" data-name="패스 2863" d="M146.634,21.9l.053.159-.139-.02Z" fill="#0f2647"/>
    <path id="패스_2864" data-name="패스 2864" d="M187.163,16.742l-.049-.148.132.022Z" fill="#0f2647"/>
    <path id="패스_2865" data-name="패스 2865" d="M194.908,55.72l.232.237c-.078.078-.161.224-.232.218s-.152-.149-.228-.233l.228-.222" fill="#e24a78"/>
    <path id="패스_2866" data-name="패스 2866" d="M174.832,72.622l-.047-.138.124.018Z" fill="#0063b0"/>
    <path id="패스_2867" data-name="패스 2867" d="M105.286,38.656l-.15-.326.4-.165c.023.116.1.263.056.34s-.2.1-.3.151" fill="#e24a78"/>
    <path id="패스_2868" data-name="패스 2868" d="M125.3,70.561l-.149.012c.022-.084.045-.167.068-.251.044.027.113.046.126.085s-.028.1-.045.154" fill="#0063b0"/>
    <path id="패스_2869" data-name="패스 2869" d="M125.327,72.966l-.217-.261q.193-.12.388-.239c.043.11.143.244.115.325s-.185.119-.286.175" fill="#0063b0"/>
    <path id="패스_2870" data-name="패스 2870" d="M129.1,78.716l-.862,0a.68.68,0,0,1,.862,0" fill="#0063b0"/>
    <path id="패스_2871" data-name="패스 2871" d="M127.695,66.6c-.04.022-.082.064-.118.059s-.062-.06-.093-.093l.211.034" fill="#e24a78"/>
    <path id="패스_2872" data-name="패스 2872" d="M212.1,55.088c.047-.017.106-.06.15-.048s.062.085.092.131c-.081.03-.161.058-.242.086Z" fill="#e24a78"/>
    <path id="패스_2873" data-name="패스 2873" d="M73.274,74.18l-.1.159a2,2,0,0,1-.223-.218c-.011-.014.061-.1.094-.153l.227.212" fill="#0063b0"/>
    <path id="패스_2874" data-name="패스 2874" d="M71.27,73.79l-.2.265a1.879,1.879,0,0,1-.2-.256c-.012-.021.076-.148.1-.142a1.818,1.818,0,0,1,.305.133" fill="#0063b0"/>
    <path id="패스_2875" data-name="패스 2875" d="M89.366,76.919l-.13.057-.039-.219c.049.009.107,0,.142.034s.019.084.027.128" fill="#0063b0"/>
    <path id="패스_2876" data-name="패스 2876" d="M.4,150.986v-.474l.6-.588c1.457-1.386,2.115-2.123,2.124-2.983a1.017,1.017,0,0,0-1.132-1.114,1.943,1.943,0,0,0-1.211.482l-.246-.544a2.506,2.506,0,0,1,1.614-.579,1.6,1.6,0,0,1,1.746,1.658c0,1.054-.763,1.9-1.965,3.063l-.456.421v.017H4.036v.641Z" fill="#161615"/>
    <path id="패스_2877" data-name="패스 2877" d="M8.688,148.073c0,1.94-.719,3.01-1.983,3.01-1.114,0-1.868-1.044-1.886-2.931,0-1.913.825-2.966,1.983-2.966,1.2,0,1.886,1.071,1.886,2.887m-3.1.088c0,1.482.456,2.325,1.158,2.325.79,0,1.167-.921,1.167-2.378,0-1.4-.36-2.325-1.158-2.325-.676,0-1.167.825-1.167,2.378" fill="#161615"/>
    <path id="패스_2878" data-name="패스 2878" d="M9.4,150.986v-.474l.6-.588c1.457-1.386,2.115-2.123,2.124-2.983A1.017,1.017,0,0,0,11,145.827a1.943,1.943,0,0,0-1.211.482l-.246-.544a2.506,2.506,0,0,1,1.614-.579,1.6,1.6,0,0,1,1.746,1.658c0,1.054-.763,1.9-1.965,3.063l-.456.421v.017h2.562v.641Z" fill="#161615"/>
    <path id="패스_2879" data-name="패스 2879" d="M14.089,150.1a2.583,2.583,0,0,0,1.263.359c.992,0,1.3-.631,1.29-1.105-.009-.8-.728-1.141-1.474-1.141h-.43v-.579h.43c.562,0,1.273-.29,1.273-.965,0-.457-.29-.86-1-.86a2.094,2.094,0,0,0-1.141.378l-.2-.562a2.711,2.711,0,0,1,1.491-.439c1.124,0,1.632.667,1.632,1.36a1.417,1.417,0,0,1-1.052,1.343v.017a1.486,1.486,0,0,1,1.272,1.465c0,.913-.711,1.711-2.08,1.711a2.908,2.908,0,0,1-1.482-.385Z" fill="#161615"/>
    <rect id="사각형_819" data-name="사각형 819" width="1.079" height="5.913" transform="translate(20.453 145.074)" fill="#161615"/>
    <path id="패스_2880" data-name="패스 2880" d="M22.789,147.89c0-.439-.009-.8-.035-1.149h.684l.044.7H23.5a1.562,1.562,0,0,1,1.4-.8c.588,0,1.5.35,1.5,1.808v2.535h-.772v-2.449c0-.683-.255-1.253-.983-1.253a1.1,1.1,0,0,0-1.035.789,1.11,1.11,0,0,0-.053.36v2.553h-.772Z" fill="#161615"/>
    <path id="패스_2881" data-name="패스 2881" d="M28.555,145.521v1.22h1.1v.588h-1.1v2.289c0,.527.149.825.579.825a1.691,1.691,0,0,0,.448-.053l.035.579a1.875,1.875,0,0,1-.685.106,1.072,1.072,0,0,1-.833-.325,1.575,1.575,0,0,1-.3-1.106v-2.315h-.659v-.588H27.8v-1.019Z" fill="#161615"/>
    <path id="패스_2882" data-name="패스 2882" d="M30.908,149a1.36,1.36,0,0,0,1.457,1.473,2.792,2.792,0,0,0,1.176-.219l.131.552a3.435,3.435,0,0,1-1.413.264,1.971,1.971,0,0,1-2.087-2.141,2.061,2.061,0,0,1,1.991-2.29,1.8,1.8,0,0,1,1.755,2,2.888,2.888,0,0,1-.026.361Zm2.264-.553A1.1,1.1,0,0,0,32.1,147.2a1.28,1.28,0,0,0-1.185,1.255Z" fill="#161615"/>
    <path id="패스_2883" data-name="패스 2883" d="M34.876,148.065c0-.5-.009-.93-.035-1.324h.675l.027.833h.035a1.273,1.273,0,0,1,1.175-.93.868.868,0,0,1,.22.026v.728a1.14,1.14,0,0,0-.264-.026,1.084,1.084,0,0,0-1.035.992,2.206,2.206,0,0,0-.035.359v2.264h-.763Z" fill="#161615"/>
    <path id="패스_2884" data-name="패스 2884" d="M37.782,147.89c0-.439-.009-.8-.035-1.149h.684l.044.7h.017a1.562,1.562,0,0,1,1.4-.8c.588,0,1.5.35,1.5,1.808v2.535h-.772v-2.449c0-.683-.255-1.253-.983-1.253a1.1,1.1,0,0,0-1.035.789,1.11,1.11,0,0,0-.053.36v2.553h-.772Z" fill="#161615"/>
    <path id="패스_2885" data-name="패스 2885" d="M45.006,150.987l-.061-.535h-.027a1.581,1.581,0,0,1-1.3.632,1.211,1.211,0,0,1-1.3-1.22c0-1.026.913-1.588,2.553-1.579V148.2a.875.875,0,0,0-.965-.982,2.115,2.115,0,0,0-1.1.315l-.176-.509a2.637,2.637,0,0,1,1.4-.377c1.3,0,1.615.886,1.615,1.738v1.587a5.939,5.939,0,0,0,.07,1.018Zm-.114-2.167c-.842-.018-1.8.132-1.8.956a.684.684,0,0,0,.729.737,1.057,1.057,0,0,0,1.026-.711.817.817,0,0,0,.044-.245Z" fill="#161615"/>
    <path id="패스_2886" data-name="패스 2886" d="M47.78,145.521v1.22h1.1v.588h-1.1v2.289c0,.527.149.825.579.825a1.691,1.691,0,0,0,.448-.053l.035.579a1.875,1.875,0,0,1-.685.106,1.072,1.072,0,0,1-.833-.325,1.575,1.575,0,0,1-.3-1.106v-2.315h-.659v-.588h.659v-1.019Z" fill="#161615"/>
    <path id="패스_2887" data-name="패스 2887" d="M50.616,145.547a.479.479,0,0,1-.957,0,.47.47,0,0,1,.483-.482.458.458,0,0,1,.474.482m-.86,1.193h.772v4.246h-.772Z" fill="#161615"/>
    <path id="패스_2888" data-name="패스 2888" d="M55.653,148.828a2.076,2.076,0,0,1-2.114,2.255A2.019,2.019,0,0,1,51.5,148.9a2.073,2.073,0,0,1,2.106-2.255,2.011,2.011,0,0,1,2.044,2.185m-3.369.044c0,.93.535,1.632,1.29,1.632.737,0,1.29-.694,1.29-1.65,0-.719-.36-1.631-1.273-1.631s-1.307.841-1.307,1.649" fill="#161615"/>
    <path id="패스_2889" data-name="패스 2889" d="M56.629,147.89c0-.439-.009-.8-.035-1.149h.684l.044.7h.017a1.562,1.562,0,0,1,1.4-.8c.588,0,1.5.35,1.5,1.808v2.535h-.772v-2.449c0-.683-.255-1.253-.983-1.253a1.1,1.1,0,0,0-1.035.789,1.11,1.11,0,0,0-.053.36v2.553h-.772Z" fill="#161615"/>
    <path id="패스_2890" data-name="패스 2890" d="M63.853,150.987l-.061-.535h-.027a1.583,1.583,0,0,1-1.3.632,1.211,1.211,0,0,1-1.3-1.22c0-1.026.913-1.588,2.553-1.579V148.2a.875.875,0,0,0-.965-.982,2.115,2.115,0,0,0-1.1.315l-.176-.509a2.637,2.637,0,0,1,1.4-.377c1.3,0,1.615.886,1.615,1.738v1.587a5.939,5.939,0,0,0,.07,1.018Zm-.114-2.167c-.842-.018-1.8.132-1.8.956a.684.684,0,0,0,.729.737,1.057,1.057,0,0,0,1.026-.711.817.817,0,0,0,.044-.245Z" fill="#161615"/>
    <rect id="사각형_820" data-name="사각형 820" width="0.772" height="6.229" transform="translate(65.733 144.757)" fill="#161615"/>
    <path id="패스_2891" data-name="패스 2891" d="M73.886,150.811a3.727,3.727,0,0,1-1.527.264,2.79,2.79,0,0,1-3.018-2.975,2.974,2.974,0,0,1,3.159-3.123,3.379,3.379,0,0,1,1.438.263l-.237.86a2.864,2.864,0,0,0-1.158-.228,1.969,1.969,0,0,0-2.07,2.175,1.941,1.941,0,0,0,2.062,2.132,3.014,3.014,0,0,0,1.175-.219Z" fill="#161615"/>
    <path id="패스_2892" data-name="패스 2892" d="M78.67,148.828a2.076,2.076,0,0,1-2.114,2.255A2.019,2.019,0,0,1,74.52,148.9a2.073,2.073,0,0,1,2.106-2.255,2.011,2.011,0,0,1,2.044,2.185m-3.369.044c0,.93.535,1.632,1.29,1.632.737,0,1.29-.694,1.29-1.65,0-.719-.36-1.631-1.273-1.631s-1.307.841-1.307,1.649" fill="#161615"/>
    <path id="패스_2893" data-name="패스 2893" d="M79.647,147.89c0-.439-.009-.8-.035-1.149H80.3l.044.7h.017a1.562,1.562,0,0,1,1.4-.8c.588,0,1.5.35,1.5,1.808v2.535H82.49v-2.449c0-.683-.255-1.253-.983-1.253a1.1,1.1,0,0,0-1.035.789,1.11,1.11,0,0,0-.053.36v2.553h-.772Z" fill="#161615"/>
    <path id="패스_2894" data-name="패스 2894" d="M88.177,146.74c-.017.307-.035.649-.035,1.166v2.466a2.448,2.448,0,0,1-.6,1.94,2.257,2.257,0,0,1-1.545.508,2.739,2.739,0,0,1-1.412-.351l.193-.588a2.389,2.389,0,0,0,1.246.334c.79,0,1.369-.412,1.369-1.484v-.473H87.37a1.516,1.516,0,0,1-1.351.711,1.9,1.9,0,0,1-1.807-2.071,2.037,2.037,0,0,1,1.912-2.254,1.412,1.412,0,0,1,1.325.736h.017l.036-.64Zm-.8,1.676a1.129,1.129,0,0,0-1.123-1.167c-.737,0-1.264.623-1.264,1.605,0,.833.422,1.527,1.255,1.527a1.128,1.128,0,0,0,1.07-.79,1.333,1.333,0,0,0,.062-.412Z" fill="#161615"/>
    <path id="패스_2895" data-name="패스 2895" d="M89.373,148.065c0-.5-.009-.93-.035-1.324h.675l.027.833h.035a1.273,1.273,0,0,1,1.175-.93.868.868,0,0,1,.22.026v.728a1.14,1.14,0,0,0-.264-.026,1.084,1.084,0,0,0-1.035.992,2.206,2.206,0,0,0-.035.359v2.264h-.763Z" fill="#161615"/>
    <path id="패스_2896" data-name="패스 2896" d="M92.586,149a1.36,1.36,0,0,0,1.457,1.473,2.792,2.792,0,0,0,1.176-.219l.131.552a3.435,3.435,0,0,1-1.413.264,1.971,1.971,0,0,1-2.087-2.141,2.061,2.061,0,0,1,1.991-2.29,1.8,1.8,0,0,1,1.755,2,2.888,2.888,0,0,1-.026.361Zm2.264-.553a1.1,1.1,0,0,0-1.07-1.255,1.28,1.28,0,0,0-1.185,1.255Z" fill="#161615"/>
    <path id="패스_2897" data-name="패스 2897" d="M96.449,150.2a2.026,2.026,0,0,0,1.018.308c.561,0,.825-.282.825-.632,0-.368-.22-.571-.79-.781-.763-.272-1.123-.693-1.123-1.2a1.309,1.309,0,0,1,1.465-1.246,2.123,2.123,0,0,1,1.044.263l-.193.561a1.655,1.655,0,0,0-.869-.245c-.456,0-.71.263-.71.579,0,.351.254.509.807.719.737.281,1.114.65,1.114,1.281,0,.747-.579,1.273-1.588,1.273a2.414,2.414,0,0,1-1.193-.29Z" fill="#161615"/>
    <path id="패스_2898" data-name="패스 2898" d="M99.925,150.2a2.026,2.026,0,0,0,1.018.308c.561,0,.825-.282.825-.632,0-.368-.22-.571-.79-.781-.763-.272-1.123-.693-1.123-1.2a1.309,1.309,0,0,1,1.465-1.246,2.123,2.123,0,0,1,1.044.263l-.193.561a1.655,1.655,0,0,0-.869-.245c-.456,0-.71.263-.71.579,0,.351.254.509.807.719.737.281,1.114.65,1.114,1.281,0,.747-.579,1.273-1.588,1.273a2.414,2.414,0,0,1-1.193-.29Z" fill="#161615"/>
    <path id="패스_2899" data-name="패스 2899" d="M109.211,148.828a2.076,2.076,0,0,1-2.114,2.255,2.019,2.019,0,0,1-2.036-2.185,2.073,2.073,0,0,1,2.106-2.255,2.011,2.011,0,0,1,2.044,2.185m-3.369.044c0,.93.535,1.632,1.29,1.632.737,0,1.29-.694,1.29-1.65,0-.719-.36-1.631-1.273-1.631s-1.307.841-1.307,1.649" fill="#161615"/>
    <path id="패스_2900" data-name="패스 2900" d="M110.188,147.89c0-.439-.01-.8-.036-1.149h.684l.044.7h.017a1.562,1.562,0,0,1,1.4-.8c.588,0,1.5.35,1.5,1.808v2.535h-.772v-2.449c0-.683-.255-1.253-.983-1.253a1.1,1.1,0,0,0-1.035.789,1.11,1.11,0,0,0-.053.36v2.553h-.771Z" fill="#161615"/>
    <path id="패스_2901" data-name="패스 2901" d="M122.149,147.968a2.8,2.8,0,0,1-2.834,3.115,2.732,2.732,0,0,1-2.72-3.009,2.83,2.83,0,0,1,2.808-3.1,2.73,2.73,0,0,1,2.746,2.991m-4.413.088c0,1.2.605,2.158,1.641,2.158s1.631-.965,1.631-2.2c0-1.114-.552-2.167-1.631-2.167s-1.641.991-1.641,2.211" fill="#161615"/>
    <path id="패스_2902" data-name="패스 2902" d="M123.066,150.986c.017-.289.035-.72.035-1.1v-5.132h.763v2.667h.018a1.581,1.581,0,0,1,1.447-.781,1.905,1.905,0,0,1,1.79,2.167,2.018,2.018,0,0,1-1.9,2.273,1.512,1.512,0,0,1-1.421-.8h-.027l-.035.7Zm.8-1.7a1.489,1.489,0,0,0,.035.281,1.192,1.192,0,0,0,1.158.9c.807,0,1.29-.659,1.29-1.632,0-.852-.439-1.579-1.263-1.579a1.23,1.23,0,0,0-1.176.947,1.493,1.493,0,0,0-.044.315Z" fill="#161615"/>
    <path id="패스_2903" data-name="패스 2903" d="M128.525,149a1.36,1.36,0,0,0,1.457,1.473,2.793,2.793,0,0,0,1.176-.219l.131.552a3.435,3.435,0,0,1-1.413.264,1.971,1.971,0,0,1-2.087-2.141,2.061,2.061,0,0,1,1.991-2.29,1.8,1.8,0,0,1,1.755,2,2.888,2.888,0,0,1-.026.361Zm2.264-.553a1.1,1.1,0,0,0-1.07-1.255,1.28,1.28,0,0,0-1.185,1.255Z" fill="#161615"/>
    <path id="패스_2904" data-name="패스 2904" d="M132.388,150.2a2.026,2.026,0,0,0,1.018.308c.561,0,.825-.282.825-.632,0-.368-.22-.571-.79-.781-.763-.272-1.123-.693-1.123-1.2a1.309,1.309,0,0,1,1.465-1.246,2.123,2.123,0,0,1,1.044.263l-.193.561a1.655,1.655,0,0,0-.869-.245c-.456,0-.71.263-.71.579,0,.351.254.509.807.719.737.281,1.114.65,1.114,1.281,0,.747-.579,1.273-1.588,1.273a2.414,2.414,0,0,1-1.193-.29Z" fill="#161615"/>
    <path id="패스_2905" data-name="패스 2905" d="M136.83,145.547a.479.479,0,0,1-.957,0,.47.47,0,0,1,.482-.482.459.459,0,0,1,.475.482m-.86,1.193h.772v4.246h-.772Z" fill="#161615"/>
    <path id="패스_2906" data-name="패스 2906" d="M138.954,145.521v1.22h1.105v.588h-1.105v2.289c0,.527.149.825.579.825a1.691,1.691,0,0,0,.448-.053l.035.579a1.875,1.875,0,0,1-.685.106,1.072,1.072,0,0,1-.833-.325,1.575,1.575,0,0,1-.3-1.106v-2.315h-.659v-.588h.659v-1.019Z" fill="#161615"/>
    <path id="패스_2907" data-name="패스 2907" d="M141.289,146.74l.93,2.509c.1.281.2.614.272.869h.017c.079-.255.167-.579.272-.887l.842-2.491h.817l-1.158,3.026a6.458,6.458,0,0,1-1.457,2.659,2.094,2.094,0,0,1-.948.5l-.192-.65a2.027,2.027,0,0,0,.675-.378,2.328,2.328,0,0,0,.649-.859.563.563,0,0,0,.062-.185.672.672,0,0,0-.053-.2l-1.57-3.913Z" fill="#161615"/>
    <path id="패스_2908" data-name="패스 2908" d="M149.356,150.987l-.061-.535h-.027a1.583,1.583,0,0,1-1.3.632,1.211,1.211,0,0,1-1.3-1.22c0-1.026.913-1.588,2.553-1.579V148.2a.875.875,0,0,0-.965-.982,2.115,2.115,0,0,0-1.1.315l-.176-.509a2.637,2.637,0,0,1,1.4-.377c1.3,0,1.615.886,1.615,1.738v1.587a5.94,5.94,0,0,0,.07,1.018Zm-.114-2.167c-.842-.018-1.8.132-1.8.956a.684.684,0,0,0,.729.737,1.057,1.057,0,0,0,1.026-.711.817.817,0,0,0,.044-.245Z" fill="#161615"/>
    <path id="패스_2909" data-name="패스 2909" d="M151.235,147.89c0-.439-.009-.8-.035-1.149h.684l.044.7h.017a1.563,1.563,0,0,1,1.4-.8c.588,0,1.5.35,1.5,1.808v2.535h-.773v-2.449c0-.683-.254-1.253-.982-1.253a1.1,1.1,0,0,0-1.035.789,1.11,1.11,0,0,0-.053.36v2.553h-.772Z" fill="#161615"/>
    <path id="패스_2910" data-name="패스 2910" d="M159.774,144.757v5.133c0,.377.009.807.036,1.1h-.694l-.034-.738h-.017a1.573,1.573,0,0,1-1.449.834,1.936,1.936,0,0,1-1.816-2.158,2.031,2.031,0,0,1,1.9-2.281,1.417,1.417,0,0,1,1.281.649H159v-2.536ZM159,148.468a1.374,1.374,0,0,0-.035-.324,1.136,1.136,0,0,0-1.114-.9c-.8,0-1.273.7-1.273,1.641,0,.859.421,1.57,1.255,1.57a1.161,1.161,0,0,0,1.132-.921,1.359,1.359,0,0,0,.035-.334Z" fill="#161615"/>
    <path id="패스_2911" data-name="패스 2911" d="M167.894,148.573c-.035-.763-.079-1.685-.07-2.482H167.8c-.192.718-.438,1.517-.7,2.263l-.859,2.562H165.4l-.789-2.527c-.229-.754-.439-1.562-.6-2.3H164c-.026.771-.061,1.711-.1,2.517l-.132,2.378h-1.009l.4-5.913h1.422l.772,2.377c.21.693.395,1.4.544,2.054h.027c.157-.641.359-1.369.586-2.063l.817-2.368h1.4l.342,5.913h-1.053Z" fill="#161615"/>
    <path id="패스_2912" data-name="패스 2912" d="M173.469,148.363H171.24V150.1h2.493v.886h-3.572v-5.913h3.44v.886H171.24v1.526h2.229Z" fill="#161615"/>
    <path id="패스_2913" data-name="패스 2913" d="M175.63,145.521v1.22h1.1v.588h-1.1v2.289c0,.527.149.825.579.825a1.671,1.671,0,0,0,.447-.053l.036.579a1.873,1.873,0,0,1-.684.106,1.074,1.074,0,0,1-.834-.325,1.57,1.57,0,0,1-.3-1.106v-2.315h-.658v-.588h.658v-1.019Z" fill="#161615"/>
    <path id="패스_2914" data-name="패스 2914" d="M179.957,150.987l-.061-.535h-.027a1.583,1.583,0,0,1-1.3.632,1.211,1.211,0,0,1-1.3-1.22c0-1.026.913-1.588,2.553-1.579V148.2a.874.874,0,0,0-.964-.982,2.113,2.113,0,0,0-1.106.315l-.176-.509a2.637,2.637,0,0,1,1.4-.377c1.3,0,1.615.886,1.615,1.738v1.587a6.155,6.155,0,0,0,.069,1.018Zm-.114-2.167c-.843-.018-1.8.132-1.8.956a.683.683,0,0,0,.729.737,1.057,1.057,0,0,0,1.026-.711.817.817,0,0,0,.044-.245Z" fill="#161615"/>
    <path id="패스_2915" data-name="패스 2915" d="M181.8,150.986c.018-.289.035-.72.035-1.1v-5.132h.764v2.667h.017a1.581,1.581,0,0,1,1.448-.781,1.905,1.905,0,0,1,1.79,2.167,2.019,2.019,0,0,1-1.9,2.273,1.51,1.51,0,0,1-1.421-.8H182.5l-.035.7Zm.8-1.7a1.49,1.49,0,0,0,.034.281,1.193,1.193,0,0,0,1.158.9c.808,0,1.29-.659,1.29-1.632,0-.852-.438-1.579-1.263-1.579a1.23,1.23,0,0,0-1.176.947,1.5,1.5,0,0,0-.043.315Z" fill="#161615"/>
    <path id="패스_2916" data-name="패스 2916" d="M190.675,148.828a2.076,2.076,0,0,1-2.114,2.255,2.019,2.019,0,0,1-2.036-2.185,2.073,2.073,0,0,1,2.106-2.255,2.011,2.011,0,0,1,2.044,2.185m-3.369.044c0,.93.535,1.632,1.29,1.632.736,0,1.289-.694,1.289-1.65,0-.719-.359-1.631-1.271-1.631s-1.308.841-1.308,1.649" fill="#161615"/>
    <rect id="사각형_821" data-name="사각형 821" width="0.771" height="6.229" transform="translate(191.652 144.757)" fill="#161615"/>
    <path id="패스_2917" data-name="패스 2917" d="M194.583,145.547a.479.479,0,0,1-.957,0,.471.471,0,0,1,.483-.482.458.458,0,0,1,.474.482m-.86,1.193h.771v4.246h-.771Z" fill="#161615"/>
    <path id="패스_2918" data-name="패스 2918" d="M198.8,150.828a2.838,2.838,0,0,1-1.219.246,2.018,2.018,0,0,1-2.115-2.167,2.158,2.158,0,0,1,2.281-2.255,2.584,2.584,0,0,1,1.071.219l-.175.6a1.787,1.787,0,0,0-.9-.2,1.6,1.6,0,0,0-.026,3.194,2.189,2.189,0,0,0,.948-.211Z" fill="#161615"/>
    <path id="패스_2919" data-name="패스 2919" d="M201.528,149.811a2.985,2.985,0,0,0,1.43.377c.693,0,1.079-.324,1.079-.807,0-.447-.3-.711-1.053-.982-.974-.352-1.6-.869-1.6-1.72,0-.966.808-1.7,2.088-1.7a3.124,3.124,0,0,1,1.422.3l-.264.869a2.493,2.493,0,0,0-1.174-.281c-.685,0-.984.368-.984.711,0,.456.343.667,1.132.973,1.026.386,1.527.9,1.527,1.755,0,.947-.719,1.773-2.246,1.773a3.514,3.514,0,0,1-1.6-.369Z" fill="#161615"/>
    <path id="패스_2920" data-name="패스 2920" d="M206.408,146.74l.931,2.509c.1.281.2.614.271.869h.018c.079-.255.167-.579.272-.887l.842-2.491h.816l-1.158,3.026a6.458,6.458,0,0,1-1.457,2.659,2.1,2.1,0,0,1-.947.5l-.193-.65a2.008,2.008,0,0,0,.675-.378,2.34,2.34,0,0,0,.65-.859.556.556,0,0,0,.061-.185.661.661,0,0,0-.052-.2l-1.571-3.913Z" fill="#161615"/>
    <path id="패스_2921" data-name="패스 2921" d="M210.262,147.89c0-.439-.009-.8-.035-1.149h.684l.044.7h.018a1.558,1.558,0,0,1,1.4-.8c.588,0,1.5.35,1.5,1.808v2.535H213.1v-2.449c0-.683-.255-1.253-.983-1.253a1.1,1.1,0,0,0-1.036.789,1.11,1.11,0,0,0-.053.36v2.553h-.771Z" fill="#161615"/>
    <path id="패스_2922" data-name="패스 2922" d="M218.8,144.757v5.133c0,.377.009.807.036,1.1h-.693l-.035-.738h-.017a1.573,1.573,0,0,1-1.449.834,1.936,1.936,0,0,1-1.816-2.158,2.031,2.031,0,0,1,1.9-2.281,1.417,1.417,0,0,1,1.281.649h.018v-2.536Zm-.771,3.711a1.374,1.374,0,0,0-.035-.324,1.136,1.136,0,0,0-1.114-.9c-.8,0-1.273.7-1.273,1.641,0,.859.421,1.57,1.255,1.57a1.161,1.161,0,0,0,1.132-.921,1.359,1.359,0,0,0,.035-.334Z" fill="#161615"/>
    <path id="패스_2923" data-name="패스 2923" d="M220.085,148.065c0-.5-.009-.93-.035-1.324h.676l.026.833h.035a1.272,1.272,0,0,1,1.176-.93.866.866,0,0,1,.219.026v.728a1.142,1.142,0,0,0-.263-.026,1.084,1.084,0,0,0-1.036.992,2.107,2.107,0,0,0-.034.359v2.264h-.764Z" fill="#161615"/>
    <path id="패스_2924" data-name="패스 2924" d="M226.711,148.828a2.076,2.076,0,0,1-2.114,2.255,2.019,2.019,0,0,1-2.036-2.185,2.073,2.073,0,0,1,2.106-2.255,2.011,2.011,0,0,1,2.044,2.185m-3.369.044c0,.93.535,1.632,1.29,1.632.736,0,1.289-.694,1.289-1.65,0-.719-.359-1.631-1.271-1.631s-1.308.841-1.308,1.649" fill="#161615"/>
    <path id="패스_2925" data-name="패스 2925" d="M227.688,147.89c0-.439-.009-.8-.035-1.149h.676l.035.683h.026a1.462,1.462,0,0,1,1.333-.78,1.254,1.254,0,0,1,1.2.85h.018a1.772,1.772,0,0,1,.474-.552,1.448,1.448,0,0,1,.939-.3c.561,0,1.394.368,1.394,1.842v2.5H233v-2.4c0-.815-.3-1.306-.921-1.306a1,1,0,0,0-.912.7,1.245,1.245,0,0,0-.062.387v2.623h-.755v-2.544c0-.676-.3-1.167-.886-1.167a1.144,1.144,0,0,0-1.017,1.149v2.562h-.755Z" fill="#161615"/>
    <path id="패스_2926" data-name="패스 2926" d="M235.439,149a1.36,1.36,0,0,0,1.457,1.473,2.784,2.784,0,0,0,1.175-.219l.132.552a3.429,3.429,0,0,1-1.412.264,1.972,1.972,0,0,1-2.089-2.141,2.062,2.062,0,0,1,1.992-2.29,1.8,1.8,0,0,1,1.755,2,2.888,2.888,0,0,1-.026.361Zm2.264-.553a1.1,1.1,0,0,0-1.07-1.255,1.279,1.279,0,0,0-1.185,1.255Z" fill="#161615"/>
    <path id="패스_2927" data-name="패스 2927" d="M241.268,144.757h.771v2.649h.018a1.446,1.446,0,0,1,.553-.544,1.607,1.607,0,0,1,.79-.218c.57,0,1.482.35,1.482,1.815v2.527h-.771v-2.439c0-.684-.255-1.263-.983-1.263a1.11,1.11,0,0,0-1.036.772.934.934,0,0,0-.053.369v2.561h-.771Z" fill="#161615"/>
    <path id="패스_2928" data-name="패스 2928" d="M249.983,148.828a2.076,2.076,0,0,1-2.114,2.255,2.019,2.019,0,0,1-2.036-2.185,2.073,2.073,0,0,1,2.106-2.255,2.011,2.011,0,0,1,2.044,2.185m-3.369.044c0,.93.535,1.632,1.29,1.632.736,0,1.289-.694,1.289-1.65,0-.719-.359-1.631-1.271-1.631s-1.308.841-1.308,1.649" fill="#161615"/>
    <path id="패스_2929" data-name="패스 2929" d="M250.854,150.2a2.029,2.029,0,0,0,1.018.308c.561,0,.825-.282.825-.632,0-.368-.22-.571-.79-.781-.763-.272-1.123-.693-1.123-1.2a1.31,1.31,0,0,1,1.466-1.246,2.122,2.122,0,0,1,1.043.263l-.193.561a1.657,1.657,0,0,0-.868-.245c-.457,0-.711.263-.711.579,0,.351.254.509.807.719.737.281,1.114.65,1.114,1.281,0,.747-.579,1.273-1.588,1.273a2.414,2.414,0,0,1-1.193-.29Z" fill="#161615"/>
    <path id="패스_2930" data-name="패스 2930" d="M255.366,145.521v1.22h1.105v.588h-1.105v2.289c0,.527.149.825.579.825a1.671,1.671,0,0,0,.447-.053l.036.579a1.873,1.873,0,0,1-.684.106,1.074,1.074,0,0,1-.834-.325,1.57,1.57,0,0,1-.3-1.106v-2.315h-.658v-.588h.658v-1.019Z" fill="#161615"/>
    <path id="패스_2931" data-name="패스 2931" d="M257.718,149a1.36,1.36,0,0,0,1.457,1.473,2.784,2.784,0,0,0,1.175-.219l.132.552a3.429,3.429,0,0,1-1.412.264,1.972,1.972,0,0,1-2.089-2.141,2.062,2.062,0,0,1,1.992-2.29,1.8,1.8,0,0,1,1.755,2,2.888,2.888,0,0,1-.026.361Zm2.264-.553a1.1,1.1,0,0,0-1.07-1.255,1.279,1.279,0,0,0-1.185,1.255Z" fill="#161615"/>
    <path id="패스_2932" data-name="패스 2932" d="M265.353,144.757v5.133c0,.377.009.807.036,1.1H264.7l-.035-.738h-.017a1.573,1.573,0,0,1-1.449.834,1.936,1.936,0,0,1-1.816-2.158,2.031,2.031,0,0,1,1.9-2.281,1.417,1.417,0,0,1,1.281.649h.018v-2.536Zm-.771,3.711a1.374,1.374,0,0,0-.035-.324,1.136,1.136,0,0,0-1.114-.9c-.8,0-1.273.7-1.273,1.641,0,.859.421,1.57,1.255,1.57a1.161,1.161,0,0,0,1.132-.921,1.359,1.359,0,0,0,.035-.334Z" fill="#161615"/>
    <path id="패스_2933" data-name="패스 2933" d="M268.464,150.986c.018-.289.035-.72.035-1.1v-5.132h.764v2.667h.017a1.581,1.581,0,0,1,1.448-.781,1.905,1.905,0,0,1,1.79,2.167,2.019,2.019,0,0,1-1.9,2.273,1.51,1.51,0,0,1-1.421-.8h-.027l-.035.7Zm.8-1.7a1.49,1.49,0,0,0,.034.281,1.193,1.193,0,0,0,1.158.9c.808,0,1.29-.659,1.29-1.632,0-.852-.438-1.579-1.263-1.579a1.23,1.23,0,0,0-1.176.947,1.5,1.5,0,0,0-.043.315Z" fill="#161615"/>
    <path id="패스_2934" data-name="패스 2934" d="M273.713,146.74l.931,2.509c.1.281.2.614.271.869h.018c.079-.255.167-.579.272-.887l.842-2.491h.816l-1.158,3.026a6.457,6.457,0,0,1-1.457,2.659,2.1,2.1,0,0,1-.947.5l-.193-.65a2.009,2.009,0,0,0,.675-.378,2.34,2.34,0,0,0,.65-.859.556.556,0,0,0,.061-.185.661.661,0,0,0-.052-.2l-1.571-3.913Z" fill="#161615"/>
    <path id="패스_2935" data-name="패스 2935" d="M279.455,145.073h.763v2.851h.026c.158-.228.316-.439.466-.631l1.807-2.22h.948l-2.142,2.509,2.308,3.4h-.9l-1.948-2.9-.561.649v2.255h-.763Z" fill="#161615"/>
    <path id="패스_2936" data-name="패스 2936" d="M284.107,150.057a2.71,2.71,0,0,0,1.369.386c.78,0,1.236-.412,1.236-1.009,0-.553-.315-.869-1.114-1.176-.965-.343-1.561-.843-1.561-1.676a1.7,1.7,0,0,1,1.913-1.6,2.681,2.681,0,0,1,1.306.289l-.21.623a2.357,2.357,0,0,0-1.123-.28c-.807,0-1.114.482-1.114.885,0,.553.36.826,1.176,1.141,1,.386,1.509.868,1.509,1.737,0,.913-.676,1.7-2.071,1.7a3.063,3.063,0,0,1-1.509-.377Z" fill="#161615"/>
    <path id="패스_2937" data-name="패스 2937" d="M288.435,150.057a2.71,2.71,0,0,0,1.369.386c.78,0,1.236-.412,1.236-1.009,0-.553-.315-.869-1.114-1.176-.965-.343-1.561-.843-1.561-1.676a1.7,1.7,0,0,1,1.913-1.6,2.681,2.681,0,0,1,1.306.289l-.21.623a2.357,2.357,0,0,0-1.123-.28c-.807,0-1.114.482-1.114.885,0,.553.36.826,1.176,1.141,1,.386,1.509.868,1.509,1.737,0,.913-.676,1.7-2.071,1.7a3.063,3.063,0,0,1-1.509-.377Z" fill="#161615"/>
    <path id="패스_2938" data-name="패스 2938" d="M297.922,147.968c0,2.036-1.237,3.116-2.746,3.116a2.711,2.711,0,0,1-2.659-3,2.81,2.81,0,0,1,2.747-3.106,2.692,2.692,0,0,1,2.658,2.991m-4.589.1c0,1.264.685,2.4,1.887,2.4s1.894-1.115,1.894-2.458c0-1.175-.614-2.4-1.885-2.4s-1.9,1.167-1.9,2.465" fill="#161615"/>
  </g>
</svg>
