<svg xmlns="http://www.w3.org/2000/svg" width="507.406" height="192.068" viewBox="0 0 507.406 192.068">
  <g id="그룹_1181" data-name="그룹 1181" transform="translate(-121.625 -110.002)">
    <g id="그룹_1178" data-name="그룹 1178" transform="translate(-10.032 -6)">
      <path id="패스_2983" data-name="패스 2983" d="M488.025,121.856H20.957c-10.931,0-19.794-8.15-19.794-18.2s8.863-18.2,19.794-18.2H488.025c10.931,0,19.794,8.15,19.794,18.2S498.956,121.856,488.025,121.856Z" transform="translate(130.869 185.839)" fill="none" stroke="#fff" stroke-miterlimit="10" stroke-width="0.75"/>
      <path id="패스_2984" data-name="패스 2984" d="M11.953,102.15a6.885,6.885,0,0,0,3.035.73c1.561,0,2.43-.714,2.43-1.769,0-.994-.708-1.572-2.3-2.205-2.095-.8-3.463-1.986-3.463-3.7,0-2.082,1.8-3.673,4.723-3.673a7,7,0,0,1,2.992.588l-.555,1.855a5.552,5.552,0,0,0-2.49-.561c-1.521,0-2.187.794-2.187,1.557,0,.992.739,1.454,2.485,2.167,2.247.917,3.283,2.081,3.283,3.792,0,2.143-1.738,3.845-5.034,3.845a7.9,7.9,0,0,1-3.428-.735Z" transform="translate(139.264 190.006)" fill="#fff"/>
      <path id="패스_2985" data-name="패스 2985" d="M19.278,99.117c.055,1.808,1.37,2.494,2.878,2.494a7.384,7.384,0,0,0,2.51-.4l.36,1.574a9.018,9.018,0,0,1-3.25.544c-3.1,0-4.87-1.828-4.87-4.691,0-2.723,1.674-4.989,4.613-4.989,2.956,0,4.031,2.274,4.031,4.451a5.27,5.27,0,0,1-.081,1.018Zm3.96-1.584c.013-1.051-.434-2.3-1.878-2.3a2.273,2.273,0,0,0-2.082,2.3Z" transform="translate(143.85 191.454)" fill="#fff"/>
      <path id="패스_2986" data-name="패스 2986" d="M22.693,96.881c0-1.223-.042-2.194-.085-3.039h2.165l.123,1.338h.04a3.524,3.524,0,0,1,3.082-1.531c2.236,0,3.9,1.879,3.9,4.751,0,3.38-2.087,4.947-4.206,4.947a2.975,2.975,0,0,1-2.518-1.164h-.04v4.724H22.693Zm2.463,2.52a2.544,2.544,0,0,0,.083.682,1.964,1.964,0,0,0,1.926,1.483c1.479,0,2.264-1.307,2.264-3.082,0-1.708-.758-3.021-2.222-3.021a2.061,2.061,0,0,0-1.959,1.58,2.245,2.245,0,0,0-.092.62Z" transform="translate(148.633 191.454)" fill="#fff"/>
      <path id="패스_2987" data-name="패스 2987" d="M28.3,99.134a1.461,1.461,0,0,1,1.523-1.494A1.486,1.486,0,1,1,28.3,99.134" transform="translate(153.407 194.187)" fill="#fff"/>
      <path id="패스_2988" data-name="패스 2988" d="M41.555,91.911v1.444L36.24,104.343H33.7L38.971,93.85v-.037H33.064v-1.9Z" transform="translate(157.407 190.265)" fill="#fff"/>
      <path id="패스_2989" data-name="패스 2989" d="M43.087,91.429a12.948,12.948,0,0,0-2.3,7.785,13.126,13.126,0,0,0,2.3,7.732h-1.8a12.259,12.259,0,0,1-2.483-7.74,12.5,12.5,0,0,1,2.483-7.777Z" transform="translate(162.227 189.934)" fill="#fff"/>
      <path id="패스_2990" data-name="패스 2990" d="M45.407,93.585h-3.57V91.639h9.639v1.946h-3.6v10.945H45.407Z" transform="translate(164.77 190.078)" fill="#fff"/>
      <path id="패스_2991" data-name="패스 2991" d="M47.772,91.291h2.47V96.64h.04a3.32,3.32,0,0,1,1.157-.986,3.518,3.518,0,0,1,1.639-.393c1.692,0,3.237,1.1,3.237,3.9v5.6h-2.47v-5.4c0-1.247-.44-2.242-1.718-2.242a1.851,1.851,0,0,0-1.78,1.27,2.122,2.122,0,0,0-.1.706v5.668h-2.47Z" transform="translate(169.75 189.839)" fill="#fff"/>
      <path id="패스_2992" data-name="패스 2992" d="M62.229,100.31c0,1.078.04,2,.083,2.765H60.159l-.125-1.279h-.055a3.48,3.48,0,0,1-2.961,1.471c-1.854,0-3.257-1.1-3.257-3.956V93.763h2.468v5.2c0,1.481.452,2.451,1.679,2.451a1.85,1.85,0,0,0,1.716-1.152,2.023,2.023,0,0,0,.136-.753V93.763h2.468Z" transform="translate(174.776 191.532)" fill="#fff"/>
      <path id="패스_2993" data-name="패스 2993" d="M59.354,106.946a13.184,13.184,0,0,0,2.3-7.777,13.027,13.027,0,0,0-2.3-7.74h1.8a12.13,12.13,0,0,1,2.483,7.748,12.506,12.506,0,0,1-2.483,7.769Z" transform="translate(179.469 189.934)" fill="#fff"/>
      <path id="패스_2994" data-name="패스 2994" d="M64.7,98.8c.145-2.258,1.525-3.634,3.235-3.634a9.091,9.091,0,0,1,2.214.478,11.888,11.888,0,0,0,3.027.708,1.216,1.216,0,0,0,1.212-1.149h1.773c-.125,1.493-.835,3.654-3.257,3.654a18.965,18.965,0,0,1-3.737-.9,7.269,7.269,0,0,0-1.482-.323A1.246,1.246,0,0,0,66.456,98.8Z" transform="translate(183.958 192.496)" fill="#fff"/>
      <path id="패스_2995" data-name="패스 2995" d="M74.229,102.15a6.885,6.885,0,0,0,3.035.73c1.561,0,2.43-.714,2.43-1.769,0-.994-.708-1.572-2.3-2.205-2.095-.8-3.463-1.986-3.463-3.7,0-2.082,1.8-3.673,4.723-3.673a7,7,0,0,1,2.992.588l-.555,1.855a5.551,5.551,0,0,0-2.49-.561c-1.521,0-2.187.794-2.187,1.557,0,.992.739,1.454,2.485,2.167,2.247.917,3.283,2.081,3.283,3.792,0,2.143-1.738,3.845-5.034,3.845a7.9,7.9,0,0,1-3.428-.735Z" transform="translate(191.525 190.006)" fill="#fff"/>
      <path id="패스_2996" data-name="패스 2996" d="M81.553,99.117c.055,1.808,1.37,2.494,2.878,2.494a7.384,7.384,0,0,0,2.51-.4l.36,1.574a9.018,9.018,0,0,1-3.25.544c-3.1,0-4.87-1.828-4.87-4.691,0-2.723,1.674-4.989,4.613-4.989,2.956,0,4.031,2.274,4.031,4.451a5.271,5.271,0,0,1-.081,1.018Zm3.96-1.584c.015-1.051-.434-2.3-1.878-2.3a2.273,2.273,0,0,0-2.082,2.3Z" transform="translate(196.108 191.454)" fill="#fff"/>
      <path id="패스_2997" data-name="패스 2997" d="M84.968,96.881c0-1.223-.042-2.194-.085-3.039h2.165l.123,1.338h.04a3.524,3.524,0,0,1,3.082-1.531c2.236,0,3.9,1.879,3.9,4.751,0,3.38-2.087,4.947-4.206,4.947a2.975,2.975,0,0,1-2.518-1.164h-.04v4.724H84.968ZM87.43,99.4a2.544,2.544,0,0,0,.083.682,1.964,1.964,0,0,0,1.926,1.483c1.479,0,2.264-1.307,2.264-3.082,0-1.708-.758-3.021-2.222-3.021a2.06,2.06,0,0,0-1.959,1.58,2.245,2.245,0,0,0-.092.62Z" transform="translate(200.893 191.454)" fill="#fff"/>
      <path id="패스_2998" data-name="패스 2998" d="M90.572,99.134a1.461,1.461,0,0,1,1.523-1.494,1.486,1.486,0,1,1-1.523,1.494" transform="translate(205.667 194.187)" fill="#fff"/>
      <path id="패스_2999" data-name="패스 2999" d="M96.279,102.773a7.77,7.77,0,0,0,1.339-.054,4.867,4.867,0,0,0,2.439-.928,4.586,4.586,0,0,0,1.65-2.819l-.051-.007A3.571,3.571,0,0,1,98.973,100a3.664,3.664,0,0,1-3.814-3.8,4.41,4.41,0,0,1,4.559-4.4c2.948,0,4.486,2.244,4.486,5.231a7.6,7.6,0,0,1-2.264,5.808,7.115,7.115,0,0,1-4.217,1.7,9.208,9.208,0,0,1-1.444.054Zm1.332-6.727A2.058,2.058,0,0,0,99.63,98.37a2.225,2.225,0,0,0,1.924-.979,1.627,1.627,0,0,0,.145-.8c.006-1.8-.671-3.114-2.1-3.114-1.135,0-2,.982-1.99,2.571" transform="translate(209.517 190.185)" fill="#fff"/>
      <path id="패스_3000" data-name="패스 3000" d="M105.363,91.429a12.947,12.947,0,0,0-2.3,7.785,13.126,13.126,0,0,0,2.3,7.732h-1.8a12.259,12.259,0,0,1-2.483-7.74,12.5,12.5,0,0,1,2.483-7.777Z" transform="translate(214.489 189.934)" fill="#fff"/>
      <path id="패스_3001" data-name="패스 3001" d="M104.625,102.15a6.872,6.872,0,0,0,3.035.73c1.56,0,2.428-.714,2.428-1.769,0-.994-.706-1.572-2.3-2.205-2.095-.8-3.463-1.986-3.463-3.7,0-2.082,1.8-3.673,4.721-3.673a7,7,0,0,1,2.992.588l-.555,1.855A5.542,5.542,0,0,0,109,93.416c-1.521,0-2.189.794-2.189,1.557,0,.992.739,1.454,2.485,2.167,2.247.917,3.283,2.081,3.283,3.792,0,2.143-1.736,3.845-5.032,3.845a7.909,7.909,0,0,1-3.43-.735Z" transform="translate(217.03 190.006)" fill="#fff"/>
      <path id="패스_3002" data-name="패스 3002" d="M115.508,103.154l-.164-1.011h-.059a3.439,3.439,0,0,1-2.742,1.2,2.79,2.79,0,0,1-3.011-2.765c0-2.362,2.262-3.5,5.573-3.494v-.18c0-.721-.309-1.638-1.9-1.633a5.159,5.159,0,0,0-2.483.64l-.486-1.488a7.351,7.351,0,0,1,3.423-.778c3.068,0,3.921,1.811,3.921,3.835v3.464a13,13,0,0,0,.149,2.207Zm-.337-4.591c-1.53-.013-3.217.3-3.217,1.777a1.267,1.267,0,0,0,1.355,1.368,1.839,1.839,0,0,0,1.8-1.221,1.719,1.719,0,0,0,.066-.5Z" transform="translate(221.578 191.454)" fill="#fff"/>
      <path id="패스_3003" data-name="패스 3003" d="M118.493,92.211v2.617h2.3V96.5h-2.3v4.323c0,1.141.377,1.633,1.232,1.633a4.024,4.024,0,0,0,.907-.089l.048,1.732a6.037,6.037,0,0,1-1.745.216,2.971,2.971,0,0,1-2.087-.711,3.387,3.387,0,0,1-.785-2.583V96.5h-1.379V94.827h1.379V92.757Z" transform="translate(225.899 190.47)" fill="#fff"/>
      <path id="패스_3004" data-name="패스 3004" d="M118.554,106.946a13.184,13.184,0,0,0,2.3-7.777,13.027,13.027,0,0,0-2.3-7.74h1.8a12.13,12.13,0,0,1,2.483,7.748,12.494,12.494,0,0,1-2.483,7.769Z" transform="translate(229.149 189.934)" fill="#fff"/>
      <path id="패스_3005" data-name="패스 3005" d="M153.135,104.272a8.533,8.533,0,0,1-3.178.5c-4.087,0-6.54-2.517-6.54-6.46,0-4.456,3.117-6.783,6.88-6.783a7.2,7.2,0,0,1,2.939.5l-.517,1.831a5.939,5.939,0,0,0-2.319-.433c-2.468,0-4.385,1.537-4.385,4.761,0,3.029,1.692,4.662,4.364,4.662a7.015,7.015,0,0,0,2.378-.394Z" transform="translate(250.012 190.006)" fill="#fff"/>
      <path id="패스_3006" data-name="패스 3006" d="M160.969,98.022c0,4.477-2.556,6.778-6.018,6.778-3.623,0-5.8-2.765-5.8-6.574,0-3.929,2.389-6.7,6.012-6.7,3.759,0,5.808,2.878,5.808,6.5m-9.225.175c0,2.682,1.188,4.749,3.333,4.749,2.176,0,3.3-2.178,3.3-4.837,0-2.4-1.05-4.733-3.3-4.733-2.2,0-3.333,2.158-3.333,4.82" transform="translate(254.823 189.998)" fill="#fff"/>
      <path id="패스_3007" data-name="패스 3007" d="M156.717,104.528V91.638h2.676l3.252,5.523a39.938,39.938,0,0,1,2.167,4.249l.05-.007c-.162-1.695-.234-3.454-.234-5.524V91.638h2.253v12.89H164.4l-3.285-5.615a40.337,40.337,0,0,1-2.229-4.343l-.059.01c.1,1.617.147,3.358.147,5.639v4.31Z" transform="translate(261.174 190.077)" fill="#fff"/>
      <path id="패스_3008" data-name="패스 3008" d="M163.766,91.854a21.518,21.518,0,0,1,3.535-.268,6.434,6.434,0,0,1,4.085,1.011,3.149,3.149,0,0,1,1.166,2.593,3.444,3.444,0,0,1-2.455,3.235v.049a3.179,3.179,0,0,1,1.911,2.559,23.4,23.4,0,0,0,1.037,3.531H170.5a15.874,15.874,0,0,1-.881-3.068c-.366-1.68-.989-2.224-2.345-2.246h-1.059v5.314h-2.452Zm2.452,5.715h1.24c1.622,0,2.625-.878,2.625-2.165,0-1.366-.921-2.082-2.523-2.091a6.147,6.147,0,0,0-1.341.106Z" transform="translate(267.09 190.042)" fill="#fff"/>
      <path id="패스_3009" data-name="패스 3009" d="M172.888,100.969l-1.067,3.56h-2.509l4.1-12.892h3.073l4.074,12.892h-2.586l-1.116-3.56Zm3.6-1.725-.954-3.112c-.237-.81-.458-1.781-.651-2.576h-.05c-.191.8-.4,1.794-.629,2.573l-.947,3.115Z" transform="translate(271.743 190.077)" fill="#fff"/>
      <path id="패스_3010" data-name="패스 3010" d="M176.442,91.854a22.754,22.754,0,0,1,3.621-.268,7.989,7.989,0,0,1,5.1,1.363,5.756,5.756,0,0,1,2.1,4.883,6.534,6.534,0,0,1-2.084,5.226,8.744,8.744,0,0,1-5.7,1.621,26.139,26.139,0,0,1-3.047-.158Zm2.465,10.963a8.18,8.18,0,0,0,1.168.056c2.792.012,4.6-1.53,4.6-4.994.011-2.864-1.514-4.517-4.353-4.517a7.413,7.413,0,0,0-1.418.115Z" transform="translate(277.727 190.042)" fill="#fff"/>
      <path id="패스_3011" data-name="패스 3011" d="M185.809,102.149a6.872,6.872,0,0,0,3.035.73c1.56,0,2.428-.714,2.428-1.769,0-.994-.706-1.572-2.3-2.205-2.095-.8-3.463-1.986-3.463-3.7,0-2.082,1.8-3.673,4.721-3.673a7,7,0,0,1,2.992.588l-.555,1.855a5.543,5.543,0,0,0-2.488-.561c-1.521,0-2.189.794-2.189,1.557,0,.992.739,1.454,2.485,2.167,2.248.917,3.283,2.081,3.283,3.793,0,2.143-1.736,3.845-5.032,3.845a7.893,7.893,0,0,1-3.428-.735Z" transform="translate(285.16 190.006)" fill="#fff"/>
      <path id="패스_3012" data-name="패스 3012" d="M193.135,99.116c.055,1.808,1.37,2.494,2.876,2.494a7.377,7.377,0,0,0,2.51-.4l.362,1.574a9.025,9.025,0,0,1-3.25.544c-3.1,0-4.872-1.828-4.872-4.691,0-2.723,1.676-4.989,4.613-4.989,2.956,0,4.033,2.274,4.033,4.451a5.231,5.231,0,0,1-.083,1.018Zm3.958-1.584c.015-1.051-.432-2.3-1.876-2.3a2.271,2.271,0,0,0-2.082,2.3Z" transform="translate(289.743 191.454)" fill="#fff"/>
      <path id="패스_3013" data-name="패스 3013" d="M205.6,98.425a4.553,4.553,0,0,1-4.752,4.92,4.452,4.452,0,0,1-4.649-4.793,4.559,4.559,0,0,1,4.793-4.9,4.426,4.426,0,0,1,4.609,4.778m-6.886.074c0,1.725.771,3.176,2.213,3.176,1.363,0,2.157-1.462,2.157-3.2,0-1.429-.572-3.161-2.159-3.161-1.62,0-2.211,1.692-2.211,3.183" transform="translate(294.306 191.454)" fill="#fff"/>
      <path id="패스_3014" data-name="패스 3014" d="M210.83,100.309c0,1.078.04,2,.085,2.765h-2.152l-.127-1.279h-.055a3.479,3.479,0,0,1-2.959,1.471c-1.858,0-3.259-1.1-3.259-3.956V93.762h2.468v5.2c0,1.481.452,2.451,1.679,2.451a1.85,1.85,0,0,0,1.716-1.152,2.024,2.024,0,0,0,.134-.753V93.762h2.47Z" transform="translate(299.479 191.532)" fill="#fff"/>
      <rect id="사각형_875" data-name="사각형 875" width="2.47" height="13.477" transform="translate(512.87 281.129)" fill="#fff"/>
      <path id="패스_3015" data-name="패스 3015" d="M215.833,91.638v5.209H221V91.638h2.468v12.89H221V98.842h-5.166v5.686h-2.47V91.638Z" transform="translate(308.71 190.077)" fill="#fff"/>
      <path id="패스_3016" data-name="패스 3016" d="M229.366,98.425a4.553,4.553,0,0,1-4.752,4.92,4.452,4.452,0,0,1-4.649-4.793,4.559,4.559,0,0,1,4.793-4.9,4.426,4.426,0,0,1,4.609,4.778m-6.886.074c0,1.725.771,3.176,2.213,3.176,1.363,0,2.157-1.462,2.157-3.2,0-1.429-.572-3.161-2.159-3.161-1.62,0-2.211,1.692-2.211,3.183" transform="translate(314.249 191.454)" fill="#fff"/>
      <path id="패스_3017" data-name="패스 3017" d="M229.449,92.21v2.617h2.3V96.5h-2.3v4.323c0,1.141.377,1.633,1.232,1.633a3.994,3.994,0,0,0,.9-.089l.05,1.732a6.026,6.026,0,0,1-1.745.216,2.971,2.971,0,0,1-2.087-.711,3.387,3.387,0,0,1-.785-2.583V96.5h-1.379V94.827h1.379V92.756Z" transform="translate(319.011 190.469)" fill="#fff"/>
      <path id="패스_3018" data-name="패스 3018" d="M231.905,99.116c.055,1.808,1.37,2.494,2.876,2.494a7.376,7.376,0,0,0,2.51-.4l.362,1.574a9.026,9.026,0,0,1-3.25.544c-3.1,0-4.872-1.828-4.872-4.691,0-2.723,1.675-4.989,4.614-4.989s4.031,2.274,4.031,4.451a5.233,5.233,0,0,1-.083,1.018Zm3.958-1.584c.015-1.051-.432-2.3-1.876-2.3a2.271,2.271,0,0,0-2.082,2.3Z" transform="translate(322.28 191.454)" fill="#fff"/>
      <rect id="사각형_876" data-name="사각형 876" width="2.47" height="13.477" transform="translate(562.385 281.129)" fill="#fff"/>
      <path id="패스_3019" data-name="패스 3019" d="M237.342,102.779a27.908,27.908,0,0,0,1.374-4.977l2.59-.19a23.758,23.758,0,0,1-2.3,5.017Z" transform="translate(328.833 194.169)" fill="#fff"/>
      <path id="패스_3020" data-name="패스 3020" d="M242.781,91.638h2.452v5.936h.057c.314-.509.64-.992.953-1.459l3.244-4.477h2.952l-4.383,5.508,4.624,7.383h-2.832l-3.516-5.85-1.1,1.3v4.546h-2.452Z" transform="translate(333.397 190.077)" fill="#fff"/>
      <path id="패스_3021" data-name="패스 3021" d="M257.82,98.425a4.553,4.553,0,0,1-4.752,4.92,4.452,4.452,0,0,1-4.649-4.793,4.559,4.559,0,0,1,4.793-4.9,4.426,4.426,0,0,1,4.609,4.778m-6.886.074c0,1.725.771,3.176,2.213,3.176,1.363,0,2.157-1.462,2.157-3.2,0-1.429-.572-3.161-2.159-3.161-1.62,0-2.211,1.692-2.211,3.183" transform="translate(338.128 191.454)" fill="#fff"/>
      <path id="패스_3022" data-name="패스 3022" d="M254.646,96.724c0-1.132-.037-2.066-.085-2.883H256.7l.1,1.66h.07a2.818,2.818,0,0,1,2.568-1.853,2.688,2.688,0,0,1,.565.045v2.165a3.6,3.6,0,0,0-.669-.054,2.123,2.123,0,0,0-2.148,1.727,3.5,3.5,0,0,0-.074.765v4.856h-2.47Z" transform="translate(343.282 191.454)" fill="#fff"/>
      <path id="패스_3023" data-name="패스 3023" d="M260.324,99.116c.055,1.808,1.37,2.494,2.876,2.494a7.388,7.388,0,0,0,2.512-.4l.361,1.574a9.008,9.008,0,0,1-3.248.544c-3.1,0-4.872-1.828-4.872-4.691,0-2.723,1.674-4.989,4.613-4.989,2.956,0,4.033,2.274,4.033,4.451a5.061,5.061,0,0,1-.085,1.018Zm3.96-1.584c.013-1.051-.432-2.3-1.876-2.3a2.274,2.274,0,0,0-2.084,2.3Z" transform="translate(346.129 191.454)" fill="#fff"/>
      <path id="패스_3024" data-name="패스 3024" d="M269.309,103.153l-.164-1.011h-.059a3.439,3.439,0,0,1-2.742,1.2,2.79,2.79,0,0,1-3.011-2.765c0-2.362,2.262-3.5,5.573-3.494v-.18c0-.721-.309-1.638-1.9-1.633a5.159,5.159,0,0,0-2.483.64l-.485-1.488a7.351,7.351,0,0,1,3.423-.778c3.068,0,3.921,1.811,3.921,3.835v3.464a13,13,0,0,0,.149,2.207Zm-.337-4.591c-1.53-.013-3.217.3-3.217,1.777a1.267,1.267,0,0,0,1.355,1.368,1.839,1.839,0,0,0,1.8-1.221,1.72,1.72,0,0,0,.066-.5Z" transform="translate(350.645 191.454)" fill="#fff"/>
      <line id="선_213" data-name="선 213" y2="15.354" transform="translate(375.651 281.814)" fill="none" stroke="#fff" stroke-miterlimit="10" stroke-width="0.5"/>
    </g>
    <g id="그룹_1179" data-name="그룹 1179" transform="translate(1 -12)">
      <path id="패스_2946" data-name="패스 2946" d="M3.32,20.85V.619h4.2l5.222,8.674A55.749,55.749,0,0,1,16.2,16.079h.059c-.239-2.7-.33-5.315-.33-8.407V.619h3.423V20.85H15.537l-5.283-8.915A66.72,66.72,0,0,1,6.622,4.971L6.531,5c.15,2.612.18,5.283.18,8.615V20.85Z" transform="translate(132.48 122.464)" fill="#fff"/>
      <path id="패스_2947" data-name="패스 2947" d="M29.141,11.147c0,5.372-3.782,7.774-7.505,7.774-4.142,0-7.324-2.853-7.324-7.533,0-4.8,3.152-7.747,7.565-7.747,4.352,0,7.264,3.063,7.264,7.505m-11.017.15c0,2.822,1.382,4.953,3.632,4.953,2.1,0,3.573-2.072,3.573-5.012,0-2.283-1.02-4.894-3.543-4.894-2.61,0-3.662,2.521-3.662,4.953" transform="translate(140.692 124.723)" fill="#fff"/>
      <path id="패스_2948" data-name="패스 2948" d="M27.284,3.832l1.53,6.634c.33,1.56.66,3.152.931,4.743h.059c.3-1.592.781-3.213,1.2-4.714L32.9,3.832h3l1.831,6.483c.451,1.71.839,3.3,1.169,4.894h.063c.238-1.592.568-3.183.957-4.894L41.54,3.832h3.634L40.581,18.45H37.16l-1.742-5.944a43.769,43.769,0,0,1-1.109-4.682h-.061a39.139,39.139,0,0,1-1.109,4.682L31.276,18.45h-3.45L23.5,3.832Z" transform="translate(147.557 124.864)" fill="#fff"/>
      <path id="패스_2949" data-name="패스 2949" d="M44.834,2.355a2.073,2.073,0,0,1-4.142,0,2.072,2.072,0,0,1,4.142,0M40.9,6.438h3.723V21.056H40.9Z" transform="translate(160.399 122.259)" fill="#fff"/>
      <path id="패스_2950" data-name="패스 2950" d="M45.414,15.2a8.24,8.24,0,0,0,3.753,1.052c1.621,0,2.341-.66,2.341-1.621,0-.992-.6-1.5-2.4-2.133-2.851-.989-4.051-2.551-4.022-4.261,0-2.582,2.131-4.593,5.524-4.593a8.577,8.577,0,0,1,3.872.872l-.722,2.61a6.557,6.557,0,0,0-3.091-.84c-1.321,0-2.042.631-2.042,1.53,0,.931.692,1.38,2.552,2.041,2.642.961,3.872,2.313,3.9,4.474,0,2.642-2.072,4.593-5.944,4.593a9.406,9.406,0,0,1-4.443-1.052Z" transform="translate(163.39 124.724)" fill="#fff"/>
      <path id="패스_2951" data-name="패스 2951" d="M60.788,1.685V5.436H64.3V8.2H60.788V14.65c0,1.772.48,2.7,1.892,2.7a4.516,4.516,0,0,0,1.44-.183l.059,2.823a7.96,7.96,0,0,1-2.671.391,4.286,4.286,0,0,1-3.181-1.232c-.779-.84-1.141-2.161-1.141-4.083V8.2h-2.1V5.436h2.1v-2.7Z" transform="translate(171.152 123.261)" fill="#fff"/>
      <path id="패스_2952" data-name="패스 2952" d="M61.955,0h3.723V8.706h.059a4.942,4.942,0,0,1,1.831-1.681,5,5,0,0,1,2.521-.66c2.493,0,5.1,1.651,5.1,6.335v8.613H71.5V13.119c0-2.131-.781-3.723-2.822-3.723a3.011,3.011,0,0,0-2.851,2.07,3.107,3.107,0,0,0-.15,1.111v8.735H61.955Z" transform="translate(176.285 122.002)" fill="#fff"/>
      <path id="패스_2953" data-name="패스 2953" d="M74.787,12.319c.091,2.64,2.161,3.782,4.5,3.782a11.008,11.008,0,0,0,4.053-.66l.54,2.551a13.705,13.705,0,0,1-5.1.931c-4.742,0-7.533-2.944-7.533-7.415,0-4.053,2.462-7.865,7.144-7.865,4.773,0,6.3,3.9,6.3,7.114a9.174,9.174,0,0,1-.121,1.562Zm6.424-2.582c.03-1.35-.571-3.573-3.031-3.573-2.282,0-3.243,2.072-3.393,3.573Z" transform="translate(183.226 124.724)" fill="#fff"/>
      <path id="패스_2954" data-name="패스 2954" d="M88.276,3.711H82.512V.619H97.791V3.711H91.968V20.851H88.276Z" transform="translate(191.644 122.464)" fill="#fff"/>
      <path id="패스_2955" data-name="패스 2955" d="M96.238,2.355a2.073,2.073,0,0,1-4.142,0,2.072,2.072,0,0,1,4.142,0M92.306,6.438h3.723V21.056H92.306Z" transform="translate(198.803 122.259)" fill="#fff"/>
      <path id="패스_2956" data-name="패스 2956" d="M96.664,8.326c0-1.681-.03-3.092-.119-4.352h3.181l.148,2.161h.091a5.06,5.06,0,0,1,4.5-2.493,4.216,4.216,0,0,1,4.053,2.7h.059a5.529,5.529,0,0,1,1.8-1.831,4.869,4.869,0,0,1,2.94-.872c2.432,0,4.894,1.653,4.894,6.335v8.615h-3.6V10.517c0-2.432-.839-3.872-2.61-3.872a2.819,2.819,0,0,0-2.582,1.95,5.338,5.338,0,0,0-.18,1.232v8.765h-3.6V10.127c0-2.042-.811-3.482-2.521-3.482a2.883,2.883,0,0,0-2.642,2.1,3.159,3.159,0,0,0-.21,1.2v8.645h-3.6Z" transform="translate(202.126 124.723)" fill="#fff"/>
      <path id="패스_2957" data-name="패스 2957" d="M114.187,12.319c.091,2.64,2.163,3.782,4.5,3.782a11.008,11.008,0,0,0,4.053-.66l.54,2.551a13.705,13.705,0,0,1-5.1.931c-4.742,0-7.533-2.944-7.533-7.415,0-4.053,2.46-7.865,7.144-7.865,4.771,0,6.3,3.9,6.3,7.114a9,9,0,0,1-.121,1.562Zm6.424-2.582c.03-1.35-.57-3.573-3.031-3.573-2.282,0-3.243,2.072-3.393,3.573Z" transform="translate(212.66 124.724)" fill="#fff"/>
      <path id="패스_2958" data-name="패스 2958" d="M128.457,1.685V5.436h3.512V8.2h-3.512V14.65c0,1.772.479,2.7,1.89,2.7a4.52,4.52,0,0,0,1.441-.183l.059,2.823a7.967,7.967,0,0,1-2.671.391A4.286,4.286,0,0,1,126,19.154c-.779-.84-1.141-2.161-1.141-4.083V8.2h-2.1V5.436h2.1v-2.7Z" transform="translate(221.706 123.261)" fill="#fff"/>
      <path id="패스_2959" data-name="패스 2959" d="M143.816,11.147c0,5.372-3.782,7.774-7.5,7.774-4.142,0-7.325-2.853-7.325-7.533,0-4.8,3.152-7.747,7.563-7.747,4.354,0,7.266,3.063,7.266,7.505M132.8,11.3c0,2.822,1.382,4.953,3.632,4.953,2.1,0,3.573-2.072,3.573-5.012,0-2.283-1.022-4.894-3.541-4.894-2.612,0-3.664,2.521-3.664,4.953" transform="translate(226.362 124.723)" fill="#fff"/>
      <path id="패스_2960" data-name="패스 2960" d="M157.794,20.391a12.658,12.658,0,0,1-5.22.931c-6.426,0-10.327-4.053-10.327-10.206,0-6.663,4.623-10.687,10.806-10.687a11.587,11.587,0,0,1,4.921.9l-.809,2.94a9.857,9.857,0,0,0-3.962-.779c-4.111,0-7.086,2.582-7.086,7.444,0,4.443,2.614,7.294,7.056,7.294a10.365,10.365,0,0,0,4.022-.749Z" transform="translate(236.269 122.323)" fill="#fff"/>
      <path id="패스_2961" data-name="패스 2961" d="M167.569,11.147c0,5.372-3.782,7.774-7.5,7.774-4.142,0-7.325-2.853-7.325-7.533,0-4.8,3.152-7.747,7.563-7.747,4.355,0,7.266,3.063,7.266,7.505m-11.017.15c0,2.822,1.38,4.953,3.632,4.953,2.1,0,3.573-2.072,3.573-5.012,0-2.283-1.02-4.894-3.541-4.894-2.612,0-3.664,2.521-3.664,4.953" transform="translate(244.108 124.723)" fill="#fff"/>
      <path id="패스_2962" data-name="패스 2962" d="M163.7,8.326c0-1.681-.028-3.092-.117-4.352h3.241L167,6.165h.089a5.276,5.276,0,0,1,4.654-2.523c2.552,0,5.192,1.653,5.192,6.274v8.676h-3.69V10.337c0-2.1-.779-3.692-2.794-3.692A3.1,3.1,0,0,0,167.569,8.8a3.766,3.766,0,0,0-.15,1.2v8.585H163.7Z" transform="translate(252.205 124.723)" fill="#fff"/>
      <path id="패스_2963" data-name="패스 2963" d="M184.342,16.581h-.059a5.065,5.065,0,0,1-4.534,2.343c-3.272,0-6.124-2.853-6.124-7.416,0-5.343,3.421-7.865,6.543-7.865a4.606,4.606,0,0,1,4.265,2.252l.059.03.089-1.95h3.573c-.061,1.321-.121,2.7-.121,4.233V24.535h-3.692Zm0-6.574a4.432,4.432,0,0,0-.091-.9,3.233,3.233,0,0,0-3.15-2.551c-2.373,0-3.723,2.013-3.723,4.773,0,2.671,1.291,4.684,3.632,4.684a3.234,3.234,0,0,0,3.15-2.432,3.706,3.706,0,0,0,.182-1.141Z" transform="translate(259.71 124.723)" fill="#fff"/>
      <path id="패스_2964" data-name="패스 2964" d="M197.935,14.066c0,1.742.059,3.181.119,4.383h-3.241l-.18-2.222h-.058a5.286,5.286,0,0,1-4.684,2.552c-2.673,0-5.1-1.592-5.1-6.363V3.832h3.69v7.953c0,2.432.779,3.992,2.731,3.992a3.115,3.115,0,0,0,2.823-1.979,3.351,3.351,0,0,0,.21-1.143V3.832h3.692Z" transform="translate(268.051 124.864)" fill="#fff"/>
      <path id="패스_2965" data-name="패스 2965" d="M198.291,12.319c.091,2.64,2.163,3.782,4.5,3.782a11.008,11.008,0,0,0,4.053-.66l.54,2.551a13.706,13.706,0,0,1-5.1.931c-4.742,0-7.533-2.944-7.533-7.415,0-4.053,2.46-7.865,7.144-7.865,4.773,0,6.3,3.9,6.3,7.114a9,9,0,0,1-.121,1.562Zm6.424-2.582c.031-1.35-.57-3.573-3.031-3.573-2.282,0-3.243,2.072-3.393,3.573Z" transform="translate(275.492 124.724)" fill="#fff"/>
      <path id="패스_2966" data-name="패스 2966" d="M204.882,8.686c0-1.981-.03-3.391-.119-4.712h3.211l.121,2.79h.119a4.361,4.361,0,0,1,3.992-3.122,3.9,3.9,0,0,1,.87.091V7.215A5.16,5.16,0,0,0,212,7.1a3.252,3.252,0,0,0-3.3,2.79,6.084,6.084,0,0,0-.122,1.141v7.565h-3.692Z" transform="translate(282.973 124.723)" fill="#fff"/>
      <path id="패스_2967" data-name="패스 2967" d="M234.36,10.666c0,6.784-4.113,10.657-9.7,10.657-5.7,0-9.3-4.354-9.3-10.3,0-6.213,3.9-10.6,9.605-10.6,5.912,0,9.4,4.473,9.4,10.236m-15.1.3c0,4.113,2.072,7.413,5.613,7.413,3.571,0,5.582-3.332,5.582-7.563,0-3.814-1.89-7.446-5.582-7.446-3.664,0-5.613,3.423-5.613,7.6" transform="translate(290.889 122.323)" fill="#fff"/>
      <path id="패스_2968" data-name="패스 2968" d="M228.7,0H232.4V8.706h.059a5.3,5.3,0,0,1,4.684-2.343c3.573,0,6.123,2.974,6.094,7.416,0,5.252-3.332,7.865-6.635,7.865a5.032,5.032,0,0,1-4.621-2.523h-.059l-.182,2.191h-3.152c.061-.991.121-2.612.121-4.111ZM232.4,15.28a4.1,4.1,0,0,0,.091.87,3.405,3.405,0,0,0,3.272,2.582c2.31,0,3.721-1.862,3.721-4.8,0-2.582-1.23-4.684-3.693-4.684a3.459,3.459,0,0,0-3.271,2.7,4.336,4.336,0,0,0-.121.961Z" transform="translate(300.769 122.002)" fill="#fff"/>
      <path id="패스_2969" data-name="패스 2969" d="M242.4,12.319c.091,2.64,2.163,3.782,4.5,3.782a11.008,11.008,0,0,0,4.053-.66l.54,2.551a13.706,13.706,0,0,1-5.1.931c-4.742,0-7.533-2.944-7.533-7.415,0-4.053,2.46-7.865,7.144-7.865,4.771,0,6.3,3.9,6.3,7.114a8.99,8.99,0,0,1-.121,1.562Zm6.424-2.582c.03-1.35-.57-3.573-3.031-3.573-2.282,0-3.243,2.072-3.393,3.573Z" transform="translate(308.441 124.724)" fill="#fff"/>
      <path id="패스_2970" data-name="패스 2970" d="M249.142,15.2a8.233,8.233,0,0,0,3.751,1.052c1.621,0,2.341-.66,2.341-1.621,0-.992-.6-1.5-2.4-2.133-2.853-.989-4.053-2.551-4.022-4.261,0-2.582,2.13-4.593,5.522-4.593a8.577,8.577,0,0,1,3.872.872l-.72,2.61a6.569,6.569,0,0,0-3.091-.84c-1.323,0-2.042.631-2.042,1.53,0,.931.69,1.38,2.552,2.041,2.642.961,3.871,2.313,3.9,4.474,0,2.642-2.07,4.593-5.944,4.593a9.412,9.412,0,0,1-4.443-1.052Z" transform="translate(315.588 124.724)" fill="#fff"/>
      <path id="패스_2971" data-name="패스 2971" d="M260.806,2.355a2.073,2.073,0,0,1-4.142,0,2.072,2.072,0,0,1,4.142,0m-3.933,4.083H260.6V21.056h-3.723Z" transform="translate(321.746 122.259)" fill="#fff"/>
      <path id="패스_2972" data-name="패스 2972" d="M266.73,1.685V5.436h3.512V8.2H266.73V14.65c0,1.772.479,2.7,1.89,2.7a4.52,4.52,0,0,0,1.441-.183l.059,2.823a7.967,7.967,0,0,1-2.671.391,4.286,4.286,0,0,1-3.181-1.232c-.779-.84-1.141-2.161-1.141-4.083V8.2h-2.1V5.436h2.1v-2.7Z" transform="translate(325.006 123.261)" fill="#fff"/>
      <path id="패스_2973" data-name="패스 2973" d="M271.758,3.832l2.642,7.834c.3.9.6,2.013.811,2.851h.089c.241-.839.51-1.92.781-2.881l2.282-7.8h3.962L278.661,13.8c-2.009,5.463-3.361,7.9-5.1,9.4a7.427,7.427,0,0,1-3.873,1.89l-.84-3.122a6.291,6.291,0,0,0,2.161-1.02,6.44,6.44,0,0,0,2.013-2.31,1.493,1.493,0,0,0,.239-.662,1.553,1.553,0,0,0-.211-.72L267.707,3.832Z" transform="translate(329.996 124.864)" fill="#fff"/>
      <path id="패스_2974" data-name="패스 2974" d="M185.756,45.317H173.621a21.486,21.486,0,0,1,21.573-21.5A20.712,20.712,0,0,1,210.4,30.111a20.728,20.728,0,0,1,6.33,15.207,21.423,21.423,0,0,1-2.919,10.6,50.968,50.968,0,0,1-7.3,9.888,70.578,70.578,0,0,1-6.815,6.628h16.779v12.1H173.4l2.058-6.89a131.892,131.892,0,0,0,19.738-17.249,65.972,65.972,0,0,0,6.761-8.5q2.6-3.991,2.6-6.574a9.4,9.4,0,0,0-18.8,0" transform="translate(259.54 139.796)" fill="#fff"/>
      <path id="패스_2975" data-name="패스 2975" d="M223.857,23.819q10.789,0,17.268,9.139,6.255,8.69,6.255,21.349,0,12.734-6.255,21.424-6.517,9.1-17.268,9.1c-14.909,0-23.519-14.3-23.519-30.527,0-16.183,8.664-30.488,23.519-30.488m-.037,12.21a8.817,8.817,0,0,0-7.415,3.933q-3.973,5.655-3.971,14.345,0,8.8,3.971,14.345a8.994,8.994,0,0,0,14.869,0q3.934-5.509,3.933-14.345,0-8.766-3.933-14.345a8.858,8.858,0,0,0-7.455-3.933" transform="translate(279.667 139.796)" fill="#fff"/>
      <path id="패스_2976" data-name="패스 2976" d="M241.76,45.317H229.625a21.486,21.486,0,0,1,21.573-21.5A20.712,20.712,0,0,1,266.4,30.111a20.728,20.728,0,0,1,6.33,15.207,21.422,21.422,0,0,1-2.919,10.6,50.972,50.972,0,0,1-7.3,9.888,70.584,70.584,0,0,1-6.815,6.628h16.779v12.1H229.4l2.058-6.89c6.735-4.735,19.738-17.249,19.738-17.249s5.026-5.842,6.761-8.5,2.6-4.852,2.6-6.574a9.4,9.4,0,0,0-18.8,0" transform="translate(301.379 139.796)" fill="#fff"/>
      <path id="패스_2977" data-name="패스 2977" d="M283.946,65.071a10.316,10.316,0,0,0-3.782-7.809q-3.781-3.428-10.9-3.765l2.547-5.018q4.756-.9,6.931-3.129a6.922,6.922,0,0,0,2.172-4.923l-.114.073a4.922,4.922,0,0,0-4.869-4.867,4.821,4.821,0,0,0-4.757,3.858l-12.06-2.586A17.452,17.452,0,0,1,275.93,23.346a17.137,17.137,0,0,1,17.155,17.193A16.8,16.8,0,0,1,289.751,50.8a3.8,3.8,0,0,1,.412.335,19.286,19.286,0,0,1,0,28.018,19.648,19.648,0,0,1-14.233,5.729,20,20,0,0,1-12.359-4.12,19.054,19.054,0,0,1-7.229-10.825l11.912-3.035c.674,3.042,3.955,5.619,7.715,5.619a7.7,7.7,0,0,0,7.977-7.453" transform="translate(321.506 139.443)" fill="#fff"/>
      <rect id="사각형_874" data-name="사각형 874" width="12.516" height="62.274" transform="translate(133.669 164.1)" fill="#fff"/>
      <path id="패스_2978" data-name="패스 2978" d="M43.96,74.455a18.927,18.927,0,0,1-18.93-18.93A18.435,18.435,0,0,1,30.593,42.12,18.061,18.061,0,0,1,43.96,36.557a18.349,18.349,0,0,1,12.89,5.1,36.467,36.467,0,0,1,6.8-10.76,31.506,31.506,0,0,0-19.728-7.086,30.412,30.412,0,0,0-22.291,9.31,30.646,30.646,0,0,0-9.272,22.368,30.436,30.436,0,0,0,9.272,22.329,30.637,30.637,0,0,0,22.291,9.193,31.354,31.354,0,0,0,19.786-6.873,36.065,36.065,0,0,1-6.845-10.75,18.259,18.259,0,0,1-12.9,5.068" transform="translate(139.233 139.789)" fill="#fff"/>
      <path id="패스_2979" data-name="패스 2979" d="M93.317,33.118a30.5,30.5,0,0,1,9.31,22.368,30.288,30.288,0,0,1-9.31,22.329A30.565,30.565,0,0,1,70.988,87.01a30.683,30.683,0,0,1-22.329-9.195,30.436,30.436,0,0,1-9.272-22.329,30.651,30.651,0,0,1,9.272-22.368,30.455,30.455,0,0,1,22.329-9.31,30.455,30.455,0,0,1,22.329,9.31M57.583,42a18.93,18.93,0,0,0,0,26.811,18.98,18.98,0,0,0,26.772,0,18.842,18.842,0,0,0,0-26.811,18.887,18.887,0,0,0-26.772,0" transform="translate(159.425 139.788)" fill="#fff"/>
      <path id="패스_2980" data-name="패스 2980" d="M109.151,65.093l30.481-41.837V87H127.114V61.192l-17.963,24.8-18-24.8V87H78.631V23.256Z" transform="translate(188.743 139.376)" fill="#fff"/>
      <path id="패스_2981" data-name="패스 2981" d="M155.515,24.008V36.485H130.481V49.041h18.776V61.519H130.481V74.073h25.034V86.514h-37.55V24.008Z" transform="translate(218.128 139.938)" fill="#fff"/>
      <path id="패스_2982" data-name="패스 2982" d="M160.892,74.346c3.457,0,7.273-2.87,7.273-6.328,0-5.685-7.631-6.478-11.938-7.97-7.595-2.587-14.3-8.821-14.3-17.3a19,19,0,0,1,37.814-2.626l-12.429,2.626a6.318,6.318,0,0,0-12.637.037c0,5.61,7.1,7.1,11.428,8.388,7.858,2.266,14.789,8.253,14.789,16.924,0,10.5-9.424,18.982-19.908,18.982-9.633,0-18.341-7.065-19.756-16.339l12.429-2.643c0,3.475,3.777,6.309,7.291,6.309Z" transform="translate(235.51 139.77)" fill="#fff"/>
      <path id="패스_3025" data-name="패스 3025" d="M0,79.339v-.786l1-.973c2.414-2.3,3.5-3.52,3.52-4.946a1.688,1.688,0,0,0-1.876-1.848,3.215,3.215,0,0,0-2.007.8l-.409-.9a4.155,4.155,0,0,1,2.677-.959A2.66,2.66,0,0,1,5.8,72.473c0,1.745-1.265,3.157-3.258,5.077l-.756.7v.03H6.036v1.062Z" transform="translate(130 174.092)" fill="#fff"/>
      <path id="패스_3026" data-name="패스 3026" d="M10.612,74.511c0,3.215-1.192,4.988-3.286,4.988-1.848,0-3.1-1.73-3.127-4.857,0-3.171,1.366-4.918,3.286-4.918,1.993,0,3.127,1.775,3.127,4.787m-5.135.145c0,2.458.756,3.854,1.92,3.854,1.31,0,1.934-1.527,1.934-3.941,0-2.327-.6-3.854-1.918-3.854-1.12,0-1.936,1.366-1.936,3.941" transform="translate(133.136 174.091)" fill="#fff"/>
      <path id="패스_3027" data-name="패스 3027" d="M8.545,79.339v-.786l1-.973c2.414-2.3,3.5-3.52,3.52-4.946a1.688,1.688,0,0,0-1.876-1.848,3.215,3.215,0,0,0-2.007.8l-.409-.9a4.155,4.155,0,0,1,2.677-.959,2.66,2.66,0,0,1,2.895,2.748c0,1.745-1.265,3.157-3.258,5.077l-.756.7v.03h4.247v1.062Z" transform="translate(136.384 174.092)" fill="#fff"/>
      <path id="패스_3028" data-name="패스 3028" d="M13.142,77.87a4.282,4.282,0,0,0,2.095.6c1.644,0,2.152-1.046,2.137-1.833-.014-1.323-1.205-1.89-2.442-1.89h-.713v-.961h.713c.931,0,2.109-.479,2.109-1.6,0-.756-.48-1.426-1.658-1.426a3.477,3.477,0,0,0-1.89.625l-.335-.931a4.5,4.5,0,0,1,2.472-.727c1.862,0,2.706,1.106,2.706,2.254A2.349,2.349,0,0,1,16.589,74.2v.03A2.461,2.461,0,0,1,18.7,76.663c0,1.513-1.178,2.836-3.447,2.836a4.805,4.805,0,0,1-2.458-.639Z" transform="translate(139.558 174.092)" fill="#fff"/>
      <rect id="사각형_877" data-name="사각형 877" width="2.226" height="9.805" transform="translate(163.249 243.626)" fill="#fff"/>
      <path id="패스_3029" data-name="패스 3029" d="M21.487,73.172c0-.727-.012-1.324-.059-1.906h1.136l.073,1.164h.028a2.591,2.591,0,0,1,2.329-1.323c.973,0,2.486.582,2.486,3v4.2H26.2V74.248c0-1.136-.423-2.081-1.63-2.081a1.821,1.821,0,0,0-1.717,1.31,1.9,1.9,0,0,0-.086.6v4.233H21.487Z" transform="translate(146.008 175.124)" fill="#fff"/>
      <path id="패스_3030" data-name="패스 3030" d="M27.935,70.041v2.021h1.833v.975H27.935v3.8c0,.874.246,1.366.959,1.366a2.776,2.776,0,0,0,.743-.087l.058.961a3.136,3.136,0,0,1-1.134.175,1.772,1.772,0,0,1-1.382-.538,2.609,2.609,0,0,1-.494-1.833v-3.84h-1.09v-.975h1.09V70.375Z" transform="translate(149.12 174.327)" fill="#fff"/>
      <path id="패스_3031" data-name="패스 3031" d="M29.689,75.019A2.255,2.255,0,0,0,32.1,77.463a4.638,4.638,0,0,0,1.948-.363l.218.915a5.683,5.683,0,0,1-2.341.437A3.269,3.269,0,0,1,28.466,74.9c0-2.124,1.253-3.8,3.3-3.8,2.3,0,2.911,2.021,2.911,3.316a4.523,4.523,0,0,1-.045.6Zm3.753-.915a1.824,1.824,0,0,0-1.775-2.081A2.123,2.123,0,0,0,29.7,74.1Z" transform="translate(151.266 175.124)" fill="#fff"/>
      <path id="패스_3032" data-name="패스 3032" d="M32.956,73.462c0-.83-.014-1.541-.059-2.2h1.122l.044,1.382h.058a2.111,2.111,0,0,1,1.95-1.541,1.443,1.443,0,0,1,.363.042v1.207A1.993,1.993,0,0,0,36,72.312a1.8,1.8,0,0,0-1.717,1.644,3.748,3.748,0,0,0-.058.6v3.753H32.956Z" transform="translate(154.577 175.124)" fill="#fff"/>
      <path id="패스_3033" data-name="패스 3033" d="M35.713,73.172c0-.727-.014-1.324-.059-1.906H36.79l.073,1.164h.028a2.589,2.589,0,0,1,2.329-1.323c.973,0,2.486.582,2.486,3v4.2H40.425V74.248c0-1.136-.421-2.081-1.628-2.081a1.821,1.821,0,0,0-1.717,1.31,1.848,1.848,0,0,0-.086.6v4.233H35.713Z" transform="translate(156.636 175.124)" fill="#fff"/>
      <path id="패스_3034" data-name="패스 3034" d="M44.444,78.306l-.1-.887H44.3a2.621,2.621,0,0,1-2.152,1.048,2.006,2.006,0,0,1-2.152-2.021c0-1.7,1.513-2.635,4.231-2.619v-.145a1.45,1.45,0,0,0-1.6-1.63,3.508,3.508,0,0,0-1.833.524l-.292-.844a4.362,4.362,0,0,1,2.313-.625c2.152,0,2.677,1.469,2.677,2.881v2.631a9.9,9.9,0,0,0,.115,1.688Zm-.189-3.592c-1.4-.03-2.982.218-2.982,1.585A1.132,1.132,0,0,0,42.48,77.52a1.754,1.754,0,0,0,1.7-1.178,1.386,1.386,0,0,0,.072-.407Z" transform="translate(159.879 175.124)" fill="#fff"/>
      <path id="패스_3035" data-name="패스 3035" d="M46.175,70.041v2.021h1.833v.975H46.175v3.8c0,.874.248,1.366.959,1.366a2.776,2.776,0,0,0,.742-.087l.058.961a3.136,3.136,0,0,1-1.134.175,1.772,1.772,0,0,1-1.382-.538,2.609,2.609,0,0,1-.494-1.833v-3.84h-1.09v-.975h1.09V70.375Z" transform="translate(162.747 174.327)" fill="#fff"/>
      <path id="패스_3036" data-name="패스 3036" d="M48.542,70.408a.793.793,0,0,1-1.586,0,.781.781,0,0,1,.8-.8.76.76,0,0,1,.786.8m-1.426,1.978H48.4v7.041H47.117Z" transform="translate(165.079 174.004)" fill="#fff"/>
      <path id="패스_3037" data-name="패스 3037" d="M55.585,74.728a3.44,3.44,0,0,1-3.5,3.739,3.347,3.347,0,0,1-3.375-3.622A3.438,3.438,0,0,1,52.2,71.106a3.333,3.333,0,0,1,3.389,3.622M50,74.8c0,1.543.888,2.706,2.138,2.706,1.221,0,2.138-1.15,2.138-2.736,0-1.193-.6-2.7-2.109-2.7S50,73.463,50,74.8" transform="translate(166.386 175.124)" fill="#fff"/>
      <path id="패스_3038" data-name="패스 3038" d="M53.594,73.172c0-.727-.014-1.324-.059-1.906h1.136l.073,1.164h.028A2.589,2.589,0,0,1,57.1,71.107c.973,0,2.486.582,2.486,3v4.2H58.306V74.248c0-1.136-.421-2.081-1.628-2.081a1.821,1.821,0,0,0-1.717,1.31,1.848,1.848,0,0,0-.086.6v4.233H53.594Z" transform="translate(169.995 175.124)" fill="#fff"/>
      <path id="패스_3039" data-name="패스 3039" d="M62.326,78.306l-.1-.887h-.044a2.621,2.621,0,0,1-2.152,1.048,2.006,2.006,0,0,1-2.152-2.021c0-1.7,1.513-2.635,4.231-2.619v-.145a1.45,1.45,0,0,0-1.6-1.63,3.5,3.5,0,0,0-1.833.524l-.292-.844a4.362,4.362,0,0,1,2.313-.625c2.152,0,2.677,1.469,2.677,2.881v2.631a9.9,9.9,0,0,0,.115,1.688Zm-.189-3.592c-1.4-.03-2.982.218-2.982,1.585a1.132,1.132,0,0,0,1.207,1.221,1.754,1.754,0,0,0,1.7-1.178,1.386,1.386,0,0,0,.072-.407Z" transform="translate(173.237 175.124)" fill="#fff"/>
      <rect id="사각형_878" data-name="사각형 878" width="1.281" height="10.327" transform="translate(238.678 243.103)" fill="#fff"/>
      <path id="패스_3040" data-name="패스 3040" d="M73.271,79.211a6.341,6.341,0,0,1-2.516.421c-3.389,0-5.135-2.109-5.135-4.9a5,5,0,0,1,5.353-5.208,5.772,5.772,0,0,1,2.414.437l-.451,1.759a4.8,4.8,0,0,0-1.862-.363,3.223,3.223,0,0,0,.014,6.443,5.553,5.553,0,0,0,1.848-.32Z" transform="translate(179.023 173.941)" fill="#fff"/>
      <path id="패스_3041" data-name="패스 3041" d="M77.481,74.728a3.44,3.44,0,0,1-3.5,3.739A3.347,3.347,0,0,1,70.6,74.845a3.438,3.438,0,0,1,3.491-3.739,3.333,3.333,0,0,1,3.389,3.622M71.9,74.8c0,1.543.887,2.706,2.138,2.706,1.221,0,2.138-1.15,2.138-2.736,0-1.193-.6-2.7-2.109-2.7S71.9,73.463,71.9,74.8" transform="translate(182.744 175.124)" fill="#fff"/>
      <path id="패스_3042" data-name="패스 3042" d="M75.49,73.172c0-.727-.014-1.324-.059-1.906h1.136l.073,1.164h.028A2.589,2.589,0,0,1,79,71.107c.973,0,2.486.582,2.486,3v4.2H80.2V74.248c0-1.136-.421-2.081-1.628-2.081a1.821,1.821,0,0,0-1.717,1.31,1.848,1.848,0,0,0-.086.6v4.233H75.49Z" transform="translate(186.353 175.124)" fill="#fff"/>
      <path id="패스_3043" data-name="패스 3043" d="M86.371,71.266c-.03.508-.059,1.076-.059,1.934v4.088c0,1.614-.32,2.6-1,3.215a3.735,3.735,0,0,1-2.559.844,4.557,4.557,0,0,1-2.343-.582l.32-.975a3.984,3.984,0,0,0,2.067.552c1.309,0,2.268-.683,2.268-2.458V77.1h-.028a2.513,2.513,0,0,1-2.24,1.179,3.147,3.147,0,0,1-3-3.433c0-2.385,1.557-3.737,3.173-3.737a2.342,2.342,0,0,1,2.2,1.221h.028l.058-1.062Zm-1.324,2.778a1.869,1.869,0,0,0-1.862-1.934c-1.221,0-2.095,1.033-2.095,2.661,0,1.382.7,2.532,2.081,2.532a1.872,1.872,0,0,0,1.775-1.309,2.26,2.26,0,0,0,.1-.685Z" transform="translate(189.612 175.124)" fill="#fff"/>
      <path id="패스_3044" data-name="패스 3044" d="M84.718,73.462c0-.83-.014-1.541-.059-2.2h1.122l.044,1.382h.058a2.112,2.112,0,0,1,1.95-1.541,1.443,1.443,0,0,1,.363.042v1.207a1.994,1.994,0,0,0-.437-.044,1.8,1.8,0,0,0-1.716,1.644,3.546,3.546,0,0,0-.059.6v3.753H84.718Z" transform="translate(193.246 175.124)" fill="#fff"/>
      <path id="패스_3045" data-name="패스 3045" d="M88.264,75.019a2.255,2.255,0,0,0,2.414,2.444,4.638,4.638,0,0,0,1.948-.363l.218.915a5.683,5.683,0,0,1-2.341.437A3.269,3.269,0,0,1,87.041,74.9c0-2.124,1.253-3.8,3.3-3.8,2.3,0,2.911,2.021,2.911,3.316a4.522,4.522,0,0,1-.045.6Zm3.753-.915a1.824,1.824,0,0,0-1.775-2.081A2.122,2.122,0,0,0,88.278,74.1Z" transform="translate(195.026 175.124)" fill="#fff"/>
      <path id="패스_3046" data-name="패스 3046" d="M91.543,77a3.348,3.348,0,0,0,1.688.51c.931,0,1.366-.466,1.366-1.048,0-.611-.363-.945-1.309-1.295-1.265-.451-1.862-1.15-1.862-1.993a2.172,2.172,0,0,1,2.43-2.065,3.52,3.52,0,0,1,1.731.437l-.321.931a2.733,2.733,0,0,0-1.44-.409c-.756,0-1.178.439-1.178.961,0,.582.421.844,1.338,1.193,1.221.465,1.847,1.076,1.847,2.124,0,1.235-.959,2.107-2.633,2.107a4.024,4.024,0,0,1-1.978-.479Z" transform="translate(198.149 175.124)" fill="#fff"/>
      <path id="패스_3047" data-name="패스 3047" d="M94.841,77a3.348,3.348,0,0,0,1.688.51c.931,0,1.366-.466,1.366-1.048,0-.611-.363-.945-1.309-1.295-1.265-.451-1.862-1.15-1.862-1.993a2.172,2.172,0,0,1,2.43-2.065,3.52,3.52,0,0,1,1.731.437l-.321.931a2.733,2.733,0,0,0-1.44-.409c-.756,0-1.178.439-1.178.961,0,.582.421.844,1.338,1.193,1.221.465,1.847,1.076,1.847,2.124,0,1.235-.959,2.107-2.633,2.107a4.023,4.023,0,0,1-1.978-.479Z" transform="translate(200.613 175.124)" fill="#fff"/>
      <path id="패스_3048" data-name="패스 3048" d="M106.456,74.728a3.44,3.44,0,0,1-3.5,3.739,3.347,3.347,0,0,1-3.375-3.622,3.438,3.438,0,0,1,3.491-3.739,3.333,3.333,0,0,1,3.389,3.622m-5.585.073c0,1.543.887,2.706,2.138,2.706,1.221,0,2.138-1.15,2.138-2.736,0-1.193-.6-2.7-2.109-2.7s-2.168,1.4-2.168,2.734" transform="translate(204.391 175.124)" fill="#fff"/>
      <path id="패스_3049" data-name="패스 3049" d="M104.465,73.172c0-.727-.014-1.324-.059-1.906h1.136l.073,1.164h.028a2.589,2.589,0,0,1,2.329-1.323c.973,0,2.486.582,2.486,3v4.2h-1.281V74.248c0-1.136-.421-2.081-1.628-2.081a1.817,1.817,0,0,0-1.716,1.31,1.8,1.8,0,0,0-.087.6v4.233h-1.281Z" transform="translate(207.999 175.124)" fill="#fff"/>
      <path id="패스_3050" data-name="패스 3050" d="M119.937,74.485c0,3.215-1.95,5.163-4.815,5.163-2.909,0-4.611-2.2-4.611-4.988,0-2.939,1.876-5.135,4.771-5.135,3.01,0,4.654,2.254,4.654,4.96m-7.084.131c0,1.92.9,3.272,2.387,3.272s2.355-1.426,2.355-3.332c0-1.759-.844-3.272-2.371-3.272-1.5,0-2.371,1.426-2.371,3.332" transform="translate(212.561 173.942)" fill="#fff"/>
      <path id="패스_3051" data-name="패스 3051" d="M116.766,79.645c.03-.482.059-1.195.059-1.819v-8.51h1.265v4.422h.03a2.619,2.619,0,0,1,2.4-1.295c1.745,0,2.982,1.454,2.968,3.594,0,2.518-1.586,3.767-3.157,3.767a2.51,2.51,0,0,1-2.357-1.323h-.044l-.058,1.164Zm1.324-2.823a2.468,2.468,0,0,0,.058.465,1.976,1.976,0,0,0,1.92,1.5c1.338,0,2.138-1.092,2.138-2.7,0-1.41-.727-2.619-2.095-2.619a2.041,2.041,0,0,0-1.95,1.572,2.582,2.582,0,0,0-.072.524Z" transform="translate(217.232 173.786)" fill="#fff"/>
      <path id="패스_3052" data-name="패스 3052" d="M122.47,75.019a2.255,2.255,0,0,0,2.414,2.444,4.638,4.638,0,0,0,1.948-.363l.218.915a5.683,5.683,0,0,1-2.341.437,3.269,3.269,0,0,1-3.463-3.548c0-2.124,1.253-3.8,3.3-3.8,2.3,0,2.911,2.021,2.911,3.316a4.519,4.519,0,0,1-.045.6Zm3.753-.915a1.824,1.824,0,0,0-1.775-2.081,2.123,2.123,0,0,0-1.964,2.081Z" transform="translate(220.58 175.124)" fill="#fff"/>
      <path id="패스_3053" data-name="패스 3053" d="M125.748,77a3.348,3.348,0,0,0,1.688.51c.931,0,1.366-.466,1.366-1.048,0-.611-.363-.945-1.309-1.295-1.265-.451-1.862-1.15-1.862-1.993a2.172,2.172,0,0,1,2.43-2.065,3.52,3.52,0,0,1,1.731.437l-.321.931a2.733,2.733,0,0,0-1.44-.409c-.756,0-1.178.439-1.178.961,0,.582.421.844,1.338,1.193,1.221.465,1.847,1.076,1.847,2.124,0,1.235-.959,2.107-2.633,2.107a4.024,4.024,0,0,1-1.978-.479Z" transform="translate(223.704 175.124)" fill="#fff"/>
      <path id="패스_3054" data-name="패스 3054" d="M130.5,70.408a.792.792,0,0,1-1.585,0,.78.78,0,0,1,.8-.8.76.76,0,0,1,.784.8m-1.426,1.978h1.281v7.041h-1.281Z" transform="translate(226.311 174.004)" fill="#fff"/>
      <path id="패스_3055" data-name="패스 3055" d="M132.842,70.041v2.021h1.833v.975h-1.833v3.8c0,.874.248,1.366.959,1.366a2.776,2.776,0,0,0,.743-.087l.058.961a3.136,3.136,0,0,1-1.134.175,1.772,1.772,0,0,1-1.382-.538,2.609,2.609,0,0,1-.494-1.833v-3.84H130.5v-.975h1.09V70.375Z" transform="translate(227.493 174.327)" fill="#fff"/>
      <path id="패스_3056" data-name="패스 3056" d="M134.653,71.2l1.543,4.16c.159.465.334,1.019.451,1.44h.028c.131-.421.276-.959.451-1.468l1.4-4.132h1.352l-1.92,5.018c-.917,2.414-1.543,3.651-2.414,4.408a3.474,3.474,0,0,1-1.571.83l-.32-1.078a3.385,3.385,0,0,0,1.12-.624,3.928,3.928,0,0,0,1.076-1.426.937.937,0,0,0,.1-.306,1.137,1.137,0,0,0-.087-.335l-2.6-6.487Z" transform="translate(229.553 175.191)" fill="#fff"/>
      <path id="패스_3057" data-name="패스 3057" d="M143.018,78.281l-.1-.886h-.042a2.486,2.486,0,0,1-2.067,1.047,1.966,1.966,0,0,1-2.069-2.021c0-1.7,1.454-2.633,4.065-2.619v-.145a1.43,1.43,0,0,0-1.536-1.63,3.277,3.277,0,0,0-1.761.524l-.28-.844a4.082,4.082,0,0,1,2.222-.625c2.067,0,2.57,1.469,2.57,2.881v2.631a10.3,10.3,0,0,0,.112,1.688Zm-.182-3.592c-1.342-.03-2.863.218-2.863,1.585a1.111,1.111,0,0,0,1.16,1.223,1.689,1.689,0,0,0,1.634-1.179,1.383,1.383,0,0,0,.07-.407Z" transform="translate(233.651 175.104)" fill="#fff"/>
      <path id="패스_3058" data-name="패스 3058" d="M142.877,73.147c0-.727-.014-1.323-.056-1.906h1.088l.072,1.164h.028a2.469,2.469,0,0,1,2.234-1.323c.936,0,2.388.582,2.388,3v4.2H147.4V74.223c0-1.134-.405-2.079-1.565-2.079a1.758,1.758,0,0,0-1.648,1.309,1.851,1.851,0,0,0-.084.6v4.233h-1.23Z" transform="translate(236.698 175.105)" fill="#fff"/>
      <path id="패스_3059" data-name="패스 3059" d="M153.291,69.291V77.8c0,.625.014,1.338.056,1.817h-1.1l-.056-1.221h-.028a2.488,2.488,0,0,1-2.3,1.382c-1.634,0-2.891-1.44-2.891-3.578-.014-2.341,1.384-3.782,3.031-3.782a2.242,2.242,0,0,1,2.039,1.076h.028v-4.2Zm-1.23,6.153a2.336,2.336,0,0,0-.056-.538,1.827,1.827,0,0,0-1.773-1.483c-1.272,0-2.025,1.164-2.025,2.72,0,1.426.669,2.6,2,2.6a1.867,1.867,0,0,0,1.8-1.527,2.316,2.316,0,0,0,.056-.554Z" transform="translate(239.792 173.768)" fill="#fff"/>
      <path id="패스_3060" data-name="패스 3060" d="M161.7,75.641c-.044-1.178-.089-2.6-.089-4.029h-.042c-.306,1.251-.715,2.647-1.092,3.8l-1.193,3.824h-1.731l-1.046-3.795c-.318-1.15-.655-2.545-.886-3.826h-.03c-.058,1.324-.1,2.835-.176,4.058l-.171,3.723h-2.051l.625-9.8h2.951l.961,3.272c.3,1.134.61,2.357.828,3.5h.045c.274-1.134.61-2.428.929-3.52l1.047-3.257h2.9l.538,9.8h-2.17Z" transform="translate(244.446 173.992)" fill="#fff"/>
      <path id="패스_3061" data-name="패스 3061" d="M166.149,75.25h-3.608v2.327h4.029V79.4h-6.255v-9.8h6.052V71.41h-3.826v2.035h3.608Z" transform="translate(249.767 173.992)" fill="#fff"/>
      <path id="패스_3062" data-name="패스 3062" d="M166.557,70.016v2.021h1.759v.975h-1.759v3.8c0,.874.238,1.368.922,1.368a2.551,2.551,0,0,0,.713-.089l.056.961a2.92,2.92,0,0,1-1.09.175,1.663,1.663,0,0,1-1.326-.538,2.682,2.682,0,0,1-.475-1.833v-3.84h-1.048v-.975h1.048V70.35Z" transform="translate(252.75 174.31)" fill="#fff"/>
      <path id="패스_3063" data-name="패스 3063" d="M171.318,78.281l-.1-.886h-.042a2.489,2.489,0,0,1-2.067,1.047,1.966,1.966,0,0,1-2.069-2.021c0-1.7,1.454-2.633,4.065-2.619v-.145a1.43,1.43,0,0,0-1.536-1.63,3.277,3.277,0,0,0-1.761.524l-.28-.844a4.082,4.082,0,0,1,2.222-.625c2.067,0,2.57,1.469,2.57,2.881v2.631a10.3,10.3,0,0,0,.112,1.688Zm-.182-3.592c-1.34-.03-2.863.218-2.863,1.585a1.111,1.111,0,0,0,1.16,1.223,1.689,1.689,0,0,0,1.634-1.179,1.383,1.383,0,0,0,.07-.407Z" transform="translate(254.793 175.104)" fill="#fff"/>
      <path id="패스_3064" data-name="패스 3064" d="M171.122,79.618c.028-.48.054-1.193.054-1.817v-8.51h1.216v4.422h.028a2.5,2.5,0,0,1,2.3-1.295c1.677,0,2.863,1.455,2.849,3.594,0,2.516-1.522,3.767-3.031,3.767a2.392,2.392,0,0,1-2.262-1.324h-.042l-.056,1.164Zm1.27-2.822a2.47,2.47,0,0,0,.056.465,1.912,1.912,0,0,0,1.843,1.5c1.286,0,2.053-1.09,2.053-2.7,0-1.412-.7-2.619-2.011-2.619a1.978,1.978,0,0,0-1.871,1.571,2.61,2.61,0,0,0-.07.524Z" transform="translate(257.841 173.768)" fill="#fff"/>
      <path id="패스_3065" data-name="패스 3065" d="M181.981,74.7a3.377,3.377,0,0,1-3.367,3.737c-1.829,0-3.239-1.4-3.239-3.622,0-2.357,1.48-3.739,3.351-3.739,1.941,0,3.255,1.469,3.255,3.623m-5.364.072c0,1.543.853,2.706,2.053,2.706,1.174,0,2.055-1.15,2.055-2.736,0-1.192-.573-2.7-2.027-2.7s-2.081,1.4-2.081,2.734" transform="translate(261.018 175.104)" fill="#fff"/>
      <rect id="사각형_879" data-name="사각형 879" width="1.23" height="10.327" transform="translate(444.466 243.061)" fill="#fff"/>
      <path id="패스_3066" data-name="패스 3066" d="M183.269,70.383a.738.738,0,0,1-.781.784.746.746,0,0,1-.741-.784.764.764,0,0,1,.769-.8.744.744,0,0,1,.753.8M181.9,72.361h1.23V79.4H181.9Z" transform="translate(265.777 173.985)" fill="#fff"/>
      <path id="패스_3067" data-name="패스 3067" d="M188.686,78.014a4.371,4.371,0,0,1-1.941.407,3.283,3.283,0,0,1-3.367-3.592,3.507,3.507,0,0,1,3.632-3.739,3.965,3.965,0,0,1,1.7.363l-.28.989a2.777,2.777,0,0,0-1.424-.334,2.664,2.664,0,0,0-.042,5.3,3.367,3.367,0,0,0,1.508-.351Z" transform="translate(266.996 175.111)" fill="#fff"/>
      <path id="패스_3068" data-name="패스 3068" d="M189.04,77.18a5.652,5.652,0,0,0,2.458.61c1.019,0,1.557-.421,1.557-1.06,0-.611-.465-.961-1.644-1.382-1.628-.568-2.69-1.469-2.69-2.895,0-1.672,1.4-2.953,3.709-2.953a6,6,0,0,1,2.5.494l-.494,1.789a4.673,4.673,0,0,0-2.051-.465c-.959,0-1.426.435-1.426.945,0,.625.552.9,1.819,1.382,1.73.639,2.546,1.541,2.546,2.923,0,1.644-1.267,3.04-3.957,3.04a6.409,6.409,0,0,1-2.778-.6Z" transform="translate(270.89 173.924)" fill="#fff"/>
      <path id="패스_3069" data-name="패스 3069" d="M194.118,71.173l1.48,4.16c.155.466.321,1.019.433,1.44h.028c.126-.421.266-.959.433-1.468l1.34-4.132h1.3l-1.843,5.018c-.881,2.416-1.482,3.651-2.318,4.408a3.291,3.291,0,0,1-1.509.83l-.307-1.076a3.246,3.246,0,0,0,1.076-.625,3.853,3.853,0,0,0,1.033-1.426.913.913,0,0,0,.1-.306,1.118,1.118,0,0,0-.082-.334l-2.5-6.489Z" transform="translate(274.018 175.174)" fill="#fff"/>
      <path id="패스_3070" data-name="패스 3070" d="M197.03,73.147c0-.727-.014-1.323-.056-1.906h1.088l.072,1.164h.028a2.469,2.469,0,0,1,2.234-1.323c.936,0,2.388.582,2.388,3v4.2h-1.228V74.223c0-1.134-.405-2.079-1.565-2.079a1.758,1.758,0,0,0-1.648,1.309,1.851,1.851,0,0,0-.084.6v4.233h-1.23Z" transform="translate(277.154 175.105)" fill="#fff"/>
      <path id="패스_3071" data-name="패스 3071" d="M207.444,69.291V77.8c0,.625.012,1.338.056,1.817h-1.1L206.34,78.4h-.028a2.486,2.486,0,0,1-2.3,1.382c-1.634,0-2.891-1.44-2.891-3.578-.014-2.341,1.384-3.782,3.031-3.782a2.242,2.242,0,0,1,2.039,1.076h.028v-4.2Zm-1.23,6.153a2.337,2.337,0,0,0-.056-.538,1.827,1.827,0,0,0-1.773-1.483c-1.272,0-2.025,1.164-2.025,2.72,0,1.426.669,2.6,2,2.6a1.867,1.867,0,0,0,1.8-1.527,2.316,2.316,0,0,0,.056-.554Z" transform="translate(280.248 173.768)" fill="#fff"/>
      <path id="패스_3072" data-name="패스 3072" d="M205.881,73.438c0-.83-.014-1.543-.056-2.2H206.9l.042,1.384H207a2.045,2.045,0,0,1,1.871-1.543,1.327,1.327,0,0,1,.349.044v1.207a1.685,1.685,0,0,0-2.067,1.6,3.541,3.541,0,0,0-.056.6v3.753h-1.216Z" transform="translate(283.767 175.104)" fill="#fff"/>
      <path id="패스_3073" data-name="패스 3073" d="M214.671,74.7a3.377,3.377,0,0,1-3.367,3.737c-1.829,0-3.239-1.4-3.239-3.622,0-2.357,1.48-3.739,3.351-3.739,1.941,0,3.255,1.469,3.255,3.623m-5.363.072c0,1.543.851,2.706,2.053,2.706,1.174,0,2.055-1.15,2.055-2.736,0-1.192-.575-2.7-2.027-2.7s-2.081,1.4-2.081,2.734" transform="translate(285.44 175.104)" fill="#fff"/>
      <path id="패스_3074" data-name="패스 3074" d="M212.71,73.147c0-.727-.014-1.323-.056-1.906h1.076l.056,1.136h.042a2.317,2.317,0,0,1,2.123-1.295,2.006,2.006,0,0,1,1.913,1.412h.028a2.873,2.873,0,0,1,.755-.917,2.249,2.249,0,0,1,1.494-.494c.895,0,2.222.611,2.222,3.054v4.146h-1.2V74.3c0-1.352-.475-2.168-1.466-2.168a1.6,1.6,0,0,0-1.454,1.164,2.185,2.185,0,0,0-.1.639v4.35h-1.2V74.063c0-1.118-.473-1.934-1.41-1.934a1.693,1.693,0,0,0-1.522,1.281,1.828,1.828,0,0,0-.1.625v4.247h-1.2Z" transform="translate(288.868 175.105)" fill="#fff"/>
      <path id="패스_3075" data-name="패스 3075" d="M220.2,74.993a2.21,2.21,0,0,0,2.32,2.444,4.284,4.284,0,0,0,1.871-.363l.21.915a5.273,5.273,0,0,1-2.248.439,3.211,3.211,0,0,1-3.325-3.55c0-2.123,1.2-3.8,3.171-3.8,2.207,0,2.794,2.021,2.794,3.316a5.005,5.005,0,0,1-.042.6Zm3.6-.915c.014-.814-.32-2.081-1.7-2.081-1.244,0-1.789,1.193-1.887,2.081Z" transform="translate(293.629 175.104)" fill="#fff"/>
      <path id="패스_3076" data-name="패스 3076" d="M224.911,69.292h1.23v4.392h.026a2.32,2.32,0,0,1,.881-.9,2.455,2.455,0,0,1,1.258-.363c.908,0,2.36.582,2.36,3.01v4.188h-1.228V75.576c0-1.137-.405-2.1-1.565-2.1a1.776,1.776,0,0,0-1.648,1.281,1.571,1.571,0,0,0-.084.61v4.247h-1.23Z" transform="translate(298.025 173.768)" fill="#fff"/>
      <path id="패스_3077" data-name="패스 3077" d="M235.627,74.7a3.377,3.377,0,0,1-3.367,3.737c-1.829,0-3.239-1.4-3.239-3.622,0-2.357,1.48-3.739,3.351-3.739,1.941,0,3.255,1.469,3.255,3.623m-5.364.072c0,1.543.851,2.706,2.053,2.706,1.174,0,2.055-1.15,2.055-2.736,0-1.192-.575-2.7-2.027-2.7s-2.081,1.4-2.081,2.734" transform="translate(301.096 175.104)" fill="#fff"/>
      <path id="패스_3078" data-name="패스 3078" d="M233.677,76.972a3.126,3.126,0,0,0,1.62.51c.894,0,1.314-.466,1.314-1.048,0-.611-.349-.945-1.258-1.295-1.214-.451-1.787-1.15-1.787-1.993a2.118,2.118,0,0,1,2.332-2.065,3.265,3.265,0,0,1,1.661.437l-.306.931a2.563,2.563,0,0,0-1.384-.407,1,1,0,0,0-1.132.959c0,.582.405.844,1.286,1.193,1.172.465,1.775,1.076,1.775,2.124,0,1.235-.922,2.109-2.53,2.109a3.741,3.741,0,0,1-1.9-.48Z" transform="translate(304.345 175.104)" fill="#fff"/>
      <path id="패스_3079" data-name="패스 3079" d="M238.568,70.016v2.021h1.759v.975h-1.759v3.8c0,.874.238,1.368.922,1.368a2.561,2.561,0,0,0,.713-.089l.054.961a2.9,2.9,0,0,1-1.088.175,1.666,1.666,0,0,1-1.326-.538,2.682,2.682,0,0,1-.475-1.833v-3.84H236.32v-.975h1.048V70.35Z" transform="translate(306.548 174.31)" fill="#fff"/>
      <path id="패스_3080" data-name="패스 3080" d="M240.2,74.993a2.21,2.21,0,0,0,2.32,2.444,4.284,4.284,0,0,0,1.871-.363l.21.915a5.273,5.273,0,0,1-2.248.439,3.211,3.211,0,0,1-3.325-3.55c0-2.123,1.2-3.8,3.171-3.8,2.207,0,2.794,2.021,2.794,3.316a5.012,5.012,0,0,1-.042.6Zm3.6-.915c.014-.814-.32-2.081-1.7-2.081-1.244,0-1.789,1.193-1.887,2.081Z" transform="translate(308.574 175.104)" fill="#fff"/>
      <path id="패스_3081" data-name="패스 3081" d="M249.316,69.291V77.8c0,.625.014,1.338.056,1.817h-1.1l-.056-1.221h-.028a2.488,2.488,0,0,1-2.3,1.382c-1.634,0-2.891-1.44-2.891-3.578-.014-2.341,1.384-3.782,3.031-3.782a2.242,2.242,0,0,1,2.039,1.076h.028v-4.2Zm-1.23,6.153a2.337,2.337,0,0,0-.056-.538,1.827,1.827,0,0,0-1.773-1.483c-1.272,0-2.025,1.164-2.025,2.72,0,1.426.669,2.6,2,2.6a1.867,1.867,0,0,0,1.8-1.527,2.316,2.316,0,0,0,.056-.554Z" transform="translate(311.529 173.768)" fill="#fff"/>
      <path id="패스_3082" data-name="패스 3082" d="M249.345,79.618c.028-.48.054-1.193.054-1.817v-8.51h1.216v4.422h.028a2.5,2.5,0,0,1,2.3-1.295c1.677,0,2.863,1.455,2.85,3.594,0,2.516-1.522,3.767-3.031,3.767a2.39,2.39,0,0,1-2.262-1.324h-.042l-.056,1.164Zm1.27-2.822a2.467,2.467,0,0,0,.056.465,1.912,1.912,0,0,0,1.843,1.5c1.286,0,2.053-1.09,2.053-2.7,0-1.412-.7-2.619-2.011-2.619a1.978,1.978,0,0,0-1.871,1.571,2.614,2.614,0,0,0-.07.524Z" transform="translate(316.279 173.768)" fill="#fff"/>
      <path id="패스_3083" data-name="패스 3083" d="M254.652,71.173l1.48,4.16c.155.466.321,1.019.433,1.44h.03c.124-.421.264-.959.432-1.468l1.34-4.132h1.3l-1.843,5.018c-.88,2.416-1.482,3.651-2.318,4.408a3.291,3.291,0,0,1-1.509.83l-.306-1.076a3.257,3.257,0,0,0,1.074-.625A3.853,3.853,0,0,0,255.8,78.3a.914.914,0,0,0,.1-.306,1.082,1.082,0,0,0-.084-.334l-2.5-6.489Z" transform="translate(319.241 175.174)" fill="#fff"/>
      <path id="패스_3084" data-name="패스 3084" d="M259.211,69.591h1.214v4.728h.042c.252-.377.5-.727.741-1.047l2.877-3.681h1.509l-3.409,4.16,3.672,5.645h-1.438l-3.1-4.815-.894,1.076V79.4h-1.214Z" transform="translate(323.649 173.992)" fill="#fff"/>
      <path id="패스_3085" data-name="패스 3085" d="M263.533,77.921a4.181,4.181,0,0,0,2.179.641c1.244,0,1.969-.685,1.969-1.674,0-.917-.5-1.44-1.773-1.95-1.537-.566-2.486-1.4-2.486-2.778a2.749,2.749,0,0,1,3.043-2.661,4.13,4.13,0,0,1,2.082.48l-.335,1.033a3.614,3.614,0,0,0-1.787-.466c-1.286,0-1.773.8-1.773,1.469,0,.915.571,1.366,1.871,1.89,1.592.639,2.4,1.44,2.4,2.881,0,1.513-1.074,2.822-3.3,2.822a4.714,4.714,0,0,1-2.4-.625Z" transform="translate(326.647 173.924)" fill="#fff"/>
      <path id="패스_3086" data-name="패스 3086" d="M267.425,77.921a4.176,4.176,0,0,0,2.179.641c1.244,0,1.969-.685,1.969-1.674,0-.917-.5-1.44-1.773-1.95-1.537-.566-2.486-1.4-2.486-2.778a2.75,2.75,0,0,1,3.045-2.661,4.128,4.128,0,0,1,2.081.48l-.335,1.033a3.614,3.614,0,0,0-1.787-.466c-1.286,0-1.773.8-1.773,1.469,0,.915.571,1.366,1.871,1.89,1.592.639,2.4,1.44,2.4,2.881,0,1.513-1.074,2.822-3.3,2.822a4.714,4.714,0,0,1-2.4-.625Z" transform="translate(329.557 173.924)" fill="#fff"/>
      <path id="패스_3087" data-name="패스 3087" d="M279.568,74.459c0,3.375-1.969,5.164-4.371,5.164-2.486,0-4.231-2.007-4.231-4.976,0-3.112,1.857-5.149,4.371-5.149,2.57,0,4.231,2.051,4.231,4.96m-7.3.161c0,2.095,1.09,3.971,3,3.971s3.017-1.848,3.017-4.074c0-1.948-.978-3.985-3-3.985s-3.017,1.936-3.017,4.088" transform="translate(332.431 173.923)" fill="#fff"/>
    </g>
  </g>
</svg>
