<svg xmlns="http://www.w3.org/2000/svg" xmlns:xlink="http://www.w3.org/1999/xlink" width="570.391" height="332.577" viewBox="0 0 570.391 332.577">
  <defs>
    <clipPath id="clip-path">
      <rect width="570.391" height="332.577" fill="none"/>
    </clipPath>
    <clipPath id="clip-path-2">
      <rect id="사각형_789" data-name="사각형 789" width="570.391" height="332.577" fill="#fff"/>
    </clipPath>
  </defs>
  <g id="반복_그리드_1" data-name="반복 그리드 1" clip-path="url(#clip-path)">
    <g id="그룹_729" data-name="그룹 729">
      <rect id="사각형_785" data-name="사각형 785" width="25.235" height="125.552" transform="translate(0.367 109.478)" fill="#fff"/>
      <g id="그룹_666" data-name="그룹 666">
        <g id="그룹_665" data-name="그룹 665" clip-path="url(#clip-path-2)">
          <path id="패스_2739" data-name="패스 2739" d="M83.22,160.074A38.156,38.156,0,0,1,45.056,121.91,37.173,37.173,0,0,1,56.271,94.883,36.413,36.413,0,0,1,83.22,83.669a37,37,0,0,1,25.989,10.278,73.5,73.5,0,0,1,13.708-21.7A63.539,63.539,0,0,0,83.141,57.966q-26.168,0-44.941,18.77Q19.507,95.584,19.509,121.83q0,26.328,18.691,45.019,18.615,18.46,44.941,18.536a63.209,63.209,0,0,0,39.89-13.858,72.689,72.689,0,0,1-13.8-21.672A36.8,36.8,0,0,1,83.22,160.074" transform="translate(16.996 50.5)" fill="#fff"/>
          <path id="패스_2740" data-name="패스 2740" d="M179.115,76.736q18.769,18.772,18.77,45.094,0,26.406-18.77,45.019A61.633,61.633,0,0,1,134.1,185.387q-26.4-.079-45.017-18.538-18.7-18.69-18.693-45.019,0-26.244,18.693-45.094,18.769-18.772,45.017-18.77t45.019,18.77M107.07,94.649a38.17,38.17,0,0,0,0,54.053,38.261,38.261,0,0,0,53.975,0,37.988,37.988,0,0,0,0-54.053,38.076,38.076,0,0,0-53.975,0" transform="translate(61.319 50.5)" fill="#fff"/>
          <path id="패스_2741" data-name="패스 2741" d="M205.787,141.274l61.452-84.348v128.51H242V133.41l-36.217,50-36.294-50v52.027H144.257V56.926Z" transform="translate(125.677 49.594)" fill="#fff"/>
          <path id="패스_2742" data-name="패스 2742" d="M294,58.341V83.5h-50.47v25.314h37.851v25.156H243.533v25.314H294v25.08H218.3V58.341Z" transform="translate(190.18 50.826)" fill="#fff"/>
          <path id="패스_2743" data-name="패스 2743" d="M301.73,159.857c6.97,0,14.663-5.788,14.663-12.756,0-11.463-15.385-13.063-24.069-16.07C277.016,125.814,263.5,113.245,263.5,96.15a38.307,38.307,0,0,1,76.237-5.3l-25.055,5.3a12.738,12.738,0,0,0-25.476.075c0,11.31,14.318,14.318,23.038,16.908,15.842,4.569,29.818,16.641,29.818,34.119,0,21.173-19,38.272-40.137,38.272-19.421,0-36.977-14.244-39.832-32.941l25.057-5.331c0,7.008,7.616,12.72,14.7,12.72Z" transform="translate(228.332 50.456)" fill="#fff"/>
          <path id="패스_2744" data-name="패스 2744" d="M143.662,27.948V1.931h5.4l6.718,11.156a71.744,71.744,0,0,1,4.44,8.724h.077c-.309-3.475-.427-6.834-.427-10.81V1.931h4.4V27.948h-4.9L152.58,16.523a89.979,89.979,0,0,1-4.67-8.995l-.118.037c.195,3.359.232,6.794.232,11.079v9.3Z" transform="translate(125.158 1.682)" fill="#fff"/>
          <path id="패스_2745" data-name="패스 2745" d="M175.936,15.212c0,6.91-4.863,10-9.65,10-5.327,0-9.42-3.668-9.42-9.689,0-6.177,4.055-9.959,9.728-9.959,5.6,0,9.341,3.937,9.341,9.65M161.77,15.4c0,3.628,1.776,6.37,4.671,6.37,2.7,0,4.594-2.665,4.594-6.446,0-2.934-1.312-6.293-4.553-6.293-3.359,0-4.712,3.243-4.712,6.37" transform="translate(136.663 4.846)" fill="#fff"/>
          <path id="패스_2746" data-name="패스 2746" d="M172.768,5.788l1.97,8.533c.423,2.006.849,4.053,1.2,6.1h.077c.385-2.045,1-4.132,1.546-6.061l2.431-8.57h3.86l2.356,8.338c.578,2.2,1.082,4.248,1.5,6.293h.077c.309-2.045.735-4.092,1.237-6.293l2.085-8.338h4.671l-5.906,18.8h-4.4l-2.24-7.644a57.427,57.427,0,0,1-1.428-6.022h-.077a49.773,49.773,0,0,1-1.43,6.022L177.9,24.588h-4.438l-5.559-18.8Z" transform="translate(146.279 5.042)" fill="#fff"/>
          <path id="패스_2747" data-name="패스 2747" d="M193.888,4.187a2.667,2.667,0,0,1-5.329,0,2.666,2.666,0,0,1,5.329,0M188.83,9.436h4.788v18.8H188.83Z" transform="translate(164.273 1.395)" fill="#fff"/>
          <path id="패스_2748" data-name="패스 2748" d="M194.292,20.423a10.6,10.6,0,0,0,4.826,1.351c2.085,0,3.011-.85,3.011-2.085,0-1.274-.773-1.931-3.088-2.741-3.668-1.274-5.211-3.28-5.174-5.481,0-3.321,2.741-5.906,7.1-5.906a11.013,11.013,0,0,1,4.979,1.119l-.926,3.357a8.442,8.442,0,0,0-3.976-1.08c-1.7,0-2.623.81-2.623,1.968,0,1.2.889,1.776,3.28,2.625,3.4,1.235,4.981,2.971,5.02,5.75,0,3.4-2.665,5.868-7.644,5.868a12.114,12.114,0,0,1-5.713-1.312Z" transform="translate(168.462 4.846)" fill="#fff"/>
          <path id="패스_2749" data-name="패스 2749" d="M213.185,2.921V8.286H217.7v3.552h-4.517v8.3c0,2.277.618,3.475,2.433,3.475a7.014,7.014,0,0,0,1.852-.232l.077,3.628a10.451,10.451,0,0,1-3.436.462,5.488,5.488,0,0,1-4.09-1.544c-1.007-1.08-1.469-2.779-1.469-5.251v-8.84h-2.7V8.286h2.7V4.04Z" transform="translate(179.337 2.545)" fill="#fff"/>
          <path id="패스_2750" data-name="패스 2750" d="M214.1,1.188h4.788v11.2h.077a6.331,6.331,0,0,1,2.354-2.161,6.44,6.44,0,0,1,3.243-.85c3.205,0,6.562,2.122,6.562,8.145V28.6H226.38V18.059c0-2.741-1-4.787-3.63-4.787a3.875,3.875,0,0,0-3.668,2.663,4.019,4.019,0,0,0-.191,1.428V28.6H214.1Z" transform="translate(186.527 1.035)" fill="#fff"/>
          <path id="패스_2751" data-name="패스 2751" d="M229.821,16.716c.118,3.4,2.779,4.863,5.791,4.863a14.174,14.174,0,0,0,5.211-.848l.694,3.28a17.688,17.688,0,0,1-6.562,1.158c-6.1,0-9.691-3.744-9.691-9.5,0-5.211,3.168-10.112,9.189-10.112,6.1,0,8.106,5.017,8.106,9.148a11.748,11.748,0,0,1-.153,2.006Zm8.261-3.32c.037-1.736-.734-4.594-3.9-4.594-2.932,0-4.167,2.665-4.362,4.594Z" transform="translate(196.251 4.846)" fill="#fff"/>
          <path id="패스_2752" data-name="패스 2752" d="M246.213,5.906H238.8V1.932h19.649V5.906h-7.49V27.949h-4.747Z" transform="translate(208.044 1.683)" fill="#fff"/>
          <path id="패스_2753" data-name="패스 2753" d="M255.643,4.187a2.667,2.667,0,0,1-5.329,0,2.666,2.666,0,0,1,5.329,0m-5.06,5.249h4.788v18.8h-4.788Z" transform="translate(218.074 1.395)" fill="#fff"/>
          <path id="패스_2754" data-name="패스 2754" d="M255.812,11.584c0-2.161-.039-3.974-.153-5.6h4.092l.193,2.779h.114a6.506,6.506,0,0,1,5.791-3.2,5.416,5.416,0,0,1,5.211,3.475h.077a7.122,7.122,0,0,1,2.317-2.356,6.279,6.279,0,0,1,3.784-1.119c3.127,0,6.291,2.124,6.291,8.145V24.787H278.9V14.4c0-3.127-1.08-4.979-3.359-4.979a3.621,3.621,0,0,0-3.319,2.509,6.794,6.794,0,0,0-.232,1.583V24.787h-4.631V13.9c0-2.625-1.044-4.478-3.243-4.478a3.71,3.71,0,0,0-3.4,2.7,4.1,4.1,0,0,0-.269,1.544V24.787h-4.633Z" transform="translate(222.73 4.846)" fill="#fff"/>
          <path id="패스_2755" data-name="패스 2755" d="M277.154,16.716c.116,3.4,2.779,4.863,5.791,4.863a14.173,14.173,0,0,0,5.211-.848l.694,3.28a17.689,17.689,0,0,1-6.562,1.158c-6.1,0-9.691-3.744-9.691-9.5,0-5.211,3.168-10.112,9.19-10.112,6.1,0,8.106,5.017,8.106,9.148a11.755,11.755,0,0,1-.153,2.006Zm8.261-3.32c.039-1.736-.733-4.594-3.9-4.594-2.932,0-4.167,2.665-4.362,4.594Z" transform="translate(237.488 4.846)" fill="#fff"/>
          <path id="패스_2756" data-name="패스 2756" d="M294.48,2.921V8.286H299v3.552H294.48v8.3c0,2.277.617,3.475,2.433,3.475a7.015,7.015,0,0,0,1.853-.232l.077,3.628a10.45,10.45,0,0,1-3.435.462,5.488,5.488,0,0,1-4.09-1.544c-1.007-1.08-1.469-2.779-1.469-5.251v-8.84h-2.7V8.286h2.7V4.04Z" transform="translate(250.161 2.545)" fill="#fff"/>
          <path id="패스_2757" data-name="패스 2757" d="M313.7,15.212c0,6.91-4.863,10-9.65,10-5.327,0-9.42-3.668-9.42-9.689,0-6.177,4.055-9.959,9.728-9.959,5.6,0,9.341,3.937,9.341,9.65m-14.167.193c0,3.628,1.776,6.37,4.671,6.37,2.7,0,4.594-2.665,4.594-6.446,0-2.934-1.312-6.293-4.553-6.293-3.359,0-4.712,3.243-4.712,6.37" transform="translate(256.685 4.846)" fill="#fff"/>
          <path id="패스_2758" data-name="패스 2758" d="M162.937,51.725a16.44,16.44,0,0,1-6.719,1.158c-8.259,0-13.278-5.172-13.278-13.085,0-8.572,5.947-13.744,13.9-13.744a14.954,14.954,0,0,1,6.332,1.158L162.124,31a12.625,12.625,0,0,0-5.1-1c-5.288,0-9.107,3.321-9.107,9.575,0,5.713,3.355,9.38,9.07,9.38a13.3,13.3,0,0,0,5.174-.966Z" transform="translate(124.529 22.698)" fill="#fff"/>
          <path id="패스_2759" data-name="패스 2759" d="M174.617,39.563c0,6.91-4.863,10-9.652,10-5.327,0-9.42-3.668-9.42-9.689,0-6.177,4.057-9.96,9.728-9.96,5.6,0,9.343,3.939,9.343,9.652m-14.167.193c0,3.628,1.774,6.37,4.669,6.37,2.7,0,4.594-2.665,4.594-6.446,0-2.934-1.31-6.293-4.553-6.293-3.359,0-4.71,3.243-4.71,6.37" transform="translate(135.512 26.058)" fill="#fff"/>
          <path id="패스_2760" data-name="패스 2760" d="M168.721,35.934c0-2.161-.038-3.976-.154-5.6h4.169l.232,2.82h.114a6.778,6.778,0,0,1,5.984-3.245c3.28,0,6.678,2.124,6.678,8.069V49.136H181V38.52c0-2.7-1-4.747-3.591-4.747a3.985,3.985,0,0,0-3.707,2.779,4.865,4.865,0,0,0-.191,1.544v11.04h-4.788Z" transform="translate(146.856 26.058)" fill="#fff"/>
          <path id="패스_2761" data-name="패스 2761" d="M194.417,46.551h-.077a6.509,6.509,0,0,1-5.829,3.011c-4.208,0-7.876-3.668-7.876-9.536,0-6.871,4.4-10.114,8.417-10.114a5.92,5.92,0,0,1,5.481,2.895l.079.039.114-2.509h4.594c-.077,1.7-.155,3.475-.155,5.443v21h-4.747Zm0-8.454a5.5,5.5,0,0,0-.116-1.158,4.16,4.16,0,0,0-4.053-3.282c-3.048,0-4.787,2.588-4.787,6.138,0,3.437,1.66,6.023,4.671,6.023a4.163,4.163,0,0,0,4.053-3.127,4.833,4.833,0,0,0,.232-1.467Z" transform="translate(157.37 26.059)" fill="#fff"/>
          <path id="패스_2762" data-name="패스 2762" d="M210.958,43.3c0,2.24.075,4.092.152,5.636h-4.169l-.232-2.857h-.077a6.792,6.792,0,0,1-6.021,3.282c-3.436,0-6.562-2.047-6.562-8.183V30.138H198.8V40.37c0,3.127,1,5.133,3.516,5.133a4,4,0,0,0,3.626-2.549,4.329,4.329,0,0,0,.269-1.465V30.138h4.751Z" transform="translate(169.055 26.256)" fill="#fff"/>
          <path id="패스_2763" data-name="패스 2763" d="M210.571,41.068c.118,3.4,2.779,4.865,5.791,4.865a14.17,14.17,0,0,0,5.211-.85l.694,3.28a17.689,17.689,0,0,1-6.562,1.158c-6.1,0-9.691-3.744-9.691-9.5,0-5.211,3.168-10.114,9.189-10.114,6.1,0,8.106,5.019,8.106,9.15a11.75,11.75,0,0,1-.153,2.006Zm8.261-3.32c.037-1.736-.733-4.594-3.9-4.594-2.932,0-4.167,2.665-4.362,4.594Z" transform="translate(179.48 26.059)" fill="#fff"/>
          <path id="패스_2764" data-name="패스 2764" d="M218.2,36.4c0-2.547-.037-4.362-.153-6.061h4.13l.155,3.591h.153a5.606,5.606,0,0,1,5.135-4.016,5.015,5.015,0,0,1,1.119.116V34.5a6.63,6.63,0,0,0-1.388-.153A4.188,4.188,0,0,0,223.1,37.94a8.2,8.2,0,0,0-.153,1.467v9.728H218.2Z" transform="translate(189.96 26.058)" fill="#fff"/>
          <path id="패스_2765" data-name="패스 2765" d="M255.213,39.216c0,8.725-5.29,13.7-12.47,13.7-7.335,0-11.968-5.6-11.968-13.241,0-7.992,5.02-13.626,12.355-13.626,7.6,0,12.082,5.752,12.082,13.162M235.8,39.6c0,5.288,2.661,9.5,7.215,9.5,4.6,0,7.18-4.246,7.18-9.691,0-4.9-2.431-9.534-7.18-9.534-4.708,0-7.215,4.362-7.215,9.728" transform="translate(201.051 22.698)" fill="#fff"/>
          <path id="패스_2766" data-name="패스 2766" d="M246.663,52.945c.077-1.272.154-3.357.154-5.288V25.539h4.749V36.733h.077a6.8,6.8,0,0,1,6.022-3.011c4.594,0,7.876,3.821,7.837,9.534,0,6.757-4.285,10.116-8.531,10.116a6.471,6.471,0,0,1-5.945-3.243h-.077l-.232,2.816Zm4.9-7.758a5.389,5.389,0,0,0,.114,1.119,4.384,4.384,0,0,0,4.21,3.321c2.97,0,4.785-2.4,4.785-6.177,0-3.321-1.581-6.023-4.747-6.023a4.448,4.448,0,0,0-4.208,3.475,5.716,5.716,0,0,0-.153,1.235Z" transform="translate(214.893 22.25)" fill="#fff"/>
          <path id="패스_2767" data-name="패스 2767" d="M263.556,41.068c.116,3.4,2.779,4.865,5.791,4.865a14.171,14.171,0,0,0,5.211-.85l.694,3.28a17.689,17.689,0,0,1-6.562,1.158c-6.1,0-9.691-3.744-9.691-9.5,0-5.211,3.168-10.114,9.19-10.114,6.1,0,8.106,5.019,8.106,9.15a11.745,11.745,0,0,1-.154,2.006Zm8.261-3.32c.039-1.736-.735-4.594-3.9-4.594-2.932,0-4.167,2.665-4.362,4.594Z" transform="translate(225.641 26.059)" fill="#fff"/>
          <path id="패스_2768" data-name="패스 2768" d="M271.419,44.774a10.6,10.6,0,0,0,4.826,1.351c2.085,0,3.011-.85,3.011-2.085,0-1.274-.773-1.929-3.087-2.741-3.668-1.274-5.211-3.28-5.174-5.481,0-3.32,2.741-5.907,7.1-5.907a11.011,11.011,0,0,1,4.979,1.121l-.926,3.359a8.419,8.419,0,0,0-3.976-1.082c-1.7,0-2.623.81-2.623,1.968,0,1.2.889,1.776,3.28,2.625,3.4,1.235,4.981,2.973,5.019,5.752,0,3.4-2.663,5.868-7.642,5.868a12.114,12.114,0,0,1-5.713-1.314Z" transform="translate(235.655 26.058)" fill="#fff"/>
          <path id="패스_2769" data-name="패스 2769" d="M285.726,28.538a2.666,2.666,0,1,1-2.665-2.588,2.519,2.519,0,0,1,2.665,2.588m-5.058,5.251h4.788v18.8h-4.788Z" transform="translate(244.282 22.608)" fill="#fff"/>
          <path id="패스_2770" data-name="패스 2770" d="M292.973,27.271v5.367h4.515v3.552h-4.515v8.3c0,2.279.618,3.475,2.433,3.475a7.016,7.016,0,0,0,1.852-.232l.077,3.628a10.391,10.391,0,0,1-3.435.464,5.485,5.485,0,0,1-4.09-1.544C288.8,49.2,288.34,47.5,288.34,45.029v-8.84h-2.7V32.638h2.7V28.392Z" transform="translate(248.848 23.758)" fill="#fff"/>
          <path id="패스_2771" data-name="패스 2771" d="M298.876,30.139l3.4,10.075c.385,1.158.771,2.588,1.042,3.668h.118c.309-1.08.655-2.47,1-3.7l2.932-10.037h5.1l-4.71,12.816c-2.588,7.026-4.323,10.153-6.564,12.082a9.555,9.555,0,0,1-4.979,2.433l-1.08-4.016a8.125,8.125,0,0,0,2.779-1.312,8.236,8.236,0,0,0,2.586-2.973,1.883,1.883,0,0,0,.309-.848,2,2,0,0,0-.269-.926l-6.871-17.256Z" transform="translate(255.841 26.257)" fill="#fff"/>
          <path id="패스_2772" data-name="패스 2772" d="M16.669,28.968H.646A27.355,27.355,0,0,1,8.954,8.89,27.576,27.576,0,0,1,29.129.582,27.357,27.357,0,0,1,49.209,8.89a27.382,27.382,0,0,1,8.357,20.078,28.312,28.312,0,0,1-3.857,14,67.454,67.454,0,0,1-9.644,13.053,92.9,92.9,0,0,1-9,8.753H57.219V80.744H.348l2.721-9.1a174.14,174.14,0,0,0,26.06-22.774,87.253,87.253,0,0,0,8.928-11.225q3.436-5.266,3.437-8.679a12.413,12.413,0,0,0-24.825,0" transform="translate(0.303 0.507)" fill="#fff"/>
          <path id="패스_2773" data-name="패스 2773" d="M64.616.582q14.245,0,22.8,12.067,8.258,11.471,8.259,28.188,0,16.813-8.259,28.287-8.6,12.016-22.8,12.017c-19.683,0-31.054-18.879-31.054-40.3C33.562,19.472,45,.582,64.616.582M64.568,16.7a11.646,11.646,0,0,0-9.79,5.193q-5.243,7.469-5.243,18.94,0,11.623,5.243,18.94a11.875,11.875,0,0,0,19.633,0q5.19-7.27,5.191-18.94,0-11.572-5.191-18.94A11.7,11.7,0,0,0,64.568,16.7" transform="translate(29.239 0.507)" fill="#fff"/>
          <path id="패스_2774" data-name="패스 2774" d="M85.714,28.968H69.691A27.355,27.355,0,0,1,78,8.89a28.535,28.535,0,0,1,40.255,0,27.381,27.381,0,0,1,8.355,20.078,28.31,28.31,0,0,1-3.855,14,67.453,67.453,0,0,1-9.644,13.053,92.9,92.9,0,0,1-9,8.753h22.155V80.744H69.393l2.721-9.1a174.141,174.141,0,0,0,26.06-22.774A87.254,87.254,0,0,0,107.1,37.647q3.436-5.266,3.437-8.679a12.413,12.413,0,0,0-24.825,0" transform="translate(60.455 0.507)" fill="#fff"/>
          <path id="패스_2775" data-name="패스 2775" d="M139.055,55.091q0-5.785-5-10.31t-14.388-4.97l3.359-6.626q6.282-1.187,9.148-4.13a9.122,9.122,0,0,0,2.869-6.5l-.146.1a6.5,6.5,0,0,0-6.429-6.429,6.366,6.366,0,0,0-6.28,5.093L106.268,17.9A23.037,23.037,0,0,1,128.472,0a22.041,22.041,0,0,1,16.023,6.626A22.1,22.1,0,0,1,151.121,22.7a22.169,22.169,0,0,1-4.4,13.551,5.931,5.931,0,0,1,.543.445,24.737,24.737,0,0,1,7.962,18.495,24.635,24.635,0,0,1-7.962,18.495,25.942,25.942,0,0,1-18.792,7.565,26.435,26.435,0,0,1-16.321-5.44,25.17,25.17,0,0,1-9.545-14.29l15.727-4.006c.893,4.012,5.224,7.417,10.187,7.417,5.651,0,10.535-4.184,10.535-9.841" transform="translate(89.39 0.001)" fill="#fff"/>
          <path id="패스_2776" data-name="패스 2776" d="M.211,162.088v-1.871L2.6,157.9c5.748-5.471,8.346-8.381,8.381-11.774,0-2.285-1.108-4.4-4.467-4.4a7.666,7.666,0,0,0-4.779,1.9l-.971-2.146A9.883,9.883,0,0,1,7.136,139.2c4.848,0,6.89,3.323,6.89,6.545,0,4.154-3.013,7.513-7.756,12.082l-1.8,1.664v.069H14.58v2.528Z" transform="translate(0.184 121.271)" fill="#fff"/>
          <path id="패스_2777" data-name="패스 2777" d="M24.809,150.592c0,7.653-2.837,11.876-7.823,11.876-4.4,0-7.376-4.12-7.444-11.566,0-7.548,3.254-11.7,7.823-11.7,4.743,0,7.444,4.223,7.444,11.392m-12.223.346c0,5.851,1.8,9.176,4.571,9.176,3.117,0,4.605-3.636,4.605-9.384,0-5.541-1.42-9.176-4.569-9.176-2.666,0-4.607,3.254-4.607,9.384" transform="translate(8.313 121.271)" fill="#fff"/>
          <path id="패스_2778" data-name="패스 2778" d="M19.2,162.088v-1.871l2.39-2.318c5.748-5.471,8.346-8.381,8.381-11.774,0-2.285-1.108-4.4-4.467-4.4a7.666,7.666,0,0,0-4.779,1.9l-.971-2.146a9.883,9.883,0,0,1,6.371-2.285c4.848,0,6.89,3.323,6.89,6.545,0,4.154-3.013,7.513-7.756,12.082l-1.8,1.664v.069h10.11v2.528Z" transform="translate(16.73 121.271)" fill="#fff"/>
          <path id="패스_2779" data-name="패스 2779" d="M29.476,158.591a10.183,10.183,0,0,0,4.987,1.42c3.913,0,5.123-2.494,5.088-4.364-.034-3.151-2.872-4.5-5.818-4.5H32.039v-2.287h1.693c2.217,0,5.022-1.141,5.022-3.808,0-1.8-1.143-3.394-3.946-3.394a8.266,8.266,0,0,0-4.5,1.489l-.8-2.216A10.683,10.683,0,0,1,35.4,139.2c4.431,0,6.441,2.633,6.441,5.368,0,2.32-1.385,4.293-4.156,5.3v.069a5.864,5.864,0,0,1,5.022,5.784c0,3.6-2.8,6.749-8.207,6.749a11.45,11.45,0,0,1-5.851-1.521Z" transform="translate(24.956 121.271)" fill="#fff"/>
          <rect id="사각형_786" data-name="사각형 786" width="5.297" height="23.339" transform="translate(79.545 260.02)" fill="#fff"/>
          <path id="패스_2780" data-name="패스 2780" d="M47.978,147.19c0-1.733-.036-3.151-.138-4.536h2.7l.172,2.769h.069a6.163,6.163,0,0,1,5.541-3.151c2.318,0,5.92,1.387,5.92,7.133v10.007H59.2v-9.659c0-2.7-1-4.953-3.877-4.953a4.33,4.33,0,0,0-4.087,3.116,4.446,4.446,0,0,0-.208,1.42v10.076H47.978Z" transform="translate(41.678 123.947)" fill="#fff"/>
          <path id="패스_2781" data-name="패스 2781" d="M62.671,139.9v4.813h4.362v2.32H62.671v9.036c0,2.079.588,3.254,2.285,3.254a6.842,6.842,0,0,0,1.766-.206l.138,2.285a7.454,7.454,0,0,1-2.7.415,4.218,4.218,0,0,1-3.29-1.282c-.864-.9-1.177-2.388-1.177-4.362v-9.141H57.1v-2.32h2.6V140.7Z" transform="translate(49.743 121.884)" fill="#fff"/>
          <path id="패스_2782" data-name="패스 2782" d="M66.392,151.587c.069,4.12,2.7,5.818,5.746,5.818a11.037,11.037,0,0,0,4.639-.866l.52,2.18a13.575,13.575,0,0,1-5.574,1.039c-5.159,0-8.241-3.391-8.241-8.447s2.979-9.038,7.861-9.038c5.47,0,6.925,4.813,6.925,7.895a11.672,11.672,0,0,1-.1,1.42Zm8.933-2.182c.034-1.939-.8-4.951-4.225-4.951-3.082,0-4.431,2.839-4.674,4.951Z" transform="translate(55.306 123.947)" fill="#fff"/>
          <path id="패스_2783" data-name="패스 2783" d="M73.471,147.881c0-1.974-.037-3.669-.142-5.228H76l.1,3.29h.137a5.027,5.027,0,0,1,4.642-3.669,3.309,3.309,0,0,1,.865.1v2.874a4.593,4.593,0,0,0-1.039-.1c-2.148,0-3.669,1.628-4.087,3.913a8.618,8.618,0,0,0-.138,1.42v8.935H73.471Z" transform="translate(63.884 123.948)" fill="#fff"/>
          <path id="패스_2784" data-name="패스 2784" d="M79.6,147.19c0-1.733-.036-3.151-.14-4.536h2.7l.172,2.769H82.4a6.163,6.163,0,0,1,5.541-3.151c2.318,0,5.92,1.387,5.92,7.133v10.007H90.815v-9.659c0-2.7-1-4.953-3.877-4.953a4.33,4.33,0,0,0-4.087,3.116,4.445,4.445,0,0,0-.208,1.42v10.076H79.6Z" transform="translate(69.223 123.947)" fill="#fff"/>
          <path id="패스_2785" data-name="패스 2785" d="M99.7,159.413l-.241-2.114h-.1a6.239,6.239,0,0,1-5.125,2.492A4.772,4.772,0,0,1,89.1,154.98c0-4.053,3.6-6.268,10.075-6.233V148.4c0-1.385-.38-3.877-3.808-3.877a8.374,8.374,0,0,0-4.364,1.246l-.692-2.008a10.4,10.4,0,0,1,5.505-1.488c5.125,0,6.371,3.5,6.371,6.854v6.267a23.627,23.627,0,0,0,.277,4.019Zm-.449-8.553c-3.323-.069-7.1.518-7.1,3.774a2.7,2.7,0,0,0,2.872,2.908,4.176,4.176,0,0,0,4.053-2.8,3.218,3.218,0,0,0,.172-.971Z" transform="translate(77.627 123.948)" fill="#fff"/>
          <path id="패스_2786" data-name="패스 2786" d="M103.211,139.9v4.813h4.362v2.32h-4.362v9.036c0,2.079.589,3.254,2.285,3.254a6.853,6.853,0,0,0,1.766-.206l.137,2.285a7.434,7.434,0,0,1-2.7.415,4.218,4.218,0,0,1-3.29-1.282c-.866-.9-1.177-2.388-1.177-4.362v-9.141h-2.6v-2.32h2.6V140.7Z" transform="translate(85.061 121.884)" fill="#fff"/>
          <path id="패스_2787" data-name="패스 2787" d="M108.354,140.846a1.888,1.888,0,0,1-3.776,0,1.856,1.856,0,0,1,1.9-1.9,1.81,1.81,0,0,1,1.871,1.9m-3.394,4.708h3.048v16.76H104.96Z" transform="translate(91.108 121.045)" fill="#fff"/>
          <path id="패스_2788" data-name="패스 2788" d="M124.844,150.893c0,6.2-4.293,8.9-8.346,8.9-4.534,0-8.033-3.325-8.033-8.622,0-5.608,3.671-8.9,8.31-8.9,4.815,0,8.069,3.5,8.069,8.621m-13.3.174c0,3.671,2.111,6.441,5.092,6.441,2.906,0,5.088-2.738,5.088-6.51,0-2.84-1.42-6.441-5.019-6.441s-5.161,3.323-5.161,6.51" transform="translate(94.495 123.947)" fill="#fff"/>
          <path id="패스_2789" data-name="패스 2789" d="M119.34,147.19c0-1.733-.036-3.151-.138-4.536h2.7l.172,2.769h.069a6.163,6.163,0,0,1,5.541-3.151c2.318,0,5.92,1.387,5.92,7.133v10.007h-3.048v-9.659c0-2.7-1-4.953-3.877-4.953a4.33,4.33,0,0,0-4.087,3.116,4.446,4.446,0,0,0-.208,1.42v10.076H119.34Z" transform="translate(103.849 123.947)" fill="#fff"/>
          <path id="패스_2790" data-name="패스 2790" d="M139.441,159.413,139.2,157.3h-.1a6.242,6.242,0,0,1-5.125,2.492,4.772,4.772,0,0,1-5.123-4.811c0-4.053,3.6-6.268,10.075-6.233V148.4c0-1.385-.38-3.877-3.808-3.877a8.369,8.369,0,0,0-4.364,1.246l-.694-2.008a10.412,10.412,0,0,1,5.507-1.488c5.125,0,6.371,3.5,6.371,6.854v6.267a23.622,23.622,0,0,0,.277,4.019Zm-.449-8.553c-3.323-.069-7.1.518-7.1,3.774a2.7,2.7,0,0,0,2.872,2.908,4.176,4.176,0,0,0,4.053-2.8,3.219,3.219,0,0,0,.172-.971Z" transform="translate(112.252 123.948)" fill="#fff"/>
          <rect id="사각형_787" data-name="사각형 787" width="3.046" height="24.586" transform="translate(259.111 258.774)" fill="#fff"/>
          <path id="패스_2791" data-name="패스 2791" d="M164.275,161.817a15.055,15.055,0,0,1-5.99,1c-8.069,0-12.223-5.018-12.223-11.667,0-7.966,5.677-12.4,12.741-12.4a13.767,13.767,0,0,1,5.748,1.039l-1.074,4.19a11.376,11.376,0,0,0-4.431-.865c-4.19,0-7.446,2.526-7.446,7.721,0,4.674,2.771,7.618,7.481,7.618a13.177,13.177,0,0,0,4.4-.762Z" transform="translate(127.25 120.884)" fill="#fff"/>
          <path id="패스_2792" data-name="패스 2792" d="M173.509,150.893c0,6.2-4.293,8.9-8.346,8.9-4.534,0-8.031-3.325-8.031-8.622,0-5.608,3.669-8.9,8.308-8.9,4.815,0,8.069,3.5,8.069,8.621m-13.295.174c0,3.671,2.109,6.441,5.09,6.441,2.906,0,5.088-2.738,5.088-6.51,0-2.84-1.418-6.441-5.019-6.441s-5.159,3.323-5.159,6.51" transform="translate(136.894 123.947)" fill="#fff"/>
          <path id="패스_2793" data-name="패스 2793" d="M168.007,147.19c0-1.733-.036-3.151-.14-4.536h2.7l.172,2.769h.069a6.163,6.163,0,0,1,5.541-3.151c2.318,0,5.919,1.387,5.919,7.133v10.007h-3.046v-9.659c0-2.7-1-4.953-3.877-4.953a4.33,4.33,0,0,0-4.087,3.116,4.446,4.446,0,0,0-.208,1.42v10.076h-3.046Z" transform="translate(146.246 123.947)" fill="#fff"/>
          <path id="패스_2794" data-name="패스 2794" d="M193.22,142.653c-.069,1.213-.138,2.562-.138,4.6v9.728c0,3.845-.762,6.2-2.389,7.655a8.893,8.893,0,0,1-6.095,2.008,10.838,10.838,0,0,1-5.574-1.385l.762-2.32a9.473,9.473,0,0,0,4.917,1.315c3.116,0,5.4-1.628,5.4-5.853v-1.869h-.071a5.977,5.977,0,0,1-5.331,2.8c-4.156,0-7.133-3.531-7.133-8.172,0-5.679,3.7-8.9,7.548-8.9a5.568,5.568,0,0,1,5.228,2.908h.069l.139-2.528Zm-3.151,6.613a4.456,4.456,0,0,0-4.433-4.605c-2.908,0-4.985,2.459-4.985,6.336,0,3.29,1.662,6.025,4.951,6.025a4.452,4.452,0,0,0,4.225-3.116,5.333,5.333,0,0,0,.241-1.628Z" transform="translate(154.698 123.948)" fill="#fff"/>
          <path id="패스_2795" data-name="패스 2795" d="M188.518,147.881c0-1.974-.036-3.669-.138-5.228h2.666l.1,3.29h.138a5.029,5.029,0,0,1,4.641-3.669,3.3,3.3,0,0,1,.866.1v2.874a4.593,4.593,0,0,0-1.039-.1c-2.148,0-3.671,1.628-4.087,3.913a8.613,8.613,0,0,0-.138,1.42v8.935h-3.013Z" transform="translate(164.117 123.948)" fill="#fff"/>
          <path id="패스_2796" data-name="패스 2796" d="M196.582,151.587c.071,4.12,2.7,5.818,5.748,5.818a11.037,11.037,0,0,0,4.639-.866l.52,2.18a13.579,13.579,0,0,1-5.576,1.039c-5.157,0-8.239-3.391-8.239-8.447s2.979-9.038,7.859-9.038c5.471,0,6.925,4.813,6.925,7.895a11.776,11.776,0,0,1-.1,1.42Zm8.935-2.182c.034-1.939-.8-4.951-4.225-4.951-3.082,0-4.433,2.839-4.674,4.951Z" transform="translate(168.729 123.947)" fill="#fff"/>
          <path id="패스_2797" data-name="패스 2797" d="M203.728,156.3a7.975,7.975,0,0,0,4.017,1.213c2.215,0,3.254-1.108,3.254-2.492,0-1.456-.866-2.251-3.116-3.082-3.013-1.074-4.433-2.736-4.433-4.745,0-2.7,2.182-4.916,5.784-4.916a8.372,8.372,0,0,1,4.12,1.039l-.763,2.215a6.517,6.517,0,0,0-3.426-.969c-1.8,0-2.8,1.038-2.8,2.285,0,1.385,1,2.01,3.185,2.84,2.91,1.108,4.4,2.562,4.4,5.056,0,2.942-2.285,5.019-6.267,5.019a9.566,9.566,0,0,1-4.71-1.141Z" transform="translate(176.824 123.948)" fill="#fff"/>
          <path id="패스_2798" data-name="패스 2798" d="M211.059,156.3a7.976,7.976,0,0,0,4.017,1.213c2.216,0,3.254-1.108,3.254-2.492,0-1.456-.866-2.251-3.116-3.082-3.013-1.074-4.433-2.736-4.433-4.745,0-2.7,2.184-4.916,5.782-4.916a8.374,8.374,0,0,1,4.122,1.039l-.763,2.215a6.517,6.517,0,0,0-3.426-.969c-1.8,0-2.8,1.038-2.8,2.285,0,1.385,1,2.01,3.185,2.84,2.91,1.108,4.4,2.562,4.4,5.056,0,2.942-2.287,5.019-6.268,5.019a9.56,9.56,0,0,1-4.71-1.141Z" transform="translate(183.211 123.948)" fill="#fff"/>
          <path id="패스_2799" data-name="패스 2799" d="M237.912,150.893c0,6.2-4.292,8.9-8.345,8.9-4.534,0-8.033-3.325-8.033-8.622,0-5.608,3.671-8.9,8.31-8.9,4.815,0,8.069,3.5,8.069,8.621m-13.3.174c0,3.671,2.111,6.441,5.092,6.441,2.908,0,5.088-2.738,5.088-6.51,0-2.84-1.42-6.441-5.019-6.441s-5.161,3.323-5.161,6.51" transform="translate(193 123.947)" fill="#fff"/>
          <path id="패스_2800" data-name="패스 2800" d="M232.409,147.19c0-1.733-.036-3.151-.14-4.536h2.7l.172,2.769h.069a6.163,6.163,0,0,1,5.541-3.151c2.318,0,5.919,1.387,5.919,7.133v10.007h-3.046v-9.659c0-2.7-1-4.953-3.877-4.953a4.33,4.33,0,0,0-4.087,3.116,4.447,4.447,0,0,0-.208,1.42v10.076h-3.046Z" transform="translate(202.353 123.947)" fill="#fff"/>
          <path id="패스_2801" data-name="패스 2801" d="M268.279,150.563c0,7.653-4.643,12.292-11.463,12.292-6.925,0-10.977-5.228-10.977-11.877,0-6.995,4.467-12.223,11.358-12.223,7.167,0,11.081,5.367,11.081,11.807m-16.865.313c0,4.569,2.148,7.79,5.679,7.79,3.566,0,5.61-3.393,5.61-7.93,0-4.19-2.008-7.79-5.644-7.79-3.567,0-5.645,3.394-5.645,7.93" transform="translate(214.175 120.884)" fill="#fff"/>
          <path id="패스_2802" data-name="패스 2802" d="M259.741,162.879c.069-1.143.138-2.839.138-4.328V138.293h3.013V148.82h.069a6.24,6.24,0,0,1,5.713-3.082c4.156,0,7.1,3.462,7.065,8.553,0,5.99-3.776,8.967-7.515,8.967a5.971,5.971,0,0,1-5.61-3.149h-.1l-.137,2.769Zm3.151-6.718a5.7,5.7,0,0,0,.138,1.108,4.7,4.7,0,0,0,4.571,3.566c3.185,0,5.09-2.6,5.09-6.441,0-3.359-1.731-6.231-4.985-6.231a4.86,4.86,0,0,0-4.642,3.739,6.142,6.142,0,0,0-.172,1.246Z" transform="translate(226.287 120.481)" fill="#fff"/>
          <path id="패스_2803" data-name="패스 2803" d="M272.611,151.587c.069,4.12,2.7,5.818,5.746,5.818a11.036,11.036,0,0,0,4.639-.866l.52,2.18a13.576,13.576,0,0,1-5.574,1.039c-5.159,0-8.241-3.391-8.241-8.447s2.979-9.038,7.861-9.038c5.469,0,6.925,4.813,6.925,7.895a11.675,11.675,0,0,1-.1,1.42Zm8.933-2.182c.034-1.939-.8-4.951-4.225-4.951-3.082,0-4.431,2.839-4.674,4.951Z" transform="translate(234.964 123.947)" fill="#fff"/>
          <path id="패스_2804" data-name="패스 2804" d="M279.754,156.3a7.975,7.975,0,0,0,4.018,1.213c2.216,0,3.254-1.108,3.254-2.492,0-1.456-.866-2.251-3.117-3.082-3.011-1.074-4.431-2.736-4.431-4.745,0-2.7,2.184-4.916,5.782-4.916a8.374,8.374,0,0,1,4.122,1.039l-.764,2.215a6.516,6.516,0,0,0-3.426-.969c-1.8,0-2.8,1.038-2.8,2.285,0,1.385,1,2.01,3.185,2.84,2.91,1.108,4.4,2.562,4.4,5.056,0,2.942-2.287,5.019-6.269,5.019a9.56,9.56,0,0,1-4.71-1.141Z" transform="translate(243.058 123.948)" fill="#fff"/>
          <path id="패스_2805" data-name="패스 2805" d="M290.525,140.846a1.888,1.888,0,0,1-3.776,0,1.857,1.857,0,0,1,1.9-1.9,1.809,1.809,0,0,1,1.871,1.9m-3.394,4.708h3.048v16.76h-3.048Z" transform="translate(249.816 121.045)" fill="#fff"/>
          <path id="패스_2806" data-name="패스 2806" d="M295.841,139.9v4.813H300.2v2.32h-4.362v9.036c0,2.079.589,3.254,2.285,3.254a6.854,6.854,0,0,0,1.766-.206l.137,2.285a7.435,7.435,0,0,1-2.7.415,4.218,4.218,0,0,1-3.29-1.282c-.864-.9-1.177-2.388-1.177-4.362v-9.141h-2.6v-2.32h2.6V140.7Z" transform="translate(252.881 121.884)" fill="#fff"/>
          <path id="패스_2807" data-name="패스 2807" d="M299.718,142.475l3.671,9.9c.38,1.108.8,2.425,1.072,3.428h.069c.311-1,.657-2.285,1.074-3.5l3.323-9.835h3.22l-4.571,11.946c-2.182,5.748-3.669,8.692-5.748,10.492a8.254,8.254,0,0,1-3.739,1.974l-.76-2.564A8.05,8.05,0,0,0,300,162.836a9.276,9.276,0,0,0,2.564-3.392,2.244,2.244,0,0,0,.241-.728,2.621,2.621,0,0,0-.21-.8l-6.2-15.443Z" transform="translate(258.22 124.124)" fill="#fff"/>
          <path id="패스_2808" data-name="패스 2808" d="M10.176,181.626l-.232-2.113h-.1a5.916,5.916,0,0,1-4.919,2.494A4.679,4.679,0,0,1,0,177.193c0-4.051,3.458-6.267,9.678-6.233v-.346c0-1.385-.367-3.877-3.658-3.877a7.8,7.8,0,0,0-4.19,1.244l-.664-2.008a9.7,9.7,0,0,1,5.286-1.488c4.921,0,6.119,3.5,6.119,6.856v6.267a24.5,24.5,0,0,0,.266,4.017Zm-.432-8.553c-3.192-.069-6.817.52-6.817,3.774a2.643,2.643,0,0,0,2.76,2.91,4.02,4.02,0,0,0,3.89-2.8,3.267,3.267,0,0,0,.167-.971Z" transform="translate(0 143.3)" fill="#fff"/>
          <path id="패스_2809" data-name="패스 2809" d="M9.2,169.4c0-1.731-.034-3.149-.133-4.536h2.593l.167,2.769h.065a5.888,5.888,0,0,1,5.32-3.149c2.229,0,5.687,1.385,5.687,7.131v10.007H19.97v-9.659c0-2.7-.966-4.951-3.724-4.951a4.189,4.189,0,0,0-3.926,3.116,4.546,4.546,0,0,0-.2,1.418v10.076H9.2Z" transform="translate(7.896 143.301)" fill="#fff"/>
          <path id="패스_2810" data-name="패스 2810" d="M33.331,160.508v20.256c0,1.488.034,3.185.133,4.328H30.837l-.131-2.91h-.069a5.918,5.918,0,0,1-5.484,3.291c-3.89,0-6.882-3.43-6.882-8.52-.034-5.574,3.29-9,7.215-9a5.33,5.33,0,0,1,4.854,2.564H30.4V160.508ZM30.4,175.154a5.63,5.63,0,0,0-.133-1.282,4.35,4.35,0,0,0-4.221-3.533c-3.026,0-4.822,2.771-4.822,6.476,0,3.394,1.6,6.2,4.755,6.2a4.445,4.445,0,0,0,4.289-3.636,5.546,5.546,0,0,0,.133-1.317Z" transform="translate(15.917 139.834)" fill="#fff"/>
          <path id="패스_2811" data-name="패스 2811" d="M52.369,175.578c-.1-2.8-.208-6.2-.208-9.592h-.1c-.728,2.979-1.7,6.3-2.6,9.038l-2.84,9.107H42.5l-2.494-9.038c-.762-2.736-1.557-6.059-2.111-9.107h-.071c-.137,3.153-.241,6.751-.415,9.661L37,184.511h-4.88L33.6,161.173h7.03l2.285,7.792c.726,2.7,1.454,5.61,1.974,8.344h.1c.659-2.7,1.454-5.782,2.215-8.379l2.494-7.756h6.89l1.282,23.338H52.715Z" transform="translate(27.979 140.414)" fill="#fff"/>
          <path id="패스_2812" data-name="패스 2812" d="M61.832,174.644H53.245v5.541h9.59v4.326H47.947V161.173h14.4v4.33H53.245v4.846h8.587Z" transform="translate(41.772 140.414)" fill="#fff"/>
          <path id="패스_2813" data-name="패스 2813" d="M62.177,162.117v4.813h4.19v2.32h-4.19v9.038c0,2.077.565,3.254,2.195,3.254a6.292,6.292,0,0,0,1.7-.208l.135,2.285a6.929,6.929,0,0,1-2.593.417,3.971,3.971,0,0,1-3.16-1.284c-.831-.9-1.128-2.388-1.128-4.362V169.25h-2.5v-2.32h2.5v-4.016Z" transform="translate(49.504 141.236)" fill="#fff"/>
          <path id="패스_2814" data-name="패스 2814" d="M73.076,181.626l-.232-2.113h-.1a5.919,5.919,0,0,1-4.919,2.494,4.679,4.679,0,0,1-4.923-4.815c0-4.051,3.458-6.267,9.678-6.233v-.346c0-1.385-.367-3.877-3.658-3.877a7.8,7.8,0,0,0-4.19,1.244l-.664-2.008a9.7,9.7,0,0,1,5.286-1.488c4.921,0,6.119,3.5,6.119,6.856v6.267a24.5,24.5,0,0,0,.266,4.017Zm-.432-8.553c-3.192-.069-6.817.52-6.817,3.774a2.643,2.643,0,0,0,2.76,2.91,4.02,4.02,0,0,0,3.89-2.8,3.267,3.267,0,0,0,.167-.971Z" transform="translate(54.799 143.3)" fill="#fff"/>
          <path id="패스_2815" data-name="패스 2815" d="M71.964,185.092c.067-1.143.133-2.84.133-4.328V160.508H74.99v10.525h.065a5.948,5.948,0,0,1,5.488-3.082c3.989,0,6.817,3.462,6.781,8.553,0,5.99-3.623,8.969-7.215,8.969a5.691,5.691,0,0,1-5.385-3.151h-.1l-.135,2.769Zm3.026-6.718a5.677,5.677,0,0,0,.135,1.108,4.548,4.548,0,0,0,4.388,3.567c3.059,0,4.886-2.6,4.886-6.439,0-3.359-1.662-6.235-4.787-6.235a4.709,4.709,0,0,0-4.455,3.742,6.132,6.132,0,0,0-.167,1.244Z" transform="translate(62.695 139.834)" fill="#fff"/>
          <path id="패스_2816" data-name="패스 2816" d="M97.145,173.109c0,6.2-4.124,8.9-8.014,8.9-4.356,0-7.713-3.325-7.713-8.622,0-5.61,3.523-8.9,7.979-8.9,4.622,0,7.749,3.5,7.749,8.622m-12.769.172c0,3.671,2.028,6.441,4.888,6.441,2.794,0,4.889-2.736,4.889-6.51,0-2.839-1.364-6.439-4.824-6.439s-4.953,3.323-4.953,6.508" transform="translate(70.931 143.3)" fill="#fff"/>
          <rect id="사각형_788" data-name="사각형 788" width="2.927" height="24.584" transform="translate(171.57 300.342)" fill="#fff"/>
          <path id="패스_2817" data-name="패스 2817" d="M99.2,163.06a1.812,1.812,0,1,1-3.623,0,1.821,1.821,0,0,1,1.828-1.9,1.774,1.774,0,0,1,1.795,1.9m-3.258,4.708h2.927v16.76H95.947Z" transform="translate(83.271 140.398)" fill="#fff"/>
          <path id="패스_2818" data-name="패스 2818" d="M111.841,180.986a10.391,10.391,0,0,1-4.622.971c-4.854,0-8.013-3.43-8.013-8.553,0-5.161,3.391-8.9,8.645-8.9a9.458,9.458,0,0,1,4.057.866l-.666,2.354a6.564,6.564,0,0,0-3.391-.8c-3.692,0-5.687,2.84-5.687,6.338,0,3.877,2.4,6.268,5.587,6.268a8.044,8.044,0,0,0,3.589-.833Z" transform="translate(86.429 143.316)" fill="#fff"/>
          <path id="패스_2819" data-name="패스 2819" d="M111.861,179.253a13.479,13.479,0,0,0,5.851,1.452c2.425,0,3.707-1,3.707-2.526,0-1.454-1.108-2.285-3.913-3.29-3.879-1.351-6.407-3.5-6.407-6.892,0-3.98,3.325-7.028,8.83-7.028a14.3,14.3,0,0,1,5.956,1.177l-1.177,4.259a11.123,11.123,0,0,0-4.884-1.108c-2.285,0-3.392,1.039-3.392,2.251,0,1.488,1.315,2.146,4.328,3.29,4.12,1.523,6.059,3.671,6.059,6.959,0,3.915-3.013,7.238-9.418,7.238a15.265,15.265,0,0,1-6.615-1.42Z" transform="translate(96.518 140.237)" fill="#fff"/>
          <path id="패스_2820" data-name="패스 2820" d="M123.288,164.689l3.523,9.9c.367,1.108.765,2.423,1.031,3.426h.067c.3-1,.633-2.283,1.031-3.5l3.192-9.835h3.091l-4.388,11.946c-2.094,5.75-3.525,8.692-5.52,10.494a7.812,7.812,0,0,1-3.591,1.972l-.732-2.562a7.673,7.673,0,0,0,2.56-1.489,9.182,9.182,0,0,0,2.461-3.393,2.22,2.22,0,0,0,.232-.728,2.764,2.764,0,0,0-.2-.8L120.1,164.689Z" transform="translate(104.628 143.477)" fill="#fff"/>
          <path id="패스_2821" data-name="패스 2821" d="M129.559,169.4c0-1.731-.034-3.149-.133-4.536h2.593l.167,2.769h.065a5.888,5.888,0,0,1,5.32-3.149c2.229,0,5.688,1.385,5.688,7.131v10.007h-2.927v-9.659c0-2.7-.966-4.951-3.724-4.951a4.185,4.185,0,0,0-3.924,3.116,4.487,4.487,0,0,0-.2,1.418v10.076h-2.927Z" transform="translate(112.756 143.301)" fill="#fff"/>
          <path id="패스_2822" data-name="패스 2822" d="M153.694,160.508v20.256c0,1.488.032,3.185.133,4.328H151.2l-.133-2.91H151a5.916,5.916,0,0,1-5.484,3.291c-3.89,0-6.882-3.43-6.882-8.52-.034-5.574,3.29-9,7.215-9a5.33,5.33,0,0,1,4.854,2.564h.066V160.508Zm-2.927,14.646a5.628,5.628,0,0,0-.133-1.282,4.35,4.35,0,0,0-4.221-3.533c-3.026,0-4.822,2.771-4.822,6.476,0,3.394,1.6,6.2,4.755,6.2a4.445,4.445,0,0,0,4.289-3.636,5.544,5.544,0,0,0,.133-1.317Z" transform="translate(120.777 139.834)" fill="#fff"/>
          <path id="패스_2823" data-name="패스 2823" d="M149.232,170.1c0-1.974-.034-3.671-.133-5.23h2.56l.1,3.292h.133a4.869,4.869,0,0,1,4.455-3.671,3.048,3.048,0,0,1,.831.1v2.872a4.236,4.236,0,0,0-1-.1c-2.062,0-3.525,1.628-3.922,3.911a8.639,8.639,0,0,0-.135,1.42v8.935h-2.893Z" transform="translate(129.895 143.3)" fill="#fff"/>
          <path id="패스_2824" data-name="패스 2824" d="M169.8,173.109c0,6.2-4.122,8.9-8.013,8.9-4.356,0-7.713-3.325-7.713-8.622,0-5.61,3.523-8.9,7.979-8.9,4.622,0,7.747,3.5,7.747,8.622m-12.767.172c0,3.671,2.026,6.441,4.888,6.441,2.794,0,4.888-2.736,4.888-6.51,0-2.839-1.364-6.439-4.82-6.439s-4.955,3.323-4.955,6.508" transform="translate(134.231 143.3)" fill="#fff"/>
          <path id="패스_2825" data-name="패스 2825" d="M164.409,169.4c0-1.731-.034-3.149-.133-4.536h2.56l.135,2.7h.1a5.523,5.523,0,0,1,5.054-3.082,4.776,4.776,0,0,1,4.556,3.359h.067a6.809,6.809,0,0,1,1.794-2.182,5.343,5.343,0,0,1,3.559-1.177c2.128,0,5.286,1.454,5.286,7.272v9.867h-2.859v-9.487c0-3.22-1.132-5.159-3.492-5.159a3.814,3.814,0,0,0-3.458,2.769,5.211,5.211,0,0,0-.232,1.523v10.353h-2.861V171.585c0-2.666-1.13-4.605-3.359-4.605a4.039,4.039,0,0,0-3.623,3.046,4.351,4.351,0,0,0-.234,1.488v10.112h-2.859Z" transform="translate(143.117 143.301)" fill="#fff"/>
          <path id="패스_2826" data-name="패스 2826" d="M181.234,173.8c.066,4.12,2.593,5.816,5.52,5.816a10.222,10.222,0,0,0,4.455-.865l.5,2.18a12.561,12.561,0,0,1-5.354,1.04c-4.955,0-7.915-3.392-7.915-8.448s2.859-9.038,7.548-9.038c5.254,0,6.65,4.813,6.65,7.895a12.344,12.344,0,0,1-.1,1.42Zm8.578-2.182c.036-1.939-.763-4.951-4.057-4.951-2.958,0-4.255,2.839-4.489,4.951Z" transform="translate(155.457 143.3)" fill="#fff"/>
          <path id="패스_2827" data-name="패스 2827" d="M191.518,160.508h2.927v10.456h.065a5.557,5.557,0,0,1,2.1-2.146,5.843,5.843,0,0,1,2.992-.866c2.163,0,5.621,1.387,5.621,7.169v9.972h-2.927v-9.625c0-2.7-.966-4.987-3.724-4.987a4.232,4.232,0,0,0-3.924,3.048,3.777,3.777,0,0,0-.2,1.452v10.112h-2.927Z" transform="translate(166.851 139.834)" fill="#fff"/>
          <path id="패스_2828" data-name="패스 2828" d="M216.38,173.109c0,6.2-4.122,8.9-8.012,8.9-4.356,0-7.713-3.325-7.713-8.622,0-5.61,3.523-8.9,7.979-8.9,4.622,0,7.747,3.5,7.747,8.622m-12.767.172c0,3.671,2.027,6.441,4.888,6.441,2.794,0,4.888-2.736,4.888-6.51,0-2.839-1.364-6.439-4.82-6.439s-4.955,3.323-4.955,6.508" transform="translate(174.81 143.3)" fill="#fff"/>
          <path id="패스_2829" data-name="패스 2829" d="M211.054,178.509a7.432,7.432,0,0,0,3.855,1.213c2.129,0,3.125-1.108,3.125-2.492,0-1.456-.831-2.251-2.992-3.082-2.891-1.074-4.255-2.736-4.255-4.745,0-2.7,2.094-4.916,5.55-4.916a7.773,7.773,0,0,1,3.957,1.039l-.73,2.216a6.1,6.1,0,0,0-3.293-.969c-1.727,0-2.693,1.038-2.693,2.285,0,1.385.965,2.01,3.059,2.84,2.792,1.108,4.223,2.562,4.223,5.056,0,2.942-2.195,5.02-6.02,5.02a8.884,8.884,0,0,1-4.521-1.143Z" transform="translate(183.231 143.3)" fill="#fff"/>
          <path id="패스_2830" data-name="패스 2830" d="M222.232,162.117v4.813h4.19v2.32h-4.19v9.038c0,2.077.567,3.254,2.195,3.254a6.3,6.3,0,0,0,1.7-.208l.133,2.285a6.911,6.911,0,0,1-2.592.417,3.974,3.974,0,0,1-3.16-1.284c-.831-.9-1.128-2.388-1.128-4.362V169.25h-2.5v-2.32h2.5v-4.016Z" transform="translate(188.944 141.236)" fill="#fff"/>
          <path id="패스_2831" data-name="패스 2831" d="M225.695,173.8c.065,4.12,2.593,5.816,5.52,5.816a10.222,10.222,0,0,0,4.455-.865l.5,2.18a12.561,12.561,0,0,1-5.354,1.04c-4.955,0-7.913-3.392-7.913-8.448s2.857-9.038,7.547-9.038c5.254,0,6.65,4.813,6.65,7.895a12.332,12.332,0,0,1-.1,1.42Zm8.578-2.182c.036-1.939-.763-4.951-4.057-4.951-2.958,0-4.255,2.839-4.489,4.951Z" transform="translate(194.193 143.3)" fill="#fff"/>
          <path id="패스_2832" data-name="패스 2832" d="M246.761,160.508v20.256c0,1.488.034,3.185.133,4.328h-2.627l-.131-2.91h-.069a5.918,5.918,0,0,1-5.484,3.291c-3.89,0-6.882-3.43-6.882-8.52-.034-5.574,3.29-9,7.215-9a5.33,5.33,0,0,1,4.854,2.564h.065V160.508Zm-2.927,14.646a5.628,5.628,0,0,0-.133-1.282,4.35,4.35,0,0,0-4.221-3.533c-3.026,0-4.822,2.771-4.822,6.476,0,3.394,1.6,6.2,4.755,6.2a4.445,4.445,0,0,0,4.289-3.636,5.544,5.544,0,0,0,.133-1.317Z" transform="translate(201.857 139.834)" fill="#fff"/>
          <path id="패스_2833" data-name="패스 2833" d="M245.827,185.092c.067-1.143.133-2.84.133-4.328V160.508h2.893v10.525h.066a5.948,5.948,0,0,1,5.488-3.082c3.989,0,6.815,3.462,6.781,8.553,0,5.99-3.623,8.969-7.215,8.969a5.691,5.691,0,0,1-5.385-3.151h-.1l-.135,2.769Zm3.026-6.718a5.829,5.829,0,0,0,.133,1.108,4.552,4.552,0,0,0,4.39,3.567c3.057,0,4.886-2.6,4.886-6.439,0-3.359-1.662-6.235-4.787-6.235a4.709,4.709,0,0,0-4.455,3.742,6.128,6.128,0,0,0-.167,1.244Z" transform="translate(214.165 139.834)" fill="#fff"/>
          <path id="패스_2834" data-name="패스 2834" d="M257.835,164.689l3.522,9.9c.367,1.108.765,2.423,1.031,3.426h.069c.3-1,.631-2.283,1.029-3.5l3.192-9.835h3.093l-4.392,11.946c-2.092,5.75-3.523,8.692-5.518,10.494a7.8,7.8,0,0,1-3.591,1.972l-.732-2.562a7.7,7.7,0,0,0,2.562-1.489,9.2,9.2,0,0,0,2.459-3.393,2.22,2.22,0,0,0,.232-.728,2.72,2.72,0,0,0-.2-.8l-5.952-15.445Z" transform="translate(221.843 143.477)" fill="#fff"/>
          <path id="패스_2835" data-name="패스 2835" d="M267.757,161.173h2.891v11.255h.1c.6-.9,1.2-1.733,1.761-2.494l6.851-8.761h3.593l-8.115,9.9,8.746,13.437h-3.426l-7.382-11.463-2.127,2.564v8.9h-2.891Z" transform="translate(233.27 140.414)" fill="#fff"/>
          <path id="패스_2836" data-name="패스 2836" d="M277.409,181.018a9.955,9.955,0,0,0,5.187,1.525c2.96,0,4.687-1.628,4.687-3.984,0-2.18-1.2-3.428-4.222-4.639-3.658-1.351-5.919-3.325-5.919-6.613,0-3.638,2.893-6.338,7.247-6.338a9.844,9.844,0,0,1,4.955,1.143l-.8,2.459a8.638,8.638,0,0,0-4.257-1.108c-3.059,0-4.221,1.9-4.221,3.5,0,2.182,1.362,3.256,4.455,4.5,3.789,1.523,5.718,3.428,5.718,6.856,0,3.6-2.56,6.718-7.846,6.718a11.232,11.232,0,0,1-5.72-1.489Z" transform="translate(241.041 140.237)" fill="#fff"/>
          <path id="패스_2837" data-name="패스 2837" d="M286.064,181.018a9.955,9.955,0,0,0,5.187,1.525c2.96,0,4.687-1.628,4.687-3.984,0-2.18-1.2-3.428-4.222-4.639-3.658-1.351-5.919-3.325-5.919-6.613,0-3.638,2.893-6.338,7.247-6.338A9.844,9.844,0,0,1,298,162.113l-.8,2.459a8.638,8.638,0,0,0-4.257-1.108c-3.059,0-4.221,1.9-4.221,3.5,0,2.182,1.362,3.256,4.455,4.5,3.789,1.523,5.718,3.428,5.718,6.856,0,3.6-2.56,6.718-7.846,6.718a11.231,11.231,0,0,1-5.72-1.489Z" transform="translate(248.581 140.237)" fill="#fff"/>
          <path id="패스_2838" data-name="패스 2838" d="M314.361,172.777c0,8.033-4.687,12.294-10.408,12.294-5.917,0-10.073-4.779-10.073-11.845,0-7.41,4.422-12.256,10.408-12.256,6.117,0,10.073,4.882,10.073,11.807m-17.389.382c0,4.987,2.594,9.453,7.15,9.453,4.588,0,7.182-4.4,7.182-9.7,0-4.641-2.328-9.487-7.15-9.487-4.788,0-7.182,4.6-7.182,9.73" transform="translate(256.029 140.237)" fill="#fff"/>
        </g>
      </g>
    </g>
  </g>
</svg>
