<svg id="그룹_1609" data-name="그룹 1609" xmlns="http://www.w3.org/2000/svg" xmlns:xlink="http://www.w3.org/1999/xlink" width="543.957" height="345.836" viewBox="0 0 543.957 345.836">
  <defs>
    <clipPath id="clip-path">
      <rect id="사각형_1931" data-name="사각형 1931" width="543.957" height="345.836" fill="none"/>
    </clipPath>
  </defs>
  <g id="그룹_1608" data-name="그룹 1608" clip-path="url(#clip-path)">
    <path id="패스_5247" data-name="패스 5247" d="M16.276,21.173l-1.665,2c-2.93-1.73-4.96-4.828-5.992-8.722-1.033,4.161-3.2,7.589-6.158,9.455L.795,21.873c4.2-2.5,6.493-7.924,6.493-13.416v-2.7H1.628V3.529H15.244V5.759H9.917v2.7c0,5.193,2.231,10.386,6.359,12.717M20.5,28.33h-2.6V12.984H12.979V10.753h4.928V.7h2.6ZM23.9,0h2.63V29.861H23.9Z" transform="translate(0.548)" fill="#fff"/>
    <path id="패스_5248" data-name="패스 5248" d="M30.544,10.49c5.159,0,7.922,3.2,7.922,7.456,0,5.193-3.9,8.59-8.855,8.59a10.093,10.093,0,0,1-6.89-2.63l1.631-2.231a8.606,8.606,0,0,0,5.393,2.131c3.363,0,5.793-2.1,5.793-5.693,0-3.2-2.065-5.06-5.56-5.06a11.975,11.975,0,0,0-4,.8l-1.964-.566,2-11.552H37.7v2.8H28.147l-1.1,6.391a13.529,13.529,0,0,1,3.495-.433" transform="translate(15.676 1.196)" fill="#fff"/>
    <path id="패스_5249" data-name="패스 5249" d="M45.53,14.888a7.33,7.33,0,0,1-4.695,1.563A6.725,6.725,0,0,1,33.81,9.294c0-4.36,3.431-7.856,8.291-7.856,4.793,0,7.956,3.329,7.956,8.09,0,2.9-1.066,5.126-2.93,7.691l-6.69,9.22H36.607L44.2,16.752c.7-.933,1.1-1.565,1.333-1.864m-3.7-.833a4.913,4.913,0,0,0,5.259-4.894,4.787,4.787,0,0,0-5.026-5.093,4.817,4.817,0,0,0-5.161,4.994c0,3.229,1.866,4.994,4.928,4.994" transform="translate(23.327 0.992)" fill="#fff"/>
    <path id="패스_5250" data-name="패스 5250" d="M62.409,21.458l-1.531,2.131A14.365,14.365,0,0,1,53.821,14.9a15,15,0,0,1-7.39,9.22L44.9,22.058A14.136,14.136,0,0,0,52.457,9.707V7.378H45.7v-2.2h6.724V.554h2.729V5.179h6.625v2.2H55.153V9.707a13.491,13.491,0,0,0,7.257,11.752m5.727,8.423H65.407V.02h2.729V12.3h4.926v2.263H68.137Z" transform="translate(30.978 0.014)" fill="#fff"/>
    <path id="패스_5251" data-name="패스 5251" d="M.375,211.276v-2.033l8.039-7.72c2.447-2.6,4.227-4.607,4.227-7.339a3.916,3.916,0,0,0-4.289-4.1,4.458,4.458,0,0,0-4.641,4.575l-2.858-.477a7.28,7.28,0,0,1,7.655-6.608c3.971,0,7.052,2.415,7.052,6.545,0,3.461-2.224,5.876-4.86,8.514l-6.511,6.449a9.994,9.994,0,0,1,2.636-.38h9.18v2.572Z" transform="translate(0.259 129.415)" fill="#fff"/>
    <path id="패스_5252" data-name="패스 5252" d="M19.239,211.706c-4.83,0-8.546-3.779-8.546-12.039,0-8.293,3.716-12.073,8.546-12.073,4.8,0,8.544,3.78,8.544,12.073,0,8.26-3.747,12.039-8.544,12.039m0-21.729c-2.954,0-5.592,2.415-5.592,9.69,0,7.243,2.638,9.688,5.592,9.688s5.621-2.445,5.621-9.688c0-7.275-2.668-9.69-5.621-9.69" transform="translate(7.377 129.427)" fill="#fff"/>
    <path id="패스_5253" data-name="패스 5253" d="M21.837,211.276v-2.033l8.039-7.72c2.445-2.6,4.225-4.607,4.225-7.339a3.916,3.916,0,0,0-4.289-4.1,4.457,4.457,0,0,0-4.639,4.575l-2.859-.477a7.281,7.281,0,0,1,7.655-6.608c3.973,0,7.054,2.415,7.054,6.545,0,3.461-2.224,5.876-4.86,8.514l-6.513,6.449a10,10,0,0,1,2.636-.38h9.181v2.572Z" transform="translate(15.066 129.415)" fill="#fff"/>
    <path id="패스_5254" data-name="패스 5254" d="M46.186,205.014v6.2H43.613v-6.2H31.985v-2.16l11.47-15.184h2.731v15.057h3.527v2.286ZM43.74,191.036l-8.576,11.691h8.45v-9.72a14.749,14.749,0,0,1,.127-1.97" transform="translate(22.067 129.48)" fill="#fff"/>
    <rect id="사각형_1926" data-name="사각형 1926" width="2.89" height="2.986" transform="translate(72.823 338.149)" fill="#fff"/>
    <path id="패스_5255" data-name="패스 5255" d="M67,193.7a5.639,5.639,0,0,1-3.557,5.274,5.45,5.45,0,0,1,3.971,5.655c-.1,4.86-3.971,7.434-8.419,7.434-4.83,0-7.213-2.413-8.483-6.576l3.877-1.526c.509,2.033,2.288,4.289,4.544,4.289,2.8,0,4.161-1.747,4.161-3.527,0-2.222-.6-3.748-5.56-3.748V197.8c4.194-.095,5.178-1.43,5.178-3.463.032-2.192-1.207-3.272-3.272-3.272-2.7,0-3.622,1.78-4.034,4.066-1.367-.221-2.733-.509-4.132-.73.923-4.86,3.941-7.084,8.421-7.084,4.448.095,7.4,2.859,7.306,6.385" transform="translate(34.851 129.233)" fill="#fded56"/>
    <rect id="사각형_1927" data-name="사각형 1927" width="4.639" height="4.51" transform="translate(104.614 336.623)" fill="#fded56"/>
    <path id="패스_5256" data-name="패스 5256" d="M69.835,204.989a5.9,5.9,0,0,1,4-5.91,5.776,5.776,0,0,1-3.177-5.242c0-3.907,3.177-6.543,7.593-6.543,4.48,0,7.689,2.636,7.689,6.543A5.712,5.712,0,0,1,82.7,199.08a5.9,5.9,0,0,1,4,5.91c0,4.416-3.464,7.084-8.451,7.084-4.955,0-8.418-2.668-8.418-7.084m12.516-.064a3.739,3.739,0,0,0-4.1-3.971,3.666,3.666,0,0,0-4,3.971c0,2.192,1.46,3.654,4,3.654s4.1-1.462,4.1-3.654M81.715,193.9a3.131,3.131,0,0,0-3.463-3.241,3.081,3.081,0,0,0-3.4,3.241,3.436,3.436,0,1,0,6.863,0" transform="translate(48.181 129.22)" fill="#fded56"/>
    <rect id="사각형_1928" data-name="사각형 1928" width="4.639" height="4.51" transform="translate(137.101 336.623)" fill="#fded56"/>
    <path id="패스_5257" data-name="패스 5257" d="M86.2,201.612a30.15,30.15,0,0,1,4.735-16.424l2.92,1.239a31.756,31.756,0,0,0,0,30.4l-2.92,1.239A30.184,30.184,0,0,1,86.2,201.612" transform="translate(59.474 127.767)" fill="#fded56"/>
    <path id="패스_5258" data-name="패스 5258" d="M92.047,200.557v-3.336H110.6a33.768,33.768,0,0,0,.7-7.213H95.319v-3.336h20.11v2.351a38.527,38.527,0,0,1-.666,8.2h3.779v3.336ZM115.3,214.281H95.16V203.608H115.3Zm-4.1-7.4H99.29v4.13H111.2Z" transform="translate(63.506 128.792)" fill="#fded56"/>
    <path id="패스_5259" data-name="패스 5259" d="M112.911,201.612a30.2,30.2,0,0,0-3.875-15.186l2.891-1.239a29.9,29.9,0,0,1,4.764,16.424,30.218,30.218,0,0,1-4.764,16.457l-2.891-1.239a30.152,30.152,0,0,0,3.875-15.218" transform="translate(75.227 127.767)" fill="#fded56"/>
    <rect id="사각형_1929" data-name="사각형 1929" width="11.279" height="3.336" transform="translate(201.793 327.156)" fill="#fded56"/>
    <path id="패스_5260" data-name="패스 5260" d="M131.249,195.089a7.824,7.824,0,0,1,8.2-7.814c4.924,0,7.975,3.272,7.975,7.941,0,2.954-1.81,5.942-3.336,8.291l-5.242,7.975h-5.083l6.861-9.435c.6-.635.985-1.016,1.082-1.112l-.666.382a6,6,0,0,1-3.115.666,6.506,6.506,0,0,1-6.672-6.893m8.132-4.257a3.643,3.643,0,0,0-3.843,3.939c0,2.574,1.365,3.813,3.811,3.813,2.574,0,3.973-1.492,3.973-3.78a3.679,3.679,0,0,0-3.941-3.971" transform="translate(90.553 129.207)" fill="#fded56"/>
    <rect id="사각형_1930" data-name="사각형 1930" width="4.639" height="4.51" transform="translate(240.411 336.623)" fill="#fded56"/>
    <path id="패스_5261" data-name="패스 5261" d="M147.335,201.612a30.151,30.151,0,0,1,4.735-16.424l2.92,1.239a31.756,31.756,0,0,0,0,30.4l-2.92,1.239a30.184,30.184,0,0,1-4.735-16.457" transform="translate(101.651 127.767)" fill="#fded56"/>
    <path id="패스_5262" data-name="패스 5262" d="M153.18,211.135v-3.4h11.15v-4.862h-8.037V187.087h20.332v3.334H160.55v2.861h15.409v3.24H160.55v3.049h16.3v3.3h-8.323v4.862h11.15v3.4Z" transform="translate(105.684 129.078)" fill="#fded56"/>
    <path id="패스_5263" data-name="패스 5263" d="M174.043,201.612a30.2,30.2,0,0,0-3.875-15.186l2.891-1.239a29.9,29.9,0,0,1,4.764,16.424,30.218,30.218,0,0,1-4.764,16.457l-2.891-1.239a30.152,30.152,0,0,0,3.875-15.218" transform="translate(117.404 127.767)" fill="#fded56"/>
    <path id="패스_5264" data-name="패스 5264" d="M180.635,207.071H206.4v2.16H180.635Zm2.765-19.157H201.73v.032h1.208v2.827a72.607,72.607,0,0,1-1.114,13.883l-2.6-.286a64.523,64.523,0,0,0,1.144-13.6v-.73H183.4Z" transform="translate(124.626 129.648)" fill="#fff"/>
    <path id="패스_5265" data-name="패스 5265" d="M200.107,203.112h-1.874v-8.387h8.134V190.69h-8.2v-2.1h10.706v8.1h-8.134v4.289a46.634,46.634,0,0,0,9.818-.825l.254,2.1a54.541,54.541,0,0,1-10.707.859m2.288,10.865v-8.546H205v6.418h16.8v2.128Zm9.785-27.321h2.479v8.005h3.812v-8.514h2.51v21.19h-2.51V196.79h-3.812v9.722H212.18Z" transform="translate(136.724 128.429)" fill="#fff"/>
    <path id="패스_5266" data-name="패스 5266" d="M214.238,207.557H240.1v2.16H214.238Zm3.3-19.887h19.284v2.16H220.114v8.9h17v2.128H217.542Z" transform="translate(147.81 129.48)" fill="#fff"/>
    <path id="패스_5267" data-name="패스 5267" d="M245.211,203.048v10.707H242.6V203.175c-2.7.1-5.24.128-7.529.128l-.316-2.194a133.273,133.273,0,0,0,18.743-.921l.157,1.97a76.162,76.162,0,0,1-8.45.889m-8.323-9.911c0-3.336,2.922-5.592,7.147-5.592s7.15,2.256,7.15,5.592c0,3.4-2.924,5.624-7.15,5.624s-7.147-2.226-7.147-5.624m2.447,0c0,2.192,1.9,3.622,4.7,3.622s4.7-1.43,4.7-3.622c0-2.16-1.908-3.591-4.7-3.591s-4.7,1.431-4.7,3.591m16.328,21.508v-7.022h-6.449V205.59h6.449V186.147h2.6v28.5Z" transform="translate(161.969 128.429)" fill="#fff"/>
    <path id="패스_5268" data-name="패스 5268" d="M253.1,209.943l-1.462-2.065c5.21-2.542,8.292-5.783,10.072-9.6l-9.5.891-.477-2.256,10.77-.7a20.155,20.155,0,0,0,.921-5.021H253.192v-2.128H266c0,8.291-2.858,15.789-12.9,20.872m19.378,4.669V199.682H265.9v-2.129h6.577V186.147h2.606v28.465Z" transform="translate(173.612 128.429)" fill="#fff"/>
    <path id="패스_5269" data-name="패스 5269" d="M268.7,188.864h7.37V185.94h2.606v2.924h7.339v2H268.7Zm8.674,12.642c-4.355,0-6.959-1.746-6.959-4.669s2.6-4.669,6.959-4.669c4.193,0,6.957,1.747,6.957,4.669s-2.765,4.669-6.957,4.669m0-1.937c2.668,0,4.446-1.048,4.446-2.733,0-1.78-1.778-2.733-4.446-2.733-2.8,0-4.448.953-4.448,2.733,0,1.685,1.651,2.733,4.448,2.733m-4.1,14.868V207.8h15.789v-2.51H273.18V203.35h18.457v6.322H275.816v2.763h16.806v2Zm15.757-28.274h2.606V201.92h-2.606Z" transform="translate(185.385 128.286)" fill="#fff"/>
    <path id="패스_5270" data-name="패스 5270" d="M306.362,206.017l-1.524,2.063a15.613,15.613,0,0,1-7.15-9.021c-1.271,4.225-3.875,7.846-7.083,9.53l-1.59-2.063c4.132-2.035,7.371-7.595,7.371-12.835v-5.115h2.606v5.115c0,5.146,3.24,10.388,7.37,12.326m3.525,8.641V197.915H303.28v-2.129h6.608v-9.658h2.606v28.529Z" transform="translate(199.401 128.416)" fill="#fff"/>
    <path id="패스_5271" data-name="패스 5271" d="M328.3,202.837v6.417H311.553v2.891h17.6v2.033H309.011v-6.831h16.712v-2.542H308.949v-1.969h8.45v-2.668H305.836v-2.1h25.733v2.1H320v2.668Zm-19.6-11.564c0-3.209,3.748-4.957,10.008-4.957,6.385,0,10.006,1.747,10.006,4.957S325.088,196.2,318.7,196.2c-6.26,0-10.008-1.717-10.008-4.924m2.668,0c0,1.906,2.6,2.986,7.339,2.986s7.338-1.08,7.338-2.986-2.6-2.988-7.338-2.988-7.339,1.082-7.339,2.988" transform="translate(211.006 128.545)" fill="#fff"/>
    <path id="패스_5272" data-name="패스 5272" d="M12.085,41.706V86.684a4.938,4.938,0,0,0,.818,3.27,3.012,3.012,0,0,0,2.363.911H39.526v10.812H9.268q-5,0-7.133-2.591T0,91.591v-60.7H38.617V41.706ZM69.238,70.237H60.06v39.435H47.884V30.894H60.06V58.971h9.178V30.894H81.414v78.778H69.238Z" transform="translate(0 21.315)" fill="#fff"/>
    <path id="패스_5273" data-name="패스 5273" d="M53.768,35.154H77.027V29.067H89.75v6.087h23.259v10.9H53.768Zm16.9,15.9q-7.361,0-11.267,4.179T55.493,66.229q0,6.908,3.907,11.132t11.267,4.225H96.018q7.633,0,11.541-4.225t3.905-11.132q0-6.814-3.905-10.995T96.018,51.055Zm48.52-18.9h12.631V49.693H139.9V60.868h-8.086v50.066H66.306a8.944,8.944,0,0,1-3.951-.818,7.734,7.734,0,0,1-2.773-2.226,9.982,9.982,0,0,1-1.636-3.18,12.448,12.448,0,0,1-.544-3.681V87.583H69.941v9.994a1.845,1.845,0,0,0,2.089,2.089h47.158ZM73.03,71.317a4.568,4.568,0,0,1-3.77-1.408,5.673,5.673,0,0,1-1.136-3.681,5.2,5.2,0,0,1,1.136-3.453,4.65,4.65,0,0,1,3.77-1.362H93.747a4.674,4.674,0,0,1,3.725,1.362,5.084,5.084,0,0,1,1.181,3.453,5.535,5.535,0,0,1-1.181,3.681,4.592,4.592,0,0,1-3.725,1.408Z" transform="translate(37.096 20.054)" fill="#fff"/>
    <path id="패스_5274" data-name="패스 5274" d="M159.75,102.223H118.588a8.735,8.735,0,0,1-3.862-.818,8.151,8.151,0,0,1-2.817-2.227A9.424,9.424,0,0,1,110.23,96a12.429,12.429,0,0,1-.546-3.679V30.894h12.629V52.975h24.807V30.894H159.75ZM147.119,91.137V64.061H122.313V89.046q0,2.091,2,2.09Zm29.532-60.243h12.631v78.78H176.651Z" transform="translate(75.675 21.315)" fill="#fff"/>
    <path id="패스_5275" data-name="패스 5275" d="M216.038,74.055H173.969a8.707,8.707,0,0,1-3.862-.818,8.092,8.092,0,0,1-2.817-2.226,9.427,9.427,0,0,1-1.681-3.18,12.445,12.445,0,0,1-.544-3.679V30.894h50.973Zm10.812-43.161h12.631V48.432h8.086V59.608h-8.086v50.066h-63.7a8.934,8.934,0,0,1-3.953-.818,7.694,7.694,0,0,1-2.77-2.226,9.917,9.917,0,0,1-1.638-3.18,12.448,12.448,0,0,1-.544-3.681V81.234h12.539V96.316a1.847,1.847,0,0,0,2.089,2.09h45.341ZM203.408,62.788V42.162H177.694V60.7q0,2.091,2,2.09Z" transform="translate(113.884 21.315)" fill="#fff"/>
    <path id="패스_5276" data-name="패스 5276" d="M217.757,35.153h23.26V29.066h12.722v6.087H277V46.058H217.757Zm16.9,14.993q-7.359,0-11.267,3.726t-3.905,10.538q0,6.908,3.905,10.677t11.267,3.772h25.351q7.635,0,11.541-3.772t3.907-10.677q0-6.814-3.907-10.538t-11.541-3.726Zm48.521,60.789h12.631V94.123a10.957,10.957,0,0,0-2.227-7.223q-2.228-2.679-6.677-2.68h-63.7V95.306h57.97q2,0,2,2.089ZM237.021,68.592a4.741,4.741,0,0,1-3.772-1.318,4.293,4.293,0,0,1-1.136-2.863,3.876,3.876,0,0,1,1.136-2.68,4.954,4.954,0,0,1,3.772-1.227h20.715a4.976,4.976,0,0,1,3.725,1.227,3.8,3.8,0,0,1,1.183,2.68,4.2,4.2,0,0,1-1.183,2.863,4.762,4.762,0,0,1-3.725,1.318Zm46.157,12.357h12.631V59.868h8.086V48.784h-8.086V32.155H283.178Z" transform="translate(150.238 20.054)" fill="#fff"/>
    <path id="패스_5277" data-name="패스 5277" d="M272.6,35.154h23.259V29.067h12.724v6.087h23.259v10.9H272.6Zm16.9,15.9q-7.361,0-11.267,4.179t-3.907,10.995q0,6.908,3.907,11.132T289.5,81.585h6.724v6.27H274.417v10.9h67.874v12.176H354.92V32.155H342.291v55.7H309.035v-6.27h5.815q7.632,0,11.54-4.225T330.3,66.229q0-6.814-3.905-10.995t-11.54-4.179Zm2.362,20.262a4.568,4.568,0,0,1-3.77-1.408,5.673,5.673,0,0,1-1.136-3.681,5.2,5.2,0,0,1,1.136-3.453,4.65,4.65,0,0,1,3.77-1.362h20.717a4.674,4.674,0,0,1,3.725,1.362,5.084,5.084,0,0,1,1.181,3.453,5.535,5.535,0,0,1-1.181,3.681,4.592,4.592,0,0,1-3.725,1.408Z" transform="translate(188.076 20.054)" fill="#fff"/>
    <path id="패스_5278" data-name="패스 5278" d="M48.976,107.947a17.123,17.123,0,0,0,4.634,4.27,33.84,33.84,0,0,0,13.175,4.862,68.393,68.393,0,0,0,13.721.681v9.994a113.238,113.238,0,0,1-12.857-.363,60.117,60.117,0,0,1-12.4-2.363,36.035,36.035,0,0,1-9-4.225,22.286,22.286,0,0,1-6.814-7.133,24.242,24.242,0,0,1-6.45,6.77,33.92,33.92,0,0,1-8.088,4.135,45.3,45.3,0,0,1-12.4,2.589q-6.317.408-12.494.59V117.76q3.27-.089,6.587-.272a50.825,50.825,0,0,0,6.5-.772,43.637,43.637,0,0,0,6.226-1.636,26.858,26.858,0,0,0,5.861-2.863,17.172,17.172,0,0,0,4.634-4.27H0v-10.9H33.347V91.228H45.522v5.815H80.505v10.9ZM33.8,154.2V143.383H0V132.39H80.505v10.993H46.522V154.2Zm46.7,7.632V173.1H9a8.735,8.735,0,0,1-3.861-.816,8.151,8.151,0,0,1-2.817-2.227,10.126,10.126,0,0,1-1.727-3.18A11.551,11.551,0,0,1,0,163.192V149.744H12.722v10a2.541,2.541,0,0,0,.407,1.545,1.773,1.773,0,0,0,1.5.544Z" transform="translate(0 62.941)" fill="#fcc401"/>
    <path id="패스_5279" data-name="패스 5279" d="M105.453,143.3h-14.9a38.43,38.43,0,0,1-5.132,8.86,30.924,30.924,0,0,1-7.589,6.951,36.209,36.209,0,0,1-10.175,4.5,47.869,47.869,0,0,1-12.811,1.59V154.115q13.263-.816,20.081-8t6.814-20.989v-21.08h-26.9V93.056H93.914v13.083h11.539V93.056h12.176v78.778H105.453ZM93.914,124.768a52.1,52.1,0,0,1-.546,7.723h12.085v-15.72H93.914ZM124.08,93.056h12.176v78.78H124.08Z" transform="translate(37.838 64.202)" fill="#fcc401"/>
    <path id="패스_5280" data-name="패스 5280" d="M108.61,97.315h23.26V91.228h12.722v6.087h23.26V108.22H108.61Zm16.9,14.993q-7.359,0-11.267,3.726t-3.905,10.538q0,6.908,3.905,10.677t11.267,3.772H150.86q7.635,0,11.541-3.772t3.907-10.677q0-6.814-3.907-10.538t-11.541-3.726ZM174.031,173.1h12.631V156.285a10.957,10.957,0,0,0-2.227-7.223q-2.228-2.679-6.677-2.68h-63.7v11.086h57.97q2,0,2,2.089Zm-46.157-42.343a4.741,4.741,0,0,1-3.772-1.318,4.293,4.293,0,0,1-1.136-2.863,3.876,3.876,0,0,1,1.136-2.68,4.954,4.954,0,0,1,3.772-1.227h20.715a4.976,4.976,0,0,1,3.725,1.227,3.8,3.8,0,0,1,1.183,2.68,4.2,4.2,0,0,1-1.183,2.863,4.762,4.762,0,0,1-3.725,1.318Zm46.157,12.357h12.631V122.03h8.086V110.946h-8.086V94.317H174.031Z" transform="translate(74.934 62.941)" fill="#fcc401"/>
    <path id="패스_5281" data-name="패스 5281" d="M203.962,106.5q-2.091,3.27-7.27,5.541a54.425,54.425,0,0,1-12.811,3.544,81.039,81.039,0,0,1-9.087,1q-4.816.274-10.266.274v-9.178q2.363,0,5.088-.09t5.452-.365a69.839,69.839,0,0,0,8.086-1.316,34.357,34.357,0,0,0,6.27-1.954,16.059,16.059,0,0,0,6.27-4.59,9.92,9.92,0,0,0,2.18-6.314h12.176a9.881,9.881,0,0,0,2.136,6.27,15.9,15.9,0,0,0,6.224,4.543,37.367,37.367,0,0,0,6.407,2.045,58.347,58.347,0,0,0,6.905,1.136q3.5.362,6.905.455t6.407.091v8.994q-3.455,0-7.769-.09t-8.952-.546q-3.815-.363-7.495-1.044a51.647,51.647,0,0,1-6.952-1.773,26.778,26.778,0,0,1-5.859-2.724,12.824,12.824,0,0,1-4.044-3.907m-39.435,43.068v12.176q0,4.908,2.18,7.5t7.088,2.589h71.237V162.2H179.61a2.683,2.683,0,0,1-1.862-.546,3.149,3.149,0,0,1-.59-2.271v-1h67.874V145.939q0-4.908-2.18-7.5t-7.089-2.591H211.047v-4.543h33.985v-9.722H164.527v9.722h33.8v4.543h-33.8v9.633h65.421a2.683,2.683,0,0,1,1.862.544,3.15,3.15,0,0,1,.591,2.273v1.271Z" transform="translate(113.513 64.202)" fill="#fcc401"/>
    <path id="패스_5282" data-name="패스 5282" d="M231.455,103.868v44.978a4.947,4.947,0,0,0,.818,3.27,3.011,3.011,0,0,0,2.364.911H258.9v10.812H228.639q-5,0-7.133-2.591t-2.136-7.495v-60.7h38.617v10.812ZM288.608,132.4H279.43v39.435H267.254V93.056H279.43v28.077h9.178V93.056h12.176v78.778H288.608Z" transform="translate(151.35 64.202)" fill="#fcc401"/>
    <path id="패스_5283" data-name="패스 5283" d="M273.138,97.316H296.4V91.229H309.12v6.087h23.259v10.9H273.138Zm16.9,15.9q-7.361,0-11.267,4.179t-3.907,10.995q0,6.908,3.907,11.132t11.267,4.225h6.724v6.27H274.955v10.9h67.874V173.1h12.629V94.317H342.829v55.7H309.573v-6.27h5.815q7.633,0,11.541-4.225t3.905-11.132q0-6.814-3.905-10.995t-11.541-4.179Zm2.363,20.262a4.569,4.569,0,0,1-3.77-1.408,5.673,5.673,0,0,1-1.136-3.681,5.2,5.2,0,0,1,1.136-3.453,4.65,4.65,0,0,1,3.77-1.362h20.717a4.674,4.674,0,0,1,3.725,1.362,5.084,5.084,0,0,1,1.181,3.453,5.535,5.535,0,0,1-1.181,3.681,4.592,4.592,0,0,1-3.725,1.408Z" transform="translate(188.447 62.942)" fill="#fcc401"/>
    <path id="패스_5284" data-name="패스 5284" d="M6.3,174.4V158.387H.32v-2.143H14.711v2.143H8.705V174.4Z" transform="translate(0.221 107.798)" fill="#fff"/>
    <path id="패스_5285" data-name="패스 5285" d="M10.126,174.4V156.244h2.229v6.515a4.979,4.979,0,0,1,3.939-1.808,5.29,5.29,0,0,1,2.538.576,3.391,3.391,0,0,1,1.543,1.59,7.357,7.357,0,0,1,.463,2.949V174.4H18.611v-8.335a3.455,3.455,0,0,0-.725-2.435,2.7,2.7,0,0,0-2.05-.76,3.608,3.608,0,0,0-1.864.514,2.9,2.9,0,0,0-1.245,1.394,6.407,6.407,0,0,0-.372,2.427v7.2Z" transform="translate(6.986 107.798)" fill="#fff"/>
    <path id="패스_5286" data-name="패스 5286" d="M27.782,168.244l2.3.284a5.614,5.614,0,0,1-2.018,3.133,6.068,6.068,0,0,1-3.765,1.115A6.014,6.014,0,0,1,19.726,171a6.94,6.94,0,0,1-1.692-4.985,7.26,7.26,0,0,1,1.71-5.151,5.786,5.786,0,0,1,4.433-1.834,5.623,5.623,0,0,1,4.311,1.8,7.13,7.13,0,0,1,1.671,5.053c0,.132,0,.33-.012.593h-9.81a5.058,5.058,0,0,0,1.227,3.321,3.651,3.651,0,0,0,2.75,1.151,3.4,3.4,0,0,0,2.094-.644,4.287,4.287,0,0,0,1.374-2.055m-7.319-3.6h7.344a4.465,4.465,0,0,0-.842-2.489,3.422,3.422,0,0,0-2.763-1.288,3.538,3.538,0,0,0-2.582,1.027,4.069,4.069,0,0,0-1.158,2.75" transform="translate(12.442 109.719)" fill="#fff"/>
    <path id="패스_5287" data-name="패스 5287" d="M31.16,174.4V156.244h6.254a15.135,15.135,0,0,1,3.233.26,6.17,6.17,0,0,1,2.663,1.3,7.42,7.42,0,0,1,2.15,3.1,12.218,12.218,0,0,1,.71,4.316,12.672,12.672,0,0,1-.482,3.667,8.9,8.9,0,0,1-1.239,2.643,6.582,6.582,0,0,1-1.653,1.648,6.746,6.746,0,0,1-2.168.911,12.379,12.379,0,0,1-2.915.309Zm2.4-2.143h3.875a9.4,9.4,0,0,0,2.817-.335,4.026,4.026,0,0,0,1.631-.941,5.725,5.725,0,0,0,1.332-2.3,11.247,11.247,0,0,0,.475-3.5,8.445,8.445,0,0,0-.933-4.377,4.7,4.7,0,0,0-2.273-2.05,9.373,9.373,0,0,0-3.109-.372H33.563Z" transform="translate(21.498 107.798)" fill="#fff"/>
    <path id="패스_5288" data-name="패스 5288" d="M50.721,170.857a8.321,8.321,0,0,1-2.383,1.487,6.9,6.9,0,0,1-2.459.433,4.785,4.785,0,0,1-3.331-1.058,3.494,3.494,0,0,1-1.164-2.707,3.586,3.586,0,0,1,.439-1.764,3.673,3.673,0,0,1,1.151-1.283,5.476,5.476,0,0,1,1.605-.73,15.537,15.537,0,0,1,1.981-.335,20.376,20.376,0,0,0,3.976-.767c.007-.306.014-.5.014-.583a2.458,2.458,0,0,0-.634-1.92,3.728,3.728,0,0,0-2.538-.755,3.938,3.938,0,0,0-2.322.551,3.369,3.369,0,0,0-1.109,1.952l-2.18-.3a5.4,5.4,0,0,1,.978-2.261,4.294,4.294,0,0,1,1.969-1.325,8.8,8.8,0,0,1,2.986-.465,7.872,7.872,0,0,1,2.736.4,3.6,3.6,0,0,1,1.548,1,3.529,3.529,0,0,1,.695,1.518A12.563,12.563,0,0,1,52.791,164v2.973a31.3,31.3,0,0,0,.142,3.932,5,5,0,0,0,.564,1.578h-2.33a4.7,4.7,0,0,1-.446-1.622m-.184-4.979a16.412,16.412,0,0,1-3.64.843,8.508,8.508,0,0,0-1.947.444,1.947,1.947,0,0,0-.879.725,1.97,1.97,0,0,0,.367,2.545,2.9,2.9,0,0,0,1.976.595,4.588,4.588,0,0,0,2.292-.564,3.462,3.462,0,0,0,1.472-1.541,5.348,5.348,0,0,0,.36-2.229Z" transform="translate(28.552 109.719)" fill="#fff"/>
    <path id="패스_5289" data-name="패스 5289" d="M53.257,172.358l-4.025-13.153h2.3l2.094,7.591.781,2.824q.048-.21.681-2.712l2.092-7.7h2.292l1.97,7.628.654,2.515.757-2.538,2.254-7.6h2.167l-4.112,13.153H60.849l-2.092-7.877-.509-2.243-2.662,10.119Z" transform="translate(33.967 109.841)" fill="#fff"/>
    <path id="패스_5290" data-name="패스 5290" d="M61.018,172.479V159.326h2.006V161.2a4.73,4.73,0,0,1,4.188-2.166,5.479,5.479,0,0,1,2.185.428,3.426,3.426,0,0,1,1.492,1.12,4.308,4.308,0,0,1,.695,1.648,12.747,12.747,0,0,1,.123,2.166v8.088H69.478v-8a6.03,6.03,0,0,0-.26-2.038,2.154,2.154,0,0,0-.923-1.078,2.95,2.95,0,0,0-1.555-.4,3.611,3.611,0,0,0-2.457.9q-1.037.9-1.036,3.432v7.182Z" transform="translate(42.098 109.719)" fill="#fff"/>
    <path id="패스_5291" data-name="패스 5291" d="M73.044,165.9q0-3.653,2.031-5.413a6.122,6.122,0,0,1,4.137-1.46,5.9,5.9,0,0,1,4.433,1.776,6.76,6.76,0,0,1,1.724,4.911,8.676,8.676,0,0,1-.764,3.993,5.392,5.392,0,0,1-2.216,2.261,6.447,6.447,0,0,1-3.177.8,5.918,5.918,0,0,1-4.466-1.769,7.076,7.076,0,0,1-1.7-5.1m2.292,0a5.6,5.6,0,0,0,1.1,3.784,3.669,3.669,0,0,0,5.536-.007,5.741,5.741,0,0,0,1.1-3.851,5.433,5.433,0,0,0-1.109-3.7,3.672,3.672,0,0,0-5.529-.007,5.572,5.572,0,0,0-1.1,3.777" transform="translate(50.395 109.719)" fill="#fff"/>
    <path id="패스_5292" data-name="패스 5292" d="M83,174.527V163.108H81.033v-1.734H83v-1.4a6.136,6.136,0,0,1,.235-1.97,2.836,2.836,0,0,1,1.134-1.4,4.074,4.074,0,0,1,2.271-.539,10.918,10.918,0,0,1,2.082.223l-.335,1.943a7.633,7.633,0,0,0-1.313-.123,1.954,1.954,0,0,0-1.436.434,2.345,2.345,0,0,0-.421,1.622v1.213h2.564v1.734H85.219v11.419Z" transform="translate(55.907 107.672)" fill="#fff"/>
    <path id="패스_5293" data-name="패스 5293" d="M99.114,170.857a8.3,8.3,0,0,1-2.385,1.487,6.882,6.882,0,0,1-2.457.433,4.789,4.789,0,0,1-3.333-1.058,3.494,3.494,0,0,1-1.164-2.707,3.588,3.588,0,0,1,.441-1.764,3.64,3.64,0,0,1,1.151-1.283,5.437,5.437,0,0,1,1.605-.73,15.5,15.5,0,0,1,1.979-.335,20.349,20.349,0,0,0,3.976-.767c.008-.306.014-.5.014-.583a2.464,2.464,0,0,0-.632-1.92,3.731,3.731,0,0,0-2.538-.755,3.938,3.938,0,0,0-2.322.551,3.36,3.36,0,0,0-1.109,1.952l-2.18-.3a5.4,5.4,0,0,1,.978-2.261,4.285,4.285,0,0,1,1.969-1.325,8.778,8.778,0,0,1,2.984-.465,7.866,7.866,0,0,1,2.736.4,3.6,3.6,0,0,1,1.548,1,3.53,3.53,0,0,1,.7,1.518,12.82,12.82,0,0,1,.11,2.057v2.973a31.162,31.162,0,0,0,.144,3.932,4.951,4.951,0,0,0,.563,1.578H99.56a4.7,4.7,0,0,1-.446-1.622m-.186-4.979a16.412,16.412,0,0,1-3.64.843,8.511,8.511,0,0,0-1.945.444,1.947,1.947,0,0,0-.879.725,1.967,1.967,0,0,0,.365,2.545,2.9,2.9,0,0,0,1.976.595,4.588,4.588,0,0,0,2.292-.564,3.457,3.457,0,0,0,1.474-1.541,5.379,5.379,0,0,0,.358-2.229Z" transform="translate(61.939 109.719)" fill="#fff"/>
    <path id="패스_5294" data-name="패스 5294" d="M102.894,174.4V156.244h2.464L114.9,170.5V156.244h2.3V174.4h-2.466L105.2,160.132V174.4Z" transform="translate(70.99 107.798)" fill="#fff"/>
    <path id="패스_5295" data-name="패스 5295" d="M122.888,168.244l2.3.284a5.615,5.615,0,0,1-2.018,3.133A6.839,6.839,0,0,1,114.83,171a6.94,6.94,0,0,1-1.69-4.985,7.26,7.26,0,0,1,1.71-5.151,5.783,5.783,0,0,1,4.433-1.834,5.623,5.623,0,0,1,4.311,1.8,7.138,7.138,0,0,1,1.671,5.053c0,.132-.005.33-.014.593h-9.807a5.057,5.057,0,0,0,1.225,3.321,3.651,3.651,0,0,0,2.75,1.151,3.4,3.4,0,0,0,2.094-.644,4.287,4.287,0,0,0,1.374-2.055m-7.319-3.6h7.344a4.465,4.465,0,0,0-.842-2.489,3.42,3.42,0,0,0-2.763-1.288,3.538,3.538,0,0,0-2.582,1.027,4.069,4.069,0,0,0-1.158,2.75" transform="translate(78.059 109.719)" fill="#fff"/>
    <path id="패스_5296" data-name="패스 5296" d="M125.007,172.358l-4.025-13.153h2.3l2.094,7.591.781,2.824q.048-.21.681-2.712l2.092-7.7h2.292l1.97,7.628.654,2.515.757-2.538,2.254-7.6h2.166l-4.112,13.153H132.6l-2.092-7.877L130,162.238l-2.662,10.119Z" transform="translate(83.469 109.841)" fill="#fff"/>
    <path id="패스_5297" data-name="패스 5297" d="M137.135,174.4V156.244h13.129v2.143H139.538v5.56h10.043v2.131H139.538v6.18h11.147V174.4Z" transform="translate(94.614 107.798)" fill="#fff"/>
    <path id="패스_5298" data-name="패스 5298" d="M146.934,172.479V159.326h2.006v1.992a5.468,5.468,0,0,1,1.418-1.844,2.478,2.478,0,0,1,1.431-.446,4.356,4.356,0,0,1,2.292.718l-.769,2.068a3.192,3.192,0,0,0-1.634-.483,2.13,2.13,0,0,0-1.313.439,2.394,2.394,0,0,0-.83,1.22,8.714,8.714,0,0,0-.372,2.6v6.887Z" transform="translate(101.375 109.719)" fill="#fff"/>
    <path id="패스_5299" data-name="패스 5299" d="M160.838,170.857a8.3,8.3,0,0,1-2.384,1.487,6.882,6.882,0,0,1-2.457.433,4.789,4.789,0,0,1-3.333-1.058,3.494,3.494,0,0,1-1.164-2.707,3.588,3.588,0,0,1,.441-1.764,3.641,3.641,0,0,1,1.151-1.283,5.437,5.437,0,0,1,1.605-.73,15.5,15.5,0,0,1,1.979-.335,20.349,20.349,0,0,0,3.976-.767c.008-.306.014-.5.014-.583a2.464,2.464,0,0,0-.632-1.92,3.73,3.73,0,0,0-2.538-.755,3.938,3.938,0,0,0-2.322.551,3.36,3.36,0,0,0-1.109,1.952l-2.18-.3a5.4,5.4,0,0,1,.978-2.261,4.285,4.285,0,0,1,1.969-1.325,8.778,8.778,0,0,1,2.984-.465,7.866,7.866,0,0,1,2.736.4,3.6,3.6,0,0,1,1.548,1,3.531,3.531,0,0,1,.7,1.518,12.822,12.822,0,0,1,.11,2.057v2.973a31.159,31.159,0,0,0,.144,3.932,4.95,4.95,0,0,0,.563,1.578h-2.329a4.7,4.7,0,0,1-.446-1.622m-.186-4.979a16.413,16.413,0,0,1-3.64.843,8.512,8.512,0,0,0-1.945.444,1.947,1.947,0,0,0-.879.725,1.967,1.967,0,0,0,.365,2.545,2.9,2.9,0,0,0,1.976.595,4.588,4.588,0,0,0,2.292-.564,3.457,3.457,0,0,0,1.474-1.541,5.379,5.379,0,0,0,.358-2.229Z" transform="translate(104.524 109.719)" fill="#fff"/>
    <path id="패스_5300" data-name="패스 5300" d="M164.472,156.244H166.7v2.564h-2.227Zm0,5H166.7V174.4h-2.227Z" transform="translate(113.475 107.798)" fill="#fff"/>
    <path id="패스_5301" data-name="패스 5301" d="M167.8,172.479V159.326H169.8V161.2a4.73,4.73,0,0,1,4.188-2.166,5.479,5.479,0,0,1,2.185.428,3.426,3.426,0,0,1,1.492,1.12,4.308,4.308,0,0,1,.695,1.648,12.745,12.745,0,0,1,.123,2.166v8.088h-2.229v-8a6.03,6.03,0,0,0-.26-2.038,2.154,2.154,0,0,0-.923-1.078,2.95,2.95,0,0,0-1.555-.4,3.611,3.611,0,0,0-2.457.9q-1.037.9-1.036,3.432v7.182Z" transform="translate(115.77 109.719)" fill="#fff"/>
    <path id="패스_5302" data-name="패스 5302" d="M180.053,165.689a9.864,9.864,0,0,1,2.428-7.077,8.25,8.25,0,0,1,6.266-2.559,8.693,8.693,0,0,1,4.532,1.2,7.856,7.856,0,0,1,3.079,3.351,10.872,10.872,0,0,1,1.06,4.874,10.7,10.7,0,0,1-1.117,4.941,7.593,7.593,0,0,1-3.159,3.3,9.019,9.019,0,0,1-4.407,1.12,8.577,8.577,0,0,1-4.583-1.239,7.977,7.977,0,0,1-3.06-3.38,10.264,10.264,0,0,1-1.039-4.534m2.477.037a7.276,7.276,0,0,0,1.764,5.171,6.157,6.157,0,0,0,8.894-.019,7.717,7.717,0,0,0,1.752-5.413,9.317,9.317,0,0,0-.75-3.87A5.764,5.764,0,0,0,192,159.032a5.948,5.948,0,0,0-3.238-.911,6.147,6.147,0,0,0-4.392,1.752q-1.84,1.754-1.839,5.852" transform="translate(124.224 107.666)" fill="#fff"/>
    <path id="패스_5303" data-name="패스 5303" d="M194.052,174.4h-2.068V156.244h2.227v6.478a4.415,4.415,0,0,1,3.6-1.771,5.488,5.488,0,0,1,2.3.49,4.7,4.7,0,0,1,1.783,1.374,6.637,6.637,0,0,1,1.1,2.136,8.829,8.829,0,0,1,.4,2.675,7.511,7.511,0,0,1-1.671,5.227,5.227,5.227,0,0,1-4.012,1.845,4.185,4.185,0,0,1-3.654-1.943Zm-.025-6.675a6.834,6.834,0,0,0,.644,3.419,3.186,3.186,0,0,0,5.376.451,5.778,5.778,0,0,0,1.065-3.784,5.871,5.871,0,0,0-1.022-3.8,3.106,3.106,0,0,0-2.471-1.225,3.208,3.208,0,0,0-2.526,1.269,5.575,5.575,0,0,0-1.065,3.672" transform="translate(132.456 107.798)" fill="#fff"/>
    <path id="패스_5304" data-name="패스 5304" d="M209.647,168.244l2.3.284a5.614,5.614,0,0,1-2.018,3.133,6.839,6.839,0,0,1-8.343-.662,6.94,6.94,0,0,1-1.69-4.985,7.26,7.26,0,0,1,1.71-5.151,5.783,5.783,0,0,1,4.433-1.834,5.623,5.623,0,0,1,4.311,1.8,7.138,7.138,0,0,1,1.671,5.053c0,.132-.005.33-.014.593H202.2a5.057,5.057,0,0,0,1.225,3.321,3.651,3.651,0,0,0,2.75,1.151,3.4,3.4,0,0,0,2.094-.644,4.287,4.287,0,0,0,1.374-2.055m-7.319-3.6h7.344a4.465,4.465,0,0,0-.842-2.489,3.42,3.42,0,0,0-2.763-1.288,3.538,3.538,0,0,0-2.582,1.027,4.07,4.07,0,0,0-1.158,2.75" transform="translate(137.917 109.719)" fill="#fff"/>
    <path id="패스_5305" data-name="패스 5305" d="M208.159,168.553l2.205-.346a3.084,3.084,0,0,0,1.033,2.031,3.611,3.611,0,0,0,2.371.706,3.48,3.48,0,0,0,2.28-.627,1.864,1.864,0,0,0,.744-1.467,1.356,1.356,0,0,0-.656-1.19,9.738,9.738,0,0,0-2.28-.755,20.616,20.616,0,0,1-3.4-1.071,3.242,3.242,0,0,1-1.925-3.015,3.382,3.382,0,0,1,.4-1.629,3.623,3.623,0,0,1,1.1-1.245,4.669,4.669,0,0,1,1.418-.651,6.821,6.821,0,0,1,1.927-.265,7.612,7.612,0,0,1,2.719.446,3.709,3.709,0,0,1,1.727,1.207,4.7,4.7,0,0,1,.769,2.038l-2.18.3a2.386,2.386,0,0,0-.862-1.585,3.141,3.141,0,0,0-2.011-.57,3.631,3.631,0,0,0-2.192.509,1.472,1.472,0,0,0-.657,1.188,1.237,1.237,0,0,0,.272.781,1.966,1.966,0,0,0,.855.593q.335.124,1.969.571a27.607,27.607,0,0,1,3.3,1.033,3.348,3.348,0,0,1,1.467,1.171,3.269,3.269,0,0,1,.534,1.908,3.733,3.733,0,0,1-.651,2.1,4.21,4.21,0,0,1-1.876,1.523,6.82,6.82,0,0,1-2.775.539,6.179,6.179,0,0,1-3.907-1.065,4.941,4.941,0,0,1-1.715-3.159" transform="translate(143.616 109.719)" fill="#fff"/>
    <path id="패스_5306" data-name="패스 5306" d="M216.2,156.244h2.227v2.564H216.2Zm0,5h2.227V174.4H216.2Z" transform="translate(149.162 107.798)" fill="#fff"/>
    <path id="패스_5307" data-name="패스 5307" d="M224.892,172.24l.323,1.97a8.3,8.3,0,0,1-1.685.2,3.827,3.827,0,0,1-1.883-.384,2.157,2.157,0,0,1-.941-1.011,8.01,8.01,0,0,1-.272-2.631v-7.568H218.8v-1.734h1.634v-3.258l2.217-1.337v4.595h2.241v1.734h-2.241v7.691a3.923,3.923,0,0,0,.117,1.227.926.926,0,0,0,.385.433,1.473,1.473,0,0,0,.762.162,7.047,7.047,0,0,0,.977-.088" transform="translate(150.957 107.965)" fill="#fff"/>
    <path id="패스_5308" data-name="패스 5308" d="M224.112,177.423l-.247-2.094a4.975,4.975,0,0,0,1.274.2,2.447,2.447,0,0,0,1.19-.247,2.017,2.017,0,0,0,.73-.693,10.863,10.863,0,0,0,.681-1.661c.042-.123.108-.3.2-.544l-4.99-13.178h2.4l2.738,7.618q.532,1.447.953,3.045a29.864,29.864,0,0,1,.916-3l2.812-7.667H235l-5,13.376a25.981,25.981,0,0,1-1.251,2.984,4.4,4.4,0,0,1-1.362,1.617,3.212,3.212,0,0,1-1.832.514,4.481,4.481,0,0,1-1.438-.272" transform="translate(153.82 109.84)" fill="#fff"/>
    <path id="패스_5309" data-name="패스 5309" d="M235.495,174.4V156.244h3.616l4.3,12.855q.593,1.8.867,2.689.309-.991.967-2.912l4.347-12.632h3.233V174.4H250.5V159.2l-5.276,15.2h-2.166l-5.252-15.456V174.4Z" transform="translate(162.476 107.798)" fill="#fff"/>
    <path id="패스_5310" data-name="패스 5310" d="M256.765,170.857a8.305,8.305,0,0,1-2.385,1.487,6.882,6.882,0,0,1-2.457.433,4.789,4.789,0,0,1-3.333-1.058,3.494,3.494,0,0,1-1.164-2.707,3.587,3.587,0,0,1,.441-1.764,3.64,3.64,0,0,1,1.151-1.283,5.437,5.437,0,0,1,1.605-.73,15.5,15.5,0,0,1,1.979-.335,20.349,20.349,0,0,0,3.976-.767c.008-.306.014-.5.014-.583a2.464,2.464,0,0,0-.632-1.92,3.73,3.73,0,0,0-2.538-.755,3.938,3.938,0,0,0-2.322.551,3.36,3.36,0,0,0-1.109,1.952l-2.18-.3a5.4,5.4,0,0,1,.978-2.261,4.286,4.286,0,0,1,1.969-1.325,8.778,8.778,0,0,1,2.984-.465,7.866,7.866,0,0,1,2.736.4,3.6,3.6,0,0,1,1.548,1,3.532,3.532,0,0,1,.7,1.518,12.82,12.82,0,0,1,.11,2.057v2.973a31.162,31.162,0,0,0,.144,3.932,4.952,4.952,0,0,0,.563,1.578h-2.329a4.7,4.7,0,0,1-.446-1.622m-.186-4.979a16.412,16.412,0,0,1-3.64.843,8.511,8.511,0,0,0-1.945.444,1.948,1.948,0,0,0-.879.725,1.966,1.966,0,0,0,.365,2.545,2.9,2.9,0,0,0,1.975.595,4.588,4.588,0,0,0,2.292-.564,3.457,3.457,0,0,0,1.474-1.541,5.379,5.379,0,0,0,.358-2.229Z" transform="translate(170.707 109.719)" fill="#fff"/>
    <path id="패스_5311" data-name="패스 5311" d="M256.221,172.479V159.326h2.006V161.2a4.73,4.73,0,0,1,4.188-2.166,5.479,5.479,0,0,1,2.185.428,3.426,3.426,0,0,1,1.492,1.12,4.309,4.309,0,0,1,.695,1.648,12.745,12.745,0,0,1,.123,2.166v8.088h-2.229v-8a6.03,6.03,0,0,0-.26-2.038,2.154,2.154,0,0,0-.923-1.078,2.95,2.95,0,0,0-1.555-.4,3.611,3.611,0,0,0-2.457.9q-1.037.9-1.036,3.432v7.182Z" transform="translate(176.775 109.719)" fill="#fff"/>
    <path id="패스_5312" data-name="패스 5312" d="M273.46,170.857a8.3,8.3,0,0,1-2.384,1.487,6.882,6.882,0,0,1-2.457.433,4.79,4.79,0,0,1-3.333-1.058,3.494,3.494,0,0,1-1.164-2.707,3.587,3.587,0,0,1,.441-1.764,3.64,3.64,0,0,1,1.151-1.283,5.436,5.436,0,0,1,1.605-.73,15.5,15.5,0,0,1,1.979-.335,20.348,20.348,0,0,0,3.976-.767c.008-.306.014-.5.014-.583a2.464,2.464,0,0,0-.632-1.92,3.73,3.73,0,0,0-2.538-.755,3.938,3.938,0,0,0-2.322.551,3.359,3.359,0,0,0-1.109,1.952l-2.18-.3a5.4,5.4,0,0,1,.979-2.261,4.285,4.285,0,0,1,1.969-1.325,8.778,8.778,0,0,1,2.984-.465,7.866,7.866,0,0,1,2.736.4,3.6,3.6,0,0,1,1.548,1,3.532,3.532,0,0,1,.7,1.518,12.827,12.827,0,0,1,.11,2.057v2.973a31.15,31.15,0,0,0,.144,3.932,4.949,4.949,0,0,0,.563,1.578h-2.329a4.7,4.7,0,0,1-.446-1.622m-.186-4.979a16.411,16.411,0,0,1-3.64.843,8.512,8.512,0,0,0-1.945.444,1.947,1.947,0,0,0-.879.725,1.967,1.967,0,0,0,.365,2.545,2.9,2.9,0,0,0,1.975.595,4.588,4.588,0,0,0,2.292-.564,3.457,3.457,0,0,0,1.474-1.541,5.379,5.379,0,0,0,.358-2.229Z" transform="translate(182.226 109.719)" fill="#fff"/>
    <path id="패스_5313" data-name="패스 5313" d="M272.855,173.569l2.168.321a2.065,2.065,0,0,0,.757,1.462,3.712,3.712,0,0,0,2.266.62,3.983,3.983,0,0,0,2.39-.62,3.035,3.035,0,0,0,1.139-1.734,14.16,14.16,0,0,0,.161-2.861,4.583,4.583,0,0,1-3.64,1.722,4.963,4.963,0,0,1-4.2-1.957,7.55,7.55,0,0,1-1.485-4.695,8.721,8.721,0,0,1,.681-3.473,5.45,5.45,0,0,1,1.976-2.461,5.346,5.346,0,0,1,3.04-.865,4.715,4.715,0,0,1,3.839,1.883v-1.585H284V170.7a10.8,10.8,0,0,1-.625,4.352,4.577,4.577,0,0,1-1.982,2.026,6.871,6.871,0,0,1-3.339.742,6.3,6.3,0,0,1-3.8-1.058,3.583,3.583,0,0,1-1.4-3.189m1.847-7.9a5.7,5.7,0,0,0,1.028,3.777,3.391,3.391,0,0,0,5.153.007,5.525,5.525,0,0,0,1.039-3.709,5.4,5.4,0,0,0-1.07-3.642,3.315,3.315,0,0,0-2.584-1.225,3.218,3.218,0,0,0-2.526,1.207,5.367,5.367,0,0,0-1.039,3.586" transform="translate(187.945 109.719)" fill="#fff"/>
    <path id="패스_5314" data-name="패스 5314" d="M290.572,168.244l2.3.284a5.614,5.614,0,0,1-2.018,3.133,6.839,6.839,0,0,1-8.343-.662,6.94,6.94,0,0,1-1.69-4.985,7.26,7.26,0,0,1,1.71-5.151,5.783,5.783,0,0,1,4.433-1.834,5.623,5.623,0,0,1,4.311,1.8,7.138,7.138,0,0,1,1.671,5.053c0,.132-.005.33-.014.593h-9.807a5.057,5.057,0,0,0,1.225,3.321,3.651,3.651,0,0,0,2.75,1.151,3.4,3.4,0,0,0,2.094-.644,4.287,4.287,0,0,0,1.374-2.055m-7.319-3.6H290.6a4.465,4.465,0,0,0-.842-2.489,3.42,3.42,0,0,0-2.763-1.288,3.538,3.538,0,0,0-2.582,1.027,4.069,4.069,0,0,0-1.158,2.75" transform="translate(193.75 109.719)" fill="#fff"/>
    <path id="패스_5315" data-name="패스 5315" d="M289.611,172.479V159.326h1.994v1.845a4.7,4.7,0,0,1,1.648-1.555,4.63,4.63,0,0,1,2.341-.588,4.335,4.335,0,0,1,2.4.607,3.245,3.245,0,0,1,1.318,1.7,4.723,4.723,0,0,1,4.064-2.3,4.012,4.012,0,0,1,3.01,1.083,4.635,4.635,0,0,1,1.051,3.338v9.029h-2.217v-8.286a6.112,6.112,0,0,0-.216-1.925,1.881,1.881,0,0,0-.786-.95,2.466,2.466,0,0,0-1.337-.358,3.115,3.115,0,0,0-2.305.923,4.069,4.069,0,0,0-.918,2.954v7.642h-2.227v-8.546a3.747,3.747,0,0,0-.546-2.229,2.065,2.065,0,0,0-1.783-.744,3.231,3.231,0,0,0-1.741.5,2.8,2.8,0,0,0-1.158,1.448,8.136,8.136,0,0,0-.36,2.75v6.824Z" transform="translate(199.812 109.719)" fill="#fff"/>
    <path id="패스_5316" data-name="패스 5316" d="M311.422,168.244l2.3.284a5.614,5.614,0,0,1-2.018,3.133,6.839,6.839,0,0,1-8.343-.662,6.94,6.94,0,0,1-1.69-4.985,7.26,7.26,0,0,1,1.71-5.151,5.783,5.783,0,0,1,4.433-1.834,5.623,5.623,0,0,1,4.311,1.8,7.138,7.138,0,0,1,1.671,5.053c0,.132-.005.33-.014.593h-9.807a5.057,5.057,0,0,0,1.225,3.321,3.651,3.651,0,0,0,2.75,1.151,3.4,3.4,0,0,0,2.094-.644,4.287,4.287,0,0,0,1.374-2.055m-7.319-3.6h7.344a4.465,4.465,0,0,0-.842-2.489,3.42,3.42,0,0,0-2.763-1.288,3.538,3.538,0,0,0-2.582,1.027,4.069,4.069,0,0,0-1.158,2.75" transform="translate(208.135 109.719)" fill="#fff"/>
    <path id="패스_5317" data-name="패스 5317" d="M310.462,172.479V159.326h2.006V161.2a4.73,4.73,0,0,1,4.188-2.166,5.479,5.479,0,0,1,2.185.428,3.426,3.426,0,0,1,1.492,1.12,4.308,4.308,0,0,1,.695,1.648,12.745,12.745,0,0,1,.123,2.166v8.088h-2.229v-8a6.031,6.031,0,0,0-.26-2.038,2.154,2.154,0,0,0-.923-1.078,2.95,2.95,0,0,0-1.555-.4,3.61,3.61,0,0,0-2.457.9q-1.037.9-1.036,3.432v7.182Z" transform="translate(214.198 109.719)" fill="#fff"/>
    <path id="패스_5318" data-name="패스 5318" d="M324.177,172.24l.323,1.97a8.3,8.3,0,0,1-1.685.2,3.827,3.827,0,0,1-1.883-.384,2.157,2.157,0,0,1-.941-1.011,7.963,7.963,0,0,1-.272-2.631v-7.568h-1.634v-1.734h1.634v-3.258l2.217-1.337v4.595h2.241v1.734h-2.241v7.691a3.922,3.922,0,0,0,.117,1.227.926.926,0,0,0,.385.433,1.473,1.473,0,0,0,.762.162,7.049,7.049,0,0,0,.977-.088" transform="translate(219.457 107.965)" fill="#fff"/>
  </g>
</svg>
