<svg xmlns="http://www.w3.org/2000/svg" width="566.726" height="210.977" viewBox="0 0 566.726 210.977">
  <g id="그룹_1419" data-name="그룹 1419" transform="translate(-87.973 -172.398)">
    <path id="패스_2946" data-name="패스 2946" d="M3.32,23.136V.619H8l5.812,9.654a62.048,62.048,0,0,1,3.842,7.552h.066c-.266-3.008-.368-5.915-.368-9.357V.619h3.809V23.136H16.918l-5.88-9.923A74.259,74.259,0,0,1,7,5.463l-.1.033c.167,2.907.2,5.88.2,9.588v8.052Z" transform="translate(107.014 172.982)" fill="#000166"/>
    <path id="패스_2947" data-name="패스 2947" d="M30.817,12c0,5.979-4.21,8.653-8.354,8.653-4.61,0-8.151-3.175-8.151-8.385,0-5.347,3.508-8.622,8.42-8.622,4.844,0,8.085,3.409,8.085,8.354m-12.262.167c0,3.14,1.538,5.513,4.043,5.513,2.339,0,3.976-2.306,3.976-5.579,0-2.541-1.136-5.447-3.943-5.447-2.905,0-4.076,2.806-4.076,5.513" transform="translate(117.396 175.838)" fill="#000166"/>
    <path id="패스_2948" data-name="패스 2948" d="M27.712,3.832l1.7,7.383c.368,1.736.735,3.508,1.036,5.279h.066c.334-1.771.869-3.576,1.336-5.246l2.1-7.416H37.3l2.038,7.216c.5,1.9.933,3.675,1.3,5.447h.07c.264-1.771.632-3.543,1.066-5.447l1.8-7.216h4.045L42.511,20.1H38.7l-1.939-6.615a48.713,48.713,0,0,1-1.235-5.211h-.068a43.563,43.563,0,0,1-1.235,5.211L32.155,20.1h-3.84L23.5,3.832Z" transform="translate(126.073 176.018)" fill="#000166"/>
    <path id="패스_2949" data-name="패스 2949" d="M45.3,2.582a2.307,2.307,0,0,1-4.61,0,2.306,2.306,0,0,1,4.61,0M40.927,7.126h4.144V23.4H40.927Z" transform="translate(142.312 172.723)" fill="#000166"/>
    <path id="패스_2950" data-name="패스 2950" d="M45.5,16.506a9.171,9.171,0,0,0,4.177,1.171c1.8,0,2.606-.735,2.606-1.8,0-1.1-.667-1.672-2.674-2.374-3.173-1.1-4.509-2.839-4.476-4.743,0-2.874,2.372-5.112,6.148-5.112a9.546,9.546,0,0,1,4.309.97l-.8,2.905a7.3,7.3,0,0,0-3.44-.935c-1.47,0-2.273.7-2.273,1.7,0,1.036.77,1.536,2.841,2.271,2.94,1.069,4.309,2.575,4.344,4.98,0,2.94-2.306,5.112-6.615,5.112a10.469,10.469,0,0,1-4.945-1.171Z" transform="translate(146.092 175.839)" fill="#000166"/>
    <path id="패스_2951" data-name="패스 2951" d="M61.433,1.685V5.86h3.908V8.932H61.433v7.183c0,1.972.535,3.01,2.106,3.01a5.026,5.026,0,0,0,1.6-.2l.066,3.142a8.859,8.859,0,0,1-2.973.436,4.77,4.77,0,0,1-3.541-1.371c-.867-.935-1.27-2.405-1.27-4.544V8.932H55.084V5.86h2.339V2.852Z" transform="translate(155.905 173.989)" fill="#000166"/>
    <path id="패스_2952" data-name="패스 2952" d="M61.955,0H66.1V9.689h.066A5.5,5.5,0,0,1,68.2,7.819a5.565,5.565,0,0,1,2.806-.735c2.775,0,5.68,1.838,5.68,7.051v9.586H72.58V14.6c0-2.372-.869-4.144-3.14-4.144a3.351,3.351,0,0,0-3.173,2.3A3.458,3.458,0,0,0,66.1,14v9.722H61.955Z" transform="translate(162.395 172.398)" fill="#000166"/>
    <path id="패스_2953" data-name="패스 2953" d="M75.188,13.3c.1,2.938,2.405,4.21,5.011,4.21a12.252,12.252,0,0,0,4.511-.735l.6,2.839a15.254,15.254,0,0,1-5.68,1.036c-5.277,0-8.385-3.276-8.385-8.252,0-4.511,2.74-8.754,7.951-8.754,5.312,0,7.016,4.344,7.016,7.918a10.21,10.21,0,0,1-.134,1.738Zm7.15-2.874c.033-1.5-.636-3.976-3.374-3.976-2.54,0-3.609,2.306-3.776,3.976Z" transform="translate(171.17 175.839)" fill="#000166"/>
    <path id="패스_2954" data-name="패스 2954" d="M88.927,4.06H82.512V.619h17V4.06H93.036V23.138H88.927Z" transform="translate(181.812 172.982)" fill="#000166"/>
    <path id="패스_2955" data-name="패스 2955" d="M96.706,2.582a2.307,2.307,0,0,1-4.61,0,2.306,2.306,0,0,1,4.61,0M92.329,7.126h4.144V23.4H92.329Z" transform="translate(190.862 172.723)" fill="#000166"/>
    <path id="패스_2956" data-name="패스 2956" d="M96.677,8.855c0-1.871-.033-3.442-.132-4.844h3.541l.165,2.405h.1a5.632,5.632,0,0,1,5.011-2.775,4.692,4.692,0,0,1,4.511,3.008h.066a6.154,6.154,0,0,1,2.007-2.038,5.419,5.419,0,0,1,3.273-.97c2.707,0,5.447,1.839,5.447,7.051v9.588h-4.011V11.294c0-2.707-.933-4.309-2.905-4.309a3.138,3.138,0,0,0-2.874,2.17,5.942,5.942,0,0,0-.2,1.371v9.756h-4.01V10.86c0-2.273-.9-3.875-2.806-3.875a3.209,3.209,0,0,0-2.94,2.337,3.516,3.516,0,0,0-.233,1.338v9.621h-4.01Z" transform="translate(195.064 175.838)" fill="#000166"/>
    <path id="패스_2957" data-name="패스 2957" d="M114.587,13.3c.1,2.938,2.407,4.21,5.011,4.21a12.252,12.252,0,0,0,4.511-.735l.6,2.839a15.254,15.254,0,0,1-5.68,1.036c-5.277,0-8.385-3.276-8.385-8.252,0-4.511,2.738-8.754,7.951-8.754,5.31,0,7.016,4.344,7.016,7.918a10.013,10.013,0,0,1-.134,1.738Zm7.15-2.874c.033-1.5-.634-3.976-3.374-3.976-2.54,0-3.609,2.306-3.776,3.976Z" transform="translate(208.383 175.839)" fill="#000166"/>
    <path id="패스_2958" data-name="패스 2958" d="M129.1,1.685V5.86h3.908V8.932H129.1v7.183c0,1.972.533,3.01,2.1,3.01a5.031,5.031,0,0,0,1.6-.2l.066,3.142a8.868,8.868,0,0,1-2.973.436,4.77,4.77,0,0,1-3.541-1.371c-.867-.935-1.27-2.405-1.27-4.544V8.932h-2.339V5.86h2.339V2.852Z" transform="translate(219.818 173.989)" fill="#000166"/>
    <path id="패스_2959" data-name="패스 2959" d="M145.492,12c0,5.979-4.21,8.653-8.352,8.653-4.61,0-8.153-3.175-8.153-8.385,0-5.347,3.508-8.622,8.418-8.622,4.846,0,8.087,3.409,8.087,8.354m-12.262.167c0,3.14,1.538,5.513,4.043,5.513,2.339,0,3.977-2.306,3.977-5.579,0-2.541-1.138-5.447-3.941-5.447-2.907,0-4.078,2.806-4.078,5.513" transform="translate(225.705 175.838)" fill="#000166"/>
    <path id="패스_2960" data-name="패스 2960" d="M159.551,22.647a14.088,14.088,0,0,1-5.81,1.036c-7.152,0-11.494-4.511-11.494-11.36,0-7.416,5.145-11.894,12.027-11.894a12.9,12.9,0,0,1,5.478,1l-.9,3.273a10.971,10.971,0,0,0-4.41-.867c-4.575,0-7.887,2.874-7.887,8.286,0,4.945,2.909,8.118,7.854,8.118a11.536,11.536,0,0,0,4.476-.834Z" transform="translate(238.229 172.804)" fill="#000166"/>
    <path id="패스_2961" data-name="패스 2961" d="M169.245,12c0,5.979-4.21,8.653-8.352,8.653-4.61,0-8.153-3.175-8.153-8.385,0-5.347,3.508-8.622,8.418-8.622,4.848,0,8.087,3.409,8.087,8.354m-12.262.167c0,3.14,1.536,5.513,4.043,5.513,2.339,0,3.977-2.306,3.977-5.579,0-2.541-1.136-5.447-3.942-5.447-2.907,0-4.078,2.806-4.078,5.513" transform="translate(248.142 175.838)" fill="#000166"/>
    <path id="패스_2962" data-name="패스 2962" d="M163.709,8.855c0-1.871-.031-3.442-.13-4.844h3.607l.2,2.438h.1a5.872,5.872,0,0,1,5.18-2.808c2.841,0,5.779,1.839,5.779,6.983v9.656h-4.107V11.093c0-2.339-.867-4.109-3.109-4.109a3.45,3.45,0,0,0-3.206,2.4,4.192,4.192,0,0,0-.167,1.338v9.555h-4.144Z" transform="translate(258.378 175.838)" fill="#000166"/>
    <path id="패스_2963" data-name="패스 2963" d="M185.553,18.043h-.066a5.637,5.637,0,0,1-5.046,2.608c-3.642,0-6.815-3.175-6.815-8.254,0-5.946,3.807-8.754,7.282-8.754a5.127,5.127,0,0,1,4.747,2.506l.066.033.1-2.17H189.8c-.068,1.47-.134,3.006-.134,4.712V26.9h-4.109Zm0-7.317a4.934,4.934,0,0,0-.1-1,3.6,3.6,0,0,0-3.506-2.839c-2.641,0-4.144,2.24-4.144,5.312,0,2.973,1.437,5.213,4.043,5.213A3.6,3.6,0,0,0,185.35,14.7a4.125,4.125,0,0,0,.2-1.27Z" transform="translate(267.866 175.838)" fill="#000166"/>
    <path id="패스_2964" data-name="패스 2964" d="M199.42,15.223c0,1.939.066,3.541.132,4.879h-3.607l-.2-2.473h-.064a5.883,5.883,0,0,1-5.213,2.841c-2.975,0-5.678-1.771-5.678-7.082V3.832H188.9v8.851c0,2.707.867,4.443,3.039,4.443a3.467,3.467,0,0,0,3.142-2.2,3.73,3.73,0,0,0,.233-1.272V3.832h4.109Z" transform="translate(278.412 176.018)" fill="#000166"/>
    <path id="패스_2965" data-name="패스 2965" d="M198.691,13.3c.1,2.938,2.407,4.21,5.011,4.21a12.252,12.252,0,0,0,4.511-.735l.6,2.839a15.255,15.255,0,0,1-5.68,1.036c-5.277,0-8.385-3.276-8.385-8.252,0-4.511,2.738-8.754,7.951-8.754,5.312,0,7.016,4.344,7.016,7.918a10.014,10.014,0,0,1-.134,1.738Zm7.15-2.874c.035-1.5-.634-3.976-3.374-3.976-2.54,0-3.609,2.306-3.776,3.976Z" transform="translate(287.818 175.839)" fill="#000166"/>
    <path id="패스_2966" data-name="패스 2966" d="M204.9,9.256c0-2.205-.033-3.774-.132-5.244h3.574l.134,3.105h.132a4.854,4.854,0,0,1,4.443-3.475,4.344,4.344,0,0,1,.968.1V7.618a5.744,5.744,0,0,0-1.2-.132,3.619,3.619,0,0,0-3.673,3.105,6.77,6.77,0,0,0-.136,1.27v8.42H204.9Z" transform="translate(297.276 175.838)" fill="#000166"/>
    <path id="패스_2967" data-name="패스 2967" d="M236.507,11.823c0,7.55-4.577,11.861-10.792,11.861-6.347,0-10.356-4.846-10.356-11.461C215.359,5.309,219.7.43,226.05.43c6.58,0,10.457,4.978,10.457,11.393m-16.8.334c0,4.577,2.306,8.251,6.248,8.251,3.975,0,6.213-3.708,6.213-8.418,0-4.245-2.1-8.287-6.213-8.287-4.078,0-6.248,3.809-6.248,8.455" transform="translate(307.284 172.804)" fill="#000166"/>
    <path id="패스_2968" data-name="패스 2968" d="M228.718,0h4.109V9.689h.066a5.894,5.894,0,0,1,5.213-2.608c3.976,0,6.815,3.31,6.782,8.254,0,5.845-3.708,8.754-7.385,8.754a5.6,5.6,0,0,1-5.143-2.808h-.066l-.2,2.438h-3.508c.068-1.1.134-2.907.134-4.575Zm4.109,17.007a4.566,4.566,0,0,0,.1.968,3.79,3.79,0,0,0,3.642,2.874c2.571,0,4.142-2.073,4.142-5.345,0-2.874-1.369-5.213-4.111-5.213a3.849,3.849,0,0,0-3.64,3.008,4.827,4.827,0,0,0-.134,1.069Z" transform="translate(319.775 172.398)" fill="#000166"/>
    <path id="패스_2969" data-name="패스 2969" d="M242.8,13.3c.1,2.938,2.407,4.21,5.011,4.21a12.252,12.252,0,0,0,4.511-.735l.6,2.839a15.255,15.255,0,0,1-5.68,1.036c-5.277,0-8.385-3.276-8.385-8.252,0-4.511,2.738-8.754,7.951-8.754,5.31,0,7.016,4.344,7.016,7.918a10,10,0,0,1-.134,1.738Zm7.15-2.874c.033-1.5-.634-3.976-3.374-3.976-2.539,0-3.609,2.306-3.776,3.976Z" transform="translate(329.476 175.839)" fill="#000166"/>
    <path id="패스_2970" data-name="패스 2970" d="M249.223,16.506a9.163,9.163,0,0,0,4.175,1.171c1.8,0,2.606-.735,2.606-1.8,0-1.1-.667-1.672-2.672-2.374-3.175-1.1-4.511-2.839-4.476-4.743,0-2.874,2.37-5.112,6.146-5.112a9.546,9.546,0,0,1,4.309.97l-.8,2.905a7.312,7.312,0,0,0-3.44-.935c-1.472,0-2.273.7-2.273,1.7,0,1.036.768,1.536,2.841,2.271,2.94,1.069,4.309,2.575,4.342,4.98,0,2.94-2.3,5.112-6.615,5.112a10.475,10.475,0,0,1-4.945-1.171Z" transform="translate(338.511 175.839)" fill="#000166"/>
    <path id="패스_2971" data-name="패스 2971" d="M261.274,2.582a2.307,2.307,0,0,1-4.61,0,2.306,2.306,0,0,1,4.61,0M256.9,7.126h4.144V23.4H256.9Z" transform="translate(346.296 172.723)" fill="#000166"/>
    <path id="패스_2972" data-name="패스 2972" d="M267.375,1.685V5.86h3.908V8.932h-3.908v7.183c0,1.972.533,3.01,2.1,3.01a5.031,5.031,0,0,0,1.6-.2l.066,3.142a8.867,8.867,0,0,1-2.973.436,4.77,4.77,0,0,1-3.541-1.371c-.867-.935-1.27-2.405-1.27-4.544V8.932h-2.339V5.86h2.339V2.852Z" transform="translate(350.416 173.989)" fill="#000166"/>
    <path id="패스_2973" data-name="패스 2973" d="M272.216,3.832l2.94,8.719c.334,1,.667,2.24.9,3.173h.1c.268-.933.568-2.137.869-3.206l2.539-8.686h4.41L279.9,14.923c-2.236,6.08-3.741,8.787-5.678,10.458a8.266,8.266,0,0,1-4.311,2.1l-.935-3.475a7,7,0,0,0,2.405-1.136,7.167,7.167,0,0,0,2.24-2.571,1.662,1.662,0,0,0,.266-.737,1.729,1.729,0,0,0-.235-.8L267.707,3.832Z" transform="translate(356.726 176.018)" fill="#000166"/>
    <path id="패스_2974" data-name="패스 2974" d="M187.152,47.747H173.646a23.914,23.914,0,0,1,24.011-23.929,23.052,23.052,0,0,1,16.925,7,23.071,23.071,0,0,1,7.045,16.925,23.843,23.843,0,0,1-3.249,11.8,56.728,56.728,0,0,1-8.13,11.006,78.56,78.56,0,0,1-7.585,7.377h18.675V91.393H173.4l2.291-7.669a146.8,146.8,0,0,0,21.969-19.2,73.429,73.429,0,0,0,7.525-9.462q2.9-4.442,2.9-7.317a10.464,10.464,0,0,0-20.929,0" transform="translate(267.65 194.895)" fill="#000166"/>
    <path id="패스_2975" data-name="패스 2975" d="M226.515,23.819q12.008,0,19.219,10.172,6.962,9.672,6.961,23.762,0,14.172-6.961,23.845-7.254,10.127-19.219,10.131c-16.594,0-26.177-15.916-26.177-33.976,0-18.012,9.643-33.933,26.177-33.933m-.041,13.59a9.814,9.814,0,0,0-8.253,4.377Q213.8,48.08,213.8,57.752q0,9.794,4.42,15.966a10.01,10.01,0,0,0,16.55,0q4.378-6.131,4.377-15.966,0-9.757-4.377-15.966a9.859,9.859,0,0,0-8.3-4.377" transform="translate(293.097 194.895)" fill="#000166"/>
    <path id="패스_2976" data-name="패스 2976" d="M243.156,47.747H229.65a23.914,23.914,0,0,1,24.011-23.929,23.052,23.052,0,0,1,16.925,7,23.071,23.071,0,0,1,7.045,16.925,23.843,23.843,0,0,1-3.249,11.8,56.731,56.731,0,0,1-8.13,11.006,78.568,78.568,0,0,1-7.586,7.377h18.675V91.393H229.4l2.291-7.669a146.792,146.792,0,0,0,21.969-19.2,73.433,73.433,0,0,0,7.525-9.462q2.9-4.442,2.9-7.317a10.464,10.464,0,0,0-20.929,0" transform="translate(320.547 194.895)" fill="#000166"/>
    <path id="패스_2977" data-name="패스 2977" d="M287.065,69.786a11.482,11.482,0,0,0-4.21-8.692q-4.209-3.815-12.132-4.19l2.835-5.585q5.294-1,7.714-3.483a7.7,7.7,0,0,0,2.417-5.48l-.126.082a5.478,5.478,0,0,0-5.419-5.417,5.366,5.366,0,0,0-5.295,4.293l-13.423-2.878a19.424,19.424,0,0,1,18.718-15.091,19.074,19.074,0,0,1,19.093,19.136,18.693,18.693,0,0,1-3.71,11.424,4.229,4.229,0,0,1,.459.373,21.465,21.465,0,0,1,0,31.184,21.868,21.868,0,0,1-15.842,6.376,22.261,22.261,0,0,1-13.755-4.585,21.207,21.207,0,0,1-8.046-12.048L269.6,71.828c.75,3.385,4.4,6.254,8.587,6.254,4.762,0,8.879-3.527,8.879-8.3" transform="translate(345.992 194.449)" fill="#000166"/>
    <rect id="사각형_874" data-name="사각형 874" width="13.93" height="69.312" transform="translate(107.962 219.253)" fill="#000166"/>
    <path id="패스_2978" data-name="패스 2978" d="M47.531,80.178A21.065,21.065,0,0,1,26.462,59.109a20.518,20.518,0,0,1,6.191-14.92A20.1,20.1,0,0,1,47.531,38a20.423,20.423,0,0,1,14.347,5.674A40.588,40.588,0,0,1,69.446,31.7a35.066,35.066,0,0,0-21.957-7.887,33.848,33.848,0,0,0-24.81,10.362,34.109,34.109,0,0,0-10.319,24.9A33.876,33.876,0,0,0,22.678,83.919a34.1,34.1,0,0,0,24.81,10.232A34.9,34.9,0,0,0,69.51,86.5a40.141,40.141,0,0,1-7.619-11.964,20.323,20.323,0,0,1-14.36,5.641" transform="translate(115.551 194.886)" fill="#000166"/>
    <path id="패스_2979" data-name="패스 2979" d="M99.412,34.17a33.948,33.948,0,0,1,10.362,24.9A33.71,33.71,0,0,1,99.412,83.918,34.019,34.019,0,0,1,74.559,94.152,34.15,34.15,0,0,1,49.706,83.918,33.876,33.876,0,0,1,39.387,59.066a34.115,34.115,0,0,1,10.319-24.9A33.9,33.9,0,0,1,74.559,23.808,33.9,33.9,0,0,1,99.412,34.17M59.639,44.06a21.069,21.069,0,0,0,0,29.84,21.125,21.125,0,0,0,29.8,0,20.971,20.971,0,0,0,0-29.84,21.022,21.022,0,0,0-29.8,0" transform="translate(141.078 194.885)" fill="#000166"/>
    <path id="패스_2980" data-name="패스 2980" d="M112.6,69.821l33.926-46.565V94.2H132.593V65.479L112.6,93.083l-20.036-27.6V94.2H78.631V23.256Z" transform="translate(178.145 194.364)" fill="#000166"/>
    <path id="패스_2981" data-name="패스 2981" d="M159.758,24.008V37.9H131.9V51.87h20.9V65.758H131.9V79.731h27.863V93.578H117.965V24.008Z" transform="translate(215.295 195.073)" fill="#000166"/>
    <path id="패스_2982" data-name="패스 2982" d="M163.113,80.06c3.848,0,8.095-3.195,8.095-7.043,0-6.327-8.494-7.21-13.287-8.871-8.453-2.88-15.914-9.818-15.914-19.256a21.148,21.148,0,0,1,42.087-2.923L170.261,44.89a7.032,7.032,0,0,0-14.065.041c0,6.244,7.9,7.906,12.719,9.336,8.746,2.522,16.46,9.186,16.46,18.836,0,11.686-10.489,21.127-22.158,21.127-10.722,0-20.413-7.864-21.988-18.185L155.063,73.1c0,3.868,4.2,7.022,8.114,7.022Z" transform="translate(237.27 194.86)" fill="#000166"/>
    <path id="패스_2983" data-name="패스 2983" d="M545.027,129.9H23.275a22.224,22.224,0,0,1,0-44.447H545.027a22.224,22.224,0,0,1,0,44.447Z" transform="translate(87.185 253.104)" fill="none" stroke="#000166" stroke-miterlimit="10" stroke-width="0.75"/>
    <g id="그룹_1362" data-name="그룹 1362" transform="translate(109.211 350.567)">
      <path id="패스_2984" data-name="패스 2984" d="M12.039,104.495a7.753,7.753,0,0,0,3.542.891c1.822,0,2.836-.872,2.836-2.16,0-1.214-.826-1.919-2.683-2.693-2.445-.977-4.042-2.425-4.042-4.515,0-2.542,2.1-4.484,5.512-4.484a7.864,7.864,0,0,1,3.492.718l-.648,2.265a6.249,6.249,0,0,0-2.906-.685c-1.775,0-2.552.969-2.552,1.9,0,1.212.863,1.775,2.9,2.645,2.623,1.119,3.832,2.54,3.832,4.63,0,2.616-2.028,4.694-5.875,4.694a8.883,8.883,0,0,1-4-.9Z" transform="translate(-11.444 -91.032)" fill="#000166" stroke="rgba(0,0,0,0)" stroke-width="1"/>
      <path id="패스_2985" data-name="패스 2985" d="M19.674,100.325c.064,2.207,1.6,3.044,3.359,3.044a8.276,8.276,0,0,0,2.93-.49l.421,1.921a10.111,10.111,0,0,1-3.793.664c-3.615,0-5.684-2.232-5.684-5.726,0-3.324,1.953-6.091,5.384-6.091,3.449,0,4.705,2.777,4.705,5.434a6.722,6.722,0,0,1-.094,1.242ZM24.3,98.391c.015-1.283-.507-2.812-2.192-2.812-1.629,0-2.32,1.6-2.43,2.812Z" transform="translate(-5.18 -88.798)" fill="#000166" stroke="rgba(0,0,0,0)" stroke-width="1"/>
      <path id="패스_2986" data-name="패스 2986" d="M22.707,97.6c0-1.493-.049-2.678-.1-3.711h2.526l.144,1.633h.047a4.058,4.058,0,0,1,3.6-1.87c2.61,0,4.553,2.293,4.553,5.8,0,4.126-2.436,6.039-4.909,6.039a3.419,3.419,0,0,1-2.939-1.421h-.047v5.768H22.707Zm2.874,3.077a3.242,3.242,0,0,0,.1.833,2.311,2.311,0,0,0,2.247,1.81c1.726,0,2.642-1.6,2.642-3.762,0-2.086-.884-3.688-2.593-3.688a2.432,2.432,0,0,0-2.286,1.929,2.857,2.857,0,0,0-.107.757Z" transform="translate(1.355 -88.798)" fill="#000166" stroke="rgba(0,0,0,0)" stroke-width="1"/>
      <path id="패스_2987" data-name="패스 2987" d="M28.3,99.464a1.745,1.745,0,0,1,1.777-1.824A1.815,1.815,0,1,1,28.3,99.464" transform="translate(7.879 -84.578)" fill="#000166" stroke="rgba(0,0,0,0)" stroke-width="1"/>
      <path id="패스_2988" data-name="패스 2988" d="M42.974,91.911v1.763l-6.2,13.415H33.8l6.154-12.81v-.045H33.064V91.911Z" transform="translate(13.344 -90.633)" fill="#000166" stroke="rgba(0,0,0,0)" stroke-width="1"/>
      <path id="패스_2989" data-name="패스 2989" d="M43.8,91.429a16.32,16.32,0,0,0-2.681,9.5,16.546,16.546,0,0,0,2.681,9.439H41.7a15.416,15.416,0,0,1-2.9-9.449,15.719,15.719,0,0,1,2.9-9.495Z" transform="translate(19.929 -91.143)" fill="#000166" stroke="rgba(0,0,0,0)" stroke-width="1"/>
      <path id="패스_2990" data-name="패스 2990" d="M46,94.015H41.837V91.639h11.25v2.376h-4.2v13.362H46Z" transform="translate(23.402 -90.92)" fill="#000166" stroke="rgba(0,0,0,0)" stroke-width="1"/>
      <path id="패스_2991" data-name="패스 2991" d="M47.772,91.291h2.883v6.531H50.7a3.956,3.956,0,0,1,3.263-1.683c1.975,0,3.778,1.347,3.778,4.766v6.839H54.86V101.15c0-1.522-.513-2.738-2-2.738a2.171,2.171,0,0,0-2.078,1.551,2.7,2.7,0,0,0-.122.862v6.919H47.772Z" transform="translate(30.209 -91.289)" fill="#000166" stroke="rgba(0,0,0,0)" stroke-width="1"/>
      <path id="패스_2992" data-name="패스 2992" d="M63.644,101.756c0,1.316.047,2.437.1,3.375H61.229l-.146-1.561h-.064a4.015,4.015,0,0,1-3.456,1.8c-2.164,0-3.8-1.341-3.8-4.83V93.763h2.881v6.346c0,1.808.528,2.993,1.96,2.993a2.166,2.166,0,0,0,2-1.407,2.571,2.571,0,0,0,.159-.919V93.763h2.881Z" transform="translate(37.074 -88.677)" fill="#000166" stroke="rgba(0,0,0,0)" stroke-width="1"/>
      <path id="패스_2993" data-name="패스 2993" d="M59.354,110.373a16.62,16.62,0,0,0,2.681-9.495,16.42,16.42,0,0,0-2.681-9.449h2.1a15.252,15.252,0,0,1,2.9,9.46,15.729,15.729,0,0,1-2.9,9.484Z" transform="translate(43.486 -91.143)" fill="#000166" stroke="rgba(0,0,0,0)" stroke-width="1"/>
      <path id="패스_2994" data-name="패스 2994" d="M64.7,99.606c.17-2.756,1.779-4.437,3.776-4.437a10.2,10.2,0,0,1,2.584.584c2.436.724,2.874.864,3.533.864a1.457,1.457,0,0,0,1.415-1.4H78.08c-.146,1.822-.975,4.461-3.8,4.461a21.32,21.32,0,0,1-4.362-1.1,8.164,8.164,0,0,0-1.73-.395,1.485,1.485,0,0,0-1.438,1.423Z" transform="translate(49.619 -87.189)" fill="#000166" stroke="rgba(0,0,0,0)" stroke-width="1"/>
      <path id="패스_2995" data-name="패스 2995" d="M74.315,104.495a7.753,7.753,0,0,0,3.542.891c1.822,0,2.836-.872,2.836-2.16,0-1.214-.826-1.919-2.683-2.693-2.445-.977-4.042-2.425-4.042-4.515,0-2.542,2.1-4.484,5.512-4.484a7.864,7.864,0,0,1,3.492.718l-.648,2.265a6.249,6.249,0,0,0-2.906-.685c-1.775,0-2.552.969-2.552,1.9,0,1.212.863,1.775,2.9,2.645,2.623,1.119,3.832,2.54,3.832,4.63,0,2.616-2.029,4.694-5.875,4.694a8.883,8.883,0,0,1-4-.9Z" transform="translate(59.958 -91.032)" fill="#000166" stroke="rgba(0,0,0,0)" stroke-width="1"/>
      <path id="패스_2996" data-name="패스 2996" d="M81.949,100.325c.064,2.207,1.6,3.044,3.359,3.044a8.275,8.275,0,0,0,2.93-.49l.421,1.921a10.111,10.111,0,0,1-3.793.664c-3.615,0-5.684-2.232-5.684-5.726,0-3.324,1.953-6.091,5.384-6.091,3.45,0,4.705,2.777,4.705,5.434a6.723,6.723,0,0,1-.094,1.242Zm4.622-1.933c.017-1.283-.507-2.812-2.192-2.812-1.629,0-2.32,1.6-2.43,2.812Z" transform="translate(66.221 -88.798)" fill="#000166" stroke="rgba(0,0,0,0)" stroke-width="1"/>
      <path id="패스_2997" data-name="패스 2997" d="M84.982,97.6c0-1.493-.049-2.678-.1-3.711h2.526l.144,1.633H87.6a4.058,4.058,0,0,1,3.6-1.87c2.61,0,4.553,2.293,4.553,5.8,0,4.126-2.436,6.039-4.909,6.039a3.419,3.419,0,0,1-2.939-1.421h-.047v5.768H84.982Zm2.874,3.077a3.241,3.241,0,0,0,.1.833,2.311,2.311,0,0,0,2.247,1.81c1.726,0,2.642-1.6,2.642-3.762,0-2.086-.884-3.688-2.593-3.688a2.432,2.432,0,0,0-2.286,1.929,2.858,2.858,0,0,0-.107.757Z" transform="translate(72.757 -88.798)" fill="#000166" stroke="rgba(0,0,0,0)" stroke-width="1"/>
      <path id="패스_2998" data-name="패스 2998" d="M90.572,99.464a1.745,1.745,0,0,1,1.777-1.824,1.815,1.815,0,1,1-1.777,1.824" transform="translate(79.28 -84.578)" fill="#000166" stroke="rgba(0,0,0,0)" stroke-width="1"/>
      <path id="패스_2999" data-name="패스 2999" d="M96.466,105.2a8.671,8.671,0,0,0,1.563-.066A5.536,5.536,0,0,0,100.875,104a5.653,5.653,0,0,0,1.925-3.441l-.06-.008a4.073,4.073,0,0,1-3.13,1.263,4.377,4.377,0,0,1-4.452-4.645A5.264,5.264,0,0,1,100.48,91.8c3.441,0,5.235,2.74,5.235,6.387a9.5,9.5,0,0,1-2.642,7.09,8.113,8.113,0,0,1-4.922,2.08,10.278,10.278,0,0,1-1.685.066Zm1.554-8.213c.006,1.641.863,2.839,2.357,2.839a2.567,2.567,0,0,0,2.245-1.2,2.065,2.065,0,0,0,.17-.981c.006-2.2-.784-3.8-2.449-3.8-1.324,0-2.335,1.2-2.323,3.139" transform="translate(84.539 -90.755)" fill="#000166" stroke="rgba(0,0,0,0)" stroke-width="1"/>
      <path id="패스_3000" data-name="패스 3000" d="M106.078,91.429a16.32,16.32,0,0,0-2.681,9.5,16.545,16.545,0,0,0,2.681,9.439h-2.1a15.416,15.416,0,0,1-2.9-9.449,15.719,15.719,0,0,1,2.9-9.495Z" transform="translate(91.332 -91.143)" fill="#000166" stroke="rgba(0,0,0,0)" stroke-width="1"/>
      <path id="패스_3001" data-name="패스 3001" d="M104.711,104.495a7.738,7.738,0,0,0,3.542.891c1.82,0,2.833-.872,2.833-2.16,0-1.214-.824-1.919-2.681-2.693-2.445-.977-4.042-2.425-4.042-4.515,0-2.542,2.1-4.484,5.51-4.484a7.864,7.864,0,0,1,3.492.718l-.648,2.265a6.238,6.238,0,0,0-2.9-.685c-1.775,0-2.554.969-2.554,1.9,0,1.212.863,1.775,2.9,2.645,2.623,1.119,3.832,2.54,3.832,4.63,0,2.616-2.026,4.694-5.873,4.694a8.893,8.893,0,0,1-4-.9Z" transform="translate(94.806 -91.032)" fill="#000166" stroke="rgba(0,0,0,0)" stroke-width="1"/>
      <path id="패스_3002" data-name="패스 3002" d="M116.507,105.253l-.191-1.234h-.069a3.94,3.94,0,0,1-3.2,1.469,3.324,3.324,0,0,1-3.514-3.375c0-2.884,2.64-4.27,6.5-4.266v-.22c0-.88-.361-2-2.217-1.993a5.816,5.816,0,0,0-2.9.782l-.567-1.816a8.275,8.275,0,0,1,3.995-.95c3.58,0,4.576,2.211,4.576,4.682v4.229a16.583,16.583,0,0,0,.174,2.695Zm-.393-5.605c-1.786-.016-3.754.364-3.754,2.17a1.512,1.512,0,0,0,1.582,1.67,2.154,2.154,0,0,0,2.1-1.491,2.191,2.191,0,0,0,.077-.611Z" transform="translate(101.02 -88.798)" fill="#000166" stroke="rgba(0,0,0,0)" stroke-width="1"/>
      <path id="패스_3003" data-name="패스 3003" d="M119.13,92.211v3.194h2.687v2.04H119.13v5.278c0,1.393.44,1.993,1.438,1.993a4.5,4.5,0,0,0,1.058-.109l.056,2.115a6.755,6.755,0,0,1-2.037.263,3.375,3.375,0,0,1-2.436-.868,4.259,4.259,0,0,1-.917-3.153V97.446h-1.61v-2.04h1.61V92.877Z" transform="translate(106.924 -90.315)" fill="#000166" stroke="rgba(0,0,0,0)" stroke-width="1"/>
      <path id="패스_3004" data-name="패스 3004" d="M118.554,110.373a16.62,16.62,0,0,0,2.681-9.495,16.42,16.42,0,0,0-2.681-9.449h2.1a15.252,15.252,0,0,1,2.9,9.46,15.714,15.714,0,0,1-2.9,9.484Z" transform="translate(111.365 -91.143)" fill="#000166" stroke="rgba(0,0,0,0)" stroke-width="1"/>
      <path id="패스_3005" data-name="패스 3005" d="M154.759,107.085a9.567,9.567,0,0,1-3.709.615c-4.77,0-7.633-3.073-7.633-7.886,0-5.441,3.638-8.281,8.03-8.281a8.081,8.081,0,0,1,3.43.609l-.6,2.236a6.667,6.667,0,0,0-2.707-.529c-2.881,0-5.117,1.876-5.117,5.813,0,3.7,1.975,5.691,5.094,5.691a7.863,7.863,0,0,0,2.776-.481Z" transform="translate(119.92 -91.032)" fill="#000166" stroke="rgba(0,0,0,0)" stroke-width="1"/>
      <path id="패스_3006" data-name="패스 3006" d="M162.945,99.458c0,5.465-2.984,8.275-7.024,8.275-4.229,0-6.772-3.375-6.772-8.026,0-4.8,2.788-8.184,7.017-8.184,4.388,0,6.779,3.513,6.779,7.936m-10.767.214c0,3.275,1.387,5.8,3.89,5.8,2.539,0,3.847-2.66,3.847-5.905,0-2.935-1.226-5.778-3.847-5.778-2.569,0-3.89,2.635-3.89,5.885" transform="translate(126.493 -91.044)" fill="#000166" stroke="rgba(0,0,0,0)" stroke-width="1"/>
      <path id="패스_3007" data-name="패스 3007" d="M156.717,107.375V91.638h3.123l3.8,6.743a49.654,49.654,0,0,1,2.529,5.188l.058-.008c-.189-2.069-.273-4.217-.273-6.745V91.638h2.629v15.737h-2.9l-3.834-6.856a50.131,50.131,0,0,1-2.6-5.3l-.069.012c.118,1.975.172,4.1.172,6.885v5.262Z" transform="translate(135.17 -90.923)" fill="#000166" stroke="rgba(0,0,0,0)" stroke-width="1"/>
      <path id="패스_3008" data-name="패스 3008" d="M163.766,91.913a24.033,24.033,0,0,1,4.126-.327c2.155,0,3.7.35,4.767,1.234a3.921,3.921,0,0,1,1.361,3.166,4.18,4.18,0,0,1-2.866,3.949v.06c1.181.422,1.846,1.5,2.23,3.124a29.562,29.562,0,0,0,1.211,4.311h-2.967a20.059,20.059,0,0,1-1.028-3.746c-.427-2.051-1.155-2.715-2.737-2.742h-1.236v6.487h-2.861Zm2.861,6.977h1.447c1.893,0,3.063-1.072,3.063-2.643,0-1.668-1.075-2.542-2.945-2.553a6.866,6.866,0,0,0-1.565.13Z" transform="translate(143.253 -90.977)" fill="#000166" stroke="rgba(0,0,0,0)" stroke-width="1"/>
      <path id="패스_3009" data-name="패스 3009" d="M173.486,103.03l-1.245,4.346h-2.928L174.1,91.637h3.587l4.755,15.739h-3.018l-1.3-4.346Zm4.205-2.106-1.114-3.8c-.277-.989-.534-2.174-.76-3.145h-.058c-.223.981-.472,2.191-.734,3.141l-1.106,3.8Z" transform="translate(149.611 -90.924)" fill="#000166" stroke="rgba(0,0,0,0)" stroke-width="1"/>
      <path id="패스_3010" data-name="패스 3010" d="M176.442,91.913a25.412,25.412,0,0,1,4.227-.327c2.73,0,4.6.559,5.957,1.664,1.524,1.212,2.454,3.145,2.454,5.961,0,2.985-.966,5.083-2.432,6.381-1.481,1.316-3.78,1.979-6.648,1.979a29.176,29.176,0,0,1-3.557-.193Zm2.876,13.384a9.131,9.131,0,0,0,1.363.068c3.258.014,5.373-1.868,5.373-6.1.013-3.5-1.767-5.515-5.081-5.515a8.283,8.283,0,0,0-1.655.14Z" transform="translate(157.785 -90.977)" fill="#000166" stroke="rgba(0,0,0,0)" stroke-width="1"/>
      <path id="패스_3011" data-name="패스 3011" d="M185.895,104.494a7.738,7.738,0,0,0,3.542.891c1.82,0,2.833-.872,2.833-2.16,0-1.214-.824-1.919-2.681-2.693-2.445-.977-4.042-2.425-4.042-4.515,0-2.542,2.1-4.484,5.51-4.484a7.864,7.864,0,0,1,3.492.718l-.648,2.265a6.239,6.239,0,0,0-2.9-.685c-1.775,0-2.554.969-2.554,1.9,0,1.212.863,1.775,2.9,2.645,2.623,1.119,3.832,2.54,3.832,4.63,0,2.616-2.026,4.694-5.873,4.694a8.876,8.876,0,0,1-4-.9Z" transform="translate(167.941 -91.032)" fill="#000166" stroke="rgba(0,0,0,0)" stroke-width="1"/>
      <path id="패스_3012" data-name="패스 3012" d="M193.531,100.324c.064,2.207,1.6,3.044,3.357,3.044a8.266,8.266,0,0,0,2.93-.49l.423,1.921a10.119,10.119,0,0,1-3.793.664c-3.615,0-5.686-2.232-5.686-5.726,0-3.324,1.956-6.09,5.384-6.09,3.449,0,4.707,2.777,4.707,5.434a6.679,6.679,0,0,1-.1,1.242Zm4.619-1.933c.017-1.284-.5-2.812-2.189-2.812-1.629,0-2.323,1.6-2.43,2.812Z" transform="translate(174.203 -88.799)" fill="#000166" stroke="rgba(0,0,0,0)" stroke-width="1"/>
      <path id="패스_3013" data-name="패스 3013" d="M207.171,99.48c0,4.3-2.883,6.006-5.547,6.006-3.1,0-5.426-2.154-5.426-5.852,0-3.842,2.428-5.988,5.594-5.988,3.218,0,5.379,2.3,5.379,5.833m-8.037.09c0,2.106.9,3.877,2.582,3.877,1.591,0,2.518-1.785,2.518-3.9,0-1.744-.668-3.859-2.52-3.859-1.891,0-2.58,2.065-2.58,3.886" transform="translate(180.437 -88.799)" fill="#000166" stroke="rgba(0,0,0,0)" stroke-width="1"/>
      <path id="패스_3014" data-name="패스 3014" d="M212.246,101.755c0,1.316.047,2.437.1,3.375h-2.511l-.148-1.561h-.064a4.014,4.014,0,0,1-3.454,1.8c-2.168,0-3.8-1.341-3.8-4.83V93.762h2.881v6.346c0,1.808.528,2.993,1.96,2.993a2.166,2.166,0,0,0,2-1.407,2.572,2.572,0,0,0,.157-.919V93.762h2.883Z" transform="translate(187.505 -88.677)" fill="#000166" stroke="rgba(0,0,0,0)" stroke-width="1"/>
      <rect id="사각형_875" data-name="사각형 875" width="2.883" height="16.453" transform="translate(402.74 0)" fill="#000166" stroke="rgba(0,0,0,0)" stroke-width="1"/>
      <path id="패스_3015" data-name="패스 3015" d="M216.246,91.638V98h6.03v-6.36h2.881v15.737h-2.881v-6.942h-6.03v6.942h-2.883V91.638Z" transform="translate(200.117 -90.923)" fill="#000166" stroke="rgba(0,0,0,0)" stroke-width="1"/>
      <path id="패스_3016" data-name="패스 3016" d="M230.937,99.48c0,4.3-2.883,6.006-5.547,6.006-3.1,0-5.426-2.154-5.426-5.852,0-3.842,2.428-5.988,5.594-5.988,3.218,0,5.379,2.3,5.379,5.833m-8.037.09c0,2.106.9,3.877,2.582,3.877,1.591,0,2.518-1.785,2.518-3.9,0-1.744-.668-3.859-2.52-3.859-1.891,0-2.58,2.065-2.58,3.886" transform="translate(207.686 -88.799)" fill="#000166" stroke="rgba(0,0,0,0)" stroke-width="1"/>
      <path id="패스_3017" data-name="패스 3017" d="M230.086,92.21V95.4h2.688v2.04h-2.688v5.278c0,1.393.44,1.993,1.438,1.993a4.466,4.466,0,0,0,1.056-.109l.058,2.114a6.744,6.744,0,0,1-2.037.263,3.375,3.375,0,0,1-2.436-.868,4.259,4.259,0,0,1-.917-3.153V97.445h-1.61V95.4h1.61V92.876Z" transform="translate(214.19 -90.316)" fill="#000166" stroke="rgba(0,0,0,0)" stroke-width="1"/>
      <path id="패스_3018" data-name="패스 3018" d="M232.3,100.324c.064,2.207,1.6,3.044,3.357,3.044a8.266,8.266,0,0,0,2.93-.49l.423,1.921a10.119,10.119,0,0,1-3.793.664c-3.615,0-5.686-2.232-5.686-5.726,0-3.324,1.955-6.09,5.386-6.09,3.447,0,4.705,2.777,4.705,5.434a6.681,6.681,0,0,1-.1,1.242Zm4.619-1.933c.017-1.284-.5-2.812-2.189-2.812-1.629,0-2.323,1.6-2.43,2.812Z" transform="translate(218.657 -88.799)" fill="#000166" stroke="rgba(0,0,0,0)" stroke-width="1"/>
      <rect id="사각형_876" data-name="사각형 876" width="2.883" height="16.453" transform="translate(460.528 0)" fill="#000166" stroke="rgba(0,0,0,0)" stroke-width="1"/>
      <path id="패스_3019" data-name="패스 3019" d="M237.342,103.921a35.307,35.307,0,0,0,1.6-6.076l3.022-.232a29.647,29.647,0,0,1-2.685,6.125Z" transform="translate(227.61 -84.608)" fill="#000166" stroke="rgba(0,0,0,0)" stroke-width="1"/>
      <path id="패스_3020" data-name="패스 3020" d="M242.781,91.638h2.861v7.247h.067c.367-.621.747-1.212,1.112-1.781l3.786-5.465h3.445l-5.115,6.724,5.4,9.013h-3.306l-4.1-7.142-1.281,1.592v5.55h-2.861Z" transform="translate(233.846 -90.923)" fill="#000166" stroke="rgba(0,0,0,0)" stroke-width="1"/>
      <path id="패스_3021" data-name="패스 3021" d="M259.391,99.48c0,4.3-2.883,6.006-5.547,6.006-3.1,0-5.427-2.154-5.427-5.852,0-3.842,2.428-5.988,5.594-5.988,3.218,0,5.379,2.3,5.379,5.833m-8.037.09c0,2.106.9,3.877,2.582,3.877,1.591,0,2.518-1.785,2.518-3.9,0-1.744-.668-3.859-2.52-3.859-1.891,0-2.58,2.065-2.58,3.886" transform="translate(240.309 -88.799)" fill="#000166" stroke="rgba(0,0,0,0)" stroke-width="1"/>
      <path id="패스_3022" data-name="패스 3022" d="M254.66,97.4c0-1.382-.043-2.522-.1-3.519h2.5l.118,2.026h.082a3.3,3.3,0,0,1,3-2.263,3,3,0,0,1,.659.056v2.643a4.017,4.017,0,0,0-.781-.066,2.506,2.506,0,0,0-2.507,2.108,4.461,4.461,0,0,0-.086.934v5.928H254.66Z" transform="translate(247.353 -88.798)" fill="#000166" stroke="rgba(0,0,0,0)" stroke-width="1"/>
      <path id="패스_3023" data-name="패스 3023" d="M260.72,100.324c.064,2.207,1.6,3.044,3.357,3.044a8.279,8.279,0,0,0,2.932-.49l.421,1.921a10.1,10.1,0,0,1-3.791.664c-3.615,0-5.686-2.232-5.686-5.726,0-3.324,1.953-6.09,5.384-6.09,3.45,0,4.707,2.777,4.707,5.434a6.457,6.457,0,0,1-.1,1.242Zm4.622-1.933c.015-1.284-.5-2.812-2.189-2.812-1.629,0-2.323,1.6-2.432,2.812Z" transform="translate(251.243 -88.799)" fill="#000166" stroke="rgba(0,0,0,0)" stroke-width="1"/>
      <path id="패스_3024" data-name="패스 3024" d="M270.308,105.252l-.191-1.234h-.069a3.94,3.94,0,0,1-3.2,1.469,3.324,3.324,0,0,1-3.514-3.375c0-2.884,2.64-4.27,6.5-4.266v-.22c0-.88-.361-2-2.217-1.993a5.816,5.816,0,0,0-2.9.782l-.567-1.816a8.275,8.275,0,0,1,3.995-.95c3.58,0,4.576,2.211,4.576,4.682v4.229a16.584,16.584,0,0,0,.174,2.695Zm-.393-5.605c-1.786-.016-3.754.364-3.754,2.17a1.512,1.512,0,0,0,1.582,1.67,2.154,2.154,0,0,0,2.1-1.491,2.191,2.191,0,0,0,.077-.611Z" transform="translate(257.412 -88.799)" fill="#000166" stroke="rgba(0,0,0,0)" stroke-width="1"/>
    </g>
    <line id="선_213" data-name="선 213" y2="18.745" transform="translate(360.045 351.405)" fill="none" stroke="#000166" stroke-miterlimit="10" stroke-width="1"/>
    <path id="패스_3025" data-name="패스 3025" d="M0,80.426v-.875l1.118-1.083c2.687-2.559,3.9-3.918,3.918-5.5a1.878,1.878,0,0,0-2.088-2.057A3.578,3.578,0,0,0,.714,71.8l-.455-1a4.624,4.624,0,0,1,2.979-1.068A2.96,2.96,0,0,1,6.46,72.784c0,1.943-1.408,3.514-3.626,5.651l-.842.776v.033H6.718v1.182Z" transform="translate(103.878 238.254)" fill="#000166"/>
    <path id="패스_3026" data-name="패스 3026" d="M11.336,75.052c0,3.578-1.326,5.552-3.658,5.552-2.057,0-3.45-1.925-3.481-5.406,0-3.529,1.521-5.474,3.658-5.474,2.219,0,3.481,1.976,3.481,5.328m-5.715.161c0,2.736.842,4.29,2.137,4.29,1.458,0,2.153-1.7,2.153-4.387,0-2.59-.663-4.29-2.135-4.29-1.246,0-2.155,1.521-2.155,4.387" transform="translate(107.842 238.252)" fill="#000166"/>
    <path id="패스_3027" data-name="패스 3027" d="M8.545,80.426v-.875l1.118-1.083c2.687-2.559,3.9-3.918,3.918-5.5a1.878,1.878,0,0,0-2.088-2.057,3.578,3.578,0,0,0-2.234.891l-.455-1a4.624,4.624,0,0,1,2.979-1.068A2.96,2.96,0,0,1,15,72.784c0,1.943-1.408,3.514-3.626,5.651l-.842.776v.033h4.727v1.182Z" transform="translate(111.948 238.254)" fill="#000166"/>
    <path id="패스_3028" data-name="패스 3028" d="M13.182,78.79a4.766,4.766,0,0,0,2.331.663c1.83,0,2.4-1.165,2.378-2.04-.016-1.472-1.342-2.1-2.718-2.1H14.38V74.24h.793c1.036,0,2.347-.533,2.347-1.779,0-.842-.535-1.587-1.845-1.587a3.87,3.87,0,0,0-2.1.7L13.2,70.534a5.006,5.006,0,0,1,2.751-.809c2.073,0,3.012,1.231,3.012,2.508a2.614,2.614,0,0,1-1.943,2.477v.033a2.739,2.739,0,0,1,2.347,2.7c0,1.684-1.311,3.156-3.836,3.156a5.348,5.348,0,0,1-2.736-.712Z" transform="translate(115.961 238.254)" fill="#000166"/>
    <rect id="사각형_877" data-name="사각형 877" width="2.477" height="10.913" transform="translate(140.884 307.766)" fill="#000166"/>
    <path id="패스_3029" data-name="패스 3029" d="M21.494,73.405c0-.809-.014-1.474-.066-2.121h1.264l.082,1.3H22.8A2.884,2.884,0,0,1,25.4,71.107c1.083,0,2.767.648,2.767,3.335V79.12H26.74V74.6c0-1.264-.471-2.316-1.814-2.316a2.027,2.027,0,0,0-1.911,1.458,2.112,2.112,0,0,0-.1.663V79.12H21.494Z" transform="translate(124.116 239.559)" fill="#000166"/>
    <path id="패스_3030" data-name="패스 3030" d="M28.2,70.041v2.25h2.04v1.085H28.2V77.6c0,.972.274,1.521,1.068,1.521a3.09,3.09,0,0,0,.826-.1l.064,1.069a3.49,3.49,0,0,1-1.262.194,1.972,1.972,0,0,1-1.538-.6,2.9,2.9,0,0,1-.55-2.04V73.376H25.594V72.291h1.213V70.412Z" transform="translate(128.051 238.552)" fill="#000166"/>
    <path id="패스_3031" data-name="패스 3031" d="M29.827,75.461a2.51,2.51,0,0,0,2.687,2.72,5.162,5.162,0,0,0,2.168-.4l.243,1.019a6.326,6.326,0,0,1-2.606.486,3.639,3.639,0,0,1-3.854-3.949c0-2.365,1.394-4.225,3.675-4.225,2.559,0,3.24,2.25,3.24,3.691a5.035,5.035,0,0,1-.051.663ZM34,74.442a2.03,2.03,0,0,0-1.976-2.316,2.363,2.363,0,0,0-2.186,2.316Z" transform="translate(130.763 239.559)" fill="#000166"/>
    <path id="패스_3032" data-name="패스 3032" d="M32.963,73.728c0-.924-.016-1.715-.066-2.444h1.248l.049,1.538h.064a2.349,2.349,0,0,1,2.17-1.715,1.605,1.605,0,0,1,.4.047V72.5a2.219,2.219,0,0,0-.486-.049,2,2,0,0,0-1.911,1.83,4.171,4.171,0,0,0-.064.665V79.12H32.963Z" transform="translate(134.949 239.559)" fill="#000166"/>
    <path id="패스_3033" data-name="패스 3033" d="M35.72,73.405c0-.809-.016-1.474-.066-2.121h1.264l.082,1.3h.031a2.882,2.882,0,0,1,2.592-1.472c1.083,0,2.767.648,2.767,3.335V79.12H40.964V74.6c0-1.264-.469-2.316-1.812-2.316a2.027,2.027,0,0,0-1.911,1.458,2.057,2.057,0,0,0-.1.663V79.12H35.72Z" transform="translate(137.553 239.559)" fill="#000166"/>
    <path id="패스_3034" data-name="패스 3034" d="M44.947,79.119l-.113-.988h-.049a2.917,2.917,0,0,1-2.4,1.167,2.232,2.232,0,0,1-2.4-2.25c0-1.9,1.684-2.932,4.71-2.915v-.161a1.614,1.614,0,0,0-1.779-1.814,3.9,3.9,0,0,0-2.04.583L40.56,71.8a4.854,4.854,0,0,1,2.575-.7c2.4,0,2.979,1.635,2.979,3.206v2.928a11.022,11.022,0,0,0,.128,1.878Zm-.21-4c-1.554-.033-3.319.243-3.319,1.764a1.26,1.26,0,0,0,1.344,1.359,1.952,1.952,0,0,0,1.9-1.311,1.543,1.543,0,0,0,.08-.453Z" transform="translate(141.652 239.558)" fill="#000166"/>
    <path id="패스_3035" data-name="패스 3035" d="M46.44,70.041v2.25h2.04v1.085H46.44V77.6c0,.972.276,1.521,1.068,1.521a3.09,3.09,0,0,0,.826-.1l.064,1.069a3.49,3.49,0,0,1-1.262.194,1.972,1.972,0,0,1-1.538-.6,2.9,2.9,0,0,1-.55-2.04V73.376H43.834V72.291h1.213V70.412Z" transform="translate(145.279 238.552)" fill="#000166"/>
    <path id="패스_3036" data-name="패스 3036" d="M48.722,70.5a.883.883,0,0,1-1.766,0,.869.869,0,0,1,.891-.891.846.846,0,0,1,.875.891m-1.587,2.2H48.56v7.836H47.135Z" transform="translate(148.228 238.143)" fill="#000166"/>
    <path id="패스_3037" data-name="패스 3037" d="M56.362,75.137a3.829,3.829,0,0,1-3.9,4.161,3.725,3.725,0,0,1-3.757-4.031,3.827,3.827,0,0,1,3.885-4.161,3.71,3.71,0,0,1,3.772,4.031m-6.217.082c0,1.717.988,3.012,2.38,3.012,1.359,0,2.38-1.279,2.38-3.045,0-1.328-.665-3.01-2.347-3.01s-2.413,1.554-2.413,3.043" transform="translate(149.879 239.558)" fill="#000166"/>
    <path id="패스_3038" data-name="패스 3038" d="M53.6,73.405c0-.809-.016-1.474-.066-2.121H54.8l.082,1.3h.031A2.882,2.882,0,0,1,57.5,71.107c1.083,0,2.767.648,2.767,3.335V79.12H58.845V74.6c0-1.264-.469-2.316-1.812-2.316a2.027,2.027,0,0,0-1.911,1.458,2.057,2.057,0,0,0-.1.663V79.12H53.6Z" transform="translate(154.442 239.559)" fill="#000166"/>
    <path id="패스_3039" data-name="패스 3039" d="M62.829,79.119l-.113-.988h-.049a2.917,2.917,0,0,1-2.4,1.167,2.232,2.232,0,0,1-2.4-2.25c0-1.9,1.684-2.932,4.71-2.915v-.161a1.614,1.614,0,0,0-1.779-1.814,3.9,3.9,0,0,0-2.04.583l-.325-.939a4.854,4.854,0,0,1,2.575-.7c2.4,0,2.979,1.635,2.979,3.206v2.928a11.02,11.02,0,0,0,.128,1.878Zm-.21-4c-1.554-.033-3.319.243-3.319,1.764a1.26,1.26,0,0,0,1.344,1.359,1.952,1.952,0,0,0,1.9-1.311,1.543,1.543,0,0,0,.08-.453Z" transform="translate(158.542 239.558)" fill="#000166"/>
    <rect id="사각형_878" data-name="사각형 878" width="1.425" height="11.494" transform="translate(224.837 307.184)" fill="#000166"/>
    <path id="패스_3040" data-name="패스 3040" d="M74.136,80.306a7.057,7.057,0,0,1-2.8.469c-3.772,0-5.715-2.347-5.715-5.454,0-3.724,2.654-5.8,5.958-5.8a6.424,6.424,0,0,1,2.687.486l-.5,1.958a5.345,5.345,0,0,0-2.073-.4,3.587,3.587,0,0,0,.016,7.171,6.18,6.18,0,0,0,2.057-.356Z" transform="translate(165.857 238.063)" fill="#000166"/>
    <path id="패스_3041" data-name="패스 3041" d="M78.258,75.137a3.829,3.829,0,0,1-3.9,4.161A3.725,3.725,0,0,1,70.6,75.267a3.827,3.827,0,0,1,3.885-4.161,3.71,3.71,0,0,1,3.772,4.031m-6.217.082c0,1.717.988,3.012,2.38,3.012,1.359,0,2.38-1.279,2.38-3.045,0-1.328-.665-3.01-2.347-3.01s-2.413,1.554-2.413,3.043" transform="translate(170.56 239.558)" fill="#000166"/>
    <path id="패스_3042" data-name="패스 3042" d="M75.5,73.405c0-.809-.016-1.474-.066-2.121h1.264l.082,1.3h.031A2.882,2.882,0,0,1,79.4,71.107c1.083,0,2.767.648,2.767,3.335V79.12H80.741V74.6c0-1.264-.469-2.316-1.812-2.316a2.027,2.027,0,0,0-1.911,1.458,2.056,2.056,0,0,0-.1.663V79.12H75.5Z" transform="translate(175.123 239.559)" fill="#000166"/>
    <path id="패스_3043" data-name="패스 3043" d="M87.114,71.284c-.033.566-.066,1.2-.066,2.153v4.55c0,1.8-.356,2.9-1.116,3.578a4.157,4.157,0,0,1-2.849.939,5.071,5.071,0,0,1-2.608-.648l.356-1.085a4.435,4.435,0,0,0,2.3.614c1.456,0,2.524-.76,2.524-2.736v-.875h-.031a2.8,2.8,0,0,1-2.493,1.313c-1.945,0-3.337-1.651-3.337-3.821,0-2.654,1.733-4.159,3.531-4.159a2.606,2.606,0,0,1,2.444,1.359H85.8l.064-1.182ZM85.64,74.376a2.08,2.08,0,0,0-2.073-2.153c-1.359,0-2.331,1.149-2.331,2.961,0,1.538.778,2.818,2.316,2.818a2.084,2.084,0,0,0,1.976-1.456,2.515,2.515,0,0,0,.113-.762Z" transform="translate(179.244 239.559)" fill="#000166"/>
    <path id="패스_3044" data-name="패스 3044" d="M84.725,73.728c0-.924-.016-1.715-.066-2.444h1.248l.049,1.538h.064a2.351,2.351,0,0,1,2.17-1.715,1.606,1.606,0,0,1,.4.047V72.5a2.22,2.22,0,0,0-.486-.049,2,2,0,0,0-1.909,1.83,3.946,3.946,0,0,0-.066.665V79.12H84.725Z" transform="translate(183.838 239.559)" fill="#000166"/>
    <path id="패스_3045" data-name="패스 3045" d="M88.4,75.461a2.51,2.51,0,0,0,2.687,2.72,5.162,5.162,0,0,0,2.168-.4L93.5,78.8a6.325,6.325,0,0,1-2.606.486,3.639,3.639,0,0,1-3.854-3.949c0-2.365,1.394-4.225,3.675-4.225,2.559,0,3.24,2.25,3.24,3.691a5.03,5.03,0,0,1-.051.663Zm4.177-1.019A2.03,2.03,0,0,0,90.6,72.126a2.361,2.361,0,0,0-2.186,2.316Z" transform="translate(186.088 239.559)" fill="#000166"/>
    <path id="패스_3046" data-name="패스 3046" d="M91.579,77.663a3.726,3.726,0,0,0,1.878.568c1.036,0,1.521-.519,1.521-1.167,0-.681-.4-1.052-1.456-1.441-1.408-.5-2.073-1.279-2.073-2.219a2.418,2.418,0,0,1,2.7-2.3,3.918,3.918,0,0,1,1.927.486l-.358,1.036a3.041,3.041,0,0,0-1.6-.455c-.842,0-1.311.488-1.311,1.069,0,.648.469.939,1.489,1.328,1.359.517,2.055,1.2,2.055,2.365,0,1.375-1.068,2.345-2.93,2.345a4.478,4.478,0,0,1-2.2-.533Z" transform="translate(190.037 239.558)" fill="#000166"/>
    <path id="패스_3047" data-name="패스 3047" d="M94.877,77.663a3.726,3.726,0,0,0,1.878.568c1.036,0,1.521-.519,1.521-1.167,0-.681-.4-1.052-1.456-1.441-1.408-.5-2.073-1.279-2.073-2.219a2.418,2.418,0,0,1,2.7-2.3,3.918,3.918,0,0,1,1.927.486l-.358,1.036a3.041,3.041,0,0,0-1.6-.455c-.842,0-1.311.488-1.311,1.069,0,.648.469.939,1.489,1.328,1.359.517,2.055,1.2,2.055,2.365,0,1.375-1.068,2.345-2.93,2.345a4.478,4.478,0,0,1-2.2-.533Z" transform="translate(193.152 239.558)" fill="#000166"/>
    <path id="패스_3048" data-name="패스 3048" d="M107.233,75.137a3.829,3.829,0,0,1-3.9,4.161,3.725,3.725,0,0,1-3.757-4.031,3.827,3.827,0,0,1,3.885-4.161,3.71,3.71,0,0,1,3.772,4.031m-6.217.082c0,1.717.988,3.012,2.38,3.012,1.359,0,2.38-1.279,2.38-3.045,0-1.328-.665-3.01-2.347-3.01s-2.413,1.554-2.413,3.043" transform="translate(197.928 239.558)" fill="#000166"/>
    <path id="패스_3049" data-name="패스 3049" d="M104.472,73.405c0-.809-.016-1.474-.066-2.121h1.264l.082,1.3h.031a2.882,2.882,0,0,1,2.592-1.472c1.083,0,2.767.648,2.767,3.335V79.12h-1.425V74.6c0-1.264-.469-2.316-1.812-2.316a2.022,2.022,0,0,0-1.91,1.458,2,2,0,0,0-.1.663V79.12h-1.425Z" transform="translate(202.488 239.559)" fill="#000166"/>
    <path id="패스_3050" data-name="패스 3050" d="M121,75.045c0,3.578-2.17,5.746-5.359,5.746-3.238,0-5.132-2.444-5.132-5.552,0-3.271,2.088-5.715,5.31-5.715,3.35,0,5.18,2.508,5.18,5.52m-7.885.146c0,2.137,1.005,3.642,2.656,3.642,1.666,0,2.621-1.587,2.621-3.708,0-1.958-.939-3.642-2.639-3.642-1.666,0-2.639,1.587-2.639,3.708" transform="translate(208.256 238.064)" fill="#000166"/>
    <path id="패스_3051" data-name="패스 3051" d="M116.766,80.812c.033-.537.066-1.33.066-2.024V69.316h1.408v4.921h.033a2.915,2.915,0,0,1,2.67-1.441c1.943,0,3.319,1.618,3.3,4,0,2.8-1.766,4.192-3.514,4.192a2.794,2.794,0,0,1-2.623-1.472h-.049l-.064,1.3Zm1.474-3.142a2.745,2.745,0,0,0,.064.517,2.2,2.2,0,0,0,2.137,1.668c1.489,0,2.38-1.215,2.38-3.01,0-1.569-.809-2.915-2.331-2.915a2.272,2.272,0,0,0-2.17,1.75,2.874,2.874,0,0,0-.08.583Z" transform="translate(214.163 237.867)" fill="#000166"/>
    <path id="패스_3052" data-name="패스 3052" d="M122.608,75.461a2.51,2.51,0,0,0,2.687,2.72,5.162,5.162,0,0,0,2.168-.4l.243,1.019a6.326,6.326,0,0,1-2.606.486,3.639,3.639,0,0,1-3.854-3.949c0-2.365,1.394-4.225,3.675-4.225,2.559,0,3.24,2.25,3.24,3.691a5.028,5.028,0,0,1-.051.663Zm4.177-1.019a2.03,2.03,0,0,0-1.976-2.316,2.363,2.363,0,0,0-2.186,2.316Z" transform="translate(218.396 239.559)" fill="#000166"/>
    <path id="패스_3053" data-name="패스 3053" d="M125.784,77.663a3.726,3.726,0,0,0,1.878.568c1.036,0,1.521-.519,1.521-1.167,0-.681-.4-1.052-1.456-1.441-1.408-.5-2.073-1.279-2.073-2.219a2.418,2.418,0,0,1,2.7-2.3,3.918,3.918,0,0,1,1.927.486l-.358,1.036a3.041,3.041,0,0,0-1.6-.455c-.842,0-1.311.488-1.311,1.069,0,.648.469.939,1.49,1.328,1.359.517,2.055,1.2,2.055,2.365,0,1.375-1.068,2.345-2.93,2.345a4.478,4.478,0,0,1-2.2-.533Z" transform="translate(222.345 239.558)" fill="#000166"/>
    <path id="패스_3054" data-name="패스 3054" d="M130.682,70.5a.882.882,0,0,1-1.764,0,.868.868,0,0,1,.891-.891.846.846,0,0,1,.873.891m-1.587,2.2h1.425v7.836h-1.425Z" transform="translate(225.641 238.143)" fill="#000166"/>
    <path id="패스_3055" data-name="패스 3055" d="M133.107,70.041v2.25h2.04v1.085h-2.04V77.6c0,.972.276,1.521,1.068,1.521a3.09,3.09,0,0,0,.826-.1l.064,1.069a3.49,3.49,0,0,1-1.262.194,1.972,1.972,0,0,1-1.538-.6,2.9,2.9,0,0,1-.55-2.04V73.376H130.5V72.291h1.213V70.412Z" transform="translate(227.136 238.552)" fill="#000166"/>
    <path id="패스_3056" data-name="패스 3056" d="M134.811,71.2l1.717,4.63c.177.517.371,1.134.5,1.6h.031c.146-.469.307-1.068.5-1.633l1.556-4.6h1.505l-2.137,5.585c-1.021,2.687-1.717,4.064-2.687,4.906a3.866,3.866,0,0,1-1.748.924l-.356-1.2a3.767,3.767,0,0,0,1.246-.694,4.372,4.372,0,0,0,1.2-1.587,1.044,1.044,0,0,0,.113-.34,1.266,1.266,0,0,0-.1-.373l-2.9-7.22Z" transform="translate(229.739 239.644)" fill="#000166"/>
    <path id="패스_3057" data-name="패스 3057" d="M143.5,79.094l-.109-.986h-.047a2.768,2.768,0,0,1-2.3,1.165,2.188,2.188,0,0,1-2.3-2.25c0-1.894,1.618-2.93,4.525-2.915v-.161a1.592,1.592,0,0,0-1.709-1.814,3.647,3.647,0,0,0-1.96.583l-.311-.939a4.544,4.544,0,0,1,2.473-.7c2.3,0,2.86,1.635,2.86,3.206v2.928a11.466,11.466,0,0,0,.124,1.878Zm-.2-4c-1.493-.033-3.187.243-3.187,1.764a1.237,1.237,0,0,0,1.291,1.361,1.88,1.88,0,0,0,1.818-1.313,1.541,1.541,0,0,0,.078-.453Z" transform="translate(234.921 239.534)" fill="#000166"/>
    <path id="패스_3058" data-name="패스 3058" d="M142.883,73.38c0-.809-.016-1.472-.062-2.121h1.211l.08,1.3h.031a2.748,2.748,0,0,1,2.487-1.472c1.042,0,2.658.648,2.658,3.335V79.1h-1.367V74.578c0-1.262-.451-2.314-1.742-2.314a1.956,1.956,0,0,0-1.834,1.456,2.06,2.06,0,0,0-.093.663V79.1h-1.369Z" transform="translate(238.772 239.535)" fill="#000166"/>
    <path id="패스_3059" data-name="패스 3059" d="M154.006,69.291v9.472c0,.7.016,1.489.062,2.022h-1.229l-.062-1.359h-.031a2.769,2.769,0,0,1-2.565,1.538c-1.818,0-3.218-1.6-3.218-3.982-.016-2.606,1.54-4.21,3.374-4.21a2.5,2.5,0,0,1,2.269,1.2h.031V69.291Zm-1.369,6.849a2.6,2.6,0,0,0-.062-.6A2.034,2.034,0,0,0,150.6,73.89c-1.416,0-2.254,1.3-2.254,3.028,0,1.587.745,2.9,2.222,2.9a2.078,2.078,0,0,0,2-1.7,2.576,2.576,0,0,0,.062-.616Z" transform="translate(242.685 237.844)" fill="#000166"/>
    <path id="패스_3060" data-name="패스 3060" d="M162.663,76.325c-.049-1.311-.1-2.9-.1-4.484h-.047c-.34,1.392-.8,2.946-1.215,4.225l-1.328,4.257h-1.927L156.882,76.1c-.354-1.279-.729-2.833-.986-4.258h-.033c-.064,1.474-.113,3.156-.2,4.517l-.191,4.144h-2.283l.7-10.911h3.284l1.069,3.642c.338,1.262.679,2.623.922,3.9h.051c.305-1.262.679-2.7,1.034-3.918l1.165-3.625h3.224l.6,10.911h-2.415Z" transform="translate(248.568 238.127)" fill="#000166"/>
    <path id="패스_3061" data-name="패스 3061" d="M166.808,75.889h-4.015v2.59h4.484V80.5h-6.961V69.591h6.736v2.024h-4.258v2.265h4.015Z" transform="translate(255.295 238.127)" fill="#000166"/>
    <path id="패스_3062" data-name="패스 3062" d="M166.812,70.016v2.25h1.958v1.085h-1.958v4.225c0,.972.264,1.523,1.027,1.523a2.839,2.839,0,0,0,.793-.1l.062,1.069a3.25,3.25,0,0,1-1.213.194,1.851,1.851,0,0,1-1.476-.6,2.984,2.984,0,0,1-.529-2.04V73.351h-1.167V72.266h1.167V70.387Z" transform="translate(259.066 238.528)" fill="#000166"/>
    <path id="패스_3063" data-name="패스 3063" d="M171.8,79.094l-.109-.986h-.047a2.77,2.77,0,0,1-2.3,1.165,2.188,2.188,0,0,1-2.3-2.25c0-1.894,1.618-2.93,4.525-2.915v-.161a1.592,1.592,0,0,0-1.709-1.814,3.647,3.647,0,0,0-1.96.583l-.311-.939a4.544,4.544,0,0,1,2.473-.7c2.3,0,2.86,1.635,2.86,3.206v2.928a11.464,11.464,0,0,0,.124,1.878Zm-.2-4c-1.491-.033-3.187.243-3.187,1.764a1.237,1.237,0,0,0,1.291,1.361,1.88,1.88,0,0,0,1.818-1.313,1.541,1.541,0,0,0,.078-.453Z" transform="translate(261.649 239.534)" fill="#000166"/>
    <path id="패스_3064" data-name="패스 3064" d="M171.122,80.785c.031-.535.06-1.328.06-2.022V69.291h1.353v4.922h.031a2.781,2.781,0,0,1,2.565-1.441c1.867,0,3.187,1.62,3.172,4,0,2.8-1.694,4.192-3.374,4.192a2.662,2.662,0,0,1-2.518-1.474h-.047l-.062,1.3Zm1.414-3.14a2.747,2.747,0,0,0,.062.517,2.128,2.128,0,0,0,2.051,1.668c1.431,0,2.285-1.213,2.285-3.01,0-1.571-.776-2.915-2.238-2.915a2.2,2.2,0,0,0-2.083,1.748,2.9,2.9,0,0,0-.078.583Z" transform="translate(265.502 237.844)" fill="#000166"/>
    <path id="패스_3065" data-name="패스 3065" d="M182.727,75.114c0,2.9-1.929,4.159-3.747,4.159-2.036,0-3.605-1.554-3.605-4.031,0-2.623,1.647-4.161,3.73-4.161,2.16,0,3.623,1.635,3.623,4.033m-5.97.08c0,1.717.949,3.012,2.285,3.012,1.307,0,2.287-1.279,2.287-3.045,0-1.326-.638-3.01-2.256-3.01s-2.316,1.554-2.316,3.043" transform="translate(269.519 239.534)" fill="#000166"/>
    <rect id="사각형_879" data-name="사각형 879" width="1.369" height="11.494" transform="translate(453.879 307.137)" fill="#000166"/>
    <path id="패스_3066" data-name="패스 3066" d="M183.441,70.474a.821.821,0,0,1-.869.873.831.831,0,0,1-.824-.873.851.851,0,0,1,.856-.891.828.828,0,0,1,.838.891m-1.523,2.2h1.369v7.836h-1.369Z" transform="translate(275.537 238.118)" fill="#000166"/>
    <path id="패스_3067" data-name="패스 3067" d="M189.285,78.8a4.865,4.865,0,0,1-2.16.453,3.654,3.654,0,0,1-3.747-4,3.9,3.9,0,0,1,4.043-4.161,4.413,4.413,0,0,1,1.9.4l-.311,1.1a3.091,3.091,0,0,0-1.585-.371,2.965,2.965,0,0,0-.047,5.894,3.747,3.747,0,0,0,1.678-.391Z" transform="translate(277.077 239.542)" fill="#000166"/>
    <path id="패스_3068" data-name="패스 3068" d="M189.091,78.048a6.29,6.29,0,0,0,2.736.679c1.134,0,1.733-.469,1.733-1.18,0-.681-.517-1.069-1.83-1.538-1.812-.632-2.995-1.635-2.995-3.222,0-1.861,1.554-3.286,4.128-3.286a6.679,6.679,0,0,1,2.785.55l-.55,1.991a5.2,5.2,0,0,0-2.283-.517c-1.067,0-1.587.484-1.587,1.052,0,.7.614,1,2.024,1.538,1.925.712,2.833,1.715,2.833,3.253,0,1.83-1.41,3.383-4.4,3.383a7.133,7.133,0,0,1-3.092-.663Z" transform="translate(281.999 238.041)" fill="#000166"/>
    <path id="패스_3069" data-name="패스 3069" d="M194.269,71.173l1.647,4.63c.173.519.358,1.134.482,1.6h.031c.14-.469.3-1.068.482-1.633l1.491-4.6h1.447L197.8,76.758c-.98,2.689-1.649,4.064-2.58,4.906a3.663,3.663,0,0,1-1.68.924l-.342-1.2a3.612,3.612,0,0,0,1.2-.7,4.289,4.289,0,0,0,1.149-1.587,1.016,1.016,0,0,0,.109-.34,1.245,1.245,0,0,0-.091-.371l-2.785-7.222Z" transform="translate(285.955 239.621)" fill="#000166"/>
    <path id="패스_3070" data-name="패스 3070" d="M197.036,73.38c0-.809-.016-1.472-.062-2.121h1.211l.08,1.3h.031a2.748,2.748,0,0,1,2.487-1.472c1.042,0,2.658.648,2.658,3.335V79.1h-1.367V74.578c0-1.262-.451-2.314-1.742-2.314a1.957,1.957,0,0,0-1.834,1.456,2.061,2.061,0,0,0-.093.663V79.1h-1.369Z" transform="translate(289.919 239.535)" fill="#000166"/>
    <path id="패스_3071" data-name="패스 3071" d="M208.159,69.291v9.472c0,.7.014,1.489.062,2.022h-1.229l-.062-1.359H206.9a2.767,2.767,0,0,1-2.565,1.538c-1.818,0-3.218-1.6-3.218-3.982-.016-2.606,1.54-4.21,3.374-4.21a2.5,2.5,0,0,1,2.269,1.2h.031V69.291ZM206.79,76.14a2.6,2.6,0,0,0-.062-.6,2.034,2.034,0,0,0-1.974-1.651c-1.416,0-2.254,1.3-2.254,3.028,0,1.587.745,2.9,2.223,2.9a2.078,2.078,0,0,0,2-1.7,2.577,2.577,0,0,0,.062-.616Z" transform="translate(293.831 237.844)" fill="#000166"/>
    <path id="패스_3072" data-name="패스 3072" d="M205.887,73.7c0-.924-.016-1.717-.062-2.446h1.2l.047,1.54h.062a2.276,2.276,0,0,1,2.083-1.717,1.477,1.477,0,0,1,.389.049v1.344a1.875,1.875,0,0,0-2.3,1.781,3.94,3.94,0,0,0-.062.663v4.177h-1.353Z" transform="translate(298.28 239.534)" fill="#000166"/>
    <path id="패스_3073" data-name="패스 3073" d="M215.417,75.114c0,2.9-1.929,4.159-3.747,4.159-2.036,0-3.605-1.554-3.605-4.031,0-2.623,1.647-4.161,3.73-4.161,2.16,0,3.623,1.635,3.623,4.033m-5.97.08c0,1.717.947,3.012,2.285,3.012,1.307,0,2.287-1.279,2.287-3.045,0-1.326-.64-3.01-2.256-3.01s-2.316,1.554-2.316,3.043" transform="translate(300.396 239.534)" fill="#000166"/>
    <path id="패스_3074" data-name="패스 3074" d="M212.716,73.38c0-.809-.016-1.472-.062-2.121h1.2l.062,1.264h.047a2.579,2.579,0,0,1,2.363-1.441,2.233,2.233,0,0,1,2.129,1.571h.031a3.2,3.2,0,0,1,.84-1.021,2.5,2.5,0,0,1,1.663-.55c1,0,2.473.681,2.473,3.4V79.1h-1.338V74.66c0-1.505-.529-2.413-1.631-2.413a1.785,1.785,0,0,0-1.618,1.3,2.431,2.431,0,0,0-.109.712V79.1h-1.338V74.4c0-1.244-.527-2.153-1.569-2.153a1.885,1.885,0,0,0-1.694,1.425,2.035,2.035,0,0,0-.109.7V79.1h-1.338Z" transform="translate(304.729 239.535)" fill="#000166"/>
    <path id="패스_3075" data-name="패스 3075" d="M220.331,75.435a2.46,2.46,0,0,0,2.582,2.72,4.768,4.768,0,0,0,2.083-.4l.233,1.019a5.868,5.868,0,0,1-2.5.488c-2.316,0-3.7-1.589-3.7-3.951s1.336-4.225,3.529-4.225c2.456,0,3.109,2.25,3.109,3.691a5.574,5.574,0,0,1-.047.663Zm4.011-1.019c.016-.906-.356-2.316-1.9-2.316-1.385,0-1.991,1.328-2.1,2.316Z" transform="translate(310.747 239.534)" fill="#000166"/>
    <path id="패스_3076" data-name="패스 3076" d="M224.911,69.292h1.369V74.18h.029a2.582,2.582,0,0,1,.98-1,2.733,2.733,0,0,1,1.4-.4c1.011,0,2.627.648,2.627,3.35v4.661h-1.367v-4.5c0-1.266-.451-2.333-1.742-2.333a1.977,1.977,0,0,0-1.834,1.425,1.748,1.748,0,0,0-.093.679v4.727h-1.369Z" transform="translate(316.306 237.844)" fill="#000166"/>
    <path id="패스_3077" data-name="패스 3077" d="M236.373,75.114c0,2.9-1.929,4.159-3.747,4.159-2.036,0-3.605-1.554-3.605-4.031,0-2.623,1.647-4.161,3.73-4.161,2.16,0,3.623,1.635,3.623,4.033m-5.97.08c0,1.717.947,3.012,2.285,3.012,1.307,0,2.287-1.279,2.287-3.045,0-1.326-.64-3.01-2.256-3.01S230.4,73.7,230.4,75.194" transform="translate(320.188 239.534)" fill="#000166"/>
    <path id="패스_3078" data-name="패스 3078" d="M233.712,77.638a3.479,3.479,0,0,0,1.8.568c1,0,1.462-.519,1.462-1.167,0-.681-.389-1.052-1.4-1.441-1.351-.5-1.989-1.279-1.989-2.219a2.357,2.357,0,0,1,2.6-2.3,3.635,3.635,0,0,1,1.849.486l-.34,1.036a2.852,2.852,0,0,0-1.54-.453,1.114,1.114,0,0,0-1.26,1.068c0,.648.451.939,1.431,1.328,1.3.517,1.976,1.2,1.976,2.365,0,1.375-1.027,2.347-2.816,2.347a4.163,4.163,0,0,1-2.114-.535Z" transform="translate(324.296 239.534)" fill="#000166"/>
    <path id="패스_3079" data-name="패스 3079" d="M238.823,70.016v2.25h1.958v1.085h-1.958v4.225c0,.972.264,1.523,1.027,1.523a2.85,2.85,0,0,0,.793-.1l.06,1.069a3.231,3.231,0,0,1-1.211.194,1.854,1.854,0,0,1-1.476-.6,2.985,2.985,0,0,1-.529-2.04V73.351H236.32V72.266h1.167V70.387Z" transform="translate(327.081 238.528)" fill="#000166"/>
    <path id="패스_3080" data-name="패스 3080" d="M240.336,75.435a2.46,2.46,0,0,0,2.582,2.72,4.768,4.768,0,0,0,2.083-.4l.233,1.019a5.868,5.868,0,0,1-2.5.488c-2.316,0-3.7-1.589-3.7-3.951s1.336-4.225,3.529-4.225c2.456,0,3.109,2.25,3.109,3.691a5.577,5.577,0,0,1-.047.663Zm4.011-1.019c.016-.906-.356-2.316-1.9-2.316-1.384,0-1.991,1.328-2.1,2.316Z" transform="translate(329.643 239.534)" fill="#000166"/>
    <path id="패스_3081" data-name="패스 3081" d="M250.031,69.291v9.472c0,.7.016,1.489.062,2.022h-1.229l-.062-1.359h-.031a2.769,2.769,0,0,1-2.565,1.538c-1.818,0-3.218-1.6-3.218-3.982-.016-2.606,1.54-4.21,3.374-4.21a2.5,2.5,0,0,1,2.269,1.2h.031V69.291Zm-1.369,6.849a2.6,2.6,0,0,0-.062-.6,2.034,2.034,0,0,0-1.974-1.651c-1.416,0-2.254,1.3-2.254,3.028,0,1.587.745,2.9,2.223,2.9a2.078,2.078,0,0,0,2-1.7,2.575,2.575,0,0,0,.062-.616Z" transform="translate(333.379 237.844)" fill="#000166"/>
    <path id="패스_3082" data-name="패스 3082" d="M249.345,80.785c.031-.535.06-1.328.06-2.022V69.291h1.353v4.922h.031a2.781,2.781,0,0,1,2.565-1.441c1.867,0,3.187,1.62,3.172,4,0,2.8-1.694,4.192-3.374,4.192a2.66,2.66,0,0,1-2.518-1.474h-.047l-.062,1.3Zm1.414-3.14a2.747,2.747,0,0,0,.062.517,2.128,2.128,0,0,0,2.051,1.668c1.431,0,2.285-1.213,2.285-3.01,0-1.571-.776-2.915-2.238-2.915a2.2,2.2,0,0,0-2.083,1.748,2.913,2.913,0,0,0-.078.583Z" transform="translate(339.384 237.844)" fill="#000166"/>
    <path id="패스_3083" data-name="패스 3083" d="M254.8,71.173l1.647,4.63c.173.519.358,1.134.482,1.6h.033c.138-.469.294-1.068.48-1.633l1.491-4.6h1.447l-2.051,5.585c-.98,2.689-1.649,4.064-2.58,4.906a3.662,3.662,0,0,1-1.68.924l-.34-1.2a3.625,3.625,0,0,0,1.2-.7,4.289,4.289,0,0,0,1.149-1.587,1.018,1.018,0,0,0,.109-.34,1.2,1.2,0,0,0-.093-.371l-2.783-7.222Z" transform="translate(343.128 239.621)" fill="#000166"/>
    <path id="패스_3084" data-name="패스 3084" d="M259.211,69.591h1.352v5.262h.047c.28-.42.56-.809.824-1.165l3.2-4.1h1.68l-3.794,4.63L266.61,80.5h-1.6l-3.452-5.359-1,1.2V80.5h-1.352Z" transform="translate(348.702 238.127)" fill="#000166"/>
    <path id="패스_3085" data-name="패스 3085" d="M263.567,78.872a4.654,4.654,0,0,0,2.425.714c1.384,0,2.191-.762,2.191-1.863,0-1.021-.558-1.6-1.974-2.17-1.711-.63-2.767-1.554-2.767-3.092,0-1.7,1.353-2.961,3.387-2.961a4.6,4.6,0,0,1,2.318.535l-.373,1.149a4.022,4.022,0,0,0-1.989-.519c-1.431,0-1.974.891-1.974,1.635,0,1.019.636,1.521,2.083,2.1,1.771.712,2.674,1.6,2.674,3.206,0,1.684-1.2,3.14-3.669,3.14a5.247,5.247,0,0,1-2.674-.7Z" transform="translate(352.492 238.041)" fill="#000166"/>
    <path id="패스_3086" data-name="패스 3086" d="M267.46,78.872a4.648,4.648,0,0,0,2.425.714c1.384,0,2.192-.762,2.192-1.863,0-1.021-.558-1.6-1.974-2.17-1.711-.63-2.767-1.554-2.767-3.092,0-1.7,1.353-2.961,3.389-2.961a4.594,4.594,0,0,1,2.316.535l-.373,1.149a4.022,4.022,0,0,0-1.989-.519c-1.431,0-1.974.891-1.974,1.635,0,1.019.636,1.521,2.083,2.1,1.771.712,2.674,1.6,2.674,3.206,0,1.684-1.2,3.14-3.669,3.14a5.247,5.247,0,0,1-2.674-.7Z" transform="translate(356.171 238.041)" fill="#000166"/>
    <path id="패스_3087" data-name="패스 3087" d="M280.54,75.019c0,3.757-2.191,5.748-4.865,5.748-2.767,0-4.71-2.234-4.71-5.538,0-3.463,2.067-5.73,4.865-5.73,2.86,0,4.71,2.283,4.71,5.52m-8.13.179c0,2.331,1.213,4.42,3.343,4.42,2.145,0,3.358-2.057,3.358-4.535,0-2.168-1.089-4.435-3.343-4.435-2.238,0-3.358,2.154-3.358,4.55" transform="translate(359.805 238.04)" fill="#000166"/>
  </g>
</svg>
