<svg xmlns="http://www.w3.org/2000/svg" xmlns:xlink="http://www.w3.org/1999/xlink" width="703.768" height="176.537" viewBox="0 0 703.768 176.537">
  <defs>
    <clipPath id="clip-path">
      <rect id="사각형_924" data-name="사각형 924" width="703.768" height="176.537" fill="none"/>
    </clipPath>
  </defs>
  <g id="그룹_366" data-name="그룹 366" transform="translate(0 0)">
    <g id="그룹_365" data-name="그룹 365" transform="translate(0 0)" clip-path="url(#clip-path)">
      <path id="패스_1880" data-name="패스 1880" d="M0,151.182c21.645-8.067,43.541-14.508,68.79-11.787,42.674,4.6,66.668,34.056,110.1,35.1,44.838,1.076,73.19-29.066,117.943-30.448,45.775-1.413,76.916,27.383,122.32,31.168,58.115,4.846,102.149-32.537,160.88-32.026,45.7.4,81.919,23.6,123.736,31.325V2.285H0Z" transform="translate(0 0.89)" fill="#006fbb"/>
      <path id="패스_1881" data-name="패스 1881" d="M0,130.521c29.879-7.832,54.565-25.807,88.9-26.867,45.775-1.415,76.916,27.383,122.32,31.168,58.115,4.844,102.149-32.538,160.88-32.026,56.908.495,99.1,36.349,155.719,33.657,44.408-2.112,74.872-27.547,119.323-29.424,19.828-.838,38.894,3.232,56.626,8.464V1.622H0Z" transform="translate(0 0.632)" fill="#004fa1"/>
      <path id="패스_1882" data-name="패스 1882" d="M0,65.99a106.19,106.19,0,0,1,16.924-1.922C62.7,62.655,93.84,91.453,139.245,95.238c58.115,4.844,102.149-32.538,160.88-32.027,56.908.5,99.1,36.35,155.719,33.657,44.408-2.111,74.872-27.545,119.323-29.423,25.015-1.056,48.823,5.689,70.261,12.739,18.039,5.932,37.662,12.693,58.341,15.246V0H0Z" transform="translate(0 0)" fill="#003b90"/>
    </g>
  </g>
</svg>
