<svg xmlns="http://www.w3.org/2000/svg" xmlns:xlink="http://www.w3.org/1999/xlink" width="158.307" height="136.174" viewBox="0 0 158.307 136.174">
  <defs>
    <clipPath id="clip-path">
      <rect id="사각형_610" data-name="사각형 610" width="42.776" height="85.545" fill="#ffbf40"/>
    </clipPath>
  </defs>
  <g id="그룹_314" data-name="그룹 314" transform="translate(0)">
    <path id="패스_2190" data-name="패스 2190" d="M153.686,82.9l-5.3-7.679H131.783l-5.3,7.679,13.6-1.046Z" transform="translate(-60.929 -54.944)" fill="#6d6e71"/>
    <path id="패스_2191" data-name="패스 2191" d="M200.766,119.518a42.774,42.774,0,1,1-42.776-42.776,42.767,42.767,0,0,1,42.776,42.776" transform="translate(-78.834 -52.534)" fill="#ffeb00"/>
    <path id="패스_2192" data-name="패스 2192" d="M185.86,113.85a33.539,33.539,0,1,1-33.539-33.541A33.533,33.533,0,0,1,185.86,113.85" transform="translate(-73.169 -46.866)" fill="#fff691"/>
    <g id="그룹_309" data-name="그룹 309" transform="translate(79.156 24.205)" opacity="0.5">
      <g id="그룹_308" data-name="그룹 308" transform="translate(0)">
        <g id="그룹_307" data-name="그룹 307" clip-path="url(#clip-path)">
          <path id="패스_2194" data-name="패스 2194" d="M174.514,119.518a42.773,42.773,0,0,0-42.776-42.776v85.543a42.767,42.767,0,0,0,42.776-42.766" transform="translate(-131.738 -76.739)" fill="#ffbf40"/>
        </g>
      </g>
    </g>
    <path id="패스_2312" data-name="패스 2312" d="M300.915,195.608l.11,1.052.105,1.047a54.07,54.07,0,0,0,9.464-1.778,17.266,17.266,0,0,0,5.777,5.754c3.649,2.22,8.648.693,8.648.693s-2.387-5.315-6.477-6.978a11.894,11.894,0,0,0-4.1-.626,65.094,65.094,0,0,0,6.611-2.661,17.019,17.019,0,0,0,6.58,4.588c3.9,1.53,8.461-.806,8.461-.806s-3.208-4.717-7.432-5.628a11.97,11.97,0,0,0-4.147.1q1.189-.643,2.412-1.36,1.925-1.074,3.849-2.4a16.608,16.608,0,0,0,7.083,3.269c4.019.811,8.027-2.217,8.027-2.217s-3.9-4.006-8.138-4.165a11.244,11.244,0,0,0-3.821.747,58.312,58.312,0,0,0,5.3-4.871,16.3,16.3,0,0,0,7.463,1.989c4.014.095,7.368-3.508,7.368-3.508s-4.44-3.2-8.561-2.633a11.8,11.8,0,0,0-3.89,1.555,65.8,65.8,0,0,0,4.612-5.967,15.968,15.968,0,0,0,7.681.7c3.893-.588,6.516-4.637,6.516-4.637s-4.832-2.335-8.707-1.088a12.177,12.177,0,0,0-3.785,2.42,65.551,65.551,0,0,0,3.739-6.926,15.675,15.675,0,0,0,7.535-.636c3.654-1.232,5.494-5.584,5.494-5.584s-5.063-1.432-8.592.431a11.784,11.784,0,0,0-3.193,2.926A61.8,61.8,0,0,0,355.384,151a15.328,15.328,0,0,0,7.137-1.889c3.323-1.812,4.36-6.328,4.36-6.328s-5.127-.521-8.215,1.879a11.33,11.33,0,0,0-2.556,3.311,57.88,57.88,0,0,0,1.047-7.732,15.038,15.038,0,0,0,6.626-3.056c2.9-2.31,3.128-6.847,3.128-6.847s-5.038.377-7.609,3.218a11.511,11.511,0,0,0-1.945,3.742,57.293,57.293,0,0,0-.226-8.225A14.717,14.717,0,0,0,362.978,125c2.4-2.72,1.848-7.134,1.848-7.134s-4.8,1.214-6.8,4.393a11.272,11.272,0,0,0-1.247,4.019,61.779,61.779,0,0,0-1.809-8.21,14.352,14.352,0,0,0,5.066-4.989c1.861-3.038.583-7.2.583-7.2s-4.432,1.991-5.82,5.4a12.156,12.156,0,0,0-.5,4.622,66.2,66.2,0,0,0-3.38-8.238,13.9,13.9,0,0,0,4.127-5.736c1.273-3.246-.667-7.057-.667-7.057s-3.934,2.677-4.691,6.205a12.489,12.489,0,0,0,.375,4.894,64.617,64.617,0,0,0-4.886-7.871,13.653,13.653,0,0,0,3-6.226c.672-3.354-1.845-6.693-1.845-6.693s-3.346,3.244-3.477,6.78A12.112,12.112,0,0,0,344,96.514a55.316,55.316,0,0,0-6.085-6.711,13.425,13.425,0,0,0,1.825-6.526c.085-3.354-2.923-6.146-2.923-6.146s-2.671,3.7-2.189,7.139a12.145,12.145,0,0,0,2,4.381c-.752-.649-1.514-1.268-2.276-1.843-1.714-1.386-3.408-2.6-5.051-3.69a13.058,13.058,0,0,0,.721-6.762c-.493-3.249-3.86-5.435-3.86-5.435s-1.955,4.032-.908,7.263a12.963,12.963,0,0,0,3.092,4.314,61.168,61.168,0,0,0-8.464-4.488,12.874,12.874,0,0,0-.441-6.711c-1.029-3.046-4.663-4.583-4.663-4.583s-1.188,4.224.367,7.165a13.462,13.462,0,0,0,3.944,3.79c-1.725-.713-3.257-1.25-4.545-1.658-.393-.482-2.281-2.733-4.594-3.128-1.848-.316-4.95.878-4.95.878a9.82,9.82,0,0,0,4.5,3.056,6.926,6.926,0,0,0,4.917-.6,58.543,58.543,0,0,1,5.707,2.307c-1.293-.223-3.934-.567-5.582-.021-3.159,1.032-5.233,4.9-5.233,4.9s3.677,1.419,6.529-.072A12.719,12.719,0,0,0,320.8,78.85a61.884,61.884,0,0,1,8.189,4.74,13,13,0,0,0-5.161-.862c-3.364.48-6.131,4-6.131,4s3.449,2.071,6.572,1.086a13,13,0,0,0,5.7-3.544q1.955,1.386,3.97,3.049a45.3,45.3,0,0,1,3.544,3.077,13.409,13.409,0,0,0-5.1-1.814c-3.465-.113-6.867,2.931-6.867,2.931s3.1,2.695,6.421,2.256A13.221,13.221,0,0,0,338.3,91.2a56.32,56.32,0,0,1,6.005,7.155A12.875,12.875,0,0,0,339.84,95.9c-3.459-.734-7.419,1.73-7.419,1.73s2.633,3.251,6.046,3.405a13.683,13.683,0,0,0,6.736-1.388,64.629,64.629,0,0,1,4.5,7.776,12.258,12.258,0,0,0-3.744-2.923c-3.349-1.347-7.76.423-7.76.423s2.066,3.737,5.474,4.491a14.008,14.008,0,0,0,6.888-.162,65.971,65.971,0,0,1,3.118,8.387,12.548,12.548,0,0,0-3.228-3.583c-3.123-1.945-7.876-.944-7.876-.944s1.414,4.119,4.7,5.482a14.361,14.361,0,0,0,6.957,1.06,59.856,59.856,0,0,1,1.6,8.943,12.954,12.954,0,0,0-2.672-4.314c-2.795-2.507-7.742-2.348-7.742-2.348s.69,4.393,3.754,6.349A14.591,14.591,0,0,0,356,130.573a54.3,54.3,0,0,1-.11,8.589,12.586,12.586,0,0,0-1.83-4.447c-2.366-3.013-7.373-3.729-7.373-3.729s-.08,4.532,2.651,7.042a14.911,14.911,0,0,0,6.357,3.493,56.053,56.053,0,0,1-1.46,8.13,12.67,12.67,0,0,0-1.047-4.75c-1.845-3.447-6.747-5.056-6.747-5.056s-.88,4.547,1.414,7.547a15.384,15.384,0,0,0,5.72,4.617,60.128,60.128,0,0,1-2.777,7.409,12.5,12.5,0,0,0-.241-4.663c-1.24-3.793-5.879-6.275-5.879-6.275s-1.7,4.406.085,7.832a15.432,15.432,0,0,0,4.848,5.6,63.2,63.2,0,0,1-3.865,6.652,12.2,12.2,0,0,0,.516-4.5c-.572-4.032-4.8-7.345-4.8-7.345s-2.482,4.129-1.3,7.884A15.951,15.951,0,0,0,344,171.049a62.949,62.949,0,0,1-5.1,6.128,12.836,12.836,0,0,0,1.422-4.65c.136-4.152-3.518-8.23-3.518-8.23s-3.231,3.708-2.7,7.694a16.172,16.172,0,0,0,2.772,7.234,55.4,55.4,0,0,1-6.161,5.151,13.4,13.4,0,0,0,2.312-4.5c.873-4.15-2.081-8.9-2.081-8.9s-3.9,3.157-4.086,7.257a16.592,16.592,0,0,0,1.5,7.73c-.806.5-1.609.983-2.4,1.417-1.458.849-2.882,1.6-4.27,2.279a13.113,13.113,0,0,0,2.867-3.855c1.6-4.024-.511-9.318-.511-9.318s-4.486,2.484-5.394,6.567a16.91,16.91,0,0,0,.11,7.948,61.264,61.264,0,0,1-7.057,2.512,13.048,13.048,0,0,0,3.513-3.334c2.328-3.749,1.134-9.444,1.134-9.444s-4.943,1.7-6.582,5.638a17.338,17.338,0,0,0-1.3,7.973,54.731,54.731,0,0,1-7.553,1.26" transform="translate(-208.606 -66.714)" fill="#ffeb00"/>
    <path id="패스_2311" data-name="패스 2311" d="M323.392,193.607a17.345,17.345,0,0,0-1.3-7.971c-1.64-3.944-6.575-5.648-6.575-5.648s-1.2,5.7,1.127,9.454a13.174,13.174,0,0,0,3.508,3.331,60.831,60.831,0,0,1-7.052-2.518,16.971,16.971,0,0,0,.11-7.945c-.911-4.083-5.392-6.57-5.392-6.57s-2.117,5.3-.508,9.316a12.872,12.872,0,0,0,2.864,3.862c-1.388-.677-2.813-1.429-4.268-2.284q-1.2-.651-2.41-1.414a16.526,16.526,0,0,0,1.5-7.73c-.185-4.1-4.085-7.257-4.085-7.257s-2.951,4.755-2.079,8.9a13.274,13.274,0,0,0,2.31,4.5,55.039,55.039,0,0,1-6.159-5.145,16.3,16.3,0,0,0,2.777-7.237c.521-3.983-2.713-7.694-2.713-7.694s-3.649,4.08-3.513,8.233a12.9,12.9,0,0,0,1.424,4.655,64.257,64.257,0,0,1-5.1-6.136,15.954,15.954,0,0,0,3.844-6.444c1.178-3.757-1.306-7.889-1.306-7.889s-4.221,3.318-4.8,7.342a12.283,12.283,0,0,0,.524,4.5,65.3,65.3,0,0,1-3.87-6.649,15.576,15.576,0,0,0,4.85-5.6c1.781-3.423.087-7.835.087-7.835s-4.642,2.482-5.879,6.275a12.336,12.336,0,0,0-.241,4.663,60.833,60.833,0,0,1-2.782-7.411A15.215,15.215,0,0,0,284,146.649c2.3-3,1.419-7.542,1.419-7.542s-4.9,1.609-6.742,5.053a12.55,12.55,0,0,0-1.052,4.748,54.837,54.837,0,0,1-1.458-8.133,14.967,14.967,0,0,0,6.354-3.488c2.728-2.507,2.646-7.047,2.646-7.047s-5,.719-7.368,3.736a12.629,12.629,0,0,0-1.83,4.447,54.418,54.418,0,0,1-.11-8.6,14.455,14.455,0,0,0,6.824-2.292c3.062-1.953,3.76-6.344,3.76-6.344s-4.958-.164-7.75,2.343a13.023,13.023,0,0,0-2.672,4.314,60.6,60.6,0,0,1,1.6-8.941,14.435,14.435,0,0,0,6.952-1.06c3.293-1.368,4.707-5.487,4.707-5.487s-4.753-1-7.878.947a12.434,12.434,0,0,0-3.223,3.577,65.265,65.265,0,0,1,3.118-8.379,14.1,14.1,0,0,0,6.885.162c3.408-.762,5.474-4.5,5.474-4.5s-4.411-1.766-7.763-.423a12.247,12.247,0,0,0-3.734,2.928,62.972,62.972,0,0,1,4.5-7.773,13.721,13.721,0,0,0,6.731,1.386c3.418-.157,6.049-3.408,6.049-3.408s-3.96-2.456-7.419-1.727a12.808,12.808,0,0,0-4.47,2.461,56.986,56.986,0,0,1,6.005-7.147,13.4,13.4,0,0,0,6.37,2.561c3.323.434,6.421-2.256,6.421-2.256s-3.4-3.049-6.865-2.936a13.424,13.424,0,0,0-5.1,1.814,44.274,44.274,0,0,1,3.539-3.074c1.345-1.119,2.666-2.122,3.965-3.046a13.145,13.145,0,0,0,5.7,3.536c3.128.991,6.575-1.08,6.575-1.08s-2.772-3.526-6.123-4a13.049,13.049,0,0,0-5.169.857,63.082,63.082,0,0,1,8.194-4.737,12.744,12.744,0,0,0,4.953,4.483c2.856,1.488,6.536.077,6.536.077s-2.076-3.867-5.233-4.907a13.793,13.793,0,0,0-5.589.026,59.916,59.916,0,0,1,5.71-2.3,6.969,6.969,0,0,0,4.922.6,9.9,9.9,0,0,0,4.5-3.064s-3.108-1.186-4.958-.875c-2.315.4-4.206,2.643-4.591,3.133-1.288.4-2.823.939-4.553,1.655a13.3,13.3,0,0,0,3.947-3.793c1.558-2.941.364-7.162.364-7.162s-3.629,1.535-4.655,4.583a12.806,12.806,0,0,0-.441,6.708,61,61,0,0,0-8.466,4.486,12.941,12.941,0,0,0,3.092-4.309c1.047-3.234-.9-7.26-.9-7.26s-3.372,2.184-3.862,5.433a12.928,12.928,0,0,0,.721,6.76Q300.076,84,297.5,86.067c-.762.572-1.519,1.193-2.276,1.845a12.3,12.3,0,0,0,2.012-4.388c.475-3.436-2.2-7.137-2.2-7.137s-3.013,2.792-2.923,6.146a13.33,13.33,0,0,0,1.83,6.523,55.37,55.37,0,0,0-6.095,6.713A12.065,12.065,0,0,0,289,91.215c-.136-3.536-3.48-6.785-3.48-6.785s-2.515,3.341-1.845,6.693a13.8,13.8,0,0,0,2.992,6.223,64.543,64.543,0,0,0-4.881,7.876,12.414,12.414,0,0,0,.375-4.9c-.755-3.529-4.691-6.205-4.691-6.205s-1.938,3.811-.665,7.057a13.953,13.953,0,0,0,4.124,5.741,66.407,66.407,0,0,0-3.377,8.23,12.033,12.033,0,0,0-.508-4.617c-1.388-3.408-5.813-5.4-5.813-5.4s-1.278,4.165.58,7.206a14.236,14.236,0,0,0,5.073,4.984,60.049,60.049,0,0,0-1.809,8.215,11.48,11.48,0,0,0-1.255-4.024c-1.994-3.177-6.8-4.391-6.8-4.391s-.552,4.417,1.85,7.139a14.74,14.74,0,0,0,5.843,4.062,57.761,57.761,0,0,0-.226,8.233,11.48,11.48,0,0,0-1.94-3.752c-2.574-2.841-7.612-3.213-7.612-3.213s.226,4.535,3.126,6.847a14.939,14.939,0,0,0,6.626,3.051,57.18,57.18,0,0,0,1.05,7.74,11.482,11.482,0,0,0-2.553-3.316c-3.092-2.4-8.22-1.879-8.22-1.879s1.039,4.517,4.358,6.326a15.321,15.321,0,0,0,7.137,1.894,61.837,61.837,0,0,0,2.482,7.4,11.951,11.951,0,0,0-3.193-2.918c-3.536-1.868-8.592-.431-8.592-.431s1.835,4.352,5.492,5.577a15.586,15.586,0,0,0,7.535.639,66.617,66.617,0,0,0,3.739,6.934,12.162,12.162,0,0,0-3.79-2.423c-3.867-1.25-8.7,1.091-8.7,1.091s2.62,4.047,6.516,4.637a15.978,15.978,0,0,0,7.683-.706,66.031,66.031,0,0,0,4.612,5.974,11.675,11.675,0,0,0-3.891-1.558c-4.119-.567-8.561,2.636-8.561,2.636s3.349,3.6,7.368,3.5a16.272,16.272,0,0,0,7.465-1.984,59.8,59.8,0,0,0,5.3,4.871,11.235,11.235,0,0,0-3.819-.744c-4.237.154-8.14,4.16-8.14,4.16s4.009,3.026,8.03,2.215a16.711,16.711,0,0,0,7.083-3.264c1.283.885,2.566,1.689,3.849,2.4q1.224.724,2.41,1.363a12.018,12.018,0,0,0-4.145-.1c-4.227.911-7.435,5.636-7.435,5.636s4.563,2.322,8.456.8a16.971,16.971,0,0,0,6.583-4.586,61.989,61.989,0,0,0,6.616,2.656,11.905,11.905,0,0,0-4.106.634c-4.093,1.66-6.475,6.973-6.475,6.973s5,1.535,8.641-.693a17.245,17.245,0,0,0,5.79-5.756,54.043,54.043,0,0,0,9.457,1.781l.105-1.05.105-1.047a55.7,55.7,0,0,1-7.542-1.26" transform="translate(-264.945 -65.973)" fill="#ffeb00"/>
    <text id="_2" data-name="2" transform="translate(64.685 80.263)" fill="#f6a400" font-size="50" font-family="NanumGothicExtraBold, NanumGothic"><tspan x="0" y="0">2</tspan></text>
  </g>
</svg>
